#N canvas 462 200 727 435 12;
#X obj 606 286 tgl 15 0 empty empty empty 17 7 0 10 -262144 -1 -1 0
1;
#X floatatom 566 366 5 0 0 0 - - -;
#N canvas 0 23 450 300 two_notes 0;
#X obj 123 56 metro 500;
#X obj 124 94 tgl 15 0 empty empty empty 17 7 0 10 -262144 -1 -1 0
1;
#X obj 125 123 sel 0 1;
#X floatatom 124 154 5 0 0 0 - - -;
#X floatatom 171 153 5 0 0 0 - - -;
#X floatatom 147 206 5 0 0 0 - - -;
#X obj 126 23 inlet;
#X obj 148 240 outlet;
#X obj 190 18 inlet;
#X connect 0 0 1 0;
#X connect 1 0 2 0;
#X connect 2 0 3 0;
#X connect 2 1 4 0;
#X connect 3 0 5 0;
#X connect 4 0 5 0;
#X connect 5 0 7 0;
#X connect 6 0 0 0;
#X connect 8 0 0 1;
#X restore 606 311 pd two_notes;
#X obj 566 397 s notes;
#X obj 71 43 r notes;
#X floatatom 71 67 5 0 0 0 - - -;
#X obj 73 93 mtof;
#X obj 71 273 *~;
#X floatatom 131 252 5 0 0.25 0 - - -;
#X text 175 253 volume;
#X obj 70 318 dac~;
#N canvas 294 140 585 300 more_notes 0;
#X obj 117 3 inlet;
#X obj 119 62 metro 200;
#X obj 271 89 table notes;
#X obj 121 115 i 0;
#X obj 121 139 + 1;
#X floatatom 120 201 5 0 0 0 - - -;
#X obj 121 90 bng 15 250 50 0 empty empty empty 17 7 0 10 -262144 -1
-1;
#X obj 120 224 tabread notes;
#X floatatom 120 248 5 0 0 0 - - -;
#X obj 120 271 outlet;
#X obj 120 39 tgl 15 0 empty empty empty 17 7 0 10 -262144 -1 -1 1
1;
#X obj 121 163 % 8;
#X msg 309 227 \; notes 0 60 63 60 68 67 60 63 58;
#X obj 172 3 inlet;
#X connect 0 0 10 0;
#X connect 1 0 6 0;
#X connect 3 0 4 0;
#X connect 4 0 11 0;
#X connect 5 0 7 0;
#X connect 6 0 3 0;
#X connect 7 0 8 0;
#X connect 8 0 9 0;
#X connect 10 0 1 0;
#X connect 11 0 3 1;
#X connect 11 0 5 0;
#X connect 13 0 1 1;
#X restore 503 308 pd more_notes;
#X obj 503 282 tgl 15 0 empty empty empty 17 7 0 10 -262144 -1 -1 1
1;
#X text 111 67 midi note;
#X floatatom 573 213 5 0 0 0 - - -;
#N canvas 0 23 450 300 sins 0;
#X obj 71 148 osc~;
#X obj 128 148 osc~;
#X obj 204 148 osc~;
#X obj 280 148 osc~;
#X obj 152 195 *~;
#X floatatom 193 178 5 0 1 0 - - -;
#X obj 119 250 outlet~;
#X obj 171 49 inlet;
#X obj 129 119 * 1.015;
#X obj 204 119 * 1.998;
#X obj 280 119 * 0.503;
#X connect 0 0 6 0;
#X connect 1 0 6 0;
#X connect 2 0 4 0;
#X connect 3 0 6 0;
#X connect 4 0 6 0;
#X connect 5 0 4 1;
#X connect 7 0 0 0;
#X connect 7 0 8 0;
#X connect 7 0 9 0;
#X connect 7 0 10 0;
#X connect 8 0 1 0;
#X connect 9 0 2 0;
#X connect 10 0 3 0;
#X restore 62 149 pd sins;
#N canvas 0 23 450 300 sins 0;
#X obj 71 148 osc~;
#X obj 128 148 osc~;
#X obj 204 148 osc~;
#X obj 280 148 osc~;
#X obj 152 195 *~;
#X floatatom 193 178 5 0 1 0 - - -;
#X obj 119 250 outlet~;
#X obj 171 49 inlet;
#X obj 129 119 * 1.015;
#X obj 204 119 * 1.998;
#X obj 280 119 * 0.503;
#X connect 0 0 6 0;
#X connect 1 0 6 0;
#X connect 2 0 4 0;
#X connect 3 0 6 0;
#X connect 4 0 6 0;
#X connect 5 0 4 1;
#X connect 7 0 0 0;
#X connect 7 0 8 0;
#X connect 7 0 9 0;
#X connect 7 0 10 0;
#X connect 8 0 1 0;
#X connect 9 0 2 0;
#X connect 10 0 3 0;
#X restore 139 196 pd sins;
#X obj 154 152 * 1.99;
#X connect 0 0 2 0;
#X connect 1 0 3 0;
#X connect 2 0 1 0;
#X connect 4 0 5 0;
#X connect 5 0 6 0;
#X connect 6 0 15 0;
#X connect 6 0 17 0;
#X connect 7 0 10 0;
#X connect 7 0 10 1;
#X connect 8 0 7 1;
#X connect 11 0 1 0;
#X connect 12 0 11 0;
#X connect 14 0 11 1;
#X connect 14 0 2 1;
#X connect 15 0 7 0;
#X connect 16 0 7 0;
#X connect 17 0 16 0;
