#N canvas 56 153 450 501 12;
#X msg 12 24 \; pd dsp \$1;
#X obj 12 4 tgl 15 0 empty empty empty 17 7 0 10 -262144 -1 -1 0 1
;
#X obj 21 311 dac~;
#X obj 21 271 *~;
#X floatatom 39 243 5 0 0.2 0 - - -;
#X obj 21 186 osc~;
#X floatatom 116 108 0 0 0 0 - - -;
#X floatatom 68 68 0 0 0 0 - - -;
#X obj 21 154 makenote 1 500;
#X obj 21 220 *~;
#X floatatom 169 174 5 0 0 0 - - -;
#X floatatom 223 174 5 0 0 0 - - -;
#X floatatom 276 174 5 0 1 0 - - -;
#X floatatom 330 174 5 0 0 0 - - -;
#X obj 21 131 mtof;
#X obj 215 278 table notes;
#X obj 216 347 metro 500;
#X obj 216 395 % 8;
#X obj 21 68 r mel;
#X obj 162 341 tgl 15 0 empty empty empty 17 7 0 10 -262144 -1 -1 0
1;
#X floatatom 21 92 5 0 0 0 - - -;
#X obj 216 419 tabread notes;
#X obj 216 443 s mel;
#X obj 216 371 i;
#X obj 246 371 + 1;
#X floatatom 255 52 5 0 0 0 - - -;
#X text 234 27 ms between note triggers;
#X obj 116 85 / 2;
#X text 155 109 sustain duration;
#X msg 214 300 \; notes 0 60 67 65 68 67 65 63 60;
#X obj 116 199 adsr~, f 31;
#X connect 1 0 0 0;
#X connect 3 0 2 0;
#X connect 3 0 2 1;
#X connect 4 0 3 1;
#X connect 5 0 9 0;
#X connect 6 0 8 2;
#X connect 7 0 8 1;
#X connect 8 0 5 0;
#X connect 8 1 30 0;
#X connect 9 0 3 0;
#X connect 10 0 30 1;
#X connect 11 0 30 2;
#X connect 12 0 30 3;
#X connect 13 0 30 4;
#X connect 14 0 8 0;
#X connect 16 0 23 0;
#X connect 17 0 21 0;
#X connect 18 0 20 0;
#X connect 19 0 16 0;
#X connect 20 0 14 0;
#X connect 21 0 22 0;
#X connect 23 0 24 0;
#X connect 23 0 17 0;
#X connect 24 0 23 1;
#X connect 25 0 16 1;
#X connect 25 0 27 0;
#X connect 27 0 6 0;
#X connect 30 0 9 1;
