#N canvas -1686 -25 719 807 12;
#X obj 80 544 *~;
#X obj 80 568 dac~;
#X floatatom 138 521 5 0 0.2 0 - - -;
#X msg 13 85 60;
#X obj 13 139 mtof;
#X obj 259 138 mtof;
#X obj 13 273 osc~;
#X obj 259 272 osc~;
#X msg 49 84 72;
#X obj 83 496 +~;
#X msg 13 36 \; pd dsp \$1;
#X obj 13 17 tgl 15 0 empty empty empty 17 7 0 10 -262144 -1 -1 0 1
;
#X floatatom 81 283 5 0 0 0 - - -;
#X floatatom 125 282 5 0 0 0 - - -;
#X floatatom 167 284 5 0 0 0 - - -;
#X floatatom 209 287 5 0 0 0 - - -;
#X obj 269 309 adsr~, f 27;
#X floatatom 313 279 5 0 0 0 - - -;
#X floatatom 357 278 5 0 0 0 - - -;
#X floatatom 399 280 5 0 0 0 - - -;
#X floatatom 441 283 5 0 0 0 - - -;
#X obj 17 353 *~;
#X obj 259 346 *~;
#X floatatom 105 162 0 0 0 0 - - -;
#X obj 14 189 makenote 1 500;
#X floatatom 344 156 0 0 0 0 - - -;
#X obj 253 183 makenote 1 500;
#X floatatom 168 440 5 0 0 0 - - -;
#X floatatom 246 424 5 0 0 0 - - -;
#X obj 268 33 metro 500;
#X obj 270 6 tgl 15 0 empty empty empty 17 7 0 10 -262144 -1 -1 1 1
;
#X obj 143 13 tgl 15 0 empty empty empty 17 7 0 10 -262144 -1 -1 1
1;
#X obj 143 33 metro 5000;
#X obj 83 472 booster~;
#X obj 43 315 adsr~, f 29;
#X connect 0 0 1 0;
#X connect 0 0 1 1;
#X connect 2 0 0 1;
#X connect 3 0 4 0;
#X connect 4 0 24 0;
#X connect 5 0 26 0;
#X connect 6 0 21 0;
#X connect 7 0 22 0;
#X connect 8 0 5 0;
#X connect 9 0 0 0;
#X connect 11 0 10 0;
#X connect 12 0 34 1;
#X connect 13 0 34 2;
#X connect 14 0 34 3;
#X connect 15 0 34 4;
#X connect 16 0 22 1;
#X connect 17 0 16 1;
#X connect 18 0 16 2;
#X connect 19 0 16 3;
#X connect 20 0 16 4;
#X connect 21 0 33 0;
#X connect 22 0 33 1;
#X connect 23 0 24 2;
#X connect 24 0 6 0;
#X connect 24 1 34 0;
#X connect 25 0 26 2;
#X connect 26 0 7 0;
#X connect 26 1 16 0;
#X connect 27 0 33 2;
#X connect 28 0 33 3;
#X connect 29 0 8 0;
#X connect 30 0 29 0;
#X connect 31 0 32 0;
#X connect 32 0 3 0;
#X connect 33 0 9 0;
#X connect 33 1 9 1;
#X connect 34 0 21 1;
