#N canvas 593 176 635 432 12;
#X msg 11 28 \; pd dsp \$1;
#X obj 11 11 tgl 15 0 empty empty empty 17 7 0 10 -262144 -1 -1 1 1
;
#X obj 123 93 osc~ 440;
#X obj 183 151 vibrato~;
#X floatatom 206 121 5 0 0 0 - - -;
#X floatatom 271 115 5 0 10 0 - - -;
#X obj 183 335 *~;
#X floatatom 215 301 5 0 0.8 0 - - -;
#X obj 183 359 dac~;
#X obj 368 48 table notes;
#X obj 363 197 metro 250;
#X obj 360 152 tgl 15 0 empty empty empty 17 7 0 10 -262144 -1 -1 1
1;
#X obj 363 221 i;
#X obj 391 221 + 1;
#X obj 363 245 % 6;
#X msg 332 110 \; notes 0 60 67 65 63 62 58;
#X obj 363 269 tabread notes;
#X floatatom 363 293 5 0 0 0 - - -;
#X obj 38 96 osc~ 440;
#X obj 38 166 vcf~, f 9;
#X floatatom 50 133 5 0 0 0 - - -;
#X floatatom 99 129 5 0 0 0 - - -;
#X obj 38 69 mtof;
#X obj 99 35 + 12;
#X obj 38 232 *~ 0.8;
#X obj 228 80 adsr~, f 15;
#X obj 183 184 *~;
#X floatatom 232 17 5 0 0 0 - - -;
#X floatatom 272 13 5 0 0 0 - - -;
#X floatatom 314 7 5 0 0 0 - - -;
#X floatatom 357 10 5 0 0 0 - - -;
#X obj 364 329 makenote;
#X floatatom 420 300 5 0 0 0 - - -;
#X obj 142 51 mtof;
#X obj 266 261 snapshot~;
#X floatatom 266 285 5 0 0 0 - - -;
#X floatatom 421 367 5 0 0 0 - - -;
#X msg 392 305 1;
#X floatatom 444 160 5 0 0 0 - - -;
#X obj 183 208 delwrite~ lol 250;
#X obj 38 302 *~ 0.8;
#X obj 537 227 loadbang;
#X obj 38 278 delread4~ lol 50;
#X floatatom 118 192 5 0 0 0 - - -;
#X obj 118 215 sig~;
#X floatatom 124 5 5 0 0 0 - - -;
#X obj 244 235 bng 15 250 50 0 empty empty empty 17 7 0 10 -262144
-1 -1;
#X connect 1 0 0 0;
#X connect 2 0 3 0;
#X connect 3 0 26 0;
#X connect 4 0 3 1;
#X connect 5 0 3 2;
#X connect 6 0 8 0;
#X connect 6 0 8 1;
#X connect 7 0 6 1;
#X connect 10 0 12 0;
#X connect 11 0 10 0;
#X connect 12 0 13 0;
#X connect 12 0 14 0;
#X connect 13 0 12 1;
#X connect 14 0 16 0;
#X connect 16 0 17 0;
#X connect 17 0 31 0;
#X connect 18 0 19 0;
#X connect 19 0 24 0;
#X connect 20 0 19 1;
#X connect 21 0 19 2;
#X connect 22 0 18 0;
#X connect 23 0 22 0;
#X connect 24 0 3 0;
#X connect 25 0 26 1;
#X connect 25 0 34 0;
#X connect 26 0 6 0;
#X connect 26 0 39 0;
#X connect 27 0 25 1;
#X connect 28 0 25 2;
#X connect 29 0 25 3;
#X connect 30 0 25 4;
#X connect 31 0 33 0;
#X connect 31 0 23 0;
#X connect 31 1 25 0;
#X connect 31 1 36 0;
#X connect 32 0 31 2;
#X connect 33 0 2 0;
#X connect 34 0 35 0;
#X connect 37 0 31 1;
#X connect 38 0 10 1;
#X connect 40 0 6 0;
#X connect 40 0 39 0;
#X connect 41 0 37 0;
#X connect 42 0 40 0;
#X connect 43 0 44 0;
#X connect 44 0 42 0;
#X connect 45 0 23 1;
#X connect 46 0 34 0;
