#N canvas 634 114 838 747 12;
#X floatatom 169 56 5 0 0 0 - - -;
#X obj 169 109 mtof;
#X obj 169 277 *~;
#X obj 169 157 line;
#X obj 120 221 osc~;
#X obj 273 414 crackle~;
#X obj 580 33 table notes;
#X obj 12 112 tgl 15 0 empty empty empty 17 7 0 10 -262144 -1 -1 1
1;
#X obj 12 162 i;
#X obj 42 162 + 1;
#X obj 12 235 tabread notes;
#X obj 12 259 s note;
#X obj 169 28 r note;
#X msg 255 197 \$1 64;
#X obj 255 221 synthstring~;
#X msg 355 197 \$1 64;
#X obj 355 221 synthstring~;
#X floatatom 79 115 5 0 0 0 - - -;
#X floatatom 79 187 5 0 0 0 - - -;
#X obj 242 436 booster~ 1 200;
#X obj 12 186 % 5;
#X msg 169 133 \$1 50;
#X obj 455 221 crackle~;
#X obj 12 210 maybe 0.75;
#X obj 580 56 loadbang;
#X obj 169 79 t f b b, f 10;
#X obj 12 138 metro 800;
#X msg 80 161 0.75;
#X obj 41 16 loadbang;
#X obj 394 349 *~ 5000;
#X obj 279 509 vcf~ 1;
#X obj 169 497 lop~ 300;
#X obj 82 291 osc~ 1;
#X obj 82 315 +~ 1;
#X obj 82 339 /~ 2;
#X obj 82 411 snapshot~;
#X obj 15 357 metro 10;
#X obj 15 336 tgl 15 0 empty empty empty 17 7 0 10 -262144 -1 -1 1
1;
#X obj 15 313 loadbang;
#X obj 82 363 *~ 1000;
#X obj 82 387 +~ 200;
#X obj 418 291 / 2;
#X msg 79 43 800;
#X msg 111 43 1600;
#X msg 49 43 400;
#X obj 335 31 bng 15 250 50 0 empty empty empty 17 7 0 10 -262144 -1
-1;
#X obj 82 92 line;
#X msg 82 68 \$1 50;
#X obj 498 274 / 5;
#X obj 286 319 / 3;
#X obj 236 133 ahdsr~ 20 50 200 0.5 500;
#X obj 254 167 + 31;
#X obj 355 174 + 43;
#X obj 394 325 ahdsr~ 5 0 0 0.5 5000;
#X text 245 12 FUN: CONNECT THIS BANG TO THE ENVS AND DISCONNECT THE
OTHER ENV TRIGGERS;
#X obj 172 661 out~;
#X obj 176 574 *~ 1;
#X obj 120 199 / 4;
#X msg 580 80 \; notes 0 40 47 44 49 42;
#X obj 518 221 osc~;
#X obj 518 199 / 2;
#X obj 242 345 echo~ 250 0.7;
#X obj 112 561 *~ 1;
#X obj 169 181 saw~ 0.5;
#X obj 120 245 *~ 1;
#X obj 169 204 clip~ -0.5 0.5;
#X obj 169 245 *~ 0.5;
#X obj 518 436 pink~;
#X obj 559 412 noise~;
#X obj 518 459 *~;
#X obj 518 482 *~ 1;
#X obj 176 597 ducker~ 1 10;
#X obj 559 436 *~ 0.4;
#X obj 242 368 vibrato~ 2 0.1;
#X connect 0 0 25 0;
#X connect 1 0 21 0;
#X connect 2 0 31 0;
#X connect 2 0 61 0;
#X connect 3 0 57 0;
#X connect 3 0 60 0;
#X connect 3 0 63 0;
#X connect 4 0 64 0;
#X connect 5 0 19 1;
#X connect 7 0 26 0;
#X connect 8 0 9 0;
#X connect 8 0 20 0;
#X connect 9 0 8 1;
#X connect 10 0 11 0;
#X connect 12 0 0 0;
#X connect 13 0 14 0;
#X connect 14 0 2 0;
#X connect 15 0 16 0;
#X connect 16 0 2 0;
#X connect 17 0 26 1;
#X connect 17 0 41 0;
#X connect 17 0 48 0;
#X connect 17 0 53 5;
#X connect 17 0 49 0;
#X connect 18 0 23 1;
#X connect 19 0 30 0;
#X connect 19 1 30 0;
#X connect 20 0 23 0;
#X connect 21 0 3 0;
#X connect 22 0 2 0;
#X connect 23 0 10 0;
#X connect 24 0 58 0;
#X connect 25 0 1 0;
#X connect 25 0 51 0;
#X connect 25 0 52 0;
#X connect 25 1 50 0;
#X connect 25 2 53 0;
#X connect 26 0 8 0;
#X connect 27 0 18 0;
#X connect 28 0 27 0;
#X connect 28 0 7 0;
#X connect 28 0 42 0;
#X connect 29 0 30 1;
#X connect 30 0 62 0;
#X connect 30 0 56 0;
#X connect 31 0 62 0;
#X connect 31 0 56 0;
#X connect 32 0 33 0;
#X connect 33 0 34 0;
#X connect 34 0 39 0;
#X connect 35 0 31 1;
#X connect 36 0 35 0;
#X connect 37 0 36 0;
#X connect 38 0 37 0;
#X connect 39 0 40 0;
#X connect 40 0 35 0;
#X connect 41 0 53 2;
#X connect 42 0 47 0;
#X connect 43 0 47 0;
#X connect 44 0 47 0;
#X connect 46 0 17 0;
#X connect 47 0 46 0;
#X connect 48 0 53 1;
#X connect 48 0 53 3;
#X connect 49 0 61 1;
#X connect 50 0 2 1;
#X connect 51 0 13 0;
#X connect 52 0 15 0;
#X connect 53 0 29 0;
#X connect 56 0 71 0;
#X connect 57 0 4 0;
#X connect 59 0 2 0;
#X connect 60 0 59 0;
#X connect 61 0 73 0;
#X connect 63 0 65 0;
#X connect 64 0 2 0;
#X connect 65 0 66 0;
#X connect 66 0 2 0;
#X connect 67 0 69 0;
#X connect 68 0 72 0;
#X connect 69 0 70 0;
#X connect 70 0 71 1;
#X connect 71 0 55 0;
#X connect 71 0 55 1;
#X connect 71 1 55 0;
#X connect 71 1 55 1;
#X connect 72 0 69 1;
#X connect 73 0 19 0;
