#N canvas 0 38 1512 884 12;
#X obj 9 9 ff;
#X obj 242 163 r ffk1;
#X obj 189 187 mtturing;
#X obj 543 72 tgl 15 0 empty empty empty 17 7 0 10 #fcfcfc #000000
#000000 0 1;
#X obj 543 96 metro 200;
#X obj 294 187 mtturing;
#X obj 399 187 mtturing;
#X obj 504 187 mtturing;
#X obj 609 187 mtturing;
#X obj 714 187 mtturing;
#X obj 819 187 mtturing;
#X obj 924 187 mtturing;
#X obj 347 163 r ffk2;
#X obj 452 163 r ffk3;
#X obj 557 163 r ffk4;
#X obj 662 163 r ffk5;
#X obj 767 163 r ffk6;
#X obj 872 163 r ffk7;
#X obj 977 163 r ffk8;
#X obj 543 120 bng 15 250 50 0 empty empty empty 17 7 0 10 #fcfcfc
#000000 #000000;
#X obj 189 235 maybe;
#X obj 221 211 r ffs1;
#X obj 294 235 maybe;
#X obj 399 235 maybe;
#X obj 504 235 maybe;
#X obj 326 211 r ffs2;
#X obj 431 211 r ffs3;
#X obj 536 211 r ffs4;
#X obj 641 211 r ffs5;
#X obj 746 211 r ffs6;
#X obj 956 251 r ffs8;
#X text 150 236 pitch;
#X text 248 237 cutoff;
#X text 360 236 decay;
#X text 465 236 multi;
#X text 780 237 decay;
#X text 885 237 multi;
#X floatatom 189 320 5 0 0 0 - - - 0;
#X obj 189 367 quantizedmode aeolian 60;
#X obj 189 421 microbrute;
#X obj 189 391 makenote 127 50;
#X floatatom 294 476 5 0 0 0 - - - 0;
#X obj 294 577 microbrutefilter;
#X floatatom 400 350 5 0 0 0 - - - 0;
#X obj 400 373 scaled 0 1 48 73;
#X obj 400 397 quantizedmode aeolian 60;
#X obj 400 451 microbrute;
#X obj 400 421 makenote 127 50;
#X floatatom 508 483 5 0 0 0 - - - 0;
#X obj 508 584 microbrutefilter;
#X obj 763 40 r ffx;
#X obj 763 64 scaled 0 1 20 500;
#X obj 189 343 scaled 0 1 36 49;
#X obj 924 275 <;
#X obj 924 211 t f f;
#X obj 924 299 sel 1;
#X obj 924 323 bng 15 250 50 0 empty empty empty 17 7 0 10 #fcfcfc
#000000 #000000;
#X obj 924 347 f;
#X obj 818 268 <;
#X obj 818 292 sel 1;
#X obj 818 316 bng 15 250 50 0 empty empty empty 17 7 0 10 #fcfcfc
#000000 #000000;
#X obj 818 340 f;
#X obj 850 244 r ffs7;
#X obj 819 211 t f f;
#X obj 614 327 <;
#X obj 614 263 t f f;
#X obj 614 351 sel 1;
#X obj 614 375 bng 15 250 50 0 empty empty empty 17 7 0 10 #fcfcfc
#000000 #000000;
#X obj 614 399 f;
#X obj 712 329 <;
#X obj 712 265 t f f;
#X obj 712 353 sel 1;
#X obj 712 377 bng 15 250 50 0 empty empty empty 17 7 0 10 #fcfcfc
#000000 #000000;
#X obj 712 401 f;
#X obj 825 501 tr8sch;
#X obj 928 473 tr8soh;
#X obj 614 423 min 0.5;
#X obj 712 425 min 0.5;
#X obj 818 407 min 0.5;
#X obj 920 397 min 0.5;
#X obj 618 525 tr8sbd;
#X obj 716 527 tr8ssd;
#X connect 1 0 2 2;
#X connect 2 0 20 0;
#X connect 3 0 4 0;
#X connect 4 0 19 0;
#X connect 5 0 22 0;
#X connect 6 0 23 0;
#X connect 7 0 24 0;
#X connect 8 0 65 0;
#X connect 9 0 70 0;
#X connect 10 0 63 0;
#X connect 11 0 54 0;
#X connect 12 0 5 2;
#X connect 13 0 6 2;
#X connect 14 0 7 2;
#X connect 15 0 8 2;
#X connect 16 0 9 2;
#X connect 17 0 10 2;
#X connect 18 0 11 2;
#X connect 19 0 2 0;
#X connect 19 0 11 0;
#X connect 19 0 10 0;
#X connect 19 0 9 0;
#X connect 19 0 8 0;
#X connect 19 0 7 0;
#X connect 19 0 6 0;
#X connect 19 0 5 0;
#X connect 20 0 37 0;
#X connect 21 0 20 1;
#X connect 22 0 41 0;
#X connect 23 0 43 0;
#X connect 24 0 48 0;
#X connect 25 0 22 1;
#X connect 26 0 23 1;
#X connect 27 0 24 1;
#X connect 28 0 64 1;
#X connect 29 0 69 1;
#X connect 30 0 53 1;
#X connect 37 0 52 0;
#X connect 38 0 40 0;
#X connect 40 0 39 0;
#X connect 40 1 39 1;
#X connect 41 0 42 0;
#X connect 43 0 44 0;
#X connect 44 0 45 0;
#X connect 45 0 47 0;
#X connect 47 0 46 0;
#X connect 47 1 46 1;
#X connect 48 0 49 0;
#X connect 50 0 51 0;
#X connect 51 0 4 1;
#X connect 52 0 38 0;
#X connect 53 0 55 0;
#X connect 54 0 53 0;
#X connect 54 1 57 1;
#X connect 55 0 56 0;
#X connect 56 0 57 0;
#X connect 57 0 75 2;
#X connect 57 0 79 0;
#X connect 58 0 59 0;
#X connect 59 0 60 0;
#X connect 60 0 61 0;
#X connect 61 0 74 2;
#X connect 61 0 78 0;
#X connect 62 0 58 1;
#X connect 63 0 58 0;
#X connect 63 1 61 1;
#X connect 64 0 66 0;
#X connect 65 0 64 0;
#X connect 65 1 68 1;
#X connect 66 0 67 0;
#X connect 67 0 68 0;
#X connect 68 0 76 0;
#X connect 69 0 71 0;
#X connect 70 0 69 0;
#X connect 70 1 73 1;
#X connect 71 0 72 0;
#X connect 72 0 73 0;
#X connect 73 0 77 0;
#X connect 76 0 80 0;
#X connect 77 0 81 0;
#X connect 78 0 74 0;
#X connect 79 0 75 0;
