#N canvas 268 172 1124 749 12;
#X obj 9 9 ff;
#X obj 242 163 r ffk1;
#X obj 189 187 mtturing;
#X obj 543 72 tgl 15 0 empty empty empty 17 7 0 10 #fcfcfc #000000
#000000 0 1;
#X obj 543 96 metro 200;
#X obj 294 187 mtturing;
#X obj 399 187 mtturing;
#X obj 504 187 mtturing;
#X obj 609 187 mtturing;
#X obj 714 187 mtturing;
#X obj 819 187 mtturing;
#X obj 924 187 mtturing;
#X obj 347 163 r ffk2;
#X obj 452 163 r ffk3;
#X obj 557 163 r ffk4;
#X obj 662 163 r ffk5;
#X obj 767 163 r ffk6;
#X obj 872 163 r ffk7;
#X obj 977 163 r ffk8;
#X obj 543 120 bng 15 250 50 0 empty empty empty 17 7 0 10 #fcfcfc
#000000 #000000;
#X obj 189 235 maybe;
#X obj 221 211 r ffs1;
#X obj 294 235 maybe;
#X obj 399 235 maybe;
#X obj 504 235 maybe;
#X obj 326 211 r ffs2;
#X obj 431 211 r ffs3;
#X obj 536 211 r ffs4;
#X floatatom 39 320 5 0 0 0 - - - 0;
#X obj 39 391 makenote 127 50;
#X floatatom 217 320 5 0 0 0 - - - 0;
#X obj 217 391 makenote 127 50;
#X obj 763 40 r ffx;
#X obj 763 64 scaled 0 1 20 500;
#X obj 39 343 scaled 0 1 36 49;
#X obj 39 421 miniloguexd;
#X obj 217 421 miniloguexd;
#X obj 39 367 quantizedmode aeolian 64;
#X text 192 17 https://newt.phys.unsw.edu.au/jw/graphics/notes.GIF
;
#X obj 217 367 quantizedmode aeolian 64;
#X obj 217 343 scaled 0 1 48 61;
#X floatatom 397 320 5 0 0 0 - - - 0;
#X obj 397 391 makenote 127 50;
#X obj 397 421 miniloguexd;
#X obj 397 367 quantizedmode aeolian 64;
#X obj 397 343 scaled 0 1 60 73;
#X floatatom 577 320 5 0 0 0 - - - 0;
#X obj 577 391 makenote 127 50;
#X obj 577 421 miniloguexd;
#X obj 577 367 quantizedmode aeolian 64;
#X obj 577 343 scaled 0 1 72 85;
#X obj 606 235 maybe;
#X obj 716 235 maybe;
#X obj 818 235 maybe;
#X obj 928 235 maybe;
#X obj 638 211 r ffs5;
#X obj 748 211 r ffs6;
#X obj 850 211 r ffs7;
#X obj 960 211 r ffs8;
#X floatatom 606 259 5 0 0 0 - - - 0;
#X obj 606 282 miniloguexdfilter;
#X floatatom 716 309 5 0 0 0 - - - 0;
#X obj 716 332 miniloguexdfilter;
#X floatatom 818 259 5 0 0 0 - - - 0;
#X obj 818 282 miniloguexdampdecay;
#X floatatom 928 309 5 0 0 0 - - - 0;
#X obj 928 332 miniloguexdampdecay;
#X obj 892 444 bng 15 250 50 0 empty empty empty 17 7 0 10 #fcfcfc
#000000 #000000;
#X obj 892 420 sel 1;
#X obj 892 488 timer;
#X floatatom 892 512 5 0 0 0 - - - 0;
#X floatatom 892 637 5 0 0 0 - - - 0;
#X obj 892 535 t b f, f 16;
#X obj 892 589 moses 1001;
#X msg 613 48 0;
#X msg 659 48 1;
#X obj 892 464 t b b b b;
#X obj 892 396 r ffb8;
#X obj 659 24 r ffb7;
#X obj 892 565 rollingaverage 4;
#X text 144 532 /// FIRST 4 SLIDERS/KNOBS FOR PITCH \, IN ASCENDING
OCTAVES \; /// NEXT 2 FOR FITLER CUTOFF \; /// LAST TWO FOR AMP DECAY
\; /// BUTTON 8 TO TAP TEMPO \, AND EMIT A SINGLE NOTE \; /// BUTTON
7 TO RESUME AT CURRENT TAP TEMPO.;
#X connect 1 0 2 2;
#X connect 2 0 20 0;
#X connect 3 0 4 0;
#X connect 4 0 19 0;
#X connect 5 0 22 0;
#X connect 6 0 23 0;
#X connect 7 0 24 0;
#X connect 8 0 51 0;
#X connect 9 0 52 0;
#X connect 10 0 53 0;
#X connect 11 0 54 0;
#X connect 12 0 5 2;
#X connect 13 0 6 2;
#X connect 14 0 7 2;
#X connect 15 0 8 2;
#X connect 16 0 9 2;
#X connect 17 0 10 2;
#X connect 18 0 11 2;
#X connect 19 0 2 0;
#X connect 19 0 11 0;
#X connect 19 0 10 0;
#X connect 19 0 9 0;
#X connect 19 0 8 0;
#X connect 19 0 7 0;
#X connect 19 0 6 0;
#X connect 19 0 5 0;
#X connect 20 0 28 0;
#X connect 21 0 20 1;
#X connect 22 0 30 0;
#X connect 23 0 41 0;
#X connect 24 0 46 0;
#X connect 25 0 22 1;
#X connect 26 0 23 1;
#X connect 27 0 24 1;
#X connect 28 0 34 0;
#X connect 29 0 35 0;
#X connect 29 1 35 1;
#X connect 30 0 40 0;
#X connect 31 0 36 0;
#X connect 31 1 36 1;
#X connect 32 0 33 0;
#X connect 33 0 4 1;
#X connect 34 0 37 0;
#X connect 37 0 29 0;
#X connect 39 0 31 0;
#X connect 40 0 39 0;
#X connect 41 0 45 0;
#X connect 42 0 43 0;
#X connect 42 1 43 1;
#X connect 44 0 42 0;
#X connect 45 0 44 0;
#X connect 46 0 50 0;
#X connect 47 0 48 0;
#X connect 47 1 48 1;
#X connect 49 0 47 0;
#X connect 50 0 49 0;
#X connect 51 0 59 0;
#X connect 52 0 61 0;
#X connect 53 0 63 0;
#X connect 54 0 65 0;
#X connect 55 0 51 1;
#X connect 56 0 52 1;
#X connect 57 0 53 1;
#X connect 58 0 54 1;
#X connect 59 0 60 0;
#X connect 61 0 62 0;
#X connect 63 0 64 0;
#X connect 65 0 66 0;
#X connect 67 0 76 0;
#X connect 68 0 67 0;
#X connect 69 0 70 0;
#X connect 70 0 72 0;
#X connect 71 0 4 1;
#X connect 72 0 79 1;
#X connect 72 1 79 0;
#X connect 73 0 71 0;
#X connect 74 0 3 0;
#X connect 75 0 3 0;
#X connect 76 0 74 0;
#X connect 76 1 75 0;
#X connect 76 2 69 0;
#X connect 76 3 69 1;
#X connect 77 0 68 0;
#X connect 78 0 75 0;
#X connect 79 0 73 0;
