#N canvas 0 38 1512 884 12;
#X obj 9 9 ff;
#X obj 242 163 r ffk1;
#X obj 189 187 mtturing;
#X obj 543 72 tgl 15 0 empty empty empty 17 7 0 10 #fcfcfc #000000
#000000 0 1;
#X obj 543 96 metro 200;
#X obj 294 187 mtturing;
#X obj 399 187 mtturing;
#X obj 504 187 mtturing;
#X obj 609 187 mtturing;
#X obj 714 187 mtturing;
#X obj 819 187 mtturing;
#X obj 924 187 mtturing;
#X obj 347 163 r ffk2;
#X obj 452 163 r ffk3;
#X obj 557 163 r ffk4;
#X obj 662 163 r ffk5;
#X obj 767 163 r ffk6;
#X obj 872 163 r ffk7;
#X obj 977 163 r ffk8;
#X obj 543 120 bng 15 250 50 0 empty empty empty 17 7 0 10 #fcfcfc
#000000 #000000;
#X obj 189 275 maybe;
#X obj 221 251 r ffs1;
#X obj 294 265 maybe;
#X obj 399 265 maybe;
#X obj 504 265 maybe;
#X obj 326 241 r ffs2;
#X obj 431 241 r ffs3;
#X obj 536 241 r ffs4;
#X floatatom 39 320 5 0 0 0 - - - 0;
#X obj 39 391 makenote 127 50;
#X floatatom 217 320 5 0 0 0 - - - 0;
#X obj 217 391 makenote 127 50;
#X obj 763 40 r ffx;
#X obj 39 421 miniloguexd;
#X obj 217 421 miniloguexd;
#X obj 39 367 quantizedmode aeolian 64;
#X text 192 17 https://newt.phys.unsw.edu.au/jw/graphics/notes.GIF
;
#X obj 217 367 quantizedmode aeolian 64;
#X floatatom 397 320 5 0 0 0 - - - 0;
#X obj 397 391 makenote 127 50;
#X obj 397 421 miniloguexd;
#X obj 397 367 quantizedmode aeolian 64;
#X floatatom 577 320 5 0 0 0 - - - 0;
#X obj 577 391 makenote 127 50;
#X obj 577 421 miniloguexd;
#X obj 577 367 quantizedmode aeolian 64;
#X obj 606 265 maybe;
#X obj 716 265 maybe;
#X obj 818 235 maybe;
#X obj 928 235 maybe;
#X obj 638 241 r ffs5;
#X obj 748 241 r ffs6;
#X obj 850 211 r ffs7;
#X obj 960 211 r ffs8;
#X floatatom 978 509 5 0 0 0 - - - 0;
#X obj 978 532 miniloguexdfilter;
#X floatatom 1088 559 5 0 0 0 - - - 0;
#X obj 1088 582 miniloguexdfilter;
#X obj 1178 75 bng 15 250 50 0 empty empty empty 17 7 0 10 #fcfcfc
#000000 #000000;
#X obj 1178 51 sel 1;
#X obj 1178 119 timer;
#X floatatom 1178 143 5 0 0 0 - - - 0;
#X floatatom 1178 268 5 0 0 0 - - - 0;
#X obj 1178 166 t b f, f 16;
#X obj 1178 220 moses 1001;
#X msg 613 48 0;
#X msg 659 48 1;
#X obj 1178 95 t b b b b;
#X obj 1178 27 r ffb8;
#X obj 659 24 r ffb7;
#X obj 1178 196 rollingaverage 4;
#X obj 763 64 scaled 0 1 40 500;
#X floatatom 761 320 5 0 0 0 - - - 0;
#X obj 761 391 makenote 127 50;
#X floatatom 939 320 5 0 0 0 - - - 0;
#X obj 939 391 makenote 127 50;
#X obj 761 421 miniloguexd;
#X obj 939 421 miniloguexd;
#X obj 761 367 quantizedmode aeolian 64;
#X obj 939 367 quantizedmode aeolian 64;
#X obj 761 343 scaled 0 1 72 85;
#X obj 577 343 scaled 0 1 60 73;
#X obj 397 343 scaled 0 1 48 61;
#X obj 217 343 scaled 0 1 36 49;
#X obj 39 343 scaled 0 1 24 37;
#X obj 939 343 scaled 0 1 84 97;
#X obj 198 72 r ffb1;
#X obj 244 72 r ffb2;
#X obj 290 72 r ffb3;
#X obj 336 72 r ffb4;
#X obj 382 72 r ffb5;
#X obj 428 72 r ffb6;
#X obj 198 96 sel 1;
#X obj 244 96 sel 1;
#X obj 290 96 sel 1;
#X obj 336 96 sel 1;
#X obj 382 96 sel 1;
#X obj 428 96 sel 1;
#X obj 189 211 fbank2;
#X obj 185 146 t b b;
#X obj 297 150 t b b;
#X obj 402 151 t b b;
#X obj 505 157 t b b;
#X obj 610 159 t b b;
#X obj 715 160 t b b;
#X obj 294 211 fbank2;
#X obj 399 211 fbank2;
#X obj 504 211 fbank2;
#X obj 609 211 fbank2;
#X obj 714 211 fbank2;
#X text 144 532 /// FIRST 6 SLIDERS/KNOBS FOR PITCH \, IN ASCENDING
OCTAVES \; /// LAST 2 FOR FITLER CUTOFF \; /// BUTTONS 1-6 FOR PLAYING
A SINGLE NOTE IN THAT OCTAVE \; /// BUTTON 8 TO TAP TEMPO \, AND EMIT
A SINGLE NOTE FROM ALL OCTAVES \; /// BUTTON 7 TO RESUME AT CURRENT
TAP TEMPO \; /// XFADER TO CHANGE TEMPO;
#X obj 198 120 t b b;
#X obj 244 120 t b b;
#X obj 290 120 t b b;
#X obj 336 120 t b b;
#X obj 382 120 t b b;
#X obj 428 120 t b b;
#X connect 1 0 2 2;
#X connect 2 0 98 0;
#X connect 3 0 4 0;
#X connect 4 0 19 0;
#X connect 5 0 105 0;
#X connect 6 0 106 0;
#X connect 7 0 107 0;
#X connect 8 0 108 0;
#X connect 9 0 109 0;
#X connect 10 0 48 0;
#X connect 11 0 49 0;
#X connect 12 0 5 2;
#X connect 13 0 6 2;
#X connect 14 0 7 2;
#X connect 15 0 8 2;
#X connect 16 0 9 2;
#X connect 17 0 10 2;
#X connect 18 0 11 2;
#X connect 19 0 11 0;
#X connect 19 0 10 0;
#X connect 19 0 99 0;
#X connect 19 0 100 0;
#X connect 19 0 101 0;
#X connect 19 0 104 0;
#X connect 19 0 103 0;
#X connect 19 0 102 0;
#X connect 20 0 28 0;
#X connect 21 0 20 1;
#X connect 22 0 30 0;
#X connect 23 0 38 0;
#X connect 24 0 42 0;
#X connect 25 0 22 1;
#X connect 26 0 23 1;
#X connect 27 0 24 1;
#X connect 28 0 84 0;
#X connect 29 0 33 0;
#X connect 29 1 33 1;
#X connect 30 0 83 0;
#X connect 31 0 34 0;
#X connect 31 1 34 1;
#X connect 32 0 71 0;
#X connect 35 0 29 0;
#X connect 37 0 31 0;
#X connect 38 0 82 0;
#X connect 39 0 40 0;
#X connect 39 1 40 1;
#X connect 41 0 39 0;
#X connect 42 0 81 0;
#X connect 43 0 44 0;
#X connect 43 1 44 1;
#X connect 45 0 43 0;
#X connect 46 0 72 0;
#X connect 47 0 74 0;
#X connect 48 0 54 0;
#X connect 49 0 56 0;
#X connect 50 0 46 1;
#X connect 51 0 47 1;
#X connect 52 0 48 1;
#X connect 53 0 49 1;
#X connect 54 0 55 0;
#X connect 56 0 57 0;
#X connect 58 0 67 0;
#X connect 59 0 58 0;
#X connect 60 0 61 0;
#X connect 61 0 63 0;
#X connect 62 0 4 1;
#X connect 63 0 70 1;
#X connect 63 1 70 0;
#X connect 64 0 62 0;
#X connect 65 0 3 0;
#X connect 66 0 3 0;
#X connect 67 0 65 0;
#X connect 67 1 66 0;
#X connect 67 2 60 0;
#X connect 67 3 60 1;
#X connect 68 0 59 0;
#X connect 69 0 66 0;
#X connect 70 0 64 0;
#X connect 71 0 4 1;
#X connect 72 0 80 0;
#X connect 73 0 76 0;
#X connect 73 1 76 1;
#X connect 74 0 85 0;
#X connect 75 0 77 0;
#X connect 75 1 77 1;
#X connect 78 0 73 0;
#X connect 79 0 75 0;
#X connect 80 0 78 0;
#X connect 81 0 45 0;
#X connect 82 0 41 0;
#X connect 83 0 37 0;
#X connect 84 0 35 0;
#X connect 85 0 79 0;
#X connect 86 0 92 0;
#X connect 87 0 93 0;
#X connect 88 0 94 0;
#X connect 89 0 95 0;
#X connect 90 0 96 0;
#X connect 91 0 97 0;
#X connect 92 0 10 0;
#X connect 92 0 11 0;
#X connect 92 0 111 0;
#X connect 93 0 10 0;
#X connect 93 0 11 0;
#X connect 93 0 112 0;
#X connect 94 0 10 0;
#X connect 94 0 11 0;
#X connect 94 0 113 0;
#X connect 95 0 10 0;
#X connect 95 0 11 0;
#X connect 95 0 114 0;
#X connect 96 0 10 0;
#X connect 96 0 11 0;
#X connect 96 0 115 0;
#X connect 97 0 10 0;
#X connect 97 0 11 0;
#X connect 97 0 116 0;
#X connect 98 1 20 0;
#X connect 98 2 28 0;
#X connect 99 0 98 1;
#X connect 99 1 2 0;
#X connect 100 0 105 1;
#X connect 100 1 5 0;
#X connect 101 0 106 1;
#X connect 101 1 6 0;
#X connect 102 0 107 1;
#X connect 102 1 7 0;
#X connect 103 0 108 1;
#X connect 103 1 8 0;
#X connect 104 0 109 1;
#X connect 104 1 9 0;
#X connect 105 1 22 0;
#X connect 105 2 30 0;
#X connect 106 1 23 0;
#X connect 106 2 38 0;
#X connect 107 1 24 0;
#X connect 107 2 42 0;
#X connect 108 1 46 0;
#X connect 108 2 72 0;
#X connect 109 1 47 0;
#X connect 109 2 74 0;
#X connect 111 0 98 2;
#X connect 111 1 2 0;
#X connect 112 0 105 2;
#X connect 112 1 5 0;
#X connect 113 0 106 2;
#X connect 113 1 6 0;
#X connect 114 0 107 2;
#X connect 114 1 7 0;
#X connect 115 0 108 2;
#X connect 115 1 8 0;
#X connect 116 0 109 2;
#X connect 116 1 9 0;
