#N canvas 347 129 1165 432 12;
#X floatatom 209 62 5 0 255 0 - - - 0;
#X obj 209 85 tobinary;
#X obj 174 222 8step, f 39;
#X obj 8 53 tgl 15 0 empty empty empty 17 7 0 10 #fcfcfc #000000 #000000
0 1;
#X obj 8 77 metronome 100 8;
#X obj 174 246 sel 1;
#X obj 8 101 - 1;
#X obj 174 272 snare~;
#X obj 209 126 unpack f f f f f f f f;
#X obj 8 125 s step;
#X obj 156 198 r step;
#X obj 8 186 out~;
#X obj 174 320 throw~ output;
#X obj 8 162 catch~ output;
#X obj 174 296 *~ 0.3;
#X floatatom 353 75 5 0 0 0 - - - 0;
#X floatatom 549 62 5 0 255 0 - - - 0;
#X obj 549 85 tobinary;
#X obj 514 222 8step, f 39;
#X obj 514 246 sel 1;
#X obj 549 126 unpack f f f f f f f f;
#X obj 496 198 r step;
#X obj 514 380 throw~ output;
#X floatatom 674 57 5 0 0 0 - - - 0;
#X obj 514 270 kick~;
#X obj 514 356 *~ 0.2;
#X obj 859 85 tobinary;
#X obj 824 222 8step, f 39;
#X obj 824 246 sel 1;
#X obj 859 126 unpack f f f f f f f f;
#X obj 806 198 r step;
#X obj 824 320 throw~ output;
#X floatatom 1004 78 5 0 0 0 - - - 0;
#X obj 824 272 hh~, f 14;
#X obj 824 296 *~ 1;
#X obj 969 271 bng 15 250 50 0 empty empty empty 17 7 0 10 #fcfcfc
#000000 #000000;
#X obj 969 295 randwalk 300 5000;
#X obj 271 7 randwalk 100 10000;
#X obj 260 50 scaled 0 1 0 255;
#X obj 425 63 bng 15 250 50 0 empty empty empty 17 7 0 10 #fcfcfc #000000
#000000;
#X floatatom 840 61 5 0 255 0 - - - 0;
#X obj 902 6 randwalk 100 10000;
#X obj 1056 62 bng 15 250 50 0 empty empty empty 17 7 0 10 #fcfcfc
#000000 #000000;
#X obj 891 49 scaled 0 1 200 255;
#X obj 959 345 scaled 0 1 50 250;
#X connect 0 0 1 0;
#X connect 1 0 8 0;
#X connect 2 0 5 0;
#X connect 3 0 4 0;
#X connect 4 0 6 0;
#X connect 5 0 7 0;
#X connect 6 0 9 0;
#X connect 7 0 14 0;
#X connect 8 0 2 1;
#X connect 8 1 2 2;
#X connect 8 2 2 3;
#X connect 8 3 2 4;
#X connect 8 4 2 5;
#X connect 8 5 2 6;
#X connect 8 6 2 7;
#X connect 8 7 2 8;
#X connect 10 0 2 0;
#X connect 13 0 11 0;
#X connect 13 0 11 1;
#X connect 14 0 12 0;
#X connect 15 0 1 1;
#X connect 16 0 17 0;
#X connect 17 0 20 0;
#X connect 18 0 19 0;
#X connect 19 0 24 0;
#X connect 20 0 18 1;
#X connect 20 1 18 2;
#X connect 20 2 18 3;
#X connect 20 3 18 4;
#X connect 20 4 18 5;
#X connect 20 5 18 6;
#X connect 20 6 18 7;
#X connect 20 7 18 8;
#X connect 21 0 18 0;
#X connect 23 0 17 1;
#X connect 24 0 25 0;
#X connect 25 0 22 0;
#X connect 26 0 29 0;
#X connect 27 0 28 0;
#X connect 28 0 33 0;
#X connect 29 0 27 1;
#X connect 29 1 27 2;
#X connect 29 2 27 3;
#X connect 29 3 27 4;
#X connect 29 4 27 5;
#X connect 29 5 27 6;
#X connect 29 6 27 7;
#X connect 29 7 27 8;
#X connect 30 0 27 0;
#X connect 32 0 26 1;
#X connect 33 0 34 0;
#X connect 34 0 31 0;
#X connect 35 0 36 0;
#X connect 36 0 44 0;
#X connect 36 1 35 0;
#X connect 37 0 38 0;
#X connect 37 1 39 0;
#X connect 38 0 0 0;
#X connect 39 0 37 0;
#X connect 40 0 26 0;
#X connect 41 0 43 0;
#X connect 41 1 42 0;
#X connect 42 0 41 0;
#X connect 43 0 40 0;
#X connect 44 0 33 1;
