#N canvas 371 179 1141 734 12;
#X obj 108 138 tgl 15 0 empty empty empty 17 7 0 10 #fcfcfc #000000
#000000 0 1;
#X obj 108 426 cycle;
#X obj 108 450 t b f;
#X obj 108 538 *~;
#X obj 108 474 ahdsr~ 10 0 50 0.2 50, f 56;
#X obj 402 427 cycle;
#X obj 899 160 out~;
#X msg 433 396 10 50 150;
#X obj 32 433 cycle;
#X msg 110 88 200 400 300 600 500 300;
#X msg 144 364 200 400 300 600 500 300 700 800 700 400 300 200 100
;
#X obj 179 28 loadbang;
#X obj 125 334 bng 15 250 50 0 empty empty empty 17 7 0 10 #fcfcfc
#000000 #000000;
#X floatatom 177 279 5 0 0 0 - - - 0;
#X floatatom 232 280 5 0 0 0 - - - 0;
#X floatatom 274 280 5 0 0 0 - - - 0;
#X obj 125 306 euclid 8 8, f 24;
#X obj 163 214 loadbang;
#X msg 163 238 8;
#X obj 32 481 *~;
#X obj 928 77 catch~ outL;
#X obj 940 108 catch~ outR;
#X obj 108 562 pan~ 0.75, f 17;
#X obj 108 586 throw~ outL;
#X obj 198 586 throw~ outR;
#X obj 21 653 throw~ outL;
#X obj 111 653 throw~ outR;
#X obj 21 629 pan~ 0.25, f 17;
#X floatatom 139 137 5 0 0 0 - - - 0;
#X obj 108 162 metro;
#X obj 186 128 loadbang;
#X obj 32 457 osc~;
#X obj 218 497 osc~;
#X msg 186 152 200;
#X msg 224 241 8;
#X connect 0 0 29 0;
#X connect 1 0 2 0;
#X connect 2 0 4 0;
#X connect 2 1 32 0;
#X connect 3 0 22 0;
#X connect 4 0 3 0;
#X connect 4 0 19 1;
#X connect 5 0 4 2;
#X connect 7 0 5 1;
#X connect 8 0 31 0;
#X connect 9 0 8 1;
#X connect 10 0 1 1;
#X connect 11 0 9 0;
#X connect 11 0 10 0;
#X connect 11 0 7 0;
#X connect 11 0 0 0;
#X connect 12 0 5 0;
#X connect 12 0 1 0;
#X connect 12 0 8 0;
#X connect 13 0 16 1;
#X connect 14 0 16 2;
#X connect 15 0 16 3;
#X connect 16 0 12 0;
#X connect 17 0 18 0;
#X connect 17 0 34 0;
#X connect 18 0 13 0;
#X connect 19 0 27 0;
#X connect 20 0 6 0;
#X connect 21 0 6 1;
#X connect 22 0 23 0;
#X connect 22 1 24 0;
#X connect 27 0 25 0;
#X connect 27 1 26 0;
#X connect 28 0 29 1;
#X connect 29 0 16 0;
#X connect 30 0 33 0;
#X connect 31 0 19 0;
#X connect 32 0 3 1;
#X connect 33 0 28 0;
#X connect 34 0 14 0;
