#N canvas 638 208 652 409 12;
#X obj 42 63 tgl 15 0 empty empty empty 17 7 0 10 #fcfcfc #000000 #000000
0 1;
#X obj 42 87 metro 200;
#X obj 42 111 cycle;
#X obj 42 175 sig~;
#X obj 42 135 t b f;
#X obj 42 333 out~;
#X obj 42 205 oscillator~;
#X floatatom 169 208 5 0 1 0 - - - 0;
#X floatatom 221 209 5 0 1 0 - - - 0;
#X floatatom 301 209 5 0 1 0 - - - 0;
#X floatatom 391 209 5 0 1 0 - - - 0;
#X msg 169 231 saw \$1;
#X msg 221 232 square \$1;
#X msg 301 232 triangle \$1;
#X msg 391 232 pw \$1;
#X obj 42 309 *~ 1;
#X obj 390 153 loadbang;
#X msg 174 179 0.29;
#X msg 220 178 0.52;
#X msg 290 179 1;
#X msg 365 177 0.25;
#X obj 104 22 loadbang;
#X obj 283 88 cycle;
#X msg 141 59 50 200 75 150 250 100 75;
#X msg 332 57 50 100 40 80 120 50 190 200;
#X obj 126 140 *~;
#X obj 42 229 vcf~ 1.8;
#X obj 126 116 ahdsr~ 5 0 100 0.4 20;
#X obj 108 164 *~ 5000;
#X obj 42 253 vcf~ 1.8;
#X obj 487 175 scaled 0 1 0.4 0.6;
#X obj 487 151 lfo sin 0.6;
#X connect 0 0 1 0;
#X connect 1 0 2 0;
#X connect 1 0 22 0;
#X connect 2 0 4 0;
#X connect 3 0 6 0;
#X connect 4 0 27 0;
#X connect 4 1 3 0;
#X connect 6 0 26 0;
#X connect 7 0 11 0;
#X connect 8 0 12 0;
#X connect 9 0 13 0;
#X connect 10 0 14 0;
#X connect 11 0 6 1;
#X connect 12 0 6 1;
#X connect 13 0 6 1;
#X connect 14 0 6 1;
#X connect 15 0 5 0;
#X connect 15 0 5 1;
#X connect 16 0 17 0;
#X connect 16 0 18 0;
#X connect 16 0 20 0;
#X connect 16 0 19 0;
#X connect 17 0 7 0;
#X connect 18 0 8 0;
#X connect 19 0 9 0;
#X connect 20 0 10 0;
#X connect 21 0 23 0;
#X connect 21 0 0 0;
#X connect 21 0 24 0;
#X connect 22 0 27 5;
#X connect 23 0 2 1;
#X connect 24 0 22 1;
#X connect 25 0 28 0;
#X connect 26 0 29 0;
#X connect 27 0 25 0;
#X connect 27 0 25 1;
#X connect 28 0 26 1;
#X connect 28 0 29 1;
#X connect 29 1 15 0;
#X connect 30 0 10 0;
#X connect 31 0 30 0;
