#N canvas 0 38 1512 884 12;
#X obj 9 9 ff;
#X obj 543 72 tgl 15 0 empty empty empty 17 7 0 10 #fcfcfc #000000
#000000 0 1;
#X floatatom 189 320 5 0 0 0 - - - 0;
#X obj 189 421 microbrute;
#X obj 189 391 makenote 127 50;
#X floatatom 384 476 5 0 0 0 - - - 0;
#X obj 384 577 microbrutefilter;
#X floatatom 370 324 5 0 0 0 - - - 0;
#X obj 370 347 scaled 0 1 48 73;
#X obj 370 425 microbrute;
#X obj 370 395 makenote 127 50;
#X floatatom 508 483 5 0 0 0 - - - 0;
#X obj 508 584 microbrutefilter;
#X obj 763 40 r ffx;
#X obj 189 343 scaled 0 1 36 49;
#X obj 543 120 bng 15 250 50 0 empty empty empty 17 7 0 10 #fcfcfc
#000000 #000000;
#X obj 188 271 probturing ffk1 ffs1;
#X obj 298 301 probturing ffk2 ffs2;
#X obj 388 271 probturing ffk3 ffs3;
#X obj 498 301 probturing ffk4 ffs4;
#X obj 584 266 probturing ffk5 ffs5;
#X obj 694 296 probturing ffk6 ffs6;
#X obj 784 266 probturing ffk7 ffs7;
#X obj 894 296 probturing ffk8 ffs8;
#X obj 347 52 r ffb8;
#X obj 347 76 sel 1;
#X obj 347 100 bng 15 250 50 0 empty empty empty 17 7 0 10 #fcfcfc
#000000 #000000;
#X floatatom 584 340 5 0 0 0 - - - 0;
#X obj 584 411 makenote 127 50;
#X obj 584 435 miniloguexd, f 15;
#X floatatom 764 340 5 0 0 0 - - - 0;
#X obj 764 411 makenote 127 50;
#X obj 764 435 miniloguexd, f 15;
#X floatatom 784 500 5 0 0 0 - - - 0;
#X obj 784 523 miniloguexdfilter;
#X floatatom 924 500 5 0 0 0 - - - 0;
#X obj 924 523 miniloguexdfilter;
#X floatatom 763 88 5 0 0 0 - - - 0;
#X obj 763 111 bpmtoms;
#X obj 742 173 metro;
#X obj 763 135 / 2;
#X obj 763 64 scaled 0 1 60 300;
#X obj 764 363 scaled 0 1 48 85;
#X obj 584 363 scaled 0 1 36 61;
#X obj 189 367 quantizedmode mixolydian 60;
#X obj 370 371 quantizedmode mixolydian 60;
#X obj 584 387 quantizedmode mixolydian 60;
#X obj 764 387 quantizedmode mixolydian 60;
#X connect 1 0 39 0;
#X connect 2 0 14 0;
#X connect 4 0 3 0;
#X connect 4 1 3 1;
#X connect 5 0 6 0;
#X connect 7 0 8 0;
#X connect 8 0 45 0;
#X connect 10 0 9 0;
#X connect 10 1 9 1;
#X connect 11 0 12 0;
#X connect 13 0 41 0;
#X connect 14 0 44 0;
#X connect 15 0 19 0;
#X connect 15 0 16 0;
#X connect 15 0 18 0;
#X connect 15 0 17 0;
#X connect 15 0 20 0;
#X connect 15 0 23 0;
#X connect 15 0 22 0;
#X connect 15 0 21 0;
#X connect 16 0 2 0;
#X connect 17 0 7 0;
#X connect 18 0 5 0;
#X connect 19 0 11 0;
#X connect 20 0 27 0;
#X connect 21 0 30 0;
#X connect 22 0 33 0;
#X connect 23 0 35 0;
#X connect 24 0 25 0;
#X connect 25 0 26 0;
#X connect 26 0 1 0;
#X connect 27 0 43 0;
#X connect 28 0 29 0;
#X connect 28 1 29 1;
#X connect 30 0 42 0;
#X connect 31 0 32 0;
#X connect 31 1 32 1;
#X connect 33 0 34 0;
#X connect 35 0 36 0;
#X connect 37 0 38 0;
#X connect 38 0 40 0;
#X connect 39 0 15 0;
#X connect 40 0 39 1;
#X connect 41 0 37 0;
#X connect 42 0 47 0;
#X connect 43 0 46 0;
#X connect 44 0 4 0;
#X connect 45 0 10 0;
#X connect 46 0 28 0;
#X connect 47 0 31 0;
