#N canvas 0 38 1512 884 12;
#X obj 9 9 ff;
#X obj 543 72 tgl 15 0 empty empty empty 17 7 0 10 #fcfcfc #000000
#000000 0 1;
#X obj 543 96 metro 200;
#X floatatom 189 320 5 0 0 0 - - - 0;
#X obj 189 367 quantizedmode aeolian 60;
#X obj 189 421 microbrute;
#X obj 189 391 makenote 127 50;
#X floatatom 294 476 5 0 0 0 - - - 0;
#X obj 294 577 microbrutefilter;
#X floatatom 400 350 5 0 0 0 - - - 0;
#X obj 400 373 scaled 0 1 48 73;
#X obj 400 397 quantizedmode aeolian 60;
#X obj 400 451 microbrute;
#X obj 400 421 makenote 127 50;
#X floatatom 508 483 5 0 0 0 - - - 0;
#X obj 508 584 microbrutefilter;
#X obj 763 40 r ffx;
#X obj 763 64 scaled 0 1 20 500;
#X obj 189 343 scaled 0 1 36 49;
#X obj 825 501 tr8sch;
#X obj 928 473 tr8soh;
#X obj 618 525 tr8sbd;
#X obj 716 527 tr8ssd;
#X obj 543 120 bng 15 250 50 0 empty empty empty 17 7 0 10 #fcfcfc
#000000 #000000;
#X obj 188 271 probturing ffk1 ffs1;
#X obj 298 301 probturing ffk2 ffs2;
#X obj 388 271 probturing ffk3 ffs3;
#X obj 498 301 probturing ffk4 ffs4;
#X obj 584 266 probturing ffk5 ffs5;
#X obj 694 296 probturing ffk6 ffs6;
#X obj 784 266 probturing ffk7 ffs7;
#X obj 894 296 probturing ffk8 ffs8;
#X connect 1 0 2 0;
#X connect 2 0 23 0;
#X connect 3 0 18 0;
#X connect 4 0 6 0;
#X connect 6 0 5 0;
#X connect 6 1 5 1;
#X connect 7 0 8 0;
#X connect 9 0 10 0;
#X connect 10 0 11 0;
#X connect 11 0 13 0;
#X connect 13 0 12 0;
#X connect 13 1 12 1;
#X connect 14 0 15 0;
#X connect 16 0 17 0;
#X connect 17 0 2 1;
#X connect 18 0 4 0;
#X connect 23 0 24 0;
#X connect 23 0 27 0;
#X connect 23 0 26 0;
#X connect 23 0 25 0;
#X connect 23 0 28 0;
#X connect 23 0 31 0;
#X connect 23 0 30 0;
#X connect 23 0 29 0;
#X connect 24 0 3 0;
#X connect 25 0 7 0;
#X connect 26 0 9 0;
#X connect 27 0 14 0;
#X connect 28 0 21 0;
#X connect 29 0 22 0;
#X connect 30 0 19 0;
#X connect 30 0 19 2;
#X connect 31 0 20 0;
#X connect 31 0 20 2;
