#N canvas 0 38 1512 884 12;
#X obj 9 9 ff;
#X obj 543 72 tgl 15 0 empty empty empty 17 7 0 10 #fcfcfc #000000
#000000 0 1;
#X floatatom 189 320 5 0 0 0 - - - 0;
#X floatatom 366 335 5 0 0 0 - - - 0;
#X obj 763 40 r ffx;
#X obj 543 120 bng 15 250 50 0 empty empty empty 17 7 0 10 #fcfcfc
#000000 #000000;
#X obj 188 271 probturing ffk1 ffs1;
#X obj 298 301 probturing ffk2 ffs2;
#X obj 388 271 probturing ffk3 ffs3;
#X obj 498 301 probturing ffk4 ffs4;
#X obj 584 266 probturing ffk5 ffs5;
#X obj 694 296 probturing ffk6 ffs6;
#X obj 784 266 probturing ffk7 ffs7;
#X obj 1025 278 probturing ffk8 ffs8;
#X obj 347 52 r ffb8;
#X obj 347 76 sel 1;
#X obj 347 100 bng 15 250 50 0 empty empty empty 17 7 0 10 #fcfcfc
#000000 #000000;
#X floatatom 524 344 5 0 0 0 - - - 0;
#X floatatom 764 340 5 0 0 0 - - - 0;
#X floatatom 763 88 5 0 0 0 - - - 0;
#X obj 763 111 bpmtoms;
#X obj 742 173 metro;
#X obj 763 135 / 2;
#X obj 763 64 scaled 0 1 60 300;
#X obj 201 421 tr8sbd;
#X obj 334 440 tr8ssd;
#X floatatom 457 343 5 0 0 0 - - - 0;
#X floatatom 607 350 5 0 0 0 - - - 0;
#X floatatom 855 366 5 0 0 0 - - - 0;
#X floatatom 1007 405 5 0 0 0 - - - 0;
#X obj 432 426 tr8smt;
#X obj 505 431 tr8sht;
#X obj 614 432 tr8srs;
#X obj 732 442 tr8shc;
#X obj 853 456 tr8sch;
#X obj 1004 486 tr8soh;
#X obj 898 340 probturing ffk7 ffs7;
#X floatatom 898 364 5 0 0 0 - - - 0;
#X obj 1186 275 probturing ffk8 ffs8;
#X floatatom 1062 406 5 0 0 0 - - - 0;
#X connect 1 0 21 0;
#X connect 2 0 24 0;
#X connect 3 0 25 0;
#X connect 4 0 23 0;
#X connect 5 0 6 0;
#X connect 5 0 9 0;
#X connect 5 0 8 0;
#X connect 5 0 7 0;
#X connect 5 0 10 0;
#X connect 5 0 13 0;
#X connect 5 0 12 0;
#X connect 5 0 11 0;
#X connect 5 0 36 0;
#X connect 5 0 38 0;
#X connect 6 0 2 0;
#X connect 7 0 3 0;
#X connect 8 0 26 0;
#X connect 9 0 17 0;
#X connect 10 0 27 0;
#X connect 11 0 18 0;
#X connect 12 0 28 0;
#X connect 13 0 29 0;
#X connect 14 0 15 0;
#X connect 15 0 16 0;
#X connect 16 0 1 0;
#X connect 17 0 31 0;
#X connect 18 0 33 0;
#X connect 19 0 20 0;
#X connect 20 0 22 0;
#X connect 21 0 5 0;
#X connect 22 0 21 1;
#X connect 23 0 19 0;
#X connect 26 0 30 0;
#X connect 27 0 32 0;
#X connect 28 0 34 0;
#X connect 29 0 35 0;
#X connect 36 0 37 0;
#X connect 37 0 34 2;
#X connect 38 0 39 0;
#X connect 39 0 35 2;
