#N canvas 0 38 1512 884 12;
#X obj 9 9 ff;
#X floatatom 41 362 5 0 0 0 - - - 0;
#X obj 41 463 microbrute;
#X obj 41 433 makenote 127 50;
#X floatatom 236 518 5 0 0 0 - - - 0;
#X obj 236 619 microbrutefilter;
#X floatatom 222 366 5 0 0 0 - - - 0;
#X obj 222 389 scaled 0 1 48 73;
#X obj 222 467 microbrute;
#X obj 222 437 makenote 127 50;
#X floatatom 360 525 5 0 0 0 - - - 0;
#X obj 360 626 microbrutefilter;
#X obj 41 385 scaled 0 1 36 49;
#X floatatom 436 382 5 0 0 0 - - - 0;
#X obj 436 453 makenote 127 50;
#X obj 436 477 miniloguexd, f 15;
#X floatatom 616 382 5 0 0 0 - - - 0;
#X obj 616 453 makenote 127 50;
#X obj 616 477 miniloguexd, f 15;
#X floatatom 636 542 5 0 0 0 - - - 0;
#X obj 636 565 miniloguexdfilter;
#X floatatom 776 542 5 0 0 0 - - - 0;
#X obj 776 565 miniloguexdfilter;
#X obj 616 405 scaled 0 1 48 85;
#X obj 436 405 scaled 0 1 36 61;
#X obj 41 409 quantizedmode mixolydian 60;
#X obj 222 413 quantizedmode mixolydian 60;
#X obj 436 429 quantizedmode mixolydian 60;
#X obj 616 429 quantizedmode mixolydian 60;
#X floatatom 972 400 5 0 0 0 - - - 0;
#X floatatom 1149 415 5 0 0 0 - - - 0;
#X floatatom 1307 424 5 0 0 0 - - - 0;
#X floatatom 1547 420 5 0 0 0 - - - 0;
#X obj 984 501 tr8sbd;
#X obj 1117 520 tr8ssd;
#X floatatom 1240 423 5 0 0 0 - - - 0;
#X floatatom 1390 430 5 0 0 0 - - - 0;
#X floatatom 1638 446 5 0 0 0 - - - 0;
#X floatatom 1790 485 5 0 0 0 - - - 0;
#X obj 1215 506 tr8smt;
#X obj 1288 511 tr8sht;
#X obj 1397 512 tr8srs;
#X obj 1515 522 tr8shc;
#X obj 1636 536 tr8sch;
#X obj 1787 566 tr8soh;
#X floatatom 1681 444 5 0 0 0 - - - 0;
#X floatatom 1845 486 5 0 0 0 - - - 0;
#X obj 243 262 r tick;
#X obj 1345 294 r tick;
#X obj 40 313 pagedprobturing ffk1 ffs1 1;
#X obj 240 313 pagedprobturing ffk3 ffs3 1;
#X obj 436 308 pagedprobturing ffk5 ffs5 1;
#X obj 636 308 pagedprobturing ffk7 ffs7 1;
#X obj 970 351 pagedprobturing ffk1 ffs1 2;
#X obj 1081 381 pagedprobturing ffk2 ffs2 2;
#X obj 1170 351 probturing ffk3 pagedprobturing 2;
#X obj 1281 381 pagedprobturing ffk4 ffs4 2;
#X obj 1367 346 pagedprobturing ffk5 ffs5 2;
#X obj 1477 376 pagedprobturing ffk6 ffs6 2;
#X obj 1567 346 pagedprobturing ffk7 ffs7 2;
#X obj 1681 420 pagedprobturing ffk7 ffs7 2;
#X obj 1807 359 pagedprobturing ffk8 ffs8 2;
#X obj 1969 355 pagedprobturing ffk8 ffs8 2;
#X obj 863 106 r ffb1;
#X obj 863 130 sel 1;
#X msg 863 174 1;
#X msg 895 174 2;
#X obj 863 154 bng 15 250 50 0 empty empty empty 17 7 0 10 #fcfcfc
#000000 #000000;
#X obj 895 154 bng 15 250 50 0 empty empty empty 17 7 0 10 #fcfcfc
#000000 #000000;
#X obj 863 198 s page;
#X obj 322 257 r page;
#X obj 150 343 pagedprobturing ffk2 ffs2 1;
#X obj 350 343 pagedprobturing ffk4 ffs4 1;
#X obj 546 338 pagedprobturing ffk6 ffs6 1;
#X obj 746 338 pagedprobturing ffk8 ffs8 1;
#X obj 1497 294 r page;
#X obj 566 98 midiclockin;
#X obj 566 122 s tick;
#X obj 660 128 bng 15 250 50 0 empty empty empty 17 7 0 10 #fcfcfc
#000000 #000000;
#X connect 1 0 12 0;
#X connect 3 0 2 0;
#X connect 3 1 2 1;
#X connect 4 0 5 0;
#X connect 6 0 7 0;
#X connect 7 0 26 0;
#X connect 9 0 8 0;
#X connect 9 1 8 1;
#X connect 10 0 11 0;
#X connect 12 0 25 0;
#X connect 13 0 24 0;
#X connect 14 0 15 0;
#X connect 14 1 15 1;
#X connect 16 0 23 0;
#X connect 17 0 18 0;
#X connect 17 1 18 1;
#X connect 19 0 20 0;
#X connect 21 0 22 0;
#X connect 23 0 28 0;
#X connect 24 0 27 0;
#X connect 25 0 3 0;
#X connect 26 0 9 0;
#X connect 27 0 14 0;
#X connect 28 0 17 0;
#X connect 29 0 33 0;
#X connect 30 0 34 0;
#X connect 31 0 40 0;
#X connect 32 0 42 0;
#X connect 35 0 39 0;
#X connect 36 0 41 0;
#X connect 37 0 43 0;
#X connect 38 0 44 0;
#X connect 45 0 43 2;
#X connect 46 0 44 2;
#X connect 47 0 74 0;
#X connect 47 0 49 0;
#X connect 47 0 50 0;
#X connect 47 0 51 0;
#X connect 47 0 52 0;
#X connect 47 0 71 0;
#X connect 47 0 72 0;
#X connect 47 0 73 0;
#X connect 48 0 55 0;
#X connect 48 0 53 0;
#X connect 48 0 54 0;
#X connect 48 0 56 0;
#X connect 48 0 57 0;
#X connect 48 0 58 0;
#X connect 48 0 59 0;
#X connect 48 0 60 0;
#X connect 48 0 61 0;
#X connect 48 0 62 0;
#X connect 49 0 1 0;
#X connect 50 0 4 0;
#X connect 51 0 13 0;
#X connect 52 0 19 0;
#X connect 53 0 29 0;
#X connect 54 0 30 0;
#X connect 55 0 35 0;
#X connect 56 0 31 0;
#X connect 57 0 36 0;
#X connect 58 0 32 0;
#X connect 59 0 37 0;
#X connect 60 0 45 0;
#X connect 61 0 38 0;
#X connect 62 0 46 0;
#X connect 63 0 64 0;
#X connect 64 0 67 0;
#X connect 64 1 68 0;
#X connect 65 0 69 0;
#X connect 66 0 69 0;
#X connect 67 0 65 0;
#X connect 68 0 66 0;
#X connect 70 0 74 1;
#X connect 70 0 49 1;
#X connect 70 0 73 1;
#X connect 70 0 72 1;
#X connect 70 0 71 1;
#X connect 70 0 52 1;
#X connect 70 0 51 1;
#X connect 70 0 50 1;
#X connect 71 0 6 0;
#X connect 72 0 10 0;
#X connect 73 0 16 0;
#X connect 74 0 21 0;
#X connect 75 0 59 1;
#X connect 75 0 62 1;
#X connect 75 0 61 1;
#X connect 75 0 60 1;
#X connect 75 0 58 1;
#X connect 75 0 57 1;
#X connect 75 0 56 1;
#X connect 75 0 54 1;
#X connect 75 0 53 1;
#X connect 76 0 77 0;
#X connect 76 0 78 0;
