#N canvas 204 25 1512 884 12;
#X obj 9 9 ff;
#X floatatom 189 320 5 0 0 0 - - - 0;
#X obj 189 421 microbrute;
#X obj 189 391 makenote 127 50;
#X floatatom 384 476 5 0 0 0 - - - 0;
#X obj 384 577 microbrutefilter;
#X floatatom 370 324 5 0 0 0 - - - 0;
#X obj 370 347 scaled 0 1 48 73;
#X obj 370 425 microbrute;
#X obj 370 395 makenote 127 50;
#X floatatom 508 483 5 0 0 0 - - - 0;
#X obj 508 584 microbrutefilter;
#X obj 189 343 scaled 0 1 36 49;
#X obj 543 120 bng 15 250 50 0 empty empty empty 17 7 0 10 #fcfcfc
#000000 #000000;
#X obj 188 271 probturing ffk1 ffs1;
#X obj 298 301 probturing ffk2 ffs2;
#X obj 388 271 probturing ffk3 ffs3;
#X obj 498 301 probturing ffk4 ffs4;
#X obj 584 266 probturing ffk5 ffs5;
#X obj 694 296 probturing ffk6 ffs6;
#X obj 784 266 probturing ffk7 ffs7;
#X obj 894 296 probturing ffk8 ffs8;
#X floatatom 584 340 5 0 0 0 - - - 0;
#X obj 584 411 makenote 127 50;
#X obj 584 435 miniloguexd, f 15;
#X floatatom 764 340 5 0 0 0 - - - 0;
#X obj 764 411 makenote 127 50;
#X obj 764 435 miniloguexd, f 15;
#X floatatom 784 500 5 0 0 0 - - - 0;
#X obj 784 523 miniloguexdfilter;
#X floatatom 924 500 5 0 0 0 - - - 0;
#X obj 924 523 miniloguexdfilter;
#X obj 764 363 scaled 0 1 48 85;
#X obj 584 363 scaled 0 1 36 61;
#X obj 529 29 midiclockin;
#X obj 370 371 quantizedmode harmonicminor 60;
#X obj 584 387 quantizedmode harmonicminor 60;
#X obj 764 387 quantizedmode harmonicminor 60;
#X obj 189 367 quantizedmode harmonicminor 60;
#X connect 1 0 12 0;
#X connect 3 0 2 0;
#X connect 3 1 2 1;
#X connect 4 0 5 0;
#X connect 6 0 7 0;
#X connect 7 0 35 0;
#X connect 9 0 8 0;
#X connect 9 1 8 1;
#X connect 10 0 11 0;
#X connect 12 0 38 0;
#X connect 13 0 21 0;
#X connect 13 0 17 0;
#X connect 13 0 18 0;
#X connect 13 0 14 0;
#X connect 13 0 16 0;
#X connect 13 0 15 0;
#X connect 13 0 20 0;
#X connect 13 0 19 0;
#X connect 14 0 1 0;
#X connect 15 0 6 0;
#X connect 16 0 4 0;
#X connect 17 0 10 0;
#X connect 18 0 22 0;
#X connect 19 0 25 0;
#X connect 20 0 28 0;
#X connect 21 0 30 0;
#X connect 22 0 33 0;
#X connect 23 0 24 0;
#X connect 23 1 24 1;
#X connect 25 0 32 0;
#X connect 26 0 27 0;
#X connect 26 1 27 1;
#X connect 28 0 29 0;
#X connect 30 0 31 0;
#X connect 32 0 37 0;
#X connect 33 0 36 0;
#X connect 34 0 13 0;
#X connect 35 0 9 0;
#X connect 36 0 23 0;
#X connect 37 0 26 0;
#X connect 38 0 3 0;
