#N canvas 0 25 955 755 12;
#X obj 338 163 kick~ 1 1 1 1 1, f 34;
#X obj 338 144 bng 15 250 50 0 empty empty empty 17 7 0 10 -262144
-1 -1;
#X obj 338 100 tgl 15 0 empty empty empty 17 7 0 10 -262144 -1 -1 1
1;
#X obj 338 120 metro;
#X floatatom 370 96 5 0 0 0 - - -;
#X obj 459 262 * 0.666667;
#X obj 185 180 ahdsr~ 5 0 20 0.8 50;
#X obj 98 205 fm~ 1 1;
#X floatatom 98 126 5 0 0 0 - - -;
#X obj 98 233 *~;
#X obj 401 286 echo~ 250 0.5;
#X obj 201 95 random 5;
#X obj 264 95 random 5;
#X obj 626 55 table notes;
#X msg 626 99 \; notes 0 60 62 64 67 69;
#X obj 90 53 random 5;
#X obj 90 77 tabread notes;
#X obj 252 253 * 0.1;
#X obj 98 173 line;
#X msg 98 149 \$1 10;
#X obj 195 277 echo~ 250 0.8;
#X obj 225 153 maybe 0.5;
#X obj 578 257 kick~ 1 1 1 1 1, f 34;
#X obj 340 37 loadbang;
#X obj 605 332 noise~;
#X obj 675 332 ahdsr~ 0 5 0 0.5 5;
#X obj 605 356 *~;
#X obj 600 410 echo~ 250 0.5;
#X obj 658 386 * 0.333333;
#X obj 505 389 hip~ 2000;
#X obj 494 548 noise~;
#X obj 493 581 *~;
#X obj 578 546 ahdsr~ 0 50 0 1 50;
#X obj 496 613 vcf~ 4;
#X obj 586 572 loadbang;
#X obj 530 426 i;
#X obj 560 425 + 1;
#X floatatom 530 450 5 0 0 0 - - -;
#X obj 530 496 sel 0;
#X msg 585 603 1500;
#X obj 530 472 % 2;
#X msg 621 460 0;
#X obj 343 599 *~ 1;
#X obj 81 516 *~;
#X obj 81 467 osc~;
#X obj 82 412 mtof;
#X obj 81 366 maybe 0.3;
#X obj 81 390 t b f;
#X obj 123 435 bng 15 250 50 0 empty empty empty 17 7 0 10 -262144
-1 -1;
#X obj 119 468 ahdsr~ 10 200 20 0.8 20;
#X obj 82 436 / 4;
#X obj 17 475 crackle~;
#X obj 314 626 ducker~ 50 500;
#X obj 175 437 * 0.75;
#X obj 626 77 loadbang;
#X msg 371 61 1000;
#X obj 80 493 lop~ 300;
#X msg 411 58 500;
#X obj 495 114 line;
#X msg 495 90 \$1 1000;
#X msg 445 63 100;
#X obj 314 654 *~ 1;
#X obj 314 678 out~;
#X obj 400 312 vibrato~ 1 0.05;
#X obj 195 301 vibrato~ 1 0.05;
#X obj 81 539 vibrato~ 2 0.2;
#X connect 0 0 10 0;
#X connect 0 0 42 0;
#X connect 1 0 0 0;
#X connect 1 0 11 0;
#X connect 1 0 12 0;
#X connect 1 0 15 0;
#X connect 1 0 21 0;
#X connect 1 0 22 0;
#X connect 1 0 25 0;
#X connect 1 0 35 0;
#X connect 2 0 3 0;
#X connect 3 0 1 0;
#X connect 4 0 3 1;
#X connect 4 0 5 0;
#X connect 4 0 17 0;
#X connect 4 0 28 0;
#X connect 4 0 53 0;
#X connect 5 0 10 1;
#X connect 6 0 9 1;
#X connect 7 0 9 0;
#X connect 8 0 19 0;
#X connect 8 0 46 0;
#X connect 9 0 20 0;
#X connect 9 0 42 0;
#X connect 10 0 63 0;
#X connect 11 0 7 1;
#X connect 12 0 7 2;
#X connect 15 0 16 0;
#X connect 16 0 8 0;
#X connect 17 0 20 1;
#X connect 18 0 7 0;
#X connect 19 0 18 0;
#X connect 20 0 64 0;
#X connect 21 0 6 0;
#X connect 22 0 42 0;
#X connect 23 0 55 0;
#X connect 24 0 26 0;
#X connect 25 0 26 1;
#X connect 26 0 27 0;
#X connect 26 0 29 0;
#X connect 27 0 29 0;
#X connect 28 0 27 1;
#X connect 29 0 42 0;
#X connect 30 0 31 0;
#X connect 31 0 33 0;
#X connect 32 0 31 1;
#X connect 33 0 42 0;
#X connect 34 0 39 0;
#X connect 35 0 36 0;
#X connect 35 0 37 0;
#X connect 36 0 35 1;
#X connect 37 0 40 0;
#X connect 38 1 32 0;
#X connect 38 1 41 0;
#X connect 39 0 33 1;
#X connect 40 0 38 0;
#X connect 41 0 35 1;
#X connect 42 0 52 1;
#X connect 43 0 65 0;
#X connect 44 0 56 0;
#X connect 45 0 50 0;
#X connect 46 0 47 0;
#X connect 47 0 48 0;
#X connect 47 1 45 0;
#X connect 48 0 49 0;
#X connect 49 0 43 1;
#X connect 50 0 44 0;
#X connect 51 0 43 0;
#X connect 52 0 61 0;
#X connect 52 1 61 0;
#X connect 53 0 49 2;
#X connect 54 0 14 0;
#X connect 55 0 59 0;
#X connect 56 0 43 0;
#X connect 57 0 59 0;
#X connect 58 0 4 0;
#X connect 59 0 58 0;
#X connect 60 0 59 0;
#X connect 61 0 62 0;
#X connect 61 0 62 1;
#X connect 63 0 42 0;
#X connect 64 0 42 0;
#X connect 65 0 52 0;
