#N canvas 0 38 1512 884 12;
#X obj 98 89 ff;
#X obj 743 42 tgl 15 0 empty empty empty 17 7 0 10 #fcfcfc #000000
#000000 0 1;
#X obj 974 20 r ffx;
#X obj 743 90 bng 15 250 50 0 empty empty empty 17 7 0 10 #fcfcfc #000000
#000000;
#X obj 388 181 probturing ffk1 ffs1;
#X obj 532 181 probturing ffk2 ffs2;
#X obj 676 181 probturing ffk3 ffs3;
#X obj 820 181 probturing ffk4 ffs4;
#X obj 964 181 probturing ffk5 ffs5;
#X obj 1108 181 probturing ffk6 ffs6;
#X obj 1252 181 probturing ffk7 ffs7;
#X obj 1396 181 probturing ffk8 ffs8;
#X obj 547 22 r ffb8;
#X obj 547 46 sel 1;
#X obj 547 70 bng 15 250 50 0 empty empty empty 17 7 0 10 #fcfcfc #000000
#000000;
#X floatatom 974 68 5 0 0 0 - - - 0;
#X obj 974 91 bpmtoms;
#X obj 942 143 metro;
#X obj 974 115 / 2;
#X obj 974 44 scaled 0 1 60 300;
#X obj 12 789 mspdfam;
#X obj 19 646 mspparam vcfcutoff;
#X obj 19 376 mspparam vco1egamount;
#X obj 19 453 mspparam vco2egamount;
#X obj 19 395 mspparam vco1frequency;
#X obj 19 472 mspparam vco2frequency;
#X obj 938 755 hradio 15 1 0 4 empty empty empty 0 -8 0 10 #fcfcfc
#000000 #000000 0;
#X obj 1024 755 hradio 15 1 0 4 empty empty empty 0 -8 0 10 #fcfcfc
#000000 #000000 0;
#X obj 19 414 mspparam vco1level;
#X obj 19 491 mspparam vco2level;
#X obj 19 530 mspparam fmamount;
#X obj 19 549 mspparam syncamount;
#X obj 19 588 mspparam noiselevel;
#X obj 19 607 mspparam noisevcfmod;
#X obj 19 665 mspparam vcfegamount;
#X obj 19 684 mspparam vcfdecay;
#X obj 19 703 mspparam vcfresonance;
#X obj 19 742 mspparam vcadecay;
#X obj 19 299 mspparam pitch;
#X obj 19 318 mspparam velocity;
#X obj 388 280 f;
#X obj 532 299 f;
#X obj 676 569 f;
#X obj 19 337 mspparam vcodecay;
#X msg 938 770 vco1wave \$1;
#X msg 1024 770 vco2wave \$1;
#X obj 830 755 hradio 15 1 0 3 empty empty empty 0 -8 0 10 #fcfcfc
#000000 #000000 0;
#X msg 830 770 seqpitchmod \$1;
#X obj 12 813 out~;
#X obj 1111 755 tgl 15 0 empty empty empty 17 7 0 10 #fcfcfc #000000
#000000 0 1;
#X obj 1247 755 tgl 15 0 empty empty empty 17 7 0 10 #fcfcfc #000000
#000000 0 1;
#X msg 1111 770 patchpitchtovcf \$1;
#X msg 1247 770 patchpitchtonoisemod \$1;
#X obj 820 511 f;
#X obj 103 809 throw~ reverb-bus;
#X obj 1128 304 catch~ reverb-bus;
#X obj 1128 328 hv.reverb;
#X obj 1128 352 out~;
#X msg 1263 309 dry-gain 0;
#X msg 1343 309 wet-gain 80;
#X connect 1 0 17 0;
#X connect 2 0 19 0;
#X connect 3 0 6 0;
#X connect 3 0 4 0;
#X connect 3 0 7 0;
#X connect 3 0 5 0;
#X connect 3 0 8 0;
#X connect 3 0 11 0;
#X connect 3 0 10 0;
#X connect 3 0 9 0;
#X connect 4 0 40 0;
#X connect 5 0 41 0;
#X connect 6 0 42 0;
#X connect 7 0 53 0;
#X connect 12 0 13 0;
#X connect 13 0 14 0;
#X connect 14 0 1 0;
#X connect 15 0 16 0;
#X connect 16 0 18 0;
#X connect 17 0 3 0;
#X connect 18 0 17 1;
#X connect 19 0 15 0;
#X connect 20 0 48 0;
#X connect 20 0 48 1;
#X connect 20 0 54 0;
#X connect 21 0 20 0;
#X connect 22 0 20 0;
#X connect 23 0 20 0;
#X connect 24 0 20 0;
#X connect 25 0 20 0;
#X connect 26 0 44 0;
#X connect 27 0 45 0;
#X connect 28 0 20 0;
#X connect 29 0 20 0;
#X connect 30 0 20 0;
#X connect 31 0 20 0;
#X connect 32 0 20 0;
#X connect 33 0 20 0;
#X connect 34 0 20 0;
#X connect 35 0 20 0;
#X connect 36 0 20 0;
#X connect 37 0 20 0;
#X connect 38 0 20 0;
#X connect 39 0 20 0;
#X connect 40 0 38 0;
#X connect 41 0 39 0;
#X connect 42 0 32 0;
#X connect 43 0 20 0;
#X connect 44 0 20 0;
#X connect 45 0 20 0;
#X connect 46 0 47 0;
#X connect 47 0 20 0;
#X connect 49 0 51 0;
#X connect 50 0 52 0;
#X connect 51 0 20 0;
#X connect 52 0 20 0;
#X connect 53 0 30 0;
#X connect 55 0 56 0;
#X connect 56 0 57 0;
#X connect 56 1 57 1;
#X connect 58 0 56 1;
#X connect 59 0 56 1;
