#N canvas 0 38 1512 884 12;
#X obj 1364 318 out~;
#X obj 1364 240 catch~ outL;
#X obj 1403 264 catch~ outR;
#X obj 1001 790 pan~ 0.75, f 17;
#X obj 1001 814 throw~ outL;
#X obj 1117 814 throw~ outR;
#X obj 1054 742 oscillator~;
#X obj 1128 555 mspparam saw;
#X obj 1128 594 mspparam square;
#X obj 1128 652 mspparam triangle;
#X obj 1128 613 mspparam pw;
#X obj 1054 694 r r-osc-freq;
#X obj 1054 718 ramp~;
#X obj 547 262 generative8step 120 240;
#X obj 547 378 s r-osc-freq;
#X obj 23 93 metronome 120 8, f 25;
#X obj 908 530 generative8step 120 240;
#X obj 908 549 generative8step 120 240;
#X obj 908 587 generative8step 120 240;
#X obj 23 117 s step;
#X obj 908 506 r step;
#X obj 547 238 r step;
#X obj 635 80 tgl 15 0 empty empty empty 17 7 0 10 #fcfcfc #000000
#000000 0 1;
#X obj 214 811 throw~ outL;
#X obj 330 811 throw~ outR;
#X obj 267 739 oscillator~;
#X obj 341 552 mspparam saw;
#X obj 341 591 mspparam square;
#X obj 341 649 mspparam triangle;
#X obj 341 610 mspparam pw;
#X obj 267 715 ramp~;
#X obj 121 527 generative8step 120 240;
#X obj 121 546 generative8step 120 240;
#X obj 121 584 generative8step 120 240;
#X obj 121 503 r step;
#X obj 267 691 r l-osc-freq;
#X obj 9 672 generative8step 120 240;
#X obj 9 648 r step;
#X obj 716 675 generative8step 120 240;
#X obj 716 651 r step;
#X obj 9 720 sel 1;
#X obj 716 723 sel 1;
#X obj 747 700 r density;
#X obj 716 699 >;
#X obj 39 696 r density;
#X obj 9 696 >;
#X obj 1027 57 msphsl 0 1;
#X obj 1027 104 s density;
#X text 188 472 generate left timbre sequence;
#X text 1008 470 generate right timbre sequence;
#X text 703 10 controls;
#X obj 360 80 tgl 15 0 empty empty empty 17 7 0 10 #fcfcfc #000000
#000000 0 1;
#X obj 360 104 s startstop;
#X obj 23 69 r startstop;
#X obj 1027 80 oneminus;
#X obj 445 80 tgl 15 0 empty empty empty 17 7 0 10 #fcfcfc #000000
#000000 0 1;
#X obj 445 104 s generate-timbre-sequence;
#X obj 279 503 r generate-timbre-sequence;
#X obj 1066 506 r generate-timbre-sequence;
#X obj 601 19 mspkeyboard;
#X text 374 204 generate pitch sequences;
#X obj 635 104 s generate-l-pitch-sequence;
#X obj 831 80 tgl 15 0 empty empty empty 17 7 0 10 #fcfcfc #000000
#000000 0 1;
#X obj 831 104 s generate-r-pitch-sequence;
#X obj 705 238 r generate-r-pitch-sequence;
#X obj 187 262 generative8step 120 240;
#X obj 187 238 r step;
#X obj 345 238 r generate-l-pitch-sequence;
#X obj 187 378 s l-osc-freq;
#X obj 167 648 r generate-l-pitch-sequence;
#X obj 874 651 r generate-r-pitch-sequence;
#X obj 235 82 msphsl 10 500;
#N canvas 150 188 450 300 reverb~ 0;
#X obj 55 135 hv.reverb;
#X msg 90 70 dry-gain 0;
#X msg 113 97 wet-gain 100;
#X obj 102 27 loadbang;
#X obj 55 111 inlet~;
#X obj 55 159 *~ 0.15;
#X obj 55 183 outlet~;
#X obj 115 159 *~ 0.15;
#X obj 115 183 outlet~;
#X connect 0 0 5 0;
#X connect 0 1 7 0;
#X connect 1 0 0 1;
#X connect 2 0 0 1;
#X connect 3 0 1 0;
#X connect 3 0 2 0;
#X connect 4 0 0 0;
#X connect 5 0 6 0;
#X connect 7 0 8 0;
#X restore 1269 294 pd reverb~;
#X obj 1269 318 out~;
#X obj 235 106 s decay;
#X obj 99 720 r decay;
#X obj 806 723 r decay;
#X obj 109 69 msphsl 10 300;
#X obj 214 787 pan~ 0.25, f 17;
#X obj 601 43 route button1 button2 button4 button5, f 54;
#X obj 764 127 tgl 15 0 empty empty empty 17 7 0 10 #fcfcfc #000000
#000000 0 1;
#X obj 900 131 tgl 15 0 empty empty empty 17 7 0 10 #fcfcfc #000000
#000000 0 1;
#N canvas 63 101 450 300 quantize 0;
#X obj 81 78 scaled 0 1 0 800;
#X obj 81 102 ftom;
#X obj 81 150 mtof;
#X obj 81 126 quantizedmode harmonicminor 60;
#X obj 141 198 / 2;
#X obj 81 54 inlet;
#X obj 81 238 outlet;
#X obj 81 174 maybe 0.3;
#X connect 0 0 1 0;
#X connect 1 0 3 0;
#X connect 2 0 7 0;
#X connect 3 0 2 0;
#X connect 4 0 6 0;
#X connect 5 0 0 0;
#X connect 7 0 6 0;
#X connect 7 1 4 0;
#X restore 187 286 pd quantize;
#N canvas 63 101 450 300 quantize 0;
#X obj 81 78 scaled 0 1 0 800;
#X obj 81 102 ftom;
#X obj 81 150 mtof;
#X obj 81 126 quantizedmode harmonicminor 60;
#X obj 141 198 / 2;
#X obj 81 54 inlet;
#X obj 81 238 outlet;
#X obj 81 174 maybe 0.3;
#X connect 0 0 1 0;
#X connect 1 0 3 0;
#X connect 2 0 7 0;
#X connect 3 0 2 0;
#X connect 4 0 6 0;
#X connect 5 0 0 0;
#X connect 7 0 6 0;
#X connect 7 1 4 0;
#X restore 547 286 pd quantize;
#X obj 187 354 spigot;
#X obj 547 354 spigot;
#X obj 764 147 s lock-l-pitches;
#X obj 900 155 s lock-r-pitches;
#N canvas 92 130 149 132 lock-pitches 0;
#X obj 19 24 r lock-l-pitches;
#X obj 19 48 sel 0 1, f 9;
#X msg 19 72 1;
#X msg 49 72 0;
#X obj 19 96 outlet;
#X obj 102 51 loadbang;
#X connect 0 0 1 0;
#X connect 1 0 2 0;
#X connect 1 1 3 0;
#X connect 2 0 4 0;
#X connect 3 0 4 0;
#X connect 5 0 2 0;
#X restore 226 310 pd lock-pitches;
#X obj 226 334 tgl 15 0 empty empty empty 17 7 0 10 #fcfcfc #000000
#000000 0 1;
#N canvas 92 130 149 132 lock-pitches 0;
#X obj 19 48 sel 0 1, f 9;
#X msg 19 72 1;
#X msg 49 72 0;
#X obj 19 96 outlet;
#X obj 19 24 r lock-r-pitches;
#X obj 102 51 loadbang;
#X connect 0 0 1 0;
#X connect 0 1 2 0;
#X connect 1 0 3 0;
#X connect 2 0 3 0;
#X connect 4 0 0 0;
#X connect 5 0 1 0;
#X restore 586 310 pd lock-pitches;
#X obj 586 334 tgl 15 0 empty empty empty 17 7 0 10 #fcfcfc #000000
#000000 0 1;
#X text 1348 210 out;
#X obj 255 26 msphsl 10 100;
#X obj 255 50 s ramp;
#X obj 311 715 r ramp;
#X obj 1098 718 r ramp;
#X text 380 740 left osc;
#X text 1171 739 right osc;
#N canvas 121 159 450 300 echo~ 0;
#X obj 32 112 echo~ 250 0.3;
#X obj 129 112 echo~ 250 0.3;
#X obj 32 65 inlet~;
#X obj 32 89 *~;
#X obj 129 65 inlet~;
#X obj 129 89 *~;
#X obj 32 136 outlet~;
#X obj 129 136 outlet~;
#X obj 253 50 r echo-send;
#X obj 253 74 ramp~;
#X connect 0 0 6 0;
#X connect 1 0 7 0;
#X connect 2 0 3 0;
#X connect 3 0 0 0;
#X connect 4 0 5 0;
#X connect 5 0 1 0;
#X connect 8 0 9 0;
#X connect 9 0 5 1;
#X connect 9 0 3 1;
#X restore 1187 292 pd echo~;
#X obj 1187 316 out~;
#X obj 1153 81 msphsl 0 1;
#X obj 1153 105 s echo-send;
#X obj 757 567 loadbang;
#X msg 757 591 0.5;
#X obj 428 30 loadbang;
#X obj 1170 13 loadbang;
#X obj 109 21 loadbang;
#X msg 109 45 120;
#N canvas 150 188 450 224 saveandrecall 0;
#X floatatom 179 137 5 1 8 0 - - - 0;
#X msg 179 160 save \$1;
#X floatatom 239 137 5 1 8 0 - - - 0;
#X msg 239 160 recall \$1;
#X obj 41 21 mspkeyboardnumberrow;
#X obj 179 184 outlet;
#X obj 41 45 route 1 2 3 4 5 6 7 8, f 54;
#X obj 41 69 sel 1;
#X obj 87 69 sel 1;
#X obj 134 69 sel 1;
#X obj 181 69 sel 1;
#X obj 228 69 sel 1;
#X obj 275 69 sel 1;
#X obj 321 69 sel 1;
#X obj 369 69 sel 1;
#X msg 41 93 1;
#X msg 87 93 2;
#X msg 134 93 3;
#X msg 181 93 4;
#X msg 228 93 1;
#X msg 275 93 2;
#X msg 321 93 3;
#X msg 369 93 4;
#X connect 0 0 1 0;
#X connect 1 0 5 0;
#X connect 2 0 3 0;
#X connect 3 0 5 0;
#X connect 4 0 6 0;
#X connect 6 0 7 0;
#X connect 6 1 8 0;
#X connect 6 2 9 0;
#X connect 6 3 10 0;
#X connect 6 4 11 0;
#X connect 6 5 12 0;
#X connect 6 6 13 0;
#X connect 6 7 14 0;
#X connect 7 0 15 0;
#X connect 8 0 16 0;
#X connect 9 0 17 0;
#X connect 10 0 18 0;
#X connect 11 0 19 0;
#X connect 12 0 20 0;
#X connect 13 0 21 0;
#X connect 14 0 22 0;
#X connect 15 0 0 0;
#X connect 16 0 0 0;
#X connect 17 0 0 0;
#X connect 18 0 0 0;
#X connect 19 0 2 0;
#X connect 20 0 2 0;
#X connect 21 0 2 0;
#X connect 22 0 2 0;
#X restore 717 440 pd saveandrecall;
#X msg 381 52 40;
#X obj 9 792 scaled~ 0 1 0 16000;
#X obj 716 795 scaled~ 0 1 0 16000;
#X obj 214 763 vcf~ 1.5;
#X obj 1001 766 vcf~ 1.5;
#X text 726 416 1-4 to save pattern \, and 5-8 to recall;
#X obj 9 768 easeincubic~;
#X obj 716 771 easeincubic~;
#X msg 1170 37 0.3;
#X obj 9 744 ahdsr~ 5 20 50 0.4 500;
#X obj 716 747 ahdsr~ 5 20 50 0.4 500;
#X connect 1 0 0 0;
#X connect 1 0 99 0;
#X connect 1 0 72 0;
#X connect 2 0 0 1;
#X connect 2 0 99 1;
#X connect 2 0 72 0;
#X connect 3 0 4 0;
#X connect 3 1 5 0;
#X connect 6 0 114 0;
#X connect 7 0 6 1;
#X connect 8 0 6 1;
#X connect 9 0 6 1;
#X connect 10 0 6 1;
#X connect 11 0 12 0;
#X connect 12 0 6 0;
#X connect 13 0 83 0;
#X connect 15 0 19 0;
#X connect 16 0 7 0;
#X connect 17 0 8 0;
#X connect 18 0 9 0;
#X connect 20 0 16 0;
#X connect 20 0 18 0;
#X connect 20 0 17 0;
#X connect 21 0 13 0;
#X connect 22 0 61 0;
#X connect 25 0 113 0;
#X connect 26 0 25 1;
#X connect 27 0 25 1;
#X connect 28 0 25 1;
#X connect 29 0 25 1;
#X connect 30 0 25 0;
#X connect 31 0 26 0;
#X connect 32 0 27 0;
#X connect 33 0 28 0;
#X connect 34 0 31 0;
#X connect 34 0 33 0;
#X connect 34 0 32 0;
#X connect 35 0 30 0;
#X connect 36 0 45 0;
#X connect 37 0 36 0;
#X connect 38 0 43 0;
#X connect 39 0 38 0;
#X connect 40 0 119 0;
#X connect 41 0 120 0;
#X connect 42 0 43 1;
#X connect 43 0 41 0;
#X connect 44 0 45 1;
#X connect 45 0 40 0;
#X connect 46 0 54 0;
#X connect 51 0 52 0;
#X connect 53 0 15 0;
#X connect 54 0 47 0;
#X connect 55 0 56 0;
#X connect 57 0 31 1;
#X connect 57 0 33 1;
#X connect 57 0 32 1;
#X connect 58 0 16 1;
#X connect 58 0 18 1;
#X connect 58 0 17 1;
#X connect 59 0 79 0;
#X connect 62 0 63 0;
#X connect 64 0 13 1;
#X connect 65 0 82 0;
#X connect 66 0 65 0;
#X connect 67 0 65 1;
#X connect 69 0 36 1;
#X connect 70 0 38 1;
#X connect 71 0 74 0;
#X connect 72 0 73 0;
#X connect 72 1 73 1;
#X connect 75 0 119 3;
#X connect 76 0 120 3;
#X connect 77 0 15 1;
#X connect 78 0 23 0;
#X connect 78 1 24 0;
#X connect 79 0 22 0;
#X connect 79 1 62 0;
#X connect 79 2 80 0;
#X connect 79 3 81 0;
#X connect 80 0 86 0;
#X connect 81 0 87 0;
#X connect 82 0 84 0;
#X connect 83 0 85 0;
#X connect 84 0 68 0;
#X connect 85 0 14 0;
#X connect 88 0 89 0;
#X connect 89 0 84 1;
#X connect 90 0 91 0;
#X connect 91 0 85 1;
#X connect 93 0 94 0;
#X connect 95 0 30 1;
#X connect 96 0 12 1;
#X connect 99 0 100 0;
#X connect 99 1 100 1;
#X connect 101 0 102 0;
#X connect 103 0 104 0;
#X connect 104 0 29 0;
#X connect 104 0 10 0;
#X connect 105 0 51 0;
#X connect 105 0 55 0;
#X connect 105 0 110 0;
#X connect 106 0 118 0;
#X connect 107 0 108 0;
#X connect 108 0 77 0;
#X connect 109 0 13 2;
#X connect 109 0 38 2;
#X connect 109 0 36 2;
#X connect 109 0 65 2;
#X connect 110 0 71 0;
#X connect 111 0 113 1;
#X connect 112 0 114 1;
#X connect 113 1 78 0;
#X connect 114 1 3 0;
#X connect 116 0 111 0;
#X connect 117 0 112 0;
#X connect 118 0 46 0;
#X connect 119 0 116 0;
#X connect 120 0 117 0;
