#N canvas 0 38 1512 884 12;
#X msg 145 294 save \$1;
#X floatatom 145 271 5 1 8 0 - - - 0;
#X floatatom 205 271 5 1 8 0 - - - 0;
#X msg 205 294 recall \$1;
#X obj 438 392 16steprecallable, f 62;
#X obj 468 152 tgl 15 0 empty empty empty 17 7 0 10 #fcfcfc #000000
#000000 0 1;
#X floatatom 468 200 5 0 0 0 - - - 0;
#X floatatom 438 416 5 0 0 0 - - - 0;
#X obj 769 152 bng 15 250 50 0 empty empty empty 17 7 0 10 #fcfcfc
#000000 #000000;
#X obj 769 176 countrange 0 16;
#X obj 769 200 t f b, f 8;
#X obj 769 272 pack f f;
#X obj 822 224 random 1000;
#X obj 822 248 / 1000;
#X obj 438 463 quantizedmode ionian 60;
#X obj 438 487 mtof;
#X obj 438 511 osc~;
#X obj 881 392 16steprecallable, f 62;
#X obj 468 223 t f f;
#X obj 881 440 sel 1;
#X obj 881 416 > 0.4;
#X obj 438 583 *~;
#X obj 438 607 out~;
#X obj 881 464 bng 15 250 50 0 empty empty empty 17 7 0 10 #fcfcfc
#000000 #000000;
#X obj 456 559 *~;
#X obj 769 296 route 0 1 2 3 4 5 6 7 8 9 10 11 12 13 14 15;
#X obj 456 535 ahdsr~ 20 10 100 0.3 50;
#X obj 599 112 t b b;
#X obj 599 88 loadbang;
#X text 770 126 v bang to generate a new pattern;
#X text 81 243 type 1-8 inclusive to save/recall patterns;
#X obj 438 439 scaled 0 1 48 97;
#X obj 468 176 metronome 80 8;
#X connect 0 0 4 17;
#X connect 0 0 17 17;
#X connect 1 0 0 0;
#X connect 2 0 3 0;
#X connect 3 0 4 17;
#X connect 3 0 17 17;
#X connect 4 0 7 0;
#X connect 5 0 32 0;
#X connect 6 0 18 0;
#X connect 7 0 31 0;
#X connect 8 0 9 0;
#X connect 9 0 10 0;
#X connect 10 0 11 0;
#X connect 10 1 12 0;
#X connect 11 0 25 0;
#X connect 12 0 13 0;
#X connect 13 0 11 1;
#X connect 14 0 15 0;
#X connect 15 0 16 0;
#X connect 16 0 21 0;
#X connect 17 0 20 0;
#X connect 18 0 17 0;
#X connect 18 1 4 0;
#X connect 19 0 23 0;
#X connect 20 0 19 0;
#X connect 21 0 22 0;
#X connect 21 0 22 1;
#X connect 23 0 26 0;
#X connect 24 0 21 1;
#X connect 25 0 4 1;
#X connect 25 0 17 1;
#X connect 25 1 4 2;
#X connect 25 1 17 2;
#X connect 25 2 4 3;
#X connect 25 2 17 3;
#X connect 25 3 4 4;
#X connect 25 3 17 4;
#X connect 25 4 4 5;
#X connect 25 4 17 5;
#X connect 25 5 4 6;
#X connect 25 5 17 6;
#X connect 25 6 4 7;
#X connect 25 6 17 7;
#X connect 25 7 4 8;
#X connect 25 7 17 8;
#X connect 25 8 4 9;
#X connect 25 8 17 9;
#X connect 25 9 4 10;
#X connect 25 9 17 10;
#X connect 25 10 4 11;
#X connect 25 10 17 11;
#X connect 25 11 4 12;
#X connect 25 11 17 12;
#X connect 25 12 4 13;
#X connect 25 12 17 13;
#X connect 25 13 4 14;
#X connect 25 13 17 14;
#X connect 25 14 4 15;
#X connect 25 14 17 15;
#X connect 25 15 4 16;
#X connect 25 15 17 16;
#X connect 26 0 24 0;
#X connect 26 0 24 1;
#X connect 27 0 5 0;
#X connect 27 1 8 0;
#X connect 28 0 27 0;
#X connect 31 0 14 0;
#X connect 32 0 6 0;
