#N canvas 0 38 1512 884 12;
#X obj 93 166 s step;
#X obj 92 30 midiclockin;
#X obj 92 54 bng 15 250 50 0 empty empty empty 17 7 0 10 #fcfcfc #000000
#000000;
#X obj 1318 39 ff;
#N canvas 218 274 1165 433 generate-pitches 0;
#X obj 283 308 sel 1;
#X obj 283 284 >;
#N canvas 63 101 450 300 quantize 0;
#X obj 81 102 ftom;
#X obj 81 54 inlet;
#X obj 81 238 outlet;
#X obj 81 78 scaled 0 1 50 200;
#X obj 81 126 quantizedmode aeolian 60;
#X connect 0 0 4 0;
#X connect 1 0 3 0;
#X connect 3 0 0 0;
#X connect 4 0 2 0;
#X restore 47 220 pd quantize;
#X obj 47 288 spigot;
#N canvas 92 130 149 132 lock-pitches 0;
#X obj 19 24 r lock-l-pitches;
#X obj 19 48 sel 0 1, f 9;
#X msg 19 72 1;
#X msg 49 72 0;
#X obj 19 96 outlet;
#X obj 102 51 loadbang;
#X connect 0 0 1 0;
#X connect 1 0 2 0;
#X connect 1 1 3 0;
#X connect 2 0 4 0;
#X connect 3 0 4 0;
#X connect 5 0 2 0;
#X restore 86 244 pd lock-pitches;
#X obj 86 268 tgl 15 0 empty empty empty 17 7 0 10 #fcfcfc #000000
#000000 0 1;
#X obj 47 332 spigot;
#X obj 86 312 tgl 15 0 empty empty empty 17 7 0 10 #fcfcfc #000000
#000000 0 1;
#X msg 283 332 1;
#X msg 315 332 0;
#X obj 47 380 makenote 127 50;
#X obj 183 112 inlet;
#X obj 47 404 outlet;
#X obj 143 404 outlet;
#X obj 480 111 inlet;
#X obj 299 105 inlet;
#X obj 183 136 tgl 15 0 empty empty empty 17 7 0 10 #fcfcfc #000000
#000000 0 1;
#X obj 299 155 msphsl 0 1;
#X text 166 89 generate?;
#X text 295 83 density;
#X text 473 88 save/recall;
#X obj 299 129 oneminus;
#X obj 541 256 generative16step 100 800;
#X text 371 232 density;
#X text 116 167 pitches;
#X text 544 201 velocity;
#X obj 761 257 generative16step 100 800;
#X text 759 208 duration;
#X obj 761 281 scaled 0 1 20 300;
#X obj 656 115 r step;
#X obj 656 139 t f f f f;
#X obj 541 280 scaled 0 1 50 127;
#X obj 413 319 t b f;
#X obj 413 343 *;
#X obj 283 260 generative16step 100 800;
#X obj 47 196 generative16step 100 800;
#X obj 413 295 scaled 0 1 0.2 1;
#X obj 1038 120 inlet;
#X obj 47 356 maybe;
#X connect 0 0 8 0;
#X connect 0 1 9 0;
#X connect 1 0 0 0;
#X connect 2 0 3 0;
#X connect 3 0 6 0;
#X connect 4 0 5 0;
#X connect 5 0 3 1;
#X connect 6 0 38 0;
#X connect 7 0 6 1;
#X connect 8 0 7 0;
#X connect 9 0 7 0;
#X connect 10 0 12 0;
#X connect 10 1 13 0;
#X connect 11 0 16 0;
#X connect 14 0 22 2;
#X connect 14 0 26 2;
#X connect 14 0 34 2;
#X connect 14 0 35 2;
#X connect 15 0 21 0;
#X connect 15 0 36 0;
#X connect 16 0 22 1;
#X connect 16 0 26 1;
#X connect 16 0 34 1;
#X connect 16 0 35 1;
#X connect 17 0 1 1;
#X connect 21 0 17 0;
#X connect 22 0 31 0;
#X connect 26 0 28 0;
#X connect 28 0 10 2;
#X connect 29 0 30 0;
#X connect 30 0 35 0;
#X connect 30 1 22 0;
#X connect 30 2 26 0;
#X connect 30 3 34 0;
#X connect 31 0 33 0;
#X connect 32 0 33 0;
#X connect 32 1 33 1;
#X connect 33 0 10 1;
#X connect 34 0 1 0;
#X connect 35 0 2 0;
#X connect 36 0 32 0;
#X connect 37 0 38 1;
#X connect 38 0 10 0;
#X restore 89 389 pd generate-pitches;
#X obj 168 248 r ffs1;
#N canvas 63 101 450 369 recall 0;
#X obj 192 53 r ffb8;
#X obj 192 77 tgl 15 0 empty empty empty 17 7 0 10 #fcfcfc #000000
#000000 0 1;
#X obj 149 246 spigot, f 10;
#X obj 149 270 tgl 15 0 empty empty empty 17 7 0 10 #fcfcfc #000000
#000000 0 1;
#X obj 137 78 tgl 15 0 empty empty empty 17 7 0 10 #fcfcfc #000000
#000000 0 1;
#X obj 218 227 tgl 15 0 empty empty empty 17 7 0 10 #fcfcfc #000000
#000000 0 1;
#X msg 225 147 0;
#X msg 192 145 0;
#X obj 192 121 t b b;
#X msg 207 187 1;
#X obj 192 97 sel 1 0;
#X obj 132 51 inlet;
#X obj 149 290 sel 1;
#X obj 149 314 bng 15 250 50 0 empty empty empty 17 7 0 10 #fcfcfc
#000000 #000000;
#X obj 149 338 outlet;
#X connect 0 0 1 0;
#X connect 1 0 10 0;
#X connect 2 0 3 0;
#X connect 3 0 12 0;
#X connect 4 0 2 0;
#X connect 5 0 2 1;
#X connect 6 0 5 0;
#X connect 7 0 3 0;
#X connect 8 0 7 0;
#X connect 8 1 6 0;
#X connect 9 0 5 0;
#X connect 10 0 8 0;
#X connect 10 1 9 0;
#X connect 11 0 4 0;
#X connect 12 0 13 0;
#X connect 13 0 14 0;
#X restore 88 277 pd recall;
#X obj 87 250 r ffb1;
#N canvas 92 130 450 300 generate 0;
#X obj 153 33 r ffb8;
#X obj 153 57 tgl 15 0 empty empty empty 17 7 0 10 #fcfcfc #000000
#000000 0 1;
#X obj 110 226 spigot, f 10;
#X obj 110 250 tgl 15 0 empty empty empty 17 7 0 10 #fcfcfc #000000
#000000 0 1;
#X obj 153 77 sel 0 1;
#X obj 98 58 tgl 15 0 empty empty empty 17 7 0 10 #fcfcfc #000000 #000000
0 1;
#X obj 179 207 tgl 15 0 empty empty empty 17 7 0 10 #fcfcfc #000000
#000000 0 1;
#X msg 186 127 0;
#X msg 153 125 0;
#X obj 153 101 t b b;
#X msg 168 167 1;
#X obj 98 34 inlet;
#X obj 110 270 outlet;
#X connect 0 0 1 0;
#X connect 1 0 4 0;
#X connect 2 0 3 0;
#X connect 3 0 12 0;
#X connect 4 0 9 0;
#X connect 4 1 10 0;
#X connect 5 0 2 0;
#X connect 6 0 2 1;
#X connect 7 0 6 0;
#X connect 8 0 3 0;
#X connect 9 0 8 0;
#X connect 9 1 7 0;
#X connect 10 0 6 0;
#X connect 11 0 5 0;
#X restore 46 352 pd generate;
#X obj 46 376 tgl 15 0 empty empty empty 17 7 0 10 #fcfcfc #000000
#000000 0 1;
#X obj 88 301 bng 15 250 50 0 empty empty empty 17 7 0 10 #fcfcfc #000000
#000000;
#X obj 222 242 r ffkb1;
#X obj 222 266 sel 1;
#X obj 222 290 bng 15 250 50 0 empty empty empty 17 7 0 10 #fcfcfc
#000000 #000000;
#X msg 222 310 save 1;
#X msg 88 321 recall 1;
#N canvas 63 101 450 369 recall 0;
#X obj 192 53 r ffb8;
#X obj 192 77 tgl 15 0 empty empty empty 17 7 0 10 #fcfcfc #000000
#000000 0 1;
#X obj 149 246 spigot, f 10;
#X obj 149 270 tgl 15 0 empty empty empty 17 7 0 10 #fcfcfc #000000
#000000 0 1;
#X obj 137 78 tgl 15 0 empty empty empty 17 7 0 10 #fcfcfc #000000
#000000 0 1;
#X obj 218 227 tgl 15 0 empty empty empty 17 7 0 10 #fcfcfc #000000
#000000 0 1;
#X msg 225 147 0;
#X msg 192 145 0;
#X obj 192 121 t b b;
#X msg 207 187 1;
#X obj 192 97 sel 1 0;
#X obj 132 51 inlet;
#X obj 149 290 sel 1;
#X obj 149 314 bng 15 250 50 0 empty empty empty 17 7 0 10 #fcfcfc
#000000 #000000;
#X obj 149 338 outlet;
#X connect 0 0 1 0;
#X connect 1 0 10 0;
#X connect 2 0 3 0;
#X connect 3 0 12 0;
#X connect 4 0 2 0;
#X connect 5 0 2 1;
#X connect 6 0 5 0;
#X connect 7 0 3 0;
#X connect 8 0 7 0;
#X connect 8 1 6 0;
#X connect 9 0 5 0;
#X connect 10 0 8 0;
#X connect 10 1 9 0;
#X connect 11 0 4 0;
#X connect 12 0 13 0;
#X connect 13 0 14 0;
#X restore 357 280 pd recall;
#N canvas 92 130 450 300 generate 0;
#X obj 153 33 r ffb8;
#X obj 153 57 tgl 15 0 empty empty empty 17 7 0 10 #fcfcfc #000000
#000000 0 1;
#X obj 110 226 spigot, f 10;
#X obj 110 250 tgl 15 0 empty empty empty 17 7 0 10 #fcfcfc #000000
#000000 0 1;
#X obj 153 77 sel 0 1;
#X obj 98 58 tgl 15 0 empty empty empty 17 7 0 10 #fcfcfc #000000 #000000
0 1;
#X obj 179 207 tgl 15 0 empty empty empty 17 7 0 10 #fcfcfc #000000
#000000 0 1;
#X msg 186 127 0;
#X msg 153 125 0;
#X obj 153 101 t b b;
#X msg 168 167 1;
#X obj 98 34 inlet;
#X obj 110 270 outlet;
#X connect 0 0 1 0;
#X connect 1 0 4 0;
#X connect 2 0 3 0;
#X connect 3 0 12 0;
#X connect 4 0 9 0;
#X connect 4 1 10 0;
#X connect 5 0 2 0;
#X connect 6 0 2 1;
#X connect 7 0 6 0;
#X connect 8 0 3 0;
#X connect 9 0 8 0;
#X connect 9 1 7 0;
#X connect 10 0 6 0;
#X connect 11 0 5 0;
#X restore 315 355 pd generate;
#X obj 315 379 tgl 15 0 empty empty empty 17 7 0 10 #fcfcfc #000000
#000000 0 1;
#X obj 357 304 bng 15 250 50 0 empty empty empty 17 7 0 10 #fcfcfc
#000000 #000000;
#X obj 491 269 sel 1;
#X obj 491 293 bng 15 250 50 0 empty empty empty 17 7 0 10 #fcfcfc
#000000 #000000;
#X msg 491 313 save 1;
#X msg 357 324 recall 1;
#N canvas 63 101 450 369 recall 0;
#X obj 192 53 r ffb8;
#X obj 192 77 tgl 15 0 empty empty empty 17 7 0 10 #fcfcfc #000000
#000000 0 1;
#X obj 149 246 spigot, f 10;
#X obj 149 270 tgl 15 0 empty empty empty 17 7 0 10 #fcfcfc #000000
#000000 0 1;
#X obj 137 78 tgl 15 0 empty empty empty 17 7 0 10 #fcfcfc #000000
#000000 0 1;
#X obj 218 227 tgl 15 0 empty empty empty 17 7 0 10 #fcfcfc #000000
#000000 0 1;
#X msg 225 147 0;
#X msg 192 145 0;
#X obj 192 121 t b b;
#X msg 207 187 1;
#X obj 192 97 sel 1 0;
#X obj 132 51 inlet;
#X obj 149 290 sel 1;
#X obj 149 314 bng 15 250 50 0 empty empty empty 17 7 0 10 #fcfcfc
#000000 #000000;
#X obj 149 338 outlet;
#X connect 0 0 1 0;
#X connect 1 0 10 0;
#X connect 2 0 3 0;
#X connect 3 0 12 0;
#X connect 4 0 2 0;
#X connect 5 0 2 1;
#X connect 6 0 5 0;
#X connect 7 0 3 0;
#X connect 8 0 7 0;
#X connect 8 1 6 0;
#X connect 9 0 5 0;
#X connect 10 0 8 0;
#X connect 10 1 9 0;
#X connect 11 0 4 0;
#X connect 12 0 13 0;
#X connect 13 0 14 0;
#X restore 638 284 pd recall;
#N canvas 92 130 450 300 generate 0;
#X obj 153 33 r ffb8;
#X obj 153 57 tgl 15 0 empty empty empty 17 7 0 10 #fcfcfc #000000
#000000 0 1;
#X obj 110 226 spigot, f 10;
#X obj 110 250 tgl 15 0 empty empty empty 17 7 0 10 #fcfcfc #000000
#000000 0 1;
#X obj 153 77 sel 0 1;
#X obj 98 58 tgl 15 0 empty empty empty 17 7 0 10 #fcfcfc #000000 #000000
0 1;
#X obj 179 207 tgl 15 0 empty empty empty 17 7 0 10 #fcfcfc #000000
#000000 0 1;
#X msg 186 127 0;
#X msg 153 125 0;
#X obj 153 101 t b b;
#X msg 168 167 1;
#X obj 98 34 inlet;
#X obj 110 270 outlet;
#X connect 0 0 1 0;
#X connect 1 0 4 0;
#X connect 2 0 3 0;
#X connect 3 0 12 0;
#X connect 4 0 9 0;
#X connect 4 1 10 0;
#X connect 5 0 2 0;
#X connect 6 0 2 1;
#X connect 7 0 6 0;
#X connect 8 0 3 0;
#X connect 9 0 8 0;
#X connect 9 1 7 0;
#X connect 10 0 6 0;
#X connect 11 0 5 0;
#X restore 596 359 pd generate;
#X obj 596 383 tgl 15 0 empty empty empty 17 7 0 10 #fcfcfc #000000
#000000 0 1;
#X obj 638 308 bng 15 250 50 0 empty empty empty 17 7 0 10 #fcfcfc
#000000 #000000;
#X obj 772 273 sel 1;
#X obj 772 297 bng 15 250 50 0 empty empty empty 17 7 0 10 #fcfcfc
#000000 #000000;
#X msg 772 317 save 1;
#X msg 638 328 recall 1;
#N canvas 63 101 450 369 recall 0;
#X obj 192 53 r ffb8;
#X obj 192 77 tgl 15 0 empty empty empty 17 7 0 10 #fcfcfc #000000
#000000 0 1;
#X obj 149 246 spigot, f 10;
#X obj 149 270 tgl 15 0 empty empty empty 17 7 0 10 #fcfcfc #000000
#000000 0 1;
#X obj 137 78 tgl 15 0 empty empty empty 17 7 0 10 #fcfcfc #000000
#000000 0 1;
#X obj 218 227 tgl 15 0 empty empty empty 17 7 0 10 #fcfcfc #000000
#000000 0 1;
#X msg 225 147 0;
#X msg 192 145 0;
#X obj 192 121 t b b;
#X msg 207 187 1;
#X obj 192 97 sel 1 0;
#X obj 132 51 inlet;
#X obj 149 290 sel 1;
#X obj 149 314 bng 15 250 50 0 empty empty empty 17 7 0 10 #fcfcfc
#000000 #000000;
#X obj 149 338 outlet;
#X connect 0 0 1 0;
#X connect 1 0 10 0;
#X connect 2 0 3 0;
#X connect 3 0 12 0;
#X connect 4 0 2 0;
#X connect 5 0 2 1;
#X connect 6 0 5 0;
#X connect 7 0 3 0;
#X connect 8 0 7 0;
#X connect 8 1 6 0;
#X connect 9 0 5 0;
#X connect 10 0 8 0;
#X connect 10 1 9 0;
#X connect 11 0 4 0;
#X connect 12 0 13 0;
#X connect 13 0 14 0;
#X restore 914 278 pd recall;
#N canvas 92 130 450 300 generate 0;
#X obj 153 33 r ffb8;
#X obj 153 57 tgl 15 0 empty empty empty 17 7 0 10 #fcfcfc #000000
#000000 0 1;
#X obj 110 226 spigot, f 10;
#X obj 110 250 tgl 15 0 empty empty empty 17 7 0 10 #fcfcfc #000000
#000000 0 1;
#X obj 153 77 sel 0 1;
#X obj 98 58 tgl 15 0 empty empty empty 17 7 0 10 #fcfcfc #000000 #000000
0 1;
#X obj 179 207 tgl 15 0 empty empty empty 17 7 0 10 #fcfcfc #000000
#000000 0 1;
#X msg 186 127 0;
#X msg 153 125 0;
#X obj 153 101 t b b;
#X msg 168 167 1;
#X obj 98 34 inlet;
#X obj 110 270 outlet;
#X connect 0 0 1 0;
#X connect 1 0 4 0;
#X connect 2 0 3 0;
#X connect 3 0 12 0;
#X connect 4 0 9 0;
#X connect 4 1 10 0;
#X connect 5 0 2 0;
#X connect 6 0 2 1;
#X connect 7 0 6 0;
#X connect 8 0 3 0;
#X connect 9 0 8 0;
#X connect 9 1 7 0;
#X connect 10 0 6 0;
#X connect 11 0 5 0;
#X restore 872 353 pd generate;
#X obj 872 377 tgl 15 0 empty empty empty 17 7 0 10 #fcfcfc #000000
#000000 0 1;
#X obj 914 302 bng 15 250 50 0 empty empty empty 17 7 0 10 #fcfcfc
#000000 #000000;
#X obj 1048 267 sel 1;
#X obj 1048 291 bng 15 250 50 0 empty empty empty 17 7 0 10 #fcfcfc
#000000 #000000;
#X msg 1048 311 save 1;
#X msg 914 322 recall 1;
#X obj 356 253 r ffb2;
#X obj 437 251 r ffs2;
#X obj 491 245 r ffkb2;
#X obj 637 257 r ffb3;
#X obj 718 255 r ffs3;
#X obj 772 249 r ffkb3;
#X obj 913 251 r ffb4;
#X obj 994 249 r ffs4;
#X obj 1048 243 r ffkb4;
#X obj 89 413 miniloguexd;
#X obj 269 35 tgl 15 0 empty empty empty 17 7 0 10 #fcfcfc #000000
#000000 0 1;
#X obj 269 59 metro 250;
#N canvas 218 274 946 433 generate-pitches 0;
#X obj 283 308 sel 1;
#X obj 283 284 >;
#N canvas 63 101 450 300 quantize 0;
#X obj 81 102 ftom;
#X obj 81 54 inlet;
#X obj 81 238 outlet;
#X obj 81 78 scaled 0 1 200 400;
#X obj 81 126 quantizedmode aeolian 60;
#X connect 0 0 4 0;
#X connect 1 0 3 0;
#X connect 3 0 0 0;
#X connect 4 0 2 0;
#X restore 47 220 pd quantize;
#X obj 47 288 spigot;
#N canvas 92 130 149 132 lock-pitches 0;
#X obj 19 24 r lock-l-pitches;
#X obj 19 48 sel 0 1, f 9;
#X msg 19 72 1;
#X msg 49 72 0;
#X obj 19 96 outlet;
#X obj 102 51 loadbang;
#X connect 0 0 1 0;
#X connect 1 0 2 0;
#X connect 1 1 3 0;
#X connect 2 0 4 0;
#X connect 3 0 4 0;
#X connect 5 0 2 0;
#X restore 86 244 pd lock-pitches;
#X obj 86 268 tgl 15 0 empty empty empty 17 7 0 10 #fcfcfc #000000
#000000 0 1;
#X obj 47 332 spigot;
#X obj 86 312 tgl 15 0 empty empty empty 17 7 0 10 #fcfcfc #000000
#000000 0 1;
#X msg 283 332 1;
#X msg 315 332 0;
#X obj 47 386 makenote 127 50;
#X obj 183 112 inlet;
#X obj 47 410 outlet;
#X obj 143 410 outlet;
#X obj 480 111 inlet;
#X obj 299 105 inlet;
#X obj 183 136 tgl 15 0 empty empty empty 17 7 0 10 #fcfcfc #000000
#000000 0 1;
#X obj 299 155 msphsl 0 1;
#X text 166 89 generate?;
#X text 295 83 density;
#X text 473 88 save/recall;
#X obj 299 129 oneminus;
#X obj 541 256 generative16step 100 800;
#X text 371 232 density;
#X text 116 167 pitches;
#X text 544 201 velocity;
#X obj 761 257 generative16step 100 800;
#X text 759 208 duration;
#X obj 761 281 scaled 0 1 20 300;
#X obj 656 115 r step;
#X obj 656 139 t f f f f;
#X obj 541 280 scaled 0 1 50 127;
#X obj 413 319 t b f;
#X obj 413 343 *;
#X obj 283 260 generative16step 100 800;
#X obj 47 196 generative16step 100 800;
#X obj 413 295 scaled 0 1 0.2 1;
#X obj 853 116 inlet;
#X obj 47 356 maybe;
#X connect 0 0 8 0;
#X connect 0 1 9 0;
#X connect 1 0 0 0;
#X connect 2 0 3 0;
#X connect 3 0 6 0;
#X connect 4 0 5 0;
#X connect 5 0 3 1;
#X connect 6 0 38 0;
#X connect 7 0 6 1;
#X connect 8 0 7 0;
#X connect 9 0 7 0;
#X connect 10 0 12 0;
#X connect 10 1 13 0;
#X connect 11 0 16 0;
#X connect 14 0 22 2;
#X connect 14 0 26 2;
#X connect 14 0 34 2;
#X connect 14 0 35 2;
#X connect 15 0 21 0;
#X connect 15 0 36 0;
#X connect 16 0 22 1;
#X connect 16 0 26 1;
#X connect 16 0 34 1;
#X connect 16 0 35 1;
#X connect 17 0 1 1;
#X connect 21 0 17 0;
#X connect 22 0 31 0;
#X connect 26 0 28 0;
#X connect 28 0 10 2;
#X connect 29 0 30 0;
#X connect 30 0 35 0;
#X connect 30 1 22 0;
#X connect 30 2 26 0;
#X connect 30 3 34 0;
#X connect 31 0 33 0;
#X connect 32 0 33 0;
#X connect 32 1 33 1;
#X connect 33 0 10 1;
#X connect 34 0 1 0;
#X connect 35 0 2 0;
#X connect 36 0 32 0;
#X connect 37 0 38 1;
#X connect 38 0 10 0;
#X restore 339 389 pd generate-pitches;
#N canvas 218 274 946 433 generate-pitches 0;
#X obj 283 308 sel 1;
#X obj 283 284 >;
#N canvas 63 101 450 300 quantize 0;
#X obj 81 102 ftom;
#X obj 81 54 inlet;
#X obj 81 238 outlet;
#X obj 81 78 scaled 0 1 400 800;
#X obj 81 126 quantizedmode aeolian 60;
#X connect 0 0 4 0;
#X connect 1 0 3 0;
#X connect 3 0 0 0;
#X connect 4 0 2 0;
#X restore 47 220 pd quantize;
#X obj 47 288 spigot;
#N canvas 92 130 149 132 lock-pitches 0;
#X obj 19 24 r lock-l-pitches;
#X obj 19 48 sel 0 1, f 9;
#X msg 19 72 1;
#X msg 49 72 0;
#X obj 19 96 outlet;
#X obj 102 51 loadbang;
#X connect 0 0 1 0;
#X connect 1 0 2 0;
#X connect 1 1 3 0;
#X connect 2 0 4 0;
#X connect 3 0 4 0;
#X connect 5 0 2 0;
#X restore 86 244 pd lock-pitches;
#X obj 86 268 tgl 15 0 empty empty empty 17 7 0 10 #fcfcfc #000000
#000000 0 1;
#X obj 47 332 spigot;
#X obj 86 312 tgl 15 0 empty empty empty 17 7 0 10 #fcfcfc #000000
#000000 0 1;
#X msg 283 332 1;
#X msg 315 332 0;
#X obj 47 396 makenote 127 50;
#X obj 183 112 inlet;
#X obj 47 420 outlet;
#X obj 143 420 outlet;
#X obj 480 111 inlet;
#X obj 299 105 inlet;
#X obj 183 136 tgl 15 0 empty empty empty 17 7 0 10 #fcfcfc #000000
#000000 0 1;
#X obj 299 155 msphsl 0 1;
#X text 166 89 generate?;
#X text 295 83 density;
#X text 473 88 save/recall;
#X obj 299 129 oneminus;
#X text 371 232 density;
#X text 116 167 pitches;
#X text 544 201 velocity;
#X obj 761 257 generative16step 100 800;
#X text 759 208 duration;
#X obj 761 281 scaled 0 1 20 300;
#X obj 656 115 r step;
#X obj 656 139 t f f f f;
#X obj 541 280 scaled 0 1 50 127;
#X obj 413 319 t b f;
#X obj 413 343 *;
#X obj 47 196 generative16step 100 800;
#X obj 283 260 generative16step 100 800;
#X obj 541 256 generative16step 100 800;
#X obj 413 295 scaled 0 1 0.2 1;
#X obj 47 356 maybe;
#X obj 808 108 inlet;
#X connect 0 0 8 0;
#X connect 0 1 9 0;
#X connect 1 0 0 0;
#X connect 2 0 3 0;
#X connect 3 0 6 0;
#X connect 4 0 5 0;
#X connect 5 0 3 1;
#X connect 6 0 37 0;
#X connect 7 0 6 1;
#X connect 8 0 7 0;
#X connect 9 0 7 0;
#X connect 10 0 12 0;
#X connect 10 1 13 0;
#X connect 11 0 16 0;
#X connect 14 0 25 2;
#X connect 14 0 33 2;
#X connect 14 0 34 2;
#X connect 14 0 35 2;
#X connect 15 0 21 0;
#X connect 15 0 36 0;
#X connect 16 0 25 1;
#X connect 16 0 33 1;
#X connect 16 0 34 1;
#X connect 16 0 35 1;
#X connect 17 0 1 1;
#X connect 21 0 17 0;
#X connect 25 0 27 0;
#X connect 27 0 10 2;
#X connect 28 0 29 0;
#X connect 29 0 33 0;
#X connect 29 1 35 0;
#X connect 29 2 25 0;
#X connect 29 3 34 0;
#X connect 30 0 32 0;
#X connect 31 0 32 0;
#X connect 31 1 32 1;
#X connect 32 0 10 1;
#X connect 33 0 2 0;
#X connect 34 0 1 0;
#X connect 35 0 30 0;
#X connect 36 0 31 0;
#X connect 37 0 10 0;
#X connect 38 0 37 1;
#X restore 639 389 pd generate-pitches;
#N canvas 218 274 946 433 generate-pitches 0;
#X obj 283 308 sel 1;
#X obj 283 284 >;
#N canvas 63 101 450 300 quantize 0;
#X obj 81 102 ftom;
#X obj 81 54 inlet;
#X obj 81 238 outlet;
#X obj 81 78 scaled 0 1 800 1200;
#X obj 81 126 quantizedmode aeolian 60;
#X connect 0 0 4 0;
#X connect 1 0 3 0;
#X connect 3 0 0 0;
#X connect 4 0 2 0;
#X restore 47 220 pd quantize;
#X obj 47 288 spigot;
#N canvas 92 130 149 132 lock-pitches 0;
#X obj 19 24 r lock-l-pitches;
#X obj 19 48 sel 0 1, f 9;
#X msg 19 72 1;
#X msg 49 72 0;
#X obj 19 96 outlet;
#X obj 102 51 loadbang;
#X connect 0 0 1 0;
#X connect 1 0 2 0;
#X connect 1 1 3 0;
#X connect 2 0 4 0;
#X connect 3 0 4 0;
#X connect 5 0 2 0;
#X restore 86 244 pd lock-pitches;
#X obj 86 268 tgl 15 0 empty empty empty 17 7 0 10 #fcfcfc #000000
#000000 0 1;
#X obj 47 332 spigot;
#X obj 86 312 tgl 15 0 empty empty empty 17 7 0 10 #fcfcfc #000000
#000000 0 1;
#X msg 283 332 1;
#X msg 315 332 0;
#X obj 47 396 makenote 127 50;
#X obj 183 112 inlet;
#X obj 47 420 outlet;
#X obj 143 420 outlet;
#X obj 480 111 inlet;
#X obj 299 105 inlet;
#X obj 183 136 tgl 15 0 empty empty empty 17 7 0 10 #fcfcfc #000000
#000000 0 1;
#X obj 299 155 msphsl 0 1;
#X text 166 89 generate?;
#X text 295 83 density;
#X text 473 88 save/recall;
#X obj 299 129 oneminus;
#X obj 541 256 generative16step 100 800;
#X obj 541 280 scaled 0 1 0 127;
#X text 371 232 density;
#X text 116 167 pitches;
#X text 544 201 velocity;
#X obj 761 257 generative16step 100 800;
#X text 759 208 duration;
#X obj 761 281 scaled 0 1 20 300;
#X obj 656 115 r step;
#X obj 656 139 t f f f f;
#X obj 413 319 t b f;
#X obj 413 343 *;
#X obj 47 196 generative16step 100 800;
#X obj 283 260 generative16step 100 800;
#X obj 413 295 scaled 0 1 0.2 1;
#X obj 817 99 inlet;
#X obj 47 356 maybe;
#X connect 0 0 8 0;
#X connect 0 1 9 0;
#X connect 1 0 0 0;
#X connect 2 0 3 0;
#X connect 3 0 6 0;
#X connect 4 0 5 0;
#X connect 5 0 3 1;
#X connect 6 0 38 0;
#X connect 7 0 6 1;
#X connect 8 0 7 0;
#X connect 9 0 7 0;
#X connect 10 0 12 0;
#X connect 10 1 13 0;
#X connect 11 0 16 0;
#X connect 14 0 22 2;
#X connect 14 0 27 2;
#X connect 14 0 34 2;
#X connect 14 0 35 2;
#X connect 15 0 21 0;
#X connect 15 0 36 0;
#X connect 16 0 22 1;
#X connect 16 0 27 1;
#X connect 16 0 34 1;
#X connect 16 0 35 1;
#X connect 17 0 1 1;
#X connect 21 0 17 0;
#X connect 22 0 23 0;
#X connect 23 0 33 0;
#X connect 27 0 29 0;
#X connect 29 0 10 2;
#X connect 30 0 31 0;
#X connect 31 0 34 0;
#X connect 31 1 22 0;
#X connect 31 2 27 0;
#X connect 31 3 35 0;
#X connect 32 0 33 0;
#X connect 32 1 33 1;
#X connect 33 0 10 1;
#X connect 34 0 2 0;
#X connect 35 0 1 0;
#X connect 36 0 32 0;
#X connect 37 0 38 1;
#X connect 38 0 10 0;
#X restore 919 389 pd generate-pitches;
#X obj 339 413 miniloguexd;
#X obj 639 413 miniloguexd;
#X obj 919 413 miniloguexd;
#N canvas 63 101 450 369 recall 0;
#X obj 192 53 r ffb8;
#X obj 192 77 tgl 15 0 empty empty empty 17 7 0 10 #fcfcfc #000000
#000000 0 1;
#X obj 149 246 spigot, f 10;
#X obj 149 270 tgl 15 0 empty empty empty 17 7 0 10 #fcfcfc #000000
#000000 0 1;
#X obj 137 78 tgl 15 0 empty empty empty 17 7 0 10 #fcfcfc #000000
#000000 0 1;
#X obj 218 227 tgl 15 0 empty empty empty 17 7 0 10 #fcfcfc #000000
#000000 0 1;
#X msg 225 147 0;
#X msg 192 145 0;
#X obj 192 121 t b b;
#X msg 207 187 1;
#X obj 192 97 sel 1 0;
#X obj 132 51 inlet;
#X obj 149 290 sel 1;
#X obj 149 314 bng 15 250 50 0 empty empty empty 17 7 0 10 #fcfcfc
#000000 #000000;
#X obj 149 338 outlet;
#X connect 0 0 1 0;
#X connect 1 0 10 0;
#X connect 2 0 3 0;
#X connect 3 0 12 0;
#X connect 4 0 2 0;
#X connect 5 0 2 1;
#X connect 6 0 5 0;
#X connect 7 0 3 0;
#X connect 8 0 7 0;
#X connect 8 1 6 0;
#X connect 9 0 5 0;
#X connect 10 0 8 0;
#X connect 10 1 9 0;
#X connect 11 0 4 0;
#X connect 12 0 13 0;
#X connect 13 0 14 0;
#X restore 626 533 pd recall;
#N canvas 92 130 450 300 generate 0;
#X obj 153 33 r ffb8;
#X obj 153 57 tgl 15 0 empty empty empty 17 7 0 10 #fcfcfc #000000
#000000 0 1;
#X obj 110 226 spigot, f 10;
#X obj 110 250 tgl 15 0 empty empty empty 17 7 0 10 #fcfcfc #000000
#000000 0 1;
#X obj 153 77 sel 0 1;
#X obj 98 58 tgl 15 0 empty empty empty 17 7 0 10 #fcfcfc #000000 #000000
0 1;
#X obj 179 207 tgl 15 0 empty empty empty 17 7 0 10 #fcfcfc #000000
#000000 0 1;
#X msg 186 127 0;
#X msg 153 125 0;
#X obj 153 101 t b b;
#X msg 168 167 1;
#X obj 98 34 inlet;
#X obj 110 270 outlet;
#X connect 0 0 1 0;
#X connect 1 0 4 0;
#X connect 2 0 3 0;
#X connect 3 0 12 0;
#X connect 4 0 9 0;
#X connect 4 1 10 0;
#X connect 5 0 2 0;
#X connect 6 0 2 1;
#X connect 7 0 6 0;
#X connect 8 0 3 0;
#X connect 9 0 8 0;
#X connect 9 1 7 0;
#X connect 10 0 6 0;
#X connect 11 0 5 0;
#X restore 584 608 pd generate;
#X obj 584 632 tgl 15 0 empty empty empty 17 7 0 10 #fcfcfc #000000
#000000 0 1;
#X obj 626 557 bng 15 250 50 0 empty empty empty 17 7 0 10 #fcfcfc
#000000 #000000;
#X obj 760 522 sel 1;
#X obj 760 546 bng 15 250 50 0 empty empty empty 17 7 0 10 #fcfcfc
#000000 #000000;
#X msg 760 566 save 1;
#X msg 626 577 recall 1;
#N canvas 63 101 450 369 recall 0;
#X obj 192 53 r ffb8;
#X obj 192 77 tgl 15 0 empty empty empty 17 7 0 10 #fcfcfc #000000
#000000 0 1;
#X obj 149 246 spigot, f 10;
#X obj 149 270 tgl 15 0 empty empty empty 17 7 0 10 #fcfcfc #000000
#000000 0 1;
#X obj 137 78 tgl 15 0 empty empty empty 17 7 0 10 #fcfcfc #000000
#000000 0 1;
#X obj 218 227 tgl 15 0 empty empty empty 17 7 0 10 #fcfcfc #000000
#000000 0 1;
#X msg 225 147 0;
#X msg 192 145 0;
#X obj 192 121 t b b;
#X msg 207 187 1;
#X obj 192 97 sel 1 0;
#X obj 132 51 inlet;
#X obj 149 290 sel 1;
#X obj 149 314 bng 15 250 50 0 empty empty empty 17 7 0 10 #fcfcfc
#000000 #000000;
#X obj 149 338 outlet;
#X connect 0 0 1 0;
#X connect 1 0 10 0;
#X connect 2 0 3 0;
#X connect 3 0 12 0;
#X connect 4 0 2 0;
#X connect 5 0 2 1;
#X connect 6 0 5 0;
#X connect 7 0 3 0;
#X connect 8 0 7 0;
#X connect 8 1 6 0;
#X connect 9 0 5 0;
#X connect 10 0 8 0;
#X connect 10 1 9 0;
#X connect 11 0 4 0;
#X connect 12 0 13 0;
#X connect 13 0 14 0;
#X restore 902 527 pd recall;
#N canvas 92 130 450 300 generate 0;
#X obj 153 33 r ffb8;
#X obj 153 57 tgl 15 0 empty empty empty 17 7 0 10 #fcfcfc #000000
#000000 0 1;
#X obj 110 226 spigot, f 10;
#X obj 110 250 tgl 15 0 empty empty empty 17 7 0 10 #fcfcfc #000000
#000000 0 1;
#X obj 153 77 sel 0 1;
#X obj 98 58 tgl 15 0 empty empty empty 17 7 0 10 #fcfcfc #000000 #000000
0 1;
#X obj 179 207 tgl 15 0 empty empty empty 17 7 0 10 #fcfcfc #000000
#000000 0 1;
#X msg 186 127 0;
#X msg 153 125 0;
#X obj 153 101 t b b;
#X msg 168 167 1;
#X obj 98 34 inlet;
#X obj 110 270 outlet;
#X connect 0 0 1 0;
#X connect 1 0 4 0;
#X connect 2 0 3 0;
#X connect 3 0 12 0;
#X connect 4 0 9 0;
#X connect 4 1 10 0;
#X connect 5 0 2 0;
#X connect 6 0 2 1;
#X connect 7 0 6 0;
#X connect 8 0 3 0;
#X connect 9 0 8 0;
#X connect 9 1 7 0;
#X connect 10 0 6 0;
#X connect 11 0 5 0;
#X restore 860 602 pd generate;
#X obj 860 626 tgl 15 0 empty empty empty 17 7 0 10 #fcfcfc #000000
#000000 0 1;
#X obj 902 551 bng 15 250 50 0 empty empty empty 17 7 0 10 #fcfcfc
#000000 #000000;
#X obj 1036 516 sel 1;
#X obj 1036 540 bng 15 250 50 0 empty empty empty 17 7 0 10 #fcfcfc
#000000 #000000;
#X msg 1036 560 save 1;
#X msg 902 571 recall 1;
#N canvas 218 274 946 433 generate-pitches 0;
#X obj 283 308 sel 1;
#X obj 283 284 >;
#N canvas 63 101 450 300 quantize 0;
#X obj 81 102 ftom;
#X obj 81 54 inlet;
#X obj 81 238 outlet;
#X obj 81 78 scaled 0 1 50 400;
#X obj 81 126 quantizedmode aeolian 60;
#X connect 0 0 4 0;
#X connect 1 0 3 0;
#X connect 3 0 0 0;
#X connect 4 0 2 0;
#X restore 47 220 pd quantize;
#X obj 47 288 spigot;
#N canvas 92 130 149 132 lock-pitches 0;
#X obj 19 24 r lock-l-pitches;
#X obj 19 48 sel 0 1, f 9;
#X msg 19 72 1;
#X msg 49 72 0;
#X obj 19 96 outlet;
#X obj 102 51 loadbang;
#X connect 0 0 1 0;
#X connect 1 0 2 0;
#X connect 1 1 3 0;
#X connect 2 0 4 0;
#X connect 3 0 4 0;
#X connect 5 0 2 0;
#X restore 86 244 pd lock-pitches;
#X obj 86 268 tgl 15 0 empty empty empty 17 7 0 10 #fcfcfc #000000
#000000 0 1;
#X obj 47 332 spigot;
#X obj 86 312 tgl 15 0 empty empty empty 17 7 0 10 #fcfcfc #000000
#000000 0 1;
#X msg 283 332 1;
#X msg 315 332 0;
#X obj 47 396 makenote 127 50;
#X obj 183 112 inlet;
#X obj 47 420 outlet;
#X obj 143 420 outlet;
#X obj 480 111 inlet;
#X obj 299 105 inlet;
#X obj 183 136 tgl 15 0 empty empty empty 17 7 0 10 #fcfcfc #000000
#000000 0 1;
#X obj 299 155 msphsl 0 1;
#X text 166 89 generate?;
#X text 295 83 density;
#X text 473 88 save/recall;
#X obj 299 129 oneminus;
#X obj 541 256 generative16step 100 800;
#X text 371 232 density;
#X text 116 167 pitches;
#X text 544 201 velocity;
#X obj 761 257 generative16step 100 800;
#X text 759 208 duration;
#X obj 761 281 scaled 0 1 20 300;
#X obj 656 115 r step;
#X obj 656 139 t f f f f;
#X obj 541 280 scaled 0 1 50 127;
#X obj 413 319 t b f;
#X obj 413 343 *;
#X obj 47 196 generative16step 100 800;
#X obj 283 260 generative16step 100 800;
#X obj 413 295 scaled 0 1 0.2 1;
#X obj 47 356 maybe;
#X obj 799 114 inlet;
#X connect 0 0 8 0;
#X connect 0 1 9 0;
#X connect 1 0 0 0;
#X connect 2 0 3 0;
#X connect 3 0 6 0;
#X connect 4 0 5 0;
#X connect 5 0 3 1;
#X connect 6 0 37 0;
#X connect 7 0 6 1;
#X connect 8 0 7 0;
#X connect 9 0 7 0;
#X connect 10 0 12 0;
#X connect 10 1 13 0;
#X connect 11 0 16 0;
#X connect 14 0 22 2;
#X connect 14 0 26 2;
#X connect 14 0 34 2;
#X connect 14 0 35 2;
#X connect 15 0 21 0;
#X connect 15 0 36 0;
#X connect 16 0 22 1;
#X connect 16 0 26 1;
#X connect 16 0 34 1;
#X connect 16 0 35 1;
#X connect 17 0 1 1;
#X connect 21 0 17 0;
#X connect 22 0 31 0;
#X connect 26 0 28 0;
#X connect 28 0 10 2;
#X connect 29 0 30 0;
#X connect 30 0 34 0;
#X connect 30 1 22 0;
#X connect 30 2 26 0;
#X connect 30 3 35 0;
#X connect 31 0 33 0;
#X connect 32 0 33 0;
#X connect 32 1 33 1;
#X connect 33 0 10 1;
#X connect 34 0 2 0;
#X connect 35 0 1 0;
#X connect 36 0 32 0;
#X connect 37 0 10 0;
#X connect 38 0 37 1;
#X restore 627 638 pd generate-pitches;
#N canvas 218 274 946 433 generate-pitches 0;
#X obj 283 308 sel 1;
#X obj 283 284 >;
#N canvas 63 101 450 300 quantize 0;
#X obj 81 102 ftom;
#X obj 81 54 inlet;
#X obj 81 238 outlet;
#X obj 81 78 scaled 0 1 400 800;
#X obj 81 126 quantizedmode aeolian 60;
#X connect 0 0 4 0;
#X connect 1 0 3 0;
#X connect 3 0 0 0;
#X connect 4 0 2 0;
#X restore 47 220 pd quantize;
#X obj 47 288 spigot;
#N canvas 92 130 149 132 lock-pitches 0;
#X obj 19 24 r lock-l-pitches;
#X obj 19 48 sel 0 1, f 9;
#X msg 19 72 1;
#X msg 49 72 0;
#X obj 19 96 outlet;
#X obj 102 51 loadbang;
#X connect 0 0 1 0;
#X connect 1 0 2 0;
#X connect 1 1 3 0;
#X connect 2 0 4 0;
#X connect 3 0 4 0;
#X connect 5 0 2 0;
#X restore 86 244 pd lock-pitches;
#X obj 86 268 tgl 15 0 empty empty empty 17 7 0 10 #fcfcfc #000000
#000000 0 1;
#X obj 47 332 spigot;
#X obj 86 312 tgl 15 0 empty empty empty 17 7 0 10 #fcfcfc #000000
#000000 0 1;
#X msg 283 332 1;
#X msg 315 332 0;
#X obj 47 396 makenote 127 50;
#X obj 183 112 inlet;
#X obj 47 420 outlet;
#X obj 143 420 outlet;
#X obj 480 111 inlet;
#X obj 299 105 inlet;
#X obj 183 136 tgl 15 0 empty empty empty 17 7 0 10 #fcfcfc #000000
#000000 0 1;
#X obj 299 155 msphsl 0 1;
#X text 166 89 generate?;
#X text 295 83 density;
#X text 473 88 save/recall;
#X obj 299 129 oneminus;
#X obj 541 256 generative16step 100 800;
#X text 371 232 density;
#X text 116 167 pitches;
#X text 544 201 velocity;
#X obj 761 257 generative16step 100 800;
#X text 759 208 duration;
#X obj 761 281 scaled 0 1 20 300;
#X obj 656 115 r step;
#X obj 656 139 t f f f f;
#X obj 541 280 scaled 0 1 50 127;
#X obj 413 319 t b f;
#X obj 413 343 *;
#X obj 47 196 generative16step 100 800;
#X obj 283 260 generative16step 100 800;
#X obj 413 295 scaled 0 1 0.2 1;
#X obj 47 356 maybe;
#X obj 834 116 inlet;
#X connect 0 0 8 0;
#X connect 0 1 9 0;
#X connect 1 0 0 0;
#X connect 2 0 3 0;
#X connect 3 0 6 0;
#X connect 4 0 5 0;
#X connect 5 0 3 1;
#X connect 6 0 37 0;
#X connect 7 0 6 1;
#X connect 8 0 7 0;
#X connect 9 0 7 0;
#X connect 10 0 12 0;
#X connect 10 1 13 0;
#X connect 11 0 16 0;
#X connect 14 0 22 2;
#X connect 14 0 26 2;
#X connect 14 0 34 2;
#X connect 14 0 35 2;
#X connect 15 0 21 0;
#X connect 15 0 36 0;
#X connect 16 0 22 1;
#X connect 16 0 26 1;
#X connect 16 0 34 1;
#X connect 16 0 35 1;
#X connect 17 0 1 1;
#X connect 21 0 17 0;
#X connect 22 0 31 0;
#X connect 26 0 28 0;
#X connect 28 0 10 2;
#X connect 29 0 30 0;
#X connect 30 0 34 0;
#X connect 30 1 22 0;
#X connect 30 2 26 0;
#X connect 30 3 35 0;
#X connect 31 0 33 0;
#X connect 32 0 33 0;
#X connect 32 1 33 1;
#X connect 33 0 10 1;
#X connect 34 0 2 0;
#X connect 35 0 1 0;
#X connect 36 0 32 0;
#X connect 37 0 10 0;
#X connect 38 0 37 1;
#X restore 907 638 pd generate-pitches;
#X obj 627 662 microbrute;
#X obj 907 662 microbrute;
#X obj 625 506 r ffb5;
#X obj 706 504 r ffs5;
#X obj 760 498 r ffkb5;
#X obj 901 500 r ffb6;
#X obj 982 498 r ffs6;
#X obj 1036 492 r ffkb6;
#X obj 92 74 counter 2;
#X obj 92 98 sel 0;
#X obj 91 122 bng 15 250 50 0 empty empty empty 17 7 0 10 #fcfcfc #000000
#000000;
#N canvas 63 101 450 369 recall 0;
#X obj 192 53 r ffb8;
#X obj 192 77 tgl 15 0 empty empty empty 17 7 0 10 #fcfcfc #000000
#000000 0 1;
#X obj 149 246 spigot, f 10;
#X obj 149 270 tgl 15 0 empty empty empty 17 7 0 10 #fcfcfc #000000
#000000 0 1;
#X obj 137 78 tgl 15 0 empty empty empty 17 7 0 10 #fcfcfc #000000
#000000 0 1;
#X obj 218 227 tgl 15 0 empty empty empty 17 7 0 10 #fcfcfc #000000
#000000 0 1;
#X msg 225 147 0;
#X msg 192 145 0;
#X obj 192 121 t b b;
#X msg 207 187 1;
#X obj 192 97 sel 1 0;
#X obj 132 51 inlet;
#X obj 149 290 sel 1;
#X obj 149 314 bng 15 250 50 0 empty empty empty 17 7 0 10 #fcfcfc
#000000 #000000;
#X obj 149 338 outlet;
#X connect 0 0 1 0;
#X connect 1 0 10 0;
#X connect 2 0 3 0;
#X connect 3 0 12 0;
#X connect 4 0 2 0;
#X connect 5 0 2 1;
#X connect 6 0 5 0;
#X connect 7 0 3 0;
#X connect 8 0 7 0;
#X connect 8 1 6 0;
#X connect 9 0 5 0;
#X connect 10 0 8 0;
#X connect 10 1 9 0;
#X connect 11 0 4 0;
#X connect 12 0 13 0;
#X connect 13 0 14 0;
#X restore 1153 540 pd recall;
#N canvas 92 130 450 300 generate 0;
#X obj 153 33 r ffb8;
#X obj 153 57 tgl 15 0 empty empty empty 17 7 0 10 #fcfcfc #000000
#000000 0 1;
#X obj 110 226 spigot, f 10;
#X obj 110 250 tgl 15 0 empty empty empty 17 7 0 10 #fcfcfc #000000
#000000 0 1;
#X obj 153 77 sel 0 1;
#X obj 98 58 tgl 15 0 empty empty empty 17 7 0 10 #fcfcfc #000000 #000000
0 1;
#X obj 179 207 tgl 15 0 empty empty empty 17 7 0 10 #fcfcfc #000000
#000000 0 1;
#X msg 186 127 0;
#X msg 153 125 0;
#X obj 153 101 t b b;
#X msg 168 167 1;
#X obj 98 34 inlet;
#X obj 110 270 outlet;
#X connect 0 0 1 0;
#X connect 1 0 4 0;
#X connect 2 0 3 0;
#X connect 3 0 12 0;
#X connect 4 0 9 0;
#X connect 4 1 10 0;
#X connect 5 0 2 0;
#X connect 6 0 2 1;
#X connect 7 0 6 0;
#X connect 8 0 3 0;
#X connect 9 0 8 0;
#X connect 9 1 7 0;
#X connect 10 0 6 0;
#X connect 11 0 5 0;
#X restore 1111 615 pd generate;
#X obj 1111 639 tgl 15 0 empty empty empty 17 7 0 10 #fcfcfc #000000
#000000 0 1;
#X obj 1153 564 bng 15 250 50 0 empty empty empty 17 7 0 10 #fcfcfc
#000000 #000000;
#X obj 1287 529 sel 1;
#X obj 1287 553 bng 15 250 50 0 empty empty empty 17 7 0 10 #fcfcfc
#000000 #000000;
#X msg 1287 573 save 1;
#X msg 1153 584 recall 1;
#X obj 1152 513 r ffb7;
#X obj 1233 511 r ffs7;
#X obj 1287 505 r ffkb7;
#N canvas 166 185 1158 604 generate-drums 0;
#X obj 283 308 sel 1;
#X obj 283 284 >;
#X obj 124 336 spigot;
#X obj 163 316 tgl 15 0 empty empty empty 17 7 0 10 #fcfcfc #000000
#000000 0 1;
#X msg 283 332 1;
#X msg 315 332 0;
#X obj 183 112 inlet;
#X obj 109 541 outlet;
#X obj 205 541 outlet;
#X obj 480 111 inlet;
#X obj 299 105 inlet;
#X obj 183 136 tgl 15 0 empty empty empty 17 7 0 10 #fcfcfc #000000
#000000 0 1;
#X obj 299 155 msphsl 0 1;
#X text 166 89 generate?;
#X text 295 83 density;
#X text 473 88 save/recall;
#X obj 299 129 oneminus;
#X obj 538 245 generative16step 100 800;
#X text 371 232 density;
#X text 544 201 velocity;
#X obj 761 257 generative16step 100 800;
#X text 759 208 duration;
#X obj 413 319 t b f;
#X obj 413 343 *;
#X obj 283 260 generative16step 100 800;
#X obj 351 545 outlet;
#X obj 447 545 outlet;
#X obj 655 324 generative16step 100 800;
#X obj 656 139 t f f f f f;
#X msg 620 373 0;
#X msg 654 373 1;
#X msg 709 380 0;
#X msg 743 380 1;
#X obj 102 500 spigot;
#X obj 195 505 spigot;
#X obj 353 516 spigot;
#X obj 446 521 spigot;
#X obj 543 503 tgl 15 0 empty empty empty 17 7 0 10 #fcfcfc #000000
#000000 0 1;
#X obj 276 488 tgl 15 0 empty empty empty 17 7 0 10 #fcfcfc #000000
#000000 0 1;
#X obj 124 312 bng 15 250 50 0 empty empty empty 17 7 0 10 #fcfcfc
#000000 #000000;
#X obj 124 410 t b b;
#X obj 121 455 f;
#X obj 154 457 f;
#X obj 413 295 scaled 0 1 0.75 1;
#X obj 34 114 inlet;
#X floatatom 34 138 5 0 0 0 - - - 0;
#X obj 639 546 outlet;
#X obj 735 546 outlet;
#X obj 641 517 spigot;
#X obj 734 522 spigot;
#X obj 831 504 tgl 15 0 empty empty empty 17 7 0 10 #fcfcfc #000000
#000000 0 1;
#X obj 655 348 sieverange 0.3333 0.666, f 37;
#X msg 888 386 0;
#X msg 920 385 1;
#X obj 538 269 scaled 0 1 0.8 1;
#X obj 1063 132 inlet;
#X msg 124 360 1;
#X obj 124 384 maybe;
#X connect 0 0 4 0;
#X connect 0 1 5 0;
#X connect 1 0 0 0;
#X connect 2 0 56 0;
#X connect 3 0 2 1;
#X connect 4 0 3 0;
#X connect 5 0 3 0;
#X connect 6 0 11 0;
#X connect 9 0 17 2;
#X connect 9 0 20 2;
#X connect 9 0 24 2;
#X connect 9 0 27 2;
#X connect 10 0 16 0;
#X connect 10 0 43 0;
#X connect 11 0 17 1;
#X connect 11 0 20 1;
#X connect 11 0 24 1;
#X connect 11 0 27 1;
#X connect 12 0 1 1;
#X connect 16 0 12 0;
#X connect 17 0 54 0;
#X connect 20 0 42 1;
#X connect 22 0 23 0;
#X connect 22 1 23 1;
#X connect 23 0 41 1;
#X connect 24 0 1 0;
#X connect 27 0 51 0;
#X connect 28 0 39 0;
#X connect 28 1 17 0;
#X connect 28 2 20 0;
#X connect 28 3 24 0;
#X connect 28 4 27 0;
#X connect 29 0 37 0;
#X connect 29 0 50 0;
#X connect 30 0 38 0;
#X connect 31 0 38 0;
#X connect 31 0 50 0;
#X connect 32 0 37 0;
#X connect 33 0 7 0;
#X connect 34 0 8 0;
#X connect 35 0 25 0;
#X connect 36 0 26 0;
#X connect 37 0 36 1;
#X connect 37 0 35 1;
#X connect 38 0 34 1;
#X connect 38 0 33 1;
#X connect 39 0 2 0;
#X connect 40 0 41 0;
#X connect 40 1 42 0;
#X connect 41 0 33 0;
#X connect 41 0 35 0;
#X connect 41 0 48 0;
#X connect 42 0 34 0;
#X connect 42 0 36 0;
#X connect 42 0 49 0;
#X connect 43 0 22 0;
#X connect 44 0 45 0;
#X connect 45 0 28 0;
#X connect 48 0 46 0;
#X connect 49 0 47 0;
#X connect 50 0 49 1;
#X connect 50 0 48 1;
#X connect 51 0 29 0;
#X connect 51 0 30 0;
#X connect 51 1 31 0;
#X connect 51 1 32 0;
#X connect 51 8 52 0;
#X connect 51 8 53 0;
#X connect 52 0 37 0;
#X connect 52 0 38 0;
#X connect 53 0 50 0;
#X connect 54 0 23 0;
#X connect 55 0 57 1;
#X connect 56 0 57 0;
#X connect 57 0 40 0;
#X restore 1158 661 pd generate-drums;
#X obj 1181 710 tr8soh;
#X obj 1105 706 tr8sch;
#X obj 1257 707 tr8ssd;
#X obj 93 142 counter 16;
#X obj 355 153 counter 16;
#X obj 284 243 r ffk1;
#X obj 559 244 r ffk2;
#X obj 832 247 r ffk3;
#X obj 1113 244 r ffk4;
#X obj 816 498 r ffk5;
#X obj 1092 492 r ffk6;
#X obj 1354 505 r ffk7;
#X connect 1 0 2 0;
#X connect 2 0 84 0;
#X connect 2 0 103 0;
#X connect 4 0 49 0;
#X connect 4 1 49 1;
#X connect 5 0 4 1;
#X connect 6 0 10 0;
#X connect 7 0 6 0;
#X connect 7 0 8 0;
#X connect 8 0 9 0;
#X connect 9 0 4 0;
#X connect 10 0 15 0;
#X connect 11 0 12 0;
#X connect 12 0 13 0;
#X connect 13 0 14 0;
#X connect 14 0 4 2;
#X connect 15 0 4 2;
#X connect 16 0 19 0;
#X connect 17 0 18 0;
#X connect 18 0 52 0;
#X connect 19 0 23 0;
#X connect 20 0 21 0;
#X connect 21 0 22 0;
#X connect 22 0 52 2;
#X connect 23 0 52 2;
#X connect 24 0 27 0;
#X connect 25 0 26 0;
#X connect 26 0 53 0;
#X connect 27 0 31 0;
#X connect 28 0 29 0;
#X connect 29 0 30 0;
#X connect 30 0 53 2;
#X connect 31 0 53 2;
#X connect 32 0 35 0;
#X connect 33 0 34 0;
#X connect 34 0 54 0;
#X connect 35 0 39 0;
#X connect 36 0 37 0;
#X connect 37 0 38 0;
#X connect 38 0 54 2;
#X connect 39 0 54 2;
#X connect 40 0 16 0;
#X connect 40 0 17 0;
#X connect 41 0 52 1;
#X connect 42 0 20 0;
#X connect 43 0 24 0;
#X connect 43 0 25 0;
#X connect 44 0 53 1;
#X connect 45 0 28 0;
#X connect 46 0 32 0;
#X connect 46 0 33 0;
#X connect 47 0 54 1;
#X connect 48 0 36 0;
#X connect 50 0 51 0;
#X connect 51 0 2 0;
#X connect 52 0 55 0;
#X connect 52 1 55 1;
#X connect 53 0 56 0;
#X connect 53 1 56 1;
#X connect 54 0 57 0;
#X connect 54 1 57 1;
#X connect 58 0 61 0;
#X connect 59 0 60 0;
#X connect 60 0 74 0;
#X connect 61 0 65 0;
#X connect 62 0 63 0;
#X connect 63 0 64 0;
#X connect 64 0 74 2;
#X connect 65 0 74 2;
#X connect 66 0 69 0;
#X connect 67 0 68 0;
#X connect 68 0 75 0;
#X connect 69 0 73 0;
#X connect 70 0 71 0;
#X connect 71 0 72 0;
#X connect 72 0 75 2;
#X connect 73 0 75 2;
#X connect 74 0 76 0;
#X connect 74 1 76 1;
#X connect 75 0 77 0;
#X connect 75 1 77 1;
#X connect 78 0 58 0;
#X connect 78 0 59 0;
#X connect 79 0 74 1;
#X connect 80 0 62 0;
#X connect 81 0 66 0;
#X connect 81 0 67 0;
#X connect 82 0 75 1;
#X connect 83 0 70 0;
#X connect 84 0 85 0;
#X connect 85 0 86 0;
#X connect 86 0 102 0;
#X connect 87 0 90 0;
#X connect 88 0 89 0;
#X connect 89 0 98 1;
#X connect 90 0 94 0;
#X connect 91 0 92 0;
#X connect 92 0 93 0;
#X connect 93 0 98 3;
#X connect 94 0 98 3;
#X connect 95 0 87 0;
#X connect 95 0 88 0;
#X connect 96 0 98 2;
#X connect 97 0 91 0;
#X connect 98 0 100 0;
#X connect 98 1 100 2;
#X connect 98 2 99 0;
#X connect 98 3 99 2;
#X connect 98 4 101 0;
#X connect 98 5 101 2;
#X connect 102 0 0 0;
#X connect 103 0 98 0;
#X connect 104 0 4 3;
#X connect 105 0 52 3;
#X connect 106 0 53 3;
#X connect 107 0 54 3;
#X connect 108 0 74 3;
#X connect 109 0 75 3;
#X connect 110 0 98 4;
