#N canvas 485 155 450 400 12;
#X obj 139 77 tgl 15 0 empty empty empty 17 7 0 10 #fcfcfc #000000
#000000 0 1;
#X floatatom 239 95 5 0 0 0 - - - 0;
#X floatatom 290 95 5 0 0 0 - - - 0;
#X obj 139 149 hradio 15 1 0 8 empty empty empty 0 -8 0 10 #fcfcfc
#000000 #000000 0;
#X obj 139 101 metro 250;
#X obj 139 193 mtof;
#X obj 171 241 osc~;
#X obj 139 125 stepper 8, f 22;
#X obj 139 217 t b f;
#X obj 139 289 *~;
#X obj 139 313 out~;
#X obj 139 53 loadbang;
#X text 233 72 length;
#X text 289 69 offset;
#X obj 215 97 bng 15 250 50 0 empty empty empty 17 7 0 10 #fcfcfc #000000
#000000;
#X obj 139 265 ahdsr~ 5 5 50 0.4 50;
#X obj 139 169 8step 60 62 64 65 67 69 71 72;
#X connect 0 0 4 0;
#X connect 1 0 7 2;
#X connect 2 0 7 3;
#X connect 3 0 16 0;
#X connect 4 0 7 0;
#X connect 5 0 8 0;
#X connect 6 0 9 1;
#X connect 7 0 3 0;
#X connect 8 0 15 0;
#X connect 8 1 6 0;
#X connect 9 0 10 0;
#X connect 9 0 10 1;
#X connect 11 0 0 0;
#X connect 14 0 7 1;
#X connect 15 0 9 0;
#X connect 16 0 5 0;
