#N canvas 485 155 450 400 12;
#X obj 139 47 tgl 15 0 empty empty empty 17 7 0 10 #fcfcfc #000000
#000000 0 1;
#X floatatom 239 65 5 0 0 0 - - - 0;
#X floatatom 290 65 5 0 0 0 - - - 0;
#X obj 139 119 hradio 15 1 0 8 empty empty empty 0 -8 0 10 #fcfcfc
#000000 #000000 0;
#X obj 139 71 metro 250;
#X obj 139 187 mtof;
#X obj 171 235 osc~;
#X obj 139 139 scaled 0 7 60 85;
#X obj 139 95 stepper 8, f 22;
#X obj 139 211 t b f;
#X obj 139 259 ahdsr~ 5 5 5 0.4 50;
#X obj 139 283 *~;
#X obj 139 307 out~;
#X obj 139 23 loadbang;
#X obj 139 163 quantizedmode harmonicminor 60;
#X text 233 42 length;
#X text 289 39 offset;
#X obj 215 67 bng 15 250 50 0 empty empty empty 17 7 0 10 #fcfcfc #000000
#000000;
#X connect 0 0 4 0;
#X connect 1 0 8 2;
#X connect 2 0 8 3;
#X connect 3 0 7 0;
#X connect 4 0 8 0;
#X connect 5 0 9 0;
#X connect 6 0 11 1;
#X connect 7 0 14 0;
#X connect 8 0 3 0;
#X connect 9 0 10 0;
#X connect 9 1 6 0;
#X connect 10 0 11 0;
#X connect 11 0 12 0;
#X connect 11 0 12 1;
#X connect 13 0 0 0;
#X connect 14 0 5 0;
#X connect 17 0 8 1;
