#N canvas 0 38 1512 884 12;
#X obj 92 30 midiclockin;
#X obj 92 54 bng 15 250 50 0 empty empty empty 17 7 0 10 #fcfcfc #000000
#000000;
#X obj 1318 39 ff;
#N canvas 218 274 1165 433 generate-pitches 0;
#X obj 283 308 sel 1;
#X obj 283 284 >;
#N canvas 63 101 450 300 quantize 0;
#X obj 81 102 ftom;
#X obj 81 54 inlet;
#X obj 81 238 outlet;
#X obj 81 126 quantizedmode harmonicminor 60;
#X obj 81 78 scaled 0 1 80 200;
#X connect 0 0 3 0;
#X connect 1 0 4 0;
#X connect 3 0 2 0;
#X connect 4 0 0 0;
#X restore 47 220 pd quantize;
#X obj 47 332 spigot;
#X obj 86 312 tgl 15 0 empty empty empty 17 7 0 10 #fcfcfc #000000
#000000 0 1;
#X msg 283 332 1;
#X msg 315 332 0;
#X obj 47 380 makenote 127 50;
#X obj 183 112 inlet;
#X obj 47 404 outlet;
#X obj 143 404 outlet;
#X obj 299 105 inlet;
#X obj 183 136 tgl 15 0 empty empty empty 17 7 0 10 #fcfcfc #000000
#000000 0 1;
#X obj 299 155 msphsl 0 1;
#X text 166 89 generate?;
#X text 295 83 density;
#X obj 299 129 oneminus;
#X text 371 232 density;
#X text 116 167 pitches;
#X text 544 201 velocity;
#X text 759 208 duration;
#X obj 761 281 scaled 0 1 20 300;
#X obj 656 139 t f f f f;
#X obj 541 280 scaled 0 1 50 127;
#X obj 413 319 t b f;
#X obj 413 343 *;
#X obj 413 295 scaled 0 1 0.2 1;
#X obj 656 75 r tick;
#X obj 656 99 stepper 16, f 33;
#X obj 730 69 inlet;
#X obj 794 23 inlet;
#X obj 921 28 inlet;
#X obj 794 71 i;
#X obj 921 76 i;
#X obj 794 47 scaled 0.007 0.125 1 16;
#X obj 921 52 scaled 0 0.118 0 15;
#X obj 698 38 r reset;
#X obj 47 196 generative16step 100 300;
#X obj 283 260 generative16step 100 300;
#X obj 541 256 generative16step 100 300;
#X obj 761 257 generative16step 100 300;
#X connect 0 0 5 0;
#X connect 0 1 6 0;
#X connect 1 0 0 0;
#X connect 2 0 3 0;
#X connect 3 0 7 0;
#X connect 4 0 3 1;
#X connect 5 0 4 0;
#X connect 6 0 4 0;
#X connect 7 0 9 0;
#X connect 7 1 10 0;
#X connect 8 0 12 0;
#X connect 11 0 16 0;
#X connect 11 0 26 0;
#X connect 12 0 37 1;
#X connect 12 0 38 1;
#X connect 12 0 39 1;
#X connect 12 0 40 1;
#X connect 13 0 1 1;
#X connect 16 0 13 0;
#X connect 21 0 7 2;
#X connect 22 0 37 0;
#X connect 22 1 39 0;
#X connect 22 2 40 0;
#X connect 22 3 38 0;
#X connect 23 0 25 0;
#X connect 24 0 25 0;
#X connect 24 1 25 1;
#X connect 25 0 7 1;
#X connect 26 0 24 0;
#X connect 27 0 28 0;
#X connect 28 0 22 0;
#X connect 29 0 28 1;
#X connect 30 0 34 0;
#X connect 31 0 35 0;
#X connect 32 0 28 2;
#X connect 33 0 28 3;
#X connect 34 0 32 0;
#X connect 35 0 33 0;
#X connect 36 0 28 1;
#X connect 37 0 2 0;
#X connect 38 0 1 0;
#X connect 39 0 23 0;
#X connect 40 0 21 0;
#X restore 89 389 pd generate-pitches;
#X obj 147 248 r ffs1;
#X obj 87 250 r ffb1;
#X obj 86 356 tgl 15 0 empty empty empty 17 7 0 10 #fcfcfc #000000
#000000 0 1;
#X obj 211 249 r ffkb1;
#X obj 355 359 tgl 15 0 empty empty empty 17 7 0 10 #fcfcfc #000000
#000000 0 1;
#X obj 636 363 tgl 15 0 empty empty empty 17 7 0 10 #fcfcfc #000000
#000000 0 1;
#X obj 912 357 tgl 15 0 empty empty empty 17 7 0 10 #fcfcfc #000000
#000000 0 1;
#X obj 356 253 r ffb2;
#X obj 437 251 r ffs2;
#X obj 637 257 r ffb3;
#X obj 718 255 r ffs3;
#X obj 913 251 r ffb4;
#X obj 994 249 r ffs4;
#X obj 89 413 miniloguexd;
#X obj 269 35 tgl 15 0 empty empty empty 17 7 0 10 #fcfcfc #000000
#000000 0 1;
#X obj 269 59 metro 250;
#N canvas 218 274 1131 433 generate-pitches 0;
#X obj 283 308 sel 1;
#X obj 283 284 >;
#N canvas 63 101 450 300 quantize 0;
#X obj 81 102 ftom;
#X obj 81 54 inlet;
#X obj 81 238 outlet;
#X obj 81 126 quantizedmode harmonicminor 60;
#X obj 81 78 scaled 0 1 200 300;
#X connect 0 0 3 0;
#X connect 1 0 4 0;
#X connect 3 0 2 0;
#X connect 4 0 0 0;
#X restore 47 220 pd quantize;
#X obj 47 332 spigot;
#X obj 86 312 tgl 15 0 empty empty empty 17 7 0 10 #fcfcfc #000000
#000000 0 1;
#X msg 283 332 1;
#X msg 315 332 0;
#X obj 47 386 makenote 127 50;
#X obj 183 112 inlet;
#X obj 47 410 outlet;
#X obj 143 410 outlet;
#X obj 299 105 inlet;
#X obj 183 136 tgl 15 0 empty empty empty 17 7 0 10 #fcfcfc #000000
#000000 0 1;
#X obj 299 155 msphsl 0 1;
#X text 166 89 generate?;
#X text 295 83 density;
#X obj 299 129 oneminus;
#X text 371 232 density;
#X text 116 167 pitches;
#X text 544 201 velocity;
#X text 759 208 duration;
#X obj 761 281 scaled 0 1 20 300;
#X obj 656 139 t f f f f;
#X obj 541 280 scaled 0 1 50 127;
#X obj 413 319 t b f;
#X obj 413 343 *;
#X obj 413 295 scaled 0 1 0.2 1;
#X obj 656 75 r tick;
#X obj 656 99 stepper 16, f 33;
#X obj 730 69 inlet;
#X obj 794 23 inlet;
#X obj 921 28 inlet;
#X obj 794 71 i;
#X obj 921 76 i;
#X obj 794 47 scaled 0.007 0.125 1 16;
#X obj 921 52 scaled 0 0.118 0 15;
#X obj 698 38 r reset;
#X obj 47 196 generative16step 100 300;
#X obj 283 260 generative16step 100 300;
#X obj 541 256 generative16step 100 300;
#X obj 761 257 generative16step 100 300;
#X connect 0 0 5 0;
#X connect 0 1 6 0;
#X connect 1 0 0 0;
#X connect 2 0 3 0;
#X connect 3 0 7 0;
#X connect 4 0 3 1;
#X connect 5 0 4 0;
#X connect 6 0 4 0;
#X connect 7 0 9 0;
#X connect 7 1 10 0;
#X connect 8 0 12 0;
#X connect 11 0 16 0;
#X connect 11 0 26 0;
#X connect 12 0 37 1;
#X connect 12 0 38 1;
#X connect 12 0 39 1;
#X connect 12 0 40 1;
#X connect 13 0 1 1;
#X connect 16 0 13 0;
#X connect 21 0 7 2;
#X connect 22 0 37 0;
#X connect 22 1 39 0;
#X connect 22 2 40 0;
#X connect 22 3 38 0;
#X connect 23 0 25 0;
#X connect 24 0 25 0;
#X connect 24 1 25 1;
#X connect 25 0 7 1;
#X connect 26 0 24 0;
#X connect 27 0 28 0;
#X connect 28 0 22 0;
#X connect 29 0 28 1;
#X connect 30 0 34 0;
#X connect 31 0 35 0;
#X connect 32 0 28 2;
#X connect 33 0 28 3;
#X connect 34 0 32 0;
#X connect 35 0 33 0;
#X connect 36 0 28 1;
#X connect 37 0 2 0;
#X connect 38 0 1 0;
#X connect 39 0 23 0;
#X connect 40 0 21 0;
#X restore 339 389 pd generate-pitches;
#N canvas 218 274 1069 433 generate-pitches 0;
#X obj 283 308 sel 1;
#X obj 283 284 >;
#N canvas 63 101 450 300 quantize 0;
#X obj 81 102 ftom;
#X obj 81 54 inlet;
#X obj 81 238 outlet;
#X obj 81 126 quantizedmode harmonicminor 60;
#X obj 81 78 scaled 0 1 300 800;
#X connect 0 0 3 0;
#X connect 1 0 4 0;
#X connect 3 0 2 0;
#X connect 4 0 0 0;
#X restore 47 220 pd quantize;
#X obj 47 332 spigot;
#X obj 86 312 tgl 15 0 empty empty empty 17 7 0 10 #fcfcfc #000000
#000000 0 1;
#X msg 283 332 1;
#X msg 315 332 0;
#X obj 47 396 makenote 127 50;
#X obj 183 112 inlet;
#X obj 47 420 outlet;
#X obj 143 420 outlet;
#X obj 299 105 inlet;
#X obj 183 136 tgl 15 0 empty empty empty 17 7 0 10 #fcfcfc #000000
#000000 0 1;
#X obj 299 155 msphsl 0 1;
#X text 166 89 generate?;
#X text 295 83 density;
#X obj 299 129 oneminus;
#X text 371 232 density;
#X text 116 167 pitches;
#X text 544 201 velocity;
#X text 759 208 duration;
#X obj 761 281 scaled 0 1 20 300;
#X obj 656 139 t f f f f;
#X obj 541 280 scaled 0 1 50 127;
#X obj 413 319 t b f;
#X obj 413 343 *;
#X obj 413 295 scaled 0 1 0.2 1;
#X obj 656 75 r tick;
#X obj 656 99 stepper 16, f 33;
#X obj 730 69 inlet;
#X obj 794 23 inlet;
#X obj 921 28 inlet;
#X obj 794 71 i;
#X obj 921 76 i;
#X obj 794 47 scaled 0.007 0.125 1 16;
#X obj 921 52 scaled 0 0.118 0 15;
#X obj 698 38 r reset;
#X obj 47 196 generative16step 100 300;
#X obj 283 260 generative16step 100 300;
#X obj 541 256 generative16step 100 300;
#X obj 761 257 generative16step 100 300;
#X connect 0 0 5 0;
#X connect 0 1 6 0;
#X connect 1 0 0 0;
#X connect 2 0 3 0;
#X connect 3 0 7 0;
#X connect 4 0 3 1;
#X connect 5 0 4 0;
#X connect 6 0 4 0;
#X connect 7 0 9 0;
#X connect 7 1 10 0;
#X connect 8 0 12 0;
#X connect 11 0 16 0;
#X connect 11 0 26 0;
#X connect 12 0 37 1;
#X connect 12 0 38 1;
#X connect 12 0 39 1;
#X connect 12 0 40 1;
#X connect 13 0 1 1;
#X connect 16 0 13 0;
#X connect 21 0 7 2;
#X connect 22 0 37 0;
#X connect 22 1 39 0;
#X connect 22 2 40 0;
#X connect 22 3 38 0;
#X connect 23 0 25 0;
#X connect 24 0 25 0;
#X connect 24 1 25 1;
#X connect 25 0 7 1;
#X connect 26 0 24 0;
#X connect 27 0 28 0;
#X connect 28 0 22 0;
#X connect 29 0 28 1;
#X connect 30 0 34 0;
#X connect 31 0 35 0;
#X connect 32 0 28 2;
#X connect 33 0 28 3;
#X connect 34 0 32 0;
#X connect 35 0 33 0;
#X connect 36 0 28 1;
#X connect 37 0 2 0;
#X connect 38 0 1 0;
#X connect 39 0 23 0;
#X connect 40 0 21 0;
#X restore 639 389 pd generate-pitches;
#N canvas 218 274 1122 433 generate-pitches 0;
#X obj 283 308 sel 1;
#X obj 283 284 >;
#N canvas 63 101 450 300 quantize 0;
#X obj 81 102 ftom;
#X obj 81 54 inlet;
#X obj 81 238 outlet;
#X obj 81 126 quantizedmode harmonicminor 60;
#X obj 81 78 scaled 0 1 100 400;
#X connect 0 0 3 0;
#X connect 1 0 4 0;
#X connect 3 0 2 0;
#X connect 4 0 0 0;
#X restore 47 220 pd quantize;
#X obj 47 332 spigot;
#X obj 86 312 tgl 15 0 empty empty empty 17 7 0 10 #fcfcfc #000000
#000000 0 1;
#X msg 283 332 1;
#X msg 315 332 0;
#X obj 47 396 makenote 127 50;
#X obj 183 112 inlet;
#X obj 47 420 outlet;
#X obj 143 420 outlet;
#X obj 299 105 inlet;
#X obj 183 136 tgl 15 0 empty empty empty 17 7 0 10 #fcfcfc #000000
#000000 0 1;
#X obj 299 155 msphsl 0 1;
#X text 166 89 generate?;
#X text 295 83 density;
#X obj 299 129 oneminus;
#X obj 541 280 scaled 0 1 0 127;
#X text 371 232 density;
#X text 116 167 pitches;
#X text 544 201 velocity;
#X text 759 208 duration;
#X obj 761 281 scaled 0 1 20 300;
#X obj 656 139 t f f f f;
#X obj 413 319 t b f;
#X obj 413 343 *;
#X obj 413 295 scaled 0 1 0.2 1;
#X obj 656 75 r tick;
#X obj 656 99 stepper 16, f 33;
#X obj 730 69 inlet;
#X obj 794 23 inlet;
#X obj 921 28 inlet;
#X obj 794 71 i;
#X obj 921 76 i;
#X obj 794 47 scaled 0.007 0.125 1 16;
#X obj 921 52 scaled 0 0.118 0 15;
#X obj 698 38 r reset;
#X obj 47 196 generative16step 100 300;
#X obj 283 260 generative16step 100 300;
#X obj 541 256 generative16step 100 300;
#X obj 761 257 generative16step 100 300;
#X connect 0 0 5 0;
#X connect 0 1 6 0;
#X connect 1 0 0 0;
#X connect 2 0 3 0;
#X connect 3 0 7 0;
#X connect 4 0 3 1;
#X connect 5 0 4 0;
#X connect 6 0 4 0;
#X connect 7 0 9 0;
#X connect 7 1 10 0;
#X connect 8 0 12 0;
#X connect 11 0 16 0;
#X connect 11 0 26 0;
#X connect 12 0 37 1;
#X connect 12 0 38 1;
#X connect 12 0 39 1;
#X connect 12 0 40 1;
#X connect 13 0 1 1;
#X connect 16 0 13 0;
#X connect 17 0 25 0;
#X connect 22 0 7 2;
#X connect 23 0 37 0;
#X connect 23 1 39 0;
#X connect 23 2 40 0;
#X connect 23 3 38 0;
#X connect 24 0 25 0;
#X connect 24 1 25 1;
#X connect 25 0 7 1;
#X connect 26 0 24 0;
#X connect 27 0 28 0;
#X connect 28 0 23 0;
#X connect 29 0 28 1;
#X connect 30 0 34 0;
#X connect 31 0 35 0;
#X connect 32 0 28 2;
#X connect 33 0 28 3;
#X connect 34 0 32 0;
#X connect 35 0 33 0;
#X connect 36 0 28 1;
#X connect 37 0 2 0;
#X connect 38 0 1 0;
#X connect 39 0 17 0;
#X connect 40 0 22 0;
#X restore 919 389 pd generate-pitches;
#X obj 339 414 miniloguexd;
#X obj 92 74 counter 2;
#X obj 92 98 sel 0;
#X obj 92 122 bng 15 250 50 0 empty empty empty 17 7 0 10 #fcfcfc #000000
#000000;
#X obj 757 593 tgl 15 0 empty empty empty 17 7 0 10 #fcfcfc #000000
#000000 0 1;
#N canvas 166 185 1158 604 generate-drums 0;
#X obj 283 308 sel 1;
#X obj 283 284 >;
#X obj 124 336 spigot;
#X obj 163 316 tgl 15 0 empty empty empty 17 7 0 10 #fcfcfc #000000
#000000 0 1;
#X msg 283 332 1;
#X msg 315 332 0;
#X obj 183 112 inlet;
#X obj 109 541 outlet;
#X obj 205 541 outlet;
#X obj 299 105 inlet;
#X obj 183 136 tgl 15 0 empty empty empty 17 7 0 10 #fcfcfc #000000
#000000 0 1;
#X obj 299 155 msphsl 0 1;
#X text 166 89 generate?;
#X text 295 83 density;
#X obj 299 129 oneminus;
#X text 371 232 density;
#X text 544 201 velocity;
#X text 759 208 duration;
#X obj 413 319 t b f;
#X obj 413 343 *;
#X obj 656 139 t f f f f f;
#X obj 124 312 bng 15 250 50 0 empty empty empty 17 7 0 10 #fcfcfc
#000000 #000000;
#X obj 124 410 t b b;
#X obj 121 455 f;
#X obj 154 457 f;
#X obj 413 295 scaled 0 1 0.75 1;
#X obj 34 114 inlet;
#X floatatom 34 138 5 0 0 0 - - - 0;
#X obj 538 269 scaled 0 1 0.3 1;
#X obj 283 260 generative16step 100 300;
#X obj 538 245 generative16step 100 300;
#X obj 761 257 generative16step 100 300;
#X connect 0 0 4 0;
#X connect 0 1 5 0;
#X connect 1 0 0 0;
#X connect 2 0 22 0;
#X connect 3 0 2 1;
#X connect 4 0 3 0;
#X connect 5 0 3 0;
#X connect 6 0 10 0;
#X connect 9 0 14 0;
#X connect 9 0 25 0;
#X connect 10 0 29 1;
#X connect 10 0 30 1;
#X connect 10 0 31 1;
#X connect 11 0 1 1;
#X connect 14 0 11 0;
#X connect 18 0 19 0;
#X connect 18 1 19 1;
#X connect 19 0 23 1;
#X connect 20 0 21 0;
#X connect 20 1 30 0;
#X connect 20 2 31 0;
#X connect 20 3 29 0;
#X connect 21 0 2 0;
#X connect 22 0 23 0;
#X connect 22 1 24 0;
#X connect 23 0 7 0;
#X connect 24 0 8 0;
#X connect 25 0 18 0;
#X connect 26 0 27 0;
#X connect 27 0 20 0;
#X connect 28 0 19 0;
#X connect 29 0 1 0;
#X connect 30 0 28 0;
#X connect 31 0 24 1;
#X restore 764 635 pd generate-drums;
#X obj 645 602 counter 16;
#X obj 92 142 s tick;
#X obj 919 413 microbrute;
#X obj 198 309 r ffk1;
#X obj 217 338 r ffk5;
#X obj 491 252 r ffkb2;
#X obj 478 312 r ffk2;
#X obj 497 341 r ffk6;
#X obj 781 252 r ffkb3;
#X obj 768 312 r ffk3;
#X obj 787 341 r ffk7;
#X obj 1061 252 r ffkb4;
#X obj 1048 312 r ffk4;
#X obj 1067 341 r ffk8;
#X obj 758 549 r ffb5;
#X obj 868 570 r ffs5;
#X obj 951 597 tgl 15 0 empty empty empty 17 7 0 10 #fcfcfc #000000
#000000 0 1;
#N canvas 166 185 1158 604 generate-drums 0;
#X obj 283 308 sel 1;
#X obj 283 284 >;
#X obj 124 336 spigot;
#X obj 163 316 tgl 15 0 empty empty empty 17 7 0 10 #fcfcfc #000000
#000000 0 1;
#X msg 283 332 1;
#X msg 315 332 0;
#X obj 183 112 inlet;
#X obj 109 541 outlet;
#X obj 205 541 outlet;
#X obj 299 105 inlet;
#X obj 183 136 tgl 15 0 empty empty empty 17 7 0 10 #fcfcfc #000000
#000000 0 1;
#X obj 299 155 msphsl 0 1;
#X text 166 89 generate?;
#X text 295 83 density;
#X obj 299 129 oneminus;
#X text 371 232 density;
#X text 544 201 velocity;
#X text 759 208 duration;
#X obj 413 319 t b f;
#X obj 413 343 *;
#X obj 656 139 t f f f f f;
#X obj 124 312 bng 15 250 50 0 empty empty empty 17 7 0 10 #fcfcfc
#000000 #000000;
#X obj 124 410 t b b;
#X obj 121 455 f;
#X obj 154 457 f;
#X obj 413 295 scaled 0 1 0.75 1;
#X obj 34 114 inlet;
#X floatatom 34 138 5 0 0 0 - - - 0;
#X obj 538 269 scaled 0 1 0.3 1;
#X obj 283 260 generative16step 100 300;
#X obj 538 245 generative16step 100 300;
#X obj 761 257 generative16step 100 300;
#X connect 0 0 4 0;
#X connect 0 1 5 0;
#X connect 1 0 0 0;
#X connect 2 0 22 0;
#X connect 3 0 2 1;
#X connect 4 0 3 0;
#X connect 5 0 3 0;
#X connect 6 0 10 0;
#X connect 9 0 14 0;
#X connect 9 0 25 0;
#X connect 10 0 29 1;
#X connect 10 0 30 1;
#X connect 10 0 31 1;
#X connect 11 0 1 1;
#X connect 14 0 11 0;
#X connect 18 0 19 0;
#X connect 18 1 19 1;
#X connect 19 0 23 1;
#X connect 20 0 21 0;
#X connect 20 1 30 0;
#X connect 20 2 31 0;
#X connect 20 3 29 0;
#X connect 21 0 2 0;
#X connect 22 0 23 0;
#X connect 22 1 24 0;
#X connect 23 0 7 0;
#X connect 24 0 8 0;
#X connect 25 0 18 0;
#X connect 26 0 27 0;
#X connect 27 0 20 0;
#X connect 28 0 19 0;
#X connect 29 0 1 0;
#X connect 30 0 28 0;
#X connect 31 0 24 1;
#X restore 958 639 pd generate-drums;
#X obj 1131 612 tgl 15 0 empty empty empty 17 7 0 10 #fcfcfc #000000
#000000 0 1;
#N canvas 166 185 1158 604 generate-drums 0;
#X obj 283 308 sel 1;
#X obj 283 284 >;
#X obj 124 336 spigot;
#X obj 163 316 tgl 15 0 empty empty empty 17 7 0 10 #fcfcfc #000000
#000000 0 1;
#X msg 283 332 1;
#X msg 315 332 0;
#X obj 183 112 inlet;
#X obj 109 541 outlet;
#X obj 205 541 outlet;
#X obj 299 105 inlet;
#X obj 183 136 tgl 15 0 empty empty empty 17 7 0 10 #fcfcfc #000000
#000000 0 1;
#X obj 299 155 msphsl 0 1;
#X text 166 89 generate?;
#X text 295 83 density;
#X obj 299 129 oneminus;
#X text 371 232 density;
#X text 544 201 velocity;
#X text 759 208 duration;
#X obj 413 319 t b f;
#X obj 413 343 *;
#X obj 656 139 t f f f f f;
#X obj 124 312 bng 15 250 50 0 empty empty empty 17 7 0 10 #fcfcfc
#000000 #000000;
#X obj 124 410 t b b;
#X obj 121 455 f;
#X obj 154 457 f;
#X obj 413 295 scaled 0 1 0.75 1;
#X obj 34 114 inlet;
#X floatatom 34 138 5 0 0 0 - - - 0;
#X obj 538 269 scaled 0 1 0.3 1;
#X obj 283 260 generative16step 100 300;
#X obj 538 245 generative16step 100 300;
#X obj 761 257 generative16step 100 300;
#X connect 0 0 4 0;
#X connect 0 1 5 0;
#X connect 1 0 0 0;
#X connect 2 0 22 0;
#X connect 3 0 2 1;
#X connect 4 0 3 0;
#X connect 5 0 3 0;
#X connect 6 0 10 0;
#X connect 9 0 14 0;
#X connect 9 0 25 0;
#X connect 10 0 29 1;
#X connect 10 0 30 1;
#X connect 10 0 31 1;
#X connect 11 0 1 1;
#X connect 14 0 11 0;
#X connect 18 0 19 0;
#X connect 18 1 19 1;
#X connect 19 0 23 1;
#X connect 20 0 21 0;
#X connect 20 1 30 0;
#X connect 20 2 31 0;
#X connect 20 3 29 0;
#X connect 21 0 2 0;
#X connect 22 0 23 0;
#X connect 22 1 24 0;
#X connect 23 0 7 0;
#X connect 24 0 8 0;
#X connect 25 0 18 0;
#X connect 26 0 27 0;
#X connect 27 0 20 0;
#X connect 28 0 19 0;
#X connect 29 0 1 0;
#X connect 30 0 28 0;
#X connect 31 0 24 1;
#X restore 1138 654 pd generate-drums;
#X obj 1310 616 tgl 15 0 empty empty empty 17 7 0 10 #fcfcfc #000000
#000000 0 1;
#N canvas 166 185 1158 604 generate-drums 0;
#X obj 283 308 sel 1;
#X obj 283 284 >;
#X obj 124 336 spigot;
#X obj 163 316 tgl 15 0 empty empty empty 17 7 0 10 #fcfcfc #000000
#000000 0 1;
#X msg 283 332 1;
#X msg 315 332 0;
#X obj 183 112 inlet;
#X obj 109 541 outlet;
#X obj 205 541 outlet;
#X obj 299 105 inlet;
#X obj 183 136 tgl 15 0 empty empty empty 17 7 0 10 #fcfcfc #000000
#000000 0 1;
#X obj 299 155 msphsl 0 1;
#X text 166 89 generate?;
#X text 295 83 density;
#X obj 299 129 oneminus;
#X text 371 232 density;
#X text 544 201 velocity;
#X text 759 208 duration;
#X obj 413 319 t b f;
#X obj 413 343 *;
#X obj 656 139 t f f f f f;
#X obj 124 312 bng 15 250 50 0 empty empty empty 17 7 0 10 #fcfcfc
#000000 #000000;
#X obj 124 410 t b b;
#X obj 121 455 f;
#X obj 154 457 f;
#X obj 413 295 scaled 0 1 0.75 1;
#X obj 34 114 inlet;
#X floatatom 34 138 5 0 0 0 - - - 0;
#X obj 538 269 scaled 0 1 0.3 1;
#X obj 283 260 generative16step 100 300;
#X obj 538 245 generative16step 100 300;
#X obj 761 257 generative16step 100 300;
#X connect 0 0 4 0;
#X connect 0 1 5 0;
#X connect 1 0 0 0;
#X connect 2 0 22 0;
#X connect 3 0 2 1;
#X connect 4 0 3 0;
#X connect 5 0 3 0;
#X connect 6 0 10 0;
#X connect 9 0 14 0;
#X connect 9 0 25 0;
#X connect 10 0 29 1;
#X connect 10 0 30 1;
#X connect 10 0 31 1;
#X connect 11 0 1 1;
#X connect 14 0 11 0;
#X connect 18 0 19 0;
#X connect 18 1 19 1;
#X connect 19 0 23 1;
#X connect 20 0 21 0;
#X connect 20 1 30 0;
#X connect 20 2 31 0;
#X connect 20 3 29 0;
#X connect 21 0 2 0;
#X connect 22 0 23 0;
#X connect 22 1 24 0;
#X connect 23 0 7 0;
#X connect 24 0 8 0;
#X connect 25 0 18 0;
#X connect 26 0 27 0;
#X connect 27 0 20 0;
#X connect 28 0 19 0;
#X connect 29 0 1 0;
#X connect 30 0 28 0;
#X connect 31 0 24 1;
#X restore 1317 658 pd generate-drums;
#X obj 952 553 r ffb6;
#X obj 1062 574 r ffs6;
#X obj 1132 568 r ffb7;
#X obj 1242 589 r ffs7;
#X obj 1311 572 r ffb8;
#X obj 1421 593 r ffs8;
#X obj 1085 699 tr8sch;
#X obj 1264 703 tr8soh;
#X text 636 64 top knobs: length for synths (not drums) (and push knobs
to reset length and offset) \; \; bottom knobs: offset \; \; sliders:
density \; \; buttons: generate new seqs;
#X obj 228 122 s reset;
#X obj 660 555 r reset;
#X obj 196 35 r reset;
#X obj 639 413 miniloguexd;
#X obj 905 684 tr8shc;
#X obj 711 680 tr8src;
#X connect 0 0 1 0;
#X connect 0 1 60 0;
#X connect 1 0 24 0;
#X connect 1 0 29 0;
#X connect 3 0 17 0;
#X connect 3 1 17 1;
#X connect 4 0 3 1;
#X connect 5 0 6 0;
#X connect 6 0 3 0;
#X connect 7 0 3 2;
#X connect 8 0 20 0;
#X connect 9 0 21 0;
#X connect 10 0 22 0;
#X connect 11 0 8 0;
#X connect 12 0 20 1;
#X connect 13 0 9 0;
#X connect 14 0 21 1;
#X connect 15 0 10 0;
#X connect 16 0 22 1;
#X connect 18 0 19 0;
#X connect 19 0 1 0;
#X connect 20 0 23 0;
#X connect 20 1 23 1;
#X connect 21 0 63 0;
#X connect 21 1 63 1;
#X connect 22 0 31 0;
#X connect 22 1 31 1;
#X connect 24 0 25 0;
#X connect 25 0 26 0;
#X connect 26 0 30 0;
#X connect 27 0 28 1;
#X connect 28 0 65 0;
#X connect 28 1 65 2;
#X connect 29 0 28 0;
#X connect 29 0 46 0;
#X connect 29 0 50 0;
#X connect 29 0 48 0;
#X connect 32 0 3 3;
#X connect 33 0 3 4;
#X connect 34 0 20 2;
#X connect 35 0 20 3;
#X connect 36 0 20 4;
#X connect 37 0 21 2;
#X connect 38 0 21 3;
#X connect 39 0 21 4;
#X connect 40 0 22 2;
#X connect 41 0 22 3;
#X connect 42 0 22 4;
#X connect 43 0 27 0;
#X connect 44 0 28 2;
#X connect 45 0 46 1;
#X connect 46 0 64 0;
#X connect 46 1 64 2;
#X connect 47 0 48 1;
#X connect 48 0 57 0;
#X connect 48 1 57 2;
#X connect 49 0 50 1;
#X connect 50 0 58 0;
#X connect 50 1 58 2;
#X connect 51 0 45 0;
#X connect 52 0 46 2;
#X connect 53 0 47 0;
#X connect 54 0 48 2;
#X connect 55 0 49 0;
#X connect 56 0 50 2;
#X connect 61 0 29 1;
#X connect 62 0 24 1;
