#N canvas 150 188 518 379 12;
#X obj 241 80 inversion, f 21;
#X obj 241 104 unpack f f f f, f 24;
#X floatatom 241 128 5 0 0 0 - - - 0;
#X floatatom 296 128 5 0 0 0 - - - 0;
#X floatatom 351 128 5 0 0 0 - - - 0;
#X floatatom 385 33 5 0 0 0 - - - 0;
#X floatatom 241 33 5 0 0 0 - - - 0;
#X obj 66 236 *~;
#X obj 66 260 *~, f 44;
#X obj 66 284 out~;
#X obj 241 151 mtof;
#X obj 241 175 osc~;
#X obj 296 151 mtof;
#X obj 296 175 osc~;
#X obj 351 151 mtof;
#X obj 351 175 osc~;
#X obj 66 51 bng 15 250 50 0 empty empty empty 17 7 0 10 #fcfcfc #000000
#000000;
#X obj 241 56 chord ionian 60;
#X obj 66 212 ahdsr~ 5 50 500 0.2 500;
#X obj 371 236 *~ 0.333;
#X connect 0 0 1 0;
#X connect 1 0 2 0;
#X connect 1 1 3 0;
#X connect 1 2 4 0;
#X connect 2 0 10 0;
#X connect 3 0 12 0;
#X connect 4 0 14 0;
#X connect 5 0 0 1;
#X connect 5 0 16 0;
#X connect 6 0 16 0;
#X connect 6 0 17 0;
#X connect 7 0 8 0;
#X connect 8 0 9 0;
#X connect 8 0 9 1;
#X connect 10 0 11 0;
#X connect 11 0 19 0;
#X connect 12 0 13 0;
#X connect 13 0 19 0;
#X connect 14 0 15 0;
#X connect 15 0 19 0;
#X connect 16 0 18 0;
#X connect 17 0 0 0;
#X connect 18 0 7 0;
#X connect 18 0 7 1;
#X connect 19 0 8 1;
