#N canvas 446 219 1066 665 12;
#X obj 845 208 ff;
#X obj 510 208 r ffs8;
#X obj 232 232 f;
#X obj 492 232 f;
#X obj 250 208 r ffs1;
#X obj 349 148 tgl 15 0 empty empty empty 17 7 0 10 #fcfcfc #000000
#000000 0 1;
#X obj 328 562 out~;
#X obj 188 367 mtof;
#X obj 220 367 mtof;
#X obj 251 367 mtof;
#X obj 188 479 osc~;
#X obj 220 479 osc~;
#X obj 251 479 osc~;
#X obj 344 523 *~ 0.25;
#X obj 349 172 metro 50, f 10;
#X obj 448 479 osc~;
#X obj 448 367 mtof;
#X obj 251 319 musicmouse ionian;
#X obj 416 100 r ffx;
#X obj 416 148 scaled 0 1 40 400;
#X obj 416 124 oneminus;
#X obj 349 124 loadbang;
#X msg 188 411 \$1 50;
#X obj 188 435 line;
#X msg 220 411 \$1 50;
#X obj 220 435 line;
#X msg 251 411 \$1 50;
#X obj 251 435 line;
#X msg 448 411 \$1 50;
#X obj 448 435 line;
#X connect 1 0 3 1;
#X connect 2 0 17 0;
#X connect 3 0 17 1;
#X connect 4 0 2 1;
#X connect 5 0 14 0;
#X connect 7 0 22 0;
#X connect 8 0 24 0;
#X connect 9 0 26 0;
#X connect 10 0 13 0;
#X connect 11 0 13 0;
#X connect 12 0 13 0;
#X connect 13 0 6 0;
#X connect 13 0 6 1;
#X connect 14 0 2 0;
#X connect 14 0 3 0;
#X connect 15 0 13 0;
#X connect 16 0 28 0;
#X connect 17 0 7 0;
#X connect 17 1 8 0;
#X connect 17 2 9 0;
#X connect 17 3 16 0;
#X connect 18 0 20 0;
#X connect 19 0 14 1;
#X connect 20 0 19 0;
#X connect 21 0 5 0;
#X connect 22 0 23 0;
#X connect 23 0 10 0;
#X connect 24 0 25 0;
#X connect 25 0 11 0;
#X connect 26 0 27 0;
#X connect 27 0 12 0;
#X connect 28 0 29 0;
#X connect 29 0 15 0;
