#N canvas 446 219 1066 665 12;
#X obj 845 208 ff;
#X obj 510 208 r ffs8;
#X obj 232 232 f;
#X obj 492 232 f;
#X obj 250 208 r ffs1;
#X obj 349 148 tgl 15 0 empty empty empty 17 7 0 10 #fcfcfc #000000
#000000 0 1;
#X obj 328 612 out~;
#X obj 188 367 mtof;
#X obj 220 367 mtof;
#X obj 251 367 mtof;
#X obj 188 479 osc~;
#X obj 220 479 osc~;
#X obj 251 479 osc~;
#X obj 344 573 *~ 0.25;
#X obj 448 479 osc~;
#X obj 448 367 mtof;
#X obj 416 100 r ffx;
#X obj 416 148 scaled 0 1 40 400;
#X obj 416 124 oneminus;
#X obj 349 124 loadbang;
#X obj 188 435 line;
#X obj 220 435 line;
#X obj 251 435 line;
#X obj 448 435 line;
#X obj 251 343 t b f;
#X obj 339 533 *~;
#X obj 300 476 pow~ 2;
#X obj 300 452 ahdsr~ 5 50 250 0.3 250;
#X obj 395 339 t b f;
#X obj 466 527 pow~ 2;
#X obj 466 503 ahdsr~ 5 50 250 0.3 250;
#X obj 448 551 *~;
#X msg 188 411 \$1 15;
#X msg 220 411 \$1 15;
#X msg 251 411 \$1 15;
#X msg 448 411 \$1 15;
#X obj 251 319 musicmouse ionian 1;
#X obj 448 575 echo~ 250 0.6;
#X obj 349 172 metro 200, f 10;
#X connect 1 0 3 1;
#X connect 2 0 36 0;
#X connect 3 0 36 1;
#X connect 4 0 2 1;
#X connect 5 0 38 0;
#X connect 7 0 32 0;
#X connect 8 0 33 0;
#X connect 9 0 34 0;
#X connect 10 0 25 0;
#X connect 11 0 25 0;
#X connect 12 0 25 0;
#X connect 13 0 6 0;
#X connect 13 0 6 1;
#X connect 14 0 31 0;
#X connect 15 0 35 0;
#X connect 16 0 18 0;
#X connect 17 0 38 1;
#X connect 18 0 17 0;
#X connect 19 0 5 0;
#X connect 20 0 10 0;
#X connect 21 0 11 0;
#X connect 22 0 12 0;
#X connect 23 0 14 0;
#X connect 24 1 7 0;
#X connect 24 1 27 0;
#X connect 25 0 13 0;
#X connect 26 0 25 1;
#X connect 27 0 26 0;
#X connect 28 0 30 0;
#X connect 28 1 15 0;
#X connect 29 0 31 1;
#X connect 30 0 29 0;
#X connect 31 0 13 0;
#X connect 31 0 37 0;
#X connect 32 0 20 0;
#X connect 33 0 21 0;
#X connect 34 0 22 0;
#X connect 35 0 23 0;
#X connect 36 0 24 0;
#X connect 36 1 8 0;
#X connect 36 2 9 0;
#X connect 36 3 28 0;
#X connect 37 0 13 0;
#X connect 38 0 2 0;
#X connect 38 0 3 0;
