#N canvas 441 80 1071 659 12;
#X obj 845 208 ff;
#X obj 510 208 r ffs8;
#X obj 232 232 f;
#X obj 492 232 f;
#X obj 250 208 r ffs1;
#X obj 349 148 tgl 15 0 empty empty empty 17 7 0 10 #fcfcfc #000000
#000000 0 1;
#X obj 416 100 r ffx;
#X obj 416 124 oneminus;
#X obj 349 124 loadbang;
#X obj 251 343 makenote 127 100;
#X obj 383 343 makenote 127 100;
#X obj 515 343 makenote 127 100;
#X obj 647 343 makenote 127 100;
#X obj 251 367 miniloguexd, f 16;
#X obj 383 367 miniloguexd, f 16;
#X obj 515 367 miniloguexd, f 16;
#X obj 647 367 miniloguexd, f 16;
#X obj 251 319 musicmouse ionian 1, f 57;
#X obj 349 172 metro 200, f 10;
#X obj 416 148 scaled 0 1 50 2000;
#X connect 1 0 3 1;
#X connect 2 0 17 0;
#X connect 3 0 17 1;
#X connect 4 0 2 1;
#X connect 5 0 18 0;
#X connect 6 0 7 0;
#X connect 7 0 19 0;
#X connect 8 0 5 0;
#X connect 9 0 13 0;
#X connect 9 1 13 1;
#X connect 10 0 14 0;
#X connect 10 1 14 1;
#X connect 11 0 15 0;
#X connect 11 1 15 1;
#X connect 12 0 16 0;
#X connect 12 1 16 1;
#X connect 17 0 9 0;
#X connect 17 1 10 0;
#X connect 17 2 11 0;
#X connect 17 3 12 0;
#X connect 18 0 2 0;
#X connect 18 0 3 0;
#X connect 19 0 18 1;
