#N canvas 630 90 638 428 12;
#X obj 124 379 out~;
#X obj 26 9 tgl 15 0 empty empty empty 17 7 0 10 -262144 -1 -1 1 1
;
#X obj 26 28 metro 1000;
#X obj 123 324 *~ 1;
#X obj 27 218 booster~ 1 200, f 61;
#X msg 167 147 60 64;
#X msg 211 147 63 64;
#X obj 177 44 i;
#X obj 205 44 + 1;
#X obj 177 68 % 4;
#X obj 199 195 echo~ 500 0.7;
#X msg 256 148 55 64;
#X obj 177 104 sel 1 2;
#X floatatom 117 8 5 0 0 0 - - -;
#X obj 167 173 synthstring~;
#X obj 352 186 polystrings~;
#X obj 150 247 ducker~ 1 20;
#X msg 326 142 48 64;
#X msg 370 142 51 64;
#X msg 415 143 43 64;
#X obj 231 271 *~ 0.5;
#X obj 53 153 * 0.5;
#X obj 102 152 hsl 40 15 0 2 0 0 empty empty empty -2 -8 0 10 -262144
-1 -1 0 1;
#X obj 58 282 * 0.3333;
#X obj 295 93 vcf~ 1;
#X obj 313 46 ahdsr~ 0 0 0 1 200;
#X obj 248 36 del;
#X obj 267 11 / 2;
#X obj 231 295 vibrato~ 2 1;
#X obj 335 315 osc~;
#X obj 335 339 *~;
#X obj 335 269 mtof;
#X obj 376 314 ahdsr~ 5 0 200 0.8 200;
#X msg 301 245 60;
#X msg 331 246 63;
#X msg 361 244 55;
#X obj 361 370 echo~ 250 0.5;
#X obj 256 390 vcf~ 1;
#X obj 335 293 t f b b;
#X obj 187 339 ahdsr~ 500 0 200 0.5 200;
#X obj 187 363 *~ 500;
#X obj 123 348 *~ 1;
#X obj 433 23 * 0.33333;
#X obj 520 11 hsl 40 15 0 1 0 0 empty empty empty -2 -8 0 10 -262144
-1 -1 507 1;
#X obj 248 87 / 2;
#X obj 452 244 *~ 0.4;
#X obj 494 218 hsl 40 15 0 0.5 0 0 empty empty empty -2 -8 0 10 -262144
-1 -1 0 1;
#X obj 8 85 loadbang;
#X msg 8 109 1000;
#X obj 114 83 loadbang;
#X msg 114 107 0;
#X obj 312 70 *~ 2000;
#X obj 517 31 t b f;
#X obj 498 147 loadbang;
#X msg 498 171 0;
#X obj 20 306 echo~ 250 0.2;
#X obj 127 278 echo~ 250 0.3;
#X obj 507 75 loadbang;
#X msg 507 99 0.13;
#X obj 377 106 *~ 0.5;
#X obj 26 194 kick~;
#X connect 1 0 2 0;
#X connect 2 0 7 0;
#X connect 2 0 26 0;
#X connect 2 0 60 0;
#X connect 3 0 41 0;
#X connect 4 0 16 0;
#X connect 4 0 3 0;
#X connect 4 0 55 0;
#X connect 4 1 45 0;
#X connect 5 0 14 0;
#X connect 6 0 14 0;
#X connect 7 0 8 0;
#X connect 7 0 9 0;
#X connect 8 0 7 1;
#X connect 9 0 12 0;
#X connect 10 0 4 1;
#X connect 11 0 14 0;
#X connect 12 0 6 0;
#X connect 12 0 18 0;
#X connect 12 0 33 0;
#X connect 12 1 5 0;
#X connect 12 1 19 0;
#X connect 12 1 34 0;
#X connect 12 2 11 0;
#X connect 12 2 17 0;
#X connect 12 2 35 0;
#X connect 13 0 2 1;
#X connect 13 0 10 1;
#X connect 13 0 21 0;
#X connect 13 0 23 0;
#X connect 13 0 27 0;
#X connect 13 0 42 0;
#X connect 14 0 4 1;
#X connect 14 0 10 0;
#X connect 15 0 24 0;
#X connect 16 1 20 0;
#X connect 17 0 15 0;
#X connect 18 0 15 0;
#X connect 19 0 15 0;
#X connect 20 0 28 0;
#X connect 23 0 36 1;
#X connect 23 0 55 1;
#X connect 24 0 16 1;
#X connect 24 1 59 0;
#X connect 25 0 51 0;
#X connect 26 0 25 0;
#X connect 27 0 26 1;
#X connect 27 0 44 0;
#X connect 28 0 3 0;
#X connect 28 0 56 0;
#X connect 29 0 30 0;
#X connect 30 0 36 0;
#X connect 30 0 37 0;
#X connect 31 0 38 0;
#X connect 32 0 30 1;
#X connect 33 0 31 0;
#X connect 34 0 31 0;
#X connect 35 0 31 0;
#X connect 36 0 37 0;
#X connect 37 0 3 0;
#X connect 38 0 29 0;
#X connect 38 1 32 0;
#X connect 38 2 39 0;
#X connect 39 0 40 0;
#X connect 40 0 37 1;
#X connect 41 0 0 0;
#X connect 41 0 0 1;
#X connect 42 0 25 5;
#X connect 43 0 52 0;
#X connect 44 0 56 1;
#X connect 45 0 3 0;
#X connect 46 0 45 1;
#X connect 47 0 48 0;
#X connect 47 0 1 0;
#X connect 48 0 13 0;
#X connect 49 0 50 0;
#X connect 50 0 22 0;
#X connect 51 0 24 1;
#X connect 52 0 42 0;
#X connect 52 1 42 1;
#X connect 53 0 54 0;
#X connect 54 0 46 0;
#X connect 55 0 3 0;
#X connect 56 0 3 0;
#X connect 57 0 58 0;
#X connect 58 0 43 0;
#X connect 59 0 3 0;
#X connect 60 0 4 0;
