#N canvas 0 38 1512 884 12;
#X obj 1351 10 ff;
#X obj 225 338 r ffs8;
#X obj 77 362 f;
#X obj 207 362 f;
#X obj 95 338 r ffs1;
#X obj 145 275 tgl 15 0 empty empty empty 17 7 0 10 #fcfcfc #000000
#000000 0 1;
#X obj 235 773 out~;
#X obj 14 454 mtof;
#X obj 46 454 mtof;
#X obj 77 454 mtof;
#X obj 334 515 osc~;
#X obj 334 443 mtof;
#X obj 145 251 loadbang;
#X obj 14 522 line;
#X obj 46 522 line;
#X obj 77 522 line;
#X obj 334 491 line;
#X obj 77 410 t b f;
#X obj 207 410 t b f;
#X msg 14 498 \$1 15;
#X msg 46 498 \$1 15;
#X msg 77 498 \$1 15;
#X msg 334 467 \$1 15;
#X obj 145 299 metro 200, f 10;
#X obj 686 132 s ffs1;
#X obj 753 133 t b b;
#X obj 753 197 del;
#X obj 751 225 bng 15 250 50 0 empty empty empty 17 7 0 10 #fcfcfc
#000000 #000000;
#X obj 752 113 bng 15 250 50 0 empty empty empty 17 7 0 10 #fcfcfc
#000000 #000000;
#X obj 963 133 t b b;
#X obj 963 197 del;
#X obj 961 225 bng 15 250 50 0 empty empty empty 17 7 0 10 #fcfcfc
#000000 #000000;
#X obj 962 113 bng 15 250 50 0 empty empty empty 17 7 0 10 #fcfcfc
#000000 #000000;
#X obj 896 132 s ffs8;
#X obj 532 562 scaled 0 1 200 300;
#X obj 589 94 loadbang;
#X obj 532 539 msphsl 0 1;
#X obj 377 723 tapeecho~ 250 0.5;
#X obj 532 610 msphsl 0 1;
#X obj 532 586 lfo sin 0.05;
#X obj 532 515 lfo sin 0.09;
#X obj 1118 446 crackle~;
#X obj 1356 674 scaled 0 1 200 300;
#X obj 1356 651 msphsl 0 1;
#X obj 1356 722 msphsl 0 1;
#X obj 1356 745 scaled 0 1 0 0.8;
#X obj 1356 698 lfo sin 0.05;
#X obj 1356 627 lfo sin 0.09;
#X obj 1197 446 crackle~;
#X obj 1022 676 scaled 0 1 200 300;
#X obj 1022 653 msphsl 0 1;
#X obj 1022 724 msphsl 0 1;
#X obj 1022 747 scaled 0 1 0 0.8;
#X obj 1022 700 lfo sin 0.05;
#X obj 1022 629 lfo sin 0.09;
#X obj 1159 820 out~;
#X obj 1376 506 msphsl 0 1;
#X obj 1376 482 lfo sin 0.04;
#X msg 1376 553 \$1 50;
#X obj 1376 577 line~;
#X obj 1197 566 *~;
#X obj 967 475 msphsl 0 1;
#X msg 967 522 \$1 50;
#X obj 967 546 line~;
#X obj 967 451 lfo sin 0.0375;
#X obj 1118 566 *~;
#X obj 824 725 tapeecho~ 250 0.8;
#X obj 1158 723 tapeecho~ 250 0.8;
#X obj 967 498 scaled 0 1 0 0.8;
#X obj 1376 529 scaled 0 1 0 0.8;
#X obj 1118 470 hip~ 10000;
#X obj 1118 494 hip~ 10000;
#X obj 1118 518 hip~ 10000;
#X obj 1118 542 hip~ 10000;
#X obj 1197 542 hip~ 10000;
#X obj 1197 518 hip~ 10000;
#X obj 1197 494 hip~ 10000;
#X obj 1197 470 hip~ 10000;
#X obj 1185 314 msphsl 0 1;
#X obj 1185 337 scaled 0 1 10000 20000;
#X obj 1264 404 msphsl 0 1;
#X obj 1264 427 scaled 0 1 10000 20000;
#X obj 1264 380 lfo sin 0.037;
#X obj 1185 290 lfo sin 0.033;
#X obj 777 160 randrange 0 8000;
#X obj 694 65 randwalk 100 800;
#X obj 371 515 noiseosc~;
#X obj 14 566 osc~;
#X obj 150 488 msphsl 0 1;
#X obj 46 637 clip~ 0 0;
#X obj 146 566 t f f, f 15;
#X obj 146 590 * -1;
#X obj 46 566 osc~;
#X obj 78 566 osc~;
#X obj 251 734 *~ 0.4;
#X obj 334 670 *~ 0.8;
#X obj 904 65 randwalk 250 800;
#X obj 334 647 clip~ 0 0;
#X obj 352 539 ahdsr 5 50 250 0.3 250;
#X obj 352 563 pow 2;
#X obj 352 587 t f f, f 6;
#X obj 352 611 * -1;
#X obj 46 610 *~ 0.3;
#X obj 532 633 scaled 0 1 0 0.5;
#X obj 48 781 hv.reverb;
#X msg 47 712 dry-gain 0;
#X obj 48 805 out~;
#X msg 73 738 wet-gain 80;
#X obj 293 758 throw~ reverb-bus;
#X obj 7 751 catch~ reverb-bus;
#X obj 788 775 throw~ reverb-bus;
#X obj 1254 798 throw~ reverb-bus;
#X obj 1147 614 throw~ reverb-bus;
#X obj 987 160 randrange 0 6000;
#X obj 150 511 scaled 0 1 500 2000;
#X obj 146 542 ahdsr 0 100 200 0.3 1000;
#X obj 150 464 lfo tri 0.12;
#X obj 77 386 musicmouse ionian 2;
#X connect 1 0 3 1;
#X connect 2 0 117 0;
#X connect 3 0 117 1;
#X connect 4 0 2 1;
#X connect 5 0 23 0;
#X connect 7 0 19 0;
#X connect 8 0 20 0;
#X connect 9 0 21 0;
#X connect 10 0 97 0;
#X connect 11 0 22 0;
#X connect 12 0 5 0;
#X connect 13 0 87 0;
#X connect 14 0 92 0;
#X connect 15 0 93 0;
#X connect 16 0 10 0;
#X connect 16 0 86 0;
#X connect 17 0 115 0;
#X connect 17 1 7 0;
#X connect 18 0 98 0;
#X connect 18 1 11 0;
#X connect 19 0 13 0;
#X connect 20 0 14 0;
#X connect 21 0 15 0;
#X connect 22 0 16 0;
#X connect 23 0 2 0;
#X connect 23 0 3 0;
#X connect 25 0 26 0;
#X connect 25 1 84 0;
#X connect 26 0 27 0;
#X connect 27 0 85 0;
#X connect 28 0 25 0;
#X connect 29 0 30 0;
#X connect 29 1 113 0;
#X connect 30 0 31 0;
#X connect 31 0 96 0;
#X connect 32 0 29 0;
#X connect 34 0 37 1;
#X connect 35 0 28 0;
#X connect 35 0 32 0;
#X connect 36 0 34 0;
#X connect 37 0 94 0;
#X connect 38 0 103 0;
#X connect 39 0 38 0;
#X connect 40 0 36 0;
#X connect 41 0 70 0;
#X connect 42 0 67 1;
#X connect 43 0 42 0;
#X connect 44 0 45 0;
#X connect 45 0 67 2;
#X connect 46 0 44 0;
#X connect 47 0 43 0;
#X connect 48 0 77 0;
#X connect 49 0 66 1;
#X connect 50 0 49 0;
#X connect 51 0 52 0;
#X connect 52 0 66 2;
#X connect 53 0 51 0;
#X connect 54 0 50 0;
#X connect 56 0 69 0;
#X connect 57 0 56 0;
#X connect 58 0 59 0;
#X connect 59 0 60 1;
#X connect 60 0 55 1;
#X connect 60 0 67 0;
#X connect 60 0 112 0;
#X connect 61 0 68 0;
#X connect 62 0 63 0;
#X connect 63 0 65 1;
#X connect 64 0 61 0;
#X connect 65 0 55 0;
#X connect 65 0 66 0;
#X connect 65 0 112 0;
#X connect 66 0 55 0;
#X connect 66 0 110 0;
#X connect 67 0 55 1;
#X connect 67 0 111 0;
#X connect 68 0 62 0;
#X connect 69 0 58 0;
#X connect 70 0 71 0;
#X connect 71 0 72 0;
#X connect 72 0 73 0;
#X connect 73 0 65 0;
#X connect 74 0 60 0;
#X connect 75 0 74 0;
#X connect 76 0 75 0;
#X connect 77 0 76 0;
#X connect 78 0 79 0;
#X connect 79 0 70 1;
#X connect 79 0 73 1;
#X connect 79 0 72 1;
#X connect 79 0 71 1;
#X connect 80 0 81 0;
#X connect 81 0 77 1;
#X connect 81 0 76 1;
#X connect 81 0 75 1;
#X connect 81 0 74 1;
#X connect 82 0 80 0;
#X connect 83 0 78 0;
#X connect 84 0 26 1;
#X connect 85 0 24 0;
#X connect 85 1 28 0;
#X connect 86 0 97 0;
#X connect 87 0 102 0;
#X connect 88 0 114 0;
#X connect 89 0 94 0;
#X connect 90 0 91 0;
#X connect 90 1 89 2;
#X connect 91 0 89 1;
#X connect 92 0 102 0;
#X connect 93 0 102 0;
#X connect 94 0 6 0;
#X connect 94 0 6 1;
#X connect 94 0 108 0;
#X connect 95 0 94 0;
#X connect 95 0 37 0;
#X connect 96 0 33 0;
#X connect 96 1 32 0;
#X connect 97 0 95 0;
#X connect 98 0 99 0;
#X connect 99 0 100 0;
#X connect 100 0 101 0;
#X connect 100 1 97 2;
#X connect 101 0 97 1;
#X connect 102 0 89 0;
#X connect 103 0 37 2;
#X connect 104 0 106 0;
#X connect 104 1 106 1;
#X connect 105 0 104 1;
#X connect 107 0 104 1;
#X connect 109 0 104 0;
#X connect 113 0 30 1;
#X connect 114 0 115 5;
#X connect 115 0 90 0;
#X connect 116 0 88 0;
#X connect 117 0 17 0;
#X connect 117 1 8 0;
#X connect 117 2 9 0;
#X connect 117 3 18 0;
