#N canvas 441 80 1071 659 12;
#X obj 845 208 ff;
#X obj 510 208 r ffs8;
#X obj 232 232 f;
#X obj 492 232 f;
#X obj 250 208 r ffs1;
#X obj 251 343 makenote 127 100;
#X obj 383 343 makenote 127 100;
#X obj 515 343 makenote 127 100;
#X obj 647 343 makenote 127 100;
#X obj 251 367 miniloguexd, f 16;
#X obj 383 367 miniloguexd, f 16;
#X obj 515 367 miniloguexd, f 16;
#X obj 251 319 musicmouse ionian 1, f 57;
#X obj 369 64 midiclockin;
#X obj 369 88 bng 15 250 50 0 empty empty empty 17 7 0 10 #fcfcfc #000000
#000000;
#X obj 369 108 counter 2;
#X obj 369 132 sel 0;
#X obj 369 156 bng 15 250 50 0 empty empty empty 17 7 0 10 #fcfcfc
#000000 #000000;
#X obj 647 367 microbrute, f 16;
#X connect 1 0 3 1;
#X connect 2 0 12 0;
#X connect 3 0 12 1;
#X connect 4 0 2 1;
#X connect 5 0 9 0;
#X connect 5 1 9 1;
#X connect 6 0 10 0;
#X connect 6 1 10 1;
#X connect 7 0 11 0;
#X connect 7 1 11 1;
#X connect 8 0 18 0;
#X connect 8 1 18 1;
#X connect 12 0 5 0;
#X connect 12 1 6 0;
#X connect 12 2 7 0;
#X connect 12 3 8 0;
#X connect 13 0 14 0;
#X connect 14 0 15 0;
#X connect 15 0 16 0;
#X connect 16 0 17 0;
#X connect 17 0 2 0;
#X connect 17 0 3 0;
