#N canvas 0 38 1512 884 12;
#X obj 1351 10 ff;
#X obj 77 362 f;
#X obj 207 362 f;
#X obj 235 773 out~;
#X obj 14 454 mtof;
#X obj 46 454 mtof;
#X obj 77 454 mtof;
#X obj 334 443 mtof;
#X obj 14 522 line;
#X obj 46 522 line;
#X obj 77 522 line;
#X obj 334 491 line;
#X obj 77 410 t b f;
#X obj 207 410 t b f;
#X msg 14 498 \$1 15;
#X msg 46 498 \$1 15;
#X msg 77 498 \$1 15;
#X msg 334 467 \$1 15;
#X obj 14 566 osc~;
#X obj 46 566 osc~;
#X obj 78 566 osc~;
#X obj 46 610 *~ 0.3;
#X obj 929 786 hv.reverb;
#X msg 893 702 dry-gain 0;
#X obj 929 810 out~;
#X msg 971 702 wet-gain 80;
#X obj 888 726 catch~ reverb-bus;
#X obj 77 386 musicmouse ionian 2;
#X obj 493 42 tgl 15 0 empty empty empty 17 7 0 10 #fcfcfc #000000
#000000 0 1;
#X obj 724 20 r ffx;
#X obj 493 90 bng 15 250 50 0 empty empty empty 17 7 0 10 #fcfcfc #000000
#000000;
#X obj 138 181 probturing ffk1 ffs1;
#X obj 282 181 probturing ffk2 ffs2;
#X obj 297 22 r ffb8;
#X obj 297 46 sel 1;
#X obj 297 70 bng 15 250 50 0 empty empty empty 17 7 0 10 #fcfcfc #000000
#000000;
#X floatatom 724 68 5 0 0 0 - - - 0;
#X obj 724 91 bpmtoms;
#X obj 692 143 metro;
#X obj 724 115 / 2;
#X obj 724 44 scaled 0 1 60 300;
#X floatatom 138 205 5 0 0 0 - - - 0;
#X floatatom 282 205 5 0 0 0 - - - 0;
#X obj 334 515 saw~;
#X obj 374 537 saw~;
#X obj 374 510 * 1.01;
#X obj 334 646 vibrato~ 0.6 0.1;
#X obj 251 734 *~ 1;
#X msg 647 477 \$1 10;
#X obj 647 501 line~;
#X obj 46 685 vcf~ 1.1;
#X msg 828 477 \$1 10;
#X obj 828 501 line~;
#X obj 166 704 throw~ reverb-bus;
#X obj 935 680 loadbang;
#X obj 888 750 *~ 0.7;
#X obj 647 429 ahdsr 10 20 80 0.2 200;
#X obj 828 429 ahdsr 5 40 750 0.3 40;
#X obj 647 453 *;
#X obj 828 453 *;
#X obj 1074 369 bng 15 250 50 0 empty empty empty 17 7 0 10 #fcfcfc
#000000 #000000;
#X obj 1074 393 randwalk 20 5000;
#X obj 1074 434 * 12000;
#X obj 1215 369 bng 15 250 50 0 empty empty empty 17 7 0 10 #fcfcfc
#000000 #000000;
#X obj 1215 393 randwalk 20 5000;
#X obj 1215 434 * 12000;
#X obj 682 286 bng 15 250 50 0 empty empty empty 17 7 0 10 #fcfcfc
#000000 #000000;
#X obj 682 310 randwalk 20 5000;
#X obj 823 286 bng 15 250 50 0 empty empty empty 17 7 0 10 #fcfcfc
#000000 #000000;
#X obj 823 310 randwalk 20 5000;
#X obj 682 351 scaled 0 1 50 200;
#X obj 823 351 scaled 0 1 50 200;
#X obj 46 637 clip~ -0.8 0.8;
#X obj 46 709 *~ 0.5;
#X obj 334 670 vcf~ 1;
#X obj 238 671 *~ 0.4;
#X obj 334 694 *~ 0.1;
#X connect 1 0 27 0;
#X connect 2 0 27 1;
#X connect 4 0 14 0;
#X connect 5 0 15 0;
#X connect 6 0 16 0;
#X connect 7 0 17 0;
#X connect 8 0 18 0;
#X connect 9 0 19 0;
#X connect 10 0 20 0;
#X connect 11 0 43 0;
#X connect 11 0 45 0;
#X connect 12 0 56 0;
#X connect 12 1 4 0;
#X connect 13 0 57 0;
#X connect 13 1 7 0;
#X connect 14 0 8 0;
#X connect 15 0 9 0;
#X connect 16 0 10 0;
#X connect 17 0 11 0;
#X connect 18 0 21 0;
#X connect 19 0 21 0;
#X connect 20 0 21 0;
#X connect 21 0 72 0;
#X connect 22 0 24 0;
#X connect 22 1 24 1;
#X connect 23 0 22 1;
#X connect 25 0 22 1;
#X connect 26 0 55 0;
#X connect 27 0 12 0;
#X connect 27 1 5 0;
#X connect 27 2 6 0;
#X connect 27 3 13 0;
#X connect 28 0 38 0;
#X connect 29 0 40 0;
#X connect 30 0 31 0;
#X connect 30 0 32 0;
#X connect 31 0 41 0;
#X connect 32 0 42 0;
#X connect 33 0 34 0;
#X connect 34 0 35 0;
#X connect 35 0 28 0;
#X connect 36 0 37 0;
#X connect 37 0 39 0;
#X connect 38 0 30 0;
#X connect 39 0 38 1;
#X connect 40 0 36 0;
#X connect 41 0 1 0;
#X connect 42 0 2 0;
#X connect 43 0 46 0;
#X connect 44 0 46 0;
#X connect 45 0 44 0;
#X connect 46 0 74 0;
#X connect 47 0 3 0;
#X connect 47 0 3 1;
#X connect 48 0 49 0;
#X connect 49 0 50 1;
#X connect 50 0 53 0;
#X connect 50 1 73 0;
#X connect 51 0 52 0;
#X connect 52 0 74 1;
#X connect 54 0 23 0;
#X connect 54 0 25 0;
#X connect 55 0 22 0;
#X connect 56 0 58 0;
#X connect 57 0 59 0;
#X connect 58 0 48 0;
#X connect 59 0 51 0;
#X connect 60 0 61 0;
#X connect 61 0 62 0;
#X connect 61 1 60 0;
#X connect 62 0 58 1;
#X connect 63 0 64 0;
#X connect 64 0 65 0;
#X connect 64 1 63 0;
#X connect 65 0 59 1;
#X connect 66 0 67 0;
#X connect 67 0 70 0;
#X connect 67 1 66 0;
#X connect 68 0 69 0;
#X connect 69 0 71 0;
#X connect 69 1 68 0;
#X connect 70 0 56 3;
#X connect 71 0 57 3;
#X connect 72 0 50 0;
#X connect 73 0 47 0;
#X connect 74 0 75 0;
#X connect 74 1 76 0;
#X connect 75 0 53 0;
#X connect 76 0 47 0;
