#N canvas 466 184 730 300 12;
#X obj 199 139 moses~ 1, f 31;
#X obj 196 51 osc~ 1;
#X obj 259 226 snapshotter~ -1 1;
#X obj 325 50 sig~;
#X obj 199 99 *~;
#X obj 199 163 moses~ -1;
#X obj 419 226 snapshotter~ 1 2;
#X obj 98 226 snapshotter~ -2 -1;
#X obj 436 8 loadbang;
#X msg 436 32 1.2;
#X connect 0 0 5 0;
#X connect 0 1 6 0;
#X connect 1 0 4 0;
#X connect 3 0 4 1;
#X connect 4 0 0 0;
#X connect 5 0 7 0;
#X connect 5 1 2 0;
#X connect 8 0 9 0;
#X connect 9 0 3 0;
