#N canvas 483 139 1007 300 12;
#X obj 340 145 *~;
#X obj 340 169 wavefolder~;
#X obj 340 193 out~;
#X msg 463 130 \$1 10;
#X obj 463 154 line~;
#X obj 457 48 randwalk 200 1200;
#X obj 457 28 bng 15 250 50 0 empty empty empty 17 7 0 10 #fcfcfc #000000
#000000;
#X obj 456 5 loadbang;
#X floatatom 299 62 5 0 0 0 - - - 0;
#X obj 299 85 sig~;
#X obj 195 124 saw~;
#X obj 707 261 table display;
#X obj 433 222 tabwrite~ display;
#X obj 550 143 loadbang;
#X obj 550 167 tgl 15 0 empty empty empty 17 7 0 10 #fcfcfc #000000
#000000 0 1;
#X obj 550 191 metro 100;
#X obj 299 14 loadbang;
#X msg 299 38 75;
#X text 192 146 ^ connect for fun ->;
#X text 614 240 click to see the wavefolding/clipping;
#X text 566 89 <- scale to a value higher than 5 for nice clipping
;
#X obj 27 15 randwalk 400 4000;
#X msg 27 80 \$1 10;
#X obj 27 104 line~;
#X obj 190 81 *~;
#X obj 172 18 bng 15 250 50 0 empty empty empty 17 7 0 10 #fcfcfc #000000
#000000;
#X obj 340 121 osc~;
#X obj 457 89 scaled 0 1 1 5;
#X obj 27 56 scaled 0 1 1.99 2.01;
#X connect 0 0 1 0;
#X connect 1 0 2 0;
#X connect 1 0 2 1;
#X connect 1 0 12 0;
#X connect 3 0 4 0;
#X connect 4 0 0 1;
#X connect 5 0 27 0;
#X connect 5 1 6 0;
#X connect 6 0 5 0;
#X connect 7 0 6 0;
#X connect 8 0 9 0;
#X connect 9 0 24 1;
#X connect 9 0 26 0;
#X connect 13 0 14 0;
#X connect 14 0 15 0;
#X connect 15 0 12 0;
#X connect 16 0 17 0;
#X connect 16 0 25 0;
#X connect 16 0 6 0;
#X connect 17 0 8 0;
#X connect 21 0 28 0;
#X connect 21 1 25 0;
#X connect 22 0 23 0;
#X connect 23 0 24 0;
#X connect 24 0 10 0;
#X connect 25 0 21 0;
#X connect 26 0 0 0;
#X connect 27 0 3 0;
#X connect 28 0 22 0;
