#N canvas 0 38 1512 884 12;
#X obj 1106 746 mspdfam;
#X obj 1113 603 mspparam vcfcutoff;
#X obj 1113 333 mspparam vco1egamount;
#X obj 1113 410 mspparam vco2egamount;
#X obj 1113 352 mspparam vco1frequency;
#X obj 1113 429 mspparam vco2frequency;
#X obj 1113 371 mspparam vco1level;
#X obj 1113 448 mspparam vco2level;
#X obj 1113 487 mspparam fmamount;
#X obj 1113 506 mspparam syncamount;
#X obj 1113 545 mspparam noiselevel;
#X obj 1113 564 mspparam noisevcfmod;
#X obj 1113 622 mspparam vcfegamount;
#X obj 1113 641 mspparam vcfdecay;
#X obj 1113 660 mspparam vcfresonance;
#X obj 1113 699 mspparam vcadecay;
#X obj 1113 256 mspparam pitch;
#X obj 1113 275 mspparam velocity;
#X obj 1113 294 mspparam vcodecay;
#X obj 1317 18 ff;
#X obj 963 222 probturing ffk1 ffs1;
#X obj 1113 222 probturing ffk2 ffs2;
#X obj 612 712 hradio 15 1 0 4 empty empty empty 0 -8 0 10 #fcfcfc
#000000 #000000 0;
#X obj 698 712 hradio 15 1 0 4 empty empty empty 0 -8 0 10 #fcfcfc
#000000 #000000 0;
#X msg 612 727 vco1wave \$1;
#X msg 698 727 vco2wave \$1;
#X obj 504 712 hradio 15 1 0 3 empty empty empty 0 -8 0 10 #fcfcfc
#000000 #000000 0;
#X msg 504 727 seqpitchmod \$1;
#X obj 785 712 tgl 15 0 empty empty empty 17 7 0 10 #fcfcfc #000000
#000000 0 1;
#X obj 921 712 tgl 15 0 empty empty empty 17 7 0 10 #fcfcfc #000000
#000000 0 1;
#X msg 785 727 patchpitchtovcf \$1;
#X msg 921 727 patchpitchtonoisemod \$1;
#X obj 1106 800 wavefolder~;
#X obj 1106 824 out~;
#X obj 382 351 mtof;
#X obj 382 327 quantizedmode harmonicminor 60;
#X msg 382 375 \$1 10;
#X obj 382 399 line~;
#N canvas 150 188 791 300 wavefoldedsynth~ 0;
#X obj 340 145 *~;
#X obj 340 169 wavefolder~;
#X msg 463 130 \$1 10;
#X obj 463 154 line~;
#X obj 457 48 randwalk 200 1200;
#X obj 457 28 bng 15 250 50 0 empty empty empty 17 7 0 10 #fcfcfc #000000
#000000;
#X obj 456 5 loadbang;
#X obj 195 124 saw~;
#X obj 299 14 loadbang;
#X text 192 146 ^ connect for fun ->;
#X obj 27 15 randwalk 400 4000;
#X msg 27 80 \$1 10;
#X obj 27 104 line~;
#X obj 190 81 *~;
#X obj 172 18 bng 15 250 50 0 empty empty empty 17 7 0 10 #fcfcfc #000000
#000000;
#X obj 340 121 osc~;
#X obj 27 56 scaled 0 1 1.99 2.01;
#X obj 340 193 outlet~;
#X obj 708 13 inlet~;
#X obj 457 89 scaled 0 1 1 50;
#X connect 0 0 1 0;
#X connect 1 0 17 0;
#X connect 2 0 3 0;
#X connect 3 0 0 1;
#X connect 4 0 19 0;
#X connect 4 1 5 0;
#X connect 5 0 4 0;
#X connect 6 0 5 0;
#X connect 7 0 0 0;
#X connect 8 0 14 0;
#X connect 8 0 5 0;
#X connect 10 0 16 0;
#X connect 10 1 14 0;
#X connect 11 0 12 0;
#X connect 12 0 13 0;
#X connect 13 0 7 0;
#X connect 14 0 10 0;
#X connect 15 0 0 0;
#X connect 16 0 11 0;
#X connect 18 0 15 0;
#X connect 18 0 13 1;
#X connect 19 0 2 0;
#X restore 167 465 pd wavefoldedsynth~;
#N canvas 150 188 791 300 wavefoldedsynth~ 0;
#X obj 340 145 *~;
#X obj 340 169 wavefolder~;
#X msg 463 130 \$1 10;
#X obj 463 154 line~;
#X obj 457 48 randwalk 200 1200;
#X obj 457 28 bng 15 250 50 0 empty empty empty 17 7 0 10 #fcfcfc #000000
#000000;
#X obj 456 5 loadbang;
#X obj 195 124 saw~;
#X obj 299 14 loadbang;
#X text 192 146 ^ connect for fun ->;
#X obj 27 15 randwalk 400 4000;
#X msg 27 80 \$1 10;
#X obj 27 104 line~;
#X obj 190 81 *~;
#X obj 172 18 bng 15 250 50 0 empty empty empty 17 7 0 10 #fcfcfc #000000
#000000;
#X obj 340 121 osc~;
#X obj 27 56 scaled 0 1 1.99 2.01;
#X obj 340 193 outlet~;
#X obj 708 13 inlet~;
#X obj 457 89 scaled 0 1 1 50;
#X connect 0 0 1 0;
#X connect 1 0 17 0;
#X connect 2 0 3 0;
#X connect 3 0 0 1;
#X connect 4 0 19 0;
#X connect 4 1 5 0;
#X connect 5 0 4 0;
#X connect 6 0 5 0;
#X connect 7 0 0 0;
#X connect 8 0 14 0;
#X connect 8 0 5 0;
#X connect 10 0 16 0;
#X connect 10 1 14 0;
#X connect 11 0 12 0;
#X connect 12 0 13 0;
#X connect 13 0 7 0;
#X connect 14 0 10 0;
#X connect 15 0 0 0;
#X connect 16 0 11 0;
#X connect 18 0 15 0;
#X connect 18 0 13 1;
#X connect 19 0 2 0;
#X restore 309 465 pd wavefoldedsynth~;
#X obj 139 352 mtof;
#X obj 139 328 quantizedmode harmonicminor 60;
#X msg 139 376 \$1 10;
#X obj 139 400 line~;
#N canvas 179 217 625 300 reverb~ 0;
#X obj 182 48 inlet~;
#X obj 182 102 hv.reverb, f 13;
#X obj 182 166 outlet~;
#X obj 244 168 outlet~;
#X obj 317 30 loadbang;
#X msg 317 54 wet-gain 100;
#X msg 414 54 dry-gain 0;
#X obj 182 72 *~ 0.3;
#X obj 381 134 inlet;
#X obj 381 158 tgl 15 0 empty empty empty 17 7 0 10 #fcfcfc #000000
#000000 0 1;
#X obj 381 182 * 100;
#X obj 463 179 absdiff 100;
#X obj 381 206 ramp 1000;
#X obj 463 203 ramp 1000;
#X msg 381 230 wet-gain \$1;
#X msg 463 227 dry-gain \$1;
#X obj 182 126 hip~ 1000;
#X obj 252 126 hip~ 1000;
#X connect 0 0 7 0;
#X connect 1 0 16 0;
#X connect 1 1 17 0;
#X connect 4 0 5 0;
#X connect 4 0 6 0;
#X connect 5 0 1 1;
#X connect 6 0 1 1;
#X connect 7 0 1 0;
#X connect 8 0 9 0;
#X connect 9 0 10 0;
#X connect 10 0 11 0;
#X connect 10 0 12 0;
#X connect 11 0 13 0;
#X connect 12 0 14 0;
#X connect 13 0 15 0;
#X connect 14 0 1 1;
#X connect 15 0 1 1;
#X connect 16 0 2 0;
#X connect 17 0 3 0;
#X restore 990 791 pd reverb~;
#X obj 990 815 out~;
#X msg 1250 825 \$1 10;
#X obj 1250 849 line~;
#X obj 1106 770 *~;
#X obj 1251 729 hsl 128 15 0 1 0 0 empty empty empty -2 -8 0 10 #fcfcfc
#000000 #000000 0 1;
#X obj 1248 749 easeinsine;
#X obj 1248 773 scaled 0 1 1 250;
#X floatatom 1248 797 5 0 0 0 - - - 0;
#X obj 139 304 scaled 0 1 32 73;
#X obj 382 303 scaled 0 1 32 73;
#X obj 139 274 t b f;
#X obj 382 273 t b f;
#X obj 725 17 bng 15 250 50 0 empty empty empty 17 7 0 10 #fcfcfc #000000
#000000;
#N canvas 454 270 450 300 unreliablemetro 0;
#X obj 138 26 inlet;
#X obj 238 60 tgl 15 0 empty empty empty 17 7 0 10 #fcfcfc #000000
#000000 0 1;
#X obj 201 60 bng 15 250 50 0 empty empty empty 17 7 0 10 #fcfcfc #000000
#000000;
#X obj 201 124 t b b;
#X obj 254 178 del;
#X obj 254 154 randrange 95 105;
#X obj 201 80 spigot;
#X obj 138 50 t f f;
#X obj 138 74 sel 1;
#X obj 320 34 inlet;
#X obj 320 58 t f f;
#X obj 320 82 - 8;
#X obj 348 85 + 8;
#X obj 161 228 bng 15 250 50 0 empty empty empty 17 7 0 10 #fcfcfc
#000000 #000000;
#X obj 161 252 outlet;
#X floatatom 320 106 5 0 0 0 - - - 0;
#X floatatom 358 109 5 0 0 0 - - - 0;
#X connect 0 0 7 0;
#X connect 1 0 6 1;
#X connect 2 0 6 0;
#X connect 3 0 13 0;
#X connect 3 1 5 0;
#X connect 4 0 2 0;
#X connect 5 0 4 0;
#X connect 6 0 3 0;
#X connect 7 0 8 0;
#X connect 7 1 1 0;
#X connect 8 0 2 0;
#X connect 9 0 10 0;
#X connect 10 0 11 0;
#X connect 10 1 12 0;
#X connect 11 0 15 0;
#X connect 12 0 16 0;
#X connect 13 0 14 0;
#X connect 15 0 5 1;
#X connect 16 0 5 2;
#X restore 844 35 pd unreliablemetro;
#X obj 837 9 tgl 15 0 empty empty empty 17 7 0 10 #fcfcfc #000000 #000000
0 1;
#X floatatom 929 5 5 0 0 0 - - - 0;
#X obj 248 151 generative16step 100 300;
#X obj 278 101 counter 16;
#X obj 330 131 tgl 15 0 empty empty empty 17 7 0 10 #fcfcfc #000000
#000000 0 1;
#X obj 477 170 generative16step 100 300;
#X obj 507 120 counter 16;
#X obj 559 150 tgl 15 0 empty empty empty 17 7 0 10 #fcfcfc #000000
#000000 0 1;
#X obj 56 146 generative16step 100 300;
#X obj 86 96 counter 16;
#X obj 138 126 tgl 15 0 empty empty empty 17 7 0 10 #fcfcfc #000000
#000000 0 1;
#X obj 657 175 generative16step 100 300;
#X obj 687 125 counter 16;
#X obj 739 155 tgl 15 0 empty empty empty 17 7 0 10 #fcfcfc #000000
#000000 0 1;
#X obj 237 75 t b b;
#X obj 531 78 t b b;
#X obj 56 170 spigot;
#X obj 378 109 msphsl 0 1;
#X obj 248 175 <;
#X obj 248 199 tgl 15 0 empty empty empty 17 7 0 10 #fcfcfc #000000
#000000 0 1;
#X obj 477 194 spigot;
#X obj 657 199 <;
#X obj 657 223 tgl 15 0 empty empty empty 17 7 0 10 #fcfcfc #000000
#000000 0 1;
#X obj 364 8 mspkeyboard;
#X obj 364 32 route button1 button2;
#X obj 1044 768 tgl 15 0 empty empty empty 17 7 0 10 #fcfcfc #000000
#000000 0 1;
#X obj 219 562 out~;
#X connect 0 0 48 0;
#X connect 1 0 0 0;
#X connect 2 0 0 0;
#X connect 3 0 0 0;
#X connect 4 0 0 0;
#X connect 5 0 0 0;
#X connect 6 0 0 0;
#X connect 7 0 0 0;
#X connect 8 0 0 0;
#X connect 9 0 0 0;
#X connect 10 0 0 0;
#X connect 11 0 0 0;
#X connect 12 0 0 0;
#X connect 13 0 0 0;
#X connect 14 0 0 0;
#X connect 15 0 0 0;
#X connect 16 0 0 0;
#X connect 17 0 0 0;
#X connect 18 0 0 0;
#X connect 20 0 16 0;
#X connect 21 0 17 0;
#X connect 22 0 24 0;
#X connect 23 0 25 0;
#X connect 24 0 0 0;
#X connect 25 0 0 0;
#X connect 26 0 27 0;
#X connect 27 0 0 0;
#X connect 28 0 30 0;
#X connect 29 0 31 0;
#X connect 30 0 0 0;
#X connect 31 0 0 0;
#X connect 32 0 33 0;
#X connect 32 0 33 1;
#X connect 32 0 44 0;
#X connect 34 0 36 0;
#X connect 35 0 34 0;
#X connect 36 0 37 0;
#X connect 37 0 39 0;
#X connect 38 0 85 0;
#X connect 39 0 85 1;
#X connect 40 0 42 0;
#X connect 41 0 40 0;
#X connect 42 0 43 0;
#X connect 43 0 38 0;
#X connect 44 0 45 0;
#X connect 44 1 45 1;
#X connect 46 0 47 0;
#X connect 47 0 48 1;
#X connect 48 0 32 0;
#X connect 49 0 50 0;
#X connect 50 0 51 0;
#X connect 51 0 52 0;
#X connect 52 0 46 0;
#X connect 53 0 41 0;
#X connect 54 0 35 0;
#X connect 55 1 53 0;
#X connect 56 1 54 0;
#X connect 57 0 20 0;
#X connect 57 0 21 0;
#X connect 57 0 74 0;
#X connect 57 0 73 0;
#X connect 58 0 57 0;
#X connect 59 0 58 0;
#X connect 60 0 58 1;
#X connect 61 0 77 0;
#X connect 62 0 61 0;
#X connect 63 0 61 1;
#X connect 64 0 79 0;
#X connect 65 0 64 0;
#X connect 66 0 64 1;
#X connect 67 0 75 0;
#X connect 68 0 67 0;
#X connect 69 0 67 1;
#X connect 70 0 80 0;
#X connect 71 0 70 0;
#X connect 72 0 70 1;
#X connect 73 0 68 0;
#X connect 73 1 62 0;
#X connect 74 0 65 0;
#X connect 74 1 71 0;
#X connect 75 0 55 0;
#X connect 76 0 77 1;
#X connect 76 0 80 1;
#X connect 77 0 78 0;
#X connect 78 0 75 1;
#X connect 79 0 56 0;
#X connect 80 0 81 0;
#X connect 81 0 79 1;
#X connect 82 0 83 0;
#X connect 83 0 69 0;
#X connect 83 0 63 0;
#X connect 83 1 66 0;
#X connect 83 1 72 0;
#X connect 84 0 44 1;
