#N canvas 335 169 1177 621 12;
#X obj 258 232 wavefolder~;
#X obj 327 91 msphsl 0 1;
#X obj 258 118 quantizedmode phrgyian 60;
#X floatatom 204 72 5 0 0 0 - - - 0;
#X obj 258 142 mtof;
#X obj 394 171 bng 15 250 50 0 empty empty empty 17 7 0 10 #fcfcfc
#000000 #000000;
#X obj 419 247 bng 15 250 50 0 empty empty empty 17 7 0 10 #fcfcfc
#000000 #000000;
#X obj 304 369 pan~;
#X obj 512 426 outrec~;
#X obj 122 171 bng 15 250 50 0 empty empty empty 17 7 0 10 #fcfcfc
#000000 #000000;
#X obj 417 307 scaled 0 1 36 73;
#X obj 725 250 wavefolder~;
#X obj 794 109 msphsl 0 1;
#X obj 725 136 quantizedmode phrgyian 60;
#X floatatom 761 84 5 0 0 0 - - - 0;
#X obj 725 160 mtof;
#X obj 861 189 bng 15 250 50 0 empty empty empty 17 7 0 10 #fcfcfc
#000000 #000000;
#X obj 886 265 bng 15 250 50 0 empty empty empty 17 7 0 10 #fcfcfc
#000000 #000000;
#X obj 719 365 pan~;
#X obj 589 189 bng 15 250 50 0 empty empty empty 17 7 0 10 #fcfcfc
#000000 #000000;
#X obj 884 325 scaled 0 1 36 73;
#X obj 725 226 saw~;
#X obj 258 256 *~;
#X obj 165 382 tgl 15 0 empty empty empty 17 7 0 10 #fcfcfc #000000
#000000 0 1;
#X obj 722 280 *~;
#X obj 860 366 bng 15 250 50 0 empty empty empty 17 7 0 10 #fcfcfc
#000000 #000000;
#X obj 10 315 bng 15 250 50 0 empty empty empty 17 7 0 10 #fcfcfc #000000
#000000;
#X obj 258 208 saw~;
#X obj 481 510 bng 15 250 50 0 empty empty empty 17 7 0 10 #fcfcfc
#000000 #000000;
#X obj 771 508 bng 15 250 50 0 empty empty empty 17 7 0 10 #fcfcfc
#000000 #000000;
#X obj 161 516 hv.reverb;
#X msg 243 493 wet-gain 100;
#X msg 236 528 dry-gain 0;
#X obj 161 540 *~, f 2;
#X obj 192 542 *~;
#X obj 29 519 msphsl 0 1;
#X obj 29 543 ramp~;
#X obj 479 570 * 0.5;
#X obj 770 568 * 0.5;
#X obj 27 77 s start;
#X obj 122 139 r start;
#X obj 802 53 r start;
#X obj 22 460 r start;
#X msg 22 484 0.025;
#X obj 27 57 bng 15 250 50 0 empty empty empty 17 7 0 10 #fcfcfc #000000
#000000;
#X obj 129 308 ahdsr~ 5 25 25 0.3 250;
#X obj 593 332 ahdsr~ 5 25 25 0.3 250;
#X obj 652 494 echo~ 100 0.3;
#X obj 369 491 echo~ 100 0.3;
#X obj 120 190 randwalk 100 1000;
#X obj 8 334 randwalk 100 1000;
#X obj 417 266 randwalk 100 1000;
#X obj 392 190 randwalk 100 1000;
#X obj 587 208 randwalk 100 1000;
#X obj 859 208 randwalk 100 1000;
#X obj 884 284 randwalk 100 1000;
#X obj 858 385 randwalk 100 1000;
#X obj 769 527 randwalk 100 1000;
#X obj 479 529 randwalk 100 1000;
#X obj 258 166 ramp~ 20;
#X obj 725 184 ramp~ 20;
#X obj 8 375 scaled 0 1 10 100;
#X obj 858 426 scaled 0 1 10 100;
#X obj 120 231 scaled 0 1 0.2 0.8;
#X obj 587 249 scaled 0 1 0.2 0.8;
#X obj 446 70 randwalk 100 1000;
#X obj 444 48 bng 15 250 50 0 empty empty empty 17 7 0 10 #fcfcfc #000000
#000000;
#X obj 591 78 randwalk 100 1000;
#X obj 589 56 bng 15 250 50 0 empty empty empty 17 7 0 10 #fcfcfc #000000
#000000;
#X obj 165 425 maybe;
#X obj 242 427 maybe;
#X obj 27 19 loadbang;
#X obj 446 111 scaled 0 1 10 40;
#X obj 591 119 scaled 0 1 10 40;
#X obj 165 401 metro 165;
#X floatatom 239 370 5 0 0 0 - - - 0;
#X obj 184 341 msphsl 0 0.5;
#X connect 0 0 22 0;
#X connect 1 0 0 1;
#X connect 2 0 4 0;
#X connect 3 0 2 0;
#X connect 4 0 59 0;
#X connect 5 0 52 0;
#X connect 6 0 51 0;
#X connect 7 0 8 0;
#X connect 7 0 48 0;
#X connect 7 1 8 1;
#X connect 7 1 47 0;
#X connect 9 0 49 0;
#X connect 10 0 3 0;
#X connect 11 0 24 0;
#X connect 12 0 11 1;
#X connect 13 0 15 0;
#X connect 14 0 13 0;
#X connect 15 0 60 0;
#X connect 16 0 54 0;
#X connect 17 0 55 0;
#X connect 18 0 8 0;
#X connect 18 0 48 0;
#X connect 18 1 8 1;
#X connect 18 1 47 0;
#X connect 19 0 53 0;
#X connect 20 0 14 0;
#X connect 21 0 11 0;
#X connect 22 0 7 0;
#X connect 22 0 30 0;
#X connect 23 0 74 0;
#X connect 24 0 18 0;
#X connect 24 0 30 0;
#X connect 25 0 56 0;
#X connect 26 0 50 0;
#X connect 27 0 0 0;
#X connect 28 0 58 0;
#X connect 29 0 57 0;
#X connect 30 0 33 0;
#X connect 30 1 34 0;
#X connect 31 0 30 1;
#X connect 32 0 30 1;
#X connect 33 0 8 0;
#X connect 34 0 8 1;
#X connect 35 0 36 0;
#X connect 36 0 33 1;
#X connect 36 0 34 1;
#X connect 37 0 48 2;
#X connect 38 0 47 2;
#X connect 40 0 9 0;
#X connect 40 0 26 0;
#X connect 40 0 28 0;
#X connect 40 0 6 0;
#X connect 40 0 5 0;
#X connect 40 0 23 0;
#X connect 40 0 66 0;
#X connect 41 0 16 0;
#X connect 41 0 29 0;
#X connect 41 0 25 0;
#X connect 41 0 17 0;
#X connect 41 0 19 0;
#X connect 41 0 68 0;
#X connect 42 0 43 0;
#X connect 42 0 31 0;
#X connect 42 0 32 0;
#X connect 43 0 35 0;
#X connect 44 0 39 0;
#X connect 45 0 22 1;
#X connect 46 0 24 1;
#X connect 47 0 8 1;
#X connect 48 0 8 0;
#X connect 49 0 63 0;
#X connect 49 1 9 0;
#X connect 50 0 61 0;
#X connect 50 1 26 0;
#X connect 51 0 10 0;
#X connect 51 1 6 0;
#X connect 52 0 1 0;
#X connect 52 1 5 0;
#X connect 53 0 64 0;
#X connect 53 1 19 0;
#X connect 54 0 12 0;
#X connect 54 1 16 0;
#X connect 55 0 20 0;
#X connect 55 1 17 0;
#X connect 56 0 62 0;
#X connect 56 1 25 0;
#X connect 57 0 38 0;
#X connect 57 1 29 0;
#X connect 58 0 37 0;
#X connect 58 1 28 0;
#X connect 59 0 27 0;
#X connect 60 0 21 0;
#X connect 61 0 45 3;
#X connect 62 0 46 3;
#X connect 63 0 7 1;
#X connect 64 0 18 1;
#X connect 65 0 72 0;
#X connect 65 1 66 0;
#X connect 66 0 65 0;
#X connect 67 0 73 0;
#X connect 67 1 68 0;
#X connect 68 0 67 0;
#X connect 69 0 45 0;
#X connect 69 1 70 0;
#X connect 70 0 46 0;
#X connect 71 0 44 0;
#X connect 72 0 59 1;
#X connect 73 0 60 1;
#X connect 74 0 69 0;
#X connect 75 0 74 1;
#X connect 76 0 69 1;
#X connect 76 0 70 1;
