#N canvas 2 38 1512 884 12;
#X obj 1317 18 ff;
#X obj 725 17 bng 15 250 50 0 empty empty empty 17 7 0 10 #fcfcfc #000000
#000000;
#N canvas 454 270 450 300 unreliablemetro 0;
#X obj 138 26 inlet;
#X obj 238 60 tgl 15 0 empty empty empty 17 7 0 10 #fcfcfc #000000
#000000 0 1;
#X obj 201 60 bng 15 250 50 0 empty empty empty 17 7 0 10 #fcfcfc #000000
#000000;
#X obj 201 124 t b b;
#X obj 254 178 del;
#X obj 254 154 randrange 95 105;
#X obj 201 80 spigot;
#X obj 138 50 t f f;
#X obj 138 74 sel 1;
#X obj 320 34 inlet;
#X obj 320 58 t f f;
#X obj 320 82 - 8;
#X obj 348 85 + 8;
#X obj 161 228 bng 15 250 50 0 empty empty empty 17 7 0 10 #fcfcfc
#000000 #000000;
#X obj 161 252 outlet;
#X floatatom 320 106 5 0 0 0 - - - 0;
#X floatatom 358 109 5 0 0 0 - - - 0;
#X connect 0 0 7 0;
#X connect 1 0 6 1;
#X connect 2 0 6 0;
#X connect 3 0 13 0;
#X connect 3 1 5 0;
#X connect 4 0 2 0;
#X connect 5 0 4 0;
#X connect 6 0 3 0;
#X connect 7 0 8 0;
#X connect 7 1 1 0;
#X connect 8 0 2 0;
#X connect 9 0 10 0;
#X connect 10 0 11 0;
#X connect 10 1 12 0;
#X connect 11 0 15 0;
#X connect 12 0 16 0;
#X connect 13 0 14 0;
#X connect 15 0 5 1;
#X connect 16 0 5 2;
#X restore 844 35 pd unreliablemetro;
#X obj 837 9 tgl 15 0 empty empty empty 17 7 0 10 #fcfcfc #000000 #000000
0 1;
#X floatatom 929 5 5 0 0 0 - - - 0;
#X obj 17 144 mspdfamparams;
#X obj 17 699 mspdfam;
#X obj 167 796 outrec~;
#X msg 473 120 pitch \$1;
#X msg 623 120 velocity \$1;
#X obj 1055 48 loadbang;
#X msg 1055 72 100;
#X obj 566 762 hv.reverb;
#X msg 724 746 wet-gain 100;
#X msg 816 743 dry-gain 100;
#X obj 566 786 *~;
#X obj 606 786 *~;
#X obj 446 791 ramp~;
#X obj 57 827 *~;
#X obj 13 780 ramp~;
#X obj 57 797 hip~ 800;
#X obj 57 773 echo~ 150 0.7;
#X obj 839 89 probturing ffk3 ffs3;
#X msg 839 113 fmamount \$1;
#X obj 1002 104 probturing ffk4 ffs4;
#X msg 1002 128 vcadecay \$1;
#X obj 223 733 wavefolder~;
#X obj 309 709 msphsl 0 1;
#X obj 473 89 probturing ffk1 ffs1;
#X obj 623 89 probturing ffk2 ffs2;
#X obj 1155 194 probturing ffk8 ffs8;
#X msg 1155 218 gate \$1;
#X obj 871 713 loadbang;
#X obj 418 766 msphsl 0 1;
#X obj 10 744 msphsl 0 1;
#X connect 1 0 22 0;
#X connect 1 0 24 0;
#X connect 1 0 29 0;
#X connect 1 0 28 0;
#X connect 1 0 30 0;
#X connect 2 0 1 0;
#X connect 3 0 2 0;
#X connect 4 0 2 1;
#X connect 5 0 6 0;
#X connect 6 0 26 0;
#X connect 8 0 5 0;
#X connect 9 0 5 0;
#X connect 10 0 11 0;
#X connect 10 0 3 0;
#X connect 11 0 4 0;
#X connect 12 0 15 0;
#X connect 12 1 16 0;
#X connect 13 0 12 1;
#X connect 14 0 12 1;
#X connect 15 0 7 0;
#X connect 16 0 7 1;
#X connect 17 0 15 1;
#X connect 17 0 16 1;
#X connect 18 0 7 0;
#X connect 18 0 7 1;
#X connect 19 0 18 1;
#X connect 20 0 18 0;
#X connect 21 0 20 0;
#X connect 22 0 23 0;
#X connect 23 0 5 0;
#X connect 24 0 25 0;
#X connect 25 0 5 0;
#X connect 26 0 7 1;
#X connect 26 0 7 0;
#X connect 26 0 12 0;
#X connect 26 0 21 0;
#X connect 27 0 26 1;
#X connect 28 0 8 0;
#X connect 29 0 9 0;
#X connect 30 0 31 0;
#X connect 31 0 6 0;
#X connect 32 0 14 0;
#X connect 32 0 13 0;
#X connect 33 0 17 0;
#X connect 34 0 19 0;
