#N canvas 0 38 1512 884 12;
#X obj 1317 18 ff;
#X obj 325 17 bng 15 250 50 0 empty empty empty 17 7 0 10 #fcfcfc #000000
#000000;
#X obj 823 1411 outrec~;
#X msg 73 120 pitch \$1;
#X msg 223 120 velocity \$1;
#X obj 1064 21 loadbang;
#X obj 1291 1368 hv.reverb;
#X msg 1288 1328 wet-gain 100;
#X msg 1380 1325 dry-gain 100;
#X obj 1281 1418 *~;
#X obj 1359 1425 *~;
#X obj 609 89 probturing ffk3 ffs3;
#X obj 772 104 probturing ffk4 ffs4;
#X obj 73 89 probturing ffk1 ffs1;
#X obj 223 89 probturing ffk2 ffs2;
#X obj 1338 1296 loadbang;
#X obj 442 828 *~ 0.5;
#X msg 609 113 pitch \$1;
#X msg 772 128 velocity \$1;
#X floatatom 1145 10 5 0 0 0 - - - 0;
#X obj 1145 33 bpmtoms;
#X obj 1145 125 metro;
#X obj 1145 81 t b f;
#X msg 1064 45 140;
#X obj 802 1230 *~ 1;
#X obj 639 1294 echo~ 210 0.7;
#X obj 1276 1391 hip~ 800;
#X obj 1379 1400 hip~ 800;
#X obj 1197 701 wavefolder~;
#X obj 18 704 wavefolder~;
#X obj 17 164 mspdfam~;
#X obj 607 164 mspdfam~;
#X obj 607 706 wavefolder~;
#X obj 1197 520 kick~;
#X obj 639 1342 level~;
#X obj 1068 1309 levelsig~;
#X obj 607 787 level~ 1;
#X obj 18 785 level~ 1;
#X obj 112 845 probturing ffk5 ffs5;
#X obj 112 917 swarm~;
#X obj 112 1153 level~ 1;
#X obj 639 1318 hip~ 1200;
#X obj 1145 105 tgl 15 0 empty empty empty 17 7 0 10 #fcfcfc #000000
#000000 0 1;
#X obj 112 869 scaled 0 1 50 200;
#X obj 1101 928 swarm~;
#X obj 1101 1164 level~ 1;
#X obj 1197 253 migrids;
#X obj 1197 226 counter 32;
#X obj 1197 202 bng 15 250 50 0 empty empty empty 17 7 0 10 #fcfcfc
#000000 #000000;
#X msg 1101 904 frequency 12000;
#X obj 1145 57 / 8;
#X obj 975 95 counter 2;
#X obj 975 119 sel 0;
#X msg 1271 895 decay \$1;
#X obj 1239 822 t b f;
#X obj 1265 861 scaled 0 1 50 500;
#X msg 112 893 frequency \$1;
#X obj 1197 782 level~ 1;
#X obj 1197 447 counter 4;
#X obj 1197 471 sel 0;
#X msg 1197 495 velocity 1;
#X obj 1352 415 counter 3;
#X obj 1352 439 sel 0;
#X obj 1352 463 maybe 0.05;
#X msg 1352 487 velocity 0.8;
#X connect 1 0 11 0;
#X connect 1 0 12 0;
#X connect 1 0 14 0;
#X connect 1 0 13 0;
#X connect 1 0 38 0;
#X connect 1 0 58 0;
#X connect 1 0 61 0;
#X connect 3 0 30 0;
#X connect 4 0 30 0;
#X connect 5 0 23 0;
#X connect 6 0 26 0;
#X connect 6 1 27 0;
#X connect 7 0 6 1;
#X connect 8 0 6 1;
#X connect 9 0 2 0;
#X connect 10 0 2 1;
#X connect 11 0 17 0;
#X connect 12 0 18 0;
#X connect 13 0 3 0;
#X connect 14 0 4 0;
#X connect 15 0 8 0;
#X connect 15 0 7 0;
#X connect 16 0 24 0;
#X connect 17 0 31 0;
#X connect 18 0 31 0;
#X connect 19 0 20 0;
#X connect 20 0 50 0;
#X connect 21 0 51 0;
#X connect 21 0 48 0;
#X connect 22 0 42 0;
#X connect 22 1 21 1;
#X connect 23 0 19 0;
#X connect 24 0 2 1;
#X connect 24 0 2 0;
#X connect 24 0 6 0;
#X connect 24 0 25 0;
#X connect 25 0 41 0;
#X connect 26 0 9 0;
#X connect 27 0 10 0;
#X connect 28 0 57 0;
#X connect 29 0 37 0;
#X connect 30 0 29 0;
#X connect 31 0 32 0;
#X connect 32 0 36 0;
#X connect 33 0 28 0;
#X connect 34 0 2 0;
#X connect 34 0 2 1;
#X connect 35 0 9 1;
#X connect 35 0 10 1;
#X connect 36 0 16 0;
#X connect 37 0 16 0;
#X connect 38 0 43 0;
#X connect 39 0 40 0;
#X connect 40 0 24 0;
#X connect 41 0 34 0;
#X connect 42 0 21 0;
#X connect 43 0 56 0;
#X connect 44 0 45 0;
#X connect 45 0 24 0;
#X connect 46 2 54 0;
#X connect 47 0 46 0;
#X connect 48 0 47 0;
#X connect 49 0 44 0;
#X connect 50 0 22 0;
#X connect 51 0 52 0;
#X connect 52 0 1 0;
#X connect 53 0 44 0;
#X connect 54 0 49 0;
#X connect 54 1 55 0;
#X connect 55 0 53 0;
#X connect 56 0 39 0;
#X connect 57 0 24 0;
#X connect 58 0 59 0;
#X connect 59 0 60 0;
#X connect 60 0 33 0;
#X connect 61 0 62 0;
#X connect 62 0 63 0;
#X connect 63 0 64 0;
#X connect 64 0 33 0;
