#N canvas 0 23 450 510 12;
#X obj 27 24 tgl 15 0 empty empty empty 17 7 0 10 -262144 -1 -1 1 1
;
#X obj 27 92 mtof;
#X obj 27 160 osc~;
#X obj 27 184 *~;
#X obj 27 338 out~;
#X obj 27 308 *~ 1;
#X obj 348 137 polystrings~;
#X msg 348 114 \$1 64;
#X obj 239 137 kick~ 1 1 1 1 1;
#X obj 239 161 booster~ 1 20, f 25;
#X obj 238 236 vcf~ 3;
#X obj 239 208 *~ 5000;
#X obj 27 116 t f b b, f 10;
#X obj 239 184 ahdsr~ 50 0 200 0.8 500;
#X obj 235 99 + 12;
#X obj 238 260 echo~ 166.667 0.8;
#X obj 238 314 hsl 128 15 0.5 0.9 0 0 empty empty empty -2 -8 0 10
-262144 -1 -1 0 1;
#X obj 235 334 * 5000;
#X floatatom 297 358 5 0 0 0 - - -;
#X obj 44 255 hip~ 500;
#X obj 27 208 lop~ 500;
#X obj 216 475 clip 0.3 0.9;
#X obj 8 277 *~ 0.4;
#X obj 11 139 * 0.25;
#X obj 59 140 ahdsr~ 5 0 200 0.5 400;
#X obj 44 231 echo~ 250 0.8;
#X floatatom 351 29 5 0 0 0 - - -;
#X floatatom 260 30 5 0 0 0 - - -;
#X floatatom 308 30 5 0 0 0 - - -;
#X floatatom 212 26 5 0 0 0 - - -;
#X floatatom 93 17 5 0 0 0 - - -;
#X floatatom 138 18 5 0 0 0 - - -;
#X obj 134 169 crackle~;
#X obj 107 193 ducker~ 1 20;
#X obj 171 222 *~ 0.4;
#X floatatom 176 244 5 0 0.5 0 - - -;
#X floatatom 267 431 5 0 0 0 - - -;
#X floatatom 52 8 5 0 0 0 - - -;
#X floatatom 292 96 5 0 0 0 - - -;
#X floatatom 331 433 5 0 0 0 - - -;
#X obj 27 68 16step 60 67 62 59 55 57 -1 -1 -1 -1 -1 -1 -1 -1 -1 -1
;
#X obj 5 2 loadbang;
#X obj 27 44 metronome 500 16;
#X obj 233 396 lfo sin 1;
#X connect 0 0 42 0;
#X connect 1 0 12 0;
#X connect 2 0 3 0;
#X connect 3 0 20 0;
#X connect 3 0 25 0;
#X connect 5 0 4 0;
#X connect 5 0 4 1;
#X connect 6 0 9 1;
#X connect 7 0 6 0;
#X connect 8 0 9 0;
#X connect 9 1 10 0;
#X connect 10 0 15 0;
#X connect 10 1 5 0;
#X connect 11 0 10 1;
#X connect 12 0 23 0;
#X connect 12 1 24 0;
#X connect 13 0 11 0;
#X connect 14 0 7 0;
#X connect 15 0 5 0;
#X connect 16 0 15 2;
#X connect 16 0 17 0;
#X connect 17 0 11 1;
#X connect 18 0 43 1;
#X connect 20 0 22 0;
#X connect 21 0 16 0;
#X connect 22 0 33 0;
#X connect 22 0 5 0;
#X connect 23 0 2 0;
#X connect 24 0 3 1;
#X connect 25 0 19 0;
#X connect 26 0 40 15;
#X connect 27 0 40 11;
#X connect 28 0 40 13;
#X connect 29 0 40 9;
#X connect 30 0 40 7;
#X connect 31 0 40 8;
#X connect 32 0 33 1;
#X connect 33 1 34 0;
#X connect 34 0 5 0;
#X connect 35 0 34 1;
#X connect 36 0 21 1;
#X connect 37 0 42 1;
#X connect 38 0 14 1;
#X connect 39 0 21 2;
#X connect 40 0 1 0;
#X connect 40 0 14 0;
#X connect 41 0 0 0;
#X connect 42 0 13 0;
#X connect 42 0 8 0;
#X connect 42 0 40 0;
#X connect 43 0 21 0;
