#N canvas 613 276 629 333 12;
#X obj 139 245 *~ 1;
#X obj 139 269 out~;
#X obj 233 25 kickparams;
#X obj 139 119 kick~;
#X obj 52 69 tgl 15 0 empty empty empty 17 7 0 10 #fcfcfc #000000 #000000
0 1;
#X obj 53 38 loadbang;
#X obj 53 92 metro 600;
#X connect 0 0 1 0;
#X connect 0 0 1 1;
#X connect 2 0 3 1;
#X connect 3 0 0 0;
#X connect 4 0 6 0;
#X connect 5 0 4 0;
#X connect 6 0 3 0;
