#N canvas 337 257 1090 606 12;
#X obj 168 456 swarm~;
#X obj 66 150 mspparam frequency 0 24000;
#X obj 72 178 mspparam spread;
#X obj 77 209 mspparam character;
#X obj 100 40 generative16step;
#X obj 280 62 metronome 107.1 8;
#X obj 279 36 tgl 15 0 empty empty empty 17 7 0 10 #fcfcfc #000000
#000000 0 1;
#X obj 153 20 tgl 15 0 empty empty empty 17 7 0 10 #fcfcfc #000000
#000000 0 1;
#X obj 100 122 mtof;
#X obj 253 459 hradio 15 1 0 2 empty empty empty 0 -8 0 10 #fcfcfc
#000000 #000000 0;
#X obj 334 449 loadbang;
#X msg 334 473 0;
#X obj 37 512 graph~;
#X obj 90 263 mspparam resonance;
#X obj 93 291 mspparam attack 0 100;
#X floatatom 333 38 5 0 0 0 - - - 0;
#X obj 91 236 mspparam cutoff 0 24000;
#X obj 67 344 mspparam noisemix;
#X obj 285 538 echo~ 210 0.5;
#X obj 283 515 hip~ 800;
#X obj 74 371 mspparam reverbmix;
#X obj 100 64 scaled 0 1 38 87;
#X floatatom 388 516 5 0 1 0 - - - 0;
#X obj 168 495 *~ 1;
#X obj 570 337 kick~;
#X obj 452 149 level~;
#X obj 454 91 onbeats 1 5;
#X obj 506 240 onbeats 2 4 6 8, f 24;
#X obj 534 267 maybe 0.02;
#X obj 96 314 mspparam decay 0 500;
#X obj 155 533 outrec~;
#X obj 100 88 maybe 0;
#X msg 253 479 type \$1;
#X msg 531 305 velocity 1;
#X connect 0 0 12 0;
#X connect 0 0 19 0;
#X connect 0 0 23 0;
#X connect 1 0 0 0;
#X connect 2 0 0 0;
#X connect 3 0 0 0;
#X connect 4 0 21 0;
#X connect 5 0 4 0;
#X connect 5 0 26 0;
#X connect 5 0 27 0;
#X connect 6 0 5 0;
#X connect 7 0 4 1;
#X connect 8 0 1 0;
#X connect 9 0 32 0;
#X connect 10 0 11 0;
#X connect 11 0 9 0;
#X connect 13 0 0 0;
#X connect 14 0 0 0;
#X connect 15 0 5 1;
#X connect 16 0 0 0;
#X connect 17 0 0 0;
#X connect 18 0 23 0;
#X connect 19 0 18 0;
#X connect 20 0 0 0;
#X connect 21 0 31 0;
#X connect 22 0 18 2;
#X connect 23 0 30 0;
#X connect 23 0 30 1;
#X connect 24 0 25 0;
#X connect 25 0 23 0;
#X connect 26 0 33 0;
#X connect 27 0 28 0;
#X connect 28 0 33 0;
#X connect 29 0 0 0;
#X connect 31 0 8 0;
#X connect 32 0 0 0;
#X connect 33 0 24 0;
