#N canvas 718 327 767 588 12;
#X obj 82 45 tgl 15 0 empty empty empty 17 7 0 10 #fcfcfc #000000 #000000
0 1;
#X obj 55 119 migrids;
#X obj 55 297 kick~;
#X obj 470 336 snare~;
#X obj 57 484 *~ 1;
#X obj 57 508 out~;
#X obj 598 326 hh~, f 18;
#X obj 82 69 metronome 50 32;
#X msg 55 266 velocity \$1;
#X floatatom 496 249 5 0 0 0 - - - 0;
#X obj 495 182 randwalk 200 2000;
#X obj 495 161 bng 15 250 50 0 empty empty empty 17 7 0 10 #fcfcfc
#000000 #000000;
#X obj 495 223 scaled 0 1 40 400;
#X obj 625 205 randwalk 200 2000;
#X obj 625 184 bng 15 250 50 0 empty empty empty 17 7 0 10 #fcfcfc
#000000 #000000;
#X connect 0 0 7 0;
#X connect 1 0 8 0;
#X connect 1 1 3 0;
#X connect 1 2 6 0;
#X connect 2 0 4 0;
#X connect 3 0 4 0;
#X connect 4 0 5 0;
#X connect 4 0 5 1;
#X connect 6 0 4 0;
#X connect 7 0 1 0;
#X connect 8 0 2 0;
#X connect 9 0 6 1;
#X connect 10 0 12 0;
#X connect 10 1 11 0;
#X connect 11 0 10 0;
#X connect 12 0 9 0;
#X connect 13 0 6 3;
#X connect 13 1 14 0;
#X connect 14 0 13 0;
