#N canvas 5 42 1512 884 12;
#X obj 422 65 tgl 15 0 empty empty empty 17 7 0 10 #fcfcfc #000000
#000000 0 1;
#X obj 422 133 randomsequence, f 41;
#X obj 422 205 mtof;
#X floatatom 804 86 5 0 0 0 - - - 0;
#X floatatom 945 84 5 0 0 0 - - - 0;
#X obj 1021 146 randomsequence;
#X obj 1021 218 sel 1;
#X obj 422 109 t b b;
#X obj 423 411 *~;
#X obj 423 447 out~;
#X obj 1021 242 bng 15 250 50 0 empty empty empty 17 7 0 10 #fcfcfc
#000000 #000000;
#X obj 1070 195 msphsl 0 1;
#X obj 1021 194 < 0.5;
#X text 803 61 length;
#X text 937 61 sequence selector;
#X obj 422 41 loadbang;
#X text 1191 193 density;
#X obj 856 12 loadbang;
#X obj 856 36 random 10000;
#X obj 1172 122 loadbang;
#X msg 1172 146 0.7;
#X obj 883 385 kick~;
#X obj 919 16 bng 15 250 50 0 empty empty empty 17 7 0 10 #fcfcfc #000000
#000000;
#X obj 810 225 randomsequence;
#X floatatom 810 273 5 0 0 0 - - - 0;
#X msg 874 337 velocity \$1;
#X obj 422 229 osc~;
#X obj 1090 62 sel 0;
#X obj 422 181 quantizedmode harmonicminor 60;
#X obj 1021 170 oneminus;
#X obj 422 85 metro 120;
#X obj 368 505 level~;
#X obj 360 601 level~ 1;
#X obj 883 566 wavefolder~;
#X obj 368 529 pingpong~ 240 0.4;
#X obj 497 601 level~ 1;
#X obj 422 283 wavefolder~;
#X msg 764 56 7;
#X obj 883 647 level~ 1;
#X obj 1021 262 envgen~ 1 20 0.3 80 0 30;
#X floatatom 504 58 5 0 0 0 - - - 0;
#X obj 103 185 randomsequence, f 41;
#X obj 103 257 mtof;
#X obj 103 281 osc~;
#X obj 103 233 quantizedmode harmonicminor 60;
#X obj 422 253 *~ 0.5;
#X floatatom 244 149 5 0 0 0 - - - 0;
#X obj 244 101 loadbang;
#X obj 422 157 scaled 0 1 60 84;
#X obj 37 335 wavefolder~;
#X obj 103 305 *~ 0.5;
#X obj 37 486 level~ 0.5;
#X obj 37 416 *~;
#X obj 178 268 bng 15 250 50 0 empty empty empty 17 7 0 10 #fcfcfc
#000000 #000000;
#X obj 194 285 ahdsr~ 5 0 100 0.3 20;
#X obj 103 209 scaled 0 1 38 55;
#X obj 810 249 sieverange 0.5;
#X obj 810 296 scaled 0 0.5 0.7 1;
#X msg 244 125 8;
#X floatatom 850 196 5 0 0 0 - - - 0;
#X obj 37 440 lop~ 8000;
#X obj 422 364 lop~ 16000;
#X msg 850 172 8;
#X obj 489 787 outrec~;
#X obj 495 735 *~ 1;
#X obj 422 388 level~ 1;
#X obj 1090 38 counter 128;
#X connect 0 0 30 0;
#X connect 1 0 48 0;
#X connect 2 0 26 0;
#X connect 3 0 1 1;
#X connect 3 0 5 1;
#X connect 4 0 1 2;
#X connect 4 0 5 2;
#X connect 4 0 23 2;
#X connect 4 0 41 2;
#X connect 5 0 29 0;
#X connect 6 0 10 0;
#X connect 7 0 1 0;
#X connect 7 0 41 0;
#X connect 7 1 5 0;
#X connect 7 1 23 0;
#X connect 7 1 66 0;
#X connect 8 0 9 0;
#X connect 8 0 9 1;
#X connect 8 0 31 0;
#X connect 10 0 39 0;
#X connect 11 0 12 1;
#X connect 12 0 6 0;
#X connect 15 0 0 0;
#X connect 17 0 18 0;
#X connect 17 0 37 0;
#X connect 17 0 62 0;
#X connect 18 0 4 0;
#X connect 19 0 20 0;
#X connect 20 0 11 0;
#X connect 21 0 33 0;
#X connect 22 0 18 0;
#X connect 23 0 56 0;
#X connect 24 0 57 0;
#X connect 25 0 21 0;
#X connect 26 0 45 0;
#X connect 27 0 22 0;
#X connect 28 0 2 0;
#X connect 29 0 12 0;
#X connect 30 0 7 0;
#X connect 31 0 34 0;
#X connect 32 0 63 0;
#X connect 33 0 38 0;
#X connect 34 0 32 0;
#X connect 34 1 35 0;
#X connect 35 0 63 1;
#X connect 36 0 61 0;
#X connect 37 0 3 0;
#X connect 38 0 64 0;
#X connect 39 0 8 1;
#X connect 40 0 30 1;
#X connect 41 0 55 0;
#X connect 42 0 43 0;
#X connect 43 0 50 0;
#X connect 44 0 42 0;
#X connect 44 0 53 0;
#X connect 45 0 36 0;
#X connect 46 0 41 1;
#X connect 47 0 58 0;
#X connect 48 0 28 0;
#X connect 49 0 52 0;
#X connect 50 0 49 0;
#X connect 50 0 52 0;
#X connect 51 0 64 0;
#X connect 52 0 60 0;
#X connect 53 0 54 0;
#X connect 54 0 52 1;
#X connect 55 0 44 0;
#X connect 56 0 24 0;
#X connect 57 0 25 0;
#X connect 58 0 46 0;
#X connect 59 0 23 1;
#X connect 60 0 51 0;
#X connect 61 0 65 0;
#X connect 62 0 59 0;
#X connect 64 0 63 0;
#X connect 64 0 63 1;
#X connect 65 0 8 0;
#X connect 66 0 27 0;
