#N canvas 78 169 1435 667 12;
#X obj 280 220 pack f f f f f f f f f f f f f f f f f f f f f f f f
f f f f f f f f, f 126;
#X obj 280 256 sinesum test;
#X obj 569 278 randwalk 200 2000;
#X floatatom 570 367 5 0 0 0 - - - 0;
#X obj 570 462 ramp~;
#X obj 570 486 tabosc4~ sinesum-test;
#X obj 716 303 bng 15 250 50 0 empty empty empty 17 7 0 10 #fcfcfc
#000000 #000000;
#X obj 796 288 loadbang;
#X floatatom 214 168 5 0 0 0 - - - 0;
#X obj 570 319 scaled 0 1 45 75;
#X obj 570 390 mtof;
#X obj 301 152 randwalk 200 2000;
#X obj 345 114 bng 15 250 50 0 empty empty empty 17 7 0 10 #fcfcfc
#000000 #000000;
#X obj 424 152 randwalk 200 2000;
#X obj 473 124 bng 15 250 50 0 empty empty empty 17 7 0 10 #fcfcfc
#000000 #000000;
#X obj 570 27 loadbang;
#X obj 570 51 bng 15 250 50 0 empty empty empty 17 7 0 10 #fcfcfc #000000
#000000;
#X obj 301 193 t b f;
#X obj 570 414 change;
#X obj 570 438 t f b, f 32;
#X obj 570 510 *~;
#X obj 570 534 out~;
#X obj 791 489 ahdsr~ 5 20 200 0.2 200;
#X obj 349 522 echo~ 250 0.2;
#X obj 349 546 level~ 1;
#X obj 570 343 quantizedmode mixolydian 60;
#X msg 59 316 1 0 -0.111111 0 0.04 0 -0.0204082 0 0.0123457 0 -0.00826446
0 0.00591715 0 -0.00444444 0 0.0034602 0 -0.00277008 0 0.00226757 0
-0.00189035 0 0.00137174 0 -0.00118906 0 0.00104058 0 -0.00091827 0
;
#X msg 58 389 1 0 0.33 0 0.2 0 0.1428 0 0.1111 0 0.0909 0 0.0769 0
0.0666 0 0.0588 0 0.0526 0 0.0476 0 0.0434 0 0.04 0 0.037 0 0.0344
0 0.0322 0;
#X obj 82 483 wavetables;
#X msg 143 244 1;
#X connect 2 0 9 0;
#X connect 2 1 6 0;
#X connect 3 0 10 0;
#X connect 4 0 5 0;
#X connect 5 0 20 0;
#X connect 6 0 2 0;
#X connect 7 0 6 0;
#X connect 8 0 0 0;
#X connect 9 0 25 0;
#X connect 10 0 18 0;
#X connect 11 0 17 0;
#X connect 11 1 12 0;
#X connect 12 0 11 0;
#X connect 13 0 0 2;
#X connect 13 1 14 0;
#X connect 14 0 13 0;
#X connect 15 0 16 0;
#X connect 16 0 12 0;
#X connect 16 0 14 0;
#X connect 17 0 8 0;
#X connect 17 1 0 1;
#X connect 18 0 19 0;
#X connect 19 0 4 0;
#X connect 19 1 22 0;
#X connect 20 0 21 0;
#X connect 20 0 21 1;
#X connect 20 0 23 0;
#X connect 22 0 20 1;
#X connect 23 0 24 0;
#X connect 24 0 21 0;
#X connect 24 0 21 1;
#X connect 25 0 3 0;
#X connect 26 0 1 0;
#X connect 27 0 1 0;
#X connect 29 0 1 0;
