#N canvas 572 194 755 685 12;
#X obj 341 543 dac~;
#X floatatom 189 362 5 0 0 0 - - - 0;
#X obj 189 385 osc~;
#X obj 251 442 *~ 0.025;
#X floatatom 230 364 5 0 0 0 - - - 0;
#X obj 230 387 osc~;
#X floatatom 269 365 5 0 0 0 - - - 0;
#X obj 269 388 osc~;
#X floatatom 310 367 5 0 0 0 - - - 0;
#X obj 310 390 osc~;
#X floatatom 357 366 5 0 0 0 - - - 0;
#X obj 357 389 osc~;
#X obj 419 446 *~ 0.025;
#X floatatom 398 368 5 0 0 0 - - - 0;
#X obj 398 391 osc~;
#X floatatom 437 369 5 0 0 0 - - - 0;
#X obj 437 392 osc~;
#X floatatom 478 371 5 0 0 0 - - - 0;
#X obj 478 394 osc~;
#X obj 197 474 *~ 0.7;
#X obj 408 484 *~ 0.3;
#X obj 250 474 *~ 0.3;
#X obj 463 486 *~ 0.7;
#X obj 267 29 tgl 15 0 empty empty empty 17 7 0 10 #fcfcfc #000000
#000000 0 1;
#X obj 267 53 metro 30000;
#X obj 24 148 + 50;
#X obj 24 124 random 1000;
#X msg 24 172 \$1 50;
#X obj 24 196 line;
#X obj 114 148 + 50;
#X obj 114 124 random 1000;
#X msg 114 172 \$1 50;
#X obj 114 196 line;
#X obj 204 148 + 50;
#X obj 204 124 random 1000;
#X msg 204 172 \$1 50;
#X obj 204 196 line;
#X obj 294 148 + 50;
#X obj 294 124 random 1000;
#X msg 294 172 \$1 50;
#X obj 294 196 line;
#X obj 384 148 + 50;
#X obj 384 124 random 1000;
#X msg 384 172 \$1 50;
#X obj 384 196 line;
#X obj 474 148 + 50;
#X obj 474 124 random 1000;
#X msg 474 172 \$1 50;
#X obj 474 196 line;
#X obj 564 148 + 50;
#X obj 564 124 random 1000;
#X msg 564 172 \$1 50;
#X obj 564 196 line;
#X obj 654 148 + 50;
#X obj 654 124 random 1000;
#X msg 654 172 \$1 50;
#X obj 654 196 line;
#X obj 268 84 bng 15 250 50 0 empty empty empty 17 7 0 10 #fcfcfc #000000
#000000;
#X obj 349 25 loadbang;
#X connect 1 0 2 0;
#X connect 2 0 3 0;
#X connect 3 0 19 0;
#X connect 3 0 20 0;
#X connect 4 0 5 0;
#X connect 5 0 3 0;
#X connect 6 0 7 0;
#X connect 7 0 3 0;
#X connect 8 0 9 0;
#X connect 9 0 3 0;
#X connect 10 0 11 0;
#X connect 11 0 12 0;
#X connect 12 0 21 0;
#X connect 12 0 22 0;
#X connect 13 0 14 0;
#X connect 14 0 12 0;
#X connect 15 0 16 0;
#X connect 16 0 12 0;
#X connect 17 0 18 0;
#X connect 18 0 12 0;
#X connect 19 0 0 0;
#X connect 20 0 0 1;
#X connect 21 0 0 0;
#X connect 22 0 0 1;
#X connect 23 0 24 0;
#X connect 24 0 57 0;
#X connect 25 0 27 0;
#X connect 26 0 25 0;
#X connect 27 0 28 0;
#X connect 28 0 1 0;
#X connect 29 0 31 0;
#X connect 30 0 29 0;
#X connect 31 0 32 0;
#X connect 32 0 4 0;
#X connect 33 0 35 0;
#X connect 34 0 33 0;
#X connect 35 0 36 0;
#X connect 36 0 6 0;
#X connect 37 0 39 0;
#X connect 38 0 37 0;
#X connect 39 0 40 0;
#X connect 40 0 8 0;
#X connect 41 0 43 0;
#X connect 42 0 41 0;
#X connect 43 0 44 0;
#X connect 44 0 10 0;
#X connect 45 0 47 0;
#X connect 46 0 45 0;
#X connect 47 0 48 0;
#X connect 48 0 13 0;
#X connect 49 0 51 0;
#X connect 50 0 49 0;
#X connect 51 0 52 0;
#X connect 52 0 15 0;
#X connect 53 0 55 0;
#X connect 54 0 53 0;
#X connect 55 0 56 0;
#X connect 56 0 17 0;
#X connect 57 0 34 0;
#X connect 57 0 54 0;
#X connect 57 0 50 0;
#X connect 57 0 46 0;
#X connect 57 0 42 0;
#X connect 57 0 38 0;
#X connect 57 0 30 0;
#X connect 57 0 26 0;
#X connect 58 0 23 0;
