#N canvas 0 38 1512 883 12;
#X obj 129 104 tgl 15 0 empty empty empty 17 7 0 10 #fcfcfc #000000
#000000 0 1;
#X obj 129 218 kick~;
#X msg 129 192 velocity 1;
#X obj 1378 745 catch~ out;
#X obj 230 939 throw~ out;
#X obj 389 654 *~ 1;
#X obj 390 449 reverb~;
#X obj 389 678 wavefolder~;
#X obj 308 631 echo~ 100 0.7;
#X obj 32 438 wavefolder~;
#X obj 591 910 level~;
#X obj 129 128 metro 62.5;
#X obj 303 147 counter 8;
#X obj 303 171 sel 0;
#X obj 303 195 s quarter;
#X obj 129 165 r quarter;
#X obj 415 144 counter 4;
#X obj 415 168 sel 0;
#X obj 415 192 s eigth;
#X obj 495 168 sel 0;
#X obj 495 144 counter 2;
#X obj 495 192 s sixteenth;
#X obj 993 160 r sixteenth;
#X obj 993 184 bng 15 250 50 0 empty empty empty 17 7 0 10 #fcfcfc
#000000 #000000;
#X obj 993 228 swarm~;
#X msg 993 204 frequency 12000;
#X obj 993 514 level~ 1;
#X obj 993 537 pan~ 0.4;
#X obj 1167 639 pan~ 0.6;
#X obj 1167 609 level~ 1;
#X obj 1151 569 echo~ 110 0.7;
#X obj 408 404 r~ kick;
#X obj 32 519 s~ kick;
#X obj 844 493 r~ kick;
#X obj 1261 533 r~ kick;
#X obj 591 862 lop~ 300;
#X obj 591 886 lop~ 300;
#X obj 561 354 r~ kick;
#X obj 630 16 r sixteenth;
#X obj 630 136 quantizedmode harmonicminor 60;
#X obj 630 160 mtof;
#X obj 634 268 wavefolder~;
#X obj 705 435 throw~ out;
#X obj 587 417 echo~ 250 0.3;
#X obj 1358 880 outrec~;
#X obj 1131 792 catch~ outL;
#X obj 1229 755 catch~ outR;
#X obj 997 808 msphsl 0 1;
#X obj 1131 816 level~ 1;
#X obj 1229 779 level~ 1;
#X obj 993 582 throw~ outL;
#X obj 1073 582 throw~ outR;
#X obj 1139 695 throw~ outL;
#X obj 1219 695 throw~ outR;
#X obj 634 349 level~ 1;
#X obj 855 101 randwalk 200 2000;
#X obj 855 142 scaled 0 1 0.2 0.7;
#X msg 855 166 foldamount \$1;
#X obj 1031 98 bng 15 250 50 0 empty empty empty 17 7 0 10 #fcfcfc
#000000 #000000;
#X obj 630 184 maybe 0.6;
#X obj 755 206 ahdsr~ 5 20 200 0.2 200;
#X obj 755 240 *~;
#X obj 630 208 t f b;
#X floatatom 747 167 5 0 0 0 - - - 0;
#X floatatom 806 167 5 0 0 0 - - - 0;
#X obj 795 233 *~;
#X obj 630 242 osc~;
#X obj 630 88 generative16step;
#X obj 630 40 counter 8;
#X obj 630 64 + 1;
#X obj 684 67 tgl 15 0 empty empty empty 17 7 0 10 #fcfcfc #000000
#000000 0 1;
#X obj 630 112 scaled 0 1 40 80;
#X obj 1146 -141 r sixteenth;
#X obj 1146 -21 quantizedmode harmonicminor 60;
#X obj 1146 3 mtof;
#X obj 1150 111 wavefolder~;
#X obj 1146 27 maybe 0.6;
#X obj 1271 49 ahdsr~ 5 20 200 0.2 200;
#X obj 1271 83 *~;
#X obj 1146 51 t f b;
#X floatatom 1263 10 5 0 0 0 - - - 0;
#X floatatom 1322 10 5 0 0 0 - - - 0;
#X obj 1311 76 *~;
#X obj 1146 -69 generative16step;
#X obj 1146 -93 + 1;
#X obj 1200 -90 tgl 15 0 empty empty empty 17 7 0 10 #fcfcfc #000000
#000000 0 1;
#X obj 1146 -45 scaled 0 1 40 80;
#X obj 561 378 ducker~ 0.5 50, f 27;
#X obj 1261 557 ducker~ 0.5 50;
#X obj 844 517 ducker~ 0.5 50;
#X obj 1146 -117 counter 16;
#X obj 1146 85 triangle~;
#X connect 0 0 11 0;
#X connect 1 0 9 0;
#X connect 2 0 1 0;
#X connect 3 0 49 0;
#X connect 3 0 48 0;
#X connect 5 0 7 0;
#X connect 6 0 5 0;
#X connect 6 0 8 0;
#X connect 6 1 5 0;
#X connect 7 0 35 0;
#X connect 8 0 5 0;
#X connect 9 0 32 0;
#X connect 10 0 4 0;
#X connect 11 0 12 0;
#X connect 11 0 16 0;
#X connect 11 0 20 0;
#X connect 12 0 13 0;
#X connect 13 0 14 0;
#X connect 15 0 2 0;
#X connect 16 0 17 0;
#X connect 17 0 18 0;
#X connect 19 0 21 0;
#X connect 20 0 19 0;
#X connect 22 0 23 0;
#X connect 23 0 25 0;
#X connect 24 0 89 1;
#X connect 25 0 24 0;
#X connect 26 0 27 0;
#X connect 26 0 30 0;
#X connect 27 0 50 0;
#X connect 27 1 51 0;
#X connect 28 0 52 0;
#X connect 28 1 53 0;
#X connect 29 0 28 0;
#X connect 30 0 88 1;
#X connect 31 0 4 0;
#X connect 31 0 6 0;
#X connect 33 0 89 0;
#X connect 34 0 88 0;
#X connect 35 0 36 0;
#X connect 36 0 10 0;
#X connect 37 0 87 0;
#X connect 38 0 68 0;
#X connect 39 0 40 0;
#X connect 40 0 59 0;
#X connect 41 0 54 0;
#X connect 43 0 42 0;
#X connect 45 0 48 0;
#X connect 46 0 49 0;
#X connect 47 0 48 1;
#X connect 47 0 49 1;
#X connect 48 0 44 0;
#X connect 49 0 44 1;
#X connect 54 0 87 1;
#X connect 55 0 56 0;
#X connect 55 1 58 0;
#X connect 56 0 57 0;
#X connect 57 0 41 1;
#X connect 58 0 55 0;
#X connect 59 0 62 0;
#X connect 60 0 65 0;
#X connect 60 0 65 1;
#X connect 61 0 41 0;
#X connect 62 0 66 0;
#X connect 62 1 60 0;
#X connect 63 0 60 1;
#X connect 64 0 60 3;
#X connect 64 0 60 5;
#X connect 65 0 61 0;
#X connect 66 0 61 1;
#X connect 67 0 71 0;
#X connect 68 0 69 0;
#X connect 69 0 67 0;
#X connect 70 0 67 1;
#X connect 71 0 39 0;
#X connect 72 0 90 0;
#X connect 73 0 74 0;
#X connect 74 0 76 0;
#X connect 75 0 54 0;
#X connect 76 0 79 0;
#X connect 77 0 82 0;
#X connect 77 0 82 1;
#X connect 78 0 75 0;
#X connect 79 0 91 0;
#X connect 79 1 77 0;
#X connect 80 0 77 1;
#X connect 81 0 77 3;
#X connect 81 0 77 5;
#X connect 82 0 78 0;
#X connect 83 0 86 0;
#X connect 84 0 83 0;
#X connect 85 0 83 1;
#X connect 86 0 73 0;
#X connect 87 1 42 0;
#X connect 87 1 43 0;
#X connect 88 1 29 0;
#X connect 89 1 26 0;
#X connect 90 0 84 0;
#X connect 91 0 78 1;
