#N canvas 614 176 750 693 12;
#X obj 198 285 swarm~;
#X obj 205 15 tgl 15 0 empty empty empty 17 7 0 10 #fcfcfc #000000
#000000 0 1;
#X obj 205 117 mtof;
#X msg 151 242 frequency \$1;
#X msg 453 235 velocity \$1;
#X obj 380 80 generative16step 20 200;
#X obj 377 33 counter 16;
#X obj 377 57 + 1;
#X floatatom 380 104 5 0 0 0 - - - 0;
#X obj 588 12 tgl 15 0 empty empty empty 17 7 0 10 #fcfcfc #000000
#000000 0 1;
#X obj 205 93 scaled 0 1 40 69;
#X obj 205 39 metro 120;
#X obj 453 169 generative16step 20 200;
#X obj 450 122 counter 16;
#X obj 450 146 + 1;
#X floatatom 453 213 5 0 0 0 - - - 0;
#X obj 453 193 scaled 0 1 0.5 1;
#X obj 34 147 generative16step 20 200;
#X obj 31 100 counter 16;
#X obj 31 124 + 1;
#X floatatom 34 171 5 0 0 0 - - - 0;
#X obj 34 194 <;
#X obj 40 38 msphsl 0 1;
#X obj 43 244 tgl 15 0 empty empty empty 17 7 0 10 #fcfcfc #000000
#000000 0 1;
#X obj 205 63 t b b;
#X obj 218 201 spigot;
#X obj 251 9 loadbang;
#X obj 86 624 outrec~;
#X obj 20 373 generative16step 20 200;
#X obj 17 326 counter 16;
#X obj 17 350 + 1;
#X floatatom 20 427 5 0 0 0 - - - 0;
#X msg 20 489 spread \$1;
#X obj 20 397 spigot;
#X obj 20 450 spigot;
#X obj 92 441 tgl 15 0 empty empty empty 17 7 0 10 #fcfcfc #000000
#000000 0 1;
#X obj 198 602 echo~ 180 0.5;
#X obj 198 578 hip~ 500;
#X obj 198 626 level~ 1;
#X msg 597 61 save 1;
#X msg 649 61 recall 1;
#X msg 597 80 save 2;
#X msg 649 80 recall 2;
#X connect 0 0 27 0;
#X connect 0 0 27 1;
#X connect 0 0 37 0;
#X connect 1 0 11 0;
#X connect 2 0 25 0;
#X connect 3 0 0 0;
#X connect 4 0 0 0;
#X connect 5 0 8 0;
#X connect 6 0 7 0;
#X connect 7 0 5 0;
#X connect 8 0 10 0;
#X connect 9 0 5 1;
#X connect 9 0 12 1;
#X connect 9 0 17 1;
#X connect 9 0 28 1;
#X connect 10 0 2 0;
#X connect 11 0 24 0;
#X connect 12 0 16 0;
#X connect 13 0 14 0;
#X connect 14 0 12 0;
#X connect 15 0 4 0;
#X connect 16 0 15 0;
#X connect 17 0 20 0;
#X connect 18 0 19 0;
#X connect 19 0 17 0;
#X connect 20 0 21 0;
#X connect 21 0 23 0;
#X connect 22 0 21 1;
#X connect 23 0 25 1;
#X connect 23 0 33 1;
#X connect 24 0 6 0;
#X connect 24 0 13 0;
#X connect 24 0 29 0;
#X connect 24 1 18 0;
#X connect 25 0 3 0;
#X connect 26 0 1 0;
#X connect 28 0 33 0;
#X connect 29 0 30 0;
#X connect 30 0 28 0;
#X connect 31 0 34 0;
#X connect 32 0 0 0;
#X connect 33 0 31 0;
#X connect 34 0 32 0;
#X connect 35 0 34 1;
#X connect 36 0 38 0;
#X connect 37 0 36 0;
#X connect 38 0 27 1;
#X connect 38 0 27 0;
#X connect 39 0 5 2;
#X connect 39 0 12 2;
#X connect 39 0 17 2;
#X connect 39 0 28 2;
#X connect 40 0 5 2;
#X connect 40 0 12 2;
#X connect 40 0 17 2;
#X connect 40 0 28 2;
#X connect 41 0 5 2;
#X connect 41 0 12 2;
#X connect 41 0 17 2;
#X connect 41 0 28 2;
#X connect 42 0 5 2;
#X connect 42 0 12 2;
#X connect 42 0 17 2;
#X connect 42 0 28 2;
