#N canvas 606 153 906 651 12;
#X obj 151 201 sequ ffb1 ffs1;
#X obj 151 33 tgl 15 0 empty empty empty 17 7 0 10 #fcfcfc #000000
#000000 0 1;
#X obj 139 345 scaled 0 1 40 64;
#X obj 139 369 mtof;
#X obj 139 441 *~;
#X obj 139 465 out~;
#X obj 256 412 ahdsr~ 5 0 200 0.3 200;
#X obj 256 436 pow~ 2;
#X obj 139 393 t f b;
#X obj 151 57 metro 110;
#X obj 511 201 sequ ffb1 ffs1;
#X floatatom 511 326 5 0 0 0 - - - 0;
#X obj 139 417 osc~;
#X obj 511 349 scaled 0 1 30 300;
#X connect 0 0 2 0;
#X connect 1 0 9 0;
#X connect 2 0 3 0;
#X connect 3 0 8 0;
#X connect 4 0 5 0;
#X connect 4 0 5 1;
#X connect 6 0 7 0;
#X connect 7 0 4 1;
#X connect 8 0 12 0;
#X connect 8 1 6 0;
#X connect 9 0 0 0;
#X connect 9 0 10 0;
#X connect 10 0 11 0;
#X connect 11 0 13 0;
#X connect 12 0 4 0;
#X connect 13 0 6 3;
