#N canvas 0 38 1512 884 12;
#X obj 241 195 sequ ffb1 ffs1;
#X obj 241 47 tgl 15 0 empty empty empty 17 7 0 10 #fcfcfc #000000
#000000 0 1;
#X obj 229 413 mtof;
#X obj 229 535 *~;
#X obj 346 480 pow~ 2;
#X obj 229 437 t f b;
#X obj 601 195 sequ ffb1 ffs1;
#X obj 591 416 mtof;
#X obj 591 538 *~;
#X obj 708 483 pow~ 2;
#X obj 591 440 t f b;
#X obj 241 22 loadbang;
#X obj 229 339 scaled 0 1 50 72;
#X obj 591 342 scaled 0 1 50 72;
#X obj 505 827 outrec~;
#X obj 241 71 metro 110;
#X obj 463 672 hip~ 800;
#X obj 229 559 level~ 0.5;
#X obj 591 562 level~ 0.5;
#X obj 525 28 sequ.params;
#X obj 463 718 pingpong~ 500 0.8;
#X obj 463 696 level~ 0.45762;
#X obj 346 456 ahdsr~ 5 0 200 0.3 200;
#X obj 708 459 ahdsr~ 5 0 200 0.3 200;
#X obj 43 494 ramp~;
#X obj 41 413 msphsl 0 1 0;
#X obj 41 436 easeinsine;
#X obj 44 273 randwalk 500 5000;
#X obj 160 317 bng 15 250 50 0 empty empty empty 17 7 0 10 #fcfcfc
#000000 #000000;
#X obj 171 279 loadbang;
#X obj 229 485 vcf~ 3;
#X obj 591 488 vcf~ 3;
#X obj 229 582 pan~ 0.3;
#X obj 591 585 pan~ 0.7;
#X obj 41 460 scaled 0 1 400 12000;
#X obj 247 512 vibrato~;
#X obj 615 515 vibrato~;
#X obj 229 461 saw~;
#X obj 591 464 square~;
#X obj 1054 96 kick~;
#X obj 1054 12 counter 4;
#X msg 1054 72 velocity 1;
#X obj 1054 48 sel 1 3;
#X obj 1317 46 hh~;
#X obj 987 330 snare~;
#X msg 982 305 velocity 1;
#X obj 996 360 reverb~;
#X obj 1028 593 throw~ out;
#X obj 1055 277 throw~ out;
#X obj 629 725 catch~ out;
#X obj 1193 23 spigot;
#X obj 1231 3 tgl 15 0 empty empty empty 17 7 0 10 #fcfcfc #000000
#000000 0 1;
#X obj 983 273 spigot;
#X obj 1021 253 tgl 15 0 empty empty empty 17 7 0 10 #fcfcfc #000000
#000000 0 1;
#X obj 1316 24 spigot;
#X obj 1354 4 tgl 15 0 empty empty empty 17 7 0 10 #fcfcfc #000000
#000000 0 1;
#X obj 1179 65 level~;
#X obj 229 363 quantizedmode aeolian 60;
#X obj 591 366 quantizedmode aeolian 60;
#X connect 0 0 12 0;
#X connect 1 0 15 0;
#X connect 2 0 5 0;
#X connect 3 0 17 0;
#X connect 4 0 3 1;
#X connect 5 0 37 0;
#X connect 5 1 22 0;
#X connect 6 0 13 0;
#X connect 7 0 10 0;
#X connect 8 0 18 0;
#X connect 9 0 8 1;
#X connect 10 0 38 0;
#X connect 10 1 23 0;
#X connect 11 0 1 0;
#X connect 12 0 57 0;
#X connect 13 0 58 0;
#X connect 15 0 0 0;
#X connect 15 0 6 0;
#X connect 15 0 40 0;
#X connect 16 0 21 0;
#X connect 17 0 32 0;
#X connect 18 0 33 0;
#X connect 19 0 0 1;
#X connect 19 0 6 1;
#X connect 20 0 14 0;
#X connect 20 1 14 1;
#X connect 21 0 20 0;
#X connect 22 0 4 0;
#X connect 23 0 9 0;
#X connect 24 0 30 1;
#X connect 24 0 31 1;
#X connect 25 0 26 0;
#X connect 26 0 34 0;
#X connect 27 0 25 0;
#X connect 27 1 28 0;
#X connect 28 0 27 0;
#X connect 29 0 28 0;
#X connect 30 1 35 0;
#X connect 31 1 36 0;
#X connect 32 0 14 0;
#X connect 32 0 16 0;
#X connect 32 1 14 1;
#X connect 32 1 16 0;
#X connect 33 0 14 0;
#X connect 33 0 16 0;
#X connect 33 1 14 1;
#X connect 33 1 16 0;
#X connect 34 0 24 0;
#X connect 35 0 3 0;
#X connect 36 0 8 0;
#X connect 37 0 30 0;
#X connect 38 0 31 0;
#X connect 39 0 48 0;
#X connect 40 0 50 0;
#X connect 40 0 52 0;
#X connect 41 0 39 0;
#X connect 42 0 41 0;
#X connect 42 1 54 0;
#X connect 43 0 56 0;
#X connect 44 0 46 0;
#X connect 45 0 44 0;
#X connect 46 0 47 0;
#X connect 46 1 47 0;
#X connect 49 0 14 0;
#X connect 49 0 14 1;
#X connect 50 0 42 0;
#X connect 51 0 50 1;
#X connect 52 0 45 0;
#X connect 53 0 52 1;
#X connect 54 0 43 0;
#X connect 55 0 54 1;
#X connect 56 0 46 0;
#X connect 57 0 2 0;
#X connect 58 0 7 0;
