#N canvas 1 87 1384 611 12;
#X floatatom 88 328 5 0 0 0 - - - 0;
#X obj 88 351 ramp~;
#X obj 88 399 heavylib/hv.filters/highpass;
#X obj 88 423 heavylib/hv.filters/lowpass;
#X obj 312 380 msphsl 0 20;
#X obj 305 423 msphsl 0 20;
#X obj 170 333 msphsl 0 20000;
#X obj 180 371 msphsl 0 20000;
#X obj 87 53 tgl 15 0 empty empty empty 17 7 0 10 #fcfcfc #000000 #000000
0 1;
#X obj 87 101 sequ;
#X obj 87 250 quantizedmode mixolydian 60;
#X obj 87 274 mtof;
#X obj 87 226 scaled 0 1 36 73;
#X obj 188 525 graph~;
#X obj 106 491 clip~ -1 1;
#X obj 959 316 kick~;
#X obj 462 66 sel 1;
#X msg 462 90 velocity 1;
#X obj 87 298 t f b;
#X obj 198 458 ahdsr~ 5 0 200 0.2 200;
#X obj 198 482 pow~ 2;
#X obj 88 447 *~;
#X obj 87 77 metro 107;
#X obj 462 42 counter 4;
#X obj 91 530 outrec~;
#X obj 959 496 wavefolder~;
#X obj 88 375 saw~;
#X floatatom 137 315 5 0 0 0 - - - 0;
#X obj 496 235 sequ;
#X obj 496 360 scaled 0 1 80 16000;
#X obj 242 280 loadbang;
#X msg 242 304 77;
#X connect 0 0 1 0;
#X connect 1 0 26 0;
#X connect 2 0 3 0;
#X connect 3 0 21 0;
#X connect 4 0 2 2;
#X connect 5 0 3 2;
#X connect 6 0 2 1;
#X connect 7 0 3 1;
#X connect 8 0 22 0;
#X connect 9 0 12 0;
#X connect 10 0 11 0;
#X connect 11 0 18 0;
#X connect 12 0 10 0;
#X connect 14 0 13 0;
#X connect 14 0 24 0;
#X connect 14 0 24 1;
#X connect 15 0 25 0;
#X connect 16 0 17 0;
#X connect 17 0 15 0;
#X connect 18 0 0 0;
#X connect 18 1 19 0;
#X connect 19 0 20 0;
#X connect 20 0 21 1;
#X connect 21 0 14 0;
#X connect 22 0 9 0;
#X connect 22 0 23 0;
#X connect 22 0 28 0;
#X connect 23 0 16 0;
#X connect 25 0 14 0;
#X connect 26 0 2 0;
#X connect 27 0 1 1;
#X connect 28 0 29 0;
#X connect 29 0 7 0;
#X connect 30 0 31 0;
#X connect 31 0 6 0;
