#N canvas 0 25 1082 755 12;
#X obj 30 128 metro, f 10;
#X obj 30 109 tgl 15 0 empty empty empty 17 7 0 10 -262144 -1 -1 1
1;
#X obj 30 56 loadbang;
#X obj 30 152 i;
#X obj 60 152 + 1;
#X obj 30 176 %;
#X obj 90 152 == 0;
#X obj 90 176 sel 1;
#X msg 90 200 1;
#X floatatom 30 200 5 0 0 0 - - -;
#X floatatom 97 13 5 0 0 0 - - -;
#X floatatom 328 13 5 0 0 0 - - -;
#X obj 328 34 s looplength;
#X obj 297 601 *~ 1;
#X obj 297 625 out~;
#X obj 97 34 s mspertick;
#X obj 97 56 r mspertick @hv_param 5 2000 100;
#X obj 328 56 r looplength @hv_param 2 2048 64;
#N canvas 0 183 664 393 melody 0;
#X obj 215 145 unpack 0 0 0 0 0 0 0 0, f 39;
#X obj 177 185 inlet;
#X obj 177 233 outlet;
#X obj 215 57 inlet;
#X obj 215 111 randomlist 8 8;
#X obj 177 209 16step, f 44;
#X obj 215 81 t b list;
#X connect 0 0 5 1;
#X connect 0 1 5 2;
#X connect 0 2 5 3;
#X connect 0 3 5 4;
#X connect 0 4 5 5;
#X connect 0 5 5 6;
#X connect 0 6 5 7;
#X connect 0 7 5 8;
#X connect 1 0 5 0;
#X connect 3 0 6 0;
#X connect 4 0 0 0;
#X connect 5 0 2 0;
#X connect 6 0 4 0;
#X connect 6 1 4 1;
#X restore 296 232 pd melody;
#X obj 296 154 r tick;
#X floatatom 296 256 5 0 0 0 - - -;
#X obj 296 279 + 60;
#X obj 410 144 == 0;
#X obj 410 168 sel 1;
#X obj 415 225 random 3;
#X obj 415 249 sel 0 1 2;
#X obj 299 499 vcf~ 2;
#X obj 571 334 ahdsr~ 100 0 200 0.5 200;
#X obj 571 277 r tick;
#X obj 378 540 echo~ 500 0.5;
#X msg 415 273 50;
#X msg 453 281 62;
#X msg 502 283 74;
#X obj 296 303 mtof;
#X obj 296 351 *~;
#X obj 296 327 phasor~;
#X obj 458 454 scaled~ 0 1 500 4000;
#X obj 571 301 maybe 0.5;
#X obj 319 439 echo~ 125 0.5;
#X obj 210 4 loadbang;
#X msg 233 28 8;
#X msg 190 28 250;
#X obj 354 309 ahdsr~ 10 0 100 0.7 200;
#X msg 345 261 10;
#X msg 380 261 80;
#X obj 30 223 s tick;
#X msg 366 198 0 2 3 5 7 9 10 12;
#X obj 296 413 vibrato~ 1 0.01;
#X connect 0 0 3 0;
#X connect 1 0 0 0;
#X connect 2 0 1 0;
#X connect 3 0 4 0;
#X connect 3 0 5 0;
#X connect 4 0 3 1;
#X connect 5 0 6 0;
#X connect 5 0 9 0;
#X connect 6 0 7 0;
#X connect 7 0 8 0;
#X connect 8 0 3 1;
#X connect 9 0 45 0;
#X connect 10 0 15 0;
#X connect 11 0 12 0;
#X connect 13 0 14 0;
#X connect 13 0 14 1;
#X connect 16 0 0 1;
#X connect 17 0 5 1;
#X connect 18 0 20 0;
#X connect 19 0 18 0;
#X connect 19 0 22 0;
#X connect 20 0 21 0;
#X connect 21 0 33 0;
#X connect 21 0 42 0;
#X connect 22 0 23 0;
#X connect 23 0 46 0;
#X connect 23 0 24 0;
#X connect 24 0 25 0;
#X connect 25 0 30 0;
#X connect 25 1 31 0;
#X connect 25 2 32 0;
#X connect 26 0 29 0;
#X connect 26 1 13 0;
#X connect 27 0 36 0;
#X connect 28 0 37 0;
#X connect 29 0 13 0;
#X connect 30 0 21 1;
#X connect 31 0 21 1;
#X connect 32 0 21 1;
#X connect 33 0 35 0;
#X connect 34 0 47 0;
#X connect 35 0 34 0;
#X connect 36 0 26 1;
#X connect 37 0 27 0;
#X connect 38 0 26 0;
#X connect 39 0 40 0;
#X connect 39 0 41 0;
#X connect 40 0 11 0;
#X connect 41 0 10 0;
#X connect 42 0 34 1;
#X connect 43 0 42 1;
#X connect 44 0 42 1;
#X connect 46 0 18 1;
#X connect 47 0 26 0;
#X connect 47 0 38 0;
