#N canvas 154 130 1360 735 12;
#X obj 85 26 tgl 15 0 empty empty empty 17 7 0 10 #fcfcfc #000000 #000000
0 1;
#X obj 85 50 metro 140;
#X obj 85 74 sequ;
#X obj 85 199 scaled 0 1 40 62;
#X obj 85 223 quantizedmode phrygian 60;
#X obj 85 247 mtof;
#X msg 85 271 frequency \$1;
#X obj 85 295 swarm~;
#X obj 85 588 outrec~;
#X obj 438 74 sequ;
#X msg 438 223 lowcutoff \$1;
#X obj 438 199 scaled 0 1 400 20000;
#X obj 791 75 sequ;
#X msg 791 224 velocity \$1;
#X obj 791 200 scaled 0 1 0.7 1;
#X obj 708 334 sequ;
#X msg 708 483 character \$1;
#X obj 708 459 scaled 0 1 0 1;
#X obj 85 3 loadbang;
#X connect 0 0 1 0;
#X connect 1 0 2 0;
#X connect 1 0 9 0;
#X connect 1 0 12 0;
#X connect 1 0 15 0;
#X connect 2 0 3 0;
#X connect 3 0 4 0;
#X connect 4 0 5 0;
#X connect 5 0 6 0;
#X connect 6 0 7 0;
#X connect 7 0 8 0;
#X connect 7 0 8 1;
#X connect 9 0 11 0;
#X connect 10 0 7 0;
#X connect 11 0 10 0;
#X connect 12 0 14 0;
#X connect 13 0 7 0;
#X connect 14 0 13 0;
#X connect 15 0 17 0;
#X connect 16 0 7 0;
#X connect 17 0 16 0;
#X connect 18 0 0 0;
