#N canvas 152 130 1360 735 12;
#X obj 85 26 tgl 15 0 empty empty empty 17 7 0 10 #fcfcfc #000000 #000000
0 1;
#X obj 85 74 sequ;
#X obj 85 223 quantizedmode phrygian 60;
#X obj 85 247 mtof;
#X msg 85 271 frequency \$1;
#X obj 85 295 swarm~;
#X obj 85 651 outrec~;
#X obj 438 74 sequ;
#X msg 438 223 lowcutoff \$1;
#X obj 438 199 scaled 0 1 400 20000;
#X obj 791 75 sequ;
#X msg 791 224 velocity \$1;
#X obj 791 200 scaled 0 1 0.7 1;
#X obj 708 334 sequ;
#X msg 708 483 character \$1;
#X obj 708 459 scaled 0 1 0 1;
#X obj 85 3 loadbang;
#X obj 119 608 pingpong~ 250 0.7;
#X obj 85 199 scaled 0 1 60 82;
#X obj 85 50 metro 35;
#X obj 523 317 randwalk 200 800;
#X msg 523 382 spread \$1;
#X obj 647 354 bng 15 250 50 0 empty empty empty 17 7 0 10 #fcfcfc
#000000 #000000;
#X obj 863 491 sequ;
#X obj 863 640 quantizedmode phrygian 60;
#X obj 863 664 mtof;
#X msg 863 688 frequency \$1;
#X obj 863 616 scaled 0 1 60 82;
#X obj 523 358 scaled 0 1 0.975 1;
#X connect 0 0 19 0;
#X connect 1 0 18 0;
#X connect 2 0 3 0;
#X connect 3 0 4 0;
#X connect 4 0 5 0;
#X connect 5 0 6 0;
#X connect 5 0 6 1;
#X connect 5 0 17 0;
#X connect 7 0 9 0;
#X connect 8 0 5 0;
#X connect 9 0 8 0;
#X connect 10 0 12 0;
#X connect 11 0 5 0;
#X connect 12 0 11 0;
#X connect 13 0 15 0;
#X connect 14 0 5 0;
#X connect 15 0 14 0;
#X connect 16 0 0 0;
#X connect 17 0 6 0;
#X connect 17 1 6 1;
#X connect 18 0 2 0;
#X connect 19 0 1 0;
#X connect 19 0 7 0;
#X connect 19 0 10 0;
#X connect 19 0 13 0;
#X connect 19 0 23 0;
#X connect 20 0 28 0;
#X connect 20 1 22 0;
#X connect 21 0 5 0;
#X connect 22 0 20 0;
#X connect 23 0 27 0;
#X connect 24 0 25 0;
#X connect 25 0 26 0;
#X connect 26 0 5 0;
#X connect 27 0 24 0;
#X connect 28 0 21 0;
