#N canvas 0 38 1512 884 12;
#X obj 85 26 tgl 15 0 empty empty empty 17 7 0 10 #fcfcfc #000000 #000000
0 1;
#X obj 503 113 sequ;
#X obj 394 491 swarm~;
#X obj 221 831 outrec~;
#X obj 85 113 sequ;
#X obj 85 3 loadbang;
#X obj 438 811 pingpong~ 250 0.7;
#X obj 85 50 metro 35;
#X obj 861 113 sequ;
#X obj 503 361 mtof;
#X msg 503 409 frequency \$1;
#X obj 503 314 scaled 0 2 50 86;
#X obj 438 789 level~;
#X obj 503 260 accumulator;
#X obj 503 284 sel 0;
#X obj 85 238 bng 15 250 50 0 empty empty empty 17 7 0 10 #fcfcfc #000000
#000000;
#X msg 85 262 gate 1;
#X obj 246 300 loadbang;
#X msg 246 324 frequencytriggersgate 0;
#X obj 85 74 t b b, f 95;
#X obj 200 446 sel 0;
#X obj 200 470 hh~;
#X obj 200 494 level~;
#X obj 503 337 quantizedmode aeolian 60;
#X obj 503 385 ramp 40;
#X obj 28 526 sel 0;
#X obj 28 574 kick~;
#X obj 28 754 level~;
#X msg 28 550 velocity 1;
#X obj 28 502 counter 16;
#X obj 57 475 bng 15 250 50 0 empty empty empty 17 7 0 10 #fcfcfc #000000
#000000;
#X msg 985 353 recall \$1;
#X floatatom 981 315 5 0 0 0 - - - 0;
#X obj 200 422 counter 12;
#X connect 0 0 7 0;
#X connect 1 0 13 0;
#X connect 2 0 3 0;
#X connect 2 0 3 1;
#X connect 2 0 12 0;
#X connect 4 0 15 0;
#X connect 5 0 0 0;
#X connect 6 0 3 0;
#X connect 6 1 3 1;
#X connect 7 0 19 0;
#X connect 7 0 29 0;
#X connect 7 0 33 0;
#X connect 8 0 13 0;
#X connect 9 0 24 0;
#X connect 10 0 2 0;
#X connect 11 0 23 0;
#X connect 12 0 6 0;
#X connect 13 0 14 0;
#X connect 14 1 11 0;
#X connect 15 0 16 0;
#X connect 16 0 2 0;
#X connect 17 0 18 0;
#X connect 18 0 2 0;
#X connect 19 0 13 1;
#X connect 19 0 4 0;
#X connect 19 1 1 0;
#X connect 19 1 8 0;
#X connect 20 0 21 0;
#X connect 21 0 22 0;
#X connect 22 0 3 0;
#X connect 22 0 3 1;
#X connect 23 0 9 0;
#X connect 24 0 10 0;
#X connect 25 0 28 0;
#X connect 26 0 27 0;
#X connect 27 0 3 0;
#X connect 27 0 3 1;
#X connect 28 0 26 0;
#X connect 29 0 25 0;
#X connect 30 0 29 1;
#X connect 30 0 33 1;
#X connect 31 0 8 1;
#X connect 31 0 1 1;
#X connect 32 0 31 0;
#X connect 33 0 20 0;
