#N canvas 63 101 450 363 12;
#X msg 212 92 stop;
#X obj 168 69 t b b b;
#X msg 187 123 set 0;
#X obj 158 181 pack f f;
#X msg 157 148 1;
#X obj 108 114 t b b;
#X obj 259 160 f;
#X obj 158 205 line;
#X obj 158 283 msphsl 0 100;
#X obj 167 45 bng 15 250 50 0 empty empty empty 17 7 0 10 #fcfcfc #000000
#000000;
#X floatatom 286 127 5 0 0 0 - - - 0;
#X obj 158 259 scaled 0 1 100 30;
#X obj 158 229 pow 2;
#X obj 158 301 msphsl 0 100;
#X obj 19 259 scaled 0 1 100 30;
#X connect 0 0 7 0;
#X connect 1 0 5 0;
#X connect 1 1 2 0;
#X connect 1 2 0 0;
#X connect 2 0 7 0;
#X connect 3 0 7 0;
#X connect 4 0 3 0;
#X connect 5 0 4 0;
#X connect 5 1 6 0;
#X connect 6 0 3 1;
#X connect 7 0 12 0;
#X connect 7 0 14 0;
#X connect 9 0 1 0;
#X connect 10 0 6 1;
#X connect 11 0 8 0;
#X connect 12 0 11 0;
#X connect 14 0 13 0;
