#N canvas 626 212 886 529 12;
#X obj 69 27 tgl 15 0 empty empty empty 17 7 0 10 #fcfcfc #000000 #000000
0 1;
#X obj 69 51 metro 40;
#X obj 469 75 sequ;
#X obj 469 200 scaled 0 1 60 83;
#X msg 469 224 0 1 40 \$1;
#X obj 69 211 scaled;
#X obj 69 75 sequ;
#X obj 69 259 mtof;
#X obj 69 283 osc~;
#X obj 231 489 outrec~;
#X obj 69 235 quantizedmode mixolydian 60;
#X floatatom 631 222 5 0 0 0 - - - 0;
#X obj 268 259 * 2;
#X obj 268 283 osc~;
#X obj 268 327 level~;
#X obj 41 373 wavefolder~;
#X obj 507 265 sequ;
#X obj 507 390 > 0.5;
#X obj 69 307 *~;
#X obj 507 414 sel 0;
#X obj 507 438 bng 15 250 50 0 empty empty empty 17 7 0 10 #fcfcfc
#000000 #000000;
#X obj 320 269 *~;
#X obj 373 280 echo~ 60 0.7;
#X obj 507 462 ahdsr~ 5 0 200 0.4 50;
#X connect 0 0 1 0;
#X connect 1 0 2 0;
#X connect 1 0 6 0;
#X connect 1 0 16 0;
#X connect 2 0 3 0;
#X connect 2 0 11 0;
#X connect 3 0 4 0;
#X connect 4 0 5 1;
#X connect 5 0 10 0;
#X connect 6 0 5 0;
#X connect 7 0 8 0;
#X connect 7 0 12 0;
#X connect 8 0 18 0;
#X connect 10 0 7 0;
#X connect 12 0 13 0;
#X connect 13 0 21 0;
#X connect 14 0 9 0;
#X connect 14 0 9 1;
#X connect 15 0 9 0;
#X connect 15 0 9 1;
#X connect 16 0 17 0;
#X connect 17 0 19 0;
#X connect 18 0 15 0;
#X connect 19 0 20 0;
#X connect 20 0 23 0;
#X connect 21 0 22 0;
#X connect 22 0 14 0;
#X connect 23 0 18 1;
#X connect 23 0 21 1;
