#N canvas 332 202 1156 587 12;
#X obj 78 10 msphsl 80 600;
#X obj 149 233 out~;
#X obj 87 193 *~;
#X obj 267 18 bng 15 250 50 0 empty empty empty 17 7 0 10 #fcfcfc #000000
#000000;
#X obj 390 293 vd~ broadcast-echo-\$0;
#X obj 390 140 max 1;
#X obj 154 116 delwrite~ broadcast-echo-\$0 60000;
#X floatatom 315 14 5 0 0 0 - - - 0;
#X obj 390 341 *~ 1;
#X obj 390 365 out~;
#X msg 390 164 \$1 50;
#X obj 390 188 line~;
#X obj 78 103 saw~;
#X obj 289 55 ahdsr~ 500 0 2000 0.4 2000;
#X obj 78 33 ftom;
#X obj 78 57 quantizedmode phrygian 50;
#X obj 78 81 mtof;
#X obj 241 313 vibrato~ 1 0.1;
#X obj 390 317 *~ 1;
#X obj 380 14 msphsl 0 2000;
#X obj 517 15 msphsl 80 600;
#X obj 517 38 ftom;
#X obj 517 62 quantizedmode phrygian 50;
#X obj 517 86 mtof;
#X obj 517 108 osc~;
#X obj 517 132 *~;
#X obj 714 25 bng 15 250 50 0 empty empty empty 17 7 0 10 #fcfcfc #000000
#000000;
#X obj 736 62 ahdsr~ 500 0 2000 0.4 2000;
#X obj 241 337 hip~;
#X obj 1005 -1 loadbang;
#X msg 1005 23 80;
#X msg 1045 28 200;
#X connect 0 0 14 0;
#X connect 2 0 1 0;
#X connect 2 0 1 1;
#X connect 2 0 6 0;
#X connect 3 0 13 0;
#X connect 4 0 18 0;
#X connect 5 0 10 0;
#X connect 7 0 5 0;
#X connect 8 0 9 0;
#X connect 8 0 9 1;
#X connect 10 0 11 0;
#X connect 11 0 4 0;
#X connect 12 0 2 0;
#X connect 13 0 2 1;
#X connect 14 0 15 0;
#X connect 15 0 16 0;
#X connect 16 0 12 0;
#X connect 17 0 28 0;
#X connect 18 0 8 0;
#X connect 18 0 17 0;
#X connect 19 0 28 1;
#X connect 20 0 21 0;
#X connect 21 0 22 0;
#X connect 22 0 23 0;
#X connect 23 0 24 0;
#X connect 24 0 25 0;
#X connect 25 0 6 0;
#X connect 25 0 1 0;
#X connect 25 0 1 1;
#X connect 26 0 27 0;
#X connect 27 0 25 1;
#X connect 28 0 6 0;
#X connect 29 0 30 0;
#X connect 29 0 31 0;
#X connect 30 0 0 0;
#X connect 30 0 20 0;
#X connect 31 0 7 0;
