#N canvas 332 202 1156 587 12;
#X obj 78 10 msphsl 80 600;
#X obj 267 18 bng 15 250 50 0 empty empty empty 17 7 0 10 #fcfcfc #000000
#000000;
#X obj 390 293 vd~ broadcast-echo-\$0;
#X obj 390 140 max 1;
#X obj 154 116 delwrite~ broadcast-echo-\$0 60000;
#X floatatom 315 14 5 0 0 0 - - - 0;
#X obj 334 490 out~;
#X msg 390 164 \$1 50;
#X obj 390 188 line~;
#X obj 78 33 ftom;
#X obj 78 57 quantizedmode phrygian 50;
#X obj 78 81 mtof;
#X obj 390 317 *~ 1;
#X obj 517 15 msphsl 80 600;
#X obj 517 38 ftom;
#X obj 517 62 quantizedmode phrygian 50;
#X obj 517 86 mtof;
#X obj 517 108 osc~;
#X obj 517 132 *~;
#X obj 714 25 bng 15 250 50 0 empty empty empty 17 7 0 10 #fcfcfc #000000
#000000;
#X obj 736 62 ahdsr~ 500 0 2000 0.4 2000;
#X obj 241 337 hip~;
#X obj 1005 -1 loadbang;
#X msg 1005 23 80;
#X obj 409 365 ducker~;
#X obj 48 263 *~ 1;
#X obj 241 313 vibrato~ 0.5 0.1;
#X msg 1045 28 2000;
#X obj 712 202 bonk~;
#X obj 745 225 bng 15 250 50 0 empty empty empty 17 7 0 10 #fcfcfc
#000000 #000000;
#X obj 692 294 kick~;
#X msg 712 246 velocity 1;
#X obj 793 205 unpack f f f;
#X floatatom 874 232 5 0 0 0 - - - 0;
#X obj 936 193 sieverange 3.5 3.75 4 4.25;
#X obj 936 217 bng 15 250 50 0 empty empty empty 17 7 0 10 #fcfcfc
#000000 #000000;
#X obj 958 217 bng 15 250 50 0 empty empty empty 17 7 0 10 #fcfcfc
#000000 #000000;
#X obj 980 217 bng 15 250 50 0 empty empty empty 17 7 0 10 #fcfcfc
#000000 #000000;
#X obj 1003 217 bng 15 250 50 0 empty empty empty 17 7 0 10 #fcfcfc
#000000 #000000;
#X obj 1025 217 bng 15 250 50 0 empty empty empty 17 7 0 10 #fcfcfc
#000000 #000000;
#X obj 1047 217 bng 15 250 50 0 empty empty empty 17 7 0 10 #fcfcfc
#000000 #000000;
#X obj 1070 217 bng 15 250 50 0 empty empty empty 17 7 0 10 #fcfcfc
#000000 #000000;
#X obj 1092 217 bng 15 250 50 0 empty empty empty 17 7 0 10 #fcfcfc
#000000 #000000;
#X obj 1073 464 snare~;
#X obj 638 503 *~ 1;
#X obj 78 103 square~;
#X obj 80 390 randwalk 200 300;
#X obj 140 210 bng 15 250 50 0 empty empty empty 17 7 0 10 #fcfcfc
#000000 #000000;
#X obj 80 431 scaled 0 1 0.4 0.6;
#X obj 45 147 bob~;
#X obj 289 99 scaled~ 0 1 0 12000;
#X obj 63 184 *~ 1;
#X obj 289 55 ahdsr~ 5 0 200 0.4 200;
#X obj 289 76 pow~ 2;
#X obj 391 17 msphsl 0 8000;
#X obj 573 327 hip~ 50;
#X connect 0 0 9 0;
#X connect 1 0 52 0;
#X connect 2 0 12 0;
#X connect 2 0 28 0;
#X connect 2 0 55 0;
#X connect 3 0 7 0;
#X connect 5 0 3 0;
#X connect 7 0 8 0;
#X connect 8 0 2 0;
#X connect 9 0 10 0;
#X connect 10 0 11 0;
#X connect 11 0 45 0;
#X connect 12 0 26 0;
#X connect 13 0 14 0;
#X connect 14 0 15 0;
#X connect 15 0 16 0;
#X connect 16 0 17 0;
#X connect 17 0 18 0;
#X connect 18 0 4 0;
#X connect 18 0 25 0;
#X connect 19 0 20 0;
#X connect 20 0 18 1;
#X connect 21 0 4 0;
#X connect 22 0 23 0;
#X connect 22 0 27 0;
#X connect 23 0 0 0;
#X connect 23 0 13 0;
#X connect 24 0 6 0;
#X connect 24 0 6 1;
#X connect 24 1 6 0;
#X connect 24 1 6 1;
#X connect 25 0 24 0;
#X connect 26 0 21 0;
#X connect 27 0 5 0;
#X connect 28 1 29 0;
#X connect 28 1 32 0;
#X connect 30 0 44 0;
#X connect 31 0 30 0;
#X connect 32 2 33 0;
#X connect 33 0 34 0;
#X connect 34 0 35 0;
#X connect 34 1 36 0;
#X connect 34 2 37 0;
#X connect 34 3 38 0;
#X connect 34 4 39 0;
#X connect 34 5 40 0;
#X connect 34 6 41 0;
#X connect 34 7 42 0;
#X connect 35 0 31 0;
#X connect 36 0 31 0;
#X connect 37 0 31 0;
#X connect 38 0 43 0;
#X connect 43 0 44 0;
#X connect 44 0 24 1;
#X connect 45 0 49 0;
#X connect 46 0 48 0;
#X connect 46 1 47 0;
#X connect 47 0 46 0;
#X connect 48 0 45 1;
#X connect 49 0 51 0;
#X connect 50 0 49 1;
#X connect 51 0 4 0;
#X connect 51 0 25 0;
#X connect 52 0 53 0;
#X connect 53 0 50 0;
#X connect 54 0 21 1;
#X connect 55 0 24 1;
