#N canvas 0 38 1512 884 12;
#X obj 116 246 scaled 0 1 1 8;
#X obj 116 270 i;
#X floatatom 116 294 5 0 0 0 - - - 0;
#X obj 116 121 sequ;
#X obj 573 30 tgl 15 0 empty empty empty 17 7 0 10 #fcfcfc #000000
#000000 0 1;
#X floatatom 116 365 5 0 0 0 - - - 0;
#X floatatom 234 364 5 0 0 0 - - - 0;
#X floatatom 352 365 5 0 0 0 - - - 0;
#X obj 116 448 mtof;
#X obj 234 457 mtof;
#X obj 352 458 mtof;
#X obj 116 652 osc~;
#X obj 234 651 osc~;
#X obj 352 652 osc~;
#X obj 505 823 out~;
#X obj 750 121 sequ;
#X obj 750 246 scaled 0 1 45 73;
#X obj 750 300 mtof;
#X obj 750 270 quantizedmode aeolian 60;
#X obj 750 324 square~;
#X obj 1056 374 bng 15 250 50 0 empty empty empty 17 7 0 10 #fcfcfc
#000000 #000000;
#X obj 946 331 randwalk 2000 3000;
#X obj 904 401 scaled 0 1 0.3 0.7;
#X obj 750 348 level~;
#X obj 750 371 *~;
#X obj 823 304 bng 15 250 50 0 empty empty empty 17 7 0 10 #fcfcfc
#000000 #000000;
#X obj 861 300 ahdsr~ 5 100 30 0.3 100;
#X obj 604 270 saw~;
#X obj 604 294 level~;
#X obj 976 477 bng 15 250 50 0 empty empty empty 17 7 0 10 #fcfcfc
#000000 #000000;
#X obj 866 434 randwalk 2000 3000;
#X obj 824 504 scaled 0 1 0.1 0.9;
#X obj 116 341 unpack f f f f, f 51;
#X floatatom 466 364 5 0 0 0 - - - 0;
#X obj 462 455 mtof;
#X obj 462 649 osc~;
#X obj 116 472 t b f;
#X obj 101 573 maybe 0.4;
#X obj 101 616 ahdsr~ 5 100 30 0.3 100;
#X obj 116 676 *~;
#X obj 234 675 *~;
#X obj 352 676 *~;
#X obj 462 673 *~;
#X obj 234 481 t b f;
#X obj 352 482 t b f;
#X obj 462 479 t b f;
#X obj 231 583 maybe 0.4;
#X obj 231 626 ahdsr~ 5 100 30 0.3 100;
#X obj 351 573 maybe 0.4;
#X obj 351 616 ahdsr~ 5 100 30 0.3 100;
#X obj 480 558 maybe 0.4;
#X obj 481 626 ahdsr~ 5 100 30 0.3 100;
#X obj 548 453 msphsl 0 1 0.4;
#X obj 421 722 *~ 1;
#X obj 421 746 level~;
#X obj 116 388 octjumper 0.4;
#X floatatom 116 412 5 0 0 0 - - - 0;
#X obj 234 388 octjumper 0.4;
#X floatatom 234 412 5 0 0 0 - - - 0;
#X obj 352 388 octjumper 0.4;
#X floatatom 352 412 5 0 0 0 - - - 0;
#X obj 466 388 octjumper 0.4;
#X floatatom 466 412 5 0 0 0 - - - 0;
#X obj 641 748 pingpong~ 134 0.75;
#X obj 116 317 chord harmonicminor 60;
#X obj 573 54 metro 50;
#X obj 1173 407 loadbang;
#X connect 0 0 1 0;
#X connect 1 0 2 0;
#X connect 2 0 64 0;
#X connect 3 0 0 0;
#X connect 4 0 65 0;
#X connect 5 0 55 0;
#X connect 6 0 57 0;
#X connect 7 0 59 0;
#X connect 8 0 36 0;
#X connect 9 0 43 0;
#X connect 10 0 44 0;
#X connect 11 0 39 0;
#X connect 12 0 40 0;
#X connect 13 0 41 0;
#X connect 15 0 16 0;
#X connect 16 0 18 0;
#X connect 17 0 19 0;
#X connect 17 0 25 0;
#X connect 17 0 27 0;
#X connect 18 0 17 0;
#X connect 19 0 23 0;
#X connect 20 0 21 0;
#X connect 21 0 22 0;
#X connect 21 1 20 0;
#X connect 22 0 19 1;
#X connect 23 0 24 0;
#X connect 24 0 14 0;
#X connect 24 0 14 1;
#X connect 25 0 26 0;
#X connect 26 0 24 1;
#X connect 27 0 28 0;
#X connect 28 0 23 0;
#X connect 29 0 30 0;
#X connect 30 0 31 0;
#X connect 30 1 29 0;
#X connect 31 0 28 1;
#X connect 32 0 5 0;
#X connect 32 1 6 0;
#X connect 32 2 7 0;
#X connect 32 3 33 0;
#X connect 33 0 61 0;
#X connect 34 0 45 0;
#X connect 35 0 42 0;
#X connect 36 0 37 0;
#X connect 36 1 11 0;
#X connect 37 0 38 0;
#X connect 38 0 39 1;
#X connect 39 0 53 0;
#X connect 40 0 53 0;
#X connect 41 0 53 0;
#X connect 42 0 53 0;
#X connect 43 0 46 0;
#X connect 43 1 12 0;
#X connect 44 0 48 0;
#X connect 44 1 13 0;
#X connect 45 0 50 0;
#X connect 45 1 35 0;
#X connect 46 0 47 0;
#X connect 47 0 40 1;
#X connect 48 0 49 0;
#X connect 49 0 41 1;
#X connect 50 0 51 0;
#X connect 51 0 42 1;
#X connect 52 0 37 1;
#X connect 52 0 50 1;
#X connect 52 0 48 1;
#X connect 52 0 46 1;
#X connect 53 0 54 0;
#X connect 54 0 14 0;
#X connect 54 0 14 1;
#X connect 54 0 63 0;
#X connect 55 0 56 0;
#X connect 56 0 8 0;
#X connect 57 0 58 0;
#X connect 58 0 9 0;
#X connect 59 0 60 0;
#X connect 60 0 10 0;
#X connect 61 0 62 0;
#X connect 62 0 34 0;
#X connect 63 0 14 0;
#X connect 63 1 14 1;
#X connect 64 0 32 0;
#X connect 65 0 3 0;
#X connect 65 0 15 0;
#X connect 66 0 20 0;
#X connect 66 0 29 0;
