#N canvas 0 38 1512 884 12;
#X obj 214 9 tgl 15 0 empty empty empty 17 7 0 10 #fcfcfc #000000 #000000
0 1;
#X obj 214 33 metro 60;
#X obj 214 58 sequ;
#X obj 214 748 wavefolder~;
#X obj 1081 494 outrec~;
#X obj 214 829 throw~ out;
#X obj 1081 293 catch~ out;
#X obj 1244 315 tapeecho~ 250 0.55;
#X obj 1081 317 pan~ 0.4;
#X obj 1243 360 pan~ 0.6;
#X msg 214 183 pitch \$1;
#X obj 214 207 mspdfam~;
#X obj 1244 289 level~;
#X obj 149 9 loadbang;
#X connect 0 0 1 0;
#X connect 1 0 2 0;
#X connect 2 0 10 0;
#X connect 3 0 5 0;
#X connect 6 0 8 0;
#X connect 6 0 12 0;
#X connect 7 0 9 0;
#X connect 8 0 4 0;
#X connect 8 1 4 1;
#X connect 9 0 4 0;
#X connect 9 1 4 1;
#X connect 10 0 11 0;
#X connect 11 0 3 0;
#X connect 12 0 7 0;
#X connect 13 0 0 0;
