#N canvas 203 139 1146 639 12;
#X obj 7 51 sequ;
#X obj 7 7 tgl 15 0 empty empty empty 17 7 0 10 #fcfcfc #000000 #000000
0 1;
#X obj 7 27 metro 50;
#X obj 7 302 fm~, f 53;
#X obj 975 534 outrec~;
#X obj 127 51 sequ;
#X obj 247 51 sequ;
#X obj 127 206 scaled 0 1 1 10;
#X obj 127 230 i;
#X obj 247 230 i;
#X obj 7 254 quantizedmode phrygian 60;
#X obj 367 51 sequ;
#X obj 367 206 scaled 0 1 50 500;
#X obj 7 374 *~, f 5;
#X obj 7 278 t f b;
#X obj 39 326 ahdsr~ 5 0 200 0.4 200;
#X obj 39 350 pow~ 2;
#X obj 7 206 scaled 0 1 30 50;
#X obj 7 473 throw~ outL;
#X obj 117 473 throw~ outR;
#X obj 620 421 throw~ outL;
#X obj 709 421 throw~ outR;
#X obj 926 497 catch~ outL;
#X obj 1009 497 catch~ outR;
#X obj 7 398 level~;
#X obj 136 424 tapeecho~ 300 0.5;
#X obj 136 448 level~;
#X obj 247 206 scaled 0 1 1 4;
#X obj 643 130 kick~;
#X msg 652 87 velocity 1;
#X obj 643 350 level~;
#X obj 652 39 counter 16;
#X obj 652 63 sel 0 8;
#X obj 756 26 bng 15 250 50 0 empty empty empty 17 7 0 10 #fcfcfc #000000
#000000;
#X connect 0 0 17 0;
#X connect 1 0 2 0;
#X connect 2 0 0 0;
#X connect 2 0 5 0;
#X connect 2 0 6 0;
#X connect 2 0 11 0;
#X connect 2 0 31 0;
#X connect 3 0 13 0;
#X connect 5 0 7 0;
#X connect 6 0 27 0;
#X connect 7 0 8 0;
#X connect 8 0 3 1;
#X connect 9 0 3 2;
#X connect 10 0 14 0;
#X connect 11 0 12 0;
#X connect 12 0 3 3;
#X connect 13 0 24 0;
#X connect 14 0 3 0;
#X connect 14 1 15 0;
#X connect 15 0 16 0;
#X connect 16 0 13 1;
#X connect 17 0 10 0;
#X connect 22 0 4 0;
#X connect 23 0 4 1;
#X connect 24 0 18 0;
#X connect 24 0 19 0;
#X connect 24 0 25 0;
#X connect 25 0 26 0;
#X connect 26 0 19 0;
#X connect 26 0 18 0;
#X connect 27 0 9 0;
#X connect 28 0 30 0;
#X connect 29 0 28 0;
#X connect 30 0 20 0;
#X connect 30 0 21 0;
#X connect 31 0 32 0;
#X connect 32 0 29 0;
#X connect 32 1 29 0;
#X connect 33 0 31 1;
