#N canvas 0 25 1280 755 12;
#X floatatom 18 250 5 0 0 0 - - -;
#X obj 18 349 unpack f f f f, f 19;
#X obj 18 635 *~, f 36;
#X obj 33 909 out~;
#X obj 18 67 tgl 15 0 empty empty empty 17 7 0 10 -262144 -1 -1 1 1
;
#X floatatom 78 64 5 0 0 0 - - -;
#X floatatom 208 142 5 0 0 0 - - -;
#X obj 44 660 echo~ 100 0.7;
#X obj 26 751 *~ 1;
#X obj 341 278 / 2;
#X obj 44 708 hip~ 1000;
#X obj 44 684 tremolo~ 10 1;
#X obj 241 775 echo~ 75 0.6;
#X obj 245 705 ahdsr~ 5 0 200 0.4 200;
#X obj 190 723 *~;
#X obj 18 397 bng 15 250 50 0 empty empty empty 17 7 0 10 -262144 -1
-1;
#X obj 58 427 bng 15 250 50 0 empty empty empty 17 7 0 10 -262144 -1
-1;
#X obj 98 447 bng 15 250 50 0 empty empty empty 17 7 0 10 -262144 -1
-1;
#X obj 148 457 bng 15 250 50 0 empty empty empty 17 7 0 10 -262144
-1 -1;
#X obj 159 142 / 10;
#X obj 602 195 osc~;
#X obj 602 145 mtof;
#X obj 602 169 / 4;
#X floatatom 602 123 5 0 0 0 - - -;
#X obj 448 255 / 1.5;
#X obj 267 359 ahdsr~ 50 0 200 0.4 200;
#X obj 18 547 mtof;
#X obj 18 571 osc~;
#X obj 547 519 mtof;
#X obj 544 571 osc~;
#X obj 760 552 square~ 0.5;
#X obj 760 527 mtof;
#X obj 497 728 *~ 4000;
#X obj 29 869 *~ 1;
#X obj 814 426 crackle~;
#X obj 968 418 echo~ 20 0.8;
#X obj 919 241 / 3;
#X obj 785 456 ducker~ 1 200;
#X obj 920 461 *~ 8000;
#X obj 875 510 vcf~ 1;
#X obj 323 573 synthstring~;
#X msg 330 544 \$1 64;
#X obj 78 17 loadbang;
#X obj 955 389 cymbal~ 21 1000;
#X obj 832 129 snare~ 200 1 800;
#X obj 832 104 humanize 20;
#X obj 832 153 vfreeverb~ 0.5 0.9 0.7 0.3, f 44;
#X obj 467 79 / 3;
#X obj 913 214 echo~ 20 0;
#X obj 1006 213 * 0.5;
#X obj 26 798 vcf~ 2, f 93;
#X obj 798 774 vibrato~ 2 2;
#X obj 798 750 polystrings~;
#X msg 798 707 \$1 64;
#X obj 797 679 t f f, f 35;
#X obj 1037 706 pipe 200;
#X msg 1037 730 \$1 0;
#X obj 1074 610 / 2;
#X obj 797 651 maybe 0.5;
#X floatatom 18 204 5 0 0 0 - - -;
#X obj 18 117 metronome 500 16;
#X floatatom 71 156 5 0 0 0 - - -;
#X obj 832 53 onbeats 2 4 6 8 10 12 14 15 16;
#X msg 78 41 600;
#X obj 832 79 16step;
#X obj 18 183 onbeats 4 5 9 12 13 15;
#X obj 18 227 16step 4 5 6 2 4 5;
#X obj 245 838 echo~ 75 0.2;
#X obj 18 272 t f b, f 36;
#X obj 18 523 + 0;
#X obj 61 523 + 0;
#X obj 104 523 + 0;
#X obj 148 523 + 0;
#X obj 18 325 chord ionian 55, f 18;
#X obj 760 596 *~ 0.4;
#X obj 833 265 *~ 0.25;
#X obj 18 373 humanize 50;
#X obj 58 403 humanize 50;
#X obj 98 423 humanize 50;
#X obj 148 433 humanize 50;
#X obj 1006 189 lfo sin 1;
#X obj 784 393 kick~;
#X obj 241 750 vibrato~ 1 0.2;
#X obj 602 219 vibrato~ 2 0.2;
#X connect 0 0 68 0;
#X connect 1 0 76 0;
#X connect 1 1 77 0;
#X connect 1 2 78 0;
#X connect 1 3 79 0;
#X connect 2 0 8 0;
#X connect 2 0 7 0;
#X connect 4 0 60 0;
#X connect 5 0 9 0;
#X connect 5 0 19 0;
#X connect 5 0 24 0;
#X connect 5 0 36 0;
#X connect 5 0 47 0;
#X connect 5 0 57 0;
#X connect 5 0 60 1;
#X connect 6 0 69 1;
#X connect 6 0 70 1;
#X connect 6 0 71 1;
#X connect 6 0 72 1;
#X connect 7 0 11 0;
#X connect 8 0 50 0;
#X connect 9 0 25 5;
#X connect 10 0 8 0;
#X connect 11 0 10 0;
#X connect 12 0 8 0;
#X connect 13 0 14 1;
#X connect 14 0 82 0;
#X connect 19 0 76 1;
#X connect 19 0 77 1;
#X connect 19 0 78 1;
#X connect 19 0 79 1;
#X connect 20 0 83 0;
#X connect 21 0 22 0;
#X connect 22 0 20 0;
#X connect 23 0 21 0;
#X connect 24 0 7 1;
#X connect 24 0 67 1;
#X connect 25 0 2 1;
#X connect 25 0 32 0;
#X connect 25 0 38 0;
#X connect 26 0 27 0;
#X connect 27 0 2 0;
#X connect 28 0 29 0;
#X connect 29 0 2 0;
#X connect 29 0 74 0;
#X connect 30 0 74 0;
#X connect 31 0 30 0;
#X connect 32 0 50 1;
#X connect 33 0 3 0;
#X connect 33 0 3 1;
#X connect 34 0 37 1;
#X connect 35 0 37 1;
#X connect 36 0 35 1;
#X connect 37 0 33 0;
#X connect 37 1 39 0;
#X connect 38 0 39 1;
#X connect 39 0 33 0;
#X connect 40 0 2 0;
#X connect 41 0 40 0;
#X connect 42 0 63 0;
#X connect 42 0 4 0;
#X connect 43 0 35 0;
#X connect 43 0 37 1;
#X connect 44 0 46 0;
#X connect 45 0 44 0;
#X connect 46 0 48 0;
#X connect 46 0 75 0;
#X connect 47 0 48 1;
#X connect 48 0 75 0;
#X connect 49 0 48 2;
#X connect 50 0 67 0;
#X connect 50 1 33 0;
#X connect 51 0 50 0;
#X connect 52 0 51 0;
#X connect 53 0 52 0;
#X connect 54 0 53 0;
#X connect 54 1 55 0;
#X connect 55 0 56 0;
#X connect 56 0 52 0;
#X connect 57 0 55 1;
#X connect 58 0 54 0;
#X connect 59 0 66 0;
#X connect 60 0 13 0;
#X connect 60 0 61 0;
#X connect 60 0 62 0;
#X connect 60 0 65 0;
#X connect 60 0 43 0;
#X connect 60 0 81 0;
#X connect 62 0 64 0;
#X connect 63 0 5 0;
#X connect 64 0 45 0;
#X connect 65 0 59 0;
#X connect 66 0 0 0;
#X connect 67 0 33 0;
#X connect 68 0 73 0;
#X connect 68 1 25 0;
#X connect 69 0 23 0;
#X connect 69 0 26 0;
#X connect 69 0 58 0;
#X connect 70 0 41 0;
#X connect 71 0 28 0;
#X connect 72 0 31 0;
#X connect 73 0 1 0;
#X connect 74 0 14 0;
#X connect 74 0 2 0;
#X connect 75 0 33 0;
#X connect 76 0 15 0;
#X connect 76 0 69 0;
#X connect 77 0 16 0;
#X connect 77 0 70 0;
#X connect 78 0 17 0;
#X connect 78 0 71 0;
#X connect 79 0 18 0;
#X connect 79 0 72 0;
#X connect 80 0 49 0;
#X connect 81 0 37 0;
#X connect 82 0 12 0;
#X connect 83 0 2 0;
