#N canvas 0 38 1512 884 12;
#X obj 56 10 tgl 15 0 empty empty empty 17 7 0 10 #fcfcfc #000000 #000000
0 1;
#X obj 56 58 s tick;
#X obj 56 100 r tick;
#X obj 56 124 sequ;
#X obj 56 279 scaled 0 1 24 36;
#X obj 236 100 r tick;
#X obj 236 124 sequ;
#X obj 416 100 r tick;
#X obj 416 124 sequ;
#X obj 596 100 r tick;
#X obj 596 124 sequ;
#X obj 776 100 r tick;
#X obj 776 124 sequ;
#X obj 956 100 r tick;
#X obj 956 124 sequ;
#X obj 56 303 quantizedmode aeolian 60;
#X obj 236 303 quantizedmode aeolian 60;
#X obj 416 303 quantizedmode aeolian 60;
#X obj 596 303 quantizedmode aeolian 60;
#X obj 776 303 quantizedmode aeolian 60;
#X obj 956 303 quantizedmode aeolian 60;
#X obj 236 279 scaled 0 1 30 42;
#X obj 416 279 scaled 0 1 36 48;
#X obj 596 279 scaled 0 1 42 54;
#X obj 776 279 scaled 0 1 48 60;
#X obj 956 279 scaled 0 1 54 66;
#X obj 56 351 t b f, f 12;
#X obj 56 375 ahdsr~ 5 0 100 0.4 100;
#X obj 56 399 pow~ 2;
#X obj 56 423 *~;
#X obj 137 399 osc~;
#X obj 56 447 throw~ out;
#X obj 236 351 t b f, f 12;
#X obj 236 375 ahdsr~ 5 0 100 0.4 100;
#X obj 236 399 pow~ 2;
#X obj 236 423 *~;
#X obj 317 399 osc~;
#X obj 236 447 throw~ out;
#X obj 416 351 t b f, f 12;
#X obj 416 399 pow~ 2;
#X obj 416 423 *~;
#X obj 497 399 osc~;
#X obj 416 447 throw~ out;
#X obj 596 351 t b f, f 12;
#X obj 596 375 ahdsr~ 5 0 100 0.4 100;
#X obj 596 399 pow~ 2;
#X obj 596 423 *~;
#X obj 677 399 osc~;
#X obj 596 447 throw~ out;
#X obj 776 351 t b f, f 12;
#X obj 776 399 pow~ 2;
#X obj 776 423 *~;
#X obj 857 399 osc~;
#X obj 776 447 throw~ out;
#X obj 956 351 t b f, f 12;
#X obj 956 375 ahdsr~ 5 0 100 0.4 100;
#X obj 956 399 pow~ 2;
#X obj 956 423 *~;
#X obj 1037 399 osc~;
#X obj 956 447 throw~ out;
#X obj 56 509 r tick;
#X obj 56 533 sequ;
#X obj 236 509 r tick;
#X obj 236 533 sequ;
#X obj 416 509 r tick;
#X obj 416 533 sequ;
#X obj 596 509 r tick;
#X obj 596 533 sequ;
#X obj 776 509 r tick;
#X obj 776 533 sequ;
#X obj 956 509 r tick;
#X obj 956 533 sequ;
#X obj 56 712 quantizedmode aeolian 60;
#X obj 236 712 quantizedmode aeolian 60;
#X obj 416 712 quantizedmode aeolian 60;
#X obj 596 712 quantizedmode aeolian 60;
#X obj 776 712 quantizedmode aeolian 60;
#X obj 956 712 quantizedmode aeolian 60;
#X obj 56 760 t b f, f 12;
#X obj 56 784 ahdsr~ 5 0 100 0.4 100;
#X obj 56 808 pow~ 2;
#X obj 56 832 *~;
#X obj 137 808 osc~;
#X obj 56 856 throw~ out;
#X obj 236 760 t b f, f 12;
#X obj 236 784 ahdsr~ 5 0 100 0.4 100;
#X obj 236 808 pow~ 2;
#X obj 236 832 *~;
#X obj 317 808 osc~;
#X obj 236 856 throw~ out;
#X obj 416 760 t b f, f 12;
#X obj 416 784 ahdsr~ 5 0 100 0.4 100;
#X obj 416 808 pow~ 2;
#X obj 416 832 *~;
#X obj 497 808 osc~;
#X obj 416 856 throw~ out;
#X obj 596 760 t b f, f 12;
#X obj 596 808 pow~ 2;
#X obj 596 832 *~;
#X obj 677 808 osc~;
#X obj 596 856 throw~ out;
#X obj 776 760 t b f, f 12;
#X obj 776 784 ahdsr~ 5 0 100 0.4 100;
#X obj 776 808 pow~ 2;
#X obj 776 832 *~;
#X obj 857 808 osc~;
#X obj 776 856 throw~ out;
#X obj 956 760 t b f, f 12;
#X obj 956 784 ahdsr~ 5 0 100 0.4 100;
#X obj 956 808 pow~ 2;
#X obj 956 832 *~;
#X obj 1037 808 osc~;
#X obj 956 856 throw~ out;
#X obj 56 688 scaled 0 1 60 72;
#X obj 236 688 scaled 0 1 66 78;
#X obj 416 688 scaled 0 1 72 84;
#X obj 596 688 scaled 0 1 78 90;
#X obj 776 688 scaled 0 1 84 96;
#X obj 956 688 scaled 0 1 90 102;
#X obj 1182 84 catch~ out;
#X obj 1182 108 *~ 0.08;
#X obj 1242 300 outrec~;
#X obj 323 12 tgl 15 0 empty empty empty 17 7 0 10 #fcfcfc #000000
#000000 0 1;
#X obj 323 34 s gen;
#X obj 114 76 r gen;
#X obj 294 76 r gen;
#X obj 474 76 r gen;
#X obj 654 76 r gen;
#X obj 834 76 r gen;
#X obj 1014 76 r gen;
#X obj 114 485 r gen;
#X obj 294 485 r gen;
#X obj 474 485 r gen;
#X obj 654 485 r gen;
#X obj 834 485 r gen;
#X obj 1014 485 r gen;
#X obj 1252 219 pan~;
#X msg 114 100 generate \$1;
#X msg 294 100 generate \$1;
#X msg 474 100 generate \$1;
#X msg 654 100 generate \$1;
#X msg 834 100 generate \$1;
#X msg 1014 100 generate \$1;
#X msg 1014 509 generate \$1;
#X msg 834 509 generate \$1;
#X msg 654 509 generate \$1;
#X msg 474 509 generate \$1;
#X msg 294 509 generate \$1;
#X msg 114 509 generate \$1;
#X obj 469 9 msphsl 0 1;
#X obj 469 32 s density;
#X obj 134 126 r density;
#X msg 134 150 density \$1;
#X obj 314 126 r density;
#X msg 314 150 density \$1;
#X obj 494 126 r density;
#X msg 494 150 density \$1;
#X obj 674 126 r density;
#X msg 674 150 density \$1;
#X obj 854 126 r density;
#X msg 854 150 density \$1;
#X obj 1034 126 r density;
#X msg 1034 150 density \$1;
#X obj 134 535 r density;
#X msg 134 559 density \$1;
#X obj 314 535 r density;
#X msg 314 559 density \$1;
#X obj 494 535 r density;
#X msg 494 559 density \$1;
#X obj 674 535 r density;
#X msg 674 559 density \$1;
#X obj 854 535 r density;
#X msg 854 559 density \$1;
#X obj 1034 535 r density;
#X msg 1034 559 density \$1;
#X obj 341 11 msphsl 0 1;
#X obj 56 327 mtof;
#X obj 236 327 mtof;
#X obj 416 327 mtof;
#X obj 596 327 mtof;
#X obj 776 327 mtof;
#X obj 956 327 mtof;
#X obj 56 736 mtof;
#X obj 236 736 mtof;
#X obj 416 736 mtof;
#X obj 596 736 mtof;
#X obj 776 736 mtof;
#X obj 956 736 mtof;
#X obj 1362 145 lfo sin 0.1;
#X obj 1232 145 tapeecho~ 200 0.4;
#X obj 416 375 ahdsr~ 50 0 100 0.4 100;
#X obj 776 375 ahdsr~ 25 0 100 0.4 100;
#X obj 596 784 ahdsr~ 35 0 100 0.4 100;
#X obj 1232 169 phaser~;
#X obj 1232 193 level~;
#X obj 56 34 metro 40;
#X obj 1274 65 msphsl 0 1;
#X obj 1362 169 scaled 0 1 0.4 0.6;
#X connect 0 0 195 0;
#X connect 2 0 3 0;
#X connect 3 0 4 0;
#X connect 4 0 15 0;
#X connect 5 0 6 0;
#X connect 6 0 21 0;
#X connect 7 0 8 0;
#X connect 8 0 22 0;
#X connect 9 0 10 0;
#X connect 10 0 23 0;
#X connect 11 0 12 0;
#X connect 12 0 24 0;
#X connect 13 0 14 0;
#X connect 14 0 25 0;
#X connect 15 0 176 0;
#X connect 16 0 177 0;
#X connect 17 0 178 0;
#X connect 18 0 179 0;
#X connect 19 0 180 0;
#X connect 20 0 181 0;
#X connect 21 0 16 0;
#X connect 22 0 17 0;
#X connect 23 0 18 0;
#X connect 24 0 19 0;
#X connect 25 0 20 0;
#X connect 26 0 27 0;
#X connect 26 1 30 0;
#X connect 27 0 28 0;
#X connect 28 0 29 0;
#X connect 29 0 31 0;
#X connect 30 0 29 1;
#X connect 32 0 33 0;
#X connect 32 1 36 0;
#X connect 33 0 34 0;
#X connect 34 0 35 0;
#X connect 35 0 37 0;
#X connect 36 0 35 1;
#X connect 38 0 190 0;
#X connect 38 1 41 0;
#X connect 39 0 40 0;
#X connect 40 0 42 0;
#X connect 41 0 40 1;
#X connect 43 0 44 0;
#X connect 43 1 47 0;
#X connect 44 0 45 0;
#X connect 45 0 46 0;
#X connect 46 0 48 0;
#X connect 47 0 46 1;
#X connect 49 0 191 0;
#X connect 49 1 52 0;
#X connect 50 0 51 0;
#X connect 51 0 53 0;
#X connect 52 0 51 1;
#X connect 54 0 55 0;
#X connect 54 1 58 0;
#X connect 55 0 56 0;
#X connect 56 0 57 0;
#X connect 57 0 59 0;
#X connect 58 0 57 1;
#X connect 60 0 61 0;
#X connect 61 0 113 0;
#X connect 62 0 63 0;
#X connect 63 0 114 0;
#X connect 64 0 65 0;
#X connect 65 0 115 0;
#X connect 66 0 67 0;
#X connect 67 0 116 0;
#X connect 68 0 69 0;
#X connect 69 0 117 0;
#X connect 70 0 71 0;
#X connect 71 0 118 0;
#X connect 72 0 182 0;
#X connect 73 0 183 0;
#X connect 74 0 184 0;
#X connect 75 0 185 0;
#X connect 76 0 186 0;
#X connect 77 0 187 0;
#X connect 78 0 79 0;
#X connect 78 1 82 0;
#X connect 79 0 80 0;
#X connect 80 0 81 0;
#X connect 81 0 83 0;
#X connect 82 0 81 1;
#X connect 84 0 85 0;
#X connect 84 1 88 0;
#X connect 85 0 86 0;
#X connect 86 0 87 0;
#X connect 87 0 89 0;
#X connect 88 0 87 1;
#X connect 90 0 91 0;
#X connect 90 1 94 0;
#X connect 91 0 92 0;
#X connect 92 0 93 0;
#X connect 93 0 95 0;
#X connect 94 0 93 1;
#X connect 96 0 192 0;
#X connect 96 1 99 0;
#X connect 97 0 98 0;
#X connect 98 0 100 0;
#X connect 99 0 98 1;
#X connect 101 0 102 0;
#X connect 101 1 105 0;
#X connect 102 0 103 0;
#X connect 103 0 104 0;
#X connect 104 0 106 0;
#X connect 105 0 104 1;
#X connect 107 0 108 0;
#X connect 107 1 111 0;
#X connect 108 0 109 0;
#X connect 109 0 110 0;
#X connect 110 0 112 0;
#X connect 111 0 110 1;
#X connect 113 0 72 0;
#X connect 114 0 73 0;
#X connect 115 0 74 0;
#X connect 116 0 75 0;
#X connect 117 0 76 0;
#X connect 118 0 77 0;
#X connect 119 0 120 0;
#X connect 120 0 121 0;
#X connect 120 0 121 1;
#X connect 120 0 189 0;
#X connect 122 0 123 0;
#X connect 124 0 137 0;
#X connect 125 0 138 0;
#X connect 126 0 139 0;
#X connect 127 0 140 0;
#X connect 128 0 141 0;
#X connect 129 0 142 0;
#X connect 130 0 148 0;
#X connect 131 0 147 0;
#X connect 132 0 146 0;
#X connect 133 0 145 0;
#X connect 134 0 144 0;
#X connect 135 0 143 0;
#X connect 136 0 121 0;
#X connect 136 1 121 1;
#X connect 137 0 3 1;
#X connect 138 0 6 1;
#X connect 139 0 8 1;
#X connect 140 0 10 1;
#X connect 141 0 12 1;
#X connect 142 0 14 1;
#X connect 143 0 71 1;
#X connect 144 0 69 1;
#X connect 145 0 67 1;
#X connect 146 0 65 1;
#X connect 147 0 63 1;
#X connect 148 0 61 1;
#X connect 149 0 150 0;
#X connect 151 0 152 0;
#X connect 152 0 3 1;
#X connect 153 0 154 0;
#X connect 154 0 6 1;
#X connect 155 0 156 0;
#X connect 156 0 8 1;
#X connect 157 0 158 0;
#X connect 158 0 10 1;
#X connect 159 0 160 0;
#X connect 160 0 12 1;
#X connect 161 0 162 0;
#X connect 162 0 14 1;
#X connect 163 0 164 0;
#X connect 164 0 61 1;
#X connect 165 0 166 0;
#X connect 166 0 63 1;
#X connect 167 0 168 0;
#X connect 168 0 65 1;
#X connect 169 0 170 0;
#X connect 170 0 67 1;
#X connect 171 0 172 0;
#X connect 172 0 69 1;
#X connect 173 0 174 0;
#X connect 174 0 71 1;
#X connect 175 0 123 0;
#X connect 176 0 26 0;
#X connect 177 0 32 0;
#X connect 178 0 38 0;
#X connect 179 0 43 0;
#X connect 180 0 49 0;
#X connect 181 0 54 0;
#X connect 182 0 78 0;
#X connect 183 0 84 0;
#X connect 184 0 90 0;
#X connect 185 0 96 0;
#X connect 186 0 101 0;
#X connect 187 0 107 0;
#X connect 188 0 197 0;
#X connect 189 0 193 0;
#X connect 190 0 39 0;
#X connect 191 0 50 0;
#X connect 192 0 97 0;
#X connect 193 0 194 0;
#X connect 194 0 136 0;
#X connect 195 0 1 0;
#X connect 196 0 189 2;
#X connect 197 0 136 1;
