#N canvas 0 38 1512 884 12;
#X obj 56 10 tgl 15 0 empty empty empty 17 7 0 10 #fcfcfc #000000 #000000
0 1;
#X obj 56 58 s tick;
#X obj 279 288 r tick;
#X obj 279 312 sequ;
#X obj 459 288 r tick;
#X obj 459 312 sequ;
#X obj 279 491 quantizedmode aeolian 60;
#X obj 279 539 t b f, f 12;
#X obj 279 587 pow~ 2;
#X obj 279 611 *~;
#X obj 360 587 osc~;
#X obj 279 635 throw~ out;
#X obj 459 539 t b f, f 12;
#X obj 459 587 pow~ 2;
#X obj 459 611 *~;
#X obj 540 587 osc~;
#X obj 459 635 throw~ out;
#X obj 279 467 scaled 0 1 60 72;
#X obj 459 467 scaled 0 1 66 78;
#X obj 1182 84 catch~ out;
#X obj 1182 108 *~ 0.08;
#X obj 1292 747 outrec~;
#X obj 323 12 tgl 15 0 empty empty empty 17 7 0 10 #fcfcfc #000000
#000000 0 1;
#X obj 323 34 s gen;
#X obj 337 264 r gen;
#X obj 517 264 r gen;
#X obj 1252 219 pan~;
#X msg 517 288 generate \$1;
#X msg 337 288 generate \$1;
#X obj 469 9 msphsl 0 1;
#X obj 469 32 s density;
#X obj 357 314 r density;
#X msg 357 338 density \$1;
#X obj 537 314 r density;
#X msg 537 338 density \$1;
#X obj 341 11 msphsl 0 1;
#X obj 279 515 mtof;
#X obj 459 515 mtof;
#X obj 1362 145 lfo sin 0.1;
#X obj 1232 145 tapeecho~ 200 0.4;
#X obj 1232 169 phaser~;
#X obj 1232 193 level~;
#X obj 56 34 metro 40;
#X obj 1274 65 msphsl 0 1;
#X obj 1362 169 scaled 0 1 0.4 0.6;
#X obj 1162 448 noise~;
#X obj 1162 532 level~;
#X obj 1155 556 pan~;
#X obj 1220 483 lfo sqr 0.5;
#X obj 1220 507 scaled 0 1 0.3 0.7;
#X obj 1294 435 lfo sin 0.1;
#X obj 1294 459 scaled 0 1 0.5 20;
#X obj 1162 472 vcf~ 5;
#X obj 1180 345 randwalk 500 5000;
#X obj 1180 324 bng 15 250 50 0 empty empty empty 17 7 0 10 #fcfcfc
#000000 #000000;
#X obj 1180 300 loadbang;
#X obj 1180 389 scaled 0 1 8000 20000;
#X obj 1180 413 sig~;
#X obj 1142 621 tapeecho~ 200 0.4;
#X obj 1193 648 tapeecho~ 200 0.4;
#X floatatom 1222 428 5 0 0 0 - - - 0;
#X obj 1324 538 msphsl 0 0.95;
#X obj 459 491 quantizedmode aeolian 60;
#X floatatom 227 94 5 0 0 0 - - - 0;
#X obj 459 563 ahdsr~ 25 0 200 0.4 100;
#X obj 951 163 pink~;
#X obj 951 187 level~;
#X obj 279 563 ahdsr~ 50 0 100 0.5 800;
#X connect 0 0 42 0;
#X connect 2 0 3 0;
#X connect 3 0 17 0;
#X connect 4 0 5 0;
#X connect 5 0 18 0;
#X connect 6 0 36 0;
#X connect 7 0 67 0;
#X connect 7 1 10 0;
#X connect 8 0 9 0;
#X connect 9 0 11 0;
#X connect 10 0 9 1;
#X connect 12 0 64 0;
#X connect 12 1 15 0;
#X connect 13 0 14 0;
#X connect 14 0 16 0;
#X connect 15 0 14 1;
#X connect 17 0 6 0;
#X connect 18 0 62 0;
#X connect 19 0 20 0;
#X connect 20 0 21 0;
#X connect 20 0 21 1;
#X connect 20 0 39 0;
#X connect 22 0 23 0;
#X connect 24 0 28 0;
#X connect 25 0 27 0;
#X connect 26 0 21 0;
#X connect 26 1 21 1;
#X connect 27 0 5 1;
#X connect 28 0 3 1;
#X connect 29 0 30 0;
#X connect 31 0 32 0;
#X connect 32 0 3 1;
#X connect 33 0 34 0;
#X connect 34 0 5 1;
#X connect 35 0 23 0;
#X connect 36 0 7 0;
#X connect 37 0 12 0;
#X connect 38 0 44 0;
#X connect 39 0 40 0;
#X connect 40 0 41 0;
#X connect 41 0 26 0;
#X connect 42 0 1 0;
#X connect 43 0 39 2;
#X connect 44 0 26 1;
#X connect 45 0 52 0;
#X connect 46 0 47 0;
#X connect 46 0 20 0;
#X connect 47 0 58 0;
#X connect 47 1 59 0;
#X connect 48 0 49 0;
#X connect 49 0 47 1;
#X connect 50 0 51 0;
#X connect 51 0 48 1;
#X connect 52 0 46 0;
#X connect 53 0 56 0;
#X connect 53 1 54 0;
#X connect 54 0 53 0;
#X connect 55 0 54 0;
#X connect 56 0 57 0;
#X connect 57 0 52 1;
#X connect 58 0 21 0;
#X connect 59 0 21 1;
#X connect 60 0 52 2;
#X connect 61 0 58 2;
#X connect 61 0 59 2;
#X connect 62 0 37 0;
#X connect 63 0 42 1;
#X connect 64 0 13 0;
#X connect 65 0 66 0;
#X connect 66 0 39 0;
#X connect 67 0 8 0;
