#N canvas 0 38 1512 884 12;
#X obj 423 107 tgl 15 0 empty empty empty 17 7 0 10 #fcfcfc #000000
#000000 0 1;
#X obj 423 127 metro 50;
#X obj 423 151 sequ;
#X obj 423 306 scaled 0 1 40 73;
#X obj 423 330 quantizedmode phrygian 60;
#X obj 423 404 mtof;
#X obj 423 562 osc~;
#X obj 423 610 *~ 1;
#X obj 423 714 outrec~;
#X obj 532 173 randwalk 300 3000;
#X obj 532 214 scaled 0 1 30 50;
#X obj 532 129 loadbang;
#X obj 532 153 bng 15 250 50 0 empty empty empty 17 7 0 10 #fcfcfc
#000000 #000000;
#X msg 532 238 to-low \$1;
#X obj 662 173 randwalk 300 3000;
#X obj 662 129 loadbang;
#X obj 662 153 bng 15 250 50 0 empty empty empty 17 7 0 10 #fcfcfc
#000000 #000000;
#X msg 662 238 to-high \$1;
#X obj 662 214 scaled 0 1 67 87;
#X obj 423 428 sig~;
#X obj 423 538 +~, f 10;
#X obj 494 466 *~;
#X obj 494 490 osc~;
#X obj 494 514 *~, f 45;
#X obj 423 354 change;
#X obj 423 378 t f f, f 55;
#X obj 805 466 pow~ 2;
#X obj 805 490 scaled~ 0 1 0 1000;
#X obj 790 173 randwalk 300 3000;
#X obj 790 129 loadbang;
#X obj 790 153 bng 15 250 50 0 empty empty empty 17 7 0 10 #fcfcfc
#000000 #000000;
#X obj 790 214 scaled 0 1 1 16;
#X obj 790 238 i;
#X obj 790 262 ramp~ 80;
#X obj 423 586 *~;
#X obj 922 173 randwalk 300 3000;
#X obj 922 129 loadbang;
#X obj 922 153 bng 15 250 50 0 empty empty empty 17 7 0 10 #fcfcfc
#000000 #000000;
#X obj 922 214 scaled 0 1 5 100;
#X obj 1052 173 randwalk 300 3000;
#X obj 1052 129 loadbang;
#X obj 1052 153 bng 15 250 50 0 empty empty empty 17 7 0 10 #fcfcfc
#000000 #000000;
#X obj 1052 214 scaled 0 1 5 1000;
#X obj 805 442 ahdsr~ 5 0 200 0.4 400;
#X obj 553 611 level~;
#X obj 691 611 loadbang;
#X obj 691 635 bng 15 250 50 0 empty empty empty 17 7 0 10 #fcfcfc
#000000 #000000;
#X obj 553 659 pan~;
#X obj 831 611 loadbang;
#X obj 831 635 bng 15 250 50 0 empty empty empty 17 7 0 10 #fcfcfc
#000000 #000000;
#X obj 831 659 randwalk 300 5000;
#X obj 606 559 msphsl 5 5000;
#X obj 691 659 randwalk 300 3000;
#X obj 553 635 tapeecho~ 25 0.4;
#X obj 831 700 scaled 0 1 0 0.875;
#X connect 0 0 1 0;
#X connect 1 0 2 0;
#X connect 2 0 3 0;
#X connect 3 0 4 0;
#X connect 4 0 24 0;
#X connect 5 0 19 0;
#X connect 6 0 34 0;
#X connect 7 0 8 0;
#X connect 7 0 8 1;
#X connect 9 0 10 0;
#X connect 9 1 12 0;
#X connect 10 0 13 0;
#X connect 11 0 12 0;
#X connect 12 0 9 0;
#X connect 13 0 3 1;
#X connect 14 0 18 0;
#X connect 14 1 16 0;
#X connect 15 0 16 0;
#X connect 16 0 14 0;
#X connect 17 0 3 1;
#X connect 18 0 17 0;
#X connect 19 0 20 0;
#X connect 19 0 21 0;
#X connect 20 0 6 0;
#X connect 21 0 22 0;
#X connect 22 0 23 0;
#X connect 23 0 20 1;
#X connect 24 0 25 0;
#X connect 25 0 5 0;
#X connect 25 1 43 0;
#X connect 26 0 27 0;
#X connect 27 0 23 1;
#X connect 28 0 31 0;
#X connect 28 1 30 0;
#X connect 29 0 30 0;
#X connect 30 0 28 0;
#X connect 31 0 32 0;
#X connect 32 0 33 0;
#X connect 33 0 21 1;
#X connect 34 0 7 0;
#X connect 34 0 44 0;
#X connect 35 0 38 0;
#X connect 35 1 37 0;
#X connect 36 0 37 0;
#X connect 37 0 35 0;
#X connect 38 0 43 1;
#X connect 39 0 42 0;
#X connect 39 1 41 0;
#X connect 40 0 41 0;
#X connect 41 0 39 0;
#X connect 42 0 43 5;
#X connect 43 0 26 0;
#X connect 43 0 34 1;
#X connect 44 0 53 0;
#X connect 45 0 46 0;
#X connect 46 0 52 0;
#X connect 47 0 8 0;
#X connect 47 1 8 1;
#X connect 48 0 49 0;
#X connect 49 0 50 0;
#X connect 50 0 54 0;
#X connect 50 1 49 0;
#X connect 51 0 53 1;
#X connect 52 0 47 1;
#X connect 52 1 46 0;
#X connect 53 0 47 0;
#X connect 54 0 53 2;
