#N canvas 0 38 1512 884 12;
#X obj 1292 747 outrec~;
#X obj 1252 219 pan~;
#X obj 1362 145 lfo sin 0.1;
#X obj 1232 145 tapeecho~ 200 0.4;
#X obj 1232 169 phaser~;
#X obj 1232 193 level~;
#X obj 1274 65 msphsl 0 1;
#X obj 1362 169 scaled 0 1 0.4 0.6;
#X obj 1162 448 noise~;
#X obj 1162 532 level~;
#X obj 1155 556 pan~;
#X obj 1220 483 lfo sqr 0.5;
#X obj 1220 507 scaled 0 1 0.3 0.7;
#X obj 1294 435 lfo sin 0.1;
#X obj 1294 459 scaled 0 1 0.5 20;
#X obj 1162 472 vcf~ 5;
#X obj 1180 345 randwalk 500 5000;
#X obj 1180 324 bng 15 250 50 0 empty empty empty 17 7 0 10 #fcfcfc
#000000 #000000;
#X obj 1180 300 loadbang;
#X obj 1180 389 scaled 0 1 8000 20000;
#X obj 1180 413 sig~;
#X obj 1142 621 tapeecho~ 200 0.4;
#X obj 1193 648 tapeecho~ 200 0.4;
#X floatatom 1222 428 5 0 0 0 - - - 0;
#X obj 1324 538 msphsl 0 0.95;
#X obj 951 163 pink~;
#X obj 951 187 level~;
#X obj 221 190 noise~;
#X obj 221 238 pan~;
#X obj 585 120 bng 15 250 50 0 empty empty empty 17 7 0 10 #fcfcfc
#000000 #000000;
#X obj 743 168 s tick;
#X obj 585 168 del;
#X obj 585 144 t b b b, f 23;
#X obj 287 166 r tick;
#X obj 287 190 randrange 0 100;
#X obj 287 214 / 100;
#X obj 221 283 throw~ outL;
#X obj 331 283 throw~ outR;
#X obj 1119 717 catch~ outL;
#X obj 1359 699 catch~ outR;
#X obj 247 81 randwalk 500 5000;
#X obj 247 60 bng 15 250 50 0 empty empty empty 17 7 0 10 #fcfcfc #000000
#000000;
#X obj 247 36 loadbang;
#X obj 247 149 sig~;
#X obj 620 168 randrange 40 400;
#X obj 585 96 loadbang;
#X obj 247 125 scaled 0 1 12000 20000;
#X obj 221 214 vcf~ 150;
#X connect 1 0 0 0;
#X connect 1 1 0 1;
#X connect 2 0 7 0;
#X connect 3 0 4 0;
#X connect 4 0 5 0;
#X connect 5 0 1 0;
#X connect 6 0 3 2;
#X connect 7 0 1 1;
#X connect 8 0 15 0;
#X connect 9 0 10 0;
#X connect 10 0 21 0;
#X connect 10 1 22 0;
#X connect 11 0 12 0;
#X connect 12 0 10 1;
#X connect 13 0 14 0;
#X connect 14 0 11 1;
#X connect 15 0 9 0;
#X connect 16 0 19 0;
#X connect 16 1 17 0;
#X connect 17 0 16 0;
#X connect 18 0 17 0;
#X connect 19 0 20 0;
#X connect 20 0 15 1;
#X connect 21 0 0 0;
#X connect 22 0 0 1;
#X connect 23 0 15 2;
#X connect 24 0 21 2;
#X connect 24 0 22 2;
#X connect 25 0 26 0;
#X connect 26 0 3 0;
#X connect 27 0 47 0;
#X connect 28 0 36 0;
#X connect 28 1 37 0;
#X connect 29 0 32 0;
#X connect 31 0 29 0;
#X connect 32 0 31 0;
#X connect 32 1 44 0;
#X connect 32 2 30 0;
#X connect 33 0 34 0;
#X connect 34 0 35 0;
#X connect 35 0 28 1;
#X connect 38 0 0 0;
#X connect 39 0 0 1;
#X connect 40 0 46 0;
#X connect 40 1 41 0;
#X connect 41 0 40 0;
#X connect 42 0 41 0;
#X connect 43 0 47 1;
#X connect 44 0 31 1;
#X connect 45 0 29 0;
#X connect 46 0 43 0;
#X connect 47 0 28 0;
