#N canvas 191 207 1321 548 12;
#X obj 505 39 sig~ 1;
#X obj 505 63 -~, f 10;
#X obj 505 87 *~, f 18;
#X obj 505 111 -~, f 21;
#X floatatom 572 10 5 0 0 0 - - - 0;
#X obj 572 33 phasor~;
#X floatatom 628 10 5 0 0 0 - - - 0;
#X obj 628 33 max 1;
#X obj 649 57 - 1;
#X obj 505 159 pow~;
#X obj 505 135 max~ 0;
#X floatatom 431 160 5 0 0 0 - - - 0;
#X obj 431 207 -~, f 11;
#X obj 431 231 vd~ d;
#X obj 431 255 *~;
#X obj 431 279 +~;
#X obj 431 303 cos~;
#X obj 431 327 delwrite~ d 1000;
#X obj 459 279 *~;
#X floatatom 556 282 5 0 0 0 - - - 0;
#X obj 645 242 outrec~;
#X obj 645 219 level~;
#X obj 458 256 msphsl -0.5 0.5;
#X floatatom 606 161 5 0 0 0 - - - 0;
#X floatatom 602 184 5 0 0 0 - - - 0;
#X obj 505 183 *~;
#X obj 542 160 ramp~ 50;
#X obj 537 182 ramp~ 50;
#X obj 431 183 ramp~ 50;
#X obj 490 280 ramp~ 50;
#X text 415 60 one to zero;
#X text 430 87 n to zero;
#X text 420 112 1 to -(n-1);
#X obj 1008 28 tgl 15 0 empty empty empty 17 7 0 10 #fcfcfc #000000
#000000 0 1;
#X obj 1008 52 metro 5;
#X obj 1008 76 tabwrite~ view;
#X obj 1008 100 table view;
#X text 553 129 only take positive values \, so descending ramp 1 to
0 every now and then;
#X text 650 161 shape it;
#X text 647 182 amplify it \, so no longer from 1 to 0;
#X text 310 182 consistent value;
#X text 26 206 invert logic from above \, dipping down from our consistent
value;
#X text 331 233 read from del;
#X text 338 256 feedback amt;
#X text 292 303 limit from -1 to 1;
#X text 321 325 write to delay;
#X text 22 277 offset the feedback...? based on the logic from above...?
;
#X connect 0 0 1 0;
#X connect 1 0 2 0;
#X connect 2 0 3 0;
#X connect 3 0 10 0;
#X connect 4 0 5 0;
#X connect 5 0 1 1;
#X connect 6 0 7 0;
#X connect 7 0 8 0;
#X connect 7 0 2 1;
#X connect 8 0 3 1;
#X connect 9 0 25 0;
#X connect 10 0 9 0;
#X connect 10 0 18 0;
#X connect 11 0 28 0;
#X connect 12 0 13 0;
#X connect 13 0 14 0;
#X connect 13 0 21 0;
#X connect 14 0 15 0;
#X connect 15 0 16 0;
#X connect 16 0 17 0;
#X connect 18 0 15 1;
#X connect 19 0 29 0;
#X connect 21 0 20 0;
#X connect 21 0 20 1;
#X connect 22 0 14 1;
#X connect 23 0 26 0;
#X connect 24 0 27 0;
#X connect 25 0 12 1;
#X connect 26 0 9 1;
#X connect 27 0 25 1;
#X connect 28 0 12 0;
#X connect 29 0 18 1;
#X connect 33 0 34 0;
#X connect 34 0 35 0;
