#N canvas 0 38 1512 884 12;
#X obj 56 10 tgl 15 0 empty empty empty 17 7 0 10 #fcfcfc #000000 #000000
0 1;
#X obj 56 58 s tick;
#X obj 56 100 r tick;
#X obj 56 124 sequ;
#X obj 236 100 r tick;
#X obj 236 124 sequ;
#X obj 416 100 r tick;
#X obj 416 124 sequ;
#X obj 596 100 r tick;
#X obj 596 124 sequ;
#X obj 776 100 r tick;
#X obj 776 124 sequ;
#X obj 956 100 r tick;
#X obj 956 124 sequ;
#X obj 56 303 pow~ 2;
#X obj 56 373 *~;
#X obj 236 303 pow~ 2;
#X obj 236 373 *~;
#X obj 416 303 pow~ 2;
#X obj 416 373 *~;
#X obj 596 303 pow~ 2;
#X obj 596 373 *~;
#X obj 776 303 pow~ 2;
#X obj 776 373 *~;
#X obj 956 303 pow~ 2;
#X obj 956 373 *~;
#X obj 56 509 r tick;
#X obj 56 533 sequ;
#X obj 236 509 r tick;
#X obj 236 533 sequ;
#X obj 416 509 r tick;
#X obj 416 533 sequ;
#X obj 596 509 r tick;
#X obj 596 533 sequ;
#X obj 776 509 r tick;
#X obj 776 533 sequ;
#X obj 956 509 r tick;
#X obj 956 533 sequ;
#X obj 56 712 pow~ 2;
#X obj 56 782 *~;
#X obj 236 712 pow~ 2;
#X obj 236 782 *~;
#X obj 416 712 pow~ 2;
#X obj 416 782 *~;
#X obj 596 712 pow~ 2;
#X obj 596 782 *~;
#X obj 776 712 pow~ 2;
#X obj 776 782 *~;
#X obj 956 712 pow~ 2;
#X obj 956 782 *~;
#X obj 1242 300 outrec~;
#X obj 323 12 tgl 15 0 empty empty empty 17 7 0 10 #fcfcfc #000000
#000000 0 1;
#X obj 323 34 s gen;
#X obj 114 76 r gen;
#X obj 294 76 r gen;
#X obj 474 76 r gen;
#X obj 654 76 r gen;
#X obj 834 76 r gen;
#X obj 1014 76 r gen;
#X obj 114 485 r gen;
#X obj 294 485 r gen;
#X obj 474 485 r gen;
#X obj 654 485 r gen;
#X obj 834 485 r gen;
#X obj 1014 485 r gen;
#X obj 1252 219 pan~;
#X msg 114 100 generate \$1;
#X msg 294 100 generate \$1;
#X msg 474 100 generate \$1;
#X msg 654 100 generate \$1;
#X msg 834 100 generate \$1;
#X msg 1014 100 generate \$1;
#X msg 1014 509 generate \$1;
#X msg 834 509 generate \$1;
#X msg 654 509 generate \$1;
#X msg 474 509 generate \$1;
#X msg 294 509 generate \$1;
#X msg 114 509 generate \$1;
#X obj 469 9 msphsl 0 1;
#X obj 469 32 s density;
#X obj 134 126 r density;
#X msg 134 150 density \$1;
#X obj 314 126 r density;
#X msg 314 150 density \$1;
#X obj 494 126 r density;
#X msg 494 150 density \$1;
#X obj 674 126 r density;
#X msg 674 150 density \$1;
#X obj 854 126 r density;
#X msg 854 150 density \$1;
#X obj 1034 126 r density;
#X msg 1034 150 density \$1;
#X obj 134 535 r density;
#X msg 134 559 density \$1;
#X obj 314 535 r density;
#X msg 314 559 density \$1;
#X obj 494 535 r density;
#X msg 494 559 density \$1;
#X obj 674 535 r density;
#X msg 674 559 density \$1;
#X obj 854 535 r density;
#X msg 854 559 density \$1;
#X obj 1034 535 r density;
#X msg 1034 559 density \$1;
#X obj 341 11 msphsl 0 1;
#X obj 1362 145 lfo sin 0.1;
#X obj 1232 169 phaser~;
#X obj 1232 193 level~;
#X obj 1324 64 msphsl 0 1;
#X obj 1362 169 scaled 0 1 0.4 0.6;
#X obj 107 327 noise~;
#X obj 56 447 throw~ outL;
#X obj 236 447 throw~ outL;
#X obj 416 447 throw~ outL;
#X obj 596 447 throw~ outL;
#X obj 776 447 throw~ outL;
#X obj 956 447 throw~ outL;
#X obj 56 856 throw~ outL;
#X obj 236 856 throw~ outL;
#X obj 416 856 throw~ outL;
#X obj 596 856 throw~ outL;
#X obj 776 856 throw~ outL;
#X obj 956 856 throw~ outL;
#X obj 146 447 throw~ outR;
#X obj 326 447 throw~ outR;
#X obj 506 447 throw~ outR;
#X obj 686 447 throw~ outR;
#X obj 866 447 throw~ outR;
#X obj 1046 447 throw~ outR;
#X obj 146 856 throw~ outR;
#X obj 326 856 throw~ outR;
#X obj 506 856 throw~ outR;
#X obj 686 856 throw~ outR;
#X obj 866 856 throw~ outR;
#X obj 1046 856 throw~ outR;
#X obj 416 397 pan~ 0.416;
#X obj 596 397 pan~ 0.583;
#X obj 776 397 pan~ 0.749;
#X obj 956 397 pan~ 0.9;
#X obj 236 397 pan~ 0.25;
#X obj 56 397 pan~ 0.1;
#X obj 416 807 pan~ 0.416;
#X obj 596 807 pan~ 0.583;
#X obj 776 807 pan~ 0.749;
#X obj 956 807 pan~ 0.9;
#X obj 236 807 pan~ 0.25;
#X obj 56 807 pan~ 0.1;
#X obj 162 303 loadbang;
#X obj 162 351 sig~;
#X obj 287 327 noise~;
#X obj 342 303 loadbang;
#X obj 342 351 sig~;
#X obj 467 327 noise~;
#X obj 522 303 loadbang;
#X obj 522 351 sig~;
#X obj 647 327 noise~;
#X obj 702 303 loadbang;
#X obj 702 351 sig~;
#X obj 827 327 noise~;
#X obj 882 303 loadbang;
#X obj 882 351 sig~;
#X obj 1007 327 noise~;
#X obj 1062 303 loadbang;
#X obj 1062 351 sig~;
#X obj 107 737 noise~;
#X obj 162 713 loadbang;
#X obj 162 761 sig~;
#X obj 287 737 noise~;
#X obj 342 713 loadbang;
#X obj 342 761 sig~;
#X obj 467 737 noise~;
#X obj 522 713 loadbang;
#X obj 522 761 sig~;
#X obj 647 737 noise~;
#X obj 702 713 loadbang;
#X obj 702 761 sig~;
#X obj 827 737 noise~;
#X obj 882 713 loadbang;
#X obj 882 761 sig~;
#X obj 1007 737 noise~;
#X obj 1062 713 loadbang;
#X obj 1062 761 sig~;
#X obj 1182 84 catch~ outL;
#X obj 1272 84 catch~ outR;
#X obj 1182 108 *~ 0.2;
#X obj 1272 108 *~ 0.2;
#X obj 107 351 vcf~ 3;
#X obj 287 351 vcf~ 3;
#X obj 467 351 vcf~ 3;
#X obj 647 351 vcf~ 3;
#X obj 827 351 vcf~ 3;
#X obj 1007 351 vcf~ 3;
#X obj 1007 761 vcf~ 3;
#X obj 827 761 vcf~ 3;
#X obj 647 761 vcf~ 3;
#X obj 467 761 vcf~ 3;
#X obj 287 761 vcf~ 3;
#X obj 107 761 vcf~ 3;
#X msg 162 327 2000;
#X msg 1062 737 2000;
#X msg 342 327 4000;
#X msg 522 327 8000;
#X msg 702 327 10000;
#X msg 882 327 12000;
#X msg 1062 327 15000;
#X msg 882 737 4000;
#X msg 702 737 8000;
#X msg 522 737 10000;
#X msg 342 737 12000;
#X msg 162 737 15000;
#X obj 56 279 ahdsr~ 5 0 10 0.4 5;
#X obj 236 279 ahdsr~ 5 0 10 0.4 5;
#X obj 416 279 ahdsr~ 5 0 10 0.4 5;
#X obj 596 279 ahdsr~ 5 0 10 0.4 5;
#X obj 776 279 ahdsr~ 5 0 10 0.4 5;
#X obj 956 279 ahdsr~ 5 0 10 0.4 5;
#X obj 956 688 ahdsr~ 5 0 10 0.4 5;
#X obj 776 688 ahdsr~ 5 0 10 0.4 5;
#X obj 596 688 ahdsr~ 5 0 10 0.4 5;
#X obj 416 688 ahdsr~ 5 0 10 0.4 5;
#X obj 236 688 ahdsr~ 5 0 10 0.4 5;
#X obj 56 688 ahdsr~ 5 0 10 0.4 5;
#X obj 56 34 metro 20;
#X floatatom 1180 422 5 5 300 0 - - - 0;
#X floatatom 1180 442 5 5 300 0 - - - 0;
#X floatatom 1180 462 5 5 300 0 - - - 0;
#X floatatom 1180 482 5 0 1 0 - - - 0;
#X floatatom 1180 502 5 5 300 0 - - - 0;
#X obj 121 176 r a;
#X obj 146 176 r h;
#X obj 171 176 r d;
#X obj 196 176 r s;
#X obj 221 176 r r;
#X obj 301 176 r a;
#X obj 326 176 r h;
#X obj 351 176 r d;
#X obj 376 176 r s;
#X obj 401 176 r r;
#X obj 481 176 r a;
#X obj 506 176 r h;
#X obj 531 176 r d;
#X obj 556 176 r s;
#X obj 581 176 r r;
#X obj 661 176 r a;
#X obj 686 176 r h;
#X obj 711 176 r d;
#X obj 736 176 r s;
#X obj 761 176 r r;
#X obj 841 176 r a;
#X obj 866 176 r h;
#X obj 891 176 r d;
#X obj 916 176 r s;
#X obj 941 176 r r;
#X obj 1021 176 r a;
#X obj 1046 176 r h;
#X obj 1071 176 r d;
#X obj 1096 176 r s;
#X obj 1121 176 r r;
#X obj 121 586 r a;
#X obj 146 586 r h;
#X obj 171 586 r d;
#X obj 196 586 r s;
#X obj 221 586 r r;
#X obj 301 586 r a;
#X obj 326 586 r h;
#X obj 351 586 r d;
#X obj 376 586 r s;
#X obj 401 586 r r;
#X obj 481 586 r a;
#X obj 506 586 r h;
#X obj 531 586 r d;
#X obj 556 586 r s;
#X obj 581 586 r r;
#X obj 661 586 r a;
#X obj 686 586 r h;
#X obj 711 586 r d;
#X obj 736 586 r s;
#X obj 761 586 r r;
#X obj 841 586 r a;
#X obj 866 586 r h;
#X obj 891 586 r d;
#X obj 916 586 r s;
#X obj 941 586 r r;
#X obj 1021 586 r a;
#X obj 1046 586 r h;
#X obj 1071 586 r d;
#X obj 1096 586 r s;
#X obj 1121 586 r r;
#X obj 1220 421 s a;
#X obj 1220 441 s h;
#X obj 1220 461 s d;
#X obj 1220 481 s s;
#X obj 1220 501 s r;
#X obj 1232 145 echo~ 5 0.4;
#X connect 0 0 222 0;
#X connect 2 0 3 0;
#X connect 3 0 210 0;
#X connect 4 0 5 0;
#X connect 5 0 211 0;
#X connect 6 0 7 0;
#X connect 7 0 212 0;
#X connect 8 0 9 0;
#X connect 9 0 213 0;
#X connect 10 0 11 0;
#X connect 11 0 214 0;
#X connect 12 0 13 0;
#X connect 13 0 215 0;
#X connect 14 0 15 0;
#X connect 15 0 140 0;
#X connect 16 0 17 0;
#X connect 17 0 139 0;
#X connect 18 0 19 0;
#X connect 19 0 135 0;
#X connect 20 0 21 0;
#X connect 21 0 136 0;
#X connect 22 0 23 0;
#X connect 23 0 137 0;
#X connect 24 0 25 0;
#X connect 25 0 138 0;
#X connect 26 0 27 0;
#X connect 27 0 221 0;
#X connect 28 0 29 0;
#X connect 29 0 220 0;
#X connect 30 0 31 0;
#X connect 31 0 219 0;
#X connect 32 0 33 0;
#X connect 33 0 218 0;
#X connect 34 0 35 0;
#X connect 35 0 217 0;
#X connect 36 0 37 0;
#X connect 37 0 216 0;
#X connect 38 0 39 0;
#X connect 39 0 146 0;
#X connect 40 0 41 0;
#X connect 41 0 145 0;
#X connect 42 0 43 0;
#X connect 43 0 141 0;
#X connect 44 0 45 0;
#X connect 45 0 142 0;
#X connect 46 0 47 0;
#X connect 47 0 143 0;
#X connect 48 0 49 0;
#X connect 49 0 144 0;
#X connect 51 0 52 0;
#X connect 53 0 66 0;
#X connect 54 0 67 0;
#X connect 55 0 68 0;
#X connect 56 0 69 0;
#X connect 57 0 70 0;
#X connect 58 0 71 0;
#X connect 59 0 77 0;
#X connect 60 0 76 0;
#X connect 61 0 75 0;
#X connect 62 0 74 0;
#X connect 63 0 73 0;
#X connect 64 0 72 0;
#X connect 65 0 50 0;
#X connect 65 1 50 1;
#X connect 66 0 3 1;
#X connect 67 0 5 1;
#X connect 68 0 7 1;
#X connect 69 0 9 1;
#X connect 70 0 11 1;
#X connect 71 0 13 1;
#X connect 72 0 37 1;
#X connect 73 0 35 1;
#X connect 74 0 33 1;
#X connect 75 0 31 1;
#X connect 76 0 29 1;
#X connect 77 0 27 1;
#X connect 78 0 79 0;
#X connect 80 0 81 0;
#X connect 81 0 3 1;
#X connect 82 0 83 0;
#X connect 83 0 5 1;
#X connect 84 0 85 0;
#X connect 85 0 7 1;
#X connect 86 0 87 0;
#X connect 87 0 9 1;
#X connect 88 0 89 0;
#X connect 89 0 11 1;
#X connect 90 0 91 0;
#X connect 91 0 13 1;
#X connect 92 0 93 0;
#X connect 93 0 27 1;
#X connect 94 0 95 0;
#X connect 95 0 29 1;
#X connect 96 0 97 0;
#X connect 97 0 31 1;
#X connect 98 0 99 0;
#X connect 99 0 33 1;
#X connect 100 0 101 0;
#X connect 101 0 35 1;
#X connect 102 0 103 0;
#X connect 103 0 37 1;
#X connect 104 0 52 0;
#X connect 105 0 109 0;
#X connect 106 0 107 0;
#X connect 107 0 65 0;
#X connect 108 0 293 2;
#X connect 109 0 65 1;
#X connect 110 0 186 0;
#X connect 135 0 113 0;
#X connect 135 1 125 0;
#X connect 136 0 114 0;
#X connect 136 1 126 0;
#X connect 137 0 115 0;
#X connect 137 1 127 0;
#X connect 138 0 116 0;
#X connect 138 1 128 0;
#X connect 139 0 112 0;
#X connect 139 1 124 0;
#X connect 140 0 111 0;
#X connect 140 1 123 0;
#X connect 141 0 119 0;
#X connect 141 1 131 0;
#X connect 142 0 120 0;
#X connect 142 1 132 0;
#X connect 143 0 121 0;
#X connect 143 1 133 0;
#X connect 144 0 122 0;
#X connect 144 1 134 0;
#X connect 145 0 118 0;
#X connect 145 1 130 0;
#X connect 146 0 117 0;
#X connect 146 1 129 0;
#X connect 147 0 198 0;
#X connect 148 0 186 1;
#X connect 149 0 187 0;
#X connect 150 0 200 0;
#X connect 151 0 187 1;
#X connect 152 0 188 0;
#X connect 153 0 201 0;
#X connect 154 0 188 1;
#X connect 155 0 189 0;
#X connect 156 0 202 0;
#X connect 157 0 189 1;
#X connect 158 0 190 0;
#X connect 159 0 203 0;
#X connect 160 0 190 1;
#X connect 161 0 191 0;
#X connect 162 0 204 0;
#X connect 163 0 191 1;
#X connect 164 0 197 0;
#X connect 165 0 209 0;
#X connect 166 0 197 1;
#X connect 167 0 196 0;
#X connect 168 0 208 0;
#X connect 169 0 196 1;
#X connect 170 0 195 0;
#X connect 171 0 207 0;
#X connect 172 0 195 1;
#X connect 173 0 194 0;
#X connect 174 0 206 0;
#X connect 175 0 194 1;
#X connect 176 0 193 0;
#X connect 177 0 205 0;
#X connect 178 0 193 1;
#X connect 179 0 192 0;
#X connect 180 0 199 0;
#X connect 181 0 192 1;
#X connect 182 0 184 0;
#X connect 183 0 185 0;
#X connect 184 0 50 0;
#X connect 184 0 293 0;
#X connect 185 0 50 1;
#X connect 185 0 293 0;
#X connect 186 0 15 1;
#X connect 187 0 17 1;
#X connect 188 0 19 1;
#X connect 189 0 21 1;
#X connect 190 0 23 1;
#X connect 191 0 25 1;
#X connect 192 0 49 1;
#X connect 193 0 47 1;
#X connect 194 0 45 1;
#X connect 195 0 43 1;
#X connect 196 0 41 1;
#X connect 197 0 39 1;
#X connect 198 0 148 0;
#X connect 199 0 181 0;
#X connect 200 0 151 0;
#X connect 201 0 154 0;
#X connect 202 0 157 0;
#X connect 203 0 160 0;
#X connect 204 0 163 0;
#X connect 205 0 178 0;
#X connect 206 0 175 0;
#X connect 207 0 172 0;
#X connect 208 0 169 0;
#X connect 209 0 166 0;
#X connect 210 0 14 0;
#X connect 211 0 16 0;
#X connect 212 0 18 0;
#X connect 213 0 20 0;
#X connect 214 0 22 0;
#X connect 215 0 24 0;
#X connect 216 0 48 0;
#X connect 217 0 46 0;
#X connect 218 0 44 0;
#X connect 219 0 42 0;
#X connect 220 0 40 0;
#X connect 221 0 38 0;
#X connect 222 0 1 0;
#X connect 223 0 288 0;
#X connect 224 0 289 0;
#X connect 225 0 290 0;
#X connect 226 0 291 0;
#X connect 227 0 292 0;
#X connect 228 0 210 1;
#X connect 229 0 210 2;
#X connect 230 0 210 3;
#X connect 231 0 210 4;
#X connect 232 0 210 5;
#X connect 233 0 211 1;
#X connect 234 0 211 2;
#X connect 235 0 211 3;
#X connect 236 0 211 4;
#X connect 237 0 211 5;
#X connect 238 0 212 1;
#X connect 239 0 212 2;
#X connect 240 0 212 3;
#X connect 241 0 212 4;
#X connect 242 0 212 5;
#X connect 243 0 213 1;
#X connect 244 0 213 2;
#X connect 245 0 213 3;
#X connect 246 0 213 4;
#X connect 247 0 213 5;
#X connect 248 0 214 1;
#X connect 249 0 214 2;
#X connect 250 0 214 3;
#X connect 251 0 214 4;
#X connect 252 0 214 5;
#X connect 253 0 215 1;
#X connect 254 0 215 2;
#X connect 255 0 215 3;
#X connect 256 0 215 4;
#X connect 257 0 215 5;
#X connect 258 0 221 1;
#X connect 259 0 221 2;
#X connect 260 0 221 3;
#X connect 261 0 221 4;
#X connect 262 0 221 5;
#X connect 263 0 220 1;
#X connect 264 0 220 2;
#X connect 265 0 220 3;
#X connect 266 0 220 4;
#X connect 267 0 220 5;
#X connect 268 0 219 1;
#X connect 269 0 219 2;
#X connect 270 0 219 3;
#X connect 271 0 219 4;
#X connect 272 0 219 5;
#X connect 273 0 218 1;
#X connect 274 0 218 2;
#X connect 275 0 218 3;
#X connect 276 0 218 4;
#X connect 277 0 218 5;
#X connect 278 0 217 1;
#X connect 279 0 217 2;
#X connect 280 0 217 3;
#X connect 281 0 217 4;
#X connect 282 0 217 5;
#X connect 283 0 216 1;
#X connect 284 0 216 2;
#X connect 285 0 216 3;
#X connect 286 0 216 4;
#X connect 287 0 216 5;
#X connect 293 0 106 0;
