#N canvas 232 136 1280 755 12;
#X floatatom 942 330 5 0 0 0 - - - 0;
#X floatatom 1039 330 5 0 0 0 - - - 0;
#X obj 846 219 phasor~;
#X msg 915 109 0;
#X obj 846 243 snapshot~;
#X obj 878 182 metro 125;
#X obj 846 267 percentgraph;
#X msg 1039 306 1;
#X obj 983 277 loadbang;
#X obj 846 134 t f b;
#X obj 915 133 t f f f;
#X msg 942 307 146;
#X obj 31 617 catch~ output;
#X obj 807 525 throw~ output;
#X obj 45 18 __sample~ guitar;
#X obj 846 353 granulator~ guitar, f 28;
#X obj 747 660 throw~ outputL;
#X obj 856 664 throw~ outputR;
#X obj 750 600 phaser~;
#X obj 755 558 level~;
#X obj 132 571 catch~ outputL;
#X obj 252 572 catch~ outputR;
#X obj 750 625 pingpong~ 500 0.5;
#X obj 66 707 outrec~;
#X obj 322 164 sequ;
#X obj 212 55 tgl 15 0 empty empty empty 17 7 0 10 #fcfcfc #000000
#000000 0 1;
#X obj 212 79 metro 20;
#X obj 319 344 i;
#X obj 807 501 *~ 1;
#X obj 794 471 vcf~ 3;
#X obj 578 187 ramp~;
#X obj 846 377 wavefolder~;
#X obj 132 595 pan~ 0.3;
#X obj 252 596 pan~ 0.7;
#X floatatom 267 46 5 0 0 0 - - - 0;
#X obj 530 141 *~;
#X obj 530 99 bng 15 250 50 0 empty empty empty 17 7 0 10 #fcfcfc #000000
#000000;
#X obj 181 165 s clockrate;
#X obj 978 536 r clockrate;
#X obj 206 318 > 0.6;
#X obj 206 342 sel 1;
#X obj 978 560 * 0.666667;
#X obj 379 413 reverb~;
#X obj 379 590 throw~ outputL;
#X obj 502 610 throw~ outputR;
#X obj 217 462 level~;
#X obj 23 660 ducker~;
#X msg 846 110 0.112785;
#X obj 184 244 msphsl 0 1;
#X obj 976 52 kick~;
#X msg 745 41 velocity 1;
#X obj 976 232 level~;
#X obj 509 275 scaled~ 0 1 1000 20000;
#X obj 530 117 ahdsr~ 50 0 200 0.8 300;
#X obj 319 320 scaled 0 1 1 2;
#X connect 0 0 15 1;
#X connect 1 0 15 2;
#X connect 2 0 4 0;
#X connect 3 0 10 0;
#X connect 4 0 6 0;
#X connect 5 0 4 0;
#X connect 6 0 15 0;
#X connect 7 0 1 0;
#X connect 8 0 11 0;
#X connect 8 0 7 0;
#X connect 9 0 2 0;
#X connect 9 1 5 0;
#X connect 10 0 5 0;
#X connect 10 1 2 1;
#X connect 10 2 2 0;
#X connect 11 0 0 0;
#X connect 12 0 45 0;
#X connect 12 0 46 1;
#X connect 15 0 31 0;
#X connect 18 0 22 0;
#X connect 19 0 18 0;
#X connect 20 0 32 0;
#X connect 21 0 33 0;
#X connect 22 0 16 0;
#X connect 22 1 17 0;
#X connect 24 0 30 0;
#X connect 24 0 39 0;
#X connect 24 0 54 0;
#X connect 25 0 26 0;
#X connect 26 0 24 0;
#X connect 27 0 1 0;
#X connect 28 0 13 0;
#X connect 29 0 19 0;
#X connect 29 1 28 0;
#X connect 30 0 52 0;
#X connect 31 0 35 1;
#X connect 32 0 23 0;
#X connect 32 1 23 1;
#X connect 33 0 23 0;
#X connect 33 1 23 1;
#X connect 34 0 26 1;
#X connect 34 0 37 0;
#X connect 35 0 29 0;
#X connect 36 0 53 0;
#X connect 38 0 41 0;
#X connect 39 0 40 0;
#X connect 40 0 36 0;
#X connect 41 0 22 1;
#X connect 42 0 43 0;
#X connect 42 1 44 0;
#X connect 45 0 42 0;
#X connect 46 0 23 0;
#X connect 46 0 23 1;
#X connect 46 1 23 0;
#X connect 46 1 23 1;
#X connect 47 0 9 0;
#X connect 48 0 39 1;
#X connect 49 0 51 0;
#X connect 50 0 49 0;
#X connect 51 0 46 0;
#X connect 52 0 29 1;
#X connect 53 0 35 0;
#X connect 54 0 27 0;
