#N canvas 145 170 1136 576 12;
#X obj 129 227 noise~;
#X floatatom 190 203 5 0 0 0 - - - 0;
#X obj 190 226 sig~;
#X obj 129 275 *~ 0.2;
#X obj 96 373 out~;
#X floatatom 330 203 5 0 0 0 - - - 0;
#X obj 330 226 sig~;
#X floatatom 470 203 5 0 0 0 - - - 0;
#X obj 470 226 sig~;
#X floatatom 610 203 5 0 0 0 - - - 0;
#X obj 610 226 sig~;
#X floatatom 750 203 5 0 0 0 - - - 0;
#X obj 750 226 sig~;
#X floatatom 206 62 5 0 0 0 - - - 0;
#X obj 206 85 * 1;
#X obj 236 85 * 2;
#X obj 129 251 vcf~ 10, f 18;
#X obj 269 251 vcf~ 10, f 18;
#X obj 409 251 vcf~ 10, f 18;
#X obj 549 251 vcf~ 10, f 18;
#X obj 689 251 vcf~ 10, f 18;
#X obj 266 85 * 4;
#X obj 296 85 * 8;
#X obj 326 85 * 16;
#X floatatom 980 233 5 0 0 0 - - - 0;
#X obj 731 34 bng 15 250 50 0 empty empty empty 17 7 0 10 #fcfcfc #000000
#000000;
#X obj 731 101 scaled 0 1 400 10000;
#X obj 973 109 bng 15 250 50 0 empty empty empty 17 7 0 10 #fcfcfc
#000000 #000000;
#X obj 207 287 phaser~;
#X obj 898 18 bng 15 250 50 0 empty empty empty 17 7 0 10 #fcfcfc #000000
#000000;
#X obj 480 350 randwalk 400 4000;
#X obj 451 461 pan~;
#X obj 481 326 bng 15 250 50 0 empty empty empty 17 7 0 10 #fcfcfc
#000000 #000000;
#X obj 947 9 loadbang;
#X obj 206 312 tapeecho~ 200 0.5;
#X obj 205 338 level~ 0.6;
#X obj 731 60 randwalk 400 4000;
#X text 404 59 it's fun to change these times to 0 and 100 ->;
#X obj 480 392 scaled 0 1 0.3 0.7;
#X text 654 131 it's fun to change these times to 0 and 80 ->;
#X obj 973 130 randwalk 400 4000;
#X text 653 489 todo... might be fun to sequence some gates that cut
out the sound;
#X obj 973 171 scaled 0 1 3 1000;
#X connect 0 0 16 0;
#X connect 0 0 17 0;
#X connect 0 0 20 0;
#X connect 0 0 19 0;
#X connect 0 0 18 0;
#X connect 1 0 2 0;
#X connect 2 0 16 1;
#X connect 3 0 28 0;
#X connect 3 0 4 1;
#X connect 3 0 4 0;
#X connect 5 0 6 0;
#X connect 6 0 17 1;
#X connect 7 0 8 0;
#X connect 8 0 18 1;
#X connect 9 0 10 0;
#X connect 10 0 19 1;
#X connect 11 0 12 0;
#X connect 12 0 20 1;
#X connect 13 0 14 0;
#X connect 13 0 15 0;
#X connect 13 0 22 0;
#X connect 13 0 23 0;
#X connect 13 0 21 0;
#X connect 14 0 1 0;
#X connect 15 0 5 0;
#X connect 16 0 3 0;
#X connect 17 0 3 0;
#X connect 18 0 3 0;
#X connect 19 0 3 0;
#X connect 20 0 3 0;
#X connect 21 0 7 0;
#X connect 22 0 9 0;
#X connect 23 0 11 0;
#X connect 24 0 20 2;
#X connect 24 0 19 2;
#X connect 24 0 18 2;
#X connect 24 0 17 2;
#X connect 24 0 16 2;
#X connect 25 0 36 0;
#X connect 26 0 13 0;
#X connect 27 0 40 0;
#X connect 28 0 34 0;
#X connect 29 0 25 0;
#X connect 29 0 27 0;
#X connect 29 0 32 0;
#X connect 30 0 38 0;
#X connect 30 1 32 0;
#X connect 31 0 4 0;
#X connect 31 1 4 1;
#X connect 32 0 30 0;
#X connect 33 0 29 0;
#X connect 34 0 35 0;
#X connect 35 0 31 0;
#X connect 36 0 26 0;
#X connect 36 1 25 0;
#X connect 38 0 31 1;
#X connect 40 0 42 0;
#X connect 40 1 27 0;
#X connect 42 0 24 0;
