#N canvas 1 170 1309 693 12;
#X obj 189 227 noise~;
#X floatatom 250 203 5 0 0 0 - - - 0;
#X obj 250 226 sig~;
#X obj 189 275 *~ 0.2;
#X obj 162 470 out~;
#X floatatom 390 203 5 0 0 0 - - - 0;
#X obj 390 226 sig~;
#X floatatom 530 203 5 0 0 0 - - - 0;
#X obj 530 226 sig~;
#X floatatom 670 203 5 0 0 0 - - - 0;
#X obj 670 226 sig~;
#X floatatom 810 203 5 0 0 0 - - - 0;
#X obj 810 226 sig~;
#X floatatom 266 62 5 0 0 0 - - - 0;
#X obj 266 85 * 1;
#X obj 296 85 * 2;
#X obj 189 251 vcf~ 10, f 18;
#X obj 329 251 vcf~ 10, f 18;
#X obj 469 251 vcf~ 10, f 18;
#X obj 609 251 vcf~ 10, f 18;
#X obj 749 251 vcf~ 10, f 18;
#X obj 326 85 * 4;
#X obj 356 85 * 8;
#X obj 386 85 * 16;
#X floatatom 1040 233 5 0 0 0 - - - 0;
#X obj 267 287 phaser~;
#X obj 540 350 randwalk 400 4000;
#X obj 511 461 pan~;
#X obj 541 326 bng 15 250 50 0 empty empty empty 17 7 0 10 #fcfcfc
#000000 #000000;
#X obj 266 312 tapeecho~ 200 0.5;
#X obj 265 338 level~ 0.6;
#X obj 540 392 scaled 0 1 0.3 0.7;
#X obj 93 39 sequ;
#X obj 93 194 scaled 0 1 1 200;
#X obj 93 218 * 100;
#X obj 93 242 i;
#X obj 189 17 tgl 15 0 empty empty empty 17 7 0 10 #fcfcfc #000000
#000000 0 1;
#X obj 93 266 bng 15 250 50 0 empty empty empty 17 7 0 10 #fcfcfc #000000
#000000;
#X obj 93 314 *~;
#X obj 99 465 *~;
#X obj 189 41 metro 30;
#X obj 93 338 -~;
#X obj 25 290 loadbang;
#X msg 25 314 1;
#X obj 25 338 sig~;
#X obj 93 290 ahdsr~ 5 50 50 0.3 5;
#X obj 1033 171 scaled 0 1 5 30;
#X obj 272 9 loadbang;
#X obj 816 403 kick~;
#X obj 816 609 level~;
#X obj 794 649 out~;
#X obj 93 362 ducker~;
#X obj 800 309 counter 32;
#X obj 679 531 booster~;
#X obj 696 506 pink~;
#X obj 924 241 migrids;
#X msg 802 362 velocity \$1;
#X obj 816 583 *~ 0.1;
#X msg 384 15 generate 1 \, density 0.6;
#X obj 408 41 del 2000;
#X msg 411 68 generate 0.2 \, density 0.75;
#X connect 0 0 16 0;
#X connect 1 0 2 0;
#X connect 2 0 16 1;
#X connect 3 0 39 1;
#X connect 5 0 6 0;
#X connect 6 0 17 1;
#X connect 7 0 8 0;
#X connect 8 0 18 1;
#X connect 9 0 10 0;
#X connect 10 0 19 1;
#X connect 11 0 12 0;
#X connect 12 0 20 1;
#X connect 13 0 14 0;
#X connect 13 0 15 0;
#X connect 13 0 22 0;
#X connect 13 0 23 0;
#X connect 13 0 21 0;
#X connect 14 0 1 0;
#X connect 15 0 5 0;
#X connect 16 0 3 0;
#X connect 17 0 3 0;
#X connect 18 0 3 0;
#X connect 19 0 3 0;
#X connect 20 0 3 0;
#X connect 21 0 7 0;
#X connect 22 0 9 0;
#X connect 23 0 11 0;
#X connect 24 0 20 2;
#X connect 24 0 19 2;
#X connect 24 0 18 2;
#X connect 24 0 17 2;
#X connect 24 0 16 2;
#X connect 25 0 29 0;
#X connect 26 0 31 0;
#X connect 26 1 28 0;
#X connect 27 0 4 0;
#X connect 27 1 4 1;
#X connect 28 0 26 0;
#X connect 29 0 30 0;
#X connect 30 0 27 0;
#X connect 31 0 27 1;
#X connect 32 0 33 0;
#X connect 32 0 46 0;
#X connect 33 0 34 0;
#X connect 34 0 35 0;
#X connect 35 0 13 0;
#X connect 35 0 37 0;
#X connect 36 0 40 0;
#X connect 37 0 45 0;
#X connect 38 0 41 1;
#X connect 39 0 4 0;
#X connect 39 0 4 1;
#X connect 39 0 25 0;
#X connect 40 0 32 0;
#X connect 40 0 52 0;
#X connect 41 0 51 1;
#X connect 42 0 43 0;
#X connect 43 0 44 0;
#X connect 44 0 41 0;
#X connect 45 0 38 0;
#X connect 45 0 38 1;
#X connect 46 0 24 0;
#X connect 47 0 36 0;
#X connect 47 0 58 0;
#X connect 47 0 60 0;
#X connect 48 0 57 0;
#X connect 49 0 50 0;
#X connect 49 0 50 1;
#X connect 49 0 51 0;
#X connect 49 0 53 0;
#X connect 51 1 39 0;
#X connect 52 0 55 0;
#X connect 53 1 39 0;
#X connect 54 0 53 1;
#X connect 55 0 56 0;
#X connect 56 0 48 0;
#X connect 57 0 49 0;
#X connect 58 0 32 1;
#X connect 59 0 60 0;
#X connect 60 0 32 1;
