#N canvas 54 73 1096 619 12;
#X obj 20 18 tgl 15 0 empty empty empty 17 7 0 10 -262144 -1 -1 1 1
;
#X obj 20 38 metronome 100 32;
#X obj 20 134 unpack f f f f, f 19;
#X obj 20 158 mtof;
#X obj 63 158 mtof;
#X obj 106 158 mtof;
#X obj 20 182 osc~;
#X obj 63 182 osc~;
#X obj 106 182 osc~;
#X obj 20 246 mixer~;
#X obj 20 547 out~;
#X obj 20 110 chord aeolian 60;
#X obj 275 145 cymbal~ 20 1000;
#X obj 275 62 onbeats 1 3 5 7 9 15 17 19 21 23 25 26 27 29 30 31;
#X obj 20 327 vibrato~ 1 1;
#X obj 20 435 mixer~;
#X obj 193 18 loadbang;
#X obj 37 378 vfreeverb~ 0.5 0.5 0.5 0.5;
#X obj 37 402 hip~ 500;
#X obj 278 383 ducker~ 1 20;
#X obj 150 202 ks~ 5 0.99;
#X obj 150 157 maybe 0.5;
#X obj 275 110 maybe 0.9;
#X obj 275 86 humanize 10;
#X obj 150 180 humanize 50;
#X obj 20 351 tremolo~ 10 1;
#X obj 158 339 scaled 0 1 0.5 1;
#X obj 409 165 scaled 0 1 20 50;
#X floatatom 175 88 5 0 0 0 - - -;
#X obj 363 295 onbeats 5 13 21 29 31 32;
#X obj 363 319 snare~ 200 0.8 310;
#X obj 363 343 vfreeverb~ 0.5 0.5 0.5 0.5;
#X obj 433 376 echo~ 600 0.8;
#X obj 433 400 *~;
#X obj 414 222 onbeats 1 5 7 9 13 17 21 25 29 31;
#X obj 696 291 osc~;
#X obj 696 243 mtof;
#X obj 696 390 *~, f 6;
#X obj 627 291 crackle~;
#X obj 734 191 t b b;
#X obj 766 217 f;
#X obj 832 221 t b b;
#X obj 864 247 f;
#X obj 832 167 onbeats 29;
#X obj 882 222 - 2;
#X obj 696 339 lop~ 1000;
#X obj 696 267 / 4;
#X obj 696 363 *~ 2;
#X obj 696 414 vfreeverb~ 0.5 0.8 0.8 0.2;
#X obj 627 315 *~ 3;
#X msg 193 42 60;
#X obj 20 486 ducker~ 1 20;
#X obj 734 263 maybe 0.1;
#X obj 734 167 onbeats 1;
#X obj 832 191 maybe 0.1;
#X obj 20 86 16step 1 4 5 6 2 3;
#X obj 696 315 vibrato~ 2 2;
#X obj 20 297 lop~ 3000;
#X obj 734 292 ahdsr~ 5 0 800 0.4 500;
#X obj 150 252 *~ 1;
#X obj 150 226 vibrato~ 1 2;
#X obj 20 62 onbeats 1 9 17 27 29 31;
#X obj 409 141 lfo sin 0.1;
#X obj 570 372 lfo~ sin 0.05;
#X obj 158 315 lfo sin 0.12;
#X obj 414 247 kick~;
#X connect 0 0 1 0;
#X connect 1 0 13 0;
#X connect 1 0 29 0;
#X connect 1 0 34 0;
#X connect 1 0 43 0;
#X connect 1 0 53 0;
#X connect 1 0 61 0;
#X connect 2 0 3 0;
#X connect 2 1 4 0;
#X connect 2 2 5 0;
#X connect 2 3 21 0;
#X connect 3 0 6 0;
#X connect 4 0 7 0;
#X connect 5 0 8 0;
#X connect 6 0 9 0;
#X connect 7 0 9 1;
#X connect 8 0 9 2;
#X connect 9 0 57 0;
#X connect 11 0 2 0;
#X connect 12 0 19 0;
#X connect 13 0 23 0;
#X connect 14 0 25 0;
#X connect 15 0 51 1;
#X connect 16 0 0 0;
#X connect 16 0 50 0;
#X connect 17 0 18 0;
#X connect 18 0 19 1;
#X connect 19 0 15 7;
#X connect 19 1 15 1;
#X connect 20 0 60 0;
#X connect 21 0 24 0;
#X connect 22 0 12 0;
#X connect 23 0 22 0;
#X connect 24 0 20 0;
#X connect 25 0 15 0;
#X connect 25 0 17 0;
#X connect 26 0 25 2;
#X connect 27 0 12 1;
#X connect 28 0 11 2;
#X connect 28 0 40 1;
#X connect 28 0 44 0;
#X connect 29 0 30 0;
#X connect 30 0 31 0;
#X connect 30 0 32 0;
#X connect 31 0 15 6;
#X connect 32 0 33 0;
#X connect 33 0 15 5;
#X connect 34 0 65 0;
#X connect 35 0 56 0;
#X connect 36 0 46 0;
#X connect 37 0 48 0;
#X connect 38 0 49 0;
#X connect 39 0 52 0;
#X connect 39 1 40 0;
#X connect 40 0 36 0;
#X connect 41 0 58 0;
#X connect 41 1 42 0;
#X connect 42 0 36 0;
#X connect 43 0 54 0;
#X connect 44 0 42 1;
#X connect 45 0 47 0;
#X connect 46 0 35 0;
#X connect 47 0 37 0;
#X connect 48 0 51 0;
#X connect 49 0 37 0;
#X connect 50 0 28 0;
#X connect 51 0 10 0;
#X connect 51 0 10 1;
#X connect 51 1 10 0;
#X connect 51 1 10 1;
#X connect 52 0 58 0;
#X connect 53 0 39 0;
#X connect 54 0 41 0;
#X connect 55 0 11 0;
#X connect 56 0 45 0;
#X connect 57 0 14 0;
#X connect 58 0 37 1;
#X connect 59 0 17 0;
#X connect 60 0 59 0;
#X connect 61 0 55 0;
#X connect 62 0 27 0;
#X connect 63 0 33 1;
#X connect 64 0 26 0;
#X connect 65 0 15 4;
