#N canvas 1 170 1309 576 12;
#X floatatom 250 203 5 0 0 0 - - - 0;
#X obj 250 226 sig~;
#X obj 156 443 out~;
#X floatatom 390 203 5 0 0 0 - - - 0;
#X obj 390 226 sig~;
#X floatatom 530 203 5 0 0 0 - - - 0;
#X obj 530 226 sig~;
#X floatatom 670 203 5 0 0 0 - - - 0;
#X obj 670 226 sig~;
#X floatatom 810 203 5 0 0 0 - - - 0;
#X obj 810 226 sig~;
#X floatatom 266 62 5 0 0 0 - - - 0;
#X obj 266 85 * 1;
#X obj 296 85 * 2;
#X obj 189 251 vcf~ 10, f 18;
#X obj 329 251 vcf~ 10, f 18;
#X obj 469 251 vcf~ 10, f 18;
#X obj 609 251 vcf~ 10, f 18;
#X obj 749 251 vcf~ 10, f 18;
#X floatatom 1040 233 5 0 0 0 - - - 0;
#X obj 267 287 phaser~;
#X obj 620 395 randwalk 400 4000;
#X obj 511 461 pan~;
#X obj 621 371 bng 15 250 50 0 empty empty empty 17 7 0 10 #fcfcfc
#000000 #000000;
#X obj 620 437 scaled 0 1 0.3 0.7;
#X obj 93 39 sequ;
#X obj 93 194 scaled 0 1 1 200;
#X obj 189 17 tgl 15 0 empty empty empty 17 7 0 10 #fcfcfc #000000
#000000 0 1;
#X obj 93 336 bng 15 250 50 0 empty empty empty 17 7 0 10 #fcfcfc #000000
#000000;
#X obj 93 384 *~;
#X obj 93 438 *~;
#X obj 189 41 metro 30;
#X obj 93 408 -~;
#X obj 25 360 loadbang;
#X msg 25 384 1;
#X obj 25 408 sig~;
#X obj 272 9 loadbang;
#X obj 215 137 noise~;
#X obj 215 185 *~ 1;
#X obj 215 161 lop~ 10000;
#X obj 189 275 *~ 0.2;
#X obj 662 354 loadbang;
#X msg 474 22 generate 1 \, density 0.6;
#X obj 498 48 del 2000;
#X msg 501 75 generate 0.2 \, density 0.75;
#X obj 93 218 ftom;
#X obj 93 242 quantizedmode phrygian 60;
#X obj 93 266 mtof;
#X obj 93 288 * 10;
#X obj 266 135 pink~;
#X obj 310 136 noise~;
#X obj 360 137 crackle~;
#X obj 326 85 * 3;
#X obj 356 85 * 4;
#X obj 386 85 * 8;
#X msg 704 34 1;
#X msg 824 34 1;
#X msg 944 34 1;
#X msg 1064 34 1;
#X msg 1184 34 1;
#X obj 704 99 bng 15 250 50 0 empty empty empty 17 7 0 10 #fcfcfc #000000
#000000;
#X obj 824 99 bng 15 250 50 0 empty empty empty 17 7 0 10 #fcfcfc #000000
#000000;
#X obj 944 99 bng 15 250 50 0 empty empty empty 17 7 0 10 #fcfcfc #000000
#000000;
#X obj 1064 99 bng 15 250 50 0 empty empty empty 17 7 0 10 #fcfcfc
#000000 #000000;
#X obj 1184 99 bng 15 250 50 0 empty empty empty 17 7 0 10 #fcfcfc
#000000 #000000;
#X floatatom 704 143 5 0 0 0 - - - 0;
#X floatatom 824 143 5 0 0 0 - - - 0;
#X floatatom 944 143 5 0 0 0 - - - 0;
#X floatatom 1064 143 5 0 0 0 - - - 0;
#X floatatom 1184 143 5 0 0 0 - - - 0;
#X obj 704 58 maybe 0.005;
#X obj 824 58 maybe 0.005;
#X obj 944 58 maybe 0.005;
#X obj 1064 58 maybe 0.005;
#X obj 1184 58 maybe 0.005;
#X obj 704 119 random 3;
#X obj 824 119 random 5;
#X obj 944 119 random 7;
#X obj 1064 119 random 8;
#X obj 1184 119 random 10;
#X obj 1033 171 scaled 0 1 200 1000;
#X obj 266 312 tapeecho~ 200 0.5;
#X obj 448 335 randwalk 400 4000;
#X obj 449 311 bng 15 250 50 0 empty empty empty 17 7 0 10 #fcfcfc
#000000 #000000;
#X obj 490 294 loadbang;
#X obj 448 376 scaled 0 1 0 0.8;
#X obj 266 336 level~ 0.8;
#X obj 845 357 randwalk 400 4000;
#X obj 846 333 bng 15 250 50 0 empty empty empty 17 7 0 10 #fcfcfc
#000000 #000000;
#X obj 887 316 loadbang;
#X obj 93 360 ahdsr~ 5 0 50 0.3 5;
#X obj 845 399 scaled 0 1 5 80;
#X connect 0 0 1 0;
#X connect 1 0 14 1;
#X connect 3 0 4 0;
#X connect 4 0 15 1;
#X connect 5 0 6 0;
#X connect 6 0 16 1;
#X connect 7 0 8 0;
#X connect 8 0 17 1;
#X connect 9 0 10 0;
#X connect 10 0 18 1;
#X connect 11 0 12 0;
#X connect 11 0 13 0;
#X connect 11 0 52 0;
#X connect 11 0 53 0;
#X connect 11 0 54 0;
#X connect 12 0 0 0;
#X connect 13 0 3 0;
#X connect 14 0 40 0;
#X connect 15 0 40 0;
#X connect 16 0 40 0;
#X connect 17 0 40 0;
#X connect 18 0 40 0;
#X connect 19 0 18 2;
#X connect 19 0 17 2;
#X connect 19 0 16 2;
#X connect 19 0 15 2;
#X connect 19 0 14 2;
#X connect 20 0 81 0;
#X connect 21 0 24 0;
#X connect 21 1 23 0;
#X connect 22 0 2 0;
#X connect 22 1 2 1;
#X connect 23 0 21 0;
#X connect 24 0 22 1;
#X connect 25 0 26 0;
#X connect 25 0 80 0;
#X connect 26 0 45 0;
#X connect 27 0 31 0;
#X connect 28 0 90 0;
#X connect 29 0 32 1;
#X connect 30 0 2 0;
#X connect 30 0 2 1;
#X connect 30 0 20 0;
#X connect 31 0 25 0;
#X connect 31 0 55 0;
#X connect 31 0 59 0;
#X connect 31 0 58 0;
#X connect 31 0 57 0;
#X connect 31 0 56 0;
#X connect 32 0 30 0;
#X connect 33 0 34 0;
#X connect 34 0 35 0;
#X connect 35 0 32 0;
#X connect 36 0 27 0;
#X connect 36 0 42 0;
#X connect 36 0 43 0;
#X connect 37 0 39 0;
#X connect 38 0 14 0;
#X connect 38 0 18 0;
#X connect 38 0 17 0;
#X connect 38 0 16 0;
#X connect 38 0 15 0;
#X connect 39 0 38 0;
#X connect 40 0 30 1;
#X connect 41 0 23 0;
#X connect 42 0 25 1;
#X connect 43 0 44 0;
#X connect 44 0 25 1;
#X connect 45 0 46 0;
#X connect 46 0 47 0;
#X connect 47 0 48 0;
#X connect 48 0 28 0;
#X connect 48 0 11 0;
#X connect 49 0 39 0;
#X connect 50 0 38 0;
#X connect 51 0 38 0;
#X connect 52 0 5 0;
#X connect 53 0 7 0;
#X connect 54 0 9 0;
#X connect 55 0 70 0;
#X connect 56 0 71 0;
#X connect 57 0 72 0;
#X connect 58 0 73 0;
#X connect 59 0 74 0;
#X connect 60 0 75 0;
#X connect 61 0 76 0;
#X connect 62 0 77 0;
#X connect 63 0 78 0;
#X connect 64 0 79 0;
#X connect 65 0 12 1;
#X connect 66 0 13 1;
#X connect 67 0 52 1;
#X connect 68 0 53 1;
#X connect 69 0 54 1;
#X connect 70 0 60 0;
#X connect 71 0 61 0;
#X connect 72 0 62 0;
#X connect 73 0 63 0;
#X connect 74 0 64 0;
#X connect 75 0 65 0;
#X connect 76 0 66 0;
#X connect 77 0 67 0;
#X connect 78 0 68 0;
#X connect 79 0 69 0;
#X connect 80 0 19 0;
#X connect 81 0 86 0;
#X connect 82 0 85 0;
#X connect 82 1 83 0;
#X connect 83 0 82 0;
#X connect 84 0 83 0;
#X connect 85 0 81 2;
#X connect 86 0 22 0;
#X connect 87 0 91 0;
#X connect 87 1 88 0;
#X connect 88 0 87 0;
#X connect 89 0 88 0;
#X connect 90 0 29 0;
#X connect 90 0 29 1;
#X connect 91 0 90 2;
