#N canvas 20 189 1430 501 12;
#X obj 285 181 ffb~, f 104;
#X obj 358 109 vsl 15 40 0 1 0 0 empty empty empty 0 -9 0 10 #fcfcfc
#000000 #000000 0 1;
#X obj 358 157 ramp~;
#X obj 431 109 vsl 15 40 0 1 0 0 empty empty empty 0 -9 0 10 #fcfcfc
#000000 #000000 0 1;
#X obj 431 157 ramp~;
#X obj 504 109 vsl 15 40 0 1 0 0 empty empty empty 0 -9 0 10 #fcfcfc
#000000 #000000 0 1;
#X obj 504 157 ramp~;
#X obj 577 109 vsl 15 40 0 1 0 0 empty empty empty 0 -9 0 10 #fcfcfc
#000000 #000000 0 1;
#X obj 577 157 ramp~;
#X obj 651 109 vsl 15 40 0 1 0 0 empty empty empty 0 -9 0 10 #fcfcfc
#000000 #000000 0 1;
#X obj 651 157 ramp~;
#X obj 724 109 vsl 15 40 0 1 0 0 empty empty empty 0 -9 0 10 #fcfcfc
#000000 #000000 0 1;
#X obj 724 157 ramp~;
#X obj 797 109 vsl 15 40 0 1 0 0 empty empty empty 0 -9 0 10 #fcfcfc
#000000 #000000 0 1;
#X obj 797 157 ramp~;
#X obj 870 109 vsl 15 40 0 1 0 0 empty empty empty 0 -9 0 10 #fcfcfc
#000000 #000000 0 1;
#X obj 870 157 ramp~;
#X obj 943 109 vsl 15 40 0 1 0 0 empty empty empty 0 -9 0 10 #fcfcfc
#000000 #000000 0 1;
#X obj 943 157 ramp~;
#X obj 1017 109 vsl 15 40 0 1 0 0 empty empty empty 0 -9 0 10 #fcfcfc
#000000 #000000 0 1;
#X obj 1017 157 ramp~;
#X msg 295 88 1;
#X obj 295 64 loadbang;
#X floatatom 26 139 5 0 0 0 - - - 0;
#X msg 26 162 q \$1;
#X floatatom 76 139 5 0 0 0 - - - 0;
#X msg 76 162 shift \$1;
#X obj 1092 17 tgl 15 0 empty empty empty 17 7 0 10 #fcfcfc #000000
#000000 0 1;
#X obj 1124 293 *~;
#X obj 76 69 ftom;
#X obj 76 117 mtof;
#X obj 1092 61 sequ;
#X obj 1124 249 bng 15 250 50 0 empty empty empty 17 7 0 10 #fcfcfc
#000000 #000000;
#X obj 76 93 quantizedmode ionian 60;
#X obj 1092 216 scaled 0 1 100 2000;
#X obj 683 218 sequ;
#X obj 683 373 scaled 0 1 38 73;
#X obj 683 397 quantizedmode ionian 60;
#X obj 683 421 mtof;
#X obj 683 445 saw~;
#X obj 683 469 *~;
#X obj 1124 269 ahdsr~ 5 0 50 0.3 5;
#X obj 1092 37 metro 10;
#X obj 442 355 noise~;
#X obj 277 309 tapeecho~ 133 0.3;
#X obj 277 333 level~;
#X obj 214 399 outrec~;
#X connect 0 0 44 0;
#X connect 0 0 46 0;
#X connect 0 0 46 1;
#X connect 1 0 2 0;
#X connect 2 0 0 2;
#X connect 3 0 4 0;
#X connect 4 0 0 3;
#X connect 5 0 6 0;
#X connect 6 0 0 4;
#X connect 7 0 8 0;
#X connect 8 0 0 5;
#X connect 9 0 10 0;
#X connect 10 0 0 6;
#X connect 11 0 12 0;
#X connect 12 0 0 7;
#X connect 13 0 14 0;
#X connect 14 0 0 8;
#X connect 15 0 16 0;
#X connect 16 0 0 9;
#X connect 17 0 18 0;
#X connect 18 0 0 10;
#X connect 19 0 20 0;
#X connect 20 0 0 11;
#X connect 21 0 11 0;
#X connect 21 0 19 0;
#X connect 21 0 17 0;
#X connect 21 0 15 0;
#X connect 21 0 13 0;
#X connect 21 0 9 0;
#X connect 21 0 7 0;
#X connect 21 0 5 0;
#X connect 21 0 3 0;
#X connect 21 0 1 0;
#X connect 22 0 21 0;
#X connect 23 0 24 0;
#X connect 24 0 0 0;
#X connect 25 0 26 0;
#X connect 26 0 0 0;
#X connect 27 0 42 0;
#X connect 28 0 40 1;
#X connect 28 0 0 12;
#X connect 29 0 33 0;
#X connect 30 0 25 0;
#X connect 31 0 32 0;
#X connect 31 0 34 0;
#X connect 32 0 41 0;
#X connect 33 0 30 0;
#X connect 34 0 29 0;
#X connect 35 0 36 0;
#X connect 36 0 37 0;
#X connect 37 0 38 0;
#X connect 38 0 39 0;
#X connect 39 0 40 0;
#X connect 40 0 0 1;
#X connect 41 0 28 0;
#X connect 41 0 28 1;
#X connect 42 0 31 0;
#X connect 42 0 35 0;
#X connect 43 0 40 0;
#X connect 44 0 45 0;
#X connect 45 0 46 0;
#X connect 45 0 46 1;
