#N canvas 0 38 1512 884 12;
#X obj 4 4 loadbang;
#X obj 4 28 tgl 15 0 empty empty empty 17 7 0 10 #fcfcfc #000000 #000000
0 1;
#X obj 4 72 s \$0-tick;
#X obj 5 104 r \$0-tick;
#X msg 5 192 velocity 1;
#X obj 130 152 maybe 0.1;
#X obj 6 262 kick~;
#X obj 1278 717 catch~ out;
#X obj 1197 717 catch~ outL;
#X obj 1352 717 catch~ outR;
#X obj 28 219 loadbang;
#X obj 6 646 throw~ out;
#X obj 418 8 r \$0-tick;
#X obj 418 32 sequ;
#X obj 418 211 quantizedmode harmonicminor 60;
#X obj 418 235 mtof;
#X obj 418 353 swarm~;
#X msg 418 259 frequency \$1;
#X obj 778 8 r \$0-tick;
#X obj 778 32 sequ;
#X obj 778 187 scaled 0 1 40 70;
#X obj 778 211 quantizedmode harmonicminor 60;
#X obj 778 235 mtof;
#X obj 778 353 swarm~;
#X msg 778 259 frequency \$1;
#X obj 418 646 level~ 1;
#X obj 778 646 level~ 1;
#X msg 867 306 spread 0.3 \, character 0.244 \, highcutoff 4015 \,
resonance 0.338 \, attack 10.23 \, decay 188.9 \, decayshape 0.22 \,
noisemix 1 \, reverbmix 0.5;
#X obj 867 287 loadbang;
#X obj 1337 629 catch~ ducked;
#X obj 1401 677 throw~ out;
#X obj 778 669 throw~ ducked;
#X obj 362 772 throw~ out;
#X obj 6 606 throw~ ducker;
#X obj 1306 582 catch~ ducker;
#X obj 5 128 sel 1 17 33 49 9 25 41 57, f 57;
#X obj 253 151 maybe 0.05;
#X obj 1306 653 ducker~ 0.5 50;
#X obj 4 48 metronome 26.7857 64;
#X obj 429 282 loadbang;
#X obj 488 31 loadbang;
#X obj 561 108 randwalk 200 2000;
#X obj 679 151 bng 15 250 50 0 empty empty empty 17 7 0 10 #fcfcfc
#000000 #000000;
#X msg 561 150 noisemix \$1;
#X obj 684 130 loadbang;
#X obj 870 29 loadbang;
#X msg 870 53 clockdivision 4;
#X obj 906 108 randwalk 200 2000;
#X obj 1044 131 bng 15 250 50 0 empty empty empty 17 7 0 10 #fcfcfc
#000000 #000000;
#X obj 1049 110 loadbang;
#X obj 906 149 scaled 0 1 4000 5000;
#X msg 906 173 highcutoff \$1;
#X obj 1306 606 level~ 1;
#X obj 1251 134 bng 15 250 50 0 empty empty empty 17 7 0 10 #fcfcfc
#000000 #000000;
#X obj 1256 113 loadbang;
#X msg 1113 176 character \$1;
#X obj 1113 152 scaled 0 1 0 0.75;
#X obj 1113 111 randwalk 200 4000;
#X floatatom 1477 725 5 0 1 0 - - - 0;
#X floatatom 1549 725 5 0 100 0 - - - 0;
#X msg 1477 748 ratio \$1;
#X msg 1549 748 threshold \$1;
#X obj 1540 649 loadbang;
#X msg 1541 698 0;
#X msg 1580 696 85;
#X obj 1540 673 bng 15 250 50 0 empty empty empty 17 7 0 10 #fcfcfc
#000000 #000000;
#X msg 254 194 velocity 0.4;
#X msg 130 196 velocity 0.8;
#X floatatom 185 667 5 0 1000 0 - - - 0;
#X floatatom 239 663 5 0 0 0 - - - 0;
#X floatatom 296 697 5 0 0 0 - - - 0;
#X floatatom 291 626 5 0 0 0 - - - 0;
#X obj 291 649 * 200;
#X floatatom 345 701 5 0 1 0 - - - 0;
#X obj 147 657 bng 15 250 50 0 empty empty empty 17 7 0 10 #fcfcfc
#000000 #000000;
#X obj 170 74 s \$0-beat;
#X obj 240 74 s \$0-offbeat;
#X obj 147 584 r \$0-beat;
#X obj 161 825 throw~ ducked;
#X obj 147 608 maybe;
#X obj 161 802 level~ 0.1;
#X obj 161 728 snare~ 400 220 22000 3 1;
#X obj 5 152 maybe 0.99;
#X obj 1339 200 osc~;
#X floatatom 1339 125 5 0 0 0 - - - 0;
#X obj 1339 148 mtof;
#X obj 1339 274 wavefolder~;
#X obj 1339 355 level~;
#X msg 1442 155 foldamount \$1;
#X obj 1231 200 saw~;
#X obj 1494 409 level~;
#X obj 1231 224 vibrato~ 3 0.1;
#X obj 1339 224 vibrato~ 2 0.1;
#X obj 1339 419 throw~ ducked;
#X obj 1494 385 tapeecho~ 250 0.3;
#X obj 1562 88 loadbang;
#X msg 1562 112 wet 1 \, dry 0;
#X obj 1339 77 loadbang;
#X msg 1339 101 48;
#X obj 1433 106 maybe 1;
#X msg 488 55 clockdivision 4 \, length 9;
#X obj 418 187 scaled 0 1 40 73;
#X msg 429 306 spread 0.25 \, character 0.3 \, highcutoff 157.4 \,
resonance 0.175 \, attack 0 \, decay 1543 \, decayshape 0.692 \, noisemix
0.763 \, noiseshape 0.275 \, reverbmix 0.716;
#X obj 1409 70 spigot;
#X obj 1452 49 tgl 15 0 empty empty empty 17 7 0 10 #fcfcfc #000000
#000000 0 1;
#X obj 1222 799 outrec~;
#X obj 1339 172 ramp~ 30;
#X obj 1197 767 hv.compressor2;
#X msg 28 243 frequency 44 \, range 0.6 \, decay 0.5 \, shape 0.7 \,
clip 1;
#X obj 6 461 level~ 0.4;
#X obj 161 752 softclip~;
#X obj 240 559 r \$0-offbeat;
#X obj 838 749 osc~;
#X obj 838 773 softclip~;
#X obj 946 656 maybe 0.8;
#X obj 946 699 t b f;
#X obj 838 816 *~;
#X obj 946 723 ahdsr~ 5 0 20 0.7 80;
#X obj 946 747 *~;
#X obj 838 840 level~;
#X obj 838 863 throw~ out;
#X obj 625 736 phaser~;
#X obj 625 760 hip~ 2000;
#X obj 625 784 level~;
#X obj 1474 182 softclip~;
#X obj 1474 225 level~;
#X connect 0 0 1 0;
#X connect 1 0 38 0;
#X connect 3 0 35 0;
#X connect 4 0 6 0;
#X connect 5 0 67 0;
#X connect 6 0 109 0;
#X connect 7 0 107 0;
#X connect 7 0 107 1;
#X connect 8 0 107 0;
#X connect 9 0 107 1;
#X connect 10 0 108 0;
#X connect 12 0 13 0;
#X connect 13 0 101 0;
#X connect 13 0 99 0;
#X connect 14 0 15 0;
#X connect 14 0 103 0;
#X connect 15 0 17 0;
#X connect 15 0 114 0;
#X connect 16 0 25 0;
#X connect 17 0 16 0;
#X connect 18 0 19 0;
#X connect 19 0 20 0;
#X connect 20 0 21 0;
#X connect 21 0 22 0;
#X connect 22 0 24 0;
#X connect 23 0 26 0;
#X connect 24 0 23 0;
#X connect 25 0 32 0;
#X connect 25 0 94 0;
#X connect 26 0 31 0;
#X connect 27 0 23 0;
#X connect 28 0 27 0;
#X connect 29 0 37 1;
#X connect 34 0 52 0;
#X connect 35 0 75 0;
#X connect 35 0 82 0;
#X connect 35 1 75 0;
#X connect 35 1 5 0;
#X connect 35 2 75 0;
#X connect 35 2 5 0;
#X connect 35 3 75 0;
#X connect 35 3 5 0;
#X connect 35 4 76 0;
#X connect 35 4 36 0;
#X connect 35 5 76 0;
#X connect 35 5 36 0;
#X connect 35 6 76 0;
#X connect 35 6 36 0;
#X connect 35 7 76 0;
#X connect 35 7 36 0;
#X connect 36 0 66 0;
#X connect 37 1 30 0;
#X connect 38 0 2 0;
#X connect 39 0 102 0;
#X connect 40 0 100 0;
#X connect 41 0 43 0;
#X connect 41 1 42 0;
#X connect 42 0 41 0;
#X connect 43 0 16 0;
#X connect 44 0 42 0;
#X connect 45 0 46 0;
#X connect 46 0 19 1;
#X connect 47 0 50 0;
#X connect 47 1 48 0;
#X connect 48 0 47 0;
#X connect 49 0 48 0;
#X connect 50 0 51 0;
#X connect 51 0 23 0;
#X connect 52 0 37 0;
#X connect 53 0 57 0;
#X connect 54 0 53 0;
#X connect 55 0 23 0;
#X connect 56 0 55 0;
#X connect 57 0 56 0;
#X connect 57 1 53 0;
#X connect 58 0 60 0;
#X connect 59 0 61 0;
#X connect 60 0 107 2;
#X connect 61 0 107 2;
#X connect 62 0 65 0;
#X connect 63 0 58 0;
#X connect 64 0 59 0;
#X connect 65 0 64 0;
#X connect 65 0 63 0;
#X connect 66 0 6 0;
#X connect 67 0 6 0;
#X connect 68 0 81 1;
#X connect 69 0 81 2;
#X connect 70 0 81 4;
#X connect 71 0 72 0;
#X connect 72 0 81 3;
#X connect 73 0 81 5;
#X connect 74 0 81 0;
#X connect 77 0 79 0;
#X connect 79 0 74 0;
#X connect 80 0 78 0;
#X connect 81 0 110 0;
#X connect 82 0 4 0;
#X connect 83 0 92 0;
#X connect 84 0 85 0;
#X connect 85 0 106 0;
#X connect 86 0 87 0;
#X connect 87 0 93 0;
#X connect 87 0 94 0;
#X connect 88 0 86 1;
#X connect 89 0 91 0;
#X connect 90 0 93 0;
#X connect 91 0 86 0;
#X connect 92 0 124 0;
#X connect 94 0 90 0;
#X connect 95 0 96 0;
#X connect 96 0 86 1;
#X connect 97 0 98 0;
#X connect 98 0 84 0;
#X connect 99 0 88 0;
#X connect 100 0 13 1;
#X connect 101 0 14 0;
#X connect 102 0 16 0;
#X connect 103 0 84 0;
#X connect 104 0 103 1;
#X connect 106 0 89 0;
#X connect 106 0 83 0;
#X connect 107 0 105 0;
#X connect 107 1 105 1;
#X connect 108 0 6 0;
#X connect 109 0 33 0;
#X connect 109 0 11 0;
#X connect 110 0 80 0;
#X connect 111 0 79 0;
#X connect 112 0 113 0;
#X connect 112 0 121 0;
#X connect 113 0 116 0;
#X connect 114 0 115 0;
#X connect 115 0 117 0;
#X connect 115 1 112 0;
#X connect 116 0 119 0;
#X connect 117 0 118 0;
#X connect 117 0 118 1;
#X connect 118 0 116 1;
#X connect 119 0 120 0;
#X connect 121 0 122 0;
#X connect 122 0 123 0;
#X connect 123 0 94 0;
#X connect 124 0 125 0;
#X connect 125 0 86 0;
