#N canvas 0 38 1512 884 12;
#X obj 1339 744 catch~ out;
#X obj 129 52 msphsl 0 1 0;
#X obj 129 75 ramp~;
#X obj 129 123 osc~;
#X obj 247 52 msphsl 0 8000 0;
#X obj 129 99 *~;
#X obj 247 75 ramp~;
#X obj 129 147 softclip~;
#X obj 129 190 softclip~;
#X obj 129 233 softclip~;
#X obj 498 32 msphsl 0 1 0;
#X obj 498 127 osc~;
#X obj 616 32 msphsl 0 8000 0;
#X obj 498 79 *~;
#X obj 616 55 ramp~;
#X obj 498 151 softclip~;
#X obj 498 194 softclip~;
#X obj 498 237 softclip~;
#X obj 129 276 vcf~;
#X obj 498 280 vcf~;
#X obj 832 55 msphsl 1 100 2;
#X obj 832 78 s q;
#X obj 536 280 r q;
#X obj 166 276 r q;
#X obj 129 300 level~;
#X obj 154 328 level~;
#X obj 498 304 level~;
#X obj 523 331 level~;
#X obj 243 98 msphsl 0 8000;
#X obj 243 121 ramp~;
#X obj 374 99 msphsl 0 8000;
#X obj 374 122 ramp~;
#X obj 480 454 echo~ 250 0.7;
#X obj 480 478 level~;
#X obj 580 118 pink~;
#X obj 480 391 level~;
#X obj 498 103 +~;
#X obj 348 312 msphsl 0 8000;
#X obj 348 336 ramp~;
#X obj 381 425 *~;
#X obj 1052 572 tgl 15 0 empty empty empty 17 7 0 10 #fcfcfc #000000
#000000 0 1;
#X obj 1052 596 metro 2000;
#X obj 1052 620 bng 15 250 50 0 empty empty empty 17 7 0 10 #fcfcfc
#000000 #000000;
#X obj 381 449 *~;
#X obj 1122 419 randwalk 200 2000;
#X obj 1259 427 bng 15 250 50 0 empty empty empty 17 7 0 10 #fcfcfc
#000000 #000000;
#X obj 1339 791 outrec~;
#X obj 378 570 *~;
#X obj 378 594 throw~ out;
#X obj 1122 473 scaled 0 1 80 800;
#X obj 1083 179 randrange 0 8000;
#X obj 1266 698 catch~ outL;
#X obj 1378 692 catch~ outR;
#X obj 1266 722 *~;
#X obj 1378 716 *~;
#X obj 1339 768 *~;
#X obj 1301 640 msphsl 0 1 0;
#X obj 1301 663 ramp~;
#X obj 480 501 pan~;
#X obj 709 425 randwalk 200 2000;
#X obj 837 472 bng 15 250 50 0 empty empty empty 17 7 0 10 #fcfcfc
#000000 #000000;
#X obj 480 546 throw~ outL;
#X obj 570 546 throw~ outR;
#X obj 498 55 ramp~ 1000;
#X obj 1052 644 ahdsr~ 5 0 200 0.3 200;
#X obj 1052 668 pow~ 2;
#X obj 848 320 s~ del;
#X obj 731 94 r~ del;
#X connect 0 0 55 0;
#X connect 1 0 2 0;
#X connect 2 0 5 0;
#X connect 3 0 7 0;
#X connect 4 0 6 0;
#X connect 5 0 3 0;
#X connect 6 0 5 1;
#X connect 7 0 8 0;
#X connect 8 0 9 0;
#X connect 9 0 18 0;
#X connect 10 0 63 0;
#X connect 11 0 15 0;
#X connect 12 0 14 0;
#X connect 13 0 36 0;
#X connect 14 0 13 1;
#X connect 15 0 16 0;
#X connect 16 0 17 0;
#X connect 17 0 19 0;
#X connect 18 0 24 0;
#X connect 18 1 25 0;
#X connect 19 0 26 0;
#X connect 19 1 27 0;
#X connect 20 0 21 0;
#X connect 22 0 19 2;
#X connect 23 0 18 2;
#X connect 24 0 39 0;
#X connect 25 0 39 0;
#X connect 26 0 35 0;
#X connect 27 0 35 0;
#X connect 28 0 29 0;
#X connect 29 0 18 1;
#X connect 30 0 31 0;
#X connect 31 0 19 1;
#X connect 32 0 33 0;
#X connect 33 0 58 0;
#X connect 33 0 66 0;
#X connect 34 0 36 1;
#X connect 35 0 32 0;
#X connect 35 0 47 0;
#X connect 36 0 11 0;
#X connect 37 0 38 0;
#X connect 38 0 39 1;
#X connect 39 0 43 0;
#X connect 40 0 41 0;
#X connect 41 0 42 0;
#X connect 42 0 50 0;
#X connect 42 0 64 0;
#X connect 43 0 36 1;
#X connect 44 0 49 0;
#X connect 44 1 45 0;
#X connect 45 0 44 0;
#X connect 47 0 48 0;
#X connect 49 0 41 1;
#X connect 50 0 12 0;
#X connect 51 0 53 0;
#X connect 52 0 54 0;
#X connect 53 0 46 0;
#X connect 54 0 46 1;
#X connect 55 0 46 0;
#X connect 55 0 46 1;
#X connect 56 0 57 0;
#X connect 57 0 55 1;
#X connect 57 0 54 1;
#X connect 57 0 53 1;
#X connect 58 0 61 0;
#X connect 58 1 62 0;
#X connect 59 0 58 1;
#X connect 59 1 60 0;
#X connect 60 0 59 0;
#X connect 63 0 13 0;
#X connect 64 0 65 0;
#X connect 65 0 47 1;
#X connect 65 0 43 1;
#X connect 67 0 36 1;
