#N canvas 521 136 514 488 12;
#X obj 34 27 tgl 15 0 empty empty empty 17 7 0 10 -262144 -1 -1 1 1
;
#X obj 34 119 t f b, f 6;
#X obj 34 241 *~, f 6;
#X obj 34 365 out~;
#X obj 34 71 onbeats 1 3 5 7 8 9 10 11 12;
#X obj 34 47 metronome 500 12;
#X obj 34 95 16step 65 67 60 58 57 55 48 50 51;
#X obj 73 143 ahdsr~ 50 0 200 0.6 200;
#X obj 237 306 crackle~;
#X obj 34 288 distortion~ 1;
#X floatatom 153 348 5 0 0 0 - - -;
#X obj 34 265 vfreeverb~ 0.1 0.1 0.8 0.2;
#X obj 34 312 hip~ 5;
#X obj 34 4 loadbang;
#X obj 153 296 loadbang;
#X msg 153 320 0.95;
#X obj 34 339 *~ 0.1;
#X obj 34 215 tremolo~ 1 1;
#X obj 273 238 snare~ 100 0.5 500;
#X obj 273 214 onbeats 2 4 6 8 10 12;
#X obj 304 70 cymbal~ 20 2000;
#X obj 304 126 +~;
#X obj 236 420 *~, f 15;
#X obj 317 286 bng 15 250 50 0 empty empty empty 17 7 0 10 -262144
-1 -1;
#X obj 317 308 ahdsr~ 5 0 200 1 200;
#X obj 236 347 osc~ 65.4064;
#X obj 236 444 *~ 4.3;
#X obj 236 371 vibrato~ 1 2;
#X obj 236 395 phaser~;
#X obj 304 150 *~ 0.3;
#X obj 322 100 echo~ 125 0.5;
#X obj 34 167 ks~ 8 0.99;
#X obj 34 191 vibrato~ 1 2;
#X obj 298 175 kick~;
#X connect 0 0 5 0;
#X connect 1 0 31 0;
#X connect 1 1 7 0;
#X connect 2 0 11 0;
#X connect 4 0 6 0;
#X connect 5 0 4 0;
#X connect 5 0 19 0;
#X connect 5 0 20 0;
#X connect 5 0 23 0;
#X connect 5 0 33 0;
#X connect 6 0 1 0;
#X connect 7 0 2 1;
#X connect 8 0 2 0;
#X connect 9 0 12 0;
#X connect 10 0 9 1;
#X connect 10 0 11 1;
#X connect 11 0 9 0;
#X connect 12 0 16 0;
#X connect 13 0 0 0;
#X connect 14 0 15 0;
#X connect 15 0 10 0;
#X connect 16 0 3 0;
#X connect 16 0 3 1;
#X connect 17 0 2 0;
#X connect 18 0 9 0;
#X connect 19 0 18 0;
#X connect 20 0 21 0;
#X connect 20 0 30 0;
#X connect 21 0 29 0;
#X connect 22 0 26 0;
#X connect 23 0 24 0;
#X connect 24 0 22 1;
#X connect 25 0 27 0;
#X connect 26 0 16 0;
#X connect 27 0 28 0;
#X connect 28 0 22 0;
#X connect 29 0 9 0;
#X connect 30 0 21 1;
#X connect 31 0 32 0;
#X connect 32 0 17 0;
#X connect 33 0 9 0;
