#N canvas 603 252 450 300 12;
#X obj 90 124 osc~;
#X obj 23 148 s~ osc;
#X obj 175 40 r~ osc;
#X obj 90 58 +~;
#X obj 96 247 outrec~;
#X obj 175 64 *~;
#X obj 90 12 msphsl 0 2000;
#X obj 240 22 msphsl 0 2000;
#X obj 186 148 pingpong~ 250 0.8;
#X obj 186 172 *~;
#X obj 284 172 *~;
#X obj 209 96 msphsl 0 1 0;
#X obj 209 119 ramp~;
#X obj 186 196 *~ 0.8;
#X obj 238 196 *~ 0.2;
#X obj 346 198 *~ 0.8;
#X obj 293 198 *~ 0.2;
#X obj 90 34 ramp~;
#X obj 240 44 ramp~;
#X connect 0 0 1 0;
#X connect 0 0 4 0;
#X connect 0 0 4 1;
#X connect 0 0 8 0;
#X connect 2 0 5 0;
#X connect 3 0 0 0;
#X connect 5 0 3 1;
#X connect 6 0 17 0;
#X connect 7 0 18 0;
#X connect 8 0 9 0;
#X connect 8 1 10 1;
#X connect 9 0 13 0;
#X connect 9 0 14 0;
#X connect 10 0 15 0;
#X connect 10 0 16 0;
#X connect 11 0 12 0;
#X connect 12 0 9 1;
#X connect 12 0 10 0;
#X connect 13 0 4 0;
#X connect 14 0 4 1;
#X connect 15 0 4 1;
#X connect 16 0 4 0;
#X connect 17 0 3 0;
#X connect 18 0 5 1;
