#N canvas 509 252 533 669 12;
#X obj 90 124 osc~;
#X obj 6 180 s~ osc;
#X obj 175 40 r~ osc;
#X obj 90 58 +~;
#X obj 89 585 outrec~;
#X obj 175 64 *~;
#X obj 90 12 msphsl 0 2000;
#X obj 90 34 ramp~;
#X obj 240 44 ramp~;
#X obj 241 15 msphsl 0 20000;
#X obj 2 149 vibrato~ 1 1;
#X obj 235 134 msphsl 0 1;
#X obj 309 78 noise~;
#X obj 309 102 level~;
#X obj 42 89 msphsl 0 100;
#X obj 90 148 vcf~;
#X obj 214 200 msphsl 1 50;
#X obj 218 241 msphsl 0 10000;
#X obj 218 265 ramp~;
#X obj 186 312 reverb~;
#X connect 0 0 10 0;
#X connect 0 0 15 0;
#X connect 2 0 5 0;
#X connect 3 0 0 0;
#X connect 5 0 3 1;
#X connect 6 0 7 0;
#X connect 7 0 3 0;
#X connect 8 0 5 1;
#X connect 9 0 8 0;
#X connect 10 0 1 0;
#X connect 11 0 10 2;
#X connect 12 0 13 0;
#X connect 13 0 10 0;
#X connect 14 0 10 1;
#X connect 15 0 19 0;
#X connect 15 1 4 0;
#X connect 15 1 4 1;
#X connect 16 0 15 2;
#X connect 17 0 18 0;
#X connect 18 0 15 1;
#X connect 19 0 4 0;
#X connect 19 0 4 1;
