#N canvas 2 38 1512 884 12;
#X obj 141 33 msphid;
#X msg 141 10 16;
#X floatatom 141 81 5 0 0 0 - - - 0;
#X floatatom 185 83 5 0 0 0 - - - 0;
#X floatatom 231 81 5 0 0 0 - - - 0;
#X floatatom 275 83 5 0 0 0 - - - 0;
#X floatatom 321 81 5 0 0 0 - - - 0;
#X floatatom 365 83 5 0 0 0 - - - 0;
#X obj 31 92 tgl 15 0 empty empty empty 17 7 0 10 #fcfcfc #000000 #000000
0 1;
#X obj 648 84 tgl 15 0 empty empty empty 17 7 0 10 #fcfcfc #000000
#000000 0 1;
#X obj 31 538 scaled 0 1 40 77;
#X obj 31 562 quantizedmode aeolian 60;
#X obj 31 116 metro 40;
#X obj 88 188 sequ.params;
#N canvas 0 38 1512 884 editFilter 0;
#X obj 37 37 inlet;
#X obj 37 185 outlet;
#X obj 37 62 route generate length offset save recall density clockdivision
, f 129;
#X obj 37 126 spigot;
#X msg 37 150 generate \$1;
#X obj 48 83 r generate;
#X obj 48 107 tgl 15 0 empty empty empty 17 7 0 10 #fcfcfc #000000
#000000 0 1;
#X obj 166 126 spigot;
#X obj 177 107 tgl 15 0 empty empty empty 17 7 0 10 #fcfcfc #000000
#000000 0 1;
#X obj 297 126 spigot;
#X obj 308 107 tgl 15 0 empty empty empty 17 7 0 10 #fcfcfc #000000
#000000 0 1;
#X obj 686 126 spigot;
#X obj 697 107 tgl 15 0 empty empty empty 17 7 0 10 #fcfcfc #000000
#000000 0 1;
#X obj 177 83 r length;
#X obj 308 83 r offset;
#X obj 697 83 r density;
#X msg 166 150 length \$1;
#X msg 297 150 offset \$1;
#X msg 686 150 density \$1;
#X connect 0 0 2 0;
#X connect 2 0 3 0;
#X connect 2 1 7 0;
#X connect 2 2 9 0;
#X connect 2 5 11 0;
#X connect 3 0 4 0;
#X connect 4 0 1 0;
#X connect 5 0 6 0;
#X connect 6 0 3 1;
#X connect 7 0 16 0;
#X connect 8 0 7 1;
#X connect 9 0 17 0;
#X connect 10 0 9 1;
#X connect 11 0 18 0;
#X connect 12 0 11 1;
#X connect 13 0 8 0;
#X connect 14 0 10 0;
#X connect 15 0 12 0;
#X connect 16 0 1 0;
#X connect 17 0 1 0;
#X connect 18 0 1 0;
#X restore 88 350 pd editFilter;
#X obj 31 374 sequ;
#X obj 31 610 t b f;
#X obj 31 658 *~;
#X obj 31 752 *~;
#X obj 1343 776 catch~ out;
#X obj 1343 800 outrec~;
#X obj 30 847 throw~ out;
#X obj 31 634 ahdsr~ 5 0 200 0.4 200;
#X obj 31 586 mtof;
#X obj 729 83 tgl 15 0 empty empty empty 17 7 0 10 #fcfcfc #000000
#000000 0 1;
#X obj 819 82 tgl 15 0 empty empty empty 17 7 0 10 #fcfcfc #000000
#000000 0 1;
#X obj 898 84 tgl 15 0 empty empty empty 17 7 0 10 #fcfcfc #000000
#000000 0 1;
#X obj 819 102 s generate;
#X obj 648 104 s density;
#X obj 729 103 s length;
#X obj 898 104 s offset;
#X obj 204 179 spigot;
#X obj 254 180 spigot;
#X obj 310 180 spigot;
#X obj 360 181 spigot;
#X msg 204 203 density \$1;
#X msg 252 280 length \$1;
#X msg 301 203 generate \$1;
#X msg 382 280 offset \$1;
#X obj 253 153 r density;
#X obj 335 152 r length;
#X obj 414 149 r generate;
#X obj 492 147 r offset;
#X obj 252 252 i;
#X obj 382 252 i;
#X obj 185 106 scaled -1 1 0 1;
#X obj 252 228 scaled 0 1 1 17;
#X obj 382 228 scaled 0 1 0 16;
#X obj 185 128 easeinsine;
#X obj 141 57 route axis1 axis2 axis3 axis4 axis5 axis6 button1 button2
button3 button4 button5 button6, f 145;
#X obj 982 86 tgl 15 0 empty empty empty 17 7 0 10 #fcfcfc #000000
#000000 0 1;
#X obj 1061 90 tgl 15 0 empty empty empty 17 7 0 10 #fcfcfc #000000
#000000 0 1;
#X obj 1061 110 sel 1;
#X obj 958 145 randrange 0 1000;
#X msg 958 247 density \$1;
#X obj 1104 145 randrange 0 1000;
#X obj 1104 169 scaled 0 1000 1 17;
#X msg 1104 223 length \$1;
#X obj 1104 193 i;
#X text 670 323 things to try: make l1 and r1 scroll through 8 or 16
combos of (input randomness) randomly selected density and length \,
that you can audition by paging forward and backward.;
#X obj 958 169 scaled 0 1000 0 1;
#X obj 958 193 easeoutsine;
#X obj 958 217 scaled 0 1 0.3 1;
#X obj 201 821 scaled~ 0 1 0 4000;
#X obj 187 844 vcf~ 2;
#X obj 300 655 randwalk 200 2000;
#X obj 436 703 bng 15 250 50 0 empty empty empty 17 7 0 10 #fcfcfc
#000000 #000000;
#X obj 300 743 scaled 0 1 1 6;
#X obj 300 696 easeincubic;
#X obj 300 720 msphsl 0 1;
#X text 690 434 things i've learned:;
#X obj 31 776 softclip~;
#X obj 63 658 osc~;
#X obj 335 370 counter 16;
#X obj 335 394 sel 0;
#X msg 335 418 velocity 1;
#X obj 479 385 kick~;
#X obj 479 584 throw~ out;
#X connect 0 0 49 0;
#X connect 1 0 0 0;
#X connect 3 0 45 0;
#X connect 8 0 12 0;
#X connect 9 0 28 0;
#X connect 10 0 11 0;
#X connect 11 0 23 0;
#X connect 12 0 13 0;
#X connect 12 0 15 0;
#X connect 12 0 73 0;
#X connect 13 0 14 0;
#X connect 14 0 15 1;
#X connect 15 0 10 0;
#X connect 16 0 22 0;
#X connect 16 1 72 0;
#X connect 17 0 18 0;
#X connect 17 0 63 0;
#X connect 18 0 71 0;
#X connect 19 0 20 0;
#X connect 19 0 20 1;
#X connect 22 0 17 0;
#X connect 22 0 17 1;
#X connect 23 0 16 0;
#X connect 24 0 29 0;
#X connect 25 0 27 0;
#X connect 26 0 30 0;
#X connect 31 0 35 0;
#X connect 32 0 46 0;
#X connect 33 0 37 0;
#X connect 34 0 47 0;
#X connect 35 0 13 0;
#X connect 36 0 13 0;
#X connect 37 0 13 0;
#X connect 38 0 13 0;
#X connect 39 0 31 1;
#X connect 40 0 32 1;
#X connect 41 0 33 1;
#X connect 42 0 34 1;
#X connect 43 0 36 0;
#X connect 44 0 38 0;
#X connect 45 0 48 0;
#X connect 46 0 43 0;
#X connect 47 0 44 0;
#X connect 48 0 31 0;
#X connect 48 0 34 0;
#X connect 48 0 33 0;
#X connect 48 0 32 0;
#X connect 49 0 2 0;
#X connect 49 1 3 0;
#X connect 49 2 4 0;
#X connect 49 3 5 0;
#X connect 49 4 6 0;
#X connect 49 5 7 0;
#X connect 49 6 9 0;
#X connect 49 7 24 0;
#X connect 49 8 25 0;
#X connect 49 9 26 0;
#X connect 49 10 50 0;
#X connect 49 11 51 0;
#X connect 51 0 52 0;
#X connect 52 0 53 0;
#X connect 52 0 55 0;
#X connect 53 0 60 0;
#X connect 54 0 15 1;
#X connect 55 0 56 0;
#X connect 56 0 58 0;
#X connect 57 0 15 1;
#X connect 58 0 57 0;
#X connect 60 0 61 0;
#X connect 61 0 62 0;
#X connect 62 0 54 0;
#X connect 63 0 64 1;
#X connect 64 1 21 0;
#X connect 65 0 68 0;
#X connect 65 1 66 0;
#X connect 66 0 65 0;
#X connect 67 0 64 2;
#X connect 68 0 69 0;
#X connect 69 0 67 0;
#X connect 71 0 64 0;
#X connect 72 0 18 1;
#X connect 73 0 74 0;
#X connect 74 0 75 0;
#X connect 75 0 76 0;
#X connect 76 0 77 0;
