#N canvas 1 25 1920 995 12;
#X obj 641 97 tgl 19 0 empty empty empty 0 -10 0 12 #fcfcfc #000000 #000000 0 1;
#X obj 641 121 metronome 40 16;
#X obj 641 145 sequ;
#X obj 825 828 outrec~;
#X obj 460 581 osc~;
#X obj 461 459 t f b;
#X obj 460 605 *~;
#X obj 467 432 mtof;
#X obj 474 365 scaled 0 1 40 73;
#X obj 508 582 ahdsr~ 5 0 50 0.3 5;
#X obj 692 579 osc~;
#X obj 693 457 t f b;
#X obj 692 603 *~;
#X obj 699 430 mtof;
#X obj 706 363 scaled 0 1 30 73;
#X obj 675 724 pan~ 0.5;
#X obj 740 580 ahdsr~ 50 0 500 0.3 5;
#X obj 958 586 osc~;
#X obj 959 464 t f b;
#X obj 958 610 *~;
#X obj 965 437 mtof;
#X obj 1006 587 ahdsr~ 5 0 50 0.3 5;
#X obj 1190 584 osc~;
#X obj 1191 462 t f b;
#X obj 1190 608 *~;
#X obj 1197 435 mtof;
#X obj 972 370 scaled 0 1 20 63;
#X obj 1204 368 scaled 0 1 35 85;
#X obj 1238 585 ahdsr~ 100 0 250 0.3 500;
#X obj 986 725 pan~ 0.5;
#X obj 461 483 ramp~;
#X obj 461 507 +~;
#X obj 692 482 ramp~;
#X obj 692 506 +~;
#X obj 957 491 ramp~;
#X obj 957 515 +~;
#X obj 1190 487 ramp~;
#X obj 1190 511 +~;
#X obj 1549 433 osc~;
#X obj 1534 312 scaled 0 1 35 85;
#X obj 1534 360 mtof;
#X obj 1552 495 *~;
#X obj 675 700 vcf~ 2;
#X obj 986 701 vcf~ 2;
#X obj 999 661 ramp~;
#X floatatom 999 639 5 0 0 0 - - - 0;
#X obj 699 672 ramp~;
#X floatatom 699 650 5 0 0 0 - - - 0;
#X floatatom 815 633 5 0 0 0 - - - 0;
#X obj 1534 384 sig~;
#X obj 1757 292 sig~;
#X obj 1731 245 scaled 0 1 0 100;
#X obj 814 608 * 10000;
#X obj 600 725 throw~ bp;
#X obj 905 725 throw~ bp;
#X obj 46 403 reverb~;
#X obj 46 580 pan~;
#X obj 182 580 randwalk 2000 20000;
#X obj 321 597 bng 19 250 50 0 empty empty empty 0 -10 0 12 #fcfcfc #000000 #000000;
#X obj 182 621 scaled 0 1 0.25 0.75;
#X obj 46 379 catch~ bp;
#X obj 458 636 throw~ raw;
#X obj 216 318 catch~ raw;
#X obj 861 666 throw~ raw;
#X obj 216 342 hip~ 3000;
#X obj 1254 740 msphsl 0 1;
#X obj 1254 763 t f f;
#X obj 1281 791 oneminus;
#X obj 1254 663 randwalk 2000 20000;
#X obj 1393 680 bng 19 250 50 0 empty empty empty 0 -10 0 12 #fcfcfc #000000 #000000;
#X obj 1254 704 scaled 0 1 0.05 0.2;
#X floatatom 340 303 5 0 0 0 - - - 0;
#X obj 471 664 echo~ 100 0.8;
#X obj 471 688 level~;
#X obj 555 614 msphsl 0 1;
#X msg 1770 214 to-high \$1;
#X obj 1688 138 randwalk 2000 20000;
#X obj 1827 155 bng 19 250 50 0 empty empty empty 0 -10 0 12 #fcfcfc #000000 #000000;
#X obj 1688 179 scaled 0 1 100 500;
#X msg 1584 236 to-high \$1;
#X obj 1502 160 randwalk 2000 20000;
#X obj 1641 177 bng 19 250 50 0 empty empty empty 0 -10 0 12 #fcfcfc #000000 #000000;
#X obj 1502 201 scaled 0 1 83 87;
#X obj 474 389 quantizedmode mixolydian 60;
#X obj 706 387 quantizedmode mixolydian 60;
#X obj 972 394 quantizedmode mixolydian 60;
#X obj 1204 392 quantizedmode mixolydian 60;
#X obj 1534 336 quantizedmode mixolydian 60;
#X connect 0 0 1 0;
#X connect 1 0 2 0;
#X connect 2 0 8 0;
#X connect 2 0 27 0;
#X connect 2 0 39 0;
#X connect 2 0 52 0;
#X connect 2 0 14 0;
#X connect 2 0 26 0;
#X connect 2 0 51 0;
#X connect 4 0 6 0;
#X connect 5 0 30 0;
#X connect 5 1 9 0;
#X connect 6 0 42 0;
#X connect 6 0 61 0;
#X connect 7 0 5 0;
#X connect 8 0 83 0;
#X connect 9 0 6 1;
#X connect 10 0 12 0;
#X connect 11 0 32 0;
#X connect 11 1 16 0;
#X connect 12 0 42 0;
#X connect 13 0 11 0;
#X connect 14 0 84 0;
#X connect 15 0 3 0;
#X connect 15 1 3 1;
#X connect 16 0 12 1;
#X connect 17 0 19 0;
#X connect 18 0 34 0;
#X connect 18 1 21 0;
#X connect 19 0 43 0;
#X connect 19 0 63 0;
#X connect 20 0 18 0;
#X connect 21 0 19 1;
#X connect 22 0 24 0;
#X connect 23 0 36 0;
#X connect 23 1 28 0;
#X connect 24 0 43 0;
#X connect 25 0 23 0;
#X connect 26 0 85 0;
#X connect 27 0 86 0;
#X connect 28 0 24 1;
#X connect 29 0 3 0;
#X connect 29 1 3 1;
#X connect 30 0 31 0;
#X connect 31 0 4 0;
#X connect 32 0 33 0;
#X connect 33 0 10 0;
#X connect 34 0 35 0;
#X connect 35 0 17 0;
#X connect 36 0 37 0;
#X connect 37 0 22 0;
#X connect 38 0 41 0;
#X connect 39 0 87 0;
#X connect 40 0 49 0;
#X connect 41 0 37 1;
#X connect 41 0 35 1;
#X connect 41 0 33 1;
#X connect 41 0 31 1;
#X connect 42 0 53 0;
#X connect 42 1 15 0;
#X connect 43 0 54 0;
#X connect 43 1 29 0;
#X connect 44 0 43 1;
#X connect 45 0 44 0;
#X connect 46 0 42 1;
#X connect 47 0 46 0;
#X connect 48 0 47 0;
#X connect 48 0 45 0;
#X connect 49 0 38 0;
#X connect 50 0 41 1;
#X connect 51 0 50 0;
#X connect 52 0 48 0;
#X connect 55 0 56 0;
#X connect 56 0 3 0;
#X connect 56 1 3 1;
#X connect 57 0 59 0;
#X connect 57 1 58 0;
#X connect 58 0 57 0;
#X connect 59 0 56 1;
#X connect 60 0 55 0;
#X connect 62 0 64 0;
#X connect 64 0 55 0;
#X connect 64 0 72 0;
#X connect 65 0 66 0;
#X connect 66 0 15 1;
#X connect 66 1 67 0;
#X connect 67 0 29 1;
#X connect 68 0 70 0;
#X connect 68 1 69 0;
#X connect 69 0 68 0;
#X connect 70 0 65 0;
#X connect 71 0 64 1;
#X connect 72 0 73 0;
#X connect 73 0 15 0;
#X connect 73 0 29 0;
#X connect 74 0 72 2;
#X connect 75 0 51 1;
#X connect 76 0 78 0;
#X connect 76 1 77 0;
#X connect 77 0 76 0;
#X connect 78 0 75 0;
#X connect 79 0 39 1;
#X connect 80 0 82 0;
#X connect 80 1 81 0;
#X connect 81 0 80 0;
#X connect 82 0 79 0;
#X connect 83 0 7 0;
#X connect 84 0 13 0;
#X connect 85 0 20 0;
#X connect 86 0 25 0;
#X connect 87 0 40 0;
