#N canvas 0 38 1512 884 12;
#X obj 67 20 tgl 19 0 empty empty empty 0 -10 0 12 #fcfcfc #000000 #000000 0 1;
#X obj 67 68 sequ;
#X obj 67 230 s pitch;
#X obj 411 45 r pitch;
#X obj 411 160 mtof;
#X obj 411 136 quantizedmode mixolydian 60;
#X obj 411 69 maybe 1;
#X obj 411 184 t f b, f 6;
#X obj 411 256 osc~;
#X obj 411 280 *~, f 6;
#X obj 411 208 sig~;
#X obj 411 232 +~;
#X obj 514 167 randwalk 200 10000;
#X obj 514 232 ramp~;
#X obj 514 208 scaled 0 1 4000 12000;
#X obj 643 167 bng 19 250 50 0 empty empty empty 0 -10 0 12 #fcfcfc #000000 #000000;
#X obj 181 44 r pitch;
#X obj 181 116 mtof;
#X obj 181 92 quantizedmode mixolydian 60;
#X obj 181 68 scaled 0 1 30 80;
#X obj 181 140 osc~;
#X obj 181 164 *~;
#X floatatom 302 45 5 0 500 0 - - - 0;
#X msg 302 68 to-high \$1;
#X obj 1308 99 ramp~;
#X obj 1308 76 msphsl 0 4;
#X obj 218 116 r pitch;
#X obj 218 164 sig~;
#X obj 218 140 scaled 0 1 0 200;
#X obj 411 397 throw~ outL;
#X obj 1081 624 catch~ outL;
#X obj 734 167 randwalk 200 10000;
#X obj 734 232 ramp~;
#X obj 734 208 scaled 0 1 4000 12000;
#X obj 864 167 bng 19 250 50 0 empty empty empty 0 -10 0 12 #fcfcfc #000000 #000000;
#X obj 631 397 throw~ outR;
#X obj 1128 605 catch~ outR;
#X obj 81 435 r pitch;
#X obj 81 550 mtof;
#X obj 81 526 quantizedmode mixolydian 60;
#X obj 81 459 maybe 1;
#X obj 81 574 t f b, f 6;
#X obj 81 646 osc~;
#X obj 81 670 *~, f 6;
#X obj 81 598 sig~;
#X obj 81 622 +~;
#X obj 184 557 randwalk 200 10000;
#X obj 184 622 ramp~;
#X obj 184 598 scaled 0 1 4000 12000;
#X obj 314 557 bng 19 250 50 0 empty empty empty 0 -10 0 12 #fcfcfc #000000 #000000;
#X obj 81 787 throw~ outL;
#X obj 404 557 randwalk 200 10000;
#X obj 404 622 ramp~;
#X obj 404 598 scaled 0 1 4000 12000;
#X obj 534 557 bng 19 250 50 0 empty empty empty 0 -10 0 12 #fcfcfc #000000 #000000;
#X obj 301 787 throw~ outR;
#X obj 81 502 scaled 0 1 25 60;
#X obj 120 646 ahdsr~ 15 0 80 0.6 50;
#X obj 943 229 r pitch;
#X obj 943 344 mtof;
#X obj 943 320 quantizedmode mixolydian 60;
#X obj 943 253 maybe 1;
#X obj 943 368 t f b, f 6;
#X obj 943 440 osc~;
#X obj 943 464 *~, f 6;
#X obj 943 392 sig~;
#X obj 943 416 +~;
#X obj 1046 351 randwalk 200 10000;
#X obj 1046 416 ramp~;
#X obj 1046 392 scaled 0 1 4000 12000;
#X obj 1175 351 bng 19 250 50 0 empty empty empty 0 -10 0 12 #fcfcfc #000000 #000000;
#X obj 943 581 throw~ outL;
#X obj 1266 351 randwalk 200 10000;
#X obj 1266 416 ramp~;
#X obj 1266 392 scaled 0 1 4000 12000;
#X obj 1396 351 bng 19 250 50 0 empty empty empty 0 -10 0 12 #fcfcfc #000000 #000000;
#X obj 1163 581 throw~ outR;
#X obj 943 296 scaled 0 1 35 90;
#X obj 181 188 s~ fm;
#X obj 441 232 r~ fm;
#X obj 111 622 r~ fm;
#X obj 973 416 r~ fm;
#X obj 1308 123 s~ res;
#X obj 799 354 r~ res;
#X obj 579 354 r~ res;
#X obj 249 744 r~ res;
#X obj 469 744 r~ res;
#X obj 1111 538 r~ res;
#X obj 1331 538 r~ res;
#X obj 411 373 bob~, f 30;
#X obj 631 373 bob~, f 30;
#X obj 81 763 bob~, f 30;
#X obj 301 763 bob~, f 30;
#X obj 943 557 bob~, f 30;
#X obj 1163 557 bob~, f 30;
#X obj 1081 791 outrec~;
#X obj 954 629 r~ res;
#X obj 1081 672 *~;
#X obj 1128 673 *~;
#X obj 954 653 scaled~ 0 4 1 4;
#X obj 1240 680 hip~ 5000;
#X obj 411 328 pan~ 0.5;
#X obj 943 512 pan~ 0.7;
#X obj 81 718 pan~ 0.3;
#X obj 1081 648 /~ 2;
#X obj 1128 649 /~ 2;
#X obj 1240 704 tapeecho~ 250 0.7;
#X obj 1240 775 pan~;
#X obj 1473 663 bng 19 250 50 0 empty empty empty 0 -10 0 12 #fcfcfc #000000 #000000;
#X obj 1350 663 randwalk 200 4000;
#X obj 1240 728 phaser~;
#X obj 1240 752 level~;
#X obj 903 38 wavefolder~.params;
#X obj 903 119 s wavefolder;
#X obj 411 304 wavefolder~.impl;
#X obj 461 280 r wavefolder;
#X obj 81 694 wavefolder~.impl;
#X obj 131 670 r wavefolder;
#X obj 943 488 wavefolder~.impl;
#X obj 993 464 r wavefolder;
#X obj 1081 696 hv.compressor2;
#X floatatom 1176 631 5 0 1 0 - - - 0;
#X msg 1176 654 ratio \$1;
#X floatatom 1242 631 5 0 100 0 - - - 0;
#X msg 1242 654 threshold \$1;
#X obj 67 44 metro 50;
#X obj 982 440 ahdsr~ 500 0 80 0.1 2000;
#X obj 411 112 scaled 0 1 40 75;
#X obj 450 256 ahdsr~ 200 0 20 0.25 2000;
#X connect 0 0 125 0;
#X connect 1 0 2 0;
#X connect 3 0 6 0;
#X connect 4 0 7 0;
#X connect 5 0 4 0;
#X connect 6 0 127 0;
#X connect 7 0 10 0;
#X connect 7 1 128 0;
#X connect 8 0 9 0;
#X connect 9 0 114 0;
#X connect 10 0 11 0;
#X connect 11 0 8 0;
#X connect 12 0 14 0;
#X connect 12 1 15 0;
#X connect 13 0 89 1;
#X connect 14 0 13 0;
#X connect 15 0 12 0;
#X connect 16 0 19 0;
#X connect 17 0 20 0;
#X connect 18 0 17 0;
#X connect 19 0 18 0;
#X connect 20 0 21 0;
#X connect 21 0 78 0;
#X connect 22 0 23 0;
#X connect 23 0 19 1;
#X connect 24 0 82 0;
#X connect 25 0 24 0;
#X connect 26 0 28 0;
#X connect 27 0 21 1;
#X connect 28 0 27 0;
#X connect 30 0 104 0;
#X connect 31 0 33 0;
#X connect 31 1 34 0;
#X connect 32 0 90 1;
#X connect 33 0 32 0;
#X connect 34 0 31 0;
#X connect 36 0 105 0;
#X connect 37 0 40 0;
#X connect 38 0 41 0;
#X connect 39 0 38 0;
#X connect 40 0 56 0;
#X connect 41 0 44 0;
#X connect 41 1 57 0;
#X connect 42 0 43 0;
#X connect 43 0 116 0;
#X connect 44 0 45 0;
#X connect 45 0 42 0;
#X connect 46 0 48 0;
#X connect 46 1 49 0;
#X connect 47 0 91 1;
#X connect 48 0 47 0;
#X connect 49 0 46 0;
#X connect 51 0 53 0;
#X connect 51 1 54 0;
#X connect 52 0 92 1;
#X connect 53 0 52 0;
#X connect 54 0 51 0;
#X connect 56 0 39 0;
#X connect 57 0 43 1;
#X connect 58 0 61 0;
#X connect 59 0 62 0;
#X connect 60 0 59 0;
#X connect 61 0 77 0;
#X connect 62 0 65 0;
#X connect 62 1 126 0;
#X connect 63 0 64 0;
#X connect 64 0 118 0;
#X connect 65 0 66 0;
#X connect 66 0 63 0;
#X connect 67 0 69 0;
#X connect 67 1 70 0;
#X connect 68 0 93 1;
#X connect 69 0 68 0;
#X connect 70 0 67 0;
#X connect 72 0 74 0;
#X connect 72 1 75 0;
#X connect 73 0 94 1;
#X connect 74 0 73 0;
#X connect 75 0 72 0;
#X connect 77 0 60 0;
#X connect 79 0 11 1;
#X connect 80 0 45 1;
#X connect 81 0 66 1;
#X connect 83 0 90 2;
#X connect 84 0 89 2;
#X connect 85 0 91 2;
#X connect 86 0 92 2;
#X connect 87 0 93 2;
#X connect 88 0 94 2;
#X connect 89 0 29 0;
#X connect 90 0 35 0;
#X connect 91 0 50 0;
#X connect 92 0 55 0;
#X connect 93 0 71 0;
#X connect 94 0 76 0;
#X connect 96 0 99 0;
#X connect 97 0 120 0;
#X connect 97 0 100 0;
#X connect 98 0 100 0;
#X connect 98 0 120 1;
#X connect 99 0 97 1;
#X connect 99 0 98 1;
#X connect 100 0 106 0;
#X connect 101 0 89 0;
#X connect 101 1 90 0;
#X connect 102 0 93 0;
#X connect 102 1 94 0;
#X connect 103 0 91 0;
#X connect 103 1 92 0;
#X connect 104 0 97 0;
#X connect 105 0 98 0;
#X connect 106 0 110 0;
#X connect 107 0 95 0;
#X connect 107 1 95 1;
#X connect 108 0 109 0;
#X connect 109 0 107 1;
#X connect 109 1 108 0;
#X connect 110 0 111 0;
#X connect 111 0 107 0;
#X connect 112 0 113 0;
#X connect 114 0 101 0;
#X connect 115 0 114 1;
#X connect 116 0 103 0;
#X connect 117 0 116 1;
#X connect 118 0 102 0;
#X connect 119 0 118 1;
#X connect 120 0 95 0;
#X connect 120 1 95 1;
#X connect 121 0 122 0;
#X connect 122 0 120 2;
#X connect 123 0 124 0;
#X connect 124 0 120 2;
#X connect 125 0 1 0;
#X connect 126 0 64 1;
#X connect 127 0 5 0;
#X connect 128 0 9 1;
