#N canvas 46 38 1488 884 12;
#X obj 13 14 tgl 19 0 empty empty empty 0 -10 0 12 #fcfcfc #000000 #000000 0 1;
#X obj 13 86 sequ;
#X obj 13 248 s pitch;
#X obj 88 86 sequ;
#X obj 88 248 s pitch2;
#X obj 234 14 r pitch;
#X obj 301 14 r pitch2;
#X obj 13 62 t f f f, f 22;
#X obj 164 86 sequ;
#X obj 164 248 s pitch3;
#X obj 375 14 r pitch3;
#X obj 234 276 s cpitch;
#X obj 234 300 r cpitch;
#X obj 234 396 t f b, f 9;
#X obj 1229 561 catch~ out;
#X obj 234 348 quantizedmode mixolydian 60;
#X obj 234 372 mtof;
#X obj 1306 751 loadbang;
#X msg 1306 775 threshold 85;
#X msg 1398 775 ratio 0;
#X obj 1229 823 outrec~;
#X obj 234 420 square~;
#X obj 1048 135 r tick;
#X obj 127 38 s tick;
#X obj 1048 159 counter 16;
#X msg 1048 207 velocity 1;
#X obj 1048 231 kick~;
#X obj 1229 585 /~ 3;
#X obj 1229 609 midsideencoder~;
#X obj 1331 657 phaser~;
#X obj 1338 705 level~;
#X obj 1338 681 tapeecho~ 300 0.8;
#X obj 874 454 swarm~;
#X obj 1048 183 sel 0 8;
#X obj 874 747 wavefolder~;
#X obj 427 380 bng 19 250 50 0 empty empty empty 0 -10 0 12 #fcfcfc #000000 #000000;
#X obj 304 380 randwalk 500 5000;
#X obj 13 272 sequ.params;
#X obj 13 434 s seq;
#X obj 173 62 r seq;
#X obj 1048 430 throw~ out;
#X obj 234 522 throw~ out;
#X obj 1228 729 midsidedecoder~;
#X obj 1229 799 hv.compressor2;
#X obj 1229 633 lop~ 500;
#X obj 13 38 metronome 40 16;
#X obj 234 62 maybe 0.75;
#X obj 301 105 maybe 0.75;
#X obj 375 155 maybe 0.75;
#X obj 234 249 accumulator;
#X obj 234 38 t b f;
#X obj 874 828 throw~ out;
#X msg 874 430 frequency 5000;
#X obj 1131 160 counter 32;
#X obj 1108 131 bng 19 250 50 0 empty empty empty 0 -10 0 12 #fcfcfc #000000 #000000;
#X msg 691 229 velocity 1;
#X obj 691 253 snare~;
#X obj 691 440 throw~ out;
#X obj 1131 184 sel 0;
#X obj 691 417 level~;
#X obj 234 498 vibrato~;
#X obj 234 324 scaled 0 3 25 59;
#X floatatom 64 14 5 0 0 0 - - - 0;
#X obj 1331 633 hip~ 1000;
#X floatatom 1368 594 5 0 0 0 - - - 0;
#X obj 234 468 bob~, f 17;
#X obj 361 468 sig~;
#X obj 234 444 *~ 1, f 6;
#X obj 294 420 ahdsr~ 5 0 80 0.4 500;
#X obj 294 444 *~ 8000;
#X msg 361 444 3;
#X obj 791 176 sel 0;
#X obj 791 152 % 4;
#X obj 1317 513 randwalk 500 5000;
#X obj 1454 526 bng 19 250 50 0 empty empty empty 0 -10 0 12 #fcfcfc #000000 #000000;
#X obj 1317 554 scaled 0 1 80 200;
#X connect 0 0 45 0;
#X connect 1 0 2 0;
#X connect 3 0 4 0;
#X connect 5 0 50 0;
#X connect 6 0 47 0;
#X connect 7 0 1 0;
#X connect 7 1 3 0;
#X connect 7 2 8 0;
#X connect 8 0 9 0;
#X connect 10 0 48 0;
#X connect 12 0 61 0;
#X connect 13 0 21 0;
#X connect 13 1 68 0;
#X connect 14 0 27 0;
#X connect 15 0 16 0;
#X connect 16 0 13 0;
#X connect 17 0 18 0;
#X connect 17 0 19 0;
#X connect 18 0 43 2;
#X connect 19 0 43 2;
#X connect 21 0 67 0;
#X connect 22 0 24 0;
#X connect 22 0 53 0;
#X connect 24 0 33 0;
#X connect 24 0 72 0;
#X connect 25 0 26 0;
#X connect 26 0 40 0;
#X connect 27 0 28 0;
#X connect 28 0 44 0;
#X connect 28 1 63 0;
#X connect 29 0 31 0;
#X connect 29 0 42 1;
#X connect 30 0 42 1;
#X connect 31 0 30 0;
#X connect 32 0 34 0;
#X connect 33 0 25 0;
#X connect 33 1 52 0;
#X connect 34 0 51 0;
#X connect 35 0 36 0;
#X connect 36 0 21 1;
#X connect 36 1 35 0;
#X connect 37 0 38 0;
#X connect 39 0 8 1;
#X connect 39 0 3 1;
#X connect 39 0 1 1;
#X connect 42 0 43 0;
#X connect 42 1 43 1;
#X connect 43 0 20 0;
#X connect 43 0 20 1;
#X connect 44 0 42 0;
#X connect 45 0 7 0;
#X connect 45 0 23 0;
#X connect 46 0 49 0;
#X connect 47 0 49 0;
#X connect 48 0 49 0;
#X connect 49 0 11 0;
#X connect 50 0 49 1;
#X connect 50 1 46 0;
#X connect 52 0 32 0;
#X connect 53 0 58 0;
#X connect 54 0 24 1;
#X connect 54 0 53 1;
#X connect 55 0 56 0;
#X connect 56 0 59 0;
#X connect 58 0 55 0;
#X connect 59 0 57 0;
#X connect 60 0 41 0;
#X connect 61 0 15 0;
#X connect 62 0 45 1;
#X connect 63 0 29 0;
#X connect 64 0 63 1;
#X connect 65 0 60 0;
#X connect 66 0 65 2;
#X connect 67 0 65 0;
#X connect 68 0 69 0;
#X connect 69 0 65 1;
#X connect 70 0 66 0;
#X connect 72 0 71 0;
#X connect 73 0 75 0;
#X connect 73 1 74 0;
#X connect 74 0 73 0;
#X connect 75 0 64 0;
