#N canvas 24 38 1488 884 12;
#X obj 13 14 tgl 19 0 empty empty empty 0 -10 0 12 #fcfcfc #000000 #000000 0 1;
#X obj 1229 561 catch~ out;
#X obj 1306 751 loadbang;
#X msg 1398 775 ratio 0;
#X obj 1229 823 outrec~;
#X obj 753 78 r tick;
#X obj 13 62 s tick;
#X obj 753 102 counter 16;
#X obj 753 174 kick~;
#X obj 1229 585 /~ 3;
#X obj 423 479 swarm~;
#X obj 753 126 sel 0 8;
#X obj 423 772 wavefolder~;
#X obj 1229 799 hv.compressor2;
#X obj 13 38 metronome 40 16;
#X obj 423 853 throw~ out;
#X obj 836 103 counter 32;
#X obj 813 74 bng 19 250 50 0 empty empty empty 0 -10 0 12 #fcfcfc #000000 #000000;
#X msg 396 172 velocity 1;
#X obj 396 196 snare~;
#X obj 396 383 throw~ out;
#X obj 836 127 sel 0;
#X obj 396 360 level~;
#X floatatom 64 14 5 0 0 0 - - - 0;
#X obj 496 119 sel 0;
#X obj 496 95 % 4;
#X obj 753 397 throw~ kick;
#X obj 1180 126 catch~ kick;
#X obj 1204 150 catch~ ducked;
#X obj 1293 174 catch~ boosted;
#X obj 91 359 throw~ ducked;
#X obj 1180 198 ducker~ 1 5;
#X obj 1266 198 booster~ 1 5;
#X obj 190 340 throw~ boosted;
#X obj 91 79 r tick;
#X obj 91 103 sequ;
#X obj 91 265 scaled 0 1 30 90;
#X obj 91 289 quantizedmode phrygian 50;
#X obj 91 313 mtof;
#X obj 91 335 osc~;
#X obj 191 9 r tick;
#X obj 191 33 sequ;
#X obj 191 195 scaled 0 1 30 90;
#X obj 191 219 quantizedmode phrygian 50;
#X obj 191 243 mtof;
#X obj 190 316 osc~;
#X obj 282 528 randwalk 500 5000;
#X msg 282 569 velocity \$1;
#X obj 398 569 bng 19 250 50 0 empty empty empty 0 -10 0 12 #fcfcfc #000000 #000000;
#X obj 282 595 randwalk 500 5000;
#X obj 398 636 bng 19 250 50 0 empty empty empty 0 -10 0 12 #fcfcfc #000000 #000000;
#X msg 282 636 resonance \$1;
#X obj 1194 337 throw~ outL;
#X obj 1284 337 throw~ outR;
#X obj 1053 729 catch~ outL;
#X obj 1140 729 catch~ outR;
#X obj 1139 241 pan~ 0.3;
#X obj 1261 241 pan~ 0.7;
#X obj 753 373 lop~;
#X floatatom 789 373 5 0 0 0 - - - 0;
#X obj 898 571 throw~ outL;
#X obj 988 571 throw~ outR;
#X obj 898 547 pingpong~ 40 0.9;
#X obj 898 503 level~;
#X obj 899 463 randwalk 500 5000;
#X obj 1022 479 bng 19 250 50 0 empty empty empty 0 -10 0 12 #fcfcfc #000000 #000000;
#X obj 898 526 level~;
#X msg 1306 775 threshold 82;
#X msg 423 455 frequency 12000;
#X obj 201 823 level~;
#X obj 201 846 throw~ ducked;
#X obj 34 775 noise~;
#X obj 34 823 level~;
#X obj 34 846 throw~ boosted;
#X obj 34 799 bob~, f 20;
#X floatatom 142 752 5 0 8 0 - - - 0;
#X floatatom 92 752 5 0 15000 0 - - - 0;
#X obj 142 775 ramp~;
#X obj 92 775 ramp~;
#X obj 201 775 noise~;
#X obj 201 799 bob~, f 20;
#X floatatom 309 752 5 0 8 0 - - - 0;
#X floatatom 259 752 5 0 15000 0 - - - 0;
#X obj 309 775 ramp~;
#X obj 259 775 ramp~;
#X obj 62 552 sequ.params;
#X obj 62 714 s seq;
#X obj 243 9 r seq;
#X obj 143 79 r seq;
#X obj 963 94 / 100;
#X floatatom 963 118 5 0 0 0 - - - 0;
#X msg 753 150 velocity \$1;
#X obj 1111 376 reverb~;
#X obj 1111 553 throw~ out;
#X obj 963 70 randrange 20 80;
#X obj 1111 352 hip~ 2000;
#X connect 0 0 14 0;
#X connect 1 0 9 0;
#X connect 2 0 3 0;
#X connect 2 0 67 0;
#X connect 3 0 13 2;
#X connect 5 0 7 0;
#X connect 5 0 16 0;
#X connect 7 0 11 0;
#X connect 7 0 25 0;
#X connect 8 0 58 0;
#X connect 9 0 13 0;
#X connect 9 0 13 1;
#X connect 10 0 12 0;
#X connect 11 0 94 0;
#X connect 11 1 68 0;
#X connect 12 0 15 0;
#X connect 12 0 63 0;
#X connect 13 0 4 0;
#X connect 13 1 4 1;
#X connect 14 0 6 0;
#X connect 16 0 21 0;
#X connect 17 0 7 1;
#X connect 17 0 16 1;
#X connect 18 0 19 0;
#X connect 19 0 22 0;
#X connect 21 0 18 0;
#X connect 22 0 20 0;
#X connect 23 0 14 1;
#X connect 25 0 24 0;
#X connect 27 0 31 0;
#X connect 27 0 32 0;
#X connect 28 0 31 1;
#X connect 29 0 32 1;
#X connect 31 0 52 0;
#X connect 31 0 53 0;
#X connect 31 1 56 0;
#X connect 32 1 57 0;
#X connect 34 0 35 0;
#X connect 35 0 36 0;
#X connect 36 0 37 0;
#X connect 37 0 38 0;
#X connect 38 0 39 0;
#X connect 39 0 30 0;
#X connect 40 0 41 0;
#X connect 41 0 42 0;
#X connect 42 0 43 0;
#X connect 43 0 44 0;
#X connect 44 0 45 0;
#X connect 45 0 33 0;
#X connect 46 0 47 0;
#X connect 46 1 48 0;
#X connect 47 0 10 0;
#X connect 48 0 46 0;
#X connect 49 0 51 0;
#X connect 49 1 50 0;
#X connect 50 0 49 0;
#X connect 51 0 10 0;
#X connect 54 0 13 0;
#X connect 55 0 13 1;
#X connect 56 0 52 0;
#X connect 56 1 53 0;
#X connect 56 1 95 0;
#X connect 57 0 52 0;
#X connect 57 1 53 0;
#X connect 57 1 95 0;
#X connect 58 0 26 0;
#X connect 59 0 58 1;
#X connect 62 0 60 0;
#X connect 62 0 95 0;
#X connect 62 1 61 0;
#X connect 62 1 95 0;
#X connect 63 0 66 0;
#X connect 64 0 63 1;
#X connect 64 1 65 0;
#X connect 65 0 64 0;
#X connect 66 0 62 0;
#X connect 67 0 13 2;
#X connect 68 0 10 0;
#X connect 69 0 70 0;
#X connect 71 0 74 0;
#X connect 72 0 73 0;
#X connect 74 0 72 0;
#X connect 75 0 77 0;
#X connect 76 0 78 0;
#X connect 77 0 74 2;
#X connect 78 0 74 1;
#X connect 79 0 80 0;
#X connect 80 0 69 0;
#X connect 81 0 83 0;
#X connect 82 0 84 0;
#X connect 83 0 80 2;
#X connect 84 0 80 1;
#X connect 85 0 86 0;
#X connect 87 0 41 1;
#X connect 88 0 35 1;
#X connect 89 0 90 0;
#X connect 90 0 91 0;
#X connect 91 0 8 0;
#X connect 92 0 93 0;
#X connect 94 0 89 0;
#X connect 95 0 92 0;
