#N canvas 1 38 1495 884 12;
#X obj 9 11 tgl 19 0 empty empty empty 0 -10 0 12 #fcfcfc #000000 #000000 0 1;
#X obj 9 59 s tick;
#X obj 10 87 r tick;
#X msg 10 183 velocity 1;
#X obj 10 207 kick~;
#X obj 11 613 throw~ kick;
#X obj 9 35 metronome 80 16;
#X obj 10 111 sel 1;
#X obj 1162 37 catch~ kick;
#X obj 1162 61 ducker~;
#X obj 1162 129 throw~ outL;
#X obj 1222 61 ducker~;
#X obj 1248 129 throw~ outR;
#X obj 1162 105 *~ 0.5;
#X obj 1288 771 catch~ outL;
#X obj 1377 771 catch~ outR;
#X obj 1288 795 compressor2~, f 26;
#X obj 1288 819 outrec~;
#X obj 10 406 wavefolder~;
#X obj 10 135 s trigger;
#X obj 10 159 r trigger;
#X obj 139 59 r trigger;
#X obj 139 83 t b b, f 7;
#X msg 185 107 0;
#X floatatom 139 12 5 0 0 0 - - - 0;
#X obj 139 35 s tickrate;
#X obj 60 11 r tickrate;
#X obj 203 131 r tickrate;
#X msg 139 107 1;
#X obj 139 131 pack f f;
#X obj 139 155 line;
#X obj 139 179 s melody;
#X obj 374 206 r melody;
#X obj 374 230 easeoutcubic;
#X obj 374 351 osc~;
#X obj 374 399 pan~ 0.3;
#X obj 374 444 throw~ duckedL;
#X obj 484 444 throw~ duckedR;
#X obj 1255 37 catch~ duckedL;
#X obj 1365 37 catch~ duckedR;
#X obj 374 278 quantizedmode phrygian 60;
#X obj 374 302 mtof;
#X floatatom 1199 15 5 0 1 0 - - - 0;
#X floatatom 1255 11 5 0 1000 0 - - - 0;
#X obj 203 155 * 16;
#X obj 374 254 scaled 0 1 20 60;
#X obj 633 206 r melody;
#X obj 633 351 osc~;
#X obj 633 399 pan~ 0.3;
#X obj 633 444 throw~ duckedL;
#X obj 743 444 throw~ duckedR;
#X obj 633 278 quantizedmode phrygian 60;
#X obj 633 302 mtof;
#X obj 633 230 easeinsine;
#X obj 633 254 scaled 0 1 40 70;
#X obj 374 375 *~;
#X obj 633 375 *~;
#X obj 462 347 sig~;
#X obj 462 323 r voiceampscaler;
#X floatatom 218 12 5 0 1 0 - - - 0;
#X obj 218 35 clip 0 1;
#X obj 218 59 s voiceampscaler;
#X obj 497 352 wobble 500 5000;
#X obj 497 376 scaled 0 1 0.2 0.4;
#X obj 674 350 wobble 500 5000;
#X obj 674 374 scaled 0 1 0.6 0.8;
#X obj 995 242 tapeecho~ 200 0.5;
#X obj 1087 181 r tickrate;
#X obj 1087 205 * 1.66667;
#X obj 1125 242 tapeecho~ 200 0.5;
#X obj 995 454 throw~ outL;
#X obj 1125 454 throw~ outR;
#X obj 995 380 phaser~;
#X obj 1125 380 phaser~;
#X obj 995 424 level~;
#X obj 1125 424 level~;
#X obj 340 37 msphsl 0 1;
#X obj 340 60 s echolevel;
#X obj 1191 368 r echolevel;
#X obj 483 182 wobble 500 5000;
#X msg 483 230 to-high \$1;
#X obj 742 182 wobble 500 5000;
#X msg 742 230 to-high \$1;
#X obj 483 206 scaled 0 1 56 64;
#X obj 742 206 scaled 0 1 66 74;
#X obj 284 131 wobble 500 5000;
#X msg 284 179 decay \$1;
#X obj 284 155 scaled 0 1 0.4 1;
#X obj 1077 66 booster~;
#X obj 1048 36 catch~ boosted;
#X floatatom 1036 12 5 0 1 0 - - - 0;
#X floatatom 1092 8 5 0 1000 0 - - - 0;
#X obj 28 716 pink~;
#X obj 28 740 level~;
#X obj 28 810 throw~ boosted;
#X obj 185 717 noise~;
#X obj 185 741 level~;
#X obj 28 787 level~;
#X obj 1162 85 level~;
#X obj 28 763 bob~;
#X obj 318 833 ramp~;
#X obj 368 833 ramp~;
#X obj 887 20 wobble 500 2500;
#X obj 777 67 pan~;
#X obj 777 142 throw~ outL;
#X obj 887 142 throw~ outR;
#X obj 887 44 scaled 0 1 0.2 0.8;
#X obj 280 772 wobble 500 5000;
#X obj 280 796 scaled 0 1 4000 11000;
#X obj 408 744 wobble 500 5000;
#X obj 408 768 scaled 0 1 0 8;
#X obj 613 16 r tickrate;
#X obj 569 131 level~;
#X obj 347 86 wobble 500 5000;
#X msg 347 110 shape \$1;
#X obj 11 589 bob~, f 17;
#X obj 77 559 ramp~;
#X obj 127 559 ramp~;
#X obj 39 498 wobble 500 5000;
#X obj 176 498 wobble 500 5000;
#X obj 176 522 scaled 0 1 0 3;
#X obj 856 371 bob~, f 17;
#X obj 922 341 ramp~;
#X obj 972 341 ramp~;
#X obj 884 280 wobble 500 5000;
#X obj 1021 280 wobble 500 5000;
#X obj 1021 304 scaled 0 1 0 3;
#X obj 884 304 scaled 0 1 5000 11000;
#X obj 1192 350 bob~, f 17;
#X obj 1258 320 ramp~;
#X obj 1308 320 ramp~;
#X obj 1220 259 wobble 500 5000;
#X obj 1357 259 wobble 500 5000;
#X obj 1357 283 scaled 0 1 0 3;
#X obj 1220 283 scaled 0 1 5000 11000;
#X obj 39 522 scaled 0 1 50 250;
#X obj 613 40 * 64;
#X obj 1277 695 crackle~;
#X obj 1277 719 level~;
#X obj 1277 742 throw~ duckedL;
#X obj 1379 742 throw~ duckedR;
#X obj 878 407 r tick;
#X obj 878 431 sequ;
#X obj 569 107 tapeecho~ 500 0.9;
#X obj 878 593 scaled 0 1 40 70;
#X obj 878 617 quantizedmode phrygian 60;
#X obj 374 326 ramp~ 30;
#X obj 633 326 ramp~ 30;
#X obj 878 665 t b f, f 22;
#X obj 878 689 ahdsr~ 5 0 80 0.3 80;
#X obj 878 713 *~, f 22;
#X obj 1029 689 osc~;
#X obj 878 641 mtof;
#X obj 878 737 level~;
#X obj 878 760 pan~;
#X obj 995 760 wobble 500 5000;
#X obj 652 617 quantizedmode phrygian 60;
#X obj 652 665 t b f, f 22;
#X obj 652 689 ahdsr~ 5 0 80 0.3 80;
#X obj 652 713 *~, f 22;
#X obj 803 689 osc~;
#X obj 652 641 mtof;
#X obj 652 737 level~;
#X obj 652 760 pan~;
#X obj 769 760 wobble 500 5000;
#X obj 762 571 msphsl 0 1;
#X obj 652 805 throw~ duckedL;
#X obj 878 805 throw~ duckedL;
#X obj 762 805 throw~ duckedR;
#X obj 988 805 throw~ duckedR;
#X obj 652 593 scaled 0 1 30 60;
#X connect 0 0 6 0;
#X connect 2 0 7 0;
#X connect 3 0 4 0;
#X connect 4 0 18 0;
#X connect 6 0 1 0;
#X connect 7 0 19 0;
#X connect 8 0 9 0;
#X connect 8 0 11 0;
#X connect 8 0 88 0;
#X connect 9 0 98 0;
#X connect 9 1 10 0;
#X connect 11 1 12 0;
#X connect 13 0 10 0;
#X connect 13 0 12 0;
#X connect 14 0 16 0;
#X connect 15 0 16 1;
#X connect 16 0 17 0;
#X connect 16 1 17 1;
#X connect 18 0 115 0;
#X connect 20 0 3 0;
#X connect 21 0 22 0;
#X connect 22 0 28 0;
#X connect 22 1 23 0;
#X connect 23 0 30 0;
#X connect 24 0 25 0;
#X connect 26 0 6 1;
#X connect 27 0 44 0;
#X connect 28 0 29 0;
#X connect 29 0 30 0;
#X connect 30 0 31 0;
#X connect 32 0 33 0;
#X connect 33 0 45 0;
#X connect 34 0 55 0;
#X connect 35 0 36 0;
#X connect 35 1 37 0;
#X connect 38 0 9 1;
#X connect 38 0 66 0;
#X connect 39 0 11 1;
#X connect 39 0 69 0;
#X connect 40 0 41 0;
#X connect 41 0 146 0;
#X connect 42 0 9 2;
#X connect 42 0 11 2;
#X connect 43 0 9 3;
#X connect 43 0 11 3;
#X connect 44 0 29 1;
#X connect 45 0 40 0;
#X connect 46 0 53 0;
#X connect 47 0 56 0;
#X connect 48 0 49 0;
#X connect 48 1 50 0;
#X connect 51 0 52 0;
#X connect 52 0 147 0;
#X connect 53 0 54 0;
#X connect 54 0 51 0;
#X connect 55 0 35 0;
#X connect 56 0 48 0;
#X connect 57 0 55 1;
#X connect 57 0 56 1;
#X connect 58 0 57 0;
#X connect 59 0 60 0;
#X connect 60 0 61 0;
#X connect 62 0 63 0;
#X connect 63 0 35 1;
#X connect 64 0 65 0;
#X connect 65 0 48 1;
#X connect 66 0 121 0;
#X connect 67 0 68 0;
#X connect 68 0 66 1;
#X connect 68 0 69 1;
#X connect 69 0 128 0;
#X connect 72 0 74 0;
#X connect 73 0 75 0;
#X connect 74 0 70 0;
#X connect 75 0 71 0;
#X connect 76 0 77 0;
#X connect 78 0 74 1;
#X connect 78 0 75 1;
#X connect 79 0 83 0;
#X connect 80 0 45 1;
#X connect 81 0 84 0;
#X connect 82 0 54 1;
#X connect 83 0 80 0;
#X connect 84 0 82 0;
#X connect 85 0 87 0;
#X connect 86 0 4 0;
#X connect 87 0 86 0;
#X connect 88 1 103 0;
#X connect 89 0 88 1;
#X connect 90 0 88 2;
#X connect 91 0 88 3;
#X connect 92 0 93 0;
#X connect 93 0 99 0;
#X connect 95 0 96 0;
#X connect 96 0 99 0;
#X connect 97 0 94 0;
#X connect 98 0 13 0;
#X connect 99 0 97 0;
#X connect 100 0 99 1;
#X connect 101 0 99 2;
#X connect 102 0 106 0;
#X connect 103 0 104 0;
#X connect 103 0 143 0;
#X connect 103 1 105 0;
#X connect 103 1 143 0;
#X connect 106 0 103 1;
#X connect 107 0 108 0;
#X connect 108 0 100 0;
#X connect 109 0 110 0;
#X connect 110 0 101 0;
#X connect 111 0 136 0;
#X connect 112 0 104 0;
#X connect 112 0 105 0;
#X connect 113 0 114 0;
#X connect 114 0 4 0;
#X connect 115 0 5 0;
#X connect 116 0 115 1;
#X connect 117 0 115 2;
#X connect 118 0 135 0;
#X connect 119 0 120 0;
#X connect 120 0 117 0;
#X connect 121 0 72 0;
#X connect 122 0 121 1;
#X connect 123 0 121 2;
#X connect 124 0 127 0;
#X connect 125 0 126 0;
#X connect 126 0 123 0;
#X connect 127 0 122 0;
#X connect 128 0 73 0;
#X connect 129 0 128 1;
#X connect 130 0 128 2;
#X connect 131 0 134 0;
#X connect 132 0 133 0;
#X connect 133 0 130 0;
#X connect 134 0 129 0;
#X connect 135 0 116 0;
#X connect 136 0 143 1;
#X connect 137 0 138 0;
#X connect 138 0 139 0;
#X connect 138 0 140 0;
#X connect 141 0 142 0;
#X connect 142 0 144 0;
#X connect 142 0 170 0;
#X connect 143 0 112 0;
#X connect 144 0 145 0;
#X connect 145 0 152 0;
#X connect 146 0 34 0;
#X connect 147 0 47 0;
#X connect 148 0 149 0;
#X connect 148 1 151 0;
#X connect 149 0 150 0;
#X connect 150 0 153 0;
#X connect 151 0 150 1;
#X connect 152 0 148 0;
#X connect 153 0 154 0;
#X connect 154 0 167 0;
#X connect 154 1 169 0;
#X connect 155 0 154 1;
#X connect 156 0 161 0;
#X connect 157 0 158 0;
#X connect 157 1 160 0;
#X connect 158 0 159 0;
#X connect 159 0 162 0;
#X connect 160 0 159 1;
#X connect 161 0 157 0;
#X connect 162 0 163 0;
#X connect 163 0 166 0;
#X connect 163 1 168 0;
#X connect 164 0 163 1;
#X connect 165 0 162 1;
#X connect 165 0 153 1;
#X connect 170 0 156 0;
