#N canvas 1 38 1495 884 12;
#X obj 9 11 tgl 19 0 empty empty empty 0 -10 0 12 #fcfcfc #000000 #000000 0 1;
#X obj 9 59 s tick;
#X obj 10 87 r tick;
#X obj 10 207 kick~;
#X obj 11 613 throw~ kick;
#X obj 1162 37 catch~ kick;
#X obj 1162 61 ducker~;
#X obj 1162 131 throw~ outL;
#X obj 1235 60 ducker~;
#X obj 1248 129 throw~ outR;
#X obj 1162 105 *~ 0.5;
#X obj 1286 770 catch~ outL;
#X obj 1375 770 catch~ outR;
#X obj 1286 794 compressor2~, f 26;
#X obj 1286 818 outrec~;
#X obj 10 406 wavefolder~;
#X obj 10 135 s trigger;
#X obj 10 159 r trigger;
#X obj 139 59 r trigger;
#X obj 139 83 t b b, f 7;
#X msg 185 107 0;
#X floatatom 139 12 5 0 0 0 - - - 0;
#X obj 139 35 s tickrate;
#X obj 60 11 r tickrate;
#X obj 203 131 r tickrate;
#X msg 139 107 1;
#X obj 139 131 pack f f;
#X obj 139 155 line;
#X obj 374 206 r melody;
#X obj 374 230 easeoutcubic;
#X obj 374 656 pan~ 0.3;
#X obj 374 701 throw~ duckedL;
#X obj 484 701 throw~ duckedR;
#X obj 1279 30 catch~ duckedL;
#X obj 1359 55 catch~ duckedR;
#X obj 374 422 mtof;
#X floatatom 1199 15 5 0 1 0 - - - 0;
#X floatatom 1255 11 5 0 1000 0 - - - 0;
#X obj 203 155 * 16;
#X obj 633 206 r melody;
#X obj 633 656 pan~ 0.3;
#X obj 633 701 throw~ duckedL;
#X obj 743 701 throw~ duckedR;
#X obj 633 422 mtof;
#X obj 633 230 easeinsine;
#X obj 633 374 scaled 0 1 40 70;
#X obj 374 632 *~;
#X obj 633 632 *~;
#X obj 239 613 sig~;
#X obj 239 589 r voiceampscaler;
#X floatatom 218 12 5 0 1 0 - - - 0;
#X obj 218 35 clip 0 1;
#X obj 218 59 s voiceampscaler;
#X obj 497 609 wobble 500 5000;
#X obj 497 633 scaled 0 1 0.2 0.4;
#X obj 674 607 wobble 500 5000;
#X obj 674 631 scaled 0 1 0.6 0.8;
#X obj 995 242 tapeecho~ 200 0.5;
#X obj 1087 181 r tickrate;
#X obj 1087 205 * 1.66667;
#X obj 1125 242 tapeecho~ 200 0.5;
#X obj 995 454 throw~ outL;
#X obj 1125 454 throw~ outR;
#X obj 995 380 phaser~;
#X obj 1125 380 phaser~;
#X obj 995 424 level~;
#X obj 1125 424 level~;
#X obj 340 37 msphsl 0 1;
#X obj 340 60 s echolevel;
#X obj 1191 368 r echolevel;
#X obj 483 302 wobble 500 5000;
#X msg 483 350 to-high \$1;
#X obj 742 302 wobble 500 5000;
#X msg 742 350 to-high \$1;
#X msg 284 179 decay \$1;
#X obj 284 155 scaled 0 1 0.4 1;
#X obj 1077 66 booster~;
#X obj 1048 36 catch~ boosted;
#X floatatom 1036 12 5 0 1 0 - - - 0;
#X floatatom 1092 8 5 0 1000 0 - - - 0;
#X obj 28 729 pink~;
#X obj 28 753 level~;
#X obj 28 823 throw~ boosted;
#X obj 185 730 noise~;
#X obj 185 754 level~;
#X obj 28 800 level~;
#X obj 1162 85 level~;
#X obj 28 776 bob~;
#X obj 318 846 ramp~;
#X obj 368 846 ramp~;
#X obj 887 20 wobble 500 2500;
#X obj 777 67 pan~;
#X obj 777 142 throw~ outL;
#X obj 887 142 throw~ outR;
#X obj 887 44 scaled 0 1 0.2 0.8;
#X obj 280 809 scaled 0 1 4000 11000;
#X obj 408 781 scaled 0 1 0 8;
#X obj 613 16 r tickrate;
#X obj 347 86 wobble 500 5000;
#X msg 347 110 shape \$1;
#X obj 11 589 bob~, f 17;
#X obj 77 559 ramp~;
#X obj 127 559 ramp~;
#X obj 176 522 scaled 0 1 0 3;
#X obj 856 371 bob~, f 17;
#X obj 922 341 ramp~;
#X obj 972 341 ramp~;
#X obj 884 280 wobble 500 5000;
#X obj 1021 280 wobble 500 5000;
#X obj 1021 304 scaled 0 1 0 3;
#X obj 884 304 scaled 0 1 5000 11000;
#X obj 1192 350 bob~, f 17;
#X obj 1258 320 ramp~;
#X obj 1308 320 ramp~;
#X obj 1357 283 scaled 0 1 0 3;
#X obj 1220 283 scaled 0 1 5000 11000;
#X obj 39 522 scaled 0 1 50 250;
#X obj 1275 694 crackle~;
#X obj 1275 718 level~;
#X obj 1275 741 throw~ duckedL;
#X obj 1377 741 throw~ duckedR;
#X obj 613 40 * 16;
#X obj 976 547 catch~ ducked;
#X obj 976 571 *~ 0.5;
#X obj 976 595 throw~ duckedL;
#X obj 1078 595 throw~ duckedR;
#X obj 374 374 scaled 0 1 30 60;
#X obj 633 254 t f f;
#X obj 406 302 ramp~;
#X obj 374 562 bob~, f 10;
#X obj 633 562 bob~, f 11;
#X obj 666 302 ramp~;
#X obj 406 278 scaled 0 1 0 5000;
#X obj 666 278 scaled 0 1 0 5000;
#X obj 413 422 wobble 500 5000;
#X obj 679 422 wobble 500 5000;
#X obj 374 538 square;
#X obj 633 538 square~;
#X obj 483 326 scaled 0 1 56 64;
#X obj 742 326 scaled 0 1 66 74;
#X obj 374 586 *~;
#X obj 374 254 t f f;
#X obj 374 489 t f f;
#X obj 443 490 change;
#X obj 633 489 t f f;
#X obj 725 489 change;
#X obj 633 586 *~;
#X obj 569 131 level~;
#X obj 569 153 level~;
#X obj 569 175 msphsl 0 1;
#X obj 374 398 quantizedmode phrygian 60;
#X obj 633 398 quantizedmode phrygian 60;
#X obj 374 446 maybe 0.75;
#X obj 633 446 maybe 0.75;
#X obj 569 107 pingpong~ 500 0.9;
#X obj 404 586 ahdsr~ 5 0 50 0.3 2000;
#X obj 663 586 ahdsr~ 5 0 50 0.3 2000;
#X obj 419 166 s melody;
#X obj 419 142 wobble 1000 5000;
#X obj 374 513 ramp~ 5;
#X obj 633 513 ramp~ 5;
#X floatatom 913 629 5 0 0 0 - - - 0;
#X obj 913 652 mtof;
#X obj 913 676 osc~;
#X obj 913 700 wavefolder~;
#X obj 998 637 wobble;
#X msg 998 661 foldamount \$1;
#X obj 913 781 level~;
#X obj 1053 785 wobble;
#X obj 1053 809 easeincubic;
#X floatatom 873 629 5 0 0 0 - - - 0;
#X obj 873 652 mtof;
#X obj 873 676 osc~;
#X obj 913 804 level~;
#X obj 858 699 pink~;
#X floatatom 871 724 5 0 0 0 - - - 0;
#X obj 871 747 mtof;
#X obj 871 771 osc~;
#X obj 913 834 tapeecho~ 15 0.3;
#X obj 913 858 throw~ ducked;
#X obj 87 657 wobble;
#X obj 87 681 scaled 0 1 5 100;
#X obj 833 530 wobble;
#X obj 833 554 scaled 0 1 5 100;
#X obj 707 537 scaled 0 1 0 7;
#X obj 441 538 scaled 0 1 0 7;
#X obj 441 514 wobble;
#X obj 707 513 wobble;
#X obj 280 785 wobble;
#X obj 408 757 wobble;
#X obj 39 498 wobble;
#X obj 176 498 wobble;
#X obj 284 131 wobble;
#X obj 1220 259 wobble;
#X obj 1357 259 wobble;
#X obj 1181 481 migrids;
#X obj 1295 397 r tick;
#X obj 9 35 metronome 80 32;
#X obj 10 111 sel 1 6 8 17 22 24;
#X obj 643 117;
#X obj 1295 421 sel 1;
#X obj 1258 470 counter 32;
#X obj 1313 443 bng 19 250 50 0 empty empty empty 0 -10 0 12 #fcfcfc #000000 #000000;
#X obj 1266 439 t b b;
#X obj 1209 655 hh~, f 18;
#X floatatom 1248 636 5 0 0 0 - - - 0;
#X floatatom 1290 636 5 0 1 0 - - - 0;
#X floatatom 1333 637 5 0 1 0 - - - 0;
#X obj 1105 659 throw~ ducked;
#X obj 1227 676 level~;
#X obj 1163 632 t b f;
#X obj 1035 621 level~;
#X msg 10 183 velocity \$1;
#X connect 0 0 197 0;
#X connect 2 0 198 0;
#X connect 3 0 15 0;
#X connect 5 0 6 0;
#X connect 5 0 8 0;
#X connect 5 0 76 0;
#X connect 6 0 86 0;
#X connect 6 1 7 0;
#X connect 8 1 9 0;
#X connect 10 0 7 0;
#X connect 10 0 9 0;
#X connect 11 0 13 0;
#X connect 12 0 13 1;
#X connect 13 0 14 0;
#X connect 13 1 14 1;
#X connect 15 0 100 0;
#X connect 18 0 19 0;
#X connect 19 0 25 0;
#X connect 19 1 20 0;
#X connect 20 0 27 0;
#X connect 21 0 22 0;
#X connect 23 0 197 1;
#X connect 24 0 38 0;
#X connect 25 0 26 0;
#X connect 26 0 27 0;
#X connect 28 0 29 0;
#X connect 29 0 141 0;
#X connect 30 0 31 0;
#X connect 30 1 32 0;
#X connect 33 0 6 1;
#X connect 33 0 57 0;
#X connect 34 0 8 1;
#X connect 34 0 60 0;
#X connect 35 0 152 0;
#X connect 36 0 6 2;
#X connect 36 0 8 2;
#X connect 37 0 6 3;
#X connect 37 0 8 3;
#X connect 38 0 26 1;
#X connect 39 0 44 0;
#X connect 40 0 41 0;
#X connect 40 1 42 0;
#X connect 43 0 153 0;
#X connect 44 0 127 0;
#X connect 45 0 151 0;
#X connect 46 0 30 0;
#X connect 47 0 40 0;
#X connect 48 0 46 1;
#X connect 48 0 47 1;
#X connect 49 0 48 0;
#X connect 50 0 51 0;
#X connect 51 0 52 0;
#X connect 53 0 54 0;
#X connect 54 0 30 1;
#X connect 55 0 56 0;
#X connect 56 0 40 1;
#X connect 57 0 104 0;
#X connect 58 0 59 0;
#X connect 59 0 57 1;
#X connect 59 0 60 1;
#X connect 60 0 111 0;
#X connect 63 0 65 0;
#X connect 64 0 66 0;
#X connect 65 0 61 0;
#X connect 66 0 62 0;
#X connect 67 0 68 0;
#X connect 69 0 65 1;
#X connect 69 0 66 1;
#X connect 70 0 138 0;
#X connect 71 0 126 1;
#X connect 72 0 139 0;
#X connect 73 0 45 1;
#X connect 74 0 3 0;
#X connect 75 0 74 0;
#X connect 76 1 91 0;
#X connect 77 0 76 1;
#X connect 78 0 76 2;
#X connect 79 0 76 3;
#X connect 80 0 81 0;
#X connect 81 0 87 0;
#X connect 83 0 84 0;
#X connect 84 0 87 0;
#X connect 85 0 82 0;
#X connect 86 0 10 0;
#X connect 87 0 85 0;
#X connect 88 0 87 1;
#X connect 89 0 87 2;
#X connect 90 0 94 0;
#X connect 91 0 92 0;
#X connect 91 0 154 0;
#X connect 91 1 93 0;
#X connect 91 1 154 0;
#X connect 94 0 91 1;
#X connect 95 0 88 0;
#X connect 96 0 89 0;
#X connect 97 0 121 0;
#X connect 98 0 99 0;
#X connect 99 0 3 0;
#X connect 100 0 4 0;
#X connect 101 0 100 1;
#X connect 102 0 100 2;
#X connect 103 0 102 0;
#X connect 104 0 63 0;
#X connect 105 0 104 1;
#X connect 106 0 104 2;
#X connect 107 0 110 0;
#X connect 108 0 109 0;
#X connect 109 0 106 0;
#X connect 110 0 105 0;
#X connect 111 0 64 0;
#X connect 112 0 111 1;
#X connect 113 0 111 2;
#X connect 114 0 113 0;
#X connect 115 0 112 0;
#X connect 116 0 101 0;
#X connect 117 0 118 0;
#X connect 118 0 119 0;
#X connect 118 0 120 0;
#X connect 121 0 154 1;
#X connect 122 0 123 0;
#X connect 123 0 124 0;
#X connect 123 0 125 0;
#X connect 126 0 150 0;
#X connect 127 0 45 0;
#X connect 127 1 133 0;
#X connect 128 0 129 1;
#X connect 129 0 140 0;
#X connect 130 0 146 0;
#X connect 131 0 130 1;
#X connect 132 0 128 0;
#X connect 133 0 131 0;
#X connect 134 0 136 1;
#X connect 135 0 137 1;
#X connect 136 0 129 0;
#X connect 137 0 130 0;
#X connect 138 0 71 0;
#X connect 139 0 73 0;
#X connect 140 0 46 0;
#X connect 141 0 126 0;
#X connect 141 1 132 0;
#X connect 142 0 159 0;
#X connect 142 1 143 0;
#X connect 143 0 155 0;
#X connect 144 0 160 0;
#X connect 144 1 145 0;
#X connect 145 0 156 0;
#X connect 146 0 47 0;
#X connect 147 0 92 0;
#X connect 148 0 93 0;
#X connect 149 0 148 1;
#X connect 149 0 147 1;
#X connect 150 0 35 0;
#X connect 151 0 43 0;
#X connect 152 0 142 0;
#X connect 153 0 144 0;
#X connect 154 0 147 0;
#X connect 154 1 148 0;
#X connect 155 0 140 1;
#X connect 156 0 146 1;
#X connect 158 0 157 0;
#X connect 159 0 136 0;
#X connect 160 0 137 0;
#X connect 161 0 162 0;
#X connect 162 0 163 0;
#X connect 163 0 164 0;
#X connect 164 0 167 0;
#X connect 165 0 166 0;
#X connect 166 0 164 1;
#X connect 167 0 173 0;
#X connect 168 0 169 0;
#X connect 169 0 167 1;
#X connect 170 0 171 0;
#X connect 171 0 172 0;
#X connect 172 0 164 0;
#X connect 173 0 178 0;
#X connect 174 0 164 0;
#X connect 175 0 176 0;
#X connect 176 0 177 0;
#X connect 177 0 164 0;
#X connect 178 0 179 0;
#X connect 180 0 181 0;
#X connect 181 0 155 1;
#X connect 182 0 183 0;
#X connect 183 0 156 1;
#X connect 184 0 130 2;
#X connect 185 0 129 2;
#X connect 186 0 185 0;
#X connect 187 0 184 0;
#X connect 188 0 95 0;
#X connect 189 0 96 0;
#X connect 190 0 116 0;
#X connect 191 0 103 0;
#X connect 192 0 75 0;
#X connect 193 0 115 0;
#X connect 194 0 114 0;
#X connect 195 0 212 0;
#X connect 195 2 210 0;
#X connect 196 0 200 0;
#X connect 197 0 1 0;
#X connect 198 0 16 0;
#X connect 198 1 16 0;
#X connect 198 2 16 0;
#X connect 198 3 16 0;
#X connect 198 4 16 0;
#X connect 198 5 16 0;
#X connect 200 0 203 0;
#X connect 200 1 202 0;
#X connect 201 0 195 0;
#X connect 202 0 201 0;
#X connect 203 0 201 0;
#X connect 203 1 201 1;
#X connect 204 0 209 0;
#X connect 205 0 204 1;
#X connect 206 0 204 2;
#X connect 207 0 204 3;
#X connect 209 0 211 0;
#X connect 210 0 204 0;
#X connect 210 1 209 1;
#X connect 211 0 208 0;
#X connect 212 0 3 0;
