#N canvas 1 38 1495 884 12;
#X obj 9 11 tgl 19 0 empty empty empty 0 -10 0 12 #fcfcfc #000000 #000000 0 1;
#X obj 9 59 s tick;
#X obj 10 87 r tick;
#X msg 10 183 velocity 1;
#X obj 10 207 kick~;
#X obj 11 613 throw~ kick;
#X obj 9 35 metronome 80 16;
#X obj 10 111 sel 1;
#X obj 1162 37 catch~ kick;
#X obj 1162 61 ducker~;
#X obj 1162 129 throw~ outL;
#X obj 1222 61 ducker~;
#X obj 1248 129 throw~ outR;
#X obj 1162 105 *~ 0.5;
#X obj 1288 771 catch~ outL;
#X obj 1377 771 catch~ outR;
#X obj 1288 795 compressor2~, f 26;
#X obj 1288 819 outrec~;
#X obj 10 406 wavefolder~;
#X obj 10 135 s trigger;
#X obj 10 159 r trigger;
#X obj 139 59 r trigger;
#X obj 139 83 t b b, f 7;
#X msg 185 107 0;
#X floatatom 139 12 5 0 0 0 - - - 0;
#X obj 139 35 s tickrate;
#X obj 60 11 r tickrate;
#X obj 203 131 r tickrate;
#X msg 139 107 1;
#X obj 139 131 pack f f;
#X obj 139 155 line;
#X obj 139 179 s melody;
#X obj 374 206 r melody;
#X obj 374 230 easeoutcubic;
#X obj 374 643 pan~ 0.3;
#X obj 374 688 throw~ duckedL;
#X obj 484 688 throw~ duckedR;
#X obj 1255 37 catch~ duckedL;
#X obj 1365 37 catch~ duckedR;
#X obj 374 422 mtof;
#X floatatom 1199 15 5 0 1 0 - - - 0;
#X floatatom 1255 11 5 0 1000 0 - - - 0;
#X obj 203 155 * 16;
#X obj 633 206 r melody;
#X obj 633 643 pan~ 0.3;
#X obj 633 688 throw~ duckedL;
#X obj 743 688 throw~ duckedR;
#X obj 633 422 mtof;
#X obj 633 230 easeinsine;
#X obj 633 374 scaled 0 1 40 70;
#X obj 374 619 *~;
#X obj 633 619 *~;
#X obj 462 591 sig~;
#X obj 462 567 r voiceampscaler;
#X floatatom 218 12 5 0 1 0 - - - 0;
#X obj 218 35 clip 0 1;
#X obj 218 59 s voiceampscaler;
#X obj 497 596 wobble 500 5000;
#X obj 497 620 scaled 0 1 0.2 0.4;
#X obj 674 594 wobble 500 5000;
#X obj 674 618 scaled 0 1 0.6 0.8;
#X obj 995 242 tapeecho~ 200 0.5;
#X obj 1087 181 r tickrate;
#X obj 1087 205 * 1.66667;
#X obj 1125 242 tapeecho~ 200 0.5;
#X obj 995 454 throw~ outL;
#X obj 1125 454 throw~ outR;
#X obj 995 380 phaser~;
#X obj 1125 380 phaser~;
#X obj 995 424 level~;
#X obj 1125 424 level~;
#X obj 340 37 msphsl 0 1;
#X obj 340 60 s echolevel;
#X obj 1191 368 r echolevel;
#X obj 483 302 wobble 500 5000;
#X msg 483 350 to-high \$1;
#X obj 742 302 wobble 500 5000;
#X msg 742 350 to-high \$1;
#X obj 284 131 wobble 500 5000;
#X msg 284 179 decay \$1;
#X obj 284 155 scaled 0 1 0.4 1;
#X obj 1077 66 booster~;
#X obj 1048 36 catch~ boosted;
#X floatatom 1036 12 5 0 1 0 - - - 0;
#X floatatom 1092 8 5 0 1000 0 - - - 0;
#X obj 28 716 pink~;
#X obj 28 740 level~;
#X obj 28 810 throw~ boosted;
#X obj 185 717 noise~;
#X obj 185 741 level~;
#X obj 28 787 level~;
#X obj 1162 85 level~;
#X obj 28 763 bob~;
#X obj 318 833 ramp~;
#X obj 368 833 ramp~;
#X obj 887 20 wobble 500 2500;
#X obj 777 67 pan~;
#X obj 777 142 throw~ outL;
#X obj 887 142 throw~ outR;
#X obj 887 44 scaled 0 1 0.2 0.8;
#X obj 280 772 wobble 500 5000;
#X obj 280 796 scaled 0 1 4000 11000;
#X obj 408 744 wobble 500 5000;
#X obj 408 768 scaled 0 1 0 8;
#X obj 613 16 r tickrate;
#X obj 347 86 wobble 500 5000;
#X msg 347 110 shape \$1;
#X obj 11 589 bob~, f 17;
#X obj 77 559 ramp~;
#X obj 127 559 ramp~;
#X obj 39 498 wobble 500 5000;
#X obj 176 498 wobble 500 5000;
#X obj 176 522 scaled 0 1 0 3;
#X obj 856 371 bob~, f 17;
#X obj 922 341 ramp~;
#X obj 972 341 ramp~;
#X obj 884 280 wobble 500 5000;
#X obj 1021 280 wobble 500 5000;
#X obj 1021 304 scaled 0 1 0 3;
#X obj 884 304 scaled 0 1 5000 11000;
#X obj 1192 350 bob~, f 17;
#X obj 1258 320 ramp~;
#X obj 1308 320 ramp~;
#X obj 1220 259 wobble 500 5000;
#X obj 1357 259 wobble 500 5000;
#X obj 1357 283 scaled 0 1 0 3;
#X obj 1220 283 scaled 0 1 5000 11000;
#X obj 39 522 scaled 0 1 50 250;
#X obj 1277 695 crackle~;
#X obj 1277 719 level~;
#X obj 1277 742 throw~ duckedL;
#X obj 1379 742 throw~ duckedR;
#X obj 613 40 * 16;
#X obj 976 547 catch~ ducked;
#X obj 976 571 *~ 0.5;
#X obj 976 595 throw~ duckedL;
#X obj 1078 595 throw~ duckedR;
#X obj 374 374 scaled 0 1 30 60;
#X obj 374 470 ramp~ 30;
#X obj 633 470 ramp~ 30;
#X obj 633 254 t f f;
#X obj 406 302 ramp~;
#X obj 374 519 bob~, f 10;
#X obj 633 519 bob~, f 11;
#X obj 666 302 ramp~;
#X obj 406 278 scaled 0 1 0 5000;
#X obj 666 278 scaled 0 1 0 5000;
#X obj 441 471 wobble 500 5000;
#X obj 707 470 wobble 500 5000;
#X obj 441 495 scaled 0 1 0 5;
#X obj 707 494 scaled 0 1 0 5;
#X obj 413 422 wobble 500 5000;
#X obj 679 422 wobble 500 5000;
#X obj 374 495 square;
#X obj 633 495 square~;
#X obj 483 326 scaled 0 1 56 64;
#X obj 742 326 scaled 0 1 66 74;
#X obj 374 543 *~;
#X obj 374 254 t f f;
#X obj 374 446 t f f;
#X obj 443 447 change;
#X obj 633 446 t f f;
#X obj 725 446 change;
#X obj 633 543 *~;
#X obj 663 543 ahdsr~ 50 0 50 0.3 200;
#X obj 404 543 ahdsr~ 25 0 50 0.3 200;
#X obj 569 131 level~;
#X obj 569 153 level~;
#X obj 569 175 msphsl 0 1;
#X obj 915 702 saw~;
#X floatatom 915 655 5 0 0 0 - - - 0;
#X obj 915 678 mtof;
#X obj 915 726 *~ 0.25;
#X obj 915 750 bob~;
#X obj 915 774 level~;
#X obj 955 702 saw~;
#X floatatom 955 655 5 0 0 0 - - - 0;
#X obj 955 678 mtof;
#X obj 995 702 saw~;
#X floatatom 995 655 5 0 0 0 - - - 0;
#X obj 995 678 mtof;
#X obj 1035 702 saw~;
#X floatatom 1035 655 5 0 0 0 - - - 0;
#X obj 1035 678 mtof;
#X obj 988 727 wobble 500 5000;
#X obj 795 727 msphsl 0 12000;
#X obj 795 750 ramp~;
#X obj 988 751 scaled 0 1 0 1;
#X obj 374 398 quantizedmode ionian 60;
#X obj 633 398 quantizedmode ionian 60;
#X obj 915 797 throw~ boosted;
#X obj 594 701 r melody;
#X obj 594 1183 throw~ duckedL;
#X obj 704 1183 throw~ duckedR;
#X obj 594 917 mtof;
#X obj 594 725 easeinsine;
#X obj 594 1114 *~;
#X obj 703 797 wobble 500 5000;
#X msg 703 845 to-high \$1;
#X obj 594 965 ramp~ 30;
#X obj 594 749 t f f;
#X obj 594 1014 bob~, f 11;
#X obj 627 797 ramp~;
#X obj 627 773 scaled 0 1 0 5000;
#X obj 668 965 wobble 500 5000;
#X obj 668 989 scaled 0 1 0 5;
#X obj 640 917 wobble 500 5000;
#X obj 594 990 square~;
#X obj 703 821 scaled 0 1 66 74;
#X obj 594 941 t f f;
#X obj 686 941 change;
#X obj 594 1038 *~;
#X obj 624 1038 ahdsr~ 50 0 50 0.3 200;
#X obj 594 893 quantizedmode ionian 60;
#X obj 594 1138 pan~ 0.5;
#X obj 594 869 scaled 0 1 30 70;
#X obj 569 107 pingpong~ 500 0.4;
#X connect 0 0 6 0;
#X connect 2 0 7 0;
#X connect 3 0 4 0;
#X connect 4 0 18 0;
#X connect 6 0 1 0;
#X connect 7 0 19 0;
#X connect 8 0 9 0;
#X connect 8 0 11 0;
#X connect 8 0 81 0;
#X connect 9 0 91 0;
#X connect 9 1 10 0;
#X connect 11 1 12 0;
#X connect 13 0 10 0;
#X connect 13 0 12 0;
#X connect 14 0 16 0;
#X connect 15 0 16 1;
#X connect 16 0 17 0;
#X connect 16 1 17 1;
#X connect 18 0 107 0;
#X connect 20 0 3 0;
#X connect 21 0 22 0;
#X connect 22 0 28 0;
#X connect 22 1 23 0;
#X connect 23 0 30 0;
#X connect 24 0 25 0;
#X connect 26 0 6 1;
#X connect 27 0 42 0;
#X connect 28 0 29 0;
#X connect 29 0 30 0;
#X connect 30 0 31 0;
#X connect 32 0 33 0;
#X connect 33 0 158 0;
#X connect 34 0 35 0;
#X connect 34 1 36 0;
#X connect 37 0 9 1;
#X connect 37 0 61 0;
#X connect 38 0 11 1;
#X connect 38 0 64 0;
#X connect 39 0 159 0;
#X connect 40 0 9 2;
#X connect 40 0 11 2;
#X connect 41 0 9 3;
#X connect 41 0 11 3;
#X connect 42 0 29 1;
#X connect 43 0 48 0;
#X connect 44 0 45 0;
#X connect 44 1 46 0;
#X connect 47 0 161 0;
#X connect 48 0 140 0;
#X connect 49 0 189 0;
#X connect 50 0 34 0;
#X connect 51 0 44 0;
#X connect 52 0 50 1;
#X connect 52 0 51 1;
#X connect 52 0 196 1;
#X connect 53 0 52 0;
#X connect 54 0 55 0;
#X connect 55 0 56 0;
#X connect 57 0 58 0;
#X connect 58 0 34 1;
#X connect 59 0 60 0;
#X connect 60 0 44 1;
#X connect 61 0 113 0;
#X connect 62 0 63 0;
#X connect 63 0 61 1;
#X connect 63 0 64 1;
#X connect 64 0 120 0;
#X connect 67 0 69 0;
#X connect 68 0 70 0;
#X connect 69 0 65 0;
#X connect 70 0 66 0;
#X connect 71 0 72 0;
#X connect 73 0 69 1;
#X connect 73 0 70 1;
#X connect 74 0 155 0;
#X connect 75 0 137 1;
#X connect 76 0 156 0;
#X connect 77 0 49 1;
#X connect 78 0 80 0;
#X connect 79 0 4 0;
#X connect 80 0 79 0;
#X connect 81 1 96 0;
#X connect 82 0 81 1;
#X connect 83 0 81 2;
#X connect 84 0 81 3;
#X connect 85 0 86 0;
#X connect 86 0 92 0;
#X connect 88 0 89 0;
#X connect 89 0 92 0;
#X connect 90 0 87 0;
#X connect 91 0 13 0;
#X connect 92 0 90 0;
#X connect 93 0 92 1;
#X connect 94 0 92 2;
#X connect 95 0 99 0;
#X connect 96 0 97 0;
#X connect 96 0 216 0;
#X connect 96 1 98 0;
#X connect 96 1 216 0;
#X connect 99 0 96 1;
#X connect 100 0 101 0;
#X connect 101 0 93 0;
#X connect 102 0 103 0;
#X connect 103 0 94 0;
#X connect 104 0 132 0;
#X connect 105 0 106 0;
#X connect 106 0 4 0;
#X connect 107 0 5 0;
#X connect 108 0 107 1;
#X connect 109 0 107 2;
#X connect 110 0 127 0;
#X connect 111 0 112 0;
#X connect 112 0 109 0;
#X connect 113 0 67 0;
#X connect 114 0 113 1;
#X connect 115 0 113 2;
#X connect 116 0 119 0;
#X connect 117 0 118 0;
#X connect 118 0 115 0;
#X connect 119 0 114 0;
#X connect 120 0 68 0;
#X connect 121 0 120 1;
#X connect 122 0 120 2;
#X connect 123 0 126 0;
#X connect 124 0 125 0;
#X connect 125 0 122 0;
#X connect 126 0 121 0;
#X connect 127 0 108 0;
#X connect 128 0 129 0;
#X connect 129 0 130 0;
#X connect 129 0 131 0;
#X connect 132 0 216 1;
#X connect 133 0 134 0;
#X connect 134 0 135 0;
#X connect 134 0 136 0;
#X connect 137 0 188 0;
#X connect 138 0 153 0;
#X connect 139 0 154 0;
#X connect 140 0 49 0;
#X connect 140 1 146 0;
#X connect 141 0 142 1;
#X connect 142 0 157 0;
#X connect 143 0 163 0;
#X connect 144 0 143 1;
#X connect 145 0 141 0;
#X connect 146 0 144 0;
#X connect 147 0 149 0;
#X connect 148 0 150 0;
#X connect 149 0 142 2;
#X connect 150 0 143 2;
#X connect 151 0 153 1;
#X connect 152 0 154 1;
#X connect 153 0 142 0;
#X connect 154 0 143 0;
#X connect 155 0 75 0;
#X connect 156 0 77 0;
#X connect 157 0 50 0;
#X connect 158 0 137 0;
#X connect 158 1 145 0;
#X connect 159 0 138 0;
#X connect 159 1 160 0;
#X connect 160 0 165 0;
#X connect 161 0 139 0;
#X connect 161 1 162 0;
#X connect 162 0 164 0;
#X connect 163 0 51 0;
#X connect 164 0 163 1;
#X connect 165 0 157 1;
#X connect 166 0 97 0;
#X connect 167 0 98 0;
#X connect 168 0 167 1;
#X connect 168 0 166 1;
#X connect 169 0 172 0;
#X connect 170 0 171 0;
#X connect 171 0 169 0;
#X connect 172 0 173 0;
#X connect 173 0 174 0;
#X connect 174 0 190 0;
#X connect 175 0 172 0;
#X connect 176 0 177 0;
#X connect 177 0 175 0;
#X connect 178 0 172 0;
#X connect 179 0 180 0;
#X connect 180 0 178 0;
#X connect 181 0 172 0;
#X connect 182 0 183 0;
#X connect 183 0 181 0;
#X connect 184 0 187 0;
#X connect 185 0 186 0;
#X connect 186 0 173 1;
#X connect 187 0 173 2;
#X connect 188 0 39 0;
#X connect 189 0 47 0;
#X connect 191 0 195 0;
#X connect 194 0 209 0;
#X connect 195 0 200 0;
#X connect 196 0 214 0;
#X connect 197 0 208 0;
#X connect 198 0 215 1;
#X connect 199 0 207 0;
#X connect 200 0 215 0;
#X connect 200 1 203 0;
#X connect 201 0 211 0;
#X connect 202 0 201 1;
#X connect 203 0 202 0;
#X connect 204 0 205 0;
#X connect 205 0 201 2;
#X connect 206 0 207 1;
#X connect 207 0 201 0;
#X connect 208 0 198 0;
#X connect 209 0 199 0;
#X connect 209 1 210 0;
#X connect 210 0 212 0;
#X connect 211 0 196 0;
#X connect 212 0 211 1;
#X connect 213 0 194 0;
#X connect 214 0 192 0;
#X connect 214 1 193 0;
#X connect 215 0 213 0;
#X connect 216 0 166 0;
#X connect 216 1 167 0;
