#N canvas 0 38 1512 884 12;
#X obj 10 6 tgl 19 0 empty empty empty 0 -10 0 12 #fcfcfc #000000 #000000 0 1;
#X obj 10 54 s tick;
#X obj 13 650 r tick;
#X obj 13 698 migrids;
#X obj 10 30 metronome 20 32;
#X obj 13 674 -1;
#X obj 13 847 s kick;
#X obj 81 847 s snare;
#X obj 150 847 s hat;
#X obj 244 38 r kick;
#X msg 244 62 velocity \$1;
#X obj 244 86 kick~;
#X obj 244 285 throw~ outC;
#X obj 601 38 r snare;
#X msg 601 62 velocity \$1;
#X obj 601 86 snare~;
#X obj 601 273 throw~ outC;
#X obj 1007 38 r hat;
#X obj 1007 62 t b f, f 18;
#X obj 1007 122 hh~, f 30;
#X obj 1007 146 level~;
#X floatatom 1066 104 5 0 0 0 - - - 0;
#X obj 1105 86 msphsl 0 1;
#X obj 1105 104 msphsl 0 1;
#X obj 1007 192 throw~ outC;
#X obj 1317 712 catch~ outC;
#X obj 1317 736 *~ 0.5;
#X obj 1317 760 compressor2~;
#X obj 1339 806 outrec~;
#X floatatom 61 7 5 0 0 0 - - - 0;
#X obj 1236 712 catch~ outL;
#X obj 1398 712 catch~ outR;
#X obj 287 847 s snareA;
#X obj 356 847 s hatA;
#X obj 1225 64 t b f, f 18;
#X obj 1225 124 hh~, f 30;
#X obj 1225 148 level~;
#X floatatom 1284 106 5 0 0 0 - - - 0;
#X obj 1323 88 msphsl 0 1;
#X obj 1323 106 msphsl 0 1;
#X obj 1225 40 r hatA;
#X obj 1225 231 pan~ 0.25;
#X obj 1225 276 throw~ outL;
#X obj 1311 276 throw~ outR;
#X msg 600 321 velocity \$1;
#X obj 600 345 snare~;
#X obj 600 297 r snareA;
#X obj 600 533 pan~ 0.75;
#X obj 600 578 throw~ outL;
#X obj 690 578 throw~ outR;
#X obj 600 509 level~;
#X obj 1225 171 level~;
#X obj 1007 169 level~;
#X obj 213 317 r tick;
#X obj 213 389 quantizedmode phrygian 60;
#X obj 213 413 t b f;
#X obj 213 511 *~, f 25;
#X obj 291 437 wobble;
#X obj 245 437 mtof;
#X obj 245 461 square~;
#X obj 213 607 level~;
#X obj 213 630 pan~ 0.4;
#X obj 401 317 r tick;
#X obj 401 389 quantizedmode phrygian 60;
#X obj 401 413 t b f;
#X obj 401 511 *~, f 25;
#X obj 479 437 wobble;
#X obj 433 437 mtof;
#X obj 433 461 square~;
#X obj 401 613 level~;
#X obj 401 636 pan~ 0.6;
#X obj 213 341 sequ.impl;
#X obj 401 341 sequ.impl;
#X obj 10 78 sequ.params;
#X obj 461 317 r sequ;
#X obj 273 317 r sequ;
#X obj 10 240 s sequ;
#X obj 213 487 ahdsr~ 25 0 50 0.4 500;
#X obj 401 487 ahdsr~ 50 0 50 0.4 500;
#X obj 213 535 bob~;
#X obj 401 535 bob~;
#X obj 448 583 ramp~;
#X obj 448 559 scaled 0 1 0 11000;
#X floatatom 9 336 5 0 8 0 - - - 0;
#X obj 9 359 ramp~;
#X obj 9 383 throw~ q;
#X obj 321 535 catch~ q;
#X obj 9 312 i;
#X obj 9 288 scaled 0 1 0 9;
#X obj 213 675 throw~ synL;
#X obj 294 675 throw~ synR;
#X obj 401 681 throw~ synL;
#X obj 482 681 throw~ synR;
#X obj 812 627 catch~ synL;
#X obj 893 627 catch~ synR;
#X obj 9 408 msphsl 0 1;
#X obj 9 431 ramp~;
#X obj 9 455 s~ synthlevel;
#X obj 812 651 *~;
#X obj 893 651 *~;
#X obj 712 632 r~ synthlevel;
#X obj 812 675 throw~ outL;
#X obj 893 675 throw~ outR;
#X obj 213 365 scaled 0 1 30 90;
#X obj 401 365 scaled 0 1 30 90;
#X obj 601 250 level~;
#X obj 430 743 noise~;
#X obj 430 767 level~;
#X obj 582 738 noise~;
#X obj 582 762 level~;
#X obj 1024 223 level~;
#X obj 1024 294 throw~ outL;
#X obj 1104 294 throw~ outR;
#X obj 1024 246 hip~ 4000;
#X obj 1138 365 unpack f f f f, f 31;
#X obj 1024 270 pingpong~ 45 0.9;
#X obj 1181 194 level~;
#X obj 1024 318 r tick;
#X obj 1024 504 scaled 0 1 1 8;
#X obj 1024 528 i;
#X obj 1024 342 sequ;
#X obj 1138 389 mtof;
#X obj 1138 413 saw~;
#X obj 1138 437 pan~ 0.2;
#X obj 1208 389 mtof;
#X obj 1208 413 saw~;
#X obj 1209 484 pan~ 0.4;
#X obj 1279 389 mtof;
#X obj 1279 413 saw~;
#X obj 1279 437 pan~ 0.6;
#X obj 1352 389 mtof;
#X obj 1352 413 saw~;
#X obj 1352 484 pan~ 0.8;
#X obj 1138 599 bob~;
#X obj 1209 599 bob~;
#X obj 1352 599 bob~;
#X obj 1280 599 bob~;
#X obj 1024 552 t b f;
#X obj 1138 623 *~;
#X obj 1209 623 *~;
#X obj 1280 623 *~;
#X obj 1352 623 *~;
#X obj 1010 604 msphsl 0 1;
#X obj 1138 647 throw~ outL;
#X obj 1219 647 throw~ outR;
#X obj 1173 599 bob~;
#X obj 1244 599 bob~;
#X obj 1387 599 bob~;
#X obj 1315 599 bob~;
#X obj 1173 623 *~;
#X obj 1244 623 *~;
#X obj 1315 623 *~;
#X obj 1387 623 *~;
#X floatatom 1441 570 5 0 8 0 - - - 0;
#X obj 1441 593 ramp~;
#X obj 1066 552 ahdsr~ 80 0 200 0.4 200;
#X obj 1263 531 noise~;
#X obj 1263 555 level~;
#X obj 1066 576 scaled~ 0 1 3000 8000;
#X obj 1010 627 *~;
#X obj 1138 341 chord phrygian 72;
#X obj 866 580 ahdsr~ 80 0 200 0.2 2000;
#X obj 1202 299 maybe 0.5;
#X obj 916 709 r tick;
#X obj 916 757 sel 0;
#X obj 916 805 *~;
#X obj 1082 796 osc~;
#X obj 1082 772 mtof;
#X obj 916 733 % 8;
#X obj 916 829 *~;
#X obj 1056 854 throw~ outC;
#X obj 916 781 ahdsr~ 5 0 500 0.3 50;
#X msg 1082 748 36;
#X obj 1122 796 osc~;
#X obj 1122 772 mtof;
#X obj 916 853 level~;
#X msg 1122 748 80;
#X obj 1122 820 *~ 0.1;
#X connect 0 0 4 0;
#X connect 2 0 5 0;
#X connect 3 0 6 0;
#X connect 3 1 7 0;
#X connect 3 2 8 0;
#X connect 3 4 32 0;
#X connect 3 5 33 0;
#X connect 4 0 1 0;
#X connect 5 0 3 0;
#X connect 9 0 10 0;
#X connect 10 0 11 0;
#X connect 11 0 12 0;
#X connect 13 0 14 0;
#X connect 14 0 15 0;
#X connect 15 0 105 0;
#X connect 17 0 18 0;
#X connect 18 0 19 0;
#X connect 18 1 20 1;
#X connect 19 0 20 0;
#X connect 20 0 52 0;
#X connect 21 0 19 1;
#X connect 22 0 19 2;
#X connect 23 0 19 3;
#X connect 25 0 26 0;
#X connect 26 0 27 0;
#X connect 26 0 27 1;
#X connect 27 0 28 0;
#X connect 27 1 28 1;
#X connect 29 0 4 1;
#X connect 30 0 27 0;
#X connect 31 0 27 1;
#X connect 34 0 35 0;
#X connect 34 1 36 1;
#X connect 35 0 36 0;
#X connect 36 0 51 0;
#X connect 37 0 35 1;
#X connect 38 0 35 2;
#X connect 39 0 35 3;
#X connect 40 0 34 0;
#X connect 41 0 42 0;
#X connect 41 1 43 0;
#X connect 44 0 45 0;
#X connect 45 0 50 0;
#X connect 46 0 44 0;
#X connect 47 0 48 0;
#X connect 47 1 49 0;
#X connect 50 0 47 0;
#X connect 51 0 41 0;
#X connect 51 0 116 0;
#X connect 52 0 24 0;
#X connect 52 0 110 0;
#X connect 53 0 71 0;
#X connect 54 0 55 0;
#X connect 55 0 77 0;
#X connect 55 1 58 0;
#X connect 56 0 79 0;
#X connect 57 0 59 1;
#X connect 58 0 59 0;
#X connect 59 0 56 1;
#X connect 60 0 61 0;
#X connect 61 0 89 0;
#X connect 61 1 90 0;
#X connect 62 0 72 0;
#X connect 63 0 64 0;
#X connect 64 0 78 0;
#X connect 64 1 67 0;
#X connect 65 0 80 0;
#X connect 66 0 68 1;
#X connect 67 0 68 0;
#X connect 68 0 65 1;
#X connect 69 0 70 0;
#X connect 70 0 91 0;
#X connect 70 1 92 0;
#X connect 71 0 88 0;
#X connect 71 0 103 0;
#X connect 72 0 104 0;
#X connect 72 0 82 0;
#X connect 73 0 76 0;
#X connect 74 0 72 1;
#X connect 75 0 71 1;
#X connect 77 0 56 0;
#X connect 78 0 65 0;
#X connect 79 0 60 0;
#X connect 80 0 69 0;
#X connect 81 0 80 1;
#X connect 81 0 79 1;
#X connect 82 0 81 0;
#X connect 83 0 84 0;
#X connect 84 0 85 0;
#X connect 86 0 79 2;
#X connect 86 0 80 2;
#X connect 87 0 83 0;
#X connect 88 0 87 0;
#X connect 93 0 98 0;
#X connect 94 0 99 0;
#X connect 95 0 96 0;
#X connect 96 0 97 0;
#X connect 98 0 101 0;
#X connect 99 0 102 0;
#X connect 100 0 98 1;
#X connect 100 0 99 1;
#X connect 103 0 54 0;
#X connect 104 0 63 0;
#X connect 105 0 16 0;
#X connect 106 0 107 0;
#X connect 107 0 56 1;
#X connect 108 0 109 0;
#X connect 109 0 65 1;
#X connect 110 0 113 0;
#X connect 113 0 115 0;
#X connect 114 0 121 0;
#X connect 114 1 124 0;
#X connect 114 2 127 0;
#X connect 114 3 130 0;
#X connect 115 0 111 0;
#X connect 116 0 110 0;
#X connect 117 0 120 0;
#X connect 118 0 119 0;
#X connect 119 0 137 0;
#X connect 120 0 118 0;
#X connect 121 0 122 0;
#X connect 122 0 123 0;
#X connect 123 0 133 0;
#X connect 123 1 145 0;
#X connect 124 0 125 0;
#X connect 125 0 126 0;
#X connect 126 0 134 0;
#X connect 126 1 146 0;
#X connect 127 0 128 0;
#X connect 128 0 129 0;
#X connect 129 0 136 0;
#X connect 129 1 148 0;
#X connect 130 0 131 0;
#X connect 131 0 132 0;
#X connect 132 0 135 0;
#X connect 132 1 147 0;
#X connect 133 0 138 0;
#X connect 134 0 139 0;
#X connect 135 0 141 0;
#X connect 136 0 140 0;
#X connect 137 0 155 0;
#X connect 137 0 161 0;
#X connect 137 1 162 0;
#X connect 138 0 143 0;
#X connect 138 0 144 0;
#X connect 139 0 143 0;
#X connect 139 0 144 0;
#X connect 140 0 143 0;
#X connect 140 0 144 0;
#X connect 141 0 143 0;
#X connect 141 0 144 0;
#X connect 142 0 159 0;
#X connect 142 0 169 1;
#X connect 145 0 149 0;
#X connect 146 0 150 0;
#X connect 147 0 152 0;
#X connect 148 0 151 0;
#X connect 153 0 154 0;
#X connect 154 0 147 2;
#X connect 154 0 148 2;
#X connect 154 0 146 2;
#X connect 154 0 145 2;
#X connect 154 0 136 2;
#X connect 154 0 135 2;
#X connect 154 0 134 2;
#X connect 154 0 133 2;
#X connect 155 0 158 0;
#X connect 156 0 157 0;
#X connect 157 0 133 0;
#X connect 157 0 148 0;
#X connect 157 0 147 0;
#X connect 157 0 146 0;
#X connect 157 0 145 0;
#X connect 157 0 136 0;
#X connect 157 0 135 0;
#X connect 157 0 134 0;
#X connect 158 0 133 1;
#X connect 158 0 148 1;
#X connect 158 0 147 1;
#X connect 158 0 146 1;
#X connect 158 0 145 1;
#X connect 158 0 136 1;
#X connect 158 0 135 1;
#X connect 158 0 134 1;
#X connect 159 0 138 1;
#X connect 159 0 152 1;
#X connect 159 0 151 1;
#X connect 159 0 150 1;
#X connect 159 0 149 1;
#X connect 159 0 141 1;
#X connect 159 0 140 1;
#X connect 159 0 139 1;
#X connect 160 0 114 0;
#X connect 161 0 159 1;
#X connect 162 0 160 0;
#X connect 163 0 168 0;
#X connect 164 0 171 0;
#X connect 165 0 169 0;
#X connect 166 0 165 1;
#X connect 167 0 166 0;
#X connect 168 0 164 0;
#X connect 169 0 175 0;
#X connect 171 0 165 0;
#X connect 172 0 167 0;
#X connect 173 0 177 0;
#X connect 174 0 173 0;
#X connect 175 0 170 0;
#X connect 176 0 174 0;
#X connect 177 0 165 1;
