#N canvas 0 38 1512 884 12;
#X obj 11 13 tgl 19 0 empty empty empty 0 -10 0 12 #fcfcfc #000000 #000000 0 1;
#X obj 11 37 metronome 40 16;
#X obj 11 61 s tick;
#X obj 11 87 sequ.params;
#X obj 11 249 s sequ;
#X obj 198 39 r tick;
#X obj 198 63 sequ.impl;
#X obj 258 39 r sequ;
#X obj 198 111 t f b, f 6;
#X obj 198 135 quantizedmode aeolian 60;
#X obj 198 183 osc~;
#X obj 198 207 *~, f 6;
#X obj 198 231 pan~ 0.3;
#X obj 198 276 throw~ melL;
#X obj 308 276 throw~ melR;
#X obj 468 39 r tick;
#X obj 468 63 sequ.impl;
#X obj 528 39 r sequ;
#X obj 468 111 t f b, f 6;
#X obj 468 135 quantizedmode aeolian 60;
#X obj 468 183 osc~;
#X obj 468 207 *~, f 6;
#X obj 468 276 throw~ melL;
#X obj 578 276 throw~ melR;
#X obj 468 231 pan~ 0.7;
#X obj 178 369 catch~ melL;
#X obj 178 393 tapeecho~ 100 0.8;
#X obj 178 487 pan~ 0.7;
#X obj 158 532 throw~ outL;
#X obj 268 532 throw~ outR;
#X obj 358 393 tapeecho~ 100 0.8;
#X obj 358 532 throw~ outL;
#X obj 448 532 throw~ outR;
#X obj 358 369 catch~ melR;
#X obj 358 487 pan~ 0.3;
#X obj 550 430 catch~ outL;
#X obj 640 430 catch~ outR;
#X obj 606 494 outrec~;
#X obj 198 159 mtof;
#X obj 468 159 mtof;
#X obj 178 417 *~;
#X obj 358 417 *~;
#X obj 280 319 msphsl 0 1;
#X obj 280 342 ramp~;
#X obj 178 441 phaser~;
#X obj 358 441 phaser~;
#X obj 11 273 msphsl 0 1;
#X obj 11 296 ramp~;
#X obj 11 320 s~ noise;
#N canvas 45 317 450 300 noise 0;
#X obj 62 159 bob~;
#X obj 101 35 wobble;
#X obj 151 90 wobble;
#X obj 151 138 i;
#X obj 151 162 ramp~;
#X obj 62 135 noise~;
#X obj 101 83 ramp~;
#X obj 62 183 *~;
#X obj 93 182 r~ noise;
#X obj 62 207 outlet~;
#X obj 151 114 * 8;
#X obj 101 59 * 5000;
#X connect 0 0 7 0;
#X connect 1 0 11 0;
#X connect 2 0 10 0;
#X connect 3 0 4 0;
#X connect 4 0 0 2;
#X connect 5 0 0 0;
#X connect 6 0 0 1;
#X connect 7 0 9 0;
#X connect 8 0 7 1;
#X connect 10 0 3 0;
#X connect 11 0 6 0;
#X restore 135 183 pd noise;
#N canvas 150 188 450 300 noise 0;
#X obj 62 159 bob~;
#X obj 101 35 wobble;
#X obj 151 90 wobble;
#X obj 151 138 i;
#X obj 151 162 ramp~;
#X obj 62 135 noise~;
#X obj 101 83 ramp~;
#X obj 62 183 *~;
#X obj 93 182 r~ noise;
#X obj 62 207 outlet~;
#X obj 151 114 * 8;
#X obj 101 59 * 5000;
#X connect 0 0 7 0;
#X connect 1 0 11 0;
#X connect 2 0 10 0;
#X connect 3 0 4 0;
#X connect 4 0 0 2;
#X connect 5 0 0 0;
#X connect 6 0 0 1;
#X connect 7 0 9 0;
#X connect 8 0 7 1;
#X connect 10 0 3 0;
#X connect 11 0 6 0;
#X restore 405 183 pd noise;
#X obj 198 87 scaled 0 1 35 80;
#X obj 468 87 scaled 0 1 40 80;
#X obj 11 342 r tick;
#X obj 11 390 hh~, f 22;
#X obj 11 414 level~;
#X obj 11 437 throw~ outL;
#X obj 21 467 throw~ outR;
#X floatatom 57 367 5 0 0 0 - - - 0;
#X floatatom 96 367 5 0 1 0 - - - 0;
#X floatatom 135 367 5 0 1 0 - - - 0;
#X obj 11 366 sel 1;
#X obj 237 183 ahdsr~ 25 0 40 0.4 400;
#X obj 507 183 ahdsr~ 50 0 40 0.4 400;
#X connect 0 0 1 0;
#X connect 1 0 2 0;
#X connect 3 0 4 0;
#X connect 5 0 6 0;
#X connect 6 0 51 0;
#X connect 7 0 6 1;
#X connect 8 0 9 0;
#X connect 8 1 62 0;
#X connect 9 0 38 0;
#X connect 10 0 11 0;
#X connect 11 0 12 0;
#X connect 12 0 13 0;
#X connect 12 1 14 0;
#X connect 15 0 16 0;
#X connect 16 0 52 0;
#X connect 17 0 16 1;
#X connect 18 0 19 0;
#X connect 18 1 63 0;
#X connect 19 0 39 0;
#X connect 20 0 21 0;
#X connect 21 0 24 0;
#X connect 24 0 22 0;
#X connect 24 1 23 0;
#X connect 25 0 26 0;
#X connect 25 0 28 0;
#X connect 26 0 40 0;
#X connect 27 0 28 0;
#X connect 27 1 29 0;
#X connect 30 0 41 0;
#X connect 33 0 30 0;
#X connect 33 0 32 0;
#X connect 34 0 31 0;
#X connect 34 1 32 0;
#X connect 35 0 37 0;
#X connect 36 0 37 1;
#X connect 38 0 10 0;
#X connect 39 0 20 0;
#X connect 40 0 44 0;
#X connect 41 0 45 0;
#X connect 42 0 43 0;
#X connect 43 0 40 1;
#X connect 43 0 41 1;
#X connect 44 0 27 0;
#X connect 45 0 34 0;
#X connect 46 0 47 0;
#X connect 47 0 48 0;
#X connect 49 0 11 0;
#X connect 50 0 21 0;
#X connect 51 0 8 0;
#X connect 52 0 18 0;
#X connect 53 0 61 0;
#X connect 54 0 55 0;
#X connect 55 0 56 0;
#X connect 55 0 57 0;
#X connect 58 0 54 1;
#X connect 59 0 54 2;
#X connect 60 0 54 3;
#X connect 61 0 54 0;
#X connect 62 0 11 1;
#X connect 63 0 21 1;
