#N canvas 0 38 1512 884 12;
#X obj 67 20 tgl 19 0 empty empty empty 0 -10 0 12 #fcfcfc #000000 #000000 0 1;
#X obj 67 278 s pitch;
#X obj 411 45 r pitch;
#X obj 411 160 mtof;
#X obj 411 69 maybe 1;
#X obj 411 184 t f b, f 6;
#X obj 411 256 osc~;
#X obj 411 280 *~, f 6;
#X obj 411 208 sig~;
#X obj 411 232 +~;
#X obj 514 232 ramp~;
#X obj 181 44 r pitch;
#X obj 181 116 mtof;
#X obj 181 140 osc~;
#X obj 181 164 *~;
#X floatatom 302 45 5 0 0 0 - - - 0;
#X msg 302 68 to-high \$1;
#X obj 1308 99 ramp~;
#X obj 1308 76 msphsl 0 4;
#X obj 218 116 r pitch;
#X obj 218 164 sig~;
#X obj 218 140 scaled 0 1 0 200;
#X obj 411 397 throw~ outL;
#X obj 679 609 catch~ outL;
#X obj 734 232 ramp~;
#X obj 631 397 throw~ outR;
#X obj 726 590 catch~ outR;
#X obj 21 485 r pitch;
#X obj 21 600 mtof;
#X obj 21 509 maybe 1;
#X obj 21 624 t f b, f 6;
#X obj 21 696 osc~;
#X obj 21 720 *~, f 6;
#X obj 21 648 sig~;
#X obj 21 672 +~;
#X obj 124 672 ramp~;
#X obj 21 837 throw~ outL;
#X obj 344 672 ramp~;
#X obj 241 837 throw~ outR;
#X obj 943 229 r pitch;
#X obj 943 344 mtof;
#X obj 943 253 maybe 1;
#X obj 943 368 t f b, f 6;
#X obj 943 440 osc~;
#X obj 943 464 *~, f 6;
#X obj 943 392 sig~;
#X obj 943 416 +~;
#X obj 1046 416 ramp~;
#X obj 943 581 throw~ outL;
#X obj 1266 416 ramp~;
#X obj 1163 581 throw~ outR;
#X obj 181 188 s~ fm;
#X obj 441 232 r~ fm;
#X obj 51 672 r~ fm;
#X obj 973 416 r~ fm;
#X obj 1308 123 s~ res;
#X obj 799 354 r~ res;
#X obj 579 354 r~ res;
#X obj 189 794 r~ res;
#X obj 409 794 r~ res;
#X obj 1111 538 r~ res;
#X obj 1331 538 r~ res;
#X obj 411 373 bob~, f 30;
#X obj 631 373 bob~, f 30;
#X obj 21 813 bob~, f 30;
#X obj 241 813 bob~, f 30;
#X obj 943 557 bob~, f 30;
#X obj 1163 557 bob~, f 30;
#X obj 679 776 outrec~;
#X obj 552 614 r~ res;
#X obj 679 657 *~;
#X obj 726 658 *~;
#X obj 552 638 scaled~ 0 4 1 4;
#X obj 838 665 hip~ 5000;
#X obj 411 328 pan~ 0.5;
#X obj 943 512 pan~ 0.7;
#X obj 21 768 pan~ 0.3;
#X obj 679 633 /~ 2;
#X obj 726 634 /~ 2;
#X obj 838 689 tapeecho~ 250 0.7;
#X obj 838 760 pan~;
#X obj 838 713 phaser~;
#X obj 838 737 level~;
#X obj 903 38 wavefolder~.params;
#X obj 903 119 s wavefolder;
#X obj 411 304 wavefolder~.impl;
#X obj 461 280 r wavefolder;
#X obj 21 744 wavefolder~.impl;
#X obj 71 720 r wavefolder;
#X obj 943 488 wavefolder~.impl;
#X obj 993 464 r wavefolder;
#X obj 514 184 wobble;
#X obj 734 184 wobble;
#X obj 1046 368 wobble;
#X obj 1266 368 wobble;
#X obj 948 713 wobble;
#X obj 679 681 compressor2~;
#X obj 124 624 wobble;
#X obj 344 624 wobble;
#X obj 67 44 metronome 50 16;
#X obj 67 68 s tick;
#X obj 67 92 r tick;
#X obj 181 217 r tick;
#X obj 181 403 hh~, f 26;
#X floatatom 249 380 5 0 0 0 - - - 0;
#X floatatom 289 380 5 0 1 0 - - - 0;
#X floatatom 329 380 5 0 1 0 - - - 0;
#X obj 67 116 sequ;
#X obj 181 241 sequ;
#X obj 181 476 level~;
#X obj 181 499 throw~ outcomp;
#X obj 552 663 catch~ outcomp;
#X obj 181 452 *~;
#X obj 199 427 sig~;
#X obj 411 136 quantizedmode aeolian 60;
#X floatatom 334 117 5 0 0 0 - - - 0;
#X msg 334 140 to-high \$1;
#X obj 1043 582 r tick;
#X obj 1043 654 snare~;
#X obj 1043 818 level~;
#X obj 104 403 s percsequ;
#X obj 1043 606 r percsequ;
#X msg 1043 630 velocity \$1;
#X obj 1157 608 maybe 0.4;
#X obj 1043 841 throw~ outL;
#X obj 1124 841 throw~ outR;
#X obj 244 188 ahdsr~ 5 0 200 0.3 400;
#X obj 244 212 *~;
#X obj 272 212 wobble;
#X obj 272 236 scaled 0 1 50 500;
#X obj 263 265 wobble;
#X obj 263 289 scaled 0 1 50 500;
#X obj 262 312 wobble;
#X obj 262 336 scaled 0 1 50 500;
#X obj 1281 581 wobble;
#X msg 1281 629 q \$1;
#X obj 1281 605 scaled 0 1 0.4 0.8;
#X obj 181 92 quantizedmode aeolian 60;
#X obj 21 576 quantizedmode aeolian 60;
#X obj 943 320 quantizedmode aeolian 60;
#X obj 1046 392 scaled 0 1 100 6000;
#X obj 1266 392 scaled 0 1 100 6000;
#X obj 124 648 scaled 0 1 100 6000;
#X obj 344 648 scaled 0 1 100 6000;
#X obj 734 208 scaled 0 1 100 6000;
#X obj 514 208 scaled 0 1 100 6000;
#X floatatom 118 21 5 0 0 0 - - - 0;
#X obj 21 552 scaled 0 1 30 95;
#X obj 411 112 scaled 0 1 40 100;
#X obj 943 296 scaled 0 1 42 85;
#X obj 181 68 scaled 0 1 300 80;
#X obj 60 696 ahdsr~ 15 0 80 0.6 50;
#X obj 450 256 ahdsr~ 25 0 20 0.25 2000;
#X obj 982 440 ahdsr~ 35 0 80 0.1 2000;
#X obj 196 596 wobble;
#X obj 196 620 scaled 0 1 5 300;
#X obj 1121 331 wobble;
#X obj 1121 355 scaled 0 1 5 300;
#X obj 585 156 wobble;
#X obj 585 180 scaled 0 1 5 300;
#X obj 220 676 wobble;
#X obj 220 700 scaled 0 1 5 50 6000;
#X obj 631 245 wobble;
#X obj 631 269 scaled 0 1 5 50 6000;
#X obj 1155 435 wobble;
#X obj 1155 459 scaled 0 1 5 50 6000;
#X obj 837 606 wobble;
#X obj 837 630 scaled 0 1 5 500;
#X obj 771 832 *~;
#X obj 801 832 *~;
#X obj 905 817 msphsl 0 1;
#X obj 905 840 ramp~;
#X obj 791 753 * 10;
#X obj 771 808 pingpong~ 500 0.8;
#X connect 0 0 99 0;
#X connect 2 0 4 0;
#X connect 3 0 5 0;
#X connect 4 0 148 0;
#X connect 5 0 8 0;
#X connect 5 1 152 0;
#X connect 6 0 7 0;
#X connect 7 0 85 0;
#X connect 8 0 9 0;
#X connect 9 0 6 0;
#X connect 10 0 62 1;
#X connect 11 0 126 0;
#X connect 11 0 150 0;
#X connect 12 0 13 0;
#X connect 13 0 14 0;
#X connect 14 0 127 1;
#X connect 15 0 16 0;
#X connect 16 0 150 1;
#X connect 17 0 55 0;
#X connect 18 0 17 0;
#X connect 19 0 21 0;
#X connect 20 0 14 1;
#X connect 21 0 20 0;
#X connect 23 0 77 0;
#X connect 24 0 63 1;
#X connect 26 0 78 0;
#X connect 27 0 29 0;
#X connect 28 0 30 0;
#X connect 29 0 147 0;
#X connect 30 0 33 0;
#X connect 30 1 151 0;
#X connect 31 0 32 0;
#X connect 32 0 87 0;
#X connect 33 0 34 0;
#X connect 34 0 31 0;
#X connect 35 0 64 1;
#X connect 37 0 65 1;
#X connect 39 0 41 0;
#X connect 40 0 42 0;
#X connect 41 0 149 0;
#X connect 42 0 45 0;
#X connect 42 1 153 0;
#X connect 43 0 44 0;
#X connect 44 0 89 0;
#X connect 45 0 46 0;
#X connect 46 0 43 0;
#X connect 47 0 66 1;
#X connect 49 0 67 1;
#X connect 52 0 9 1;
#X connect 53 0 34 1;
#X connect 54 0 46 1;
#X connect 56 0 63 2;
#X connect 57 0 62 2;
#X connect 58 0 64 2;
#X connect 59 0 65 2;
#X connect 60 0 66 2;
#X connect 61 0 67 2;
#X connect 62 0 22 0;
#X connect 63 0 25 0;
#X connect 64 0 36 0;
#X connect 65 0 38 0;
#X connect 66 0 48 0;
#X connect 67 0 50 0;
#X connect 69 0 72 0;
#X connect 70 0 73 0;
#X connect 70 0 96 0;
#X connect 71 0 73 0;
#X connect 71 0 96 1;
#X connect 72 0 70 1;
#X connect 72 0 71 1;
#X connect 73 0 79 0;
#X connect 74 0 62 0;
#X connect 74 1 63 0;
#X connect 75 0 66 0;
#X connect 75 1 67 0;
#X connect 76 0 64 0;
#X connect 76 1 65 0;
#X connect 77 0 70 0;
#X connect 78 0 71 0;
#X connect 79 0 81 0;
#X connect 80 0 68 0;
#X connect 80 1 68 1;
#X connect 81 0 82 0;
#X connect 82 0 80 0;
#X connect 83 0 84 0;
#X connect 85 0 74 0;
#X connect 86 0 85 1;
#X connect 87 0 76 0;
#X connect 88 0 87 1;
#X connect 89 0 75 0;
#X connect 90 0 89 1;
#X connect 91 0 145 0;
#X connect 92 0 144 0;
#X connect 93 0 140 0;
#X connect 94 0 141 0;
#X connect 95 0 80 1;
#X connect 96 0 68 0;
#X connect 96 1 68 1;
#X connect 97 0 142 0;
#X connect 98 0 143 0;
#X connect 99 0 100 0;
#X connect 101 0 107 0;
#X connect 102 0 108 0;
#X connect 103 0 112 0;
#X connect 104 0 103 1;
#X connect 105 0 103 2;
#X connect 106 0 103 3;
#X connect 107 0 1 0;
#X connect 108 0 103 0;
#X connect 108 0 113 0;
#X connect 108 0 120 0;
#X connect 109 0 110 0;
#X connect 111 0 96 0;
#X connect 111 0 96 1;
#X connect 112 0 109 0;
#X connect 113 0 112 1;
#X connect 114 0 3 0;
#X connect 115 0 116 0;
#X connect 116 0 21 1;
#X connect 118 0 119 0;
#X connect 119 0 124 0;
#X connect 119 0 125 0;
#X connect 121 0 123 0;
#X connect 122 0 118 0;
#X connect 123 0 122 0;
#X connect 126 0 127 0;
#X connect 127 0 51 0;
#X connect 128 0 129 0;
#X connect 129 0 126 1;
#X connect 130 0 131 0;
#X connect 131 0 126 3;
#X connect 132 0 133 0;
#X connect 133 0 126 5;
#X connect 134 0 136 0;
#X connect 135 0 118 0;
#X connect 136 0 135 0;
#X connect 137 0 12 0;
#X connect 138 0 28 0;
#X connect 139 0 40 0;
#X connect 140 0 47 0;
#X connect 141 0 49 0;
#X connect 142 0 35 0;
#X connect 143 0 37 0;
#X connect 144 0 24 0;
#X connect 145 0 10 0;
#X connect 146 0 99 1;
#X connect 147 0 138 0;
#X connect 148 0 114 0;
#X connect 149 0 139 0;
#X connect 150 0 137 0;
#X connect 151 0 32 1;
#X connect 152 0 7 1;
#X connect 153 0 44 1;
#X connect 154 0 155 0;
#X connect 155 0 151 1;
#X connect 156 0 157 0;
#X connect 157 0 153 1;
#X connect 158 0 159 0;
#X connect 159 0 152 1;
#X connect 160 0 161 0;
#X connect 161 0 151 5;
#X connect 162 0 163 0;
#X connect 163 0 152 5;
#X connect 164 0 165 0;
#X connect 165 0 153 5;
#X connect 166 0 167 0;
#X connect 167 0 79 1;
#X connect 167 0 172 0;
#X connect 168 0 68 0;
#X connect 169 0 68 1;
#X connect 170 0 171 0;
#X connect 171 0 169 1;
#X connect 171 0 168 1;
#X connect 172 0 173 1;
#X connect 173 0 168 0;
#X connect 173 1 169 0;
