#N canvas 0 38 1512 884 12;
#X obj 11 10 tgl 19 0 empty empty empty 0 -10 0 12 #fcfcfc #000000 #000000 0 1;
#X obj 11 34 metronome 40 16;
#X obj 11 58 s tick;
#X obj 488 276 r tick;
#X obj 488 300 sequ.impl;
#X obj 538 276 r sequ;
#X obj 11 82 sequ.params;
#X obj 11 244 s sequ;
#X obj 488 324 sig~;
#X obj 476 512 bob~, f 14;
#X obj 588 276 r tick;
#X obj 588 300 sequ.impl;
#X obj 638 276 r sequ;
#X obj 588 348 sig~;
#X obj 276 113 r tick;
#X obj 276 137 sequ.impl;
#X obj 326 113 r sequ;
#X obj 276 281 unpack f f f f, f 21;
#X obj 276 209 i;
#X obj 276 305 mtof;
#X obj 316 305 mtof;
#X obj 356 305 mtof;
#X obj 396 305 mtof;
#X obj 276 329 saw~;
#X obj 316 329 saw~;
#X obj 356 329 saw~;
#X obj 396 329 saw~;
#X obj 276 383 *~ 0.25;
#X obj 476 638 outrec~;
#X obj 276 185 * 7;
#X obj 276 233 + 1;
#X obj 588 324 easeincubic;
#X obj 488 348 *~ 24000;
#X obj 276 161 t f b;
#X obj 308 185 s gate;
#X obj 332 383 r gate;
#X obj 276 257 chord mixolydian 48;
#X obj 396 353 *~ 0.25;
#X obj 657 615 pingpong~ 100 0.8;
#X obj 465 613 compressor2~;
#X obj 657 592 level~;
#X obj 657 568 hip~ 2500;
#X obj 588 372 *~ 5;
#X obj 689 348 hh~;
#X obj 689 276 r tick;
#X obj 689 300 sequ.impl;
#X obj 739 276 r sequ;
#X msg 689 324 velocity \$1;
#X obj 1047 335 snare~;
#X obj 1047 499 level~;
#X obj 689 455 level~;
#X obj 689 478 pan~ 0.3;
#X obj 1047 522 pan~ 0.7;
#X obj 689 523 throw~ outL;
#X obj 779 523 throw~ outR;
#X obj 1047 567 throw~ outL;
#X obj 1137 567 throw~ outR;
#X obj 228 554 catch~ outL;
#X obj 309 554 catch~ outC;
#X obj 390 554 catch~ outR;
#X obj 332 431 *~ 8000;
#X obj 276 459 bob~, f 16;
#X obj 403 479 ramp~;
#X obj 403 455 scaled 0 1 0 4;
#X obj 403 431 wobble 3000 8000;
#X obj 120 390 noise~;
#X obj 120 414 level~;
#X obj 59 460 pink~;
#X obj 59 484 level~;
#X obj 101 460 wobble;
#X obj 59 507 level~;
#X obj 332 407 ahdsr~ 5 50 0 0 5;
#X obj 437 276 wobble;
#X obj 632 12 r tick;
#X obj 632 36 counter 32;
#X obj 632 114 migrids;
#X obj 1020 52 kick~;
#X obj 1020 251 level~;
#X obj 1020 274 throw~ outC;
#X msg 1020 28 velocity \$1;
#X obj 437 300 *;
#X floatatom 455 255 5 0 0 0 - - - 0;
#X connect 0 0 1 0;
#X connect 1 0 2 0;
#X connect 3 0 4 0;
#X connect 4 0 8 0;
#X connect 5 0 4 1;
#X connect 6 0 7 0;
#X connect 8 0 32 0;
#X connect 9 0 39 0;
#X connect 9 0 39 1;
#X connect 9 0 41 0;
#X connect 10 0 11 0;
#X connect 11 0 31 0;
#X connect 12 0 11 1;
#X connect 13 0 42 0;
#X connect 14 0 15 0;
#X connect 15 0 33 0;
#X connect 16 0 15 1;
#X connect 17 0 19 0;
#X connect 17 1 20 0;
#X connect 17 2 21 0;
#X connect 17 3 22 0;
#X connect 18 0 30 0;
#X connect 19 0 23 0;
#X connect 20 0 24 0;
#X connect 21 0 25 0;
#X connect 22 0 26 0;
#X connect 23 0 27 0;
#X connect 24 0 27 0;
#X connect 25 0 27 0;
#X connect 26 0 37 0;
#X connect 27 0 61 0;
#X connect 29 0 18 0;
#X connect 30 0 36 0;
#X connect 31 0 13 0;
#X connect 32 0 9 1;
#X connect 33 0 29 0;
#X connect 33 1 34 0;
#X connect 35 0 71 0;
#X connect 36 0 17 0;
#X connect 37 0 27 0;
#X connect 38 0 39 0;
#X connect 38 1 39 1;
#X connect 39 0 28 0;
#X connect 39 1 28 1;
#X connect 40 0 38 0;
#X connect 41 0 40 0;
#X connect 42 0 9 2;
#X connect 43 0 50 0;
#X connect 44 0 45 0;
#X connect 45 0 47 0;
#X connect 46 0 45 1;
#X connect 47 0 43 0;
#X connect 47 0 48 0;
#X connect 48 0 49 0;
#X connect 49 0 52 0;
#X connect 50 0 51 0;
#X connect 51 0 53 0;
#X connect 51 1 54 0;
#X connect 52 0 55 0;
#X connect 52 1 56 0;
#X connect 57 0 39 0;
#X connect 58 0 39 0;
#X connect 58 0 39 1;
#X connect 59 0 39 1;
#X connect 60 0 61 1;
#X connect 61 0 9 0;
#X connect 62 0 61 2;
#X connect 63 0 62 0;
#X connect 64 0 63 0;
#X connect 65 0 66 0;
#X connect 66 0 61 0;
#X connect 67 0 68 0;
#X connect 68 0 70 0;
#X connect 69 0 68 1;
#X connect 70 0 9 0;
#X connect 71 0 60 0;
#X connect 72 0 80 0;
#X connect 73 0 74 0;
#X connect 74 0 75 0;
#X connect 75 0 79 0;
#X connect 76 0 77 0;
#X connect 77 0 78 0;
#X connect 79 0 76 0;
#X connect 80 0 71 2;
#X connect 81 0 80 1;
