#N canvas 0 38 1512 884 12;
#X obj 18 10 tgl 19 0 empty empty empty 0 -10 0 12 #fcfcfc #000000 #000000 0 1;
#X obj 18 34 metronome 40 16;
#X obj 18 58 s tick;
#X obj 18 82 sequ.params;
#X obj 18 244 s sequ;
#X obj 348 97 r tick;
#X obj 348 121 sequ.impl;
#X obj 408 97 r sequ;
#X obj 635 346 catch~ outL;
#X obj 716 346 catch~ outC;
#X obj 797 346 catch~ outR;
#X obj 735 425 compressor2~;
#X obj 735 449 outrec~;
#X obj 348 145 scaled 0 1 50 85;
#X obj 348 169 quantizedmode phrygian 60;
#X obj 348 193 mtof;
#X obj 438 315 throw~ todelay;
#X obj 838 50 catch~ todelay;
#X obj 838 97 *~ 0.5;
#X obj 838 251 tapeecho~ 200 0.8;
#X obj 968 251 tapeecho~ 200 0.8;
#X obj 838 275 throw~ outL;
#X obj 896 179 r tick;
#X obj 896 203 sequ.impl;
#X obj 956 179 r sequ;
#X obj 1026 179 r tick;
#X obj 1026 203 sequ.impl;
#X obj 1086 179 r sequ;
#X obj 896 227 scaled 0 1 10 500;
#X obj 1026 227 scaled 0 1 10 500;
#X obj 968 275 throw~ outR;
#X obj 348 315 throw~ outC;
#X obj 348 217 osc~;
#X obj 348 265 *~ 1;
#X obj 348 241 vibrato~;
#X obj 171 430 *~;
#X obj 222 406 wobble;
#X obj 222 430 ramp~;
#X obj 171 501 pan~;
#X obj 272 406 wobble;
#X obj 171 478 level~;
#X obj 171 454 phaser~;
#X obj 171 546 throw~ outL;
#X obj 281 546 throw~ outR;
#X obj 171 406 pink~;
#X obj 114 406 noise~;
#X obj 42 406 noiseosc~;
#X msg 42 382 261.6;
#X obj 468 461 r tick;
#X obj 468 485 -, f 12;
#X floatatom 517 461 5 0 0 0 - - - 0;
#X msg 468 557 velocity 1;
#X obj 468 581 kick~;
#X obj 468 780 level~;
#X obj 468 803 throw~ outC;
#X obj 468 509 % 16;
#X obj 468 533 sel 0;
#X obj 827 581 hh~;
#X obj 827 688 level~;
#X obj 827 711 throw~ outC;
#X obj 1032 732 throw~ outC;
#X obj 1032 708 echo~ 80 0.7;
#X obj 106 579 snare~;
#X obj 106 743 level~;
#X obj 106 766 throw~ outC;
#X obj 176 218 osc~;
#X obj 172 168 * 1.1;
#X obj 176 242 level~;
#X floatatom 204 144 5 0 0 0 - - - 0;
#X obj 567 220 osc~;
#X obj 563 170 * 1.1;
#X obj 567 244 level~;
#X floatatom 595 146 5 0 0 0 - - - 0;
#X obj 567 267 vibrato~;
#X obj 838 74 level~;
#X connect 0 0 1 0;
#X connect 1 0 2 0;
#X connect 3 0 4 0;
#X connect 5 0 6 0;
#X connect 6 0 13 0;
#X connect 7 0 6 1;
#X connect 8 0 11 0;
#X connect 9 0 11 0;
#X connect 9 0 11 1;
#X connect 10 0 11 1;
#X connect 11 0 12 0;
#X connect 11 1 12 1;
#X connect 13 0 14 0;
#X connect 14 0 15 0;
#X connect 15 0 32 0;
#X connect 15 0 66 0;
#X connect 15 0 70 0;
#X connect 17 0 74 0;
#X connect 18 0 19 0;
#X connect 18 0 20 0;
#X connect 19 0 21 0;
#X connect 20 0 30 0;
#X connect 22 0 23 0;
#X connect 23 0 28 0;
#X connect 24 0 23 1;
#X connect 25 0 26 0;
#X connect 26 0 29 0;
#X connect 27 0 26 1;
#X connect 28 0 19 1;
#X connect 29 0 20 1;
#X connect 32 0 34 0;
#X connect 33 0 31 0;
#X connect 33 0 16 0;
#X connect 34 0 33 0;
#X connect 35 0 41 0;
#X connect 36 0 37 0;
#X connect 37 0 35 1;
#X connect 38 0 42 0;
#X connect 38 1 43 0;
#X connect 39 0 38 1;
#X connect 40 0 38 0;
#X connect 41 0 40 0;
#X connect 44 0 35 0;
#X connect 45 0 35 0;
#X connect 46 0 35 0;
#X connect 47 0 46 0;
#X connect 48 0 49 0;
#X connect 49 0 55 0;
#X connect 50 0 49 1;
#X connect 51 0 52 0;
#X connect 51 0 57 0;
#X connect 51 0 62 0;
#X connect 52 0 53 0;
#X connect 53 0 54 0;
#X connect 55 0 56 0;
#X connect 56 0 51 0;
#X connect 57 0 58 0;
#X connect 58 0 59 0;
#X connect 58 0 61 0;
#X connect 61 0 60 0;
#X connect 62 0 63 0;
#X connect 63 0 64 0;
#X connect 65 0 67 0;
#X connect 66 0 65 0;
#X connect 67 0 34 0;
#X connect 68 0 66 1;
#X connect 69 0 71 0;
#X connect 70 0 69 0;
#X connect 71 0 73 0;
#X connect 72 0 70 1;
#X connect 73 0 33 0;
#X connect 74 0 18 0;
