#N canvas 0 38 1512 884 12;
#X obj 6 10 tgl 19 0 empty empty empty 0 -10 0 12 #fcfcfc #000000 #000000 0 1;
#X obj 6 34 metronome 35 16;
#X obj 6 58 s tick;
#X obj 6 82 sequ.params;
#X obj 6 244 s sequ;
#X obj 394 123 r tick;
#X obj 394 147 sequ.impl;
#X obj 454 123 r sequ;
#X obj 394 171 t b f;
#X obj 394 291 *~, f 5;
#X obj 426 219 sig~;
#X obj 280 315 bob~, f 33;
#X obj 508 123 r tick;
#X obj 508 147 sequ.impl;
#X obj 568 123 r sequ;
#X obj 508 195 sig~;
#X obj 280 384 throw~ outL;
#X obj 390 384 throw~ outR;
#X obj 1247 753 catch~ outL;
#X obj 1409 753 catch~ outR;
#X obj 1328 753 catch~ outC;
#X obj 1324 793 compressor2~;
#X obj 1324 817 outrec~;
#X obj 426 195 * 10000;
#X obj 643 123 r tick;
#X obj 643 147 sequ.impl;
#X obj 703 123 r sequ;
#X obj 643 171 t b f;
#X obj 643 291 *~, f 5;
#X obj 675 219 sig~;
#X obj 529 315 bob~, f 33;
#X obj 757 123 r tick;
#X obj 757 147 sequ.impl;
#X obj 817 123 r sequ;
#X obj 757 195 sig~;
#X obj 529 339 pan~;
#X obj 529 384 throw~ outL;
#X obj 639 384 throw~ outR;
#X obj 907 123 r tick;
#X obj 907 147 sequ.impl;
#X obj 967 123 r sequ;
#X obj 907 171 t b f;
#X obj 907 291 *~, f 5;
#X obj 939 219 sig~;
#X obj 793 315 bob~, f 33;
#X obj 1021 123 r tick;
#X obj 1021 147 sequ.impl;
#X obj 1081 123 r sequ;
#X obj 1021 195 sig~;
#X obj 793 384 throw~ outL;
#X obj 903 384 throw~ outR;
#X obj 939 195 * 10000;
#X obj 280 339 pan~ 0.25;
#X obj 793 339 pan~ 0.75;
#X obj 16 681 r tick;
#X obj 16 705 migrids;
#X obj 16 854 s kick;
#X obj 538 497 r kick;
#X msg 538 521 velocity \$1;
#X obj 538 545 kick~;
#X obj 538 768 level~;
#X obj 538 791 throw~ outC;
#X obj 153 854 s hat;
#X msg 908 521 velocity \$1;
#X obj 908 774 level~;
#X obj 908 797 throw~ outC;
#X obj 908 497 r hat;
#X obj 908 545 hh~;
#X obj 281 626 r tick;
#X obj 281 650 sequ.impl;
#X obj 341 626 r sequ;
#X msg 281 674 x \$1;
#X obj 401 626 r tick;
#X obj 401 650 sequ.impl;
#X obj 461 626 r sequ;
#X msg 401 674 y \$1;
#X floatatom 57 11 5 0 0 0 - - - 0;
#X obj 959 668 level~;
#X obj 1270 634 r tick;
#X obj 1270 658 sequ.impl;
#X obj 1330 634 r sequ;
#X obj 1270 682 * 200;
#X floatatom 1270 706 5 0 0 0 - - - 0;
#X obj 959 691 tapeecho~ 100 0.7;
#X obj 959 715 pan~;
#X obj 1082 713 wobble;
#X obj 1082 737 scaled 0 1 0.2 0.8;
#X obj 201 123 wobble;
#X obj 201 171 s decay;
#X obj 257 123 wobble;
#X obj 257 171 s release;
#X obj 442 243 r decay;
#X obj 502 243 r release;
#X obj 692 243 r decay;
#X obj 752 243 r release;
#X obj 952 243 r decay;
#X obj 1012 243 r release;
#X obj 104 268 r tick;
#X obj 104 292 sequ.impl;
#X obj 164 268 r sequ;
#X obj 104 316 scaled 0 1 50 80;
#X obj 104 340 quantizedmode aeolian 60;
#X obj 104 364 mtof;
#X obj 104 412 vibrato~;
#X obj 104 436 level~;
#X obj 1122 341 r tick;
#X obj 1122 365 sequ.impl;
#X obj 1182 341 r sequ;
#X obj 1122 389 scaled 0 1 50 80;
#X obj 1122 413 quantizedmode aeolian 60;
#X obj 1122 437 mtof;
#X obj 1122 485 vibrato~;
#X obj 1122 509 level~;
#X obj 508 171 * 4;
#X obj 757 171 * 4;
#X obj 1021 171 * 4;
#X obj 280 291 pink~;
#X obj 529 291 pink~;
#X obj 793 291 pink~;
#X obj 104 388 saw~;
#X obj 1122 461 saw~;
#X obj 394 267 ahdsr~ 5 0 15 0.15 100;
#X obj 907 267 ahdsr~ 5 0 15 0.15 100;
#X obj 675 195 * 8000;
#X obj 538 744 vibrato~;
#X obj 39 446 osc~;
#X obj 39 470 vibrato~;
#X obj 39 494 level~;
#X obj 1293 478 osc~;
#X obj 1293 502 vibrato~;
#X obj 1293 526 level~;
#X obj 1142 7 r snare;
#X msg 1142 31 velocity \$1;
#X obj 1142 55 snare~;
#X obj 1142 219 level~;
#X obj 1142 242 throw~ outC;
#X obj 84 854 s snare;
#X obj 201 147 * 250;
#X obj 257 147 * 250;
#X obj 643 267 ahdsr~ 50 0 15 0.5 4000;
#X connect 0 0 1 0;
#X connect 1 0 2 0;
#X connect 3 0 4 0;
#X connect 5 0 6 0;
#X connect 6 0 8 0;
#X connect 7 0 6 1;
#X connect 8 0 121 0;
#X connect 8 1 23 0;
#X connect 9 0 11 1;
#X connect 10 0 9 1;
#X connect 11 0 52 0;
#X connect 12 0 13 0;
#X connect 13 0 113 0;
#X connect 14 0 13 1;
#X connect 15 0 11 2;
#X connect 18 0 21 0;
#X connect 19 0 21 1;
#X connect 20 0 21 0;
#X connect 20 0 21 1;
#X connect 21 0 22 0;
#X connect 21 1 22 1;
#X connect 23 0 10 0;
#X connect 24 0 25 0;
#X connect 25 0 27 0;
#X connect 26 0 25 1;
#X connect 27 0 139 0;
#X connect 27 1 123 0;
#X connect 28 0 30 1;
#X connect 29 0 28 1;
#X connect 30 0 35 0;
#X connect 31 0 32 0;
#X connect 32 0 114 0;
#X connect 33 0 32 1;
#X connect 34 0 30 2;
#X connect 35 0 36 0;
#X connect 35 1 37 0;
#X connect 38 0 39 0;
#X connect 39 0 41 0;
#X connect 40 0 39 1;
#X connect 41 0 122 0;
#X connect 41 1 51 0;
#X connect 42 0 44 1;
#X connect 43 0 42 1;
#X connect 44 0 53 0;
#X connect 45 0 46 0;
#X connect 46 0 115 0;
#X connect 47 0 46 1;
#X connect 48 0 44 2;
#X connect 51 0 43 0;
#X connect 52 0 16 0;
#X connect 52 1 17 0;
#X connect 53 0 49 0;
#X connect 53 1 50 0;
#X connect 54 0 55 0;
#X connect 55 0 56 0;
#X connect 55 1 136 0;
#X connect 55 2 62 0;
#X connect 57 0 58 0;
#X connect 58 0 59 0;
#X connect 59 0 124 0;
#X connect 60 0 61 0;
#X connect 63 0 67 0;
#X connect 64 0 65 0;
#X connect 66 0 63 0;
#X connect 67 0 64 0;
#X connect 67 0 77 0;
#X connect 68 0 69 0;
#X connect 69 0 71 0;
#X connect 70 0 69 1;
#X connect 71 0 55 1;
#X connect 72 0 73 0;
#X connect 73 0 75 0;
#X connect 74 0 73 1;
#X connect 75 0 55 1;
#X connect 76 0 1 1;
#X connect 77 0 83 0;
#X connect 78 0 79 0;
#X connect 79 0 81 0;
#X connect 80 0 79 1;
#X connect 81 0 82 0;
#X connect 81 0 83 1;
#X connect 83 0 84 0;
#X connect 84 0 65 0;
#X connect 85 0 86 0;
#X connect 86 0 84 1;
#X connect 87 0 137 0;
#X connect 89 0 138 0;
#X connect 91 0 121 3;
#X connect 92 0 121 5;
#X connect 93 0 139 3;
#X connect 94 0 139 5;
#X connect 95 0 122 3;
#X connect 96 0 122 5;
#X connect 97 0 98 0;
#X connect 98 0 100 0;
#X connect 99 0 98 1;
#X connect 100 0 101 0;
#X connect 101 0 102 0;
#X connect 102 0 119 0;
#X connect 102 0 125 0;
#X connect 103 0 104 0;
#X connect 104 0 11 0;
#X connect 105 0 106 0;
#X connect 106 0 108 0;
#X connect 107 0 106 1;
#X connect 108 0 109 0;
#X connect 109 0 110 0;
#X connect 110 0 120 0;
#X connect 110 0 128 0;
#X connect 111 0 112 0;
#X connect 112 0 44 0;
#X connect 113 0 15 0;
#X connect 114 0 34 0;
#X connect 115 0 48 0;
#X connect 116 0 11 0;
#X connect 117 0 30 0;
#X connect 118 0 44 0;
#X connect 119 0 103 0;
#X connect 120 0 111 0;
#X connect 121 0 9 0;
#X connect 122 0 42 0;
#X connect 123 0 29 0;
#X connect 124 0 60 0;
#X connect 125 0 126 0;
#X connect 126 0 127 0;
#X connect 127 0 104 0;
#X connect 128 0 129 0;
#X connect 129 0 130 0;
#X connect 130 0 112 0;
#X connect 131 0 132 0;
#X connect 132 0 133 0;
#X connect 133 0 134 0;
#X connect 134 0 135 0;
#X connect 137 0 88 0;
#X connect 138 0 90 0;
#X connect 139 0 28 0;
