#N canvas 0 38 1512 884 12;
#X obj 482 50 tgl 19 0 empty empty empty 0 -10 0 12 #fcfcfc #000000 #000000 0 1;
#X obj 482 74 metronome 40 16;
#X obj 482 98 sequ;
#X obj 665 792 compressor2~;
#X obj 302 392 t f b;
#X obj 308 365 mtof;
#X obj 315 298 scaled 0 1 40 73;
#X obj 534 390 t f b;
#X obj 540 363 mtof;
#X obj 516 657 pan~ 0.5;
#X obj 581 513 ahdsr~ 50 0 500 0.3 5;
#X obj 800 397 t f b;
#X obj 806 370 mtof;
#X obj 1032 395 t f b;
#X obj 1038 368 mtof;
#X obj 1079 518 ahdsr~ 100 0 250 0.3 500;
#X obj 827 658 pan~ 0.5;
#X obj 302 416 ramp~;
#X obj 302 440 +~;
#X obj 533 415 ramp~;
#X obj 533 439 +~;
#X obj 798 424 ramp~;
#X obj 798 448 +~;
#X obj 1031 420 ramp~;
#X obj 1031 444 +~;
#X obj 840 594 ramp~;
#X floatatom 840 572 5 0 0 0 - - - 0;
#X obj 540 605 ramp~;
#X floatatom 540 583 5 0 0 0 - - - 0;
#X floatatom 656 566 5 0 0 0 - - - 0;
#X obj 746 658 throw~ bp;
#X obj 299 609 throw~ raw;
#X obj 702 599 throw~ raw;
#X obj 1095 673 msphsl 0 1;
#X obj 1095 696 t f f;
#X obj 1122 724 oneminus;
#X obj 1095 648 scaled 0 1 0.05 0.2;
#X obj 1095 624 wobble 2000 20000;
#X obj 547 296 scaled 0 1 50 80;
#X obj 813 303 scaled 0 1 55 93;
#X obj 1045 301 scaled 0 1 48 85;
#X obj 301 514 square~;
#X obj 533 512 square~;
#X obj 799 519 square~;
#X obj 1031 517 square~;
#X obj 364 449 wobble;
#X obj 549 479 wobble;
#X obj 831 488 wobble;
#X obj 1054 486 wobble;
#X obj 301 578 bob~, f 8;
#X obj 503 567 bob~;
#X obj 799 578 bob~;
#X obj 1031 569 bob~;
#X obj 581 537 *~ 10000;
#X obj 731 112 ramp~ 8000;
#X obj 731 64 wobble 8000 20000;
#X obj 731 136 s~ q1;
#X obj 861 112 ramp~ 8000;
#X obj 861 64 wobble 8000 20000;
#X obj 861 136 s~ q2;
#X obj 991 112 ramp~ 8000;
#X obj 991 64 wobble 8000 20000;
#X obj 1121 112 ramp~ 8000;
#X obj 1121 64 wobble 8000 20000;
#X obj 991 136 s~ q3;
#X obj 1121 136 s~ q4;
#X obj 365 578 r~ q1;
#X obj 576 563 r~ q2;
#X obj 909 562 r~ q3;
#X obj 1154 553 r~ q3;
#X obj 222 496 noise~;
#X obj 222 520 *~;
#X obj 240 473 r~ noise;
#X obj 447 412 noise~;
#X obj 447 436 *~;
#X obj 465 389 r~ noise;
#X obj 716 400 noise~;
#X obj 716 424 *~;
#X obj 734 377 r~ noise;
#X obj 950 400 noise~;
#X obj 950 424 *~;
#X obj 968 377 r~ noise;
#X obj 1249 65 msphsl 0 1;
#X obj 1249 88 ramp~;
#X obj 1249 112 s~ noise;
#X obj 301 538 vibrato~;
#X obj 533 536 vibrato~;
#X obj 799 543 vibrato~;
#X obj 1031 541 vibrato~;
#X obj 315 322 quantizedmode phrygian 60;
#X obj 547 320 quantizedmode phrygian 60;
#X obj 813 327 quantizedmode phrygian 60;
#X obj 1045 325 quantizedmode phrygian 60;
#X obj 847 520 ahdsr~ 500 0 50 0.3 5;
#X obj 365 726 echo~ 250 0.7;
#X obj 465 726 echo~ 250 0.7;
#X obj 801 725 echo~ 250 0.7;
#X obj 901 725 echo~ 250 0.7;
#X obj 365 750 *~;
#X obj 465 750 *~;
#X obj 801 749 *~;
#X obj 901 749 *~;
#X obj 394 750 r~ echo;
#X obj 494 750 r~ echo;
#X obj 831 749 r~ echo;
#X obj 931 749 r~ echo;
#X obj 731 88 * 4.5;
#X obj 991 88 * 4.5;
#X obj 1121 88 * 4.5;
#X obj 1249 135 msphsl 0 1;
#X obj 1249 158 ramp~;
#X obj 1249 182 s~ echo;
#X obj 363 474 ahdsr~ 25 0 50 0.1 500;
#X obj 363 498 *~ 8000;
#X obj 1079 542 *~ 12000;
#X obj 847 544 *~ 5000;
#X obj 655 541 * 9000;
#X obj 861 88 * 3;
#X floatatom 533 51 5 0 0 0 - - - 0;
#X obj 665 816 outrec~;
#X obj 516 633 bob~;
#X obj 827 634 bob~;
#X obj 36 132 hh~;
#X obj 36 13 % 4;
#X obj 36 37 sel 0;
#X obj 36 239 level~;
#X obj 36 262 pan~;
#X obj 159 260 wobble;
#X obj 36 60 randrange 50 100;
#X obj 36 84 / 100;
#X msg 36 108 velocity \$1;
#X floatatom 1239 449 5 0 0 0 - - - 0;
#X obj 1239 425 musicmouse phrygian 60;
#X obj 1241 371 msphsl 0 1;
#X obj 1253 398 msphsl 0 1;
#X floatatom 1281 449 5 0 0 0 - - - 0;
#X floatatom 1329 449 5 0 0 0 - - - 0;
#X floatatom 1371 449 5 0 0 0 - - - 0;
#X obj 159 284 scaled 0 1 0.4 0.6;
#X obj 1284 485 maybe 0.3;
#X obj 1284 528 t b f;
#X obj 1284 576 *~;
#X obj 1342 599 osc~;
#X obj 1342 623 vibrato~;
#X obj 1341 576 mtof;
#X obj 1350 645 noise~;
#X obj 1350 669 level~;
#X obj 1284 700 level~;
#X obj 1284 723 pan~;
#X obj 1271 791 wobble;
#X obj 1271 815 scaled 0 1 0.35 0.65;
#X obj 1284 552 ahdsr~ 5 0 100 0.4 50;
#X connect 0 0 1 0;
#X connect 1 0 2 0;
#X connect 1 0 123 0;
#X connect 2 0 6 0;
#X connect 2 0 38 0;
#X connect 2 0 39 0;
#X connect 2 0 40 0;
#X connect 2 0 116 0;
#X connect 3 0 119 0;
#X connect 3 1 119 1;
#X connect 4 0 17 0;
#X connect 4 1 112 0;
#X connect 5 0 4 0;
#X connect 6 0 89 0;
#X connect 7 0 19 0;
#X connect 7 1 10 0;
#X connect 8 0 7 0;
#X connect 9 0 3 0;
#X connect 9 0 94 0;
#X connect 9 1 3 1;
#X connect 9 1 95 0;
#X connect 10 0 53 0;
#X connect 11 0 21 0;
#X connect 11 1 93 0;
#X connect 12 0 11 0;
#X connect 13 0 23 0;
#X connect 13 1 15 0;
#X connect 14 0 13 0;
#X connect 15 0 114 0;
#X connect 16 0 3 0;
#X connect 16 0 96 0;
#X connect 16 1 3 1;
#X connect 16 1 97 0;
#X connect 17 0 18 0;
#X connect 18 0 41 0;
#X connect 19 0 20 0;
#X connect 20 0 42 0;
#X connect 21 0 22 0;
#X connect 22 0 43 0;
#X connect 23 0 24 0;
#X connect 24 0 44 0;
#X connect 25 0 121 1;
#X connect 26 0 25 0;
#X connect 27 0 120 1;
#X connect 28 0 27 0;
#X connect 29 0 28 0;
#X connect 29 0 26 0;
#X connect 33 0 34 0;
#X connect 34 0 9 1;
#X connect 34 1 35 0;
#X connect 35 0 16 1;
#X connect 36 0 33 0;
#X connect 37 0 36 0;
#X connect 38 0 90 0;
#X connect 39 0 91 0;
#X connect 40 0 92 0;
#X connect 41 0 85 0;
#X connect 42 0 86 0;
#X connect 43 0 87 0;
#X connect 44 0 88 0;
#X connect 45 0 41 1;
#X connect 46 0 42 1;
#X connect 47 0 43 1;
#X connect 48 0 44 1;
#X connect 49 0 31 0;
#X connect 49 0 120 0;
#X connect 50 0 120 0;
#X connect 51 0 32 0;
#X connect 51 0 121 0;
#X connect 52 0 121 0;
#X connect 53 0 50 1;
#X connect 54 0 56 0;
#X connect 55 0 106 0;
#X connect 57 0 59 0;
#X connect 58 0 117 0;
#X connect 60 0 64 0;
#X connect 61 0 107 0;
#X connect 62 0 65 0;
#X connect 63 0 108 0;
#X connect 66 0 49 2;
#X connect 67 0 50 2;
#X connect 68 0 51 2;
#X connect 69 0 52 2;
#X connect 70 0 71 0;
#X connect 71 0 49 0;
#X connect 72 0 71 1;
#X connect 73 0 74 0;
#X connect 74 0 50 0;
#X connect 75 0 74 1;
#X connect 76 0 77 0;
#X connect 77 0 51 0;
#X connect 78 0 77 1;
#X connect 79 0 80 0;
#X connect 80 0 52 0;
#X connect 81 0 80 1;
#X connect 82 0 83 0;
#X connect 83 0 84 0;
#X connect 85 0 49 0;
#X connect 86 0 50 0;
#X connect 87 0 51 0;
#X connect 88 0 52 0;
#X connect 89 0 5 0;
#X connect 90 0 8 0;
#X connect 91 0 12 0;
#X connect 92 0 14 0;
#X connect 93 0 115 0;
#X connect 94 0 98 0;
#X connect 95 0 99 0;
#X connect 96 0 100 0;
#X connect 97 0 101 0;
#X connect 98 0 3 0;
#X connect 99 0 3 1;
#X connect 100 0 3 0;
#X connect 101 0 3 1;
#X connect 102 0 98 1;
#X connect 103 0 99 1;
#X connect 104 0 100 1;
#X connect 105 0 101 1;
#X connect 106 0 54 0;
#X connect 107 0 60 0;
#X connect 108 0 62 0;
#X connect 109 0 110 0;
#X connect 110 0 111 0;
#X connect 112 0 113 0;
#X connect 113 0 49 1;
#X connect 114 0 52 1;
#X connect 115 0 51 1;
#X connect 116 0 29 0;
#X connect 117 0 57 0;
#X connect 118 0 1 1;
#X connect 120 0 9 0;
#X connect 121 0 30 0;
#X connect 121 0 16 0;
#X connect 122 0 125 0;
#X connect 123 0 124 0;
#X connect 124 0 128 0;
#X connect 125 0 126 0;
#X connect 126 0 3 0;
#X connect 126 1 3 1;
#X connect 127 0 138 0;
#X connect 128 0 129 0;
#X connect 129 0 130 0;
#X connect 130 0 122 0;
#X connect 131 0 139 0;
#X connect 132 0 131 0;
#X connect 132 1 135 0;
#X connect 132 2 136 0;
#X connect 132 3 137 0;
#X connect 133 0 132 0;
#X connect 134 0 132 1;
#X connect 135 0 139 0;
#X connect 136 0 139 0;
#X connect 137 0 139 0;
#X connect 138 0 126 1;
#X connect 139 0 140 0;
#X connect 140 0 151 0;
#X connect 140 1 144 0;
#X connect 141 0 147 0;
#X connect 142 0 143 0;
#X connect 143 0 141 1;
#X connect 144 0 142 0;
#X connect 145 0 146 0;
#X connect 146 0 141 1;
#X connect 147 0 148 0;
#X connect 148 0 3 0;
#X connect 148 0 96 0;
#X connect 148 0 94 0;
#X connect 148 1 3 1;
#X connect 148 1 97 0;
#X connect 148 1 95 0;
#X connect 149 0 150 0;
#X connect 150 0 148 1;
#X connect 151 0 141 0;
