#N canvas 14 38 1504 884 12;
#X obj 6 10 tgl 19 0 empty empty empty 0 -10 0 12 #fcfcfc #000000 #000000 0 1;
#X obj 6 58 s tick;
#X obj 6 82 sequ.params;
#X obj 6 244 s sequ;
#X obj 394 81 t b f;
#X obj 394 201 *~, f 5;
#X obj 426 129 sig~;
#X obj 280 225 bob~, f 33;
#X obj 508 105 sig~;
#X obj 280 294 throw~ outL;
#X obj 390 294 throw~ outR;
#X obj 1187 719 catch~ outL;
#X obj 1409 753 catch~ outR;
#X obj 1328 753 catch~ outC;
#X obj 1324 793 compressor2~;
#X obj 1324 817 outrec~;
#X obj 643 81 t b f;
#X obj 643 201 *~, f 5;
#X obj 675 129 sig~;
#X obj 529 225 bob~, f 33;
#X obj 757 105 sig~;
#X obj 529 249 pan~;
#X obj 529 294 throw~ outL;
#X obj 639 294 throw~ outR;
#X obj 907 81 t b f;
#X obj 907 201 *~, f 5;
#X obj 939 129 sig~;
#X obj 793 225 bob~, f 33;
#X obj 1021 105 sig~;
#X obj 793 294 throw~ outL;
#X obj 903 294 throw~ outR;
#X obj 280 249 pan~ 0.25;
#X obj 793 249 pan~ 0.75;
#X obj 1120 401 s decay;
#X obj 1176 401 s release;
#X obj 442 153 r decay;
#X obj 502 153 r release;
#X obj 692 153 r decay;
#X obj 752 153 r release;
#X obj 952 153 r decay;
#X obj 1012 153 r release;
#X obj 292 364 r tick;
#X obj 292 388 sequ.impl;
#X obj 352 364 r sequ;
#X obj 292 513 mtof;
#X obj 292 631 vibrato~;
#X obj 292 655 level~;
#X obj 1362 726 msphsl 0 1;
#X obj 292 607 square~;
#X obj 351 606 wobble;
#X obj 556 643 catch~ reverb;
#X obj 556 667 reverb~;
#X obj 556 844 throw~ outC;
#X obj 18 400 r tick;
#X obj 18 424 sequ.impl;
#X obj 78 400 r sequ;
#X obj 18 539 mtof;
#X obj 18 617 vibrato~;
#X obj 18 641 level~;
#X obj 18 593 square~;
#X obj 77 592 wobble;
#X obj 159 591 msphsl 0 1;
#X obj 18 448 maybe 0.8;
#X obj 292 412 maybe 0.8;
#X obj 394 32 r tick;
#X obj 394 56 sequ.impl;
#X obj 454 32 r sequ;
#X obj 507 32 r tick;
#X obj 507 56 sequ.impl;
#X obj 567 32 r sequ;
#X obj 642 34 r tick;
#X obj 642 58 sequ.impl;
#X obj 702 34 r sequ;
#X obj 755 34 r tick;
#X obj 755 58 sequ.impl;
#X obj 815 34 r sequ;
#X obj 907 33 r tick;
#X obj 907 57 sequ.impl;
#X obj 967 33 r sequ;
#X obj 1020 33 r tick;
#X obj 1020 57 sequ.impl;
#X obj 1080 33 r sequ;
#X obj 18 563 ramp~ 1000;
#X obj 292 537 ramp~ 1000;
#X floatatom 190 556 5 0 0 0 - - - 0;
#X obj 6 34 metronome 45 16;
#X obj 394 177 ahdsr~ 5 0 15 0.15 100;
#X obj 643 177 ahdsr~ 5 0 15 0.15 100;
#X obj 907 177 ahdsr~ 5 0 15 0.15 100;
#X obj 1057 401 s attack;
#X obj 379 152 r attack;
#X obj 886 151 r attack;
#X obj 624 153 r attack;
#X obj 211 498 wobble;
#X obj 1176 377 * 2000;
#X obj 1120 377 * 500;
#X obj 163 73 maybe 0.5;
#X obj 161 166 maybe 0.5;
#X obj 157 120 maybe 0.5;
#X obj 1057 377 * 15;
#X obj 426 105 * 3000;
#X obj 675 105 * 3000;
#X obj 939 105 * 3000;
#X obj 153 327 msphsl 0 1;
#X obj 1004 310 msphsl 0 1;
#X obj 1013 326 msphsl 0 1;
#X obj 1033 346 msphsl 0 1;
#X obj 18 491 scaled 0 1 60 85;
#X obj 292 465 scaled 0 1 63 82;
#X obj 819 492 bob~, f 30;
#X obj 884 383 * 12000;
#X obj 884 407 ramp~;
#X obj 819 516 level~;
#X obj 820 539 throw~ reverb;
#X obj 952 383 wobble;
#X obj 952 431 ramp~;
#X obj 952 407 * 1.5;
#X obj 884 359 wobble 5000 10000;
#X obj 819 438 pink~;
#X obj 819 462 phaser~;
#X obj 768 439 noise~;
#X obj 620 461 osc~;
#X floatatom 620 364 5 0 0 0 - - - 0;
#X obj 620 387 mtof;
#X obj 620 508 level~;
#X obj 620 485 vibrato~;
#X obj 620 531 pan~;
#X obj 697 408 wobble 5000 10000;
#X obj 620 576 throw~ outL;
#X obj 710 576 throw~ outR;
#X obj 620 411 *;
#X obj 452 373 wobble 5000 10000;
#X obj 474 463 osc~;
#X obj 474 487 vibrato~;
#X obj 474 546 pan~;
#X obj 697 432 oneminus;
#X obj 474 511 level~;
#X obj 842 591 noise~;
#X obj 842 615 level~;
#X obj 457 597 noise~;
#X obj 457 621 level~;
#X obj 474 439 * 0.501;
#X obj 452 397 scaled 0 1 0.99 1.01;
#X obj 664 387 msphsl 0 1;
#X obj 1094 542 crackle~;
#X obj 1094 566 level~;
#X obj 955 539 crackle~;
#X obj 955 563 level~;
#X obj 1146 487 msphsl 0 1;
#X obj 1187 743 echo~ 180 0.4;
#X obj 1416 784 echo~ 180 0.4;
#X obj 1220 640 msphsl 0 1;
#X obj 1284 706 echo~ 180 0.4;
#X obj 508 81 * 3;
#X obj 757 81 * 3;
#X obj 1021 81 * 3;
#X obj 1001 756 level~;
#X obj 1063 808 level~;
#X obj 987 665 wobble 5000 10000;
#X obj 18 516 quantizedmode phrygian 60;
#X obj 292 489 quantizedmode phrygian 60;
#X obj 211 522 * 80;
#X connect 0 0 85 0;
#X connect 2 0 3 0;
#X connect 4 0 86 0;
#X connect 4 1 100 0;
#X connect 5 0 7 1;
#X connect 6 0 5 1;
#X connect 7 0 31 0;
#X connect 8 0 7 2;
#X connect 11 0 14 0;
#X connect 11 0 149 0;
#X connect 12 0 150 0;
#X connect 12 0 14 1;
#X connect 13 0 14 0;
#X connect 13 0 14 1;
#X connect 13 0 152 0;
#X connect 14 0 15 0;
#X connect 14 1 15 1;
#X connect 16 0 87 0;
#X connect 16 1 101 0;
#X connect 17 0 19 1;
#X connect 18 0 17 1;
#X connect 19 0 21 0;
#X connect 20 0 19 2;
#X connect 21 0 22 0;
#X connect 21 1 23 0;
#X connect 24 0 88 0;
#X connect 24 1 102 0;
#X connect 25 0 27 1;
#X connect 26 0 25 1;
#X connect 27 0 32 0;
#X connect 28 0 27 2;
#X connect 31 0 9 0;
#X connect 31 1 10 0;
#X connect 32 0 29 0;
#X connect 32 1 30 0;
#X connect 35 0 86 3;
#X connect 36 0 86 5;
#X connect 37 0 87 3;
#X connect 38 0 87 5;
#X connect 39 0 88 3;
#X connect 40 0 88 5;
#X connect 41 0 42 0;
#X connect 42 0 63 0;
#X connect 43 0 42 1;
#X connect 44 0 83 0;
#X connect 45 0 46 0;
#X connect 46 0 19 0;
#X connect 46 0 27 0;
#X connect 47 0 14 2;
#X connect 48 0 45 0;
#X connect 49 0 48 1;
#X connect 50 0 51 0;
#X connect 51 0 52 0;
#X connect 53 0 54 0;
#X connect 54 0 62 0;
#X connect 55 0 54 1;
#X connect 56 0 82 0;
#X connect 57 0 58 0;
#X connect 58 0 7 0;
#X connect 58 0 19 0;
#X connect 59 0 57 0;
#X connect 60 0 59 1;
#X connect 61 0 46 1;
#X connect 61 0 58 1;
#X connect 62 0 107 0;
#X connect 63 0 108 0;
#X connect 64 0 65 0;
#X connect 65 0 96 0;
#X connect 66 0 65 1;
#X connect 67 0 68 0;
#X connect 68 0 153 0;
#X connect 69 0 68 1;
#X connect 70 0 71 0;
#X connect 71 0 98 0;
#X connect 72 0 71 1;
#X connect 73 0 74 0;
#X connect 74 0 154 0;
#X connect 75 0 74 1;
#X connect 76 0 77 0;
#X connect 77 0 97 0;
#X connect 78 0 77 1;
#X connect 79 0 80 0;
#X connect 80 0 155 0;
#X connect 81 0 80 1;
#X connect 82 0 59 0;
#X connect 83 0 48 0;
#X connect 84 0 82 1;
#X connect 84 0 83 1;
#X connect 85 0 1 0;
#X connect 86 0 5 0;
#X connect 87 0 17 0;
#X connect 88 0 25 0;
#X connect 90 0 86 1;
#X connect 91 0 88 1;
#X connect 92 0 87 1;
#X connect 93 0 161 0;
#X connect 94 0 34 0;
#X connect 95 0 33 0;
#X connect 96 0 4 0;
#X connect 97 0 24 0;
#X connect 98 0 16 0;
#X connect 99 0 89 0;
#X connect 100 0 6 0;
#X connect 101 0 18 0;
#X connect 102 0 26 0;
#X connect 103 0 96 1;
#X connect 103 0 98 1;
#X connect 103 0 97 1;
#X connect 103 0 62 1;
#X connect 103 0 63 1;
#X connect 104 0 99 0;
#X connect 105 0 95 0;
#X connect 106 0 94 0;
#X connect 107 0 159 0;
#X connect 108 0 160 0;
#X connect 109 0 112 0;
#X connect 110 0 111 0;
#X connect 111 0 109 1;
#X connect 112 0 113 0;
#X connect 114 0 116 0;
#X connect 115 0 109 2;
#X connect 116 0 115 0;
#X connect 117 0 110 0;
#X connect 118 0 119 0;
#X connect 119 0 109 0;
#X connect 120 0 119 0;
#X connect 121 0 125 0;
#X connect 122 0 123 0;
#X connect 123 0 130 1;
#X connect 124 0 126 0;
#X connect 125 0 124 0;
#X connect 126 0 128 0;
#X connect 127 0 126 1;
#X connect 127 0 135 0;
#X connect 130 0 121 0;
#X connect 130 0 141 0;
#X connect 131 0 142 0;
#X connect 132 0 133 0;
#X connect 133 0 136 0;
#X connect 134 0 128 0;
#X connect 134 1 129 0;
#X connect 135 0 134 1;
#X connect 136 0 134 0;
#X connect 137 0 138 0;
#X connect 138 0 125 0;
#X connect 139 0 140 0;
#X connect 140 0 133 0;
#X connect 141 0 132 0;
#X connect 142 0 130 0;
#X connect 143 0 124 1;
#X connect 143 0 136 1;
#X connect 144 0 145 0;
#X connect 145 0 126 0;
#X connect 146 0 147 0;
#X connect 147 0 134 0;
#X connect 148 0 145 1;
#X connect 148 0 147 1;
#X connect 149 0 156 0;
#X connect 150 0 157 0;
#X connect 151 0 149 2;
#X connect 151 0 150 2;
#X connect 151 0 152 2;
#X connect 152 0 14 0;
#X connect 152 0 14 1;
#X connect 153 0 8 0;
#X connect 154 0 20 0;
#X connect 155 0 28 0;
#X connect 156 0 14 0;
#X connect 157 0 14 1;
#X connect 158 0 156 1;
#X connect 158 0 157 1;
#X connect 159 0 56 0;
#X connect 160 0 44 0;
#X connect 161 0 84 0;
