#N canvas 1 38 1486 884 12;
#X obj 1227 767 catch~ outL;
#X obj 1308 767 catch~ outC;
#X obj 1389 767 catch~ outR;
#X obj 1308 791 compressor2~;
#X obj 1308 815 outrec~;
#X obj 289 172 noise~;
#X floatatom 371 149 5 0 0 0 - - - 0;
#X obj 371 172 ramp~;
#X obj 454 172 ramp~;
#X obj 289 219 bob~, f 24;
#X obj 289 243 level~;
#X obj 289 266 pan~ 0.2;
#X obj 289 311 throw~ outL;
#X obj 370 311 throw~ outR;
#X obj 144 124 ramp~;
#X obj 144 148 square~;
#X obj 144 172 level~;
#X obj 289 196 level~;
#X floatatom 144 77 5 0 0 0 - - - 0;
#X obj 144 100 mtof;
#X obj 190 124 wobble 5000 20000;
#X obj 7 124 * 0.5;
#X obj 7 148 osc~;
#X obj 7 172 level~;
#X obj 144 195 vibrato~;
#X obj 795 197 noise~;
#X floatatom 877 174 5 0 0 0 - - - 0;
#X obj 877 197 ramp~;
#X obj 960 197 ramp~;
#X obj 795 244 bob~, f 24;
#X obj 795 268 level~;
#X obj 795 291 pan~ 0.2;
#X obj 795 336 throw~ outL;
#X obj 876 336 throw~ outR;
#X obj 650 149 ramp~;
#X obj 650 173 square~;
#X obj 650 197 level~;
#X obj 795 221 level~;
#X floatatom 650 102 5 0 0 0 - - - 0;
#X obj 650 125 mtof;
#X obj 696 149 wobble 5000 20000;
#X obj 513 149 * 0.5;
#X obj 513 173 osc~;
#X obj 513 197 level~;
#X obj 650 220 vibrato~;
#X obj 454 124 wobble 5000 20000;
#X obj 454 148 * 3;
#X obj 960 149 wobble 5000 20000;
#X obj 960 173 * 3;
#X obj 285 408 noise~;
#X floatatom 367 385 5 0 0 0 - - - 0;
#X obj 367 408 ramp~;
#X obj 450 408 ramp~;
#X obj 285 455 bob~, f 24;
#X obj 285 479 level~;
#X obj 285 502 pan~ 0.2;
#X obj 285 547 throw~ outL;
#X obj 366 547 throw~ outR;
#X obj 140 360 ramp~;
#X obj 140 384 square~;
#X obj 140 408 level~;
#X obj 285 432 level~;
#X floatatom 140 313 5 0 0 0 - - - 0;
#X obj 140 336 mtof;
#X obj 186 360 wobble 5000 20000;
#X obj 3 360 * 0.5;
#X obj 3 384 osc~;
#X obj 3 408 level~;
#X obj 140 431 vibrato~;
#X obj 450 360 wobble 5000 20000;
#X obj 450 384 * 3;
#X obj 797 453 noise~;
#X floatatom 879 430 5 0 0 0 - - - 0;
#X obj 879 453 ramp~;
#X obj 962 453 ramp~;
#X obj 797 500 bob~, f 24;
#X obj 797 524 level~;
#X obj 797 547 pan~ 0.2;
#X obj 797 592 throw~ outL;
#X obj 878 592 throw~ outR;
#X obj 652 405 ramp~;
#X obj 652 429 square~;
#X obj 652 453 level~;
#X obj 797 477 level~;
#X floatatom 652 358 5 0 0 0 - - - 0;
#X obj 652 381 mtof;
#X obj 698 405 wobble 5000 20000;
#X obj 515 405 * 0.5;
#X obj 515 429 osc~;
#X obj 515 453 level~;
#X obj 652 476 vibrato~;
#X obj 962 405 wobble 5000 20000;
#X obj 962 429 * 3;
#X obj 341 637 noise~;
#X floatatom 423 614 5 0 0 0 - - - 0;
#X obj 423 637 ramp~;
#X obj 506 637 ramp~;
#X obj 341 684 bob~, f 24;
#X obj 341 708 level~;
#X obj 341 731 pan~ 0.2;
#X obj 341 776 throw~ outL;
#X obj 422 776 throw~ outR;
#X obj 196 589 ramp~;
#X obj 196 613 square~;
#X obj 196 637 level~;
#X obj 341 661 level~;
#X floatatom 196 542 5 0 0 0 - - - 0;
#X obj 196 565 mtof;
#X obj 242 589 wobble 5000 20000;
#X obj 59 589 * 0.5;
#X obj 59 613 osc~;
#X obj 59 637 level~;
#X obj 196 660 vibrato~;
#X obj 506 589 wobble 5000 20000;
#X obj 506 613 * 3;
#X obj 853 682 noise~;
#X floatatom 935 659 5 0 0 0 - - - 0;
#X obj 935 682 ramp~;
#X obj 1018 682 ramp~;
#X obj 853 729 bob~, f 24;
#X obj 853 753 level~;
#X obj 853 776 pan~ 0.2;
#X obj 853 821 throw~ outL;
#X obj 934 821 throw~ outR;
#X obj 708 634 ramp~;
#X obj 708 658 square~;
#X obj 708 682 level~;
#X obj 853 706 level~;
#X floatatom 708 587 5 0 0 0 - - - 0;
#X obj 708 610 mtof;
#X obj 754 634 wobble 5000 20000;
#X obj 571 634 * 0.5;
#X obj 571 658 osc~;
#X obj 571 682 level~;
#X obj 708 705 vibrato~;
#X obj 1018 634 wobble 5000 20000;
#X obj 1018 658 * 3;
#X obj 428 283 * 0.275;
#X obj 428 259 wobble 5000 20000;
#X obj 935 310 * 0.275;
#X obj 935 286 wobble 5000 20000;
#X obj 416 525 * 0.275;
#X obj 416 501 wobble 5000 20000;
#X obj 924 571 * 0.275;
#X obj 924 547 wobble 5000 20000;
#X obj 470 754 * 0.275;
#X obj 470 730 wobble 5000 20000;
#X obj 981 800 * 0.275;
#X obj 981 776 wobble 5000 20000;
#X obj 329 68 osc~;
#X obj 329 92 level~;
#X obj 329 115 throw~ outC;
#X floatatom 329 21 5 0 0 0 - - - 0;
#X obj 329 44 mtof;
#X obj 367 44 wobble 5000 20000;
#X obj 367 68 * 0.04;
#X obj 1402 128 noise~;
#X floatatom 1484 105 5 0 0 0 - - - 0;
#X obj 1484 128 ramp~;
#X obj 1567 128 ramp~;
#X obj 1402 175 bob~, f 24;
#X obj 1402 199 level~;
#X obj 1402 267 throw~ outL;
#X obj 1483 267 throw~ outR;
#X obj 1257 80 ramp~;
#X obj 1257 104 square~;
#X obj 1257 128 level~;
#X obj 1402 152 level~;
#X floatatom 1257 33 5 0 0 0 - - - 0;
#X obj 1257 56 mtof;
#X obj 1303 80 wobble 5000 20000;
#X obj 1120 80 * 0.5;
#X obj 1120 104 osc~;
#X obj 1120 128 level~;
#X obj 1257 151 vibrato~;
#X obj 1908 153 noise~;
#X floatatom 1990 130 5 0 0 0 - - - 0;
#X obj 1990 153 ramp~;
#X obj 2073 153 ramp~;
#X obj 1908 200 bob~, f 24;
#X obj 1908 224 level~;
#X obj 1908 292 throw~ outL;
#X obj 1989 292 throw~ outR;
#X obj 1763 105 ramp~;
#X obj 1763 129 square~;
#X obj 1763 153 level~;
#X obj 1908 177 level~;
#X floatatom 1763 58 5 0 0 0 - - - 0;
#X obj 1763 81 mtof;
#X obj 1809 105 wobble 5000 20000;
#X obj 1626 105 * 0.5;
#X obj 1626 129 osc~;
#X obj 1626 153 level~;
#X obj 1763 176 vibrato~;
#X obj 1567 80 wobble 5000 20000;
#X obj 1567 104 * 3;
#X obj 2073 105 wobble 5000 20000;
#X obj 2073 129 * 3;
#X obj 1398 364 noise~;
#X floatatom 1480 341 5 0 0 0 - - - 0;
#X obj 1480 364 ramp~;
#X obj 1563 364 ramp~;
#X obj 1398 411 bob~, f 24;
#X obj 1398 435 level~;
#X obj 1398 503 throw~ outL;
#X obj 1479 503 throw~ outR;
#X obj 1253 316 ramp~;
#X obj 1253 340 square~;
#X obj 1253 364 level~;
#X obj 1398 388 level~;
#X floatatom 1253 269 5 0 0 0 - - - 0;
#X obj 1253 292 mtof;
#X obj 1299 316 wobble 5000 20000;
#X obj 1116 316 * 0.5;
#X obj 1116 340 osc~;
#X obj 1116 364 level~;
#X obj 1253 387 vibrato~;
#X obj 1563 316 wobble 5000 20000;
#X obj 1563 340 * 3;
#X obj 1910 409 noise~;
#X floatatom 1992 386 5 0 0 0 - - - 0;
#X obj 1992 409 ramp~;
#X obj 2075 409 ramp~;
#X obj 1910 456 bob~, f 24;
#X obj 1910 480 level~;
#X obj 1910 548 throw~ outL;
#X obj 1991 548 throw~ outR;
#X obj 1765 361 ramp~;
#X obj 1765 385 square~;
#X obj 1765 409 level~;
#X obj 1910 433 level~;
#X floatatom 1765 314 5 0 0 0 - - - 0;
#X obj 1765 337 mtof;
#X obj 1811 361 wobble 5000 20000;
#X obj 1628 361 * 0.5;
#X obj 1628 385 osc~;
#X obj 1628 409 level~;
#X obj 1765 432 vibrato~;
#X obj 2075 361 wobble 5000 20000;
#X obj 2075 385 * 3;
#X obj 1454 593 noise~;
#X floatatom 1536 570 5 0 0 0 - - - 0;
#X obj 1536 593 ramp~;
#X obj 1619 593 ramp~;
#X obj 1454 640 bob~, f 24;
#X obj 1454 664 level~;
#X obj 1454 732 throw~ outL;
#X obj 1535 732 throw~ outR;
#X obj 1309 545 ramp~;
#X obj 1309 569 square~;
#X obj 1309 593 level~;
#X obj 1454 617 level~;
#X floatatom 1309 498 5 0 0 0 - - - 0;
#X obj 1309 521 mtof;
#X obj 1355 545 wobble 5000 20000;
#X obj 1172 545 * 0.5;
#X obj 1172 569 osc~;
#X obj 1172 593 level~;
#X obj 1309 616 vibrato~;
#X obj 1619 545 wobble 5000 20000;
#X obj 1619 569 * 3;
#X obj 1541 239 * 0.275;
#X obj 1541 215 wobble 5000 20000;
#X obj 2048 266 * 0.275;
#X obj 2048 242 wobble 5000 20000;
#X obj 1529 481 * 0.275;
#X obj 1529 457 wobble 5000 20000;
#X obj 2037 527 * 0.275;
#X obj 2037 503 wobble 5000 20000;
#X obj 1583 710 * 0.275;
#X obj 1583 686 wobble 5000 20000;
#X obj 1402 222 pan~ 0.1;
#X obj 1908 247 pan~ 0.3;
#X obj 1398 458 pan~ 0.5;
#X obj 1910 503 pan~ 0.7;
#X obj 1454 687 pan~ 0.9;
#X obj 1751 587 crackle~;
#X obj 1751 611 level~;
#X obj 1751 634 pan~ 0.3;
#X obj 1751 679 throw~ outL;
#X obj 1832 679 throw~ outR;
#X obj 1913 587 crackle~;
#X obj 1913 611 level~;
#X obj 1913 679 throw~ outL;
#X obj 1994 679 throw~ outR;
#X obj 1913 634 pan~ 0.7;
#X connect 0 0 3 0;
#X connect 1 0 3 0;
#X connect 1 0 3 1;
#X connect 2 0 3 1;
#X connect 3 0 4 0;
#X connect 3 1 4 1;
#X connect 5 0 17 0;
#X connect 6 0 7 0;
#X connect 7 0 9 1;
#X connect 8 0 9 2;
#X connect 9 0 10 0;
#X connect 10 0 11 0;
#X connect 11 0 12 0;
#X connect 11 1 13 0;
#X connect 14 0 15 0;
#X connect 15 0 16 0;
#X connect 16 0 24 0;
#X connect 17 0 9 0;
#X connect 18 0 19 0;
#X connect 19 0 14 0;
#X connect 19 0 21 0;
#X connect 20 0 15 1;
#X connect 21 0 22 0;
#X connect 22 0 23 0;
#X connect 23 0 16 0;
#X connect 24 0 9 0;
#X connect 25 0 37 0;
#X connect 26 0 27 0;
#X connect 27 0 29 1;
#X connect 28 0 29 2;
#X connect 29 0 30 0;
#X connect 30 0 31 0;
#X connect 31 0 32 0;
#X connect 31 1 33 0;
#X connect 34 0 35 0;
#X connect 35 0 36 0;
#X connect 36 0 44 0;
#X connect 37 0 29 0;
#X connect 38 0 39 0;
#X connect 39 0 34 0;
#X connect 39 0 41 0;
#X connect 40 0 35 1;
#X connect 41 0 42 0;
#X connect 42 0 43 0;
#X connect 43 0 36 0;
#X connect 44 0 29 0;
#X connect 45 0 46 0;
#X connect 46 0 8 0;
#X connect 47 0 48 0;
#X connect 48 0 28 0;
#X connect 49 0 61 0;
#X connect 50 0 51 0;
#X connect 51 0 53 1;
#X connect 52 0 53 2;
#X connect 53 0 54 0;
#X connect 54 0 55 0;
#X connect 55 0 56 0;
#X connect 55 1 57 0;
#X connect 58 0 59 0;
#X connect 59 0 60 0;
#X connect 60 0 68 0;
#X connect 61 0 53 0;
#X connect 62 0 63 0;
#X connect 63 0 58 0;
#X connect 63 0 65 0;
#X connect 64 0 59 1;
#X connect 65 0 66 0;
#X connect 66 0 67 0;
#X connect 67 0 60 0;
#X connect 68 0 53 0;
#X connect 69 0 70 0;
#X connect 70 0 52 0;
#X connect 71 0 83 0;
#X connect 72 0 73 0;
#X connect 73 0 75 1;
#X connect 74 0 75 2;
#X connect 75 0 76 0;
#X connect 76 0 77 0;
#X connect 77 0 78 0;
#X connect 77 1 79 0;
#X connect 80 0 81 0;
#X connect 81 0 82 0;
#X connect 82 0 90 0;
#X connect 83 0 75 0;
#X connect 84 0 85 0;
#X connect 85 0 80 0;
#X connect 85 0 87 0;
#X connect 86 0 81 1;
#X connect 87 0 88 0;
#X connect 88 0 89 0;
#X connect 89 0 82 0;
#X connect 90 0 75 0;
#X connect 91 0 92 0;
#X connect 92 0 74 0;
#X connect 93 0 105 0;
#X connect 94 0 95 0;
#X connect 95 0 97 1;
#X connect 96 0 97 2;
#X connect 97 0 98 0;
#X connect 98 0 99 0;
#X connect 99 0 100 0;
#X connect 99 1 101 0;
#X connect 102 0 103 0;
#X connect 103 0 104 0;
#X connect 104 0 112 0;
#X connect 105 0 97 0;
#X connect 106 0 107 0;
#X connect 107 0 102 0;
#X connect 107 0 109 0;
#X connect 108 0 103 1;
#X connect 109 0 110 0;
#X connect 110 0 111 0;
#X connect 111 0 104 0;
#X connect 112 0 97 0;
#X connect 113 0 114 0;
#X connect 114 0 96 0;
#X connect 115 0 127 0;
#X connect 116 0 117 0;
#X connect 117 0 119 1;
#X connect 118 0 119 2;
#X connect 119 0 120 0;
#X connect 120 0 121 0;
#X connect 121 0 122 0;
#X connect 121 1 123 0;
#X connect 124 0 125 0;
#X connect 125 0 126 0;
#X connect 126 0 134 0;
#X connect 127 0 119 0;
#X connect 128 0 129 0;
#X connect 129 0 124 0;
#X connect 129 0 131 0;
#X connect 130 0 125 1;
#X connect 131 0 132 0;
#X connect 132 0 133 0;
#X connect 133 0 126 0;
#X connect 134 0 119 0;
#X connect 135 0 136 0;
#X connect 136 0 118 0;
#X connect 137 0 10 1;
#X connect 138 0 137 0;
#X connect 139 0 30 1;
#X connect 140 0 139 0;
#X connect 141 0 54 1;
#X connect 142 0 141 0;
#X connect 143 0 76 1;
#X connect 144 0 143 0;
#X connect 145 0 98 1;
#X connect 146 0 145 0;
#X connect 147 0 120 1;
#X connect 148 0 147 0;
#X connect 149 0 150 0;
#X connect 150 0 151 0;
#X connect 152 0 153 0;
#X connect 153 0 149 0;
#X connect 154 0 155 0;
#X connect 155 0 150 1;
#X connect 156 0 167 0;
#X connect 157 0 158 0;
#X connect 158 0 160 1;
#X connect 159 0 160 2;
#X connect 160 0 161 0;
#X connect 161 0 271 0;
#X connect 164 0 165 0;
#X connect 165 0 166 0;
#X connect 166 0 174 0;
#X connect 167 0 160 0;
#X connect 168 0 169 0;
#X connect 169 0 164 0;
#X connect 169 0 171 0;
#X connect 170 0 165 1;
#X connect 171 0 172 0;
#X connect 172 0 173 0;
#X connect 173 0 166 0;
#X connect 174 0 160 0;
#X connect 175 0 186 0;
#X connect 176 0 177 0;
#X connect 177 0 179 1;
#X connect 178 0 179 2;
#X connect 179 0 180 0;
#X connect 180 0 272 0;
#X connect 183 0 184 0;
#X connect 184 0 185 0;
#X connect 185 0 193 0;
#X connect 186 0 179 0;
#X connect 187 0 188 0;
#X connect 188 0 183 0;
#X connect 188 0 190 0;
#X connect 189 0 184 1;
#X connect 190 0 191 0;
#X connect 191 0 192 0;
#X connect 192 0 185 0;
#X connect 193 0 179 0;
#X connect 194 0 195 0;
#X connect 195 0 159 0;
#X connect 196 0 197 0;
#X connect 197 0 178 0;
#X connect 198 0 209 0;
#X connect 199 0 200 0;
#X connect 200 0 202 1;
#X connect 201 0 202 2;
#X connect 202 0 203 0;
#X connect 203 0 273 0;
#X connect 206 0 207 0;
#X connect 207 0 208 0;
#X connect 208 0 216 0;
#X connect 209 0 202 0;
#X connect 210 0 211 0;
#X connect 211 0 206 0;
#X connect 211 0 213 0;
#X connect 212 0 207 1;
#X connect 213 0 214 0;
#X connect 214 0 215 0;
#X connect 215 0 208 0;
#X connect 216 0 202 0;
#X connect 217 0 218 0;
#X connect 218 0 201 0;
#X connect 219 0 230 0;
#X connect 220 0 221 0;
#X connect 221 0 223 1;
#X connect 222 0 223 2;
#X connect 223 0 224 0;
#X connect 224 0 274 0;
#X connect 227 0 228 0;
#X connect 228 0 229 0;
#X connect 229 0 237 0;
#X connect 230 0 223 0;
#X connect 231 0 232 0;
#X connect 232 0 227 0;
#X connect 232 0 234 0;
#X connect 233 0 228 1;
#X connect 234 0 235 0;
#X connect 235 0 236 0;
#X connect 236 0 229 0;
#X connect 237 0 223 0;
#X connect 238 0 239 0;
#X connect 239 0 222 0;
#X connect 240 0 251 0;
#X connect 241 0 242 0;
#X connect 242 0 244 1;
#X connect 243 0 244 2;
#X connect 244 0 245 0;
#X connect 245 0 275 0;
#X connect 248 0 249 0;
#X connect 249 0 250 0;
#X connect 250 0 258 0;
#X connect 251 0 244 0;
#X connect 252 0 253 0;
#X connect 253 0 248 0;
#X connect 253 0 255 0;
#X connect 254 0 249 1;
#X connect 255 0 256 0;
#X connect 256 0 257 0;
#X connect 257 0 250 0;
#X connect 258 0 244 0;
#X connect 259 0 260 0;
#X connect 260 0 243 0;
#X connect 261 0 161 1;
#X connect 262 0 261 0;
#X connect 263 0 180 1;
#X connect 264 0 263 0;
#X connect 265 0 203 1;
#X connect 266 0 265 0;
#X connect 267 0 224 1;
#X connect 268 0 267 0;
#X connect 269 0 245 1;
#X connect 270 0 269 0;
#X connect 271 0 162 0;
#X connect 271 1 163 0;
#X connect 272 0 181 0;
#X connect 272 1 182 0;
#X connect 273 0 204 0;
#X connect 273 1 205 0;
#X connect 274 0 225 0;
#X connect 274 1 226 0;
#X connect 275 0 246 0;
#X connect 275 1 247 0;
#X connect 276 0 277 0;
#X connect 277 0 278 0;
#X connect 278 0 279 0;
#X connect 278 1 280 0;
#X connect 281 0 282 0;
#X connect 282 0 285 0;
#X connect 285 0 283 0;
#X connect 285 1 284 0;
