#N canvas 23 38 1512 884 12;
#X obj 566 643 catch~ reverb;
#X obj 566 667 reverb~;
#X obj 566 844 throw~ outC;
#X obj 819 492 bob~, f 30;
#X obj 884 383 * 12000;
#X obj 884 407 ramp~;
#X obj 819 516 level~;
#X obj 820 539 throw~ reverb;
#X obj 952 383 wobble;
#X obj 952 431 ramp~;
#X obj 952 407 * 1.5;
#X obj 884 359 wobble 5000 10000;
#X obj 819 438 pink~;
#X obj 819 462 phaser~;
#X obj 768 439 noise~;
#X obj 1247 753 catch~ outL;
#X obj 1409 753 catch~ outR;
#X obj 1328 753 catch~ outC;
#X obj 1324 793 compressor2~;
#X obj 1324 817 outrec~;
#X obj 1142 423 crackle~;
#X obj 1217 422 crackle~;
#X obj 1142 447 *~;
#X obj 1217 446 *~;
#X obj 1142 471 throw~ outL;
#X obj 1217 470 throw~ outR;
#X obj 1301 405 msphsl 0 1;
#X obj 1301 428 ramp~;
#X obj 1321 450 crackle~;
#X obj 1321 474 *~;
#X obj 1321 498 throw~ reverb;
#X obj 16 10 tgl 19 0 empty empty empty 0 -10 0 12 #fcfcfc #000000 #000000 0 1;
#X obj 16 58 s tick;
#X obj 16 84 sequ.params;
#X obj 16 246 s sequ;
#X obj 219 97 r tick;
#X obj 219 121 sequ.impl;
#X obj 279 97 r sequ;
#X obj 328 98 r tick;
#X obj 328 122 sequ.impl;
#X obj 388 98 r sequ;
#X obj 437 98 r tick;
#X obj 437 122 sequ.impl;
#X obj 497 98 r sequ;
#X obj 546 99 r tick;
#X obj 546 123 sequ.impl;
#X obj 606 99 r sequ;
#X obj 655 99 r tick;
#X obj 655 123 sequ.impl;
#X obj 715 99 r sequ;
#X obj 764 100 r tick;
#X obj 764 124 sequ.impl;
#X obj 824 100 r sequ;
#X obj 873 100 r tick;
#X obj 873 124 sequ.impl;
#X obj 933 100 r sequ;
#X obj 982 101 r tick;
#X obj 982 125 sequ.impl;
#X obj 1042 101 r sequ;
#X obj 16 34 metronome 800 16;
#X obj 219 145 s p1;
#N canvas 121 159 913 433 p1 0;
#X obj 43 138 mtof;
#X obj 43 162 t b f, f 8;
#X obj 97 234 square~;
#X obj 135 210 wobble 5000 10000;
#X obj 97 210 sig~;
#X obj 43 114 quantizedmode aeolian 60;
#X obj 43 374 throw~ outL;
#X obj 124 374 throw~ outR;
#X obj 97 258 vibrato~ 0.9;
#X obj 43 23 r p1;
#X obj 43 305 bob~, f 17;
#X obj 43 210 *~ 10000;
#X obj 189 234 wobble 5000 15000;
#X obj 189 258 * 4;
#X obj 189 282 ramp~ 50;
#X obj 43 186 ahdsr~ 1000 0 500 0.2 2000;
#X obj 43 47 maybe 0.5;
#X obj 320 138 mtof;
#X obj 320 162 t b f, f 8;
#X obj 374 234 square~;
#X obj 412 210 wobble 5000 10000;
#X obj 374 210 sig~;
#X obj 320 114 quantizedmode aeolian 60;
#X obj 320 374 throw~ outL;
#X obj 401 374 throw~ outR;
#X obj 374 258 vibrato~ 0.9;
#X obj 320 23 r p1;
#X obj 320 305 bob~, f 17;
#X obj 320 210 *~ 10000;
#X obj 466 234 wobble 5000 15000;
#X obj 466 258 * 4;
#X obj 466 282 ramp~ 50;
#X obj 320 186 ahdsr~ 1000 0 500 0.2 2000;
#X obj 320 47 maybe 0.5;
#X obj 623 141 mtof;
#X obj 623 165 t b f, f 8;
#X obj 677 237 square~;
#X obj 715 213 wobble 5000 10000;
#X obj 677 213 sig~;
#X obj 623 117 quantizedmode aeolian 60;
#X obj 623 377 throw~ outL;
#X obj 704 377 throw~ outR;
#X obj 677 261 vibrato~ 0.9;
#X obj 623 26 r p1;
#X obj 623 308 bob~, f 17;
#X obj 623 213 *~ 10000;
#X obj 769 237 wobble 5000 15000;
#X obj 769 261 * 4;
#X obj 769 285 ramp~ 50;
#X obj 623 189 ahdsr~ 1000 0 500 0.2 2000;
#X obj 623 50 maybe 0.5;
#X obj 320 90 scaled 0 1 40 82;
#X obj 623 93 scaled 0 1 35 67;
#X obj 43 329 pan~ 0.2;
#X obj 320 329 pan~ 0.2;
#X obj 623 332 pan~ 0.2;
#X obj 43 90 scaled 0 1 48 90;
#X connect 0 0 1 0;
#X connect 1 0 15 0;
#X connect 1 1 4 0;
#X connect 2 0 8 0;
#X connect 3 0 2 1;
#X connect 4 0 2 0;
#X connect 5 0 0 0;
#X connect 8 0 10 0;
#X connect 9 0 16 0;
#X connect 10 0 53 0;
#X connect 11 0 10 1;
#X connect 12 0 13 0;
#X connect 13 0 14 0;
#X connect 14 0 10 2;
#X connect 15 0 11 0;
#X connect 16 0 56 0;
#X connect 17 0 18 0;
#X connect 18 0 32 0;
#X connect 18 1 21 0;
#X connect 19 0 25 0;
#X connect 20 0 19 1;
#X connect 21 0 19 0;
#X connect 22 0 17 0;
#X connect 25 0 27 0;
#X connect 26 0 33 0;
#X connect 27 0 54 0;
#X connect 28 0 27 1;
#X connect 29 0 30 0;
#X connect 30 0 31 0;
#X connect 31 0 27 2;
#X connect 32 0 28 0;
#X connect 33 0 51 0;
#X connect 34 0 35 0;
#X connect 35 0 49 0;
#X connect 35 1 38 0;
#X connect 36 0 42 0;
#X connect 37 0 36 1;
#X connect 38 0 36 0;
#X connect 39 0 34 0;
#X connect 42 0 44 0;
#X connect 43 0 50 0;
#X connect 44 0 55 0;
#X connect 45 0 44 1;
#X connect 46 0 47 0;
#X connect 47 0 48 0;
#X connect 48 0 44 2;
#X connect 49 0 45 0;
#X connect 50 0 52 0;
#X connect 51 0 22 0;
#X connect 52 0 39 0;
#X connect 53 0 6 0;
#X connect 53 1 7 0;
#X connect 54 0 23 0;
#X connect 54 1 24 0;
#X connect 55 0 40 0;
#X connect 55 1 41 0;
#X connect 56 0 5 0;
#X restore 143 216 pd p1;
#X obj 328 146 s p2;
#X obj 437 146 s p3;
#X obj 546 147 s p4;
#N canvas 150 188 945 425 p2 0;
#X obj 43 138 mtof;
#X obj 43 162 t b f, f 8;
#X obj 97 234 square~;
#X obj 135 210 wobble 5000 10000;
#X obj 97 210 sig~;
#X obj 43 114 quantizedmode aeolian 60;
#X obj 43 374 throw~ outL;
#X obj 124 374 throw~ outR;
#X obj 97 258 vibrato~ 0.9;
#X obj 43 305 bob~, f 17;
#X obj 43 210 *~ 10000;
#X obj 189 234 wobble 5000 15000;
#X obj 189 258 * 4;
#X obj 189 282 ramp~ 50;
#X obj 43 186 ahdsr~ 1000 0 500 0.2 2000;
#X obj 43 47 maybe 0.5;
#X obj 320 138 mtof;
#X obj 320 162 t b f, f 8;
#X obj 374 234 square~;
#X obj 412 210 wobble 5000 10000;
#X obj 374 210 sig~;
#X obj 320 114 quantizedmode aeolian 60;
#X obj 320 374 throw~ outL;
#X obj 401 374 throw~ outR;
#X obj 374 258 vibrato~ 0.9;
#X obj 320 305 bob~, f 17;
#X obj 320 210 *~ 10000;
#X obj 466 234 wobble 5000 15000;
#X obj 466 258 * 4;
#X obj 466 282 ramp~ 50;
#X obj 320 186 ahdsr~ 1000 0 500 0.2 2000;
#X obj 320 47 maybe 0.5;
#X obj 623 141 mtof;
#X obj 623 165 t b f, f 8;
#X obj 677 237 square~;
#X obj 715 213 wobble 5000 10000;
#X obj 677 213 sig~;
#X obj 623 117 quantizedmode aeolian 60;
#X obj 623 377 throw~ outL;
#X obj 704 377 throw~ outR;
#X obj 677 261 vibrato~ 0.9;
#X obj 623 308 bob~, f 17;
#X obj 623 213 *~ 10000;
#X obj 769 237 wobble 5000 15000;
#X obj 769 261 * 4;
#X obj 769 285 ramp~ 50;
#X obj 623 189 ahdsr~ 1000 0 500 0.2 2000;
#X obj 623 50 maybe 0.5;
#X obj 320 90 scaled 0 1 40 82;
#X obj 623 93 scaled 0 1 35 67;
#X obj 43 23 r p2;
#X obj 320 23 r p2;
#X obj 623 26 r p2;
#X obj 43 329 pan~ 0.4;
#X obj 320 329 pan~ 0.4;
#X obj 623 332 pan~ 0.4;
#X obj 43 90 scaled 0 1 48 90;
#X connect 0 0 1 0;
#X connect 1 0 14 0;
#X connect 1 1 4 0;
#X connect 2 0 8 0;
#X connect 3 0 2 1;
#X connect 4 0 2 0;
#X connect 5 0 0 0;
#X connect 8 0 9 0;
#X connect 9 0 53 0;
#X connect 10 0 9 1;
#X connect 11 0 12 0;
#X connect 12 0 13 0;
#X connect 13 0 9 2;
#X connect 14 0 10 0;
#X connect 15 0 56 0;
#X connect 16 0 17 0;
#X connect 17 0 30 0;
#X connect 17 1 20 0;
#X connect 18 0 24 0;
#X connect 19 0 18 1;
#X connect 20 0 18 0;
#X connect 21 0 16 0;
#X connect 24 0 25 0;
#X connect 25 0 54 0;
#X connect 26 0 25 1;
#X connect 27 0 28 0;
#X connect 28 0 29 0;
#X connect 29 0 25 2;
#X connect 30 0 26 0;
#X connect 31 0 48 0;
#X connect 32 0 33 0;
#X connect 33 0 46 0;
#X connect 33 1 36 0;
#X connect 34 0 40 0;
#X connect 35 0 34 1;
#X connect 36 0 34 0;
#X connect 37 0 32 0;
#X connect 40 0 41 0;
#X connect 41 0 55 0;
#X connect 42 0 41 1;
#X connect 43 0 44 0;
#X connect 44 0 45 0;
#X connect 45 0 41 2;
#X connect 46 0 42 0;
#X connect 47 0 49 0;
#X connect 48 0 21 0;
#X connect 49 0 37 0;
#X connect 50 0 15 0;
#X connect 51 0 31 0;
#X connect 52 0 47 0;
#X connect 53 0 6 0;
#X connect 53 1 7 0;
#X connect 54 0 22 0;
#X connect 54 1 23 0;
#X connect 55 0 38 0;
#X connect 55 1 39 0;
#X connect 56 0 5 0;
#X restore 186 216 pd p2;
#N canvas 150 188 945 425 p3 0;
#X obj 43 138 mtof;
#X obj 43 162 t b f, f 8;
#X obj 97 234 square~;
#X obj 135 210 wobble 5000 10000;
#X obj 97 210 sig~;
#X obj 43 114 quantizedmode aeolian 60;
#X obj 43 374 throw~ outL;
#X obj 124 374 throw~ outR;
#X obj 97 258 vibrato~ 0.9;
#X obj 43 305 bob~, f 17;
#X obj 43 210 *~ 10000;
#X obj 189 234 wobble 5000 15000;
#X obj 189 258 * 4;
#X obj 189 282 ramp~ 50;
#X obj 43 186 ahdsr~ 1000 0 500 0.2 2000;
#X obj 43 47 maybe 0.5;
#X obj 320 138 mtof;
#X obj 320 162 t b f, f 8;
#X obj 374 234 square~;
#X obj 412 210 wobble 5000 10000;
#X obj 374 210 sig~;
#X obj 320 114 quantizedmode aeolian 60;
#X obj 320 374 throw~ outL;
#X obj 401 374 throw~ outR;
#X obj 374 258 vibrato~ 0.9;
#X obj 320 305 bob~, f 17;
#X obj 320 210 *~ 10000;
#X obj 466 234 wobble 5000 15000;
#X obj 466 258 * 4;
#X obj 466 282 ramp~ 50;
#X obj 320 186 ahdsr~ 1000 0 500 0.2 2000;
#X obj 320 47 maybe 0.5;
#X obj 623 141 mtof;
#X obj 623 165 t b f, f 8;
#X obj 677 237 square~;
#X obj 715 213 wobble 5000 10000;
#X obj 677 213 sig~;
#X obj 623 117 quantizedmode aeolian 60;
#X obj 623 377 throw~ outL;
#X obj 704 377 throw~ outR;
#X obj 677 261 vibrato~ 0.9;
#X obj 623 308 bob~, f 17;
#X obj 623 213 *~ 10000;
#X obj 769 237 wobble 5000 15000;
#X obj 769 261 * 4;
#X obj 769 285 ramp~ 50;
#X obj 623 189 ahdsr~ 1000 0 500 0.2 2000;
#X obj 623 50 maybe 0.5;
#X obj 320 90 scaled 0 1 40 82;
#X obj 623 93 scaled 0 1 35 67;
#X obj 43 23 r p3;
#X obj 320 23 r p3;
#X obj 623 26 r p3;
#X obj 43 329 pan~ 0.6;
#X obj 320 329 pan~ 0.6;
#X obj 623 332 pan~ 0.6;
#X obj 43 90 scaled 0 1 48 90;
#X connect 0 0 1 0;
#X connect 1 0 14 0;
#X connect 1 1 4 0;
#X connect 2 0 8 0;
#X connect 3 0 2 1;
#X connect 4 0 2 0;
#X connect 5 0 0 0;
#X connect 8 0 9 0;
#X connect 9 0 53 0;
#X connect 10 0 9 1;
#X connect 11 0 12 0;
#X connect 12 0 13 0;
#X connect 13 0 9 2;
#X connect 14 0 10 0;
#X connect 15 0 56 0;
#X connect 16 0 17 0;
#X connect 17 0 30 0;
#X connect 17 1 20 0;
#X connect 18 0 24 0;
#X connect 19 0 18 1;
#X connect 20 0 18 0;
#X connect 21 0 16 0;
#X connect 24 0 25 0;
#X connect 25 0 54 0;
#X connect 26 0 25 1;
#X connect 27 0 28 0;
#X connect 28 0 29 0;
#X connect 29 0 25 2;
#X connect 30 0 26 0;
#X connect 31 0 48 0;
#X connect 32 0 33 0;
#X connect 33 0 46 0;
#X connect 33 1 36 0;
#X connect 34 0 40 0;
#X connect 35 0 34 1;
#X connect 36 0 34 0;
#X connect 37 0 32 0;
#X connect 40 0 41 0;
#X connect 41 0 55 0;
#X connect 42 0 41 1;
#X connect 43 0 44 0;
#X connect 44 0 45 0;
#X connect 45 0 41 2;
#X connect 46 0 42 0;
#X connect 47 0 49 0;
#X connect 48 0 21 0;
#X connect 49 0 37 0;
#X connect 50 0 15 0;
#X connect 51 0 31 0;
#X connect 52 0 47 0;
#X connect 53 0 6 0;
#X connect 53 1 7 0;
#X connect 54 0 22 0;
#X connect 54 1 23 0;
#X connect 55 0 38 0;
#X connect 55 1 39 0;
#X connect 56 0 5 0;
#X restore 228 216 pd p3;
#X floatatom 68 12 5 0 0 0 - - - 0;
#N canvas 150 188 945 425 p4 0;
#X obj 43 138 mtof;
#X obj 43 162 t b f, f 8;
#X obj 97 234 square~;
#X obj 135 210 wobble 5000 10000;
#X obj 97 210 sig~;
#X obj 43 114 quantizedmode aeolian 60;
#X obj 43 374 throw~ outL;
#X obj 124 374 throw~ outR;
#X obj 97 258 vibrato~ 0.9;
#X obj 43 305 bob~, f 17;
#X obj 43 210 *~ 10000;
#X obj 189 234 wobble 5000 15000;
#X obj 189 258 * 4;
#X obj 189 282 ramp~ 50;
#X obj 43 186 ahdsr~ 1000 0 500 0.2 2000;
#X obj 43 47 maybe 0.5;
#X obj 320 138 mtof;
#X obj 320 162 t b f, f 8;
#X obj 374 234 square~;
#X obj 412 210 wobble 5000 10000;
#X obj 374 210 sig~;
#X obj 320 114 quantizedmode aeolian 60;
#X obj 320 374 throw~ outL;
#X obj 401 374 throw~ outR;
#X obj 374 258 vibrato~ 0.9;
#X obj 320 305 bob~, f 17;
#X obj 320 210 *~ 10000;
#X obj 466 234 wobble 5000 15000;
#X obj 466 258 * 4;
#X obj 466 282 ramp~ 50;
#X obj 320 186 ahdsr~ 1000 0 500 0.2 2000;
#X obj 320 47 maybe 0.5;
#X obj 623 141 mtof;
#X obj 623 165 t b f, f 8;
#X obj 677 237 square~;
#X obj 715 213 wobble 5000 10000;
#X obj 677 213 sig~;
#X obj 623 117 quantizedmode aeolian 60;
#X obj 623 377 throw~ outL;
#X obj 704 377 throw~ outR;
#X obj 677 261 vibrato~ 0.9;
#X obj 623 308 bob~, f 17;
#X obj 623 213 *~ 10000;
#X obj 769 237 wobble 5000 15000;
#X obj 769 261 * 4;
#X obj 769 285 ramp~ 50;
#X obj 623 189 ahdsr~ 1000 0 500 0.2 2000;
#X obj 623 50 maybe 0.5;
#X obj 320 90 scaled 0 1 40 82;
#X obj 623 93 scaled 0 1 35 67;
#X obj 43 23 r p3;
#X obj 320 23 r p3;
#X obj 623 26 r p3;
#X obj 43 329 pan~ 0.8;
#X obj 320 329 pan~ 0.8;
#X obj 623 332 pan~ 0.8;
#X obj 43 90 scaled 0 1 48 90;
#X connect 0 0 1 0;
#X connect 1 0 14 0;
#X connect 1 1 4 0;
#X connect 2 0 8 0;
#X connect 3 0 2 1;
#X connect 4 0 2 0;
#X connect 5 0 0 0;
#X connect 8 0 9 0;
#X connect 9 0 53 0;
#X connect 10 0 9 1;
#X connect 11 0 12 0;
#X connect 12 0 13 0;
#X connect 13 0 9 2;
#X connect 14 0 10 0;
#X connect 15 0 56 0;
#X connect 16 0 17 0;
#X connect 17 0 30 0;
#X connect 17 1 20 0;
#X connect 18 0 24 0;
#X connect 19 0 18 1;
#X connect 20 0 18 0;
#X connect 21 0 16 0;
#X connect 24 0 25 0;
#X connect 25 0 54 0;
#X connect 26 0 25 1;
#X connect 27 0 28 0;
#X connect 28 0 29 0;
#X connect 29 0 25 2;
#X connect 30 0 26 0;
#X connect 31 0 48 0;
#X connect 32 0 33 0;
#X connect 33 0 46 0;
#X connect 33 1 36 0;
#X connect 34 0 40 0;
#X connect 35 0 34 1;
#X connect 36 0 34 0;
#X connect 37 0 32 0;
#X connect 40 0 41 0;
#X connect 41 0 55 0;
#X connect 42 0 41 1;
#X connect 43 0 44 0;
#X connect 44 0 45 0;
#X connect 45 0 41 2;
#X connect 46 0 42 0;
#X connect 47 0 49 0;
#X connect 48 0 21 0;
#X connect 49 0 37 0;
#X connect 50 0 15 0;
#X connect 51 0 31 0;
#X connect 52 0 47 0;
#X connect 53 0 6 0;
#X connect 53 1 7 0;
#X connect 54 0 22 0;
#X connect 54 1 23 0;
#X connect 55 0 38 0;
#X connect 55 1 39 0;
#X connect 56 0 5 0;
#X restore 271 216 pd p4;
#X obj 16 276 r tick;
#X msg 16 300 velocity 1;
#X obj 16 324 kick~;
#X obj 16 523 level~;
#X obj 16 546 throw~ outC;
#X obj 372 275 r tick;
#X msg 372 299 velocity 1;
#X obj 372 323 hh~;
#X obj 372 430 level~;
#X obj 372 453 echo~ 200 0.9;
#X obj 372 477 pan~;
#X obj 494 474 wobble 1000 8000;
#X obj 494 498 scaled 0 1 0.3 0.7;
#X obj 372 522 throw~ outL;
#X obj 453 522 throw~ outR;
#X obj 514 451 throw~ reverb;
#X obj 16 570 r tick;
#X msg 16 594 velocity 1;
#X obj 16 787 level~;
#X obj 16 810 throw~ outC;
#X obj 16 618 snare~;
#X obj 97 810 throw~ reverb;
#X obj 100 546 wobble 5000 15000;
#X obj 100 570 scaled 0 1 0.3 0.7;
#X msg 100 594 filteroffset \$1;
#X connect 0 0 1 0;
#X connect 1 0 2 0;
#X connect 3 0 6 0;
#X connect 4 0 5 0;
#X connect 5 0 3 1;
#X connect 6 0 7 0;
#X connect 8 0 10 0;
#X connect 9 0 3 2;
#X connect 10 0 9 0;
#X connect 11 0 4 0;
#X connect 12 0 13 0;
#X connect 13 0 3 0;
#X connect 14 0 13 0;
#X connect 15 0 18 0;
#X connect 16 0 18 1;
#X connect 17 0 18 0;
#X connect 17 0 18 1;
#X connect 18 0 19 0;
#X connect 18 1 19 1;
#X connect 20 0 22 0;
#X connect 21 0 23 0;
#X connect 22 0 24 0;
#X connect 23 0 25 0;
#X connect 26 0 27 0;
#X connect 27 0 23 1;
#X connect 27 0 22 1;
#X connect 27 0 29 1;
#X connect 28 0 29 0;
#X connect 29 0 30 0;
#X connect 31 0 59 0;
#X connect 33 0 34 0;
#X connect 35 0 36 0;
#X connect 36 0 60 0;
#X connect 37 0 36 1;
#X connect 38 0 39 0;
#X connect 39 0 62 0;
#X connect 40 0 39 1;
#X connect 41 0 42 0;
#X connect 42 0 63 0;
#X connect 43 0 42 1;
#X connect 44 0 45 0;
#X connect 45 0 64 0;
#X connect 46 0 45 1;
#X connect 47 0 48 0;
#X connect 49 0 48 1;
#X connect 50 0 51 0;
#X connect 52 0 51 1;
#X connect 53 0 54 0;
#X connect 55 0 54 1;
#X connect 56 0 57 0;
#X connect 58 0 57 1;
#X connect 59 0 32 0;
#X connect 67 0 59 1;
#X connect 69 0 70 0;
#X connect 70 0 71 0;
#X connect 71 0 72 0;
#X connect 72 0 73 0;
#X connect 74 0 75 0;
#X connect 75 0 76 0;
#X connect 76 0 77 0;
#X connect 77 0 78 0;
#X connect 78 0 79 0;
#X connect 78 0 84 0;
#X connect 79 0 82 0;
#X connect 79 1 83 0;
#X connect 80 0 81 0;
#X connect 81 0 79 1;
#X connect 85 0 86 0;
#X connect 86 0 89 0;
#X connect 87 0 88 0;
#X connect 89 0 87 0;
#X connect 91 0 92 0;
#X connect 92 0 93 0;
#X connect 93 0 89 0;
