#N canvas 0 38 1512 884 12;
#X obj 566 643 catch~ reverb;
#X obj 566 667 reverb~;
#X obj 566 844 throw~ outC;
#X obj 819 492 bob~, f 30;
#X obj 884 383 * 12000;
#X obj 884 407 ramp~;
#X obj 819 516 level~;
#X obj 820 539 throw~ reverb;
#X obj 952 383 wobble;
#X obj 952 431 ramp~;
#X obj 952 407 * 1.5;
#X obj 884 359 wobble 5000 10000;
#X obj 819 438 pink~;
#X obj 819 462 phaser~;
#X obj 768 439 noise~;
#X obj 1177 698 catch~ outL;
#X obj 1339 698 catch~ outR;
#X obj 1258 698 catch~ outC;
#X obj 1254 768 compressor2~;
#X obj 1254 792 outrec~;
#X obj 1142 423 crackle~;
#X obj 1217 422 crackle~;
#X obj 1142 447 *~;
#X obj 1217 446 *~;
#X obj 1142 471 throw~ outL;
#X obj 1217 470 throw~ outR;
#X obj 1301 405 msphsl 0 1;
#X obj 1301 428 ramp~;
#X obj 1321 450 crackle~;
#X obj 1321 474 *~;
#X obj 1321 498 throw~ reverb;
#X obj 16 10 tgl 19 0 empty empty empty 0 -10 0 12 #fcfcfc #000000 #000000 0 1;
#X obj 16 58 s tick;
#X obj 16 84 sequ.params;
#X obj 16 246 s sequ;
#X obj 219 97 r tick;
#X obj 219 121 sequ.impl;
#X obj 279 97 r sequ;
#X obj 328 98 r tick;
#X obj 328 122 sequ.impl;
#X obj 388 98 r sequ;
#X obj 437 98 r tick;
#X obj 437 122 sequ.impl;
#X obj 497 98 r sequ;
#X obj 546 99 r tick;
#X obj 546 123 sequ.impl;
#X obj 606 99 r sequ;
#X obj 655 99 r tick;
#X obj 655 123 sequ.impl;
#X obj 715 99 r sequ;
#X obj 764 100 r tick;
#X obj 764 124 sequ.impl;
#X obj 824 100 r sequ;
#X obj 873 100 r tick;
#X obj 873 124 sequ.impl;
#X obj 933 100 r sequ;
#X obj 982 101 r tick;
#X obj 982 125 sequ.impl;
#X obj 1042 101 r sequ;
#X obj 16 34 metronome 800 16;
#X obj 219 145 s p1;
#N canvas 121 159 913 448 p1 0;
#X obj 43 138 mtof;
#X obj 43 192 t b f, f 8;
#X obj 97 264 square~;
#X obj 135 240 wobble 5000 10000;
#X obj 97 240 sig~;
#X obj 43 404 throw~ outL;
#X obj 124 404 throw~ outR;
#X obj 97 288 vibrato~ 0.9;
#X obj 43 23 r p1;
#X obj 43 335 bob~, f 17;
#X obj 189 312 ramp~ 50;
#X obj 43 216 ahdsr~ 1000 0 500 0.2 2000;
#X obj 43 47 maybe 0.5;
#X obj 320 138 mtof;
#X obj 320 192 t b f, f 8;
#X obj 374 264 square~;
#X obj 412 240 wobble 5000 10000;
#X obj 374 240 sig~;
#X obj 320 404 throw~ outL;
#X obj 401 404 throw~ outR;
#X obj 374 288 vibrato~ 0.9;
#X obj 320 23 r p1;
#X obj 320 335 bob~, f 17;
#X obj 466 312 ramp~ 50;
#X obj 320 216 ahdsr~ 1000 0 500 0.2 2000;
#X obj 320 47 maybe 0.5;
#X obj 623 141 mtof;
#X obj 623 195 t b f, f 8;
#X obj 677 267 square~;
#X obj 715 243 wobble 5000 10000;
#X obj 677 243 sig~;
#X obj 623 407 throw~ outL;
#X obj 704 407 throw~ outR;
#X obj 677 291 vibrato~ 0.9;
#X obj 623 26 r p1;
#X obj 623 338 bob~, f 17;
#X obj 769 315 ramp~ 50;
#X obj 623 219 ahdsr~ 1000 0 500 0.2 2000;
#X obj 623 50 maybe 0.5;
#X obj 43 359 pan~ 0.2;
#X obj 320 359 pan~ 0.2;
#X obj 623 362 pan~ 0.2;
#X obj 43 90 scaled 0 1 48 90;
#X obj 466 20 r a;
#X obj 491 20 r d;
#X obj 516 20 r r;
#X obj 320 90 scaled 0 1 50 82;
#X obj 623 93 scaled 0 1 55 67;
#X obj 43 114 quantizedmode mixolydian 60;
#X obj 320 114 quantizedmode mixolydian 60;
#X obj 623 117 quantizedmode mixolydian 60;
#X obj 189 288 * 3;
#X obj 466 288 * 3;
#X obj 769 291 * 3;
#X obj 205 38 r g1;
#X obj 43 162 ramp;
#X obj 320 162 ramp;
#X obj 623 165 ramp;
#X obj 144 18 r ramp;
#X obj 196 146 r tick;
#X obj 196 170 sequ.impl;
#X obj 256 146 r sequ;
#X obj 512 140 r tick;
#X obj 512 164 sequ.impl;
#X obj 572 140 r sequ;
#X obj 512 188 * 18000;
#X obj 512 212 sig~;
#X obj 43 240 *~;
#X obj 320 240 *~;
#X obj 623 243 *~;
#X connect 0 0 55 0;
#X connect 1 1 4 0;
#X connect 2 0 7 0;
#X connect 3 0 2 1;
#X connect 4 0 2 0;
#X connect 7 0 9 0;
#X connect 8 0 12 0;
#X connect 9 0 39 0;
#X connect 10 0 9 2;
#X connect 11 0 67 0;
#X connect 12 0 42 0;
#X connect 13 0 56 0;
#X connect 14 1 17 0;
#X connect 15 0 20 0;
#X connect 16 0 15 1;
#X connect 17 0 15 0;
#X connect 20 0 22 0;
#X connect 21 0 25 0;
#X connect 22 0 40 0;
#X connect 23 0 22 2;
#X connect 24 0 68 0;
#X connect 25 0 46 0;
#X connect 26 0 57 0;
#X connect 27 1 30 0;
#X connect 28 0 33 0;
#X connect 29 0 28 1;
#X connect 30 0 28 0;
#X connect 33 0 35 0;
#X connect 34 0 38 0;
#X connect 35 0 41 0;
#X connect 36 0 35 2;
#X connect 37 0 69 0;
#X connect 38 0 47 0;
#X connect 39 0 5 0;
#X connect 39 1 6 0;
#X connect 40 0 18 0;
#X connect 40 1 19 0;
#X connect 41 0 31 0;
#X connect 41 1 32 0;
#X connect 42 0 48 0;
#X connect 43 0 24 1;
#X connect 43 0 37 1;
#X connect 43 0 11 1;
#X connect 44 0 24 3;
#X connect 44 0 37 3;
#X connect 44 0 11 3;
#X connect 45 0 24 5;
#X connect 45 0 37 5;
#X connect 45 0 11 5;
#X connect 46 0 49 0;
#X connect 47 0 50 0;
#X connect 48 0 0 0;
#X connect 49 0 13 0;
#X connect 50 0 26 0;
#X connect 51 0 10 0;
#X connect 52 0 23 0;
#X connect 53 0 36 0;
#X connect 54 0 11 0;
#X connect 54 0 37 0;
#X connect 54 0 24 0;
#X connect 55 0 1 0;
#X connect 56 0 14 0;
#X connect 57 0 27 0;
#X connect 58 0 55 1;
#X connect 58 0 57 1;
#X connect 58 0 56 1;
#X connect 59 0 60 0;
#X connect 60 0 51 0;
#X connect 60 0 52 0;
#X connect 60 0 53 0;
#X connect 61 0 60 1;
#X connect 62 0 63 0;
#X connect 63 0 65 0;
#X connect 64 0 63 1;
#X connect 65 0 66 0;
#X connect 66 0 68 1;
#X connect 66 0 69 1;
#X connect 66 0 67 1;
#X connect 67 0 9 1;
#X connect 68 0 22 1;
#X connect 69 0 35 1;
#X restore 144 216 pd p1;
#X obj 328 146 s p2;
#X obj 437 146 s p3;
#X obj 546 147 s p4;
#N canvas 150 188 945 462 p2 0;
#X obj 43 138 mtof;
#X obj 43 192 t b f, f 8;
#X obj 97 264 square~;
#X obj 135 240 wobble 5000 10000;
#X obj 97 240 sig~;
#X obj 43 404 throw~ outL;
#X obj 124 404 throw~ outR;
#X obj 97 288 vibrato~ 0.9;
#X obj 43 335 bob~, f 17;
#X obj 189 312 ramp~ 50;
#X obj 43 216 ahdsr~ 1000 0 500 0.2 2000;
#X obj 43 47 maybe 0.5;
#X obj 320 138 mtof;
#X obj 320 192 t b f, f 8;
#X obj 374 264 square~;
#X obj 412 240 wobble 5000 10000;
#X obj 374 240 sig~;
#X obj 320 404 throw~ outL;
#X obj 401 404 throw~ outR;
#X obj 374 288 vibrato~ 0.9;
#X obj 320 335 bob~, f 17;
#X obj 466 312 ramp~ 50;
#X obj 320 216 ahdsr~ 1000 0 500 0.2 2000;
#X obj 320 47 maybe 0.5;
#X obj 623 141 mtof;
#X obj 623 195 t b f, f 8;
#X obj 677 267 square~;
#X obj 715 243 wobble 5000 10000;
#X obj 677 243 sig~;
#X obj 623 407 throw~ outL;
#X obj 704 407 throw~ outR;
#X obj 677 291 vibrato~ 0.9;
#X obj 623 338 bob~, f 17;
#X obj 769 315 ramp~ 50;
#X obj 623 219 ahdsr~ 1000 0 500 0.2 2000;
#X obj 623 50 maybe 0.5;
#X obj 43 23 r p2;
#X obj 320 23 r p2;
#X obj 623 26 r p2;
#X obj 43 359 pan~ 0.4;
#X obj 320 359 pan~ 0.4;
#X obj 623 362 pan~ 0.4;
#X obj 43 90 scaled 0 1 48 90;
#X obj 466 20 r a;
#X obj 491 20 r d;
#X obj 516 20 r r;
#X obj 320 90 scaled 0 1 50 82;
#X obj 623 93 scaled 0 1 55 67;
#X obj 43 114 quantizedmode mixolydian 60;
#X obj 320 114 quantizedmode mixolydian 60;
#X obj 623 117 quantizedmode mixolydian 60;
#X obj 189 288 * 3;
#X obj 466 288 * 3;
#X obj 769 291 * 3;
#X obj 205 38 r g2;
#X obj 43 162 ramp;
#X obj 320 162 ramp;
#X obj 623 165 ramp;
#X obj 144 18 r ramp;
#X obj 196 142 r tick;
#X obj 196 166 sequ.impl;
#X obj 256 142 r sequ;
#X obj 512 140 r tick;
#X obj 512 164 sequ.impl;
#X obj 572 140 r sequ;
#X obj 512 188 * 18000;
#X obj 512 212 sig~;
#X obj 43 240 *~;
#X obj 320 240 *~;
#X obj 623 243 *~;
#X connect 0 0 55 0;
#X connect 1 1 4 0;
#X connect 2 0 7 0;
#X connect 3 0 2 1;
#X connect 4 0 2 0;
#X connect 7 0 8 0;
#X connect 8 0 39 0;
#X connect 9 0 8 2;
#X connect 10 0 67 0;
#X connect 11 0 42 0;
#X connect 12 0 56 0;
#X connect 13 1 16 0;
#X connect 14 0 19 0;
#X connect 15 0 14 1;
#X connect 16 0 14 0;
#X connect 19 0 20 0;
#X connect 20 0 40 0;
#X connect 21 0 20 2;
#X connect 22 0 68 0;
#X connect 23 0 46 0;
#X connect 24 0 57 0;
#X connect 25 1 28 0;
#X connect 26 0 31 0;
#X connect 27 0 26 1;
#X connect 28 0 26 0;
#X connect 31 0 32 0;
#X connect 32 0 41 0;
#X connect 33 0 32 2;
#X connect 34 0 69 0;
#X connect 35 0 47 0;
#X connect 36 0 11 0;
#X connect 37 0 23 0;
#X connect 38 0 35 0;
#X connect 39 0 5 0;
#X connect 39 1 6 0;
#X connect 40 0 17 0;
#X connect 40 1 18 0;
#X connect 41 0 29 0;
#X connect 41 1 30 0;
#X connect 42 0 48 0;
#X connect 43 0 22 1;
#X connect 43 0 34 1;
#X connect 43 0 10 1;
#X connect 44 0 22 3;
#X connect 44 0 34 3;
#X connect 44 0 10 3;
#X connect 45 0 22 5;
#X connect 45 0 34 5;
#X connect 45 0 10 5;
#X connect 46 0 49 0;
#X connect 47 0 50 0;
#X connect 48 0 0 0;
#X connect 49 0 12 0;
#X connect 50 0 24 0;
#X connect 51 0 9 0;
#X connect 52 0 21 0;
#X connect 53 0 33 0;
#X connect 54 0 10 0;
#X connect 54 0 34 0;
#X connect 54 0 22 0;
#X connect 55 0 1 0;
#X connect 56 0 13 0;
#X connect 57 0 25 0;
#X connect 58 0 55 1;
#X connect 58 0 57 1;
#X connect 58 0 56 1;
#X connect 59 0 60 0;
#X connect 60 0 51 0;
#X connect 60 0 53 0;
#X connect 60 0 52 0;
#X connect 61 0 60 1;
#X connect 62 0 63 0;
#X connect 63 0 65 0;
#X connect 64 0 63 1;
#X connect 65 0 66 0;
#X connect 66 0 69 1;
#X connect 66 0 67 1;
#X connect 66 0 68 1;
#X connect 67 0 8 1;
#X connect 68 0 20 1;
#X connect 69 0 32 1;
#X restore 186 216 pd p2;
#N canvas 150 188 945 494 p3 0;
#X obj 43 138 mtof;
#X obj 43 192 t b f, f 8;
#X obj 97 264 square~;
#X obj 135 240 wobble 5000 10000;
#X obj 97 240 sig~;
#X obj 43 404 throw~ outL;
#X obj 124 404 throw~ outR;
#X obj 97 288 vibrato~ 0.9;
#X obj 43 335 bob~, f 17;
#X obj 189 312 ramp~ 50;
#X obj 43 216 ahdsr~ 1000 0 500 0.2 2000;
#X obj 43 47 maybe 0.5;
#X obj 320 138 mtof;
#X obj 320 192 t b f, f 8;
#X obj 374 264 square~;
#X obj 412 240 wobble 5000 10000;
#X obj 374 240 sig~;
#X obj 320 404 throw~ outL;
#X obj 401 404 throw~ outR;
#X obj 374 288 vibrato~ 0.9;
#X obj 320 335 bob~, f 17;
#X obj 466 312 ramp~ 50;
#X obj 320 216 ahdsr~ 1000 0 500 0.2 2000;
#X obj 320 47 maybe 0.5;
#X obj 623 141 mtof;
#X obj 623 195 t b f, f 8;
#X obj 677 267 square~;
#X obj 715 243 wobble 5000 10000;
#X obj 677 243 sig~;
#X obj 623 407 throw~ outL;
#X obj 704 407 throw~ outR;
#X obj 677 291 vibrato~ 0.9;
#X obj 623 338 bob~, f 17;
#X obj 769 315 ramp~ 50;
#X obj 623 219 ahdsr~ 1000 0 500 0.2 2000;
#X obj 623 50 maybe 0.5;
#X obj 43 23 r p3;
#X obj 320 23 r p3;
#X obj 623 26 r p3;
#X obj 43 359 pan~ 0.6;
#X obj 320 359 pan~ 0.6;
#X obj 623 362 pan~ 0.6;
#X obj 43 90 scaled 0 1 48 90;
#X obj 466 20 r a;
#X obj 491 20 r d;
#X obj 516 20 r r;
#X obj 320 90 scaled 0 1 50 82;
#X obj 623 93 scaled 0 1 55 67;
#X obj 43 114 quantizedmode mixolydian 60;
#X obj 320 114 quantizedmode mixolydian 60;
#X obj 623 117 quantizedmode mixolydian 60;
#X obj 189 288 * 3;
#X obj 466 288 * 3;
#X obj 769 291 * 3;
#X obj 205 38 r g3;
#X obj 43 162 ramp;
#X obj 320 162 ramp;
#X obj 623 165 ramp;
#X obj 144 18 r ramp;
#X obj 196 142 r tick;
#X obj 196 166 sequ.impl;
#X obj 256 142 r sequ;
#X obj 512 140 r tick;
#X obj 512 164 sequ.impl;
#X obj 572 140 r sequ;
#X obj 512 188 * 18000;
#X obj 512 212 sig~;
#X obj 43 240 *~;
#X obj 320 240 *~;
#X obj 623 243 *~;
#X connect 0 0 55 0;
#X connect 1 1 4 0;
#X connect 2 0 7 0;
#X connect 3 0 2 1;
#X connect 4 0 2 0;
#X connect 7 0 8 0;
#X connect 8 0 39 0;
#X connect 9 0 8 2;
#X connect 10 0 67 0;
#X connect 11 0 42 0;
#X connect 12 0 56 0;
#X connect 13 1 16 0;
#X connect 14 0 19 0;
#X connect 15 0 14 1;
#X connect 16 0 14 0;
#X connect 19 0 20 0;
#X connect 20 0 40 0;
#X connect 21 0 20 2;
#X connect 22 0 68 0;
#X connect 23 0 46 0;
#X connect 24 0 57 0;
#X connect 25 1 28 0;
#X connect 26 0 31 0;
#X connect 27 0 26 1;
#X connect 28 0 26 0;
#X connect 31 0 32 0;
#X connect 32 0 41 0;
#X connect 33 0 32 2;
#X connect 34 0 69 0;
#X connect 35 0 47 0;
#X connect 36 0 11 0;
#X connect 37 0 23 0;
#X connect 38 0 35 0;
#X connect 39 0 5 0;
#X connect 39 1 6 0;
#X connect 40 0 17 0;
#X connect 40 1 18 0;
#X connect 41 0 29 0;
#X connect 41 1 30 0;
#X connect 42 0 48 0;
#X connect 43 0 22 1;
#X connect 43 0 34 1;
#X connect 43 0 10 1;
#X connect 44 0 22 3;
#X connect 44 0 34 3;
#X connect 44 0 10 3;
#X connect 45 0 22 5;
#X connect 45 0 34 5;
#X connect 45 0 10 5;
#X connect 46 0 49 0;
#X connect 47 0 50 0;
#X connect 48 0 0 0;
#X connect 49 0 12 0;
#X connect 50 0 24 0;
#X connect 51 0 9 0;
#X connect 52 0 21 0;
#X connect 53 0 33 0;
#X connect 54 0 10 0;
#X connect 54 0 34 0;
#X connect 54 0 22 0;
#X connect 55 0 1 0;
#X connect 56 0 13 0;
#X connect 57 0 25 0;
#X connect 58 0 55 1;
#X connect 58 0 57 1;
#X connect 58 0 56 1;
#X connect 59 0 60 0;
#X connect 60 0 51 0;
#X connect 60 0 53 0;
#X connect 60 0 52 0;
#X connect 61 0 60 1;
#X connect 62 0 63 0;
#X connect 63 0 65 0;
#X connect 64 0 63 1;
#X connect 65 0 66 0;
#X connect 66 0 68 1;
#X connect 66 0 69 1;
#X connect 66 0 67 1;
#X connect 67 0 8 1;
#X connect 68 0 20 1;
#X connect 69 0 32 1;
#X restore 228 216 pd p3;
#X floatatom 70 12 5 0 0 0 - - - 0;
#N canvas 150 188 945 551 p4 0;
#X obj 43 138 mtof;
#X obj 43 212 t b f, f 8;
#X obj 97 284 square~;
#X obj 135 260 wobble 5000 10000;
#X obj 97 260 sig~;
#X obj 43 424 throw~ outL;
#X obj 124 424 throw~ outR;
#X obj 97 308 vibrato~ 0.9;
#X obj 43 355 bob~, f 17;
#X obj 189 332 ramp~ 50;
#X obj 43 236 ahdsr~ 1000 0 500 0.2 2000;
#X obj 43 47 maybe 0.5;
#X obj 320 138 mtof;
#X obj 320 212 t b f, f 8;
#X obj 374 284 square~;
#X obj 412 260 wobble 5000 10000;
#X obj 374 260 sig~;
#X obj 320 424 throw~ outL;
#X obj 401 424 throw~ outR;
#X obj 374 308 vibrato~ 0.9;
#X obj 320 355 bob~, f 17;
#X obj 466 332 ramp~ 50;
#X obj 320 236 ahdsr~ 1000 0 500 0.2 2000;
#X obj 320 47 maybe 0.5;
#X obj 623 141 mtof;
#X obj 623 215 t b f, f 8;
#X obj 677 287 square~;
#X obj 715 263 wobble 5000 10000;
#X obj 677 263 sig~;
#X obj 623 427 throw~ outL;
#X obj 704 427 throw~ outR;
#X obj 677 311 vibrato~ 0.9;
#X obj 623 358 bob~, f 17;
#X obj 769 335 ramp~ 50;
#X obj 623 239 ahdsr~ 1000 0 500 0.2 2000;
#X obj 623 50 maybe 0.5;
#X obj 43 23 r p3;
#X obj 320 23 r p3;
#X obj 623 26 r p3;
#X obj 43 379 pan~ 0.8;
#X obj 320 379 pan~ 0.8;
#X obj 623 382 pan~ 0.8;
#X obj 43 90 scaled 0 1 48 90;
#X obj 466 20 r a;
#X obj 491 20 r d;
#X obj 516 20 r r;
#X obj 320 90 scaled 0 1 50 82;
#X obj 623 93 scaled 0 1 55 67;
#X obj 43 114 quantizedmode mixolydian 60;
#X obj 320 114 quantizedmode mixolydian 60;
#X obj 623 117 quantizedmode mixolydian 60;
#X obj 189 308 * 3;
#X obj 466 308 * 3;
#X obj 769 311 * 3;
#X obj 205 38 r g4;
#X obj 43 162 ramp;
#X obj 320 162 ramp;
#X obj 623 165 ramp;
#X obj 144 18 r ramp;
#X obj 196 142 r tick;
#X obj 196 166 sequ.impl;
#X obj 256 142 r sequ;
#X obj 43 260 *~;
#X obj 320 260 *~;
#X obj 623 263 *~;
#X obj 512 140 r tick;
#X obj 512 164 sequ.impl;
#X obj 572 140 r sequ;
#X obj 512 188 * 18000;
#X obj 512 212 sig~;
#X connect 0 0 55 0;
#X connect 1 1 4 0;
#X connect 2 0 7 0;
#X connect 3 0 2 1;
#X connect 4 0 2 0;
#X connect 7 0 8 0;
#X connect 8 0 39 0;
#X connect 9 0 8 2;
#X connect 10 0 62 0;
#X connect 11 0 42 0;
#X connect 12 0 56 0;
#X connect 13 1 16 0;
#X connect 14 0 19 0;
#X connect 15 0 14 1;
#X connect 16 0 14 0;
#X connect 19 0 20 0;
#X connect 20 0 40 0;
#X connect 21 0 20 2;
#X connect 22 0 63 0;
#X connect 23 0 46 0;
#X connect 24 0 57 0;
#X connect 25 1 28 0;
#X connect 26 0 31 0;
#X connect 27 0 26 1;
#X connect 28 0 26 0;
#X connect 31 0 32 0;
#X connect 32 0 41 0;
#X connect 33 0 32 2;
#X connect 34 0 64 0;
#X connect 35 0 47 0;
#X connect 36 0 11 0;
#X connect 37 0 23 0;
#X connect 38 0 35 0;
#X connect 39 0 5 0;
#X connect 39 1 6 0;
#X connect 40 0 17 0;
#X connect 40 1 18 0;
#X connect 41 0 29 0;
#X connect 41 1 30 0;
#X connect 42 0 48 0;
#X connect 43 0 22 1;
#X connect 43 0 34 1;
#X connect 43 0 10 1;
#X connect 44 0 22 3;
#X connect 44 0 34 3;
#X connect 44 0 10 3;
#X connect 45 0 22 5;
#X connect 45 0 34 5;
#X connect 45 0 10 5;
#X connect 46 0 49 0;
#X connect 47 0 50 0;
#X connect 48 0 0 0;
#X connect 49 0 12 0;
#X connect 50 0 24 0;
#X connect 51 0 9 0;
#X connect 52 0 21 0;
#X connect 53 0 33 0;
#X connect 54 0 10 0;
#X connect 54 0 34 0;
#X connect 54 0 22 0;
#X connect 55 0 1 0;
#X connect 56 0 13 0;
#X connect 57 0 25 0;
#X connect 58 0 55 1;
#X connect 58 0 57 1;
#X connect 58 0 56 1;
#X connect 59 0 60 0;
#X connect 60 0 51 0;
#X connect 60 0 53 0;
#X connect 60 0 52 0;
#X connect 61 0 60 1;
#X connect 62 0 8 1;
#X connect 63 0 20 1;
#X connect 64 0 32 1;
#X connect 65 0 66 0;
#X connect 66 0 68 0;
#X connect 67 0 66 1;
#X connect 68 0 69 0;
#X connect 69 0 64 1;
#X connect 69 0 62 1;
#X connect 69 0 63 1;
#X restore 271 216 pd p4;
#X obj 1137 94 msphsl 0 500;
#X obj 1111 94 s a;
#X obj 1137 114 msphsl 0 500;
#X obj 1111 114 s d;
#X obj 1137 134 msphsl 0 500;
#X obj 1111 134 s r;
#X obj 1137 47 wobble 5000 20000;
#X obj 1137 71 * 500;
#X obj 1264 81 wobble 5000 20000;
#X obj 1264 105 * 500;
#X obj 1258 137 wobble 5000 20000;
#X obj 1258 161 * 500;
#X obj 1119 789 echo~ 160 0.8;
#X obj 1119 763 hip~ 2500;
#X obj 1352 789 echo~ 160 0.8;
#X obj 1352 763 hip~ 2500;
#X obj 1177 722 *~;
#X obj 1339 722 *~;
#X obj 1260 651 msphsl 0 1;
#X obj 1260 674 ramp~;
#X obj 655 171 sel 0;
#X obj 671 43 msphsl 0 1;
#X obj 655 147 >;
#X obj 655 195 s g1;
#X obj 764 171 sel 0;
#X obj 764 147 >;
#X obj 873 171 sel 0;
#X obj 873 147 >;
#X obj 982 171 sel 0;
#X obj 982 147 >;
#X obj 764 195 s g2;
#X obj 873 195 s g3;
#X obj 982 195 s g4;
#X obj 423 266 msphsl 0 100;
#X obj 423 289 s ramp;
#X obj 1369 733 msphsl 0 1;
#X floatatom 1306 105 5 0 0 0 - - - 0;
#X obj 423 218 wobble 5000 20000;
#X obj 423 242 * 20;
#X connect 0 0 1 0;
#X connect 1 0 2 0;
#X connect 3 0 6 0;
#X connect 4 0 5 0;
#X connect 5 0 3 1;
#X connect 6 0 7 0;
#X connect 8 0 10 0;
#X connect 9 0 3 2;
#X connect 10 0 9 0;
#X connect 11 0 4 0;
#X connect 12 0 13 0;
#X connect 13 0 3 0;
#X connect 14 0 13 0;
#X connect 15 0 18 0;
#X connect 15 0 85 0;
#X connect 16 0 18 1;
#X connect 16 0 86 0;
#X connect 17 0 18 0;
#X connect 17 0 18 1;
#X connect 18 0 19 0;
#X connect 18 1 19 1;
#X connect 20 0 22 0;
#X connect 21 0 23 0;
#X connect 22 0 24 0;
#X connect 23 0 25 0;
#X connect 26 0 27 0;
#X connect 27 0 23 1;
#X connect 27 0 22 1;
#X connect 27 0 29 1;
#X connect 28 0 29 0;
#X connect 29 0 30 0;
#X connect 31 0 59 0;
#X connect 33 0 34 0;
#X connect 35 0 36 0;
#X connect 36 0 60 0;
#X connect 37 0 36 1;
#X connect 38 0 39 0;
#X connect 39 0 62 0;
#X connect 40 0 39 1;
#X connect 41 0 42 0;
#X connect 42 0 63 0;
#X connect 43 0 42 1;
#X connect 44 0 45 0;
#X connect 45 0 64 0;
#X connect 46 0 45 1;
#X connect 47 0 48 0;
#X connect 48 0 91 0;
#X connect 49 0 48 1;
#X connect 50 0 51 0;
#X connect 51 0 94 0;
#X connect 52 0 51 1;
#X connect 53 0 54 0;
#X connect 54 0 96 0;
#X connect 55 0 54 1;
#X connect 56 0 57 0;
#X connect 57 0 98 0;
#X connect 58 0 57 1;
#X connect 59 0 32 0;
#X connect 67 0 59 1;
#X connect 69 0 70 0;
#X connect 71 0 72 0;
#X connect 73 0 74 0;
#X connect 75 0 76 0;
#X connect 77 0 78 0;
#X connect 78 0 71 0;
#X connect 79 0 80 0;
#X connect 80 0 73 0;
#X connect 81 0 18 0;
#X connect 82 0 81 0;
#X connect 83 0 18 1;
#X connect 84 0 83 0;
#X connect 85 0 82 0;
#X connect 86 0 84 0;
#X connect 87 0 88 0;
#X connect 88 0 85 1;
#X connect 88 0 86 1;
#X connect 89 0 92 0;
#X connect 90 0 91 1;
#X connect 90 0 94 1;
#X connect 90 0 98 1;
#X connect 90 0 96 1;
#X connect 91 0 89 0;
#X connect 93 0 99 0;
#X connect 94 0 93 0;
#X connect 95 0 100 0;
#X connect 96 0 95 0;
#X connect 97 0 101 0;
#X connect 98 0 97 0;
#X connect 102 0 103 0;
#X connect 104 0 18 2;
#X connect 105 0 78 1;
#X connect 105 0 80 1;
#X connect 106 0 107 0;
#X connect 107 0 102 0;
