#N canvas 521 163 759 564 12;
#X obj 165 71 metronome 250 8;
#X obj 95 503 out~;
#X obj 165 48 tgl 15 0 empty empty empty 17 7 0 10 -262144 -1 -1 1
1;
#X obj 335 98 onbeats 3 7;
#X obj 95 343 mixer~;
#X floatatom 413 159 5 0 1 0 - - -;
#X floatatom 373 158 5 0 0 0 - - -;
#X obj 335 208 vfreeverb~ 0.5 1 0.8 0.2;
#X obj 17 162 osc~ 200;
#X obj 17 215 *~;
#X obj 17 239 distortion~ 1;
#X obj 95 412 mixer~;
#X obj 17 267 lop~ 200;
#X obj 16 114 line;
#X floatatom 17 138 5 0 0 0 - - -;
#X obj 15 30 t b b, f 7;
#X obj 15 54 del 50;
#X obj 35 189 ahdsr~ 2 0 20 0.4 1000;
#X msg 61 54 62;
#X msg 15 78 60 200;
#X obj 165 95 onbeats 1 2 4 6 7;
#X obj 56 137 crackle~;
#X obj 423 124 scaled 0 1 0.3 0.4;
#X obj 219 219 delonce~ 125 1;
#X obj 219 243 *~ 0.5;
#X obj 202 272 vfreeverb~ 0.1 0.8 0.9 0.1;
#X obj 340 312 onbeats 1 2 5 6;
#X obj 340 384 t f b;
#X obj 339 470 *~;
#X obj 200 189 cymbal~ 10 2000;
#X obj 340 336 16step 48 51 59 57;
#X obj 358 442 ahdsr~ 80 0 400 0.3 400;
#X obj 339 494 vibrato~ 2 2;
#X obj 202 296 *~ 0.1;
#X obj 335 182 snare~ 50 0.5 240;
#X obj 17 291 *~ 0.4;
#X obj 340 360 maybe 0.3;
#X obj 340 410 fm~ 3 2 1, f 30;
#X obj 166 17 loadbang;
#X obj 519 174 sel 8;
#X obj 519 223 snare~ 50 0.5 240;
#X obj 519 247 delonce~ 125 1;
#X obj 519 198 maybe 0.2;
#X obj 556 288 bng 15 250 50 0 empty empty empty 17 7 0 10 -262144
-1 -1;
#X obj 556 331 bng 15 250 50 0 empty empty empty 17 7 0 10 -262144
-1 -1;
#X obj 556 307 del 250;
#X obj 592 429 ahdsr~ 0 0 300 0.4 200;
#X obj 577 466 *~;
#X obj 577 402 crackle~;
#X obj 637 402 crackle~;
#X obj 628 473 crackle~;
#X obj 643 493 crackle~;
#X obj 546 355 cymbal~ 80 2000;
#X obj 659 363 vibrato~ 2 2;
#X obj 546 379 echo~ 250 0.4;
#X obj 423 100 lfo sin 0.16666;
#X obj 165 154 kick~;
#X connect 0 0 3 0;
#X connect 0 0 20 0;
#X connect 0 0 26 0;
#X connect 0 0 29 0;
#X connect 0 0 39 0;
#X connect 2 0 0 0;
#X connect 3 0 34 0;
#X connect 4 0 11 0;
#X connect 5 0 34 2;
#X connect 6 0 34 1;
#X connect 7 0 11 7;
#X connect 8 0 9 0;
#X connect 9 0 10 0;
#X connect 10 0 12 0;
#X connect 11 0 1 0;
#X connect 11 0 1 1;
#X connect 12 0 35 0;
#X connect 13 0 14 0;
#X connect 14 0 8 0;
#X connect 15 0 16 0;
#X connect 15 1 18 0;
#X connect 16 0 19 0;
#X connect 17 0 9 1;
#X connect 18 0 13 0;
#X connect 19 0 13 0;
#X connect 20 0 15 0;
#X connect 20 0 17 0;
#X connect 20 0 56 0;
#X connect 21 0 9 0;
#X connect 22 0 5 0;
#X connect 23 0 24 0;
#X connect 24 0 25 0;
#X connect 25 0 33 0;
#X connect 26 0 30 0;
#X connect 27 0 37 0;
#X connect 27 1 31 0;
#X connect 28 0 32 0;
#X connect 29 0 23 0;
#X connect 29 0 25 0;
#X connect 30 0 36 0;
#X connect 31 0 28 1;
#X connect 32 0 11 5;
#X connect 33 0 11 6;
#X connect 34 0 7 0;
#X connect 35 0 4 0;
#X connect 36 0 27 0;
#X connect 37 0 28 0;
#X connect 38 0 2 0;
#X connect 39 0 42 0;
#X connect 40 0 7 0;
#X connect 40 0 41 0;
#X connect 41 0 7 0;
#X connect 42 0 40 0;
#X connect 42 0 43 0;
#X connect 43 0 45 0;
#X connect 44 0 46 0;
#X connect 44 0 52 0;
#X connect 45 0 44 0;
#X connect 46 0 47 1;
#X connect 47 0 7 0;
#X connect 47 0 54 0;
#X connect 48 0 47 0;
#X connect 49 0 47 0;
#X connect 50 0 47 0;
#X connect 51 0 47 0;
#X connect 52 0 53 0;
#X connect 53 0 7 0;
#X connect 53 0 54 0;
#X connect 54 0 7 0;
#X connect 55 0 22 0;
#X connect 56 0 4 1;
