#N canvas 0 38 1512 884 12;
#X obj 10 10 tgl 19 0 empty empty empty 0 -10 0 12 #fcfcfc #000000 #000000 0 1;
#X obj 10 34 metronome 40 16;
#X obj 10 58 s tick;
#X obj 10 82 sequ.params;
#X obj 10 244 s sequ;
#X obj 1133 761 catch~ outL;
#X obj 1214 761 catch~ outC;
#X obj 1295 761 catch~ outR;
#X obj 1133 785 compressor2~, f 47;
#X obj 1273 809 outrec~;
#X floatatom 61 11 5 0 0 0 - - - 0;
#N canvas 132 162 1299 675 voice 0;
#X obj 245 46 maybe 0.8;
#X obj 245 137 mtof;
#X obj 245 233 osc~;
#X obj 245 257 *~ 0.5;
#X obj 299 257 square~, f 9;
#N canvas 150 188 145 91 sequ 0;
#X obj 16 13 r tick;
#X obj 16 37 sequ.impl;
#X obj 76 13 r sequ;
#X obj 16 61 outlet;
#X connect 0 0 1 0;
#X connect 1 0 3 0;
#X connect 2 0 1 1;
#X restore 245 22 pd sequ;
#N canvas 150 188 145 91 sequ 0;
#X obj 16 13 r tick;
#X obj 16 37 sequ.impl;
#X obj 76 13 r sequ;
#X obj 16 61 outlet;
#X connect 0 0 1 0;
#X connect 1 0 3 0;
#X connect 2 0 1 1;
#X restore 359 233 pd sequ;
#N canvas 150 188 145 91 sequ 0;
#X obj 16 13 r tick;
#X obj 16 37 sequ.impl;
#X obj 76 13 r sequ;
#X obj 16 61 outlet;
#X connect 0 0 1 0;
#X connect 1 0 3 0;
#X connect 2 0 1 1;
#X restore 448 63 pd sequ;
#N canvas 150 188 145 91 sequ 0;
#X obj 16 13 r tick;
#X obj 16 37 sequ.impl;
#X obj 76 13 r sequ;
#X obj 16 61 outlet;
#X connect 0 0 1 0;
#X connect 1 0 3 0;
#X connect 2 0 1 1;
#X restore 487 135 pd sequ;
#N canvas 150 188 145 91 sequ 0;
#X obj 16 13 r tick;
#X obj 16 37 sequ.impl;
#X obj 76 13 r sequ;
#X obj 16 61 outlet;
#X connect 0 0 1 0;
#X connect 1 0 3 0;
#X connect 2 0 1 1;
#X restore 660 118 pd sequ;
#N canvas 150 188 145 91 sequ 0;
#X obj 16 13 r tick;
#X obj 16 37 sequ.impl;
#X obj 76 13 r sequ;
#X obj 16 61 outlet;
#X connect 0 0 1 0;
#X connect 1 0 3 0;
#X connect 2 0 1 1;
#X restore 749 185 pd sequ;
#N canvas 150 188 145 91 sequ 0;
#X obj 16 13 r tick;
#X obj 16 37 sequ.impl;
#X obj 76 13 r sequ;
#X obj 16 61 outlet;
#X connect 0 0 1 0;
#X connect 1 0 3 0;
#X connect 2 0 1 1;
#X restore 355 377 pd sequ;
#N canvas 150 188 145 91 sequ 0;
#X obj 16 13 r tick;
#X obj 16 37 sequ.impl;
#X obj 76 13 r sequ;
#X obj 16 61 outlet;
#X connect 0 0 1 0;
#X connect 1 0 3 0;
#X connect 2 0 1 1;
#X restore 272 446 pd sequ;
#N canvas 150 188 145 91 sequ 0;
#X obj 16 13 r tick;
#X obj 16 37 sequ.impl;
#X obj 76 13 r sequ;
#X obj 16 61 outlet;
#X connect 0 0 1 0;
#X connect 1 0 3 0;
#X connect 2 0 1 1;
#X restore 482 446 pd sequ;
#N canvas 150 188 145 91 sequ 0;
#X obj 16 13 r tick;
#X obj 16 37 sequ.impl;
#X obj 76 13 r sequ;
#X obj 16 61 outlet;
#X connect 0 0 1 0;
#X connect 1 0 3 0;
#X connect 2 0 1 1;
#X restore 164 359 pd sequ;
#N canvas 150 188 145 91 sequ 0;
#X obj 16 13 r tick;
#X obj 16 37 sequ.impl;
#X obj 76 13 r sequ;
#X obj 16 61 outlet;
#X connect 0 0 1 0;
#X connect 1 0 3 0;
#X connect 2 0 1 1;
#X restore 155 212 pd sequ;
#N canvas 150 188 145 91 sequ 0;
#X obj 16 13 r tick;
#X obj 16 37 sequ.impl;
#X obj 76 13 r sequ;
#X obj 16 61 outlet;
#X connect 0 0 1 0;
#X connect 1 0 3 0;
#X connect 2 0 1 1;
#X restore 678 257 pd sequ;
#N canvas 150 188 145 91 sequ 0;
#X obj 16 13 r tick;
#X obj 16 37 sequ.impl;
#X obj 76 13 r sequ;
#X obj 16 61 outlet;
#X connect 0 0 1 0;
#X connect 1 0 3 0;
#X connect 2 0 1 1;
#X restore 1075 281 pd sequ;
#N canvas 150 188 145 91 sequ 0;
#X obj 16 13 r tick;
#X obj 16 37 sequ.impl;
#X obj 76 13 r sequ;
#X obj 16 61 outlet;
#X connect 0 0 1 0;
#X connect 1 0 3 0;
#X connect 2 0 1 1;
#X restore 277 137 pd sequ;
#X obj 299 233 * 0.505;
#X obj 448 87 scaled 0 1 60 90;
#X obj 448 159 osc~;
#X obj 448 207 *~, f 6;
#X obj 487 159 sig~;
#X obj 245 185 ramp~;
#X obj 448 135 mtof;
#X obj 245 209 +~;
#X obj 245 353 bob~, f 119;
#X obj 660 209 sel 1;
#N canvas 150 188 145 91 sequ 0;
#X obj 16 13 r tick;
#X obj 16 37 sequ.impl;
#X obj 76 13 r sequ;
#X obj 16 61 outlet;
#X connect 0 0 1 0;
#X connect 1 0 3 0;
#X connect 2 0 1 1;
#X restore 927 185 pd sequ;
#N canvas 150 188 145 91 sequ 0;
#X obj 16 13 r tick;
#X obj 16 37 sequ.impl;
#X obj 76 13 r sequ;
#X obj 16 61 outlet;
#X connect 0 0 1 0;
#X connect 1 0 3 0;
#X connect 2 0 1 1;
#X restore 1105 185 pd sequ;
#X obj 1105 209 * 500;
#X obj 660 233 ahdsr~ 5 0 50 0.25 50, f 64;
#X obj 660 329 *~;
#X obj 245 113 quantizedmode aeolian 60;
#X obj 448 111 quantizedmode aeolian 60;
#X obj 487 183 *~ 50;
#X obj 245 401 pan~;
#X obj 176 446 throw~ outL;
#X obj 365 446 throw~ outR;
#X obj 277 161 * 20;
#X obj 927 209 * 100;
#X obj 678 305 ramp~;
#X obj 1075 329 ramp~;
#X obj 37 431 throw~ outC;
#X obj 37 407 lop~ 5000;
#X obj 145 470 level~;
#X obj 145 517 throw~ outL;
#X obj 355 470 level~;
#X obj 355 517 throw~ outR;
#X obj 245 377 hip~ 1500;
#X obj 103 236 level~;
#X obj 145 493 echo~ 90 0.6;
#X obj 355 493 echo~ 90 0.6;
#X obj 37 384 level~;
#X obj 245 89 scaled 0 1 35 85;
#X obj 678 281 * 5000;
#X obj 103 211 noise~;
#X obj 749 209 scaled 0 1 1 100;
#X obj 660 185 > 0.5;
#X obj 660 142 maybe 0.8;
#X obj 1075 305 * 4;
#X connect 0 0 55 0;
#X connect 1 0 24 0;
#X connect 1 0 19 0;
#X connect 2 0 3 0;
#X connect 3 0 27 0;
#X connect 4 0 3 0;
#X connect 5 0 0 0;
#X connect 6 0 4 1;
#X connect 7 0 20 0;
#X connect 8 0 23 0;
#X connect 9 0 60 0;
#X connect 10 0 58 0;
#X connect 11 0 37 1;
#X connect 12 0 46 1;
#X connect 13 0 48 1;
#X connect 14 0 54 1;
#X connect 15 0 51 1;
#X connect 16 0 56 0;
#X connect 17 0 61 0;
#X connect 18 0 40 0;
#X connect 19 0 4 0;
#X connect 20 0 35 0;
#X connect 21 0 22 0;
#X connect 22 0 26 1;
#X connect 23 0 36 0;
#X connect 24 0 26 0;
#X connect 25 0 21 0;
#X connect 26 0 2 0;
#X connect 27 0 50 0;
#X connect 27 0 54 0;
#X connect 28 0 32 0;
#X connect 29 0 41 0;
#X connect 30 0 31 0;
#X connect 31 0 32 5;
#X connect 32 0 33 0;
#X connect 33 0 27 1;
#X connect 34 0 1 0;
#X connect 35 0 25 0;
#X connect 36 0 22 1;
#X connect 37 0 38 0;
#X connect 37 0 46 0;
#X connect 37 1 39 0;
#X connect 37 1 48 0;
#X connect 40 0 24 1;
#X connect 41 0 32 3;
#X connect 42 0 33 1;
#X connect 43 0 27 2;
#X connect 45 0 44 0;
#X connect 46 0 52 0;
#X connect 48 0 53 0;
#X connect 50 0 37 0;
#X connect 52 0 47 0;
#X connect 53 0 49 0;
#X connect 54 0 45 0;
#X connect 55 0 34 0;
#X connect 56 0 42 0;
#X connect 57 0 51 0;
#X connect 58 0 32 1;
#X connect 59 0 28 0;
#X connect 60 0 59 0;
#X connect 61 0 43 0;
#X restore 858 369 pd voice;
#N canvas 130 166 1299 675 voice 0;
#X obj 245 46 maybe 0.8;
#X obj 245 137 mtof;
#X obj 245 233 osc~;
#X obj 245 257 *~ 0.5;
#X obj 299 257 square~, f 9;
#N canvas 150 188 145 91 sequ 0;
#X obj 16 13 r tick;
#X obj 16 37 sequ.impl;
#X obj 76 13 r sequ;
#X obj 16 61 outlet;
#X connect 0 0 1 0;
#X connect 1 0 3 0;
#X connect 2 0 1 1;
#X restore 245 22 pd sequ;
#N canvas 150 188 145 91 sequ 0;
#X obj 16 13 r tick;
#X obj 16 37 sequ.impl;
#X obj 76 13 r sequ;
#X obj 16 61 outlet;
#X connect 0 0 1 0;
#X connect 1 0 3 0;
#X connect 2 0 1 1;
#X restore 359 233 pd sequ;
#N canvas 150 188 145 91 sequ 0;
#X obj 16 13 r tick;
#X obj 16 37 sequ.impl;
#X obj 76 13 r sequ;
#X obj 16 61 outlet;
#X connect 0 0 1 0;
#X connect 1 0 3 0;
#X connect 2 0 1 1;
#X restore 448 63 pd sequ;
#N canvas 150 188 145 91 sequ 0;
#X obj 16 13 r tick;
#X obj 16 37 sequ.impl;
#X obj 76 13 r sequ;
#X obj 16 61 outlet;
#X connect 0 0 1 0;
#X connect 1 0 3 0;
#X connect 2 0 1 1;
#X restore 487 135 pd sequ;
#N canvas 150 188 145 91 sequ 0;
#X obj 16 13 r tick;
#X obj 16 37 sequ.impl;
#X obj 76 13 r sequ;
#X obj 16 61 outlet;
#X connect 0 0 1 0;
#X connect 1 0 3 0;
#X connect 2 0 1 1;
#X restore 660 118 pd sequ;
#N canvas 150 188 145 91 sequ 0;
#X obj 16 13 r tick;
#X obj 16 37 sequ.impl;
#X obj 76 13 r sequ;
#X obj 16 61 outlet;
#X connect 0 0 1 0;
#X connect 1 0 3 0;
#X connect 2 0 1 1;
#X restore 749 185 pd sequ;
#N canvas 150 188 145 91 sequ 0;
#X obj 16 13 r tick;
#X obj 16 37 sequ.impl;
#X obj 76 13 r sequ;
#X obj 16 61 outlet;
#X connect 0 0 1 0;
#X connect 1 0 3 0;
#X connect 2 0 1 1;
#X restore 355 377 pd sequ;
#N canvas 150 188 145 91 sequ 0;
#X obj 16 13 r tick;
#X obj 16 37 sequ.impl;
#X obj 76 13 r sequ;
#X obj 16 61 outlet;
#X connect 0 0 1 0;
#X connect 1 0 3 0;
#X connect 2 0 1 1;
#X restore 272 446 pd sequ;
#N canvas 150 188 145 91 sequ 0;
#X obj 16 13 r tick;
#X obj 16 37 sequ.impl;
#X obj 76 13 r sequ;
#X obj 16 61 outlet;
#X connect 0 0 1 0;
#X connect 1 0 3 0;
#X connect 2 0 1 1;
#X restore 482 446 pd sequ;
#N canvas 150 188 145 91 sequ 0;
#X obj 16 13 r tick;
#X obj 16 37 sequ.impl;
#X obj 76 13 r sequ;
#X obj 16 61 outlet;
#X connect 0 0 1 0;
#X connect 1 0 3 0;
#X connect 2 0 1 1;
#X restore 164 359 pd sequ;
#N canvas 150 188 145 91 sequ 0;
#X obj 16 13 r tick;
#X obj 16 37 sequ.impl;
#X obj 76 13 r sequ;
#X obj 16 61 outlet;
#X connect 0 0 1 0;
#X connect 1 0 3 0;
#X connect 2 0 1 1;
#X restore 155 212 pd sequ;
#N canvas 150 188 145 91 sequ 0;
#X obj 16 13 r tick;
#X obj 16 37 sequ.impl;
#X obj 76 13 r sequ;
#X obj 16 61 outlet;
#X connect 0 0 1 0;
#X connect 1 0 3 0;
#X connect 2 0 1 1;
#X restore 678 257 pd sequ;
#N canvas 150 188 145 91 sequ 0;
#X obj 16 13 r tick;
#X obj 16 37 sequ.impl;
#X obj 76 13 r sequ;
#X obj 16 61 outlet;
#X connect 0 0 1 0;
#X connect 1 0 3 0;
#X connect 2 0 1 1;
#X restore 1075 281 pd sequ;
#N canvas 150 188 145 91 sequ 0;
#X obj 16 13 r tick;
#X obj 16 37 sequ.impl;
#X obj 76 13 r sequ;
#X obj 16 61 outlet;
#X connect 0 0 1 0;
#X connect 1 0 3 0;
#X connect 2 0 1 1;
#X restore 277 137 pd sequ;
#X obj 299 233 * 0.505;
#X obj 448 87 scaled 0 1 60 90;
#X obj 448 159 osc~;
#X obj 448 207 *~, f 6;
#X obj 487 159 sig~;
#X obj 245 185 ramp~;
#X obj 448 135 mtof;
#X obj 245 209 +~;
#X obj 245 353 bob~, f 119;
#X obj 660 209 sel 1;
#N canvas 150 188 145 91 sequ 0;
#X obj 16 13 r tick;
#X obj 16 37 sequ.impl;
#X obj 76 13 r sequ;
#X obj 16 61 outlet;
#X connect 0 0 1 0;
#X connect 1 0 3 0;
#X connect 2 0 1 1;
#X restore 927 185 pd sequ;
#N canvas 150 188 145 91 sequ 0;
#X obj 16 13 r tick;
#X obj 16 37 sequ.impl;
#X obj 76 13 r sequ;
#X obj 16 61 outlet;
#X connect 0 0 1 0;
#X connect 1 0 3 0;
#X connect 2 0 1 1;
#X restore 1105 185 pd sequ;
#X obj 1105 209 * 500;
#X obj 660 233 ahdsr~ 5 0 50 0.25 50, f 64;
#X obj 660 329 *~;
#X obj 245 113 quantizedmode aeolian 60;
#X obj 448 111 quantizedmode aeolian 60;
#X obj 487 183 *~ 50;
#X obj 245 401 pan~;
#X obj 176 446 throw~ outL;
#X obj 365 446 throw~ outR;
#X obj 277 161 * 20;
#X obj 927 209 * 100;
#X obj 678 305 ramp~;
#X obj 1075 329 ramp~;
#X obj 37 431 throw~ outC;
#X obj 37 407 lop~ 5000;
#X obj 145 470 level~;
#X obj 145 517 throw~ outL;
#X obj 355 470 level~;
#X obj 355 517 throw~ outR;
#X obj 245 377 hip~ 1500;
#X obj 103 236 level~;
#X obj 145 493 echo~ 90 0.6;
#X obj 355 493 echo~ 90 0.6;
#X obj 37 384 level~;
#X obj 245 89 scaled 0 1 45 85;
#X obj 678 281 * 10000;
#X obj 103 211 noise~;
#X obj 749 209 scaled 0 1 1 100;
#X obj 660 185 > 0.5;
#X obj 660 142 maybe 0.8;
#X obj 1075 305 * 4;
#X connect 0 0 55 0;
#X connect 1 0 24 0;
#X connect 1 0 19 0;
#X connect 2 0 3 0;
#X connect 3 0 27 0;
#X connect 4 0 3 0;
#X connect 5 0 0 0;
#X connect 6 0 4 1;
#X connect 7 0 20 0;
#X connect 8 0 23 0;
#X connect 9 0 60 0;
#X connect 10 0 58 0;
#X connect 11 0 37 1;
#X connect 12 0 46 1;
#X connect 13 0 48 1;
#X connect 14 0 54 1;
#X connect 15 0 51 1;
#X connect 16 0 56 0;
#X connect 17 0 61 0;
#X connect 18 0 40 0;
#X connect 19 0 4 0;
#X connect 20 0 35 0;
#X connect 21 0 22 0;
#X connect 22 0 26 1;
#X connect 23 0 36 0;
#X connect 24 0 26 0;
#X connect 25 0 21 0;
#X connect 26 0 2 0;
#X connect 27 0 50 0;
#X connect 27 0 54 0;
#X connect 28 0 32 0;
#X connect 29 0 41 0;
#X connect 30 0 31 0;
#X connect 31 0 32 5;
#X connect 32 0 33 0;
#X connect 33 0 27 1;
#X connect 34 0 1 0;
#X connect 35 0 25 0;
#X connect 36 0 22 1;
#X connect 37 0 38 0;
#X connect 37 0 46 0;
#X connect 37 1 39 0;
#X connect 37 1 48 0;
#X connect 40 0 24 1;
#X connect 41 0 32 3;
#X connect 42 0 33 1;
#X connect 43 0 27 2;
#X connect 45 0 44 0;
#X connect 46 0 52 0;
#X connect 48 0 53 0;
#X connect 50 0 37 0;
#X connect 51 0 3 0;
#X connect 52 0 47 0;
#X connect 53 0 49 0;
#X connect 54 0 45 0;
#X connect 55 0 34 0;
#X connect 56 0 42 0;
#X connect 57 0 51 0;
#X connect 58 0 32 1;
#X connect 59 0 28 0;
#X connect 60 0 59 0;
#X connect 61 0 43 0;
#X restore 923 369 pd voice;
#N canvas 135 167 1299 675 voice 0;
#X obj 245 46 maybe 0.8;
#X obj 245 137 mtof;
#X obj 245 233 osc~;
#X obj 245 257 *~ 0.5;
#X obj 299 257 square~, f 9;
#N canvas 150 188 145 91 sequ 0;
#X obj 16 13 r tick;
#X obj 16 37 sequ.impl;
#X obj 76 13 r sequ;
#X obj 16 61 outlet;
#X connect 0 0 1 0;
#X connect 1 0 3 0;
#X connect 2 0 1 1;
#X restore 245 22 pd sequ;
#N canvas 150 188 145 91 sequ 0;
#X obj 16 13 r tick;
#X obj 16 37 sequ.impl;
#X obj 76 13 r sequ;
#X obj 16 61 outlet;
#X connect 0 0 1 0;
#X connect 1 0 3 0;
#X connect 2 0 1 1;
#X restore 359 233 pd sequ;
#N canvas 150 188 145 91 sequ 0;
#X obj 16 13 r tick;
#X obj 16 37 sequ.impl;
#X obj 76 13 r sequ;
#X obj 16 61 outlet;
#X connect 0 0 1 0;
#X connect 1 0 3 0;
#X connect 2 0 1 1;
#X restore 448 63 pd sequ;
#N canvas 150 188 145 91 sequ 0;
#X obj 16 13 r tick;
#X obj 16 37 sequ.impl;
#X obj 76 13 r sequ;
#X obj 16 61 outlet;
#X connect 0 0 1 0;
#X connect 1 0 3 0;
#X connect 2 0 1 1;
#X restore 487 135 pd sequ;
#N canvas 150 188 145 91 sequ 0;
#X obj 16 13 r tick;
#X obj 16 37 sequ.impl;
#X obj 76 13 r sequ;
#X obj 16 61 outlet;
#X connect 0 0 1 0;
#X connect 1 0 3 0;
#X connect 2 0 1 1;
#X restore 660 118 pd sequ;
#N canvas 150 188 145 91 sequ 0;
#X obj 16 13 r tick;
#X obj 16 37 sequ.impl;
#X obj 76 13 r sequ;
#X obj 16 61 outlet;
#X connect 0 0 1 0;
#X connect 1 0 3 0;
#X connect 2 0 1 1;
#X restore 749 185 pd sequ;
#N canvas 150 188 145 91 sequ 0;
#X obj 16 13 r tick;
#X obj 16 37 sequ.impl;
#X obj 76 13 r sequ;
#X obj 16 61 outlet;
#X connect 0 0 1 0;
#X connect 1 0 3 0;
#X connect 2 0 1 1;
#X restore 355 377 pd sequ;
#N canvas 150 188 145 91 sequ 0;
#X obj 16 13 r tick;
#X obj 16 37 sequ.impl;
#X obj 76 13 r sequ;
#X obj 16 61 outlet;
#X connect 0 0 1 0;
#X connect 1 0 3 0;
#X connect 2 0 1 1;
#X restore 272 446 pd sequ;
#N canvas 150 188 145 91 sequ 0;
#X obj 16 13 r tick;
#X obj 16 37 sequ.impl;
#X obj 76 13 r sequ;
#X obj 16 61 outlet;
#X connect 0 0 1 0;
#X connect 1 0 3 0;
#X connect 2 0 1 1;
#X restore 482 446 pd sequ;
#N canvas 150 188 145 91 sequ 0;
#X obj 16 13 r tick;
#X obj 16 37 sequ.impl;
#X obj 76 13 r sequ;
#X obj 16 61 outlet;
#X connect 0 0 1 0;
#X connect 1 0 3 0;
#X connect 2 0 1 1;
#X restore 164 359 pd sequ;
#N canvas 150 188 145 91 sequ 0;
#X obj 16 13 r tick;
#X obj 16 37 sequ.impl;
#X obj 76 13 r sequ;
#X obj 16 61 outlet;
#X connect 0 0 1 0;
#X connect 1 0 3 0;
#X connect 2 0 1 1;
#X restore 155 212 pd sequ;
#N canvas 150 188 145 91 sequ 0;
#X obj 16 13 r tick;
#X obj 16 37 sequ.impl;
#X obj 76 13 r sequ;
#X obj 16 61 outlet;
#X connect 0 0 1 0;
#X connect 1 0 3 0;
#X connect 2 0 1 1;
#X restore 678 257 pd sequ;
#N canvas 150 188 145 91 sequ 0;
#X obj 16 13 r tick;
#X obj 16 37 sequ.impl;
#X obj 76 13 r sequ;
#X obj 16 61 outlet;
#X connect 0 0 1 0;
#X connect 1 0 3 0;
#X connect 2 0 1 1;
#X restore 1075 281 pd sequ;
#N canvas 150 188 145 91 sequ 0;
#X obj 16 13 r tick;
#X obj 16 37 sequ.impl;
#X obj 76 13 r sequ;
#X obj 16 61 outlet;
#X connect 0 0 1 0;
#X connect 1 0 3 0;
#X connect 2 0 1 1;
#X restore 277 137 pd sequ;
#X obj 299 233 * 0.505;
#X obj 448 87 scaled 0 1 60 90;
#X obj 448 159 osc~;
#X obj 448 207 *~, f 6;
#X obj 487 159 sig~;
#X obj 245 185 ramp~;
#X obj 448 135 mtof;
#X obj 245 209 +~;
#X obj 245 353 bob~, f 119;
#X obj 660 209 sel 1;
#N canvas 150 188 145 91 sequ 0;
#X obj 16 13 r tick;
#X obj 16 37 sequ.impl;
#X obj 76 13 r sequ;
#X obj 16 61 outlet;
#X connect 0 0 1 0;
#X connect 1 0 3 0;
#X connect 2 0 1 1;
#X restore 927 185 pd sequ;
#N canvas 150 188 145 91 sequ 0;
#X obj 16 13 r tick;
#X obj 16 37 sequ.impl;
#X obj 76 13 r sequ;
#X obj 16 61 outlet;
#X connect 0 0 1 0;
#X connect 1 0 3 0;
#X connect 2 0 1 1;
#X restore 1105 185 pd sequ;
#X obj 1105 209 * 500;
#X obj 660 233 ahdsr~ 5 0 50 0.25 50, f 64;
#X obj 660 329 *~;
#X obj 678 281 * 15000;
#X obj 245 113 quantizedmode aeolian 60;
#X obj 448 111 quantizedmode aeolian 60;
#X obj 487 183 *~ 50;
#X obj 245 401 pan~;
#X obj 176 446 throw~ outL;
#X obj 365 446 throw~ outR;
#X obj 277 161 * 20;
#X obj 927 209 * 100;
#X obj 678 305 ramp~;
#X obj 1075 329 ramp~;
#X obj 37 431 throw~ outC;
#X obj 37 407 lop~ 5000;
#X obj 145 470 level~;
#X obj 145 517 throw~ outL;
#X obj 355 470 level~;
#X obj 355 517 throw~ outR;
#X obj 245 377 hip~ 1500;
#X obj 103 236 level~;
#X obj 145 493 echo~ 90 0.6;
#X obj 355 493 echo~ 90 0.6;
#X obj 37 384 level~;
#X obj 245 89 scaled 0 1 50 92;
#X obj 103 211 noise~;
#X obj 749 209 scaled 0 1 1 100;
#X obj 660 185 > 0.5;
#X obj 660 142 maybe 0.8;
#X obj 1075 305 * 4;
#X connect 0 0 56 0;
#X connect 1 0 24 0;
#X connect 1 0 19 0;
#X connect 2 0 3 0;
#X connect 3 0 27 0;
#X connect 4 0 3 0;
#X connect 5 0 0 0;
#X connect 6 0 4 1;
#X connect 7 0 20 0;
#X connect 8 0 23 0;
#X connect 9 0 60 0;
#X connect 10 0 58 0;
#X connect 11 0 38 1;
#X connect 12 0 47 1;
#X connect 13 0 49 1;
#X connect 14 0 55 1;
#X connect 15 0 52 1;
#X connect 16 0 34 0;
#X connect 17 0 61 0;
#X connect 18 0 41 0;
#X connect 19 0 4 0;
#X connect 20 0 36 0;
#X connect 21 0 22 0;
#X connect 22 0 26 1;
#X connect 23 0 37 0;
#X connect 24 0 26 0;
#X connect 25 0 21 0;
#X connect 26 0 2 0;
#X connect 27 0 51 0;
#X connect 27 0 55 0;
#X connect 28 0 32 0;
#X connect 29 0 42 0;
#X connect 30 0 31 0;
#X connect 31 0 32 5;
#X connect 32 0 33 0;
#X connect 33 0 27 1;
#X connect 34 0 43 0;
#X connect 35 0 1 0;
#X connect 36 0 25 0;
#X connect 37 0 22 1;
#X connect 38 0 39 0;
#X connect 38 0 47 0;
#X connect 38 1 40 0;
#X connect 38 1 49 0;
#X connect 41 0 24 1;
#X connect 42 0 32 3;
#X connect 43 0 33 1;
#X connect 44 0 27 2;
#X connect 46 0 45 0;
#X connect 47 0 53 0;
#X connect 49 0 54 0;
#X connect 51 0 38 0;
#X connect 53 0 48 0;
#X connect 54 0 50 0;
#X connect 55 0 46 0;
#X connect 56 0 35 0;
#X connect 57 0 52 0;
#X connect 58 0 32 1;
#X connect 59 0 28 0;
#X connect 60 0 59 0;
#X connect 61 0 44 0;
#X restore 988 369 pd voice;
#X obj 1375 761 msphsl 0 1;
#X obj 280 122 r tick;
#X obj 280 146 counter 32;
#X obj 280 218 migrids;
#X obj 280 170 +;
#X floatatom 307 171 5 0 0 0 - - - 0;
#X obj 280 194 % 32;
#X obj 280 391 kick~;
#X obj 280 590 level~;
#X obj 280 613 throw~ outC;
#X msg 280 367 velocity 1;
#X connect 0 0 1 0;
#X connect 1 0 2 0;
#X connect 3 0 4 0;
#X connect 5 0 8 0;
#X connect 6 0 8 1;
#X connect 6 0 8 0;
#X connect 7 0 8 1;
#X connect 8 0 9 0;
#X connect 8 1 9 1;
#X connect 10 0 1 1;
#X connect 14 0 8 2;
#X connect 15 0 16 0;
#X connect 16 0 18 0;
#X connect 17 0 24 0;
#X connect 18 0 20 0;
#X connect 19 0 18 1;
#X connect 20 0 17 0;
#X connect 21 0 22 0;
#X connect 22 0 23 0;
#X connect 24 0 21 0;
