#N canvas 401 38 848 884 12;
#X obj 145 70 tgl 19 0 empty empty empty 0 -10 0 12 #fcfcfc #000000 #000000 0 1;
#X obj 145 94 metronome 160 16;
#X obj 393 831 throwout~;
#X obj 601 81 catchout~;
#X obj 601 105 compressor2~;
#X obj 601 129 outrec~;
#X floatatom 196 72 5 0 0 0 - - - 0;
#X obj 302 562 dt2~;
#X obj 33 97 sequ.params;
#X obj 33 259 s sequ;
#X obj 302 299 r tick;
#X obj 145 118 s tick;
#X obj 302 323 sequ.impl;
#X obj 352 299 r sequ;
#X obj 100 447 r tick;
#X obj 100 471 sequ.impl;
#X obj 150 447 r sequ;
#X obj 100 519 sel 1;
#X obj 100 495 > 0.25;
#X obj 129 371 *~;
#X obj 175 371 *~;
#X obj 158 300 msphsl 0 1;
#X obj 158 323 ramp~;
#X obj 129 347 pink~;
#X obj 175 347 pink~;
#X obj 516 560 wobble 5000 15000;
#X msg 516 584 spread \$1;
#X obj 302 464 osc~;
#X obj 364 469 osc~;
#X obj 302 348 dt4 aeolian 60;
#X obj 422 464 osc~;
#X obj 484 469 osc~;
#X connect 0 0 1 0;
#X connect 1 0 11 0;
#X connect 3 0 4 0;
#X connect 3 1 4 1;
#X connect 4 0 5 0;
#X connect 4 1 5 1;
#X connect 6 0 1 1;
#X connect 7 0 2 0;
#X connect 7 1 2 1;
#X connect 8 0 9 0;
#X connect 10 0 12 0;
#X connect 12 0 29 0;
#X connect 13 0 12 1;
#X connect 14 0 15 0;
#X connect 15 0 18 0;
#X connect 16 0 15 1;
#X connect 17 0 7 0;
#X connect 18 0 17 0;
#X connect 19 0 7 1;
#X connect 20 0 7 2;
#X connect 21 0 22 0;
#X connect 22 0 19 1;
#X connect 22 0 20 1;
#X connect 23 0 19 0;
#X connect 24 0 20 0;
#X connect 25 0 26 0;
#X connect 26 0 7 3;
#X connect 27 0 7 1;
#X connect 28 0 7 2;
#X connect 29 0 27 0;
#X connect 29 1 28 0;
#X connect 29 2 30 0;
#X connect 29 3 31 0;
