#N canvas 401 38 848 884 12;
#X obj 145 70 tgl 19 0 empty empty empty 0 -10 0 12 #fcfcfc #000000 #000000 0 1;
#X obj 145 94 metronome 160 16;
#X obj 302 377 dt2 mixolydian 60;
#X obj 393 831 throwout~;
#X obj 601 81 catchout~;
#X obj 601 155 compressor2~;
#X obj 601 179 outrec~;
#X floatatom 196 72 5 0 0 0 - - - 0;
#X obj 698 104 echo~ 250 0.7;
#X obj 445 152 *~;
#X obj 698 128 *~;
#X obj 414 49 msphsl 0 1;
#X obj 414 72 ramp~;
#X obj 302 562 dt2~;
#X obj 350 488 square~;
#X obj 449 488 square~;
#X obj 547 469 wobble;
#X obj 33 97 sequ.params;
#X obj 33 259 s sequ;
#X obj 302 329 r tick;
#X obj 145 118 s tick;
#X obj 302 353 sequ.impl;
#X obj 352 329 r sequ;
#X obj 100 447 r tick;
#X obj 100 471 sequ.impl;
#X obj 150 447 r sequ;
#X obj 100 519 sel 1;
#X obj 100 495 > 0.25;
#X floatatom 706 162 5 0 0 0 - - - 0;
#X obj 350 512 vibrato~;
#X obj 449 512 vibrato~ 1.3;
#X obj 445 128 echo~ 100 0.7;
#X obj 531 563 r tick;
#X obj 531 587 maybe 0.001;
#X obj 531 630 bng 19 250 50 0 empty empty empty 0 -10 0 12 #fcfcfc #000000 #000000;
#X msg 531 654 reroll;
#X connect 0 0 1 0;
#X connect 1 0 20 0;
#X connect 2 0 14 0;
#X connect 2 1 15 0;
#X connect 4 0 5 0;
#X connect 4 0 31 0;
#X connect 4 1 5 1;
#X connect 4 1 8 0;
#X connect 5 0 6 0;
#X connect 5 1 6 1;
#X connect 7 0 1 1;
#X connect 8 0 10 0;
#X connect 9 0 5 0;
#X connect 10 0 5 1;
#X connect 11 0 12 0;
#X connect 12 0 9 1;
#X connect 12 0 10 1;
#X connect 13 0 3 0;
#X connect 13 1 3 1;
#X connect 14 0 29 0;
#X connect 15 0 30 0;
#X connect 16 0 15 1;
#X connect 16 0 14 1;
#X connect 17 0 18 0;
#X connect 19 0 21 0;
#X connect 21 0 2 0;
#X connect 22 0 21 1;
#X connect 23 0 24 0;
#X connect 24 0 27 0;
#X connect 25 0 24 1;
#X connect 26 0 13 0;
#X connect 26 0 13 2;
#X connect 27 0 26 0;
#X connect 28 0 5 2;
#X connect 29 0 13 1;
#X connect 30 0 13 3;
#X connect 31 0 9 0;
#X connect 32 0 33 0;
#X connect 33 0 34 0;
#X connect 34 0 35 0;
#X connect 35 0 13 4;
#X connect 35 0 2 1;
