#N canvas 401 38 848 884 12;
#X obj 145 70 tgl 19 0 empty empty empty 0 -10 0 12 #fcfcfc #000000 #000000 0 1;
#X obj 145 94 metronome 160 16;
#X obj 346 830 throwout~;
#X obj 601 81 catchout~;
#X obj 601 105 compressor2~;
#X obj 601 129 outrec~;
#X floatatom 196 72 5 0 0 0 - - - 0;
#X obj 33 97 sequ.params;
#X obj 33 259 s sequ;
#X obj 302 299 r tick;
#X obj 145 118 s tick;
#X obj 302 323 sequ.impl;
#X obj 352 299 r sequ;
#X obj 40 467 r tick;
#X obj 40 491 sequ.impl;
#X obj 90 467 r sequ;
#X obj 40 539 sel 1;
#X obj 40 515 > 0.25;
#X obj 516 560 wobble 5000 15000;
#X msg 516 584 spread \$1;
#X obj 302 348 dt4 aeolian 60;
#X obj 276 558 dt4~;
#X obj 302 488 vibrato~ 0.8;
#X obj 350 524 vibrato~ 0.9;
#X obj 422 488 vibrato~ 1;
#X obj 302 464 saw~;
#X obj 364 469 saw~;
#X obj 422 464 saw~;
#X obj 107 397 noise~;
#X obj 157 397 noise~;
#X obj 207 397 noise~;
#X obj 107 421 *~;
#X obj 157 421 *~;
#X obj 207 421 *~;
#X obj 128 333 msphsl 0 1;
#X obj 128 356 ramp~;
#X connect 0 0 1 0;
#X connect 1 0 10 0;
#X connect 3 0 4 0;
#X connect 3 1 4 1;
#X connect 4 0 5 0;
#X connect 4 1 5 1;
#X connect 6 0 1 1;
#X connect 7 0 8 0;
#X connect 9 0 11 0;
#X connect 11 0 20 0;
#X connect 12 0 11 1;
#X connect 13 0 14 0;
#X connect 14 0 17 0;
#X connect 15 0 14 1;
#X connect 16 0 21 0;
#X connect 17 0 16 0;
#X connect 18 0 19 0;
#X connect 19 0 21 5;
#X connect 20 0 25 0;
#X connect 20 1 26 0;
#X connect 20 2 27 0;
#X connect 21 0 2 0;
#X connect 21 1 2 1;
#X connect 22 0 21 1;
#X connect 23 0 21 2;
#X connect 24 0 21 3;
#X connect 25 0 22 0;
#X connect 26 0 23 0;
#X connect 27 0 24 0;
#X connect 28 0 31 0;
#X connect 29 0 32 0;
#X connect 30 0 33 0;
#X connect 31 0 21 1;
#X connect 32 0 21 2;
#X connect 33 0 21 3;
#X connect 34 0 35 0;
#X connect 35 0 31 1;
#X connect 35 0 33 1;
#X connect 35 0 32 1;
