#N canvas 3 39 1512 884 12;
#X obj 208 62 osc~;
#X obj 208 86 wavefolder~;
#X msg 9 60 foldamount \$1;
#X obj 74 225 *~;
#X floatatom 183 236 5 0 0 0 - - - 0;
#X obj 183 259 sig~;
#X obj 199 31 +~;
#X floatatom 147 23 5 0 0 0 - - - 0;
#X obj 147 46 sig~;
#X obj 72 154 delwrite~ ok 1;
#X obj 74 201 delread~ ok 1;
#X obj 208 164 pan~ 0.3;
#X obj 208 209 throwout~;
#X obj 1389 769 catchout~;
#X obj 1389 793 compressor2~;
#X obj 1389 817 outrec~;
#X obj 787 89 osc~;
#X obj 787 113 wavefolder~;
#X msg 588 87 foldamount \$1;
#X obj 653 252 *~;
#X floatatom 762 263 5 0 0 0 - - - 0;
#X obj 762 286 sig~;
#X obj 778 58 +~;
#X floatatom 726 50 5 0 0 0 - - - 0;
#X obj 726 73 sig~;
#X obj 787 191 pan~ 0.3;
#X obj 787 236 throwout~;
#X obj 651 181 delwrite~ ok2 1;
#X obj 653 228 delread~ ok2 1;
#X obj 9 36 wobble 50 3000;
#X obj 588 63 wobble 50 3000;
#X obj 424 414 tgl 19 0 empty empty empty 0 -10 0 12 #fcfcfc #000000 #000000 0 1;
#X obj 424 462 s tick;
#X obj 331 514 sequ.params;
#X obj 331 676 s sequ;
#X obj 433 200 r tick;
#X obj 433 224 sequ.impl;
#X obj 483 200 r sequ;
#X obj 433 248 scaled 0 1 40 83;
#X obj 433 272 quantizedmode mixolydian 60;
#X obj 433 296 mtof;
#X obj 1111 114 r tick;
#X obj 1111 138 sequ.impl;
#X obj 1161 114 r sequ;
#X obj 1111 162 scaled 0 1 40 83;
#X obj 1111 186 quantizedmode mixolydian 60;
#X obj 1111 210 mtof;
#X obj 424 438 metronome 40 16;
#X obj 1107 672 reverb~;
#X obj 1308 636 level~;
#X connect 0 0 1 0;
#X connect 1 0 9 0;
#X connect 1 0 11 0;
#X connect 2 0 1 1;
#X connect 3 0 6 1;
#X connect 4 0 5 0;
#X connect 5 0 3 1;
#X connect 6 0 0 0;
#X connect 7 0 8 0;
#X connect 8 0 6 0;
#X connect 10 0 3 0;
#X connect 11 0 12 0;
#X connect 11 1 12 1;
#X connect 13 0 14 0;
#X connect 13 0 49 0;
#X connect 13 1 14 1;
#X connect 13 1 49 0;
#X connect 14 0 15 0;
#X connect 14 1 15 1;
#X connect 16 0 17 0;
#X connect 17 0 25 0;
#X connect 17 0 27 0;
#X connect 18 0 17 1;
#X connect 19 0 22 1;
#X connect 20 0 21 0;
#X connect 21 0 19 1;
#X connect 22 0 16 0;
#X connect 23 0 24 0;
#X connect 24 0 22 0;
#X connect 25 0 26 0;
#X connect 25 1 26 1;
#X connect 28 0 19 0;
#X connect 29 0 2 0;
#X connect 30 0 18 0;
#X connect 31 0 47 0;
#X connect 33 0 34 0;
#X connect 35 0 36 0;
#X connect 36 0 38 0;
#X connect 37 0 36 1;
#X connect 38 0 39 0;
#X connect 39 0 40 0;
#X connect 40 0 7 0;
#X connect 41 0 42 0;
#X connect 42 0 44 0;
#X connect 43 0 42 1;
#X connect 44 0 45 0;
#X connect 45 0 46 0;
#X connect 46 0 23 0;
#X connect 47 0 32 0;
#X connect 48 0 14 0;
#X connect 48 1 14 1;
#X connect 49 0 48 0;
