#N canvas 4 38 1512 884 12;
#X obj 1404 772 catchout~;
#X obj 1404 820 outrec~;
#X obj 1404 796 compressor2~;
#X obj 9 13 tgl 19 0 empty empty empty 0 -10 0 12 #fcfcfc #000000 #000000 0 1;
#X obj 9 61 s tick;
#X obj 245 256 osc~;
#X obj 457 256 osc~;
#X obj 245 232 +~;
#X obj 457 232 +~;
#X obj 245 280 wavefolder~;
#X obj 457 280 wavefolder~;
#X obj 335 358 *~;
#X obj 547 358 *~;
#X obj 335 382 delwrite~ fb-1 1;
#X obj 547 382 delwrite~ fb-2 1;
#X obj 263 208 delread~ fb-1 1;
#X obj 475 208 delread~ fb-2 1;
#X obj 245 438 dt2~;
#X obj 245 714 throwout~;
#X obj 129 399 sel 1;
#X obj 129 375 > 0.15;
#X obj 473 382 ramp~;
#X obj 538 232 wobble 5000 12000;
#X msg 538 256 foldamount \$1;
#X floatatom 473 359 5 0 0 0 - - - 0;
#X obj 326 232 wobble 5000 12000;
#X msg 326 256 foldamount \$1;
#X obj 9 270 s sequ1;
#X obj 245 43 r tick;
#X obj 245 67 sequ.impl;
#X obj 305 43 r sequ1;
#X obj 129 327 r tick;
#X obj 129 351 sequ.impl;
#X obj 189 327 r sequ1;
#X obj 9 108 sequ.params;
#X obj 245 91 dt2 lydian 60;
#X floatatom 178 376 5 0 0 0 - - - 0;
#X obj 9 298 sequ.params;
#X obj 9 460 s sequ2;
#X obj 815 378 dt2~;
#X obj 875 654 throwout~;
#X obj 699 339 sel 1;
#X obj 699 315 > 0.15;
#X obj 815 43 r tick;
#X obj 815 67 sequ.impl;
#X obj 699 267 r tick;
#X obj 699 291 sequ.impl;
#X obj 815 91 dt2 lydian 60;
#X floatatom 748 316 5 0 0 0 - - - 0;
#X obj 875 43 r sequ2;
#X obj 759 267 r sequ2;
#X obj 815 232 square~;
#X obj 1019 232 square~;
#X obj 861 208 wobble 5000 12000;
#X obj 1065 208 wobble 5000 12000;
#X obj 1019 256 vibrato~;
#X obj 815 256 vibrato~;
#X obj 245 684 *~;
#X obj 442 684 *~;
#X obj 127 661 msphsl 0 1;
#X obj 127 684 ramp~;
#X obj 815 624 *~;
#X obj 1012 624 *~;
#X obj 697 601 msphsl 0 1;
#X obj 697 624 ramp~;
#X obj 1132 294 wobble 5000 12000;
#X obj 862 304 wobble 5000 12000;
#X obj 815 280 hip~ 400;
#X obj 1019 280 hip~ 400;
#X obj 1047 157 wobble 5000 12000;
#X obj 1047 181 scaled 0 1 50 1000;
#X obj 677 177 wobble 5000 12000;
#X obj 677 201 scaled 0 1 50 1000;
#X obj 1089 659 clip~ -1 1;
#X obj 548 597 catch~ reverb;
#X obj 548 651 reverb~;
#X obj 548 820 throwout~;
#X obj 706 413 throw~ reverb;
#X obj 1034 397 throw~ reverb;
#X obj 548 621 level~;
#X obj 1380 744 msphsl 0 1;
#X obj 1158 367 msphsl 0 1;
#X obj 1158 390 ramp~;
#X obj 1019 304 *~;
#X obj 815 304 *~;
#X obj 1089 635 *~ 1;
#X obj 815 328 *~;
#X obj 1019 328 *~;
#X obj 791 352 tapeecho~ 300 0.75, f 21;
#X obj 1060 342 tapeecho~ 300 0.75, f 21;
#X obj 646 117 noise~;
#X obj 646 141 *~;
#X obj 707 118 noise~;
#X obj 707 142 *~;
#X obj 671 56 msphsl 0 1;
#X obj 671 79 ramp~;
#X obj 463 437 crackle~;
#X obj 463 485 throw~ reverb;
#X obj 528 437 pink~;
#X obj 463 461 *~;
#X obj 570 437 wobble 2000 8000;
#X obj 570 461 sig~;
#X obj 617 511 crackle~;
#X obj 617 535 *~;
#X obj 617 559 throwout~, f 11;
#X obj 691 511 crackle~;
#X obj 691 535 *~;
#X obj 501 511 msphsl 0 1;
#X obj 501 534 sig~;
#X floatatom 1043 15 5 0 0 0 - - - 0;
#X obj 1043 38 mtof;
#X obj 1043 62 osc~;
#X obj 1043 133 throw~ outC;
#X obj 1043 110 level~;
#X obj 1081 38 wobble 5000 12000;
#X floatatom 1208 13 5 0 0 0 - - - 0;
#X obj 1208 36 mtof;
#X obj 1208 60 osc~;
#X obj 1208 131 throw~ outC;
#X obj 1208 108 level~;
#X obj 1246 36 wobble 5000 12000;
#X obj 1346 108 throw~ outC;
#X obj 1346 85 level~;
#X obj 1384 37 wobble 5000 12000;
#X obj 1346 61 pink~;
#X obj 1043 86 vibrato~;
#X obj 1208 84 vibrato~;
#X obj 1081 62 * 0.1;
#X obj 1246 60 * 0.05;
#X obj 1384 61 * 0.05;
#X obj 1434 60 crackle~;
#X obj 1277 83 crackle~;
#X obj 1134 71 crackle~;
#N canvas 0 38 1512 884 drone 0;
#X obj 289 172 noise~;
#X floatatom 371 149 5 0 0 0 - - - 0;
#X obj 371 172 ramp~;
#X obj 454 172 ramp~;
#X obj 289 219 bob~, f 24;
#X obj 289 243 level~;
#X obj 289 266 pan~ 0.2;
#X obj 289 311 throw~ outL;
#X obj 370 311 throw~ outR;
#X obj 144 124 ramp~;
#X obj 144 148 square~;
#X obj 144 172 level~;
#X obj 289 196 level~;
#X floatatom 144 77 5 0 0 0 - - - 0;
#X obj 144 100 mtof;
#X obj 190 124 wobble 5000 20000;
#X obj 7 124 * 0.5;
#X obj 7 148 osc~;
#X obj 7 172 level~;
#X obj 144 195 vibrato~;
#X obj 795 197 noise~;
#X floatatom 877 174 5 0 0 0 - - - 0;
#X obj 877 197 ramp~;
#X obj 960 197 ramp~;
#X obj 795 244 bob~, f 24;
#X obj 795 268 level~;
#X obj 795 291 pan~ 0.2;
#X obj 795 336 throw~ outL;
#X obj 876 336 throw~ outR;
#X obj 650 149 ramp~;
#X obj 650 173 square~;
#X obj 650 197 level~;
#X obj 795 221 level~;
#X floatatom 650 102 5 0 0 0 - - - 0;
#X obj 650 125 mtof;
#X obj 696 149 wobble 5000 20000;
#X obj 513 149 * 0.5;
#X obj 513 173 osc~;
#X obj 513 197 level~;
#X obj 650 220 vibrato~;
#X obj 454 124 wobble 5000 20000;
#X obj 454 148 * 3;
#X obj 960 149 wobble 5000 20000;
#X obj 960 173 * 3;
#X obj 285 408 noise~;
#X floatatom 367 385 5 0 0 0 - - - 0;
#X obj 367 408 ramp~;
#X obj 450 408 ramp~;
#X obj 285 455 bob~, f 24;
#X obj 285 479 level~;
#X obj 285 502 pan~ 0.2;
#X obj 285 547 throw~ outL;
#X obj 366 547 throw~ outR;
#X obj 140 360 ramp~;
#X obj 140 384 square~;
#X obj 140 408 level~;
#X obj 285 432 level~;
#X floatatom 140 313 5 0 0 0 - - - 0;
#X obj 140 336 mtof;
#X obj 186 360 wobble 5000 20000;
#X obj 3 360 * 0.5;
#X obj 3 384 osc~;
#X obj 3 408 level~;
#X obj 140 431 vibrato~;
#X obj 450 360 wobble 5000 20000;
#X obj 450 384 * 3;
#X obj 797 453 noise~;
#X floatatom 879 430 5 0 0 0 - - - 0;
#X obj 879 453 ramp~;
#X obj 962 453 ramp~;
#X obj 797 500 bob~, f 24;
#X obj 797 524 level~;
#X obj 797 547 pan~ 0.2;
#X obj 797 592 throw~ outL;
#X obj 878 592 throw~ outR;
#X obj 652 405 ramp~;
#X obj 652 429 square~;
#X obj 652 453 level~;
#X obj 797 477 level~;
#X floatatom 652 358 5 0 0 0 - - - 0;
#X obj 652 381 mtof;
#X obj 698 405 wobble 5000 20000;
#X obj 515 405 * 0.5;
#X obj 515 429 osc~;
#X obj 515 453 level~;
#X obj 652 476 vibrato~;
#X obj 962 405 wobble 5000 20000;
#X obj 962 429 * 3;
#X obj 341 637 noise~;
#X floatatom 423 614 5 0 0 0 - - - 0;
#X obj 423 637 ramp~;
#X obj 506 637 ramp~;
#X obj 341 684 bob~, f 24;
#X obj 341 708 level~;
#X obj 341 731 pan~ 0.2;
#X obj 341 776 throw~ outL;
#X obj 422 776 throw~ outR;
#X obj 196 589 ramp~;
#X obj 196 613 square~;
#X obj 196 637 level~;
#X obj 341 661 level~;
#X floatatom 196 542 5 0 0 0 - - - 0;
#X obj 196 565 mtof;
#X obj 242 589 wobble 5000 20000;
#X obj 59 589 * 0.5;
#X obj 59 613 osc~;
#X obj 59 637 level~;
#X obj 196 660 vibrato~;
#X obj 506 589 wobble 5000 20000;
#X obj 506 613 * 3;
#X obj 853 682 noise~;
#X floatatom 935 659 5 0 0 0 - - - 0;
#X obj 935 682 ramp~;
#X obj 1018 682 ramp~;
#X obj 853 729 bob~, f 24;
#X obj 853 753 level~;
#X obj 853 776 pan~ 0.2;
#X obj 853 821 throw~ outL;
#X obj 934 821 throw~ outR;
#X obj 708 634 ramp~;
#X obj 708 658 square~;
#X obj 708 682 level~;
#X obj 853 706 level~;
#X floatatom 708 587 5 0 0 0 - - - 0;
#X obj 708 610 mtof;
#X obj 754 634 wobble 5000 20000;
#X obj 571 634 * 0.5;
#X obj 571 658 osc~;
#X obj 571 682 level~;
#X obj 708 705 vibrato~;
#X obj 1018 634 wobble 5000 20000;
#X obj 1018 658 * 3;
#X obj 428 283 * 0.275;
#X obj 428 259 wobble 5000 20000;
#X obj 935 310 * 0.275;
#X obj 935 286 wobble 5000 20000;
#X obj 416 525 * 0.275;
#X obj 416 501 wobble 5000 20000;
#X obj 924 571 * 0.275;
#X obj 924 547 wobble 5000 20000;
#X obj 470 754 * 0.275;
#X obj 470 730 wobble 5000 20000;
#X obj 981 800 * 0.275;
#X obj 981 776 wobble 5000 20000;
#X obj 841 71 f;
#X obj 716 59 f;
#X obj 609 58 f;
#X obj 380 14 r sinlevel;
#X obj 460 14 r dronelevel;
#X obj 380 38 f;
#X obj 460 38 t b f;
#X obj 380 62 *;
#X obj 733 10 r dronelevel;
#X obj 653 34 f;
#X obj 733 34 t b f;
#X obj 653 58 *;
#X obj 653 10 r sqrlevel;
#X obj 985 14 r dronelevel;
#X obj 905 38 f;
#X obj 985 38 t b f;
#X obj 905 62 *;
#X obj 905 14 r noiselevel;
#X floatatom 876 101 5 0 0 0 - - - 0;
#X floatatom 759 80 5 0 0 0 - - - 0;
#X floatatom 556 71 5 0 0 0 - - - 0;
#X connect 0 0 12 0;
#X connect 1 0 2 0;
#X connect 2 0 4 1;
#X connect 3 0 4 2;
#X connect 4 0 5 0;
#X connect 5 0 6 0;
#X connect 6 0 7 0;
#X connect 6 1 8 0;
#X connect 9 0 10 0;
#X connect 10 0 11 0;
#X connect 11 0 19 0;
#X connect 12 0 4 0;
#X connect 13 0 14 0;
#X connect 14 0 9 0;
#X connect 14 0 16 0;
#X connect 15 0 10 1;
#X connect 16 0 17 0;
#X connect 17 0 18 0;
#X connect 18 0 11 0;
#X connect 19 0 4 0;
#X connect 20 0 32 0;
#X connect 21 0 22 0;
#X connect 22 0 24 1;
#X connect 23 0 24 2;
#X connect 24 0 25 0;
#X connect 25 0 26 0;
#X connect 26 0 27 0;
#X connect 26 1 28 0;
#X connect 29 0 30 0;
#X connect 30 0 31 0;
#X connect 31 0 39 0;
#X connect 32 0 24 0;
#X connect 33 0 34 0;
#X connect 34 0 29 0;
#X connect 34 0 36 0;
#X connect 35 0 30 1;
#X connect 36 0 37 0;
#X connect 37 0 38 0;
#X connect 38 0 31 0;
#X connect 39 0 24 0;
#X connect 40 0 41 0;
#X connect 41 0 3 0;
#X connect 42 0 43 0;
#X connect 43 0 23 0;
#X connect 44 0 56 0;
#X connect 45 0 46 0;
#X connect 46 0 48 1;
#X connect 47 0 48 2;
#X connect 48 0 49 0;
#X connect 49 0 50 0;
#X connect 50 0 51 0;
#X connect 50 1 52 0;
#X connect 53 0 54 0;
#X connect 54 0 55 0;
#X connect 55 0 63 0;
#X connect 56 0 48 0;
#X connect 57 0 58 0;
#X connect 58 0 53 0;
#X connect 58 0 60 0;
#X connect 59 0 54 1;
#X connect 60 0 61 0;
#X connect 61 0 62 0;
#X connect 62 0 55 0;
#X connect 63 0 48 0;
#X connect 64 0 65 0;
#X connect 65 0 47 0;
#X connect 66 0 78 0;
#X connect 67 0 68 0;
#X connect 68 0 70 1;
#X connect 69 0 70 2;
#X connect 70 0 71 0;
#X connect 71 0 72 0;
#X connect 72 0 73 0;
#X connect 72 1 74 0;
#X connect 75 0 76 0;
#X connect 76 0 77 0;
#X connect 77 0 85 0;
#X connect 78 0 70 0;
#X connect 79 0 80 0;
#X connect 80 0 75 0;
#X connect 80 0 82 0;
#X connect 81 0 76 1;
#X connect 82 0 83 0;
#X connect 83 0 84 0;
#X connect 84 0 77 0;
#X connect 85 0 70 0;
#X connect 86 0 87 0;
#X connect 87 0 69 0;
#X connect 88 0 100 0;
#X connect 89 0 90 0;
#X connect 90 0 92 1;
#X connect 91 0 92 2;
#X connect 92 0 93 0;
#X connect 93 0 94 0;
#X connect 94 0 95 0;
#X connect 94 1 96 0;
#X connect 97 0 98 0;
#X connect 98 0 99 0;
#X connect 99 0 107 0;
#X connect 100 0 92 0;
#X connect 101 0 102 0;
#X connect 102 0 97 0;
#X connect 102 0 104 0;
#X connect 103 0 98 1;
#X connect 104 0 105 0;
#X connect 105 0 106 0;
#X connect 106 0 99 0;
#X connect 107 0 92 0;
#X connect 108 0 109 0;
#X connect 109 0 91 0;
#X connect 110 0 122 0;
#X connect 111 0 112 0;
#X connect 112 0 114 1;
#X connect 113 0 114 2;
#X connect 114 0 115 0;
#X connect 115 0 116 0;
#X connect 116 0 117 0;
#X connect 116 1 118 0;
#X connect 119 0 120 0;
#X connect 120 0 121 0;
#X connect 121 0 129 0;
#X connect 122 0 114 0;
#X connect 123 0 124 0;
#X connect 124 0 119 0;
#X connect 124 0 126 0;
#X connect 125 0 120 1;
#X connect 126 0 127 0;
#X connect 127 0 128 0;
#X connect 128 0 121 0;
#X connect 129 0 114 0;
#X connect 130 0 131 0;
#X connect 131 0 113 0;
#X connect 132 0 5 1;
#X connect 133 0 132 0;
#X connect 134 0 25 1;
#X connect 135 0 134 0;
#X connect 136 0 49 1;
#X connect 137 0 136 0;
#X connect 138 0 71 1;
#X connect 139 0 138 0;
#X connect 140 0 93 1;
#X connect 141 0 140 0;
#X connect 142 0 115 1;
#X connect 143 0 142 0;
#X connect 144 0 32 1;
#X connect 144 0 122 1;
#X connect 144 0 78 1;
#X connect 144 0 100 1;
#X connect 144 0 56 1;
#X connect 144 0 12 1;
#X connect 144 0 162 0;
#X connect 145 0 31 1;
#X connect 145 0 121 1;
#X connect 145 0 77 1;
#X connect 145 0 99 1;
#X connect 145 0 55 1;
#X connect 145 0 11 1;
#X connect 145 0 163 0;
#X connect 146 0 18 1;
#X connect 146 0 128 1;
#X connect 146 0 84 1;
#X connect 146 0 38 1;
#X connect 146 0 62 1;
#X connect 146 0 106 1;
#X connect 146 0 164 0;
#X connect 147 0 149 0;
#X connect 148 0 150 0;
#X connect 149 0 151 0;
#X connect 150 0 149 0;
#X connect 150 1 151 1;
#X connect 151 0 146 0;
#X connect 152 0 154 0;
#X connect 153 0 155 0;
#X connect 154 0 153 0;
#X connect 154 1 155 1;
#X connect 155 0 145 0;
#X connect 156 0 153 0;
#X connect 157 0 159 0;
#X connect 158 0 160 0;
#X connect 159 0 158 0;
#X connect 159 1 160 1;
#X connect 160 0 144 0;
#X connect 161 0 158 0;
#X restore 11 678 pd drone;
#X obj 10 483 msphsl 0 1;
#X obj 11 581 msphsl 0 1;
#X obj 11 604 s noiselevel;
#X obj 10 506 s sinlevel;
#X obj 11 532 msphsl 0 1;
#X obj 11 555 s sqrlevel;
#X obj 10 628 msphsl 0 1;
#X obj 10 651 s dronelevel;
#X obj 3 718 wobble 5000 12000;
#X obj 3 772 scaled 0 1 0.3 1;
#X obj 9 37 metronome 180 16;
#X obj 3 742 *;
#X obj 33 743 msphsl 0 1;
#X obj 171 752 wobble 5000 12000;
#X obj 171 776 *;
#X obj 201 777 msphsl 0 1;
#X obj 811 714 wobble 5000 12000;
#X obj 811 738 *;
#X obj 841 739 msphsl 0 1;
#X obj 1132 318 scaled 0 1 599 601;
#X obj 862 328 scaled 0 1 599 601;
#X connect 0 0 2 0;
#X connect 0 1 2 1;
#X connect 2 0 1 0;
#X connect 2 1 1 1;
#X connect 3 0 144 0;
#X connect 5 0 9 0;
#X connect 6 0 10 0;
#X connect 7 0 5 0;
#X connect 8 0 6 0;
#X connect 9 0 11 0;
#X connect 9 0 17 1;
#X connect 10 0 12 0;
#X connect 10 0 17 2;
#X connect 11 0 13 0;
#X connect 12 0 14 0;
#X connect 15 0 7 1;
#X connect 16 0 8 1;
#X connect 17 0 57 0;
#X connect 17 1 58 0;
#X connect 19 0 17 0;
#X connect 20 0 19 0;
#X connect 21 0 11 1;
#X connect 21 0 12 1;
#X connect 22 0 23 0;
#X connect 23 0 10 1;
#X connect 24 0 21 0;
#X connect 25 0 26 0;
#X connect 26 0 9 1;
#X connect 28 0 29 0;
#X connect 29 0 35 0;
#X connect 30 0 29 1;
#X connect 31 0 32 0;
#X connect 32 0 20 0;
#X connect 33 0 32 1;
#X connect 34 0 27 0;
#X connect 35 0 7 0;
#X connect 35 1 8 0;
#X connect 36 0 20 1;
#X connect 37 0 38 0;
#X connect 39 0 61 0;
#X connect 39 1 62 0;
#X connect 39 2 85 0;
#X connect 41 0 39 0;
#X connect 42 0 41 0;
#X connect 43 0 44 0;
#X connect 44 0 47 0;
#X connect 45 0 46 0;
#X connect 46 0 42 0;
#X connect 47 0 51 0;
#X connect 47 1 52 0;
#X connect 48 0 42 1;
#X connect 49 0 44 1;
#X connect 50 0 46 1;
#X connect 51 0 56 0;
#X connect 52 0 55 0;
#X connect 53 0 51 1;
#X connect 54 0 52 1;
#X connect 55 0 39 2;
#X connect 55 0 68 0;
#X connect 56 0 39 1;
#X connect 56 0 67 0;
#X connect 57 0 18 0;
#X connect 58 0 18 1;
#X connect 59 0 60 0;
#X connect 60 0 57 1;
#X connect 60 0 58 1;
#X connect 61 0 40 0;
#X connect 62 0 40 1;
#X connect 63 0 64 0;
#X connect 64 0 61 1;
#X connect 64 0 62 1;
#X connect 65 0 153 0;
#X connect 66 0 154 0;
#X connect 67 0 84 0;
#X connect 68 0 83 0;
#X connect 69 0 70 0;
#X connect 70 0 68 1;
#X connect 71 0 72 0;
#X connect 72 0 67 1;
#X connect 73 0 87 1;
#X connect 73 0 86 1;
#X connect 74 0 79 0;
#X connect 75 0 76 0;
#X connect 75 1 76 1;
#X connect 79 0 75 0;
#X connect 80 0 2 2;
#X connect 81 0 82 0;
#X connect 82 0 83 1;
#X connect 82 0 84 1;
#X connect 83 0 87 0;
#X connect 84 0 86 0;
#X connect 85 0 73 0;
#X connect 86 0 88 0;
#X connect 87 0 89 0;
#X connect 88 0 77 0;
#X connect 88 0 61 0;
#X connect 89 0 62 0;
#X connect 89 0 78 0;
#X connect 90 0 91 0;
#X connect 91 0 67 0;
#X connect 92 0 93 0;
#X connect 93 0 68 0;
#X connect 94 0 95 0;
#X connect 95 0 91 1;
#X connect 95 0 93 1;
#X connect 96 0 99 0;
#X connect 98 0 99 0;
#X connect 99 0 97 0;
#X connect 100 0 101 0;
#X connect 101 0 99 1;
#X connect 102 0 103 0;
#X connect 103 0 104 0;
#X connect 105 0 106 0;
#X connect 106 0 104 1;
#X connect 107 0 108 0;
#X connect 108 0 103 1;
#X connect 108 0 106 1;
#X connect 109 0 110 0;
#X connect 110 0 111 0;
#X connect 111 0 125 0;
#X connect 113 0 112 0;
#X connect 114 0 127 0;
#X connect 115 0 116 0;
#X connect 116 0 117 0;
#X connect 117 0 126 0;
#X connect 119 0 118 0;
#X connect 120 0 128 0;
#X connect 122 0 121 0;
#X connect 123 0 129 0;
#X connect 124 0 122 0;
#X connect 125 0 113 0;
#X connect 126 0 119 0;
#X connect 127 0 113 1;
#X connect 128 0 119 1;
#X connect 129 0 122 1;
#X connect 130 0 122 0;
#X connect 131 0 126 0;
#X connect 132 0 125 0;
#X connect 134 0 137 0;
#X connect 135 0 136 0;
#X connect 138 0 139 0;
#X connect 140 0 141 0;
#X connect 142 0 145 0;
#X connect 143 0 140 0;
#X connect 144 0 4 0;
#X connect 145 0 143 0;
#X connect 146 0 145 1;
#X connect 147 0 148 0;
#X connect 148 0 59 0;
#X connect 149 0 148 1;
#X connect 150 0 151 0;
#X connect 151 0 63 0;
#X connect 152 0 151 1;
#X connect 153 0 89 1;
#X connect 154 0 88 1;
