#N canvas 0 38 1512 884 12;
#X obj 1406 778 catchout~;
#X obj 1406 802 compressor2~;
#X obj 1406 826 outrec~;
#X obj 258 242 +~;
#X obj 258 266 osc~;
#X obj 276 218 *~, f 16;
#X obj 385 194 ramp~;
#X obj 258 361 pan~ 0.35;
#X obj 258 406 throwout~, f 16;
#X obj 8 9 tgl 19 0 empty empty empty 0 -10 0 12 #fcfcfc #000000 #000000 0 1;
#X obj 8 57 s tick;
#X obj 8 81 sequ.params;
#X obj 8 243 s sequ;
#X obj 258 50 r tick;
#X obj 258 74 sequ.impl;
#X obj 308 50 r sequ;
#X obj 258 98 scaled 0 1 40 85;
#X obj 258 122 quantizedmode aeolian 60;
#X obj 258 146 mtof;
#X obj 258 170 sig~;
#X obj 522 249 +~;
#X obj 522 273 osc~;
#X obj 652 347 delwrite~ fb1 1;
#X obj 540 225 *~, f 16;
#X obj 649 201 ramp~;
#X obj 522 413 throwout~, f 16;
#X obj 522 57 r tick;
#X obj 522 81 sequ.impl;
#X obj 572 57 r sequ;
#X obj 522 105 scaled 0 1 40 85;
#X obj 522 129 quantizedmode aeolian 60;
#X obj 522 153 mtof;
#X obj 522 177 sig~;
#X obj 522 368 pan~ 0.65;
#X obj 388 340 delwrite~ fb2 1;
#X obj 258 290 distortion~;
#X obj 522 297 distortion~;
#X floatatom 373 260 5 0 0 0 - - - 0;
#X obj 426 65 r tick;
#X obj 426 89 sequ.impl;
#X obj 476 65 r sequ;
#X obj 540 201 delread~ fb2 1;
#X obj 276 194 delread~ fb1 1;
#X floatatom 426 113 5 0 0 0 - - - 0;
#X obj 258 314 hip~ 500;
#X obj 522 321 hip~ 500;
#X obj 738 234 r tick;
#X obj 738 258 sequ.impl;
#X obj 788 234 r sequ;
#X floatatom 738 282 5 0 0 0 - - - 0;
#X obj 258 338 *~;
#X obj 522 345 *~;
#X obj 925 225 r tick;
#X obj 925 249 sequ.impl;
#X obj 975 225 r sequ;
#X obj 925 273 <;
#X obj 925 297 sel 1;
#X obj 925 321 ahdsr~ 5 50 50 0.3 200;
#X obj 1095 225 r tick;
#X obj 1095 249 sequ.impl;
#X obj 1145 225 r sequ;
#X obj 1095 273 <;
#X obj 1095 297 sel 1;
#X obj 1095 321 ahdsr~ 5 50 50 0.3 200;
#X obj 1245 264 msphsl 0 1;
#X obj 1022 163 r tick;
#X obj 1022 187 sequ.impl;
#X obj 1072 163 r sequ;
#X obj 1149 157 r tick;
#X obj 1149 181 sequ.impl;
#X obj 1199 157 r sequ;
#X obj 1267 377 catch~ reverb;
#X obj 1267 424 reverb~;
#X obj 1267 593 throwout~, f 29;
#X obj 410 380 throw~ reverb;
#X obj 1267 401 level~;
#X obj 1022 211 * 50;
#X obj 1149 205 * 50;
#X obj 436 153 * 500;
#X floatatom 483 126 5 0 0 0 - - - 0;
#X obj 738 305 * 250;
#X obj 899 119 wobble;
#X obj 899 143 * 50;
#X obj 232 658 +~;
#X obj 232 682 osc~;
#X obj 250 634 *~, f 16;
#X obj 359 610 ramp~;
#X obj 232 777 pan~ 0.35;
#X obj 232 822 throwout~, f 16;
#X obj 232 466 r tick;
#X obj 232 490 sequ.impl;
#X obj 282 466 r sequ;
#X obj 232 514 scaled 0 1 40 85;
#X obj 232 538 quantizedmode aeolian 60;
#X obj 232 562 mtof;
#X obj 232 586 sig~;
#X obj 496 665 +~;
#X obj 496 689 osc~;
#X obj 626 763 delwrite~ fb1 1;
#X obj 514 641 *~, f 16;
#X obj 623 617 ramp~;
#X obj 496 829 throwout~, f 16;
#X obj 496 473 r tick;
#X obj 496 497 sequ.impl;
#X obj 546 473 r sequ;
#X obj 496 521 scaled 0 1 40 85;
#X obj 496 545 quantizedmode aeolian 60;
#X obj 496 569 mtof;
#X obj 496 593 sig~;
#X obj 496 784 pan~ 0.65;
#X obj 362 756 delwrite~ fb2 1;
#X obj 232 706 distortion~;
#X obj 496 713 distortion~;
#X obj 400 481 r tick;
#X obj 400 505 sequ.impl;
#X obj 450 481 r sequ;
#X obj 514 617 delread~ fb2 1;
#X obj 250 610 delread~ fb1 1;
#X floatatom 400 529 5 0 0 0 - - - 0;
#X obj 232 730 hip~ 500;
#X obj 496 737 hip~ 500;
#X obj 712 650 r tick;
#X obj 712 674 sequ.impl;
#X obj 762 650 r sequ;
#X floatatom 712 698 5 0 0 0 - - - 0;
#X obj 232 754 *~;
#X obj 496 761 *~;
#X obj 899 641 r tick;
#X obj 899 665 sequ.impl;
#X obj 949 641 r sequ;
#X obj 899 689 <;
#X obj 899 713 sel 1;
#X obj 899 737 ahdsr~ 5 50 50 0.3 200;
#X obj 1069 641 r tick;
#X obj 1069 665 sequ.impl;
#X obj 1119 641 r sequ;
#X obj 1069 689 <;
#X obj 1069 713 sel 1;
#X obj 1069 737 ahdsr~ 5 50 50 0.3 200;
#X obj 1219 680 msphsl 0 1;
#X obj 996 579 r tick;
#X obj 996 603 sequ.impl;
#X obj 1046 579 r sequ;
#X obj 1123 573 r tick;
#X obj 1123 597 sequ.impl;
#X obj 1173 573 r sequ;
#X obj 384 796 throw~ reverb;
#X obj 996 627 * 50;
#X obj 1123 621 * 50;
#X obj 410 569 * 500;
#X floatatom 457 542 5 0 0 0 - - - 0;
#X obj 712 721 * 250;
#X obj 873 535 wobble;
#X obj 873 559 * 50;
#X obj 8 33 metronome 60 16;
#X obj 921 385 hip~ 500;
#X obj 921 456 throw~ outC;
#X obj 921 409 level~;
#X obj 921 432 echo~ 120 0.8;
#X obj 12 450 r tick;
#X obj 12 474 sel 1 9;
#X msg 12 498 velocity 1;
#X obj 12 522 hh~;
#X obj 12 625 level~;
#X obj 12 648 throw~ outC;
#X obj 97 648 throw~ reverb;
#X connect 0 0 1 0;
#X connect 0 1 1 1;
#X connect 1 0 2 0;
#X connect 1 1 2 1;
#X connect 3 0 4 0;
#X connect 4 0 35 0;
#X connect 5 0 3 1;
#X connect 6 0 5 1;
#X connect 7 0 8 0;
#X connect 7 1 8 1;
#X connect 9 0 154 0;
#X connect 11 0 12 0;
#X connect 13 0 14 0;
#X connect 14 0 16 0;
#X connect 15 0 14 1;
#X connect 16 0 17 0;
#X connect 17 0 18 0;
#X connect 18 0 19 0;
#X connect 19 0 3 0;
#X connect 20 0 21 0;
#X connect 21 0 36 0;
#X connect 23 0 20 1;
#X connect 24 0 23 1;
#X connect 26 0 27 0;
#X connect 27 0 29 0;
#X connect 28 0 27 1;
#X connect 29 0 30 0;
#X connect 30 0 31 0;
#X connect 31 0 32 0;
#X connect 32 0 20 0;
#X connect 33 0 25 0;
#X connect 33 1 25 1;
#X connect 35 0 34 0;
#X connect 35 0 44 0;
#X connect 36 0 22 0;
#X connect 36 0 45 0;
#X connect 37 0 35 1;
#X connect 37 0 36 1;
#X connect 38 0 39 0;
#X connect 39 0 43 0;
#X connect 40 0 39 1;
#X connect 41 0 23 0;
#X connect 42 0 5 0;
#X connect 43 0 78 0;
#X connect 44 0 50 0;
#X connect 45 0 51 0;
#X connect 46 0 47 0;
#X connect 47 0 49 0;
#X connect 48 0 47 1;
#X connect 49 0 80 0;
#X connect 50 0 7 0;
#X connect 50 0 74 0;
#X connect 51 0 33 0;
#X connect 51 0 74 0;
#X connect 52 0 53 0;
#X connect 53 0 55 0;
#X connect 54 0 53 1;
#X connect 55 0 56 0;
#X connect 56 0 57 0;
#X connect 57 0 50 1;
#X connect 58 0 59 0;
#X connect 59 0 61 0;
#X connect 60 0 59 1;
#X connect 61 0 62 0;
#X connect 62 0 63 0;
#X connect 63 0 51 1;
#X connect 64 0 61 1;
#X connect 64 0 55 1;
#X connect 65 0 66 0;
#X connect 66 0 76 0;
#X connect 67 0 66 1;
#X connect 68 0 69 0;
#X connect 69 0 77 0;
#X connect 70 0 69 1;
#X connect 71 0 75 0;
#X connect 72 0 73 0;
#X connect 72 1 73 1;
#X connect 75 0 72 0;
#X connect 75 0 155 0;
#X connect 76 0 57 3;
#X connect 77 0 63 3;
#X connect 78 0 6 0;
#X connect 78 0 24 0;
#X connect 79 0 78 1;
#X connect 80 0 45 1;
#X connect 80 0 44 1;
#X connect 81 0 82 0;
#X connect 82 0 57 1;
#X connect 82 0 63 1;
#X connect 83 0 84 0;
#X connect 84 0 111 0;
#X connect 85 0 83 1;
#X connect 86 0 85 1;
#X connect 87 0 88 0;
#X connect 87 1 88 1;
#X connect 89 0 90 0;
#X connect 90 0 92 0;
#X connect 91 0 90 1;
#X connect 92 0 93 0;
#X connect 93 0 94 0;
#X connect 94 0 95 0;
#X connect 95 0 83 0;
#X connect 96 0 97 0;
#X connect 97 0 112 0;
#X connect 99 0 96 1;
#X connect 100 0 99 1;
#X connect 102 0 103 0;
#X connect 103 0 105 0;
#X connect 104 0 103 1;
#X connect 105 0 106 0;
#X connect 106 0 107 0;
#X connect 107 0 108 0;
#X connect 108 0 96 0;
#X connect 109 0 101 0;
#X connect 109 1 101 1;
#X connect 111 0 110 0;
#X connect 111 0 119 0;
#X connect 112 0 98 0;
#X connect 112 0 120 0;
#X connect 113 0 114 0;
#X connect 114 0 118 0;
#X connect 115 0 114 1;
#X connect 116 0 99 0;
#X connect 117 0 85 0;
#X connect 118 0 149 0;
#X connect 119 0 125 0;
#X connect 120 0 126 0;
#X connect 121 0 122 0;
#X connect 122 0 124 0;
#X connect 123 0 122 1;
#X connect 124 0 151 0;
#X connect 125 0 87 0;
#X connect 125 0 146 0;
#X connect 126 0 109 0;
#X connect 126 0 146 0;
#X connect 127 0 128 0;
#X connect 128 0 130 0;
#X connect 129 0 128 1;
#X connect 130 0 131 0;
#X connect 131 0 132 0;
#X connect 132 0 125 1;
#X connect 133 0 134 0;
#X connect 134 0 136 0;
#X connect 135 0 134 1;
#X connect 136 0 137 0;
#X connect 137 0 138 0;
#X connect 138 0 126 1;
#X connect 139 0 136 1;
#X connect 139 0 130 1;
#X connect 140 0 141 0;
#X connect 141 0 147 0;
#X connect 142 0 141 1;
#X connect 143 0 144 0;
#X connect 144 0 148 0;
#X connect 145 0 144 1;
#X connect 147 0 132 3;
#X connect 148 0 138 3;
#X connect 149 0 86 0;
#X connect 149 0 100 0;
#X connect 150 0 149 1;
#X connect 151 0 120 1;
#X connect 151 0 119 1;
#X connect 152 0 153 0;
#X connect 153 0 132 1;
#X connect 153 0 138 1;
#X connect 154 0 10 0;
#X connect 155 0 157 0;
#X connect 157 0 158 0;
#X connect 158 0 156 0;
#X connect 159 0 160 0;
#X connect 160 0 161 0;
#X connect 160 1 161 0;
#X connect 161 0 162 0;
#X connect 162 0 163 0;
#X connect 163 0 164 0;
#X connect 163 0 165 0;
