#N canvas 0 38 1512 884 12;
#X obj 67 20 tgl 19 0 empty empty empty 0 -10 0 12 #fcfcfc #000000 #000000 0 1;
#X obj 1081 791 outrec~;
#X obj 67 44 metro 50;
#X obj 1081 696 compressor2~;
#X obj 67 68 s tick;
#X obj 67 93 sequ.params;
#X obj 67 255 s sequ;
#X obj 459 16 r tick;
#X obj 459 40 sequ.impl;
#X obj 509 16 r sequ;
#X obj 1081 460 catchout~;
#X obj 459 64 dt4 mixolydian 60;
#X obj 459 261 +~;
#X obj 524 261 +~;
#X obj 590 261 +~;
#X obj 656 261 +~;
#X obj 432 374 dt4~;
#X obj 196 276 r tick;
#X obj 196 300 sequ.impl;
#X obj 246 276 r sequ;
#X obj 196 324 <;
#X obj 196 348 sel 1;
#X obj 432 621 throwout~, f 28;
#X obj 269 302 msphsl 0 1;
#X obj 459 285 square~;
#X obj 524 285 square~;
#X obj 590 285 square~;
#X obj 656 285 square~;
#X obj 763 291 wobble;
#X obj 763 315 scaled 0 1 0.3 0.7;
#X obj 459 309 vibrato~ 0.9;
#X obj 524 309 vibrato~ 1;
#X obj 590 309 vibrato~ 1.1;
#X obj 656 309 vibrato~ 0.7;
#X obj 760 56 r tick;
#X obj 760 80 sequ.impl;
#X obj 810 56 r sequ;
#X msg 760 128 ramp \$1;
#X floatatom 1097 47 5 0 0 0 - - - 0;
#X obj 1097 70 mtof;
#X obj 1097 94 osc~;
#X obj 1097 118 vibrato~;
#X obj 995 190 level~;
#X floatatom 1167 47 5 0 0 0 - - - 0;
#X obj 1167 70 mtof;
#X obj 1167 94 osc~;
#X obj 1167 118 vibrato~ 1.2;
#X obj 1187 175 wobble 5000 15000;
#X obj 995 213 level~;
#X obj 852 205 level~;
#X obj 851 162 bp~;
#X floatatom 869 107 5 0 0 0 - - - 0;
#X floatatom 913 111 5 0 0 0 - - - 0;
#X obj 851 138 noise~;
#X obj 762 208 bp~;
#X floatatom 780 153 5 0 0 0 - - - 0;
#X floatatom 824 157 5 0 0 0 - - - 0;
#X obj 762 184 noise~;
#X obj 982 268 reverb~;
#X obj 982 437 throwout~;
#X obj 1187 199 * 1;
#X obj 709 523 *~;
#X obj 709 547 level~;
#X obj 744 584 tapeecho~ 150 0.6;
#X obj 744 608 pan~;
#X obj 865 608 wobble 2000 8000;
#X obj 744 653 throwout~, f 16;
#X obj 709 499 pink~;
#X obj 865 632 scaled 0 1 0.3 0.7;
#X obj 138 476 r tick;
#X obj 138 500 counter 16;
#X obj 138 524 sel 0;
#X msg 138 548 velocity 1;
#X obj 138 572 snare~;
#X obj 138 729 level~;
#X obj 138 755 pan~;
#X obj 259 755 wobble 2000 8000;
#X obj 138 800 throwout~, f 16;
#X obj 259 779 scaled 0 1 0.35 0.65;
#X obj 591 667 level~;
#X obj 651 352 wobble 3000 9000;
#X msg 651 400 s \$1;
#X obj 790 398 wobble 3000 9000;
#X msg 790 446 q \$1;
#X obj 1210 243 level~;
#X obj 1210 266 throw~ outC;
#X obj 1270 108 wobble 5000 15000;
#X obj 1270 132 scaled 0 1 0.01 0.07;
#X obj 790 422 scaled 0 1 0.2 0.4;
#X obj 760 104 * 80;
#X floatatom 805 105 5 0 0 0 - - - 0;
#X obj 651 376 scaled 0 1 0.015 0.1;
#X connect 0 0 2 0;
#X connect 2 0 4 0;
#X connect 3 0 1 0;
#X connect 3 1 1 1;
#X connect 5 0 6 0;
#X connect 7 0 8 0;
#X connect 8 0 11 0;
#X connect 9 0 8 1;
#X connect 10 0 3 0;
#X connect 10 1 3 1;
#X connect 11 0 12 0;
#X connect 11 1 13 0;
#X connect 11 2 14 0;
#X connect 11 3 15 0;
#X connect 12 0 24 0;
#X connect 13 0 25 0;
#X connect 14 0 26 0;
#X connect 15 0 27 0;
#X connect 16 0 22 0;
#X connect 16 0 79 0;
#X connect 16 1 22 1;
#X connect 16 1 79 0;
#X connect 16 2 61 1;
#X connect 17 0 18 0;
#X connect 18 0 20 0;
#X connect 19 0 18 1;
#X connect 20 0 21 0;
#X connect 21 0 16 0;
#X connect 23 0 20 1;
#X connect 24 0 30 0;
#X connect 25 0 31 0;
#X connect 26 0 32 0;
#X connect 27 0 33 0;
#X connect 28 0 29 0;
#X connect 29 0 27 1;
#X connect 29 0 26 1;
#X connect 29 0 25 1;
#X connect 29 0 24 1;
#X connect 30 0 16 1;
#X connect 31 0 16 2;
#X connect 32 0 16 3;
#X connect 33 0 16 4;
#X connect 34 0 35 0;
#X connect 35 0 89 0;
#X connect 36 0 35 1;
#X connect 37 0 11 1;
#X connect 38 0 39 0;
#X connect 39 0 40 0;
#X connect 40 0 41 0;
#X connect 41 0 84 0;
#X connect 42 0 48 0;
#X connect 43 0 44 0;
#X connect 44 0 45 0;
#X connect 45 0 46 0;
#X connect 46 0 84 0;
#X connect 47 0 60 0;
#X connect 48 0 58 0;
#X connect 49 0 42 0;
#X connect 50 0 49 0;
#X connect 50 0 61 0;
#X connect 51 0 50 1;
#X connect 52 0 50 2;
#X connect 53 0 50 0;
#X connect 54 0 49 0;
#X connect 54 0 61 0;
#X connect 55 0 54 1;
#X connect 56 0 54 2;
#X connect 57 0 54 0;
#X connect 58 0 59 0;
#X connect 58 1 59 1;
#X connect 60 0 42 1;
#X connect 61 0 62 0;
#X connect 62 0 63 0;
#X connect 63 0 64 0;
#X connect 64 0 66 0;
#X connect 64 1 66 1;
#X connect 65 0 68 0;
#X connect 67 0 61 0;
#X connect 68 0 64 1;
#X connect 69 0 70 0;
#X connect 70 0 71 0;
#X connect 71 0 72 0;
#X connect 72 0 73 0;
#X connect 73 0 74 0;
#X connect 74 0 75 0;
#X connect 75 0 77 0;
#X connect 75 1 77 1;
#X connect 76 0 78 0;
#X connect 78 0 75 1;
#X connect 79 0 63 0;
#X connect 80 0 91 0;
#X connect 81 0 16 5;
#X connect 82 0 88 0;
#X connect 83 0 16 5;
#X connect 84 0 85 0;
#X connect 86 0 87 0;
#X connect 87 0 84 1;
#X connect 88 0 83 0;
#X connect 89 0 37 0;
#X connect 90 0 89 1;
#X connect 91 0 81 0;
