#N canvas 33 38 1512 884 12;
#X obj 10 9 tgl 19 0 empty empty empty 0 -10 0 12 #fcfcfc #000000 #000000 0 1;
#X obj 10 57 s tick;
#X obj 10 82 sequ.params;
#X obj 10 244 s sequ;
#X obj 314 118 r tick;
#X obj 314 142 sequ.impl;
#X obj 364 118 r sequ;
#X obj 314 166 dt4 phrygian 60;
#X obj 314 283 +~;
#X obj 379 283 +~;
#X obj 445 283 +~;
#X obj 511 283 +~;
#X obj 314 331 vibrato~;
#X obj 379 331 vibrato~;
#X obj 445 331 vibrato~;
#X obj 511 331 vibrato~;
#X obj 123 173 r tick;
#X obj 123 197 sequ.impl;
#X obj 173 173 r sequ;
#X obj 123 221 <, f 10;
#X obj 193 198 msphsl 0 1;
#X obj 123 245 sel 1;
#X obj 380 390 throwout~;
#X obj 528 252 *~, f 6;
#X obj 567 180 wobble 5000 15000;
#X obj 567 204 ramp~;
#X obj 567 228 *~;
#X obj 610 227 ramp~;
#X obj 921 119 r tick;
#X obj 921 143 sequ.impl;
#X obj 971 119 r sequ;
#X obj 921 167 dt4 phrygian 60;
#X obj 921 284 +~;
#X obj 986 284 +~;
#X obj 1052 284 +~;
#X obj 1118 284 +~;
#X obj 921 332 vibrato~;
#X obj 986 332 vibrato~;
#X obj 1052 332 vibrato~;
#X obj 1118 332 vibrato~;
#X obj 727 222 r tick;
#X obj 727 246 sequ.impl;
#X obj 777 222 r sequ;
#X obj 727 270 <, f 10;
#X obj 797 247 msphsl 0 1;
#X obj 727 294 sel 1;
#X obj 1135 253 *~, f 6;
#X obj 1174 181 wobble 5000 15000;
#X obj 1174 205 ramp~;
#X obj 1174 229 *~;
#X obj 1217 228 ramp~;
#X obj 1377 669 catchout~;
#X obj 1377 791 compressor2~;
#X obj 1377 815 outrec~;
#X obj 244 313 s~ fb1;
#X obj 862 317 s~ fb2;
#X obj 1130 227 r~ fb2;
#X obj 518 225 r~ fb1;
#X obj 8 378 dt~.params;
#X obj 8 624 s dt;
#X obj 314 355 dt4~.impl, f 35;
#X obj 980 413 throwout~;
#X obj 914 378 dt4~.impl, f 35;
#X obj 575 354 r dt;
#X obj 1182 362 r dt;
#X obj 10 33 metronome 100 16;
#X obj 921 308 saw~;
#X obj 986 308 saw~;
#X obj 1052 308 saw~;
#X obj 1118 308 saw~;
#X obj 314 307 saw~;
#X obj 379 307 saw~;
#X obj 445 307 saw~;
#X obj 511 307 saw~;
#X obj 8 281 wobble 3000 8000;
#X floatatom 665 63 5 0 0 0 - - - 0;
#X obj 665 86 s fm;
#X obj 610 205 r fm;
#X obj 1217 206 r fm;
#X obj 667 694 ramp~;
#X obj 500 735 filter~, f 17;
#X obj 591 690 ramp~;
#X floatatom 588 657 5 0 0 0 - - - 0;
#X obj 605 636 msphsl 0 1;
#X obj 407 698 level~;
#X obj 407 674 noise~;
#X obj 487 769 pan~;
#X obj 618 747 wobble 3000 8000;
#X obj 618 771 scaled 0 1 0.4 0.6;
#X obj 738 740 throwout~;
#X obj 367 727 wobble 3000 8000;
#X msg 8 353 r \$1;
#X obj 424 594 wobble 3000 8000;
#X obj 587 576 wobble 3000 8000;
#X obj 156 285 r tick;
#X obj 156 309 sequ.impl;
#X obj 206 285 r sequ;
#X msg 156 357 s \$1;
#X obj 8 329 scaled 0 1 100 2000;
#X obj 154 15 msphsl 30 90;
#X obj 8 305 easeoutcubic;
#X obj 424 618 scaled 0 1 15000 20000;
#X obj 367 751 * 0.025;
#X obj 243 414 wobble 3000 8000;
#X obj 243 438 easeincubic;
#X msg 243 486 d \$1;
#X obj 243 462 scaled 0 1 2 10;
#X obj 1349 731 filter~;
#X obj 1406 731 filter~;
#X floatatom 1204 652 5 0 0 0 - - - 0;
#X obj 1204 675 ramp~;
#X obj 1250 676 ramp~;
#X obj 1250 654 msphsl 0 1;
#X obj 1054 676 echo~ 100 0.67;
#X obj 1054 700 level~;
#X obj 1054 723 pan~;
#X obj 831 704 wobble 3000 8000;
#X obj 831 728 scaled 0 1 0.4 0.6;
#X obj 1054 652 hip~ 500;
#X obj 587 600 scaled 0 1 0.1 0.3;
#X obj 156 333 scaled 0 1 0.015 0.04;
#X connect 0 0 65 0;
#X connect 2 0 3 0;
#X connect 4 0 5 0;
#X connect 5 0 7 0;
#X connect 6 0 5 1;
#X connect 7 0 8 0;
#X connect 7 1 9 0;
#X connect 7 2 10 0;
#X connect 7 3 11 0;
#X connect 8 0 70 0;
#X connect 9 0 71 0;
#X connect 10 0 72 0;
#X connect 11 0 73 0;
#X connect 12 0 54 0;
#X connect 12 0 60 1;
#X connect 13 0 60 2;
#X connect 14 0 60 3;
#X connect 15 0 60 4;
#X connect 16 0 17 0;
#X connect 17 0 19 0;
#X connect 18 0 17 1;
#X connect 19 0 21 0;
#X connect 20 0 19 1;
#X connect 21 0 60 0;
#X connect 23 0 11 1;
#X connect 23 0 10 1;
#X connect 23 0 9 1;
#X connect 23 0 8 1;
#X connect 24 0 25 0;
#X connect 25 0 26 0;
#X connect 26 0 23 1;
#X connect 27 0 26 1;
#X connect 28 0 29 0;
#X connect 29 0 31 0;
#X connect 30 0 29 1;
#X connect 31 0 32 0;
#X connect 31 1 33 0;
#X connect 31 2 34 0;
#X connect 31 3 35 0;
#X connect 32 0 66 0;
#X connect 33 0 67 0;
#X connect 34 0 68 0;
#X connect 35 0 69 0;
#X connect 36 0 55 0;
#X connect 36 0 62 1;
#X connect 37 0 62 2;
#X connect 38 0 62 3;
#X connect 39 0 62 4;
#X connect 40 0 41 0;
#X connect 41 0 43 0;
#X connect 42 0 41 1;
#X connect 43 0 45 0;
#X connect 44 0 43 1;
#X connect 45 0 62 0;
#X connect 46 0 35 1;
#X connect 46 0 34 1;
#X connect 46 0 33 1;
#X connect 46 0 32 1;
#X connect 47 0 48 0;
#X connect 48 0 49 0;
#X connect 49 0 46 1;
#X connect 50 0 49 1;
#X connect 51 0 107 0;
#X connect 51 0 118 0;
#X connect 51 1 108 0;
#X connect 51 1 118 0;
#X connect 52 0 53 0;
#X connect 52 1 53 1;
#X connect 56 0 46 0;
#X connect 57 0 23 0;
#X connect 58 0 59 0;
#X connect 60 0 22 0;
#X connect 60 1 22 1;
#X connect 62 0 61 0;
#X connect 62 1 61 1;
#X connect 63 0 60 5;
#X connect 64 0 62 5;
#X connect 65 0 1 0;
#X connect 66 0 36 0;
#X connect 67 0 37 0;
#X connect 68 0 38 0;
#X connect 69 0 39 0;
#X connect 70 0 12 0;
#X connect 71 0 13 0;
#X connect 72 0 14 0;
#X connect 73 0 15 0;
#X connect 74 0 100 0;
#X connect 75 0 76 0;
#X connect 77 0 27 0;
#X connect 78 0 50 0;
#X connect 79 0 80 2;
#X connect 80 0 86 0;
#X connect 81 0 80 1;
#X connect 82 0 81 0;
#X connect 83 0 79 0;
#X connect 84 0 80 0;
#X connect 85 0 84 0;
#X connect 86 0 89 0;
#X connect 86 1 89 1;
#X connect 87 0 88 0;
#X connect 88 0 86 1;
#X connect 90 0 102 0;
#X connect 91 0 58 0;
#X connect 92 0 101 0;
#X connect 93 0 119 0;
#X connect 94 0 95 0;
#X connect 95 0 120 0;
#X connect 96 0 95 1;
#X connect 97 0 58 0;
#X connect 98 0 91 0;
#X connect 99 0 65 1;
#X connect 100 0 98 0;
#X connect 101 0 82 0;
#X connect 102 0 84 1;
#X connect 103 0 104 0;
#X connect 104 0 106 0;
#X connect 105 0 58 0;
#X connect 106 0 105 0;
#X connect 107 0 52 0;
#X connect 108 0 52 1;
#X connect 109 0 110 0;
#X connect 110 0 107 1;
#X connect 110 0 108 1;
#X connect 111 0 107 2;
#X connect 111 0 108 2;
#X connect 112 0 111 0;
#X connect 113 0 114 0;
#X connect 114 0 115 0;
#X connect 115 0 52 0;
#X connect 115 1 52 1;
#X connect 116 0 117 0;
#X connect 117 0 115 1;
#X connect 118 0 113 0;
#X connect 119 0 83 0;
#X connect 120 0 97 0;
