#N canvas 0 38 1512 884 12;
#X obj 8 10 tgl 19 0 empty empty empty 0 -10 0 12 #fcfcfc #000000 #000000 0 1;
#X obj 8 58 s tick;
#X obj 1352 770 catchout~;
#X obj 1352 794 compressor2~, f 18;
#X obj 1352 818 outrec~;
#X obj 8 82 sequ.params;
#X obj 8 244 s sequ;
#X obj 283 91 r tick;
#X obj 283 336 kick~;
#X obj 283 501 level~;
#X obj 283 524 throw~ outC;
#X obj 283 163 migrids;
#X msg 283 312 velocity \$1;
#X obj 731 47 r tick;
#X obj 731 71 sequ.impl;
#X obj 791 47 r sequ;
#X obj 731 629 pan~;
#X obj 852 627 wobble 2000 8000;
#X obj 731 606 level~;
#X obj 731 674 throwout~;
#X obj 731 119 quantizedmode phrygian 60;
#X obj 731 143 mtof;
#X obj 731 504 wavefolder~;
#X floatatom 1041 46 5 0 0 0 - - - 0;
#X obj 1041 69 mtof;
#X obj 1041 93 osc~;
#X obj 1041 117 level~;
#X floatatom 992 45 5 0 0 0 - - - 0;
#X obj 992 68 mtof;
#X obj 992 92 osc~;
#X obj 1041 140 wavefolder~;
#X obj 1189 64 r tick;
#X obj 1189 88 sequ.impl;
#X obj 1249 64 r sequ;
#X msg 1189 112 foldamount \$1;
#X obj 1041 244 pingpong~ 250 0.4;
#X obj 1041 268 throwout~, f 17;
#X floatatom 1136 41 5 0 0 0 - - - 0;
#X obj 1136 64 mtof;
#X obj 1136 88 osc~;
#X floatatom 1087 40 5 0 0 0 - - - 0;
#X obj 1087 63 mtof;
#X obj 1087 87 osc~;
#X obj 1169 221 wobble 2000 8000;
#X obj 1169 245 * 0.5;
#X obj 1266 303 r tick;
#X obj 1266 375 sel 0;
#X obj 1266 423 *~, f 13;
#X floatatom 1354 328 5 0 0 0 - - - 0;
#X obj 1354 351 mtof;
#X obj 1354 375 square~;
#X obj 1266 471 level~;
#X obj 1266 517 throw~ outC;
#X obj 1266 327 +;
#X floatatom 1297 328 5 0 0 0 - - - 0;
#X obj 1389 329 wobble 2000 8000;
#X obj 1266 447 phaser~ 0.1;
#X obj 1365 424 wobble 4000 20000;
#X msg 424 507 velocity \$1;
#X obj 424 531 hh~;
#X obj 424 634 level~;
#X obj 424 657 pan~;
#X obj 545 655 wobble 2000 8000;
#X obj 424 702 throwout~;
#X obj 545 679 scaled 0 1 0.4 0.6;
#X obj 283 139 % 32;
#X obj 283 115 +;
#X floatatom 312 115 5 0 0 0 - - - 0;
#X obj 1266 494 level~;
#X obj 731 582 filter~, f 31;
#X obj 942 506 wobble 4000 20000;
#X obj 942 554 ramp~;
#X obj 960 601 level~;
#X obj 960 577 pink~;
#X msg 58 513 velocity \$1;
#X obj 58 694 level~;
#X obj 58 717 pan~;
#X obj 179 715 wobble 2000 8000;
#X obj 58 762 throwout~;
#X obj 58 537 snare~;
#X obj 179 739 scaled 0 1 0.45 0.55;
#X obj 8 34 metronome 50 32;
#X floatatom 1331 242 5 0 0 0 - - - 0;
#X obj 1331 265 mtof;
#X obj 1039 383 vibrato~;
#X obj 1039 407 level~;
#X obj 1039 359 square~;
#X obj 1039 311 / 2;
#X obj 1039 335 ramp~;
#X obj 1084 443 * 2.02;
#X obj 1084 467 ramp~;
#X obj 1084 491 saw~;
#X obj 1084 515 level~;
#X floatatom 50 10 5 0 0 0 - - - 0;
#X obj 376 71 r tick;
#X obj 376 95 sequ.impl;
#X obj 436 71 r sequ;
#X msg 376 143 kickdensity \$1;
#X obj 484 61 r tick;
#X obj 484 85 sequ.impl;
#X obj 544 61 r sequ;
#X msg 484 133 snaredensity \$1;
#X obj 597 50 r tick;
#X obj 597 74 sequ.impl;
#X obj 657 50 r sequ;
#X msg 597 122 hatdensity \$1;
#X obj 944 477 *~ 8000;
#X obj 731 95 scaled 0 1 40 60;
#X obj 804 316 r tick;
#X obj 804 340 sequ.impl;
#X obj 864 316 r sequ;
#X obj 804 364 <;
#X obj 854 371 msphsl 0 1;
#X obj 804 388 sel 1;
#X obj 641 315 r tick;
#X obj 641 339 sequ.impl;
#X obj 701 315 r sequ;
#X obj 729 228 r tick;
#X obj 729 252 sequ.impl;
#X obj 789 228 r sequ;
#X obj 942 530 scaled 0 1 0 0.5;
#X obj 1118 635 reverb~;
#X obj 1122 592 catch~ reverb;
#X obj 1118 804 *~;
#X obj 1158 804 *~;
#X obj 970 805 ramp~;
#X obj 970 781 msphsl 0 1;
#X obj 731 736 throw~ reverb;
#X obj 730 704 level~;
#X obj 294 821 throw~ reverb;
#X obj 293 789 level~;
#X obj 1365 448 scaled 0 1 0.1 0.3;
#X obj 1389 353 scaled 0 1 0.3 0.7;
#X obj 924 143 r tick;
#X obj 924 167 sequ.impl;
#X obj 984 143 r sequ;
#X obj 450 787 throw~ reverb;
#X obj 449 755 level~;
#X obj 592 405 wobble 2000 8000;
#X obj 1266 399 ahdsr~ 5 0 200 0.15 1200;
#X obj 1331 289 osc~;
#X obj 643 771 noise~;
#X obj 643 795 level~;
#X obj 643 818 level~;
#X obj 745 767 wobble 2000 8000;
#X obj 705 844 throw~ reverb;
#X obj 594 770 pink~;
#X obj 588 844 throw~ outC;
#X obj 597 98 * 1;
#X obj 1081 303 wobble 8000 15000;
#X obj 11 440 wobble 2000 8000;
#X msg 11 488 duration \$1;
#X obj 11 464 scaled 0 1 150 300;
#X obj 641 363 * 5;
#X obj 852 651 scaled 0 1 0.4 0.6;
#X obj 804 412 ahdsr~ 5 0 500 0.05 100;
#X obj 572 456 wobble 2000 8000;
#X obj 376 119 * 0.75;
#X obj 1081 327 scaled 0 1 0.4 0.6;
#X obj 729 276 * 50;
#X obj 825 247 wobble 2000 8000;
#X obj 924 191 * 0.05;
#X obj 1266 351 % 8;
#X obj 484 109 * 0.8;
#X obj 825 271 scaled 0 1 10 100;
#X obj 592 429 scaled 0 1 0.1 0.7;
#X obj 572 480 scaled 0 1 50 1500;
#X connect 0 0 81 0;
#X connect 2 0 3 0;
#X connect 2 1 3 1;
#X connect 3 0 4 0;
#X connect 3 1 4 1;
#X connect 5 0 6 0;
#X connect 7 0 66 0;
#X connect 8 0 9 0;
#X connect 9 0 10 0;
#X connect 11 0 12 0;
#X connect 11 1 74 0;
#X connect 11 2 58 0;
#X connect 11 4 74 0;
#X connect 11 5 58 0;
#X connect 12 0 8 0;
#X connect 13 0 14 0;
#X connect 14 0 107 0;
#X connect 15 0 14 1;
#X connect 16 0 19 0;
#X connect 16 1 19 1;
#X connect 17 0 154 0;
#X connect 18 0 16 0;
#X connect 18 0 128 0;
#X connect 20 0 21 0;
#X connect 21 0 87 0;
#X connect 21 0 89 0;
#X connect 22 0 69 0;
#X connect 23 0 24 0;
#X connect 24 0 25 0;
#X connect 25 0 26 0;
#X connect 26 0 30 0;
#X connect 27 0 28 0;
#X connect 28 0 29 0;
#X connect 29 0 26 0;
#X connect 30 0 35 0;
#X connect 31 0 32 0;
#X connect 32 0 34 0;
#X connect 33 0 32 1;
#X connect 34 0 30 1;
#X connect 35 0 36 0;
#X connect 35 1 36 1;
#X connect 37 0 38 0;
#X connect 38 0 39 0;
#X connect 39 0 26 0;
#X connect 40 0 41 0;
#X connect 41 0 42 0;
#X connect 42 0 26 0;
#X connect 43 0 44 0;
#X connect 44 0 35 2;
#X connect 45 0 53 0;
#X connect 46 0 139 0;
#X connect 47 0 56 0;
#X connect 48 0 49 0;
#X connect 49 0 50 0;
#X connect 50 0 47 1;
#X connect 51 0 68 0;
#X connect 53 0 162 0;
#X connect 54 0 53 1;
#X connect 55 0 132 0;
#X connect 56 0 51 0;
#X connect 57 0 131 0;
#X connect 58 0 59 0;
#X connect 59 0 60 0;
#X connect 60 0 61 0;
#X connect 60 0 137 0;
#X connect 61 0 63 0;
#X connect 61 1 63 1;
#X connect 62 0 64 0;
#X connect 64 0 61 1;
#X connect 65 0 11 0;
#X connect 66 0 65 0;
#X connect 67 0 66 1;
#X connect 68 0 52 0;
#X connect 69 0 18 0;
#X connect 70 0 120 0;
#X connect 71 0 69 2;
#X connect 72 0 69 0;
#X connect 73 0 72 0;
#X connect 74 0 79 0;
#X connect 75 0 76 0;
#X connect 75 0 130 0;
#X connect 76 0 78 0;
#X connect 76 1 78 1;
#X connect 77 0 80 0;
#X connect 79 0 75 0;
#X connect 80 0 76 1;
#X connect 81 0 1 0;
#X connect 82 0 83 0;
#X connect 83 0 140 0;
#X connect 84 0 85 0;
#X connect 85 0 22 0;
#X connect 86 0 84 0;
#X connect 87 0 88 0;
#X connect 88 0 86 0;
#X connect 89 0 90 0;
#X connect 90 0 91 0;
#X connect 91 0 92 0;
#X connect 92 0 22 0;
#X connect 93 0 81 1;
#X connect 94 0 95 0;
#X connect 95 0 157 0;
#X connect 96 0 95 1;
#X connect 97 0 11 1;
#X connect 98 0 99 0;
#X connect 99 0 163 0;
#X connect 100 0 99 1;
#X connect 101 0 11 1;
#X connect 102 0 103 0;
#X connect 103 0 148 0;
#X connect 104 0 103 1;
#X connect 105 0 11 1;
#X connect 106 0 69 1;
#X connect 107 0 20 0;
#X connect 108 0 109 0;
#X connect 109 0 111 0;
#X connect 110 0 109 1;
#X connect 111 0 113 0;
#X connect 112 0 111 1;
#X connect 113 0 155 0;
#X connect 114 0 115 0;
#X connect 115 0 153 0;
#X connect 116 0 115 1;
#X connect 117 0 118 0;
#X connect 118 0 159 0;
#X connect 119 0 118 1;
#X connect 120 0 71 0;
#X connect 121 0 123 0;
#X connect 121 1 124 0;
#X connect 122 0 121 0;
#X connect 123 0 3 0;
#X connect 124 0 3 1;
#X connect 125 0 123 1;
#X connect 125 0 124 1;
#X connect 126 0 125 0;
#X connect 128 0 127 0;
#X connect 130 0 129 0;
#X connect 131 0 51 1;
#X connect 132 0 50 1;
#X connect 133 0 134 0;
#X connect 134 0 161 0;
#X connect 135 0 134 1;
#X connect 137 0 136 0;
#X connect 138 0 165 0;
#X connect 139 0 47 0;
#X connect 140 0 47 1;
#X connect 141 0 142 0;
#X connect 142 0 143 0;
#X connect 143 0 145 0;
#X connect 143 0 147 0;
#X connect 144 0 142 1;
#X connect 146 0 142 0;
#X connect 148 0 105 0;
#X connect 149 0 158 0;
#X connect 150 0 152 0;
#X connect 151 0 79 0;
#X connect 152 0 151 0;
#X connect 153 0 155 1;
#X connect 154 0 16 1;
#X connect 155 0 106 0;
#X connect 156 0 166 0;
#X connect 157 0 97 0;
#X connect 158 0 86 1;
#X connect 159 0 155 3;
#X connect 160 0 164 0;
#X connect 161 0 26 1;
#X connect 162 0 46 0;
#X connect 163 0 101 0;
#X connect 164 0 159 1;
#X connect 165 0 155 4;
#X connect 166 0 155 5;
