#N canvas 0 38 1512 884 12;
#X obj 7 9 tgl 19 0 empty empty empty 0 -10 0 12 #fcfcfc #000000 #000000 0 1;
#X obj 7 33 metronome 100 16;
#X obj 7 57 s tick;
#X obj 284 31 r tick;
#X obj 284 55 sequ;
#X obj 284 241 dt4 lydian 60;
#X obj 284 382 +~;
#X obj 284 406 osc~;
#X obj 294 526 delwrite~ fb1 1;
#X obj 291 358 delread~ fb1 1;
#X obj 238 550 dt4~;
#X obj 238 821 throwout~, f 14;
#X obj 284 430 wavefolder~.impl;
#X obj 294 502 *~;
#X floatatom 8 83 5 0 0 0 - - - 0;
#X obj 8 106 s fb;
#X obj 312 454 r fb;
#X obj 312 478 ramp~;
#X obj 404 382 +~;
#X obj 404 406 osc~;
#X obj 404 430 wavefolder~.impl;
#X obj 414 502 *~;
#X obj 432 454 r fb;
#X obj 432 478 ramp~;
#X obj 524 382 +~;
#X obj 524 406 osc~;
#X obj 524 430 wavefolder~.impl;
#X obj 534 502 *~;
#X obj 552 454 r fb;
#X obj 552 478 ramp~;
#X obj 644 382 +~;
#X obj 644 406 osc~;
#X obj 644 430 wavefolder~.impl;
#X obj 654 502 *~;
#X obj 672 454 r fb;
#X obj 672 478 ramp~;
#X obj 411 358 delread~ fb2 1;
#X obj 414 526 delwrite~ fb2 1;
#X obj 531 358 delread~ fb3 1;
#X obj 534 526 delwrite~ fb3 1;
#X obj 651 358 delread~ fb4 1;
#X obj 654 526 delwrite~ fb4 1;
#X obj 59 57 wavefolder~.params;
#X obj 59 135 s wavefolder;
#X obj 144 411 r wavefolder;
#X obj 1396 774 catchout~;
#X obj 1396 798 compressor2~;
#X obj 1396 822 outrec~;
#X obj 238 217 t b f, f 7;
#X obj 140 14 wobble 5000 15000;
#X msg 140 38 foldamount \$1;
#X obj 377 832 level~;
#X obj 377 855 throw~ reverb;
#X obj 5 170 catch~ reverb;
#X obj 5 194 reverb~;
#X obj 5 363 throwout~, f 28;
#X obj 787 32 r tick;
#X obj 787 80 dt2 lydian 60;
#X obj 787 197 square~;
#X obj 846 197 wobble;
#X obj 897 197 square~;
#X obj 956 197 wobble;
#X obj 787 245 dt2~;
#X obj 355 55 sequ.params;
#X obj 355 217 s msequ;
#X obj 839 32 r msequ;
#X obj 787 56 sequ.impl;
#X obj 678 154 r tick;
#X obj 730 154 r msequ;
#X obj 678 202 bng 19 250 50 0 empty empty empty 0 -10 0 12 #fcfcfc #000000 #000000;
#X obj 787 641 throwout~, f 14;
#X obj 678 178 sequ.impl;
#X obj 767 541 *~;
#X obj 904 541 *~;
#X obj 767 565 echo~ 200 0.6;
#X obj 904 565 echo~ 200 0.6;
#X obj 996 427 ramp~;
#X obj 996 403 msphsl 0 1;
#X obj 1147 32 r tick;
#X obj 1147 80 dt2 lydian 60;
#X obj 1147 221 dt2~;
#X obj 1147 56 sequ.impl;
#X obj 1028 144 r tick;
#X obj 1028 192 bng 19 250 50 0 empty empty empty 0 -10 0 12 #fcfcfc #000000 #000000;
#X obj 1147 627 throwout~, f 14;
#X obj 1028 168 sequ.impl;
#X obj 1127 527 *~;
#X obj 1264 527 *~;
#X obj 1127 551 echo~ 200 0.6;
#X obj 1264 551 echo~ 200 0.6;
#X obj 1384 403 ramp~;
#X obj 1384 379 msphsl 0 1;
#X obj 425 55 sequ.params;
#X obj 425 217 s msequ2;
#X obj 1199 32 r msequ2;
#X obj 1080 144 r msequ2;
#X obj 1147 197 saw~;
#X obj 1258 197 saw~;
#X obj 846 221 scaled 0 1 0.3 0.7;
#X obj 956 221 scaled 0 1 0.3 0.7;
#X obj 523 36 msphsl 0 1;
#X obj 639 35 s chordlevel;
#X obj 523 55 msphsl 0 1;
#X obj 523 74 msphsl 0 1;
#X obj 639 54 s mel1level;
#X obj 639 73 s mel2level;
#X obj 140 753 r chordlevel;
#X obj 140 777 ramp~;
#X obj 238 796 *~;
#X obj 298 796 *~;
#X obj 1006 472 ramp~;
#X obj 1006 448 r mel1level;
#X obj 787 491 *~;
#X obj 827 491 *~;
#X obj 1366 452 ramp~;
#X obj 1366 428 r mel2level;
#X obj 1147 471 *~;
#X obj 1187 471 *~;
#X obj 914 833 level~;
#X obj 914 856 throw~ reverb;
#X obj 1121 785 crackle~;
#X obj 1121 809 *~;
#X obj 1191 785 crackle~;
#X obj 1191 809 *~;
#X obj 1121 833 throwout~;
#X obj 1254 785 msphsl 0 1;
#X obj 1254 808 ramp~;
#X obj 775 785 noise~;
#X obj 775 809 level~;
#X obj 823 785 wobble 5000 12000;
#X obj 948 809 level~;
#X obj 996 785 wobble 5000 12000;
#X obj 948 785 pink~;
#X obj 939 586 renoisekeyboard;
#X obj 939 634 quantizedmode lydian 60;
#X obj 939 658 mtof;
#X obj 787 221 vibrato~;
#X obj 994 246 vibrato~ 1.1;
#X obj 939 682 * 2;
#X obj 939 706 square~;
#X obj 939 730 vibrato~;
#X obj 1187 680 level~;
#X obj 982 678 wobble 3000 15000;
#X obj 939 754 bob~;
#X obj 939 610 poly 1 1;
#X obj 1025 729 *~ 8000;
#X obj 1187 703 level~;
#X obj 1240 746 throwout~;
#X obj 1240 722 pingpong~ 200 0.8;
#X obj 1025 705 adsr~ 5 80 0.005 3000;
#X obj 1332 636 pan~;
#X obj 1346 588 wobble 2000 6000;
#X obj 1346 612 scaled 0 1 0.35 0.65;
#X obj 757 680 noise~;
#X obj 757 704 level~;
#X obj 805 680 wobble 5000 12000;
#X obj 757 727 level~;
#X connect 0 0 1 0;
#X connect 1 0 2 0;
#X connect 3 0 4 0;
#X connect 4 0 48 0;
#X connect 5 0 6 0;
#X connect 5 1 18 0;
#X connect 5 2 24 0;
#X connect 5 3 30 0;
#X connect 6 0 7 0;
#X connect 7 0 12 0;
#X connect 9 0 6 1;
#X connect 10 0 108 0;
#X connect 10 1 109 0;
#X connect 12 0 13 0;
#X connect 12 0 10 1;
#X connect 13 0 8 0;
#X connect 14 0 15 0;
#X connect 16 0 17 0;
#X connect 17 0 13 1;
#X connect 18 0 19 0;
#X connect 19 0 20 0;
#X connect 20 0 21 0;
#X connect 20 0 10 2;
#X connect 21 0 37 0;
#X connect 22 0 23 0;
#X connect 23 0 21 1;
#X connect 24 0 25 0;
#X connect 25 0 26 0;
#X connect 26 0 27 0;
#X connect 26 0 10 3;
#X connect 27 0 39 0;
#X connect 28 0 29 0;
#X connect 29 0 27 1;
#X connect 30 0 31 0;
#X connect 31 0 32 0;
#X connect 32 0 33 0;
#X connect 32 0 10 4;
#X connect 33 0 41 0;
#X connect 34 0 35 0;
#X connect 35 0 33 1;
#X connect 36 0 18 1;
#X connect 38 0 24 1;
#X connect 40 0 30 1;
#X connect 42 0 43 0;
#X connect 44 0 12 1;
#X connect 44 0 32 1;
#X connect 44 0 26 1;
#X connect 44 0 20 1;
#X connect 45 0 46 0;
#X connect 45 1 46 1;
#X connect 46 0 47 0;
#X connect 46 1 47 1;
#X connect 48 0 10 0;
#X connect 48 1 5 0;
#X connect 49 0 50 0;
#X connect 50 0 42 0;
#X connect 51 0 52 0;
#X connect 53 0 54 0;
#X connect 54 0 55 0;
#X connect 54 1 55 1;
#X connect 56 0 66 0;
#X connect 57 0 58 0;
#X connect 57 1 60 0;
#X connect 58 0 136 0;
#X connect 59 0 98 0;
#X connect 60 0 137 0;
#X connect 61 0 99 0;
#X connect 62 0 112 0;
#X connect 62 1 113 0;
#X connect 63 0 64 0;
#X connect 65 0 66 1;
#X connect 66 0 57 0;
#X connect 67 0 71 0;
#X connect 68 0 71 1;
#X connect 69 0 62 0;
#X connect 71 0 69 0;
#X connect 72 0 74 0;
#X connect 73 0 75 0;
#X connect 74 0 70 0;
#X connect 75 0 70 1;
#X connect 76 0 73 1;
#X connect 76 0 72 1;
#X connect 77 0 76 0;
#X connect 78 0 81 0;
#X connect 79 0 96 0;
#X connect 79 1 97 0;
#X connect 80 0 116 0;
#X connect 80 1 117 0;
#X connect 81 0 79 0;
#X connect 82 0 85 0;
#X connect 83 0 80 0;
#X connect 85 0 83 0;
#X connect 86 0 88 0;
#X connect 87 0 89 0;
#X connect 88 0 84 0;
#X connect 89 0 84 1;
#X connect 90 0 87 1;
#X connect 90 0 86 1;
#X connect 91 0 90 0;
#X connect 92 0 93 0;
#X connect 94 0 81 1;
#X connect 95 0 85 1;
#X connect 96 0 80 1;
#X connect 97 0 80 2;
#X connect 98 0 58 1;
#X connect 99 0 60 1;
#X connect 100 0 101 0;
#X connect 102 0 104 0;
#X connect 103 0 105 0;
#X connect 106 0 107 0;
#X connect 107 0 108 1;
#X connect 107 0 109 1;
#X connect 108 0 11 0;
#X connect 108 0 51 0;
#X connect 109 0 11 1;
#X connect 109 0 51 0;
#X connect 110 0 113 1;
#X connect 110 0 112 1;
#X connect 111 0 110 0;
#X connect 112 0 72 0;
#X connect 112 0 70 0;
#X connect 113 0 73 0;
#X connect 113 0 70 1;
#X connect 114 0 117 1;
#X connect 114 0 116 1;
#X connect 115 0 114 0;
#X connect 116 0 86 0;
#X connect 116 0 84 0;
#X connect 117 0 87 0;
#X connect 117 0 84 1;
#X connect 118 0 119 0;
#X connect 120 0 121 0;
#X connect 121 0 124 0;
#X connect 122 0 123 0;
#X connect 123 0 124 1;
#X connect 125 0 126 0;
#X connect 126 0 123 1;
#X connect 126 0 121 1;
#X connect 127 0 128 0;
#X connect 128 0 118 0;
#X connect 129 0 128 1;
#X connect 130 0 118 0;
#X connect 131 0 130 1;
#X connect 132 0 130 0;
#X connect 133 0 144 0;
#X connect 134 0 135 0;
#X connect 135 0 138 0;
#X connect 136 0 62 1;
#X connect 137 0 62 2;
#X connect 138 0 139 0;
#X connect 139 0 140 0;
#X connect 140 0 143 0;
#X connect 141 0 146 0;
#X connect 141 0 150 0;
#X connect 141 0 119 0;
#X connect 142 0 139 1;
#X connect 143 0 141 0;
#X connect 144 1 134 0;
#X connect 144 2 149 0;
#X connect 145 0 143 1;
#X connect 146 0 148 0;
#X connect 148 0 147 0;
#X connect 148 1 147 1;
#X connect 149 0 145 0;
#X connect 150 0 147 0;
#X connect 150 1 147 1;
#X connect 151 0 152 0;
#X connect 152 0 150 1;
#X connect 153 0 154 0;
#X connect 154 0 156 0;
#X connect 155 0 154 1;
#X connect 156 0 143 0;
