#N canvas 248 23 917 755 12;
#X obj 32 454 *~ 1;
#X obj 32 588 out~;
#X obj 32 36 tgl 15 0 empty empty empty 17 7 0 10 -262144 -1 -1 1 1
;
#X obj 32 56 metronome 280 8;
#X obj 48 146 distortion~ 1;
#X floatatom 64 292 5 0 0 0 - - -;
#X obj 64 339 osc~;
#X obj 64 315 mtof;
#X obj 64 232 t f f, f 18;
#X obj 187 257 sig~;
#X obj 99 425 *~, f 13;
#X obj 99 339 osc~;
#X obj 64 363 distortion~ 0.5;
#X obj 64 262 + 30;
#X obj 32 111 kick~ 20 1 1 1 1;
#X obj 64 208 ahdsr 0 0 300 0.8 100;
#X obj 240 339 phasor~;
#X obj 311 121 snare~ 200 0.5 250;
#X obj 32 80 onbeats 1 5 7;
#X obj 311 145 vfreeverb~ 0.1 0.5 0.8 0.8;
#X obj 48 173 *~ 0.7;
#X obj 64 392 *~ 0.4;
#X obj 32 11 loadbang;
#X obj 32 561 *~ 1;
#X obj 411 315 16step, f 32;
#X obj 418 226 randomlist 7 3;
#X obj 411 363 mtof;
#X obj 411 417 vibrato~ 1 1;
#X obj 520 199 mode aeolian;
#X obj 127 504 vfreeverb~ 0.2 0.3 0.9 0.1;
#X obj 411 441 *~;
#X obj 551 368 ahdsr~ 5 0 200 0.4 200;
#X obj 418 250 unpack f f f f f;
#X obj 427 476 distortion~ 0.3;
#X obj 575 437 vcf~ 4;
#X obj 655 421 *~ 2000;
#X obj 556 398 *~;
#X obj 411 392 phasor~;
#X obj 427 499 echo~ 280 0.8;
#X obj 411 339 + 48;
#X obj 415 536 loadbang;
#X obj 415 584 synthstring~;
#X obj 415 608 *~;
#X obj 415 655 vfreeverb~ 0.1 0.2 0.2 0.2;
#X obj 573 64 onbeats 2 4 6 8;
#X obj 574 88 cymbal~ 50 1200;
#X obj 574 112 *~ 0.6;
#X obj 662 130 randomlist 9 8;
#X msg 764 107 1 2 3 4 5 6 7 8 -1;
#X obj 764 83 loadbang;
#X obj 662 154 unpack f f f f f f f f;
#X obj 642 195 onbeats, f 33;
#X obj 695 102 sel 1;
#X obj 418 200 sel 1;
#X obj 304 394 osc~;
#X obj 304 418 distortion~ 0.8;
#X obj 304 370 / 2;
#X obj 304 464 vcf~ 4;
#X obj 656 523 *~ 300;
#X obj 304 442 *~ 0.6;
#X obj 32 478 ducker~ 0.2 20;
#X obj 311 169 *~ 0.6;
#X obj 311 97 onbeats 3 8;
#X obj 494 343 crackle~;
#X obj 32 502 hip~ 5;
#X floatatom 264 597 5 0 0 0 - - -;
#X obj 264 573 scaled 0 1 5 250;
#X obj 240 387 *~ 0.4;
#X obj 240 363 hip~ 1000;
#X obj 415 632 vibrato~ 1 2;
#X msg 415 560 72 64;
#X obj 655 396 lfo~ sin 0.3;
#X obj 264 549 lfo sin 0.05;
#X obj 449 609 lfo~ sin 0.01;
#X connect 0 0 60 0;
#X connect 2 0 3 0;
#X connect 3 0 18 0;
#X connect 3 0 44 0;
#X connect 3 0 51 0;
#X connect 3 0 52 0;
#X connect 3 0 53 0;
#X connect 3 0 62 0;
#X connect 4 0 20 0;
#X connect 5 0 7 0;
#X connect 6 0 12 0;
#X connect 7 0 6 0;
#X connect 7 0 11 0;
#X connect 7 0 16 0;
#X connect 8 0 13 0;
#X connect 8 1 9 0;
#X connect 9 0 10 1;
#X connect 10 0 0 0;
#X connect 11 0 10 0;
#X connect 12 0 21 0;
#X connect 13 0 5 0;
#X connect 14 0 0 0;
#X connect 14 0 4 0;
#X connect 15 0 8 0;
#X connect 16 0 68 0;
#X connect 17 0 19 0;
#X connect 18 0 14 0;
#X connect 18 0 15 0;
#X connect 19 0 61 0;
#X connect 20 0 0 0;
#X connect 21 0 10 0;
#X connect 22 0 2 0;
#X connect 23 0 1 0;
#X connect 23 0 1 1;
#X connect 24 0 39 0;
#X connect 25 0 32 0;
#X connect 26 0 37 0;
#X connect 26 0 56 0;
#X connect 27 0 30 0;
#X connect 28 0 25 1;
#X connect 29 0 23 0;
#X connect 30 0 34 0;
#X connect 31 0 30 1;
#X connect 31 0 36 0;
#X connect 31 0 58 0;
#X connect 32 0 24 1;
#X connect 32 1 24 2;
#X connect 32 2 24 3;
#X connect 32 3 24 4;
#X connect 32 4 24 5;
#X connect 33 0 38 0;
#X connect 33 0 60 1;
#X connect 34 0 33 0;
#X connect 35 0 36 1;
#X connect 36 0 34 1;
#X connect 37 0 27 0;
#X connect 38 0 60 1;
#X connect 39 0 26 0;
#X connect 40 0 70 0;
#X connect 41 0 42 0;
#X connect 42 0 69 0;
#X connect 43 0 60 1;
#X connect 44 0 45 0;
#X connect 45 0 46 0;
#X connect 46 0 60 1;
#X connect 47 0 50 0;
#X connect 48 0 47 1;
#X connect 49 0 48 0;
#X connect 50 0 51 1;
#X connect 50 1 51 2;
#X connect 50 2 51 3;
#X connect 50 3 51 4;
#X connect 50 4 51 5;
#X connect 50 5 51 6;
#X connect 50 6 51 7;
#X connect 50 7 51 8;
#X connect 51 0 24 0;
#X connect 51 0 31 0;
#X connect 52 0 47 0;
#X connect 53 0 25 0;
#X connect 54 0 55 0;
#X connect 55 0 59 0;
#X connect 56 0 54 0;
#X connect 57 1 60 1;
#X connect 58 0 57 1;
#X connect 59 0 57 0;
#X connect 60 0 64 0;
#X connect 60 1 29 0;
#X connect 61 0 60 1;
#X connect 62 0 17 0;
#X connect 63 0 34 0;
#X connect 64 0 23 0;
#X connect 65 0 64 1;
#X connect 66 0 65 0;
#X connect 67 0 10 0;
#X connect 68 0 67 0;
#X connect 69 0 43 0;
#X connect 70 0 41 0;
#X connect 71 0 35 0;
#X connect 72 0 66 0;
#X connect 73 0 42 1;
