#N canvas 0 38 1512 884 12;
#X obj 232 576 filter~, f 73;
#X obj 30 60 mspparam pulsewidth 0 1 0.5;
#X obj 30 161 mspparam modfilterdepth 0 1 0;
#X obj 30 179 mspparam modfreqdepth 0 1 0;
#X obj 30 207 mspparam cutoff 0 16000 8000;
#X obj 970 140 s \$0-frequency;
#X obj 232 366 r \$0-frequency;
#X obj 232 390 ramp~;
#X obj 232 414 +~, f 19;
#X obj 1097 68 clip 0 1;
#X obj 1097 116 s \$0-pulsewidth;
#X obj 955 285 s \$0-modfrequency;
#X obj 1086 213 clip 0 1;
#X obj 1227 213 clip 0 1;
#X obj 1086 261 s \$0-modfilterdepth;
#X obj 1227 261 s \$0-modfreqdepth;
#X obj 823 346 s \$0-cutoff;
#X obj 278 438 r \$0-pulsewidth;
#X obj 1025 541 r \$0-modfrequency;
#X obj 1025 565 ramp~;
#X obj 1033 745 s~ \$0-mod;
#X obj 573 480 r~ \$0-mod;
#X obj 573 504 *~, f 14;
#X obj 668 432 r \$0-modfilterdepth;
#X obj 668 456 ramp~;
#X obj 362 366 r~ \$0-mod;
#X obj 362 390 *~, f 14;
#X obj 457 342 ramp~;
#X obj 457 318 r \$0-modfreqdepth;
#X obj 486 480 r \$0-cutoff;
#X obj 486 504 ramp~;
#X obj 30 225 mspparam q 0 1 0;
#X obj 912 346 clip 0 1;
#X obj 912 370 s \$0-q;
#X obj 740 552 ramp~;
#X obj 740 528 r \$0-q;
#X obj 486 528 +~, f 13;
#X obj 232 600 level~;
#X obj 232 823 outrec~;
#X obj 457 366 *~ 2500;
#X obj 30 42 mspparam frequency 0 1 0.2;
#X obj 30 143 mspparam modfrequency 0 1 0.2;
#X obj 970 92 easeincubic;
#X obj 1097 92 easeinoutcubic;
#X obj 970 68 clip 0 1;
#X obj 955 213 clip 0 1;
#X obj 970 116 scaled 0 1 0 1000;
#X obj 30 88 mspparam modwave 0 1 0;
#X obj 823 322 route cutoff q, f 26;
#X obj 843 213 clip 0 1;
#X obj 843 237 s \$0-modwave;
#X obj 1007 613 r \$0-modwave;
#X obj 1007 637 ramp~;
#X obj 1137 667 oneminus~;
#X obj 1007 661 *~;
#X obj 1137 691 *~;
#X obj 1155 541 r \$0-modfrequency;
#X obj 1155 565 ramp~;
#X obj 1025 589 square~;
#X obj 1155 589 saw~;
#X obj 30 341 s \$0-params;
#X obj 843 20 r \$0-params;
#X obj 1225 68 s \$0-params-2;
#X obj 843 165 r \$0-params-2;
#X obj 1407 213 s \$0-params-3;
#X obj 823 298 r \$0-params-3;
#X obj 30 106 mspparam modpulsewidth 0 1 0.5;
#X obj 843 189 route modwave modfrequency modfilterdepth modfreqdepth modpulsewidth, f 81;
#X obj 1311 213 clip 0 1;
#X obj 1311 237 s \$0-modpulsewidth;
#X obj 1071 517 r \$0-modpulsewidth;
#X obj 151 124 tgl 19 0 empty empty empty 0 -10 0 12 #fcfcfc #000000 #000000 0 1;
#X obj 1002 346 s \$0-params-4;
#X obj 1106 297 r \$0-params-4;
#X obj 1106 345 tgl 19 0 empty empty empty 0 -10 0 12 #fcfcfc #000000 #000000 0 1;
#X obj 1312 566 sel 0 1;
#X obj 1312 614 sig~;
#X obj 1155 638 *~, f 23;
#X msg 30 124 sawdescending \$1;
#X obj 1106 369 s \$0-sawdescending;
#X msg 1312 590 1;
#X msg 1342 590 -1;
#X obj 1312 542 r \$0-sawdescending;
#X obj 1016 705 clip~ -1 1;
#X obj 504 199 level~;
#X obj 522 222 r \$0-cutoff;
#X obj 522 270 ramp~;
#X obj 504 294 *~;
#X obj 30 273 mspparam noisecutoffmod 0 1 0;
#X obj 1286 345 clip 0 1;
#X obj 1286 393 s \$0-noisecutoffmod;
#X obj 631 175 r \$0-noisecutoffmod;
#X obj 486 552 +~;
#X obj 1377 346 s \$0-params-5;
#X obj 883 397 r \$0-params-5;
#X obj 1286 369 easeincubic;
#X obj 30 301 mspparam wavefolder 0 1 0;
#X obj 883 421 route wavefolder, f 33;
#X obj 883 445 s \$0-wavefolder;
#X obj 429 665 r \$0-wavefolder;
#X obj 232 713 wavefolder~;
#X msg 429 689 foldamount \$1;
#X obj 265 670 loadbang;
#X msg 265 694 wet 0.3 \, dry 0.7;
#X obj 1106 321 route sawdescending noisecutoffmod, f 52;
#X floatatom 962 539 5 0 0 0 - - - 0;
#X obj 955 261 scaled 0 1 0 2000;
#X obj 955 237 easeinquint;
#X obj 1227 237 easeinquart;
#X obj 668 480 *~ 16000;
#X obj 504 175 noise~;
#X obj 232 462 square~;
#X obj 123 456 ramp~;
#X obj 214 500 *~;
#X obj 278 500 *~;
#X obj 123 432 r \$0-wave;
#X obj 296 462 saw~;
#X obj 30 24 mspparam wave 0 1 0;
#X obj 843 44 route wave frequency pulsewidth, f 55;
#X obj 843 68 clip 0 1;
#X obj 843 92 s \$0-wave;
#X obj 123 480 oneminus~;
#X obj 522 246 scaled 0 10000 20000 80000;
#X obj 1086 237 easeinquint;
#X connect 0 0 37 0;
#X connect 1 0 60 0;
#X connect 2 0 60 0;
#X connect 3 0 60 0;
#X connect 4 0 60 0;
#X connect 6 0 7 0;
#X connect 7 0 8 0;
#X connect 8 0 111 0;
#X connect 8 0 116 0;
#X connect 9 0 43 0;
#X connect 12 0 123 0;
#X connect 13 0 108 0;
#X connect 17 0 111 1;
#X connect 18 0 19 0;
#X connect 18 0 105 0;
#X connect 19 0 58 0;
#X connect 21 0 22 0;
#X connect 22 0 36 1;
#X connect 23 0 24 0;
#X connect 24 0 109 0;
#X connect 25 0 26 0;
#X connect 26 0 8 1;
#X connect 27 0 39 0;
#X connect 28 0 27 0;
#X connect 29 0 30 0;
#X connect 30 0 36 0;
#X connect 31 0 60 0;
#X connect 32 0 33 0;
#X connect 34 0 0 2;
#X connect 35 0 34 0;
#X connect 36 0 92 0;
#X connect 37 0 100 0;
#X connect 39 0 26 1;
#X connect 40 0 60 0;
#X connect 41 0 60 0;
#X connect 42 0 46 0;
#X connect 43 0 10 0;
#X connect 44 0 42 0;
#X connect 45 0 107 0;
#X connect 46 0 5 0;
#X connect 47 0 60 0;
#X connect 48 0 16 0;
#X connect 48 1 32 0;
#X connect 48 2 72 0;
#X connect 49 0 50 0;
#X connect 51 0 52 0;
#X connect 52 0 53 0;
#X connect 52 0 54 0;
#X connect 53 0 55 0;
#X connect 54 0 83 0;
#X connect 55 0 83 0;
#X connect 56 0 57 0;
#X connect 57 0 59 0;
#X connect 58 0 54 1;
#X connect 59 0 77 0;
#X connect 61 0 118 0;
#X connect 63 0 67 0;
#X connect 65 0 48 0;
#X connect 66 0 60 0;
#X connect 67 0 49 0;
#X connect 67 1 45 0;
#X connect 67 2 12 0;
#X connect 67 3 13 0;
#X connect 67 4 68 0;
#X connect 67 5 64 0;
#X connect 68 0 69 0;
#X connect 70 0 58 1;
#X connect 71 0 78 0;
#X connect 73 0 104 0;
#X connect 74 0 79 0;
#X connect 75 0 80 0;
#X connect 75 1 81 0;
#X connect 76 0 77 1;
#X connect 77 0 55 1;
#X connect 78 0 60 0;
#X connect 80 0 76 0;
#X connect 81 0 76 0;
#X connect 82 0 75 0;
#X connect 83 0 20 0;
#X connect 84 0 87 0;
#X connect 85 0 122 0;
#X connect 86 0 87 1;
#X connect 87 0 92 1;
#X connect 88 0 60 0;
#X connect 89 0 95 0;
#X connect 91 0 84 1;
#X connect 92 0 0 1;
#X connect 94 0 97 0;
#X connect 95 0 90 0;
#X connect 96 0 60 0;
#X connect 97 0 98 0;
#X connect 99 0 101 0;
#X connect 100 0 38 0;
#X connect 100 0 38 1;
#X connect 101 0 100 1;
#X connect 102 0 103 0;
#X connect 103 0 100 1;
#X connect 104 0 74 0;
#X connect 104 1 89 0;
#X connect 104 2 93 0;
#X connect 106 0 11 0;
#X connect 107 0 106 0;
#X connect 108 0 15 0;
#X connect 109 0 22 1;
#X connect 110 0 84 0;
#X connect 111 0 113 1;
#X connect 112 0 121 0;
#X connect 112 0 114 0;
#X connect 113 0 0 0;
#X connect 114 0 0 0;
#X connect 115 0 112 0;
#X connect 116 0 114 1;
#X connect 117 0 60 0;
#X connect 118 0 119 0;
#X connect 118 1 44 0;
#X connect 118 2 9 0;
#X connect 118 3 62 0;
#X connect 119 0 120 0;
#X connect 121 0 113 0;
#X connect 122 0 86 0;
#X connect 123 0 14 0;
