#N canvas 3 39 1512 884 12;
#X obj 48 51 din~;
#X obj 48 351 level~;
#X msg 269 32 wave \$1;
#X msg 270 79 frequency \$1;
#X msg 270 129 pulsewidth \$1;
#X msg 270 179 modpulsewidth \$1;
#X obj 1390 774 catchout~;
#X obj 1390 798 compressor2~;
#X obj 1390 822 outrec~;
#X obj 1142 683 level~;
#X obj 1142 706 reverb~;
#X obj 1386 647 *~ 0.5;
#X obj 1365 26 tgl 19 0 empty empty empty 0 -10 0 12 #fcfcfc #000000 #000000 0 1;
#X obj 1365 50 metronome 80 16;
#X obj 1365 74 s tick;
#X obj 1354 135 sequ.params;
#X obj 1354 297 s sequ;
#X obj 372 27 r tick;
#X obj 372 51 sequ.impl;
#X obj 422 27 r sequ;
#X obj 472 27 r tick;
#X obj 472 51 sequ.impl;
#X obj 522 27 r sequ;
#X obj 571 27 r tick;
#X obj 571 51 sequ.impl;
#X obj 621 27 r sequ;
#X obj 670 27 r tick;
#X obj 670 51 sequ.impl;
#X obj 720 27 r sequ;
#X obj 775 28 r tick;
#X obj 775 52 sequ.impl;
#X obj 825 28 r sequ;
#X msg 775 101 modfrequency \$1;
#X msg 270 259 modwave \$1;
#X obj 888 28 r tick;
#X obj 888 52 sequ.impl;
#X obj 938 28 r sequ;
#X msg 270 289 modfreqdepth \$1;
#X obj 986 25 r tick;
#X obj 986 49 sequ.impl;
#X obj 1036 25 r sequ;
#X obj 472 75 * 0.1;
#X obj 775 76 * 0.5;
#X obj 240 361 r tick;
#X obj 240 385 sequ.impl;
#X obj 290 361 r sequ;
#X obj 240 409 dt2 aeolian 60;
#X obj 240 526 saw~;
#X obj 390 526 saw~;
#X obj 217 601 dt2~;
#X obj 249 859 throwout~;
#X obj 29 582 r tick;
#X obj 29 606 sequ.impl;
#X obj 79 582 r sequ;
#X obj 29 630 <;
#X obj 120 470 msphsl 0 1;
#X obj 29 654 sel 1;
#X obj 1055 221 r tick;
#X obj 1055 269 +;
#X obj 1055 317 sel 0;
#X obj 1055 341 bng 19 250 50 0 empty empty empty 0 -10 0 12 #fcfcfc #000000 #000000;
#X floatatom 1110 271 5 0 0 0 - - - 0;
#X obj 1055 245 counter 32;
#X obj 1055 389 kick~;
#X obj 1055 554 level~;
#X obj 1055 577 throw~ outC;
#X msg 1055 365 velocity 1;
#X obj 1055 293 % 8;
#X obj 680 241 r tick;
#X obj 680 265 sequ.impl;
#X obj 730 241 r sequ;
#X obj 680 289 dt2 aeolian 60;
#X obj 657 591 dt2~;
#X obj 689 849 throwout~;
#X obj 469 532 r tick;
#X obj 469 556 sequ.impl;
#X obj 519 532 r sequ;
#X obj 469 580 <;
#X obj 499 492 msphsl 0 1;
#X obj 469 604 sel 1;
#X obj 680 430 +~;
#X obj 680 454 osc~;
#X obj 680 478 wavefolder~.impl;
#X obj 720 502 s~ fb1;
#X obj 719 430 r~ fb1;
#X obj 719 454 *~, f 9;
#X obj 770 406 r fb;
#X obj 770 430 ramp~;
#X obj 820 430 +~;
#X obj 820 454 osc~;
#X obj 820 478 wavefolder~.impl;
#X obj 859 454 *~, f 9;
#X obj 910 406 r fb;
#X obj 910 430 ramp~;
#X obj 859 430 r~ fb2;
#X obj 860 502 s~ fb2;
#X obj 1115 76 wavefolder~.params;
#X obj 1115 154 s wavefolder;
#X obj 944 459 r wavefolder;
#X floatatom 1069 125 5 0 0 0 - - - 0;
#X obj 1069 148 s fb;
#X obj 694 540 *~;
#X obj 804 540 *~;
#X obj 744 524 r v2;
#X obj 744 548 ramp~;
#X obj 836 157 msphsl 0 1;
#X obj 836 180 s v2;
#X obj 713 157 msphsl 0 1;
#X obj 713 180 s v1;
#X obj 240 580 *~;
#X obj 390 580 *~;
#X obj 302 567 ramp~;
#X obj 302 543 r v1;
#X obj 881 184 msphsl 0 1;
#X obj 881 207 s din;
#X obj 191 349 r din;
#N canvas 208 246 572 428 dronebed 0;
#X floatatom 210 136 5 0 0 0 - - - 0;
#X obj 210 159 mtof;
#X obj 210 183 osc~;
#X obj 210 260 level~;
#X obj 210 283 throw~ outC;
#X obj 62 201 pink~;
#X obj 62 225 level~;
#X obj 79 148 wobble 5000 15000;
#X obj 79 172 * 0.4;
#X obj 250 127 wobble 5000 15000;
#X obj 250 151 * 0.4;
#X obj 210 207 vibrato~;
#X obj 210 231 level~;
#X obj 331 157 wobble 5000 15000;
#X obj 141 285 noise~;
#X obj 178 343 level~;
#X obj 269 298 wobble 5000 15000;
#X obj 269 322 * 0.4;
#X obj 141 309 bp~ 8000 10;
#X floatatom 201 24 5 0 0 0 - - - 0;
#X obj 201 47 mtof;
#X obj 201 96 level~;
#X obj 285 58 wobble 5000 15000;
#X obj 201 71 noiseosc~;
#X obj 331 181 scaled 0 1 0.3 1;
#X connect 0 0 1 0;
#X connect 1 0 2 0;
#X connect 2 0 11 0;
#X connect 3 0 4 0;
#X connect 5 0 6 0;
#X connect 6 0 3 0;
#X connect 7 0 8 0;
#X connect 8 0 6 1;
#X connect 9 0 10 0;
#X connect 10 0 3 1;
#X connect 11 0 12 0;
#X connect 12 0 3 0;
#X connect 13 0 24 0;
#X connect 14 0 18 0;
#X connect 15 0 3 0;
#X connect 16 0 17 0;
#X connect 17 0 15 1;
#X connect 18 0 15 0;
#X connect 19 0 20 0;
#X connect 20 0 23 0;
#X connect 21 0 3 0;
#X connect 22 0 21 1;
#X connect 23 0 21 0;
#X connect 24 0 12 1;
#X restore 835 242 pd dronebed;
#X obj 48 374 pan~;
#X obj 48 419 throwout~, f 16;
#X obj 269 336 scaled 0 1 0.4 0.6;
#X obj 269 312 wobble 2000 5000;
#X obj 240 550 chorus~;
#X obj 390 550 chorus~;
#X obj 1448 279 dt4 aeolian 60;
#X obj 1448 396 saw~;
#X obj 1488 396 saw~;
#X obj 1528 396 saw~;
#X obj 1568 396 saw~;
#X obj 1448 420 *~;
#X obj 1488 420 *~;
#X obj 1528 420 *~;
#X obj 1568 420 *~;
#X obj 600 208 msphsl 0 1;
#X obj 600 231 s v3;
#X obj 1400 413 ramp~;
#X obj 1400 389 r v3;
#X obj 1448 444 dt4~;
#X obj 1453 219 r tick;
#X obj 1453 243 sequ.impl;
#X obj 1283 388 r tick;
#X obj 1283 436 <;
#X obj 1313 348 msphsl 0 1;
#X obj 1283 460 sel 1;
#X obj 1448 690 throwout~, f 15;
#X obj 1503 219 r sequ2;
#X obj 1550 34 sequ.params;
#X obj 1550 196 s sequ2;
#X obj 1333 388 r sequ2;
#X obj 1283 412 sequ.impl;
#X obj 23 465 *~;
#X obj 66 465 *~;
#X obj 116 528 msphsl 0 1;
#X obj 116 551 ramp~;
#X obj 23 489 echo~ 160 0.7;
#X obj 123 489 echo~ 160 0.7;
#X obj 23 513 throwout~;
#X connect 0 0 1 0;
#X connect 1 0 117 0;
#X connect 2 0 0 0;
#X connect 3 0 0 0;
#X connect 4 0 0 0;
#X connect 5 0 0 0;
#X connect 6 0 7 0;
#X connect 6 0 11 0;
#X connect 6 1 7 1;
#X connect 6 1 11 0;
#X connect 7 0 8 0;
#X connect 7 1 8 1;
#X connect 9 0 10 0;
#X connect 10 0 7 0;
#X connect 10 1 7 1;
#X connect 11 0 9 0;
#X connect 12 0 13 0;
#X connect 13 0 14 0;
#X connect 15 0 16 0;
#X connect 17 0 18 0;
#X connect 18 0 2 0;
#X connect 19 0 18 1;
#X connect 20 0 21 0;
#X connect 21 0 41 0;
#X connect 22 0 21 1;
#X connect 23 0 24 0;
#X connect 24 0 4 0;
#X connect 25 0 24 1;
#X connect 26 0 27 0;
#X connect 27 0 5 0;
#X connect 28 0 27 1;
#X connect 29 0 30 0;
#X connect 30 0 42 0;
#X connect 31 0 30 1;
#X connect 32 0 0 0;
#X connect 33 0 0 0;
#X connect 34 0 35 0;
#X connect 35 0 33 0;
#X connect 36 0 35 1;
#X connect 37 0 0 0;
#X connect 38 0 39 0;
#X connect 39 0 37 0;
#X connect 40 0 39 1;
#X connect 41 0 3 0;
#X connect 42 0 32 0;
#X connect 43 0 44 0;
#X connect 44 0 46 0;
#X connect 45 0 44 1;
#X connect 46 0 47 0;
#X connect 46 1 48 0;
#X connect 47 0 121 0;
#X connect 48 0 122 0;
#X connect 49 0 50 0;
#X connect 49 1 50 1;
#X connect 51 0 52 0;
#X connect 52 0 54 0;
#X connect 53 0 52 1;
#X connect 54 0 56 0;
#X connect 55 0 54 1;
#X connect 56 0 49 0;
#X connect 57 0 62 0;
#X connect 58 0 67 0;
#X connect 59 0 60 0;
#X connect 60 0 66 0;
#X connect 61 0 58 1;
#X connect 62 0 58 0;
#X connect 63 0 64 0;
#X connect 64 0 65 0;
#X connect 66 0 63 0;
#X connect 67 0 59 0;
#X connect 68 0 69 0;
#X connect 69 0 71 0;
#X connect 70 0 69 1;
#X connect 71 0 80 0;
#X connect 71 1 88 0;
#X connect 72 0 73 0;
#X connect 72 1 73 1;
#X connect 74 0 75 0;
#X connect 75 0 77 0;
#X connect 76 0 75 1;
#X connect 77 0 79 0;
#X connect 78 0 77 1;
#X connect 79 0 72 0;
#X connect 80 0 81 0;
#X connect 81 0 82 0;
#X connect 82 0 83 0;
#X connect 82 0 101 0;
#X connect 84 0 85 0;
#X connect 85 0 80 1;
#X connect 86 0 87 0;
#X connect 87 0 85 1;
#X connect 88 0 89 0;
#X connect 89 0 90 0;
#X connect 90 0 95 0;
#X connect 90 0 102 0;
#X connect 91 0 88 1;
#X connect 92 0 93 0;
#X connect 93 0 91 1;
#X connect 94 0 91 0;
#X connect 96 0 97 0;
#X connect 98 0 90 1;
#X connect 98 0 82 1;
#X connect 99 0 100 0;
#X connect 101 0 72 1;
#X connect 102 0 72 2;
#X connect 103 0 104 0;
#X connect 104 0 101 1;
#X connect 104 0 102 1;
#X connect 105 0 106 0;
#X connect 107 0 108 0;
#X connect 109 0 49 1;
#X connect 110 0 49 2;
#X connect 111 0 109 1;
#X connect 111 0 110 1;
#X connect 112 0 111 0;
#X connect 113 0 114 0;
#X connect 115 0 1 1;
#X connect 117 0 118 0;
#X connect 117 0 149 0;
#X connect 117 1 118 1;
#X connect 117 1 150 0;
#X connect 119 0 117 1;
#X connect 120 0 119 0;
#X connect 121 0 109 0;
#X connect 122 0 110 0;
#X connect 123 0 124 0;
#X connect 123 1 125 0;
#X connect 123 2 126 0;
#X connect 123 3 127 0;
#X connect 124 0 128 0;
#X connect 125 0 129 0;
#X connect 126 0 130 0;
#X connect 127 0 131 0;
#X connect 128 0 136 1;
#X connect 129 0 136 2;
#X connect 130 0 136 3;
#X connect 131 0 136 4;
#X connect 132 0 133 0;
#X connect 134 0 128 1;
#X connect 134 0 131 1;
#X connect 134 0 130 1;
#X connect 134 0 129 1;
#X connect 135 0 134 0;
#X connect 136 0 143 0;
#X connect 136 1 143 1;
#X connect 137 0 138 0;
#X connect 138 0 123 0;
#X connect 139 0 148 0;
#X connect 140 0 142 0;
#X connect 141 0 140 1;
#X connect 142 0 136 0;
#X connect 144 0 138 1;
#X connect 145 0 146 0;
#X connect 147 0 148 1;
#X connect 148 0 140 0;
#X connect 149 0 153 0;
#X connect 150 0 154 0;
#X connect 151 0 152 0;
#X connect 152 0 150 1;
#X connect 152 0 149 1;
#X connect 153 0 155 0;
#X connect 154 0 155 1;
