#N canvas 0 38 1512 884 12;
#X obj 48 51 din~;
#X obj 48 375 level~;
#X msg 269 32 wave \$1;
#X msg 270 79 frequency \$1;
#X msg 270 129 pulsewidth \$1;
#X msg 270 179 modpulsewidth \$1;
#X obj 372 27 r tick;
#X obj 372 51 sequ.impl;
#X obj 422 27 r sequ;
#X obj 472 27 r tick;
#X obj 472 51 sequ.impl;
#X obj 522 27 r sequ;
#X obj 571 27 r tick;
#X obj 571 51 sequ.impl;
#X obj 621 27 r sequ;
#X obj 670 27 r tick;
#X obj 670 51 sequ.impl;
#X obj 720 27 r sequ;
#X obj 775 28 r tick;
#X obj 775 52 sequ.impl;
#X obj 825 28 r sequ;
#X msg 775 101 modfrequency \$1;
#X msg 270 259 modwave \$1;
#X obj 888 28 r tick;
#X obj 888 52 sequ.impl;
#X obj 938 28 r sequ;
#X msg 270 289 modfreqdepth \$1;
#X obj 986 25 r tick;
#X obj 986 49 sequ.impl;
#X obj 1036 25 r sequ;
#X obj 472 75 * 0.1;
#X obj 775 76 * 0.5;
#X obj 48 543 throwout~, f 16;
#X obj 48 398 pan~ 0.35;
#X obj 1197 28 tgl 19 0 empty empty empty 0 -10 0 12 #fcfcfc #000000 #000000 0 1;
#X obj 1197 76 s tick;
#X obj 1212 131 sequ.params;
#X obj 1212 293 s sequ;
#X obj 1362 757 catchout~;
#X obj 1362 781 compressor2~;
#X obj 1362 805 outrec~;
#X obj 407 231 r tick;
#X obj 407 255 sequ.impl;
#X obj 457 231 r sequ;
#X obj 407 279 <;
#X obj 512 262 msphsl 0 1;
#X obj 407 327 *~ 15000;
#X obj 48 351 filter~, f 103;
#X obj 407 303 ahdsr~ 5 0 50 0.15 50;
#X obj 167 423 scaled 0 1 0.4 0.6;
#X obj 167 399 wobble 5000 8000;
#X obj 364 470 *~;
#X obj 364 494 hip~ 250;
#X obj 417 446 wobble 5000 8000;
#X obj 417 470 scaled 0 1 100 300;
#X obj 563 478 *~;
#X obj 563 502 hip~ 250;
#X obj 616 454 wobble 5000 8000;
#X obj 616 478 scaled 0 1 100 300;
#X obj 530 399 msphsl 0 1;
#X obj 530 422 ramp~;
#X obj 364 518 echo~ 160 0.5;
#X obj 563 526 echo~ 160 0.5;
#X obj 925 170 r tick;
#X obj 925 242 counter 32;
#X obj 925 266 +, f 12;
#X obj 925 290 % 32;
#X obj 925 314 migrids;
#X msg 925 463 velocity \$1;
#X obj 925 487 kick~;
#X obj 925 652 level~;
#X obj 925 675 throw~ outC;
#X floatatom 1006 243 5 0 0 0 - - - 0;
#X msg 652 611 velocity \$1;
#X obj 652 635 hh~;
#X obj 652 738 level~;
#X obj 115 759 dt4 aeolian 60;
#X obj 84 913 dt4~;
#X obj 217 681 r tick;
#X obj 217 706 sequ.impl;
#X obj 217 729 <;
#X obj 322 712 msphsl 0 1;
#X obj 110 1167 throwout~;
#X floatatom 435 1238 5 0 0 0 - - - 0;
#X obj 383 920 *~;
#X obj 423 920 *~;
#X obj 463 920 *~;
#X obj 503 920 *~;
#X obj 545 847 msphsl 0 1;
#X obj 545 870 ramp~;
#X obj 868 896 sequ.params;
#X obj 867 1059 s chordsequ;
#X obj 273 681 r chordsequ;
#X obj 117 613 r tick;
#X obj 117 637 sequ.impl;
#X obj 173 613 r chordsequ;
#X obj 334 757 sel 1;
#X obj 360 832 *~;
#X obj 400 832 *~;
#X obj 440 832 *~;
#X obj 480 832 *~;
#X obj 1197 52 metronome 40 16;
#X floatatom 1242 24 5 0 0 0 - - - 0;
#X obj 925 194 % 1;
#X obj 925 218 sel 0;
#X obj 558 791 msphsl 0 1;
#X obj 558 814 ramp~;
#X floatatom 798 431 5 0 0 0 - - - 0;
#X obj 798 454 mtof;
#X msg 798 478 frequency \$1;
#X msg 1208 478 velocity \$1;
#X obj 1208 502 snare~;
#X obj 1208 659 level~;
#X msg 1135 494 duration \$1;
#X obj 1135 470 * 400;
#X obj 542 966 r tick;
#X obj 542 991 sequ.impl;
#X obj 598 966 r chordsequ;
#X obj 542 1015 * 50;
#X msg 542 1039 ramp \$1;
#X obj 314 1146 *~;
#X obj 314 1170 hip~ 250;
#X obj 367 1122 wobble 5000 8000;
#X obj 367 1146 scaled 0 1 100 300;
#X obj 513 1154 *~;
#X obj 513 1178 hip~ 250;
#X obj 566 1130 wobble 5000 8000;
#X obj 566 1154 scaled 0 1 100 300;
#X obj 480 1075 msphsl 0 1;
#X obj 480 1098 ramp~;
#X obj 115 876 square~;
#X obj 165 876 square~;
#X obj 215 876 square~;
#X obj 265 876 square~;
#X obj 311 959 wobble 5000 8000;
#X obj 311 979 wobble 5000 8000;
#X obj 311 999 wobble 5000 8000;
#X obj 311 1019 wobble 5000 8000;
#X obj 351 806 pink~;
#X obj 401 806 pink~;
#X obj 451 806 pink~;
#X obj 501 806 pink~;
#X obj 314 1194 echo~ 320 0.5;
#X obj 513 1202 echo~ 320 0.5;
#X connect 0 0 47 0;
#X connect 1 0 33 0;
#X connect 2 0 0 0;
#X connect 3 0 0 0;
#X connect 4 0 0 0;
#X connect 5 0 0 0;
#X connect 6 0 7 0;
#X connect 7 0 2 0;
#X connect 8 0 7 1;
#X connect 9 0 10 0;
#X connect 10 0 30 0;
#X connect 11 0 10 1;
#X connect 12 0 13 0;
#X connect 13 0 4 0;
#X connect 14 0 13 1;
#X connect 15 0 16 0;
#X connect 16 0 5 0;
#X connect 17 0 16 1;
#X connect 18 0 19 0;
#X connect 19 0 31 0;
#X connect 20 0 19 1;
#X connect 21 0 0 0;
#X connect 22 0 0 0;
#X connect 23 0 24 0;
#X connect 24 0 22 0;
#X connect 25 0 24 1;
#X connect 26 0 0 0;
#X connect 27 0 28 0;
#X connect 28 0 26 0;
#X connect 29 0 28 1;
#X connect 30 0 3 0;
#X connect 31 0 21 0;
#X connect 33 0 32 0;
#X connect 33 0 51 0;
#X connect 33 1 32 1;
#X connect 33 1 55 0;
#X connect 34 0 101 0;
#X connect 36 0 37 0;
#X connect 38 0 39 0;
#X connect 38 1 39 1;
#X connect 39 0 40 0;
#X connect 39 1 40 1;
#X connect 41 0 42 0;
#X connect 42 0 44 0;
#X connect 43 0 42 1;
#X connect 44 0 48 0;
#X connect 45 0 44 1;
#X connect 46 0 47 1;
#X connect 47 0 1 0;
#X connect 48 0 46 0;
#X connect 49 0 33 1;
#X connect 50 0 49 0;
#X connect 51 0 52 0;
#X connect 52 0 61 0;
#X connect 53 0 54 0;
#X connect 54 0 52 1;
#X connect 55 0 56 0;
#X connect 56 0 62 0;
#X connect 57 0 58 0;
#X connect 58 0 56 1;
#X connect 59 0 60 0;
#X connect 60 0 55 1;
#X connect 60 0 51 1;
#X connect 61 0 32 0;
#X connect 62 0 32 1;
#X connect 63 0 103 0;
#X connect 64 0 65 0;
#X connect 65 0 66 0;
#X connect 66 0 67 0;
#X connect 67 0 68 0;
#X connect 67 1 110 0;
#X connect 67 1 114 0;
#X connect 67 2 73 0;
#X connect 68 0 69 0;
#X connect 69 0 70 0;
#X connect 70 0 71 0;
#X connect 72 0 65 1;
#X connect 73 0 74 0;
#X connect 74 0 75 0;
#X connect 75 0 71 0;
#X connect 76 0 130 0;
#X connect 76 1 131 0;
#X connect 76 2 132 0;
#X connect 76 3 133 0;
#X connect 77 0 82 0;
#X connect 77 0 120 0;
#X connect 77 1 82 1;
#X connect 77 1 124 0;
#X connect 78 0 79 0;
#X connect 79 0 80 0;
#X connect 80 0 96 0;
#X connect 81 0 80 1;
#X connect 84 0 77 1;
#X connect 85 0 77 2;
#X connect 86 0 77 3;
#X connect 87 0 77 4;
#X connect 88 0 89 0;
#X connect 89 0 87 1;
#X connect 89 0 86 1;
#X connect 89 0 85 1;
#X connect 89 0 84 1;
#X connect 90 0 91 0;
#X connect 92 0 79 1;
#X connect 93 0 94 0;
#X connect 94 0 76 0;
#X connect 95 0 94 1;
#X connect 96 0 77 0;
#X connect 97 0 84 0;
#X connect 98 0 85 0;
#X connect 99 0 86 0;
#X connect 100 0 87 0;
#X connect 101 0 35 0;
#X connect 102 0 101 1;
#X connect 103 0 104 0;
#X connect 104 0 64 0;
#X connect 105 0 106 0;
#X connect 106 0 100 1;
#X connect 106 0 99 1;
#X connect 106 0 98 1;
#X connect 106 0 97 1;
#X connect 107 0 108 0;
#X connect 108 0 109 0;
#X connect 109 0 69 0;
#X connect 110 0 111 0;
#X connect 111 0 112 0;
#X connect 112 0 71 0;
#X connect 113 0 111 0;
#X connect 114 0 113 0;
#X connect 115 0 116 0;
#X connect 116 0 118 0;
#X connect 117 0 116 1;
#X connect 118 0 119 0;
#X connect 119 0 76 1;
#X connect 120 0 121 0;
#X connect 121 0 142 0;
#X connect 122 0 123 0;
#X connect 123 0 121 1;
#X connect 124 0 125 0;
#X connect 125 0 143 0;
#X connect 126 0 127 0;
#X connect 127 0 125 1;
#X connect 128 0 129 0;
#X connect 129 0 124 1;
#X connect 129 0 120 1;
#X connect 130 0 84 0;
#X connect 131 0 85 0;
#X connect 132 0 86 0;
#X connect 133 0 87 0;
#X connect 134 0 130 1;
#X connect 135 0 131 1;
#X connect 136 0 132 1;
#X connect 137 0 133 1;
#X connect 138 0 97 0;
#X connect 139 0 98 0;
#X connect 140 0 99 0;
#X connect 141 0 100 0;
#X connect 142 0 82 0;
#X connect 143 0 82 1;
