#N canvas 0 38 1512 884 12;
#X obj 1396 779 catchout~;
#X obj 1416 828 outrec~;
#X obj 26 20 tgl 19 0 empty empty empty 0 -10 0 12 #fcfcfc #000000 #000000 0 1;
#X obj 26 68 sequ;
#X obj 58 443 *~;
#X obj 26 540 dt2~;
#X obj 26 230 t b f;
#X obj 64 419 *~;
#X obj 113 395 r~ dronenoise;
#X obj 113 419 r~ drone;
#X obj 255 443 *~;
#X obj 261 419 *~;
#X obj 310 395 r~ dronenoise;
#X obj 310 419 r~ drone;
#X obj 26 786 throwout~, f 14;
#X obj 148 44 msphsl 0 1;
#X obj 148 67 ramp~;
#X obj 148 91 s~ dronenoise;
#X obj 268 44 msphsl 0 1;
#X obj 268 67 ramp~;
#X obj 268 91 s~ drone;
#X obj 58 467 bp~, f 11;
#X obj 255 467 bp~, f 11;
#X floatatom 148 115 5 0 0 0 - - - 0;
#X obj 148 138 s bp;
#X obj 198 138 s bpq;
#X obj 198 115 msphsl 0 50;
#X obj 109 444 r bp;
#X obj 159 444 r bpq;
#X obj 1396 803 compressor2~;
#X obj 26 44 metronome 400 16;
#X obj 106 162 wobble 5000 12000;
#X obj 251 139 wobble 5000 12000;
#X obj 113 491 wobble 5000 12000;
#X msg 113 515 spread \$1;
#X obj 64 395 pink~;
#X obj 261 395 pink~;
#X obj 58 371 square~;
#X obj 255 371 square~;
#X obj 311 372 wobble 5000 12000;
#X obj 114 371 wobble 5000 12000;
#X obj 392 44 pink~;
#X obj 392 68 level~;
#X obj 392 91 throw~ reverb;
#X obj 241 548 catch~ reverb;
#X obj 241 595 reverb~;
#X obj 241 764 throwout~, f 29;
#X obj 241 572 level~;
#X obj 434 20 wobble 15000 30000;
#X obj 434 44 * 0.25;
#X obj 58 254 dt2 aeolian 50;
#X obj 251 163 scaled 0 1 15 30;
#X obj 106 186 scaled 0 1 5000 12500;
#X obj 130 787 level~;
#X obj 130 810 throw~ reverb;
#X floatatom 786 40 5 0 0 0 - - - 0;
#X obj 786 87 saw~;
#X obj 786 135 level~;
#X obj 786 182 throw~ outC;
#X obj 786 63 mtof;
#X obj 786 111 vibrato~, f 20;
#X obj 923 13 wobble 5000 12000;
#X obj 923 37 * 0.1;
#X obj 854 63 wobble 5000 12000;
#X obj 854 87 * 3;
#X obj 786 158 bp~, f 47;
#X obj 949 110 wobble 5000 12000;
#X obj 1094 87 wobble 5000 12000;
#X obj 1094 111 scaled 0 1 15 30;
#X obj 949 134 scaled 0 1 5000 12500;
#X floatatom 590 40 5 0 0 0 - - - 0;
#X obj 590 87 saw~;
#X obj 590 63 mtof;
#X obj 590 111 vibrato~, f 20;
#X obj 727 13 wobble 5000 12000;
#X obj 727 37 * 0.1;
#X obj 658 63 wobble 5000 12000;
#X obj 658 87 * 3;
#X floatatom 1248 19 5 0 0 0 - - - 0;
#X obj 1248 42 mtof;
#X obj 1248 66 osc~;
#X obj 1248 90 vibrato~;
#X obj 1248 114 level~;
#X obj 1311 66 wobble 5000 12000;
#X obj 1311 90 * 0.075;
#X obj 1248 160 throw~ outC;
#X obj 1248 137 level~;
#X connect 0 0 29 0;
#X connect 0 1 29 1;
#X connect 2 0 30 0;
#X connect 3 0 6 0;
#X connect 4 0 21 0;
#X connect 5 0 14 0;
#X connect 5 0 53 0;
#X connect 5 1 14 1;
#X connect 5 1 53 0;
#X connect 6 0 5 0;
#X connect 6 1 50 0;
#X connect 7 0 4 0;
#X connect 8 0 7 1;
#X connect 9 0 4 1;
#X connect 10 0 22 0;
#X connect 11 0 10 0;
#X connect 12 0 11 1;
#X connect 13 0 10 1;
#X connect 15 0 16 0;
#X connect 16 0 17 0;
#X connect 18 0 19 0;
#X connect 19 0 20 0;
#X connect 21 0 5 1;
#X connect 22 0 5 2;
#X connect 23 0 24 0;
#X connect 26 0 25 0;
#X connect 27 0 21 1;
#X connect 27 0 22 1;
#X connect 28 0 21 2;
#X connect 28 0 22 2;
#X connect 29 0 1 0;
#X connect 29 1 1 1;
#X connect 30 0 3 0;
#X connect 31 0 52 0;
#X connect 32 0 51 0;
#X connect 33 0 34 0;
#X connect 34 0 5 3;
#X connect 35 0 7 0;
#X connect 36 0 11 0;
#X connect 37 0 4 0;
#X connect 38 0 10 0;
#X connect 39 0 38 1;
#X connect 40 0 37 1;
#X connect 41 0 42 0;
#X connect 42 0 43 0;
#X connect 44 0 47 0;
#X connect 45 0 46 0;
#X connect 45 1 46 1;
#X connect 47 0 45 0;
#X connect 48 0 49 0;
#X connect 49 0 42 1;
#X connect 50 0 37 0;
#X connect 50 1 38 0;
#X connect 51 0 26 0;
#X connect 52 0 23 0;
#X connect 53 0 54 0;
#X connect 55 0 59 0;
#X connect 56 0 60 0;
#X connect 57 0 65 0;
#X connect 59 0 56 0;
#X connect 60 0 57 0;
#X connect 61 0 62 0;
#X connect 62 0 60 2;
#X connect 63 0 64 0;
#X connect 64 0 60 1;
#X connect 65 0 58 0;
#X connect 66 0 69 0;
#X connect 67 0 68 0;
#X connect 68 0 65 2;
#X connect 69 0 65 1;
#X connect 70 0 72 0;
#X connect 71 0 73 0;
#X connect 72 0 71 0;
#X connect 73 0 57 0;
#X connect 74 0 75 0;
#X connect 75 0 73 2;
#X connect 76 0 77 0;
#X connect 77 0 73 1;
#X connect 78 0 79 0;
#X connect 79 0 80 0;
#X connect 80 0 81 0;
#X connect 81 0 82 0;
#X connect 82 0 86 0;
#X connect 83 0 84 0;
#X connect 84 0 82 1;
#X connect 86 0 85 0;
