#N canvas 0 38 1512 884 12;
#X obj 643 75 tgl 19 0 empty empty empty 0 -10 0 12 #fcfcfc #000000 #000000 0 1;
#X obj 643 123 t b b;
#X obj 675 171 sequ;
#X obj 643 333 darp aeolian 60;
#X obj 643 534 level~;
#X obj 643 767 compressor2~;
#X obj 643 791 outrec~;
#X floatatom 813 234 5 0 0 0 - - - 0;
#X obj 643 450 square~;
#X obj 643 474 filter~;
#X obj 700 450 wobble 5000 10000;
#X obj 210 508 saw~;
#X obj 210 532 level~;
#X obj 717 480 wobble 5000 10000;
#X obj 717 504 * 0.25;
#X obj 643 99 metronome 160 16;
#X obj 502 345 wobble 5000 10000;
#X obj 502 369 * 0.25;
#X obj 908 559 bp~ 8000 6;
#X obj 908 583 level~;
#X obj 908 606 echo~ 320 0.7;
#X obj 908 630 pan~ 0.7;
#X obj 376 605 level~;
#X obj 376 652 pan~ 0.3;
#X obj 376 628 echo~ 240 0.7;
#X obj 376 581 bp~ 10000 6;
#X obj 643 51 loadbang;
#X obj 210 486 *~ 2;
#X obj 44 531 level~;
#X obj 44 485 *~ 0.5;
#X obj 44 507 osc~;
#X obj 1177 134 msphsl 0 1;
#X obj 1177 157 s echo;
#X obj 995 558 r echo;
#X obj 467 580 r echo;
#X obj 785 508 loadbang;
#X msg 785 532 0.3;
#X obj 468 399 ahdsr~ 5 100 5 0.15 500;
#X obj 468 423 *~ 15000;
#X obj 750 148 loadbang;
#X msg 750 172 clockdivision 8 \, length 4 \, density 1 \, generate 1;
#X obj 1177 181 msphsl 0 1;
#X obj 1176 228 msphsl 0 1;
#X obj 1177 204 s osc;
#X obj 1176 251 s saw;
#X obj 123 497 r osc;
#X obj 297 496 r saw;
#X connect 0 0 15 0;
#X connect 1 0 3 0;
#X connect 1 0 37 0;
#X connect 1 1 2 0;
#X connect 2 0 3 1;
#X connect 2 0 7 0;
#X connect 3 0 8 0;
#X connect 3 0 27 0;
#X connect 3 0 29 0;
#X connect 4 0 5 0;
#X connect 4 0 5 1;
#X connect 4 0 18 0;
#X connect 4 0 25 0;
#X connect 5 0 6 0;
#X connect 5 1 6 1;
#X connect 8 0 9 0;
#X connect 9 0 4 0;
#X connect 10 0 8 1;
#X connect 11 0 12 0;
#X connect 12 0 9 0;
#X connect 13 0 14 0;
#X connect 14 0 9 2;
#X connect 15 0 1 0;
#X connect 16 0 17 0;
#X connect 17 0 37 4;
#X connect 18 0 19 0;
#X connect 19 0 20 0;
#X connect 20 0 21 0;
#X connect 21 0 5 0;
#X connect 21 1 5 1;
#X connect 22 0 24 0;
#X connect 23 0 5 0;
#X connect 23 1 5 1;
#X connect 24 0 23 0;
#X connect 25 0 22 0;
#X connect 26 0 0 0;
#X connect 27 0 11 0;
#X connect 28 0 9 0;
#X connect 29 0 30 0;
#X connect 30 0 28 0;
#X connect 31 0 32 0;
#X connect 33 0 19 1;
#X connect 34 0 22 1;
#X connect 35 0 36 0;
#X connect 36 0 4 1;
#X connect 37 0 38 0;
#X connect 38 0 9 1;
#X connect 39 0 40 0;
#X connect 40 0 2 1;
#X connect 41 0 43 0;
#X connect 42 0 44 0;
#X connect 45 0 28 1;
#X connect 46 0 12 1;
