#N canvas 581 38 932 884 12;
#X obj 60 121 tgl 19 0 empty empty empty 0 -10 0 12 #fcfcfc #000000 #000000 0 1;
#X obj 60 169 sequ;
#X obj 60 403 t b f;
#X obj 60 451 ahdsr~ 5 0 250 0.1 500;
#X obj 92 427 square~;
#X obj 92 499 filter~;
#X obj 60 475 *~ 12000;
#X obj 92 523 level~;
#X obj 92 546 outrec~;
#X obj 150 403 wobble 5000 12000;
#X obj 150 427 scaled 0 1 0.2 0.8;
#X obj 60 355 quantizedmode mixolydian 60;
#X obj 295 146 maestro;
#X obj 350 314 print;
#X obj 60 331 scaled 0 1 55 80;
#X obj 60 379 mtof;
#X obj 60 145 metronome 20 16;
#X obj 210 77 everyn 128;
#X connect 0 0 16 0;
#X connect 1 0 14 0;
#X connect 2 0 3 0;
#X connect 2 1 4 0;
#X connect 3 0 6 0;
#X connect 4 0 5 0;
#X connect 5 0 7 0;
#X connect 6 0 5 1;
#X connect 7 0 8 0;
#X connect 7 0 8 1;
#X connect 9 0 10 0;
#X connect 10 0 4 1;
#X connect 11 0 15 0;
#X connect 12 0 1 1;
#X connect 12 0 13 0;
#X connect 14 0 11 0;
#X connect 15 0 2 0;
#X connect 16 0 1 0;
#X connect 16 0 17 0;
#X connect 17 0 12 0;
