#N canvas 0 38 1512 884 12;
#X obj 24 7 normalizedkeyboard;
#X obj 24 53 unpack f f;
#X obj 56 129 dt2 mixolydian 60;
#X obj 24 77 spigot, f 10;
#X obj 24 302 dt2~;
#X obj 56 246 square~;
#X obj 253 246 square~;
#X obj 309 246 wobble;
#X obj 112 246 wobble;
#X obj 56 270 vibrato~ 0.9;
#X obj 253 270 vibrato~ 1.1;
#X obj 24 548 throwout~;
#X obj 1393 769 catchout~;
#X obj 1393 793 compressor2~;
#X obj 1393 817 out~;
#X obj 1001 317 * 20000;
#X msg 1001 341 cutoff \$1;
#X obj 1130 268 oneminus;
#X msg 1130 292 s \$1;
#X msg 1223 252 q \$1;
#X obj 1223 228 * 1;
#X msg 1057 105 ramp \$1;
#X obj 24 101 t b f f;
#X obj 1135 153 * 500;
#X msg 1135 177 a \$1;
#X obj 1057 81 * 200;
#X obj 500 439 catchbus~ 1;
#X obj 500 484 echo~ 250 0.7;
#X obj 600 484 echo~ 250 0.7;
#X obj 500 508 hip~ 200;
#X obj 600 508 hip~ 200;
#X obj 500 532 throwout~;
#X obj 199 566 throwbus~ 1;
#X connect 0 0 1 0;
#X connect 1 0 3 0;
#X connect 1 1 3 1;
#X connect 2 0 5 0;
#X connect 2 1 6 0;
#X connect 3 0 22 0;
#X connect 4 0 11 0;
#X connect 4 0 32 0;
#X connect 4 1 11 1;
#X connect 4 1 32 1;
#X connect 5 0 9 0;
#X connect 6 0 10 0;
#X connect 7 0 6 1;
#X connect 8 0 5 1;
#X connect 9 0 4 1;
#X connect 10 0 4 2;
#X connect 12 0 13 0;
#X connect 12 1 13 1;
#X connect 13 0 14 0;
#X connect 13 1 14 1;
#X connect 15 0 16 0;
#X connect 16 0 4 3;
#X connect 17 0 18 0;
#X connect 18 0 4 3;
#X connect 19 0 4 3;
#X connect 20 0 19 0;
#X connect 21 0 2 1;
#X connect 22 0 4 0;
#X connect 22 1 2 0;
#X connect 22 1 15 0;
#X connect 22 1 17 0;
#X connect 22 1 20 0;
#X connect 22 1 23 0;
#X connect 22 2 25 0;
#X connect 23 0 24 0;
#X connect 24 0 4 3;
#X connect 25 0 21 0;
#X connect 26 0 27 0;
#X connect 26 1 28 0;
#X connect 27 0 29 0;
#X connect 28 0 30 0;
#X connect 29 0 31 0;
#X connect 30 0 31 1;
