#N canvas 5 38 1512 884 12;
#X obj 263 327 weaver;
#X obj 25 10 tgl 19 0 empty empty empty 0 -10 0 12 #fcfcfc #000000 #000000 0 1;
#X obj 25 58 t f f, f 13;
#X obj 113 82 s beat;
#X obj 25 82 s beat-end;
#X obj 263 303 r beat-end;
#X obj 590 63 r beat;
#X obj 590 87 sequ;
#X obj 745 37 r beat;
#X obj 745 61 sequ;
#X obj 536 439 quantizedmode aeolian 60;
#X obj 536 463 mtof;
#X obj 717 540 osc~;
#X obj 791 564 level~;
#X obj 791 587 out~;
#X obj 560 590 *~;
#X floatatom 72 3 5 0 0 0 - - - 0;
#X obj 590 249 * 0.25;
#X obj 745 223 * 0.25;
#X obj 745 247 oneminus;
#X floatatom 745 271 5 0 0 0 - - - 0;
#X floatatom 590 273 5 0 0 0 - - - 0;
#X obj 536 415 scaled 0 1 45 85;
#X floatatom 661 275 5 0 0 0 - - - 0;
#X obj 25 34 metronome 50 8;
#X obj 964 217 normalizedkeyboard;
#X obj 928 338 midisequencer;
#X obj 1119 278 r beat;
#X obj 533 553 adsr~ 5 50 0.3 20;
#X obj 928 362 unpack f f;
#X floatatom 928 386 5 0 0 0 - - - 0;
#X floatatom 980 387 5 0 0 0 - - - 0;
#X connect 0 0 23 0;
#X connect 1 0 24 0;
#X connect 2 0 4 0;
#X connect 2 1 3 0;
#X connect 5 0 0 0;
#X connect 6 0 7 0;
#X connect 7 0 17 0;
#X connect 8 0 9 0;
#X connect 9 0 18 0;
#X connect 10 0 11 0;
#X connect 11 0 12 0;
#X connect 12 0 15 1;
#X connect 13 0 14 0;
#X connect 13 0 14 1;
#X connect 15 0 13 0;
#X connect 16 0 24 1;
#X connect 17 0 21 0;
#X connect 18 0 19 0;
#X connect 19 0 20 0;
#X connect 20 0 0 2;
#X connect 21 0 0 1;
#X connect 22 0 10 0;
#X connect 24 0 2 0;
#X connect 25 0 26 0;
#X connect 26 0 29 0;
#X connect 27 0 26 2;
#X connect 28 0 15 0;
#X connect 29 0 30 0;
#X connect 29 1 31 0;
#X connect 30 0 22 0;
#X connect 31 0 28 0;
