#N canvas 0 38 1512 916 12;
#X obj 555 213 quantizedmode ionian 60;
#X obj 555 261 osc~;
#X obj 665 359 level~;
#X obj 555 237 mtof;
#X obj 780 261 square~ 0.02;
#X obj 951 213 scaled 0 1 0.01 0.05;
#X obj 808 488 throwbusc~ 1;
#X obj 666 488 throwoutc~;
#X obj 627 689 catchout~;
#X obj 1163 543 catchbus~ 1;
#X obj 1163 612 throwout~;
#X obj 951 189 wobble 8000 15000;
#X obj 555 189 scaled 0 1 27 80;
#X obj 1163 588 pingpong~ 200 0.75;
#X obj 17 13 tgl 19 0 empty empty empty 0 -10 0 12 #fcfcfc #000000 #000000 0 1;
#X obj 105 85 s beat;
#X obj 17 61 t f f, f 13;
#X obj 17 85 s beat-end;
#X obj 144 437 weaver;
#X obj 502 164 t b f, f 8;
#X obj 429 413 wobble;
#X msg 429 437 balance \$1;
#X obj 429 461 spigot;
#X obj 480 461 tgl 19 0 empty empty empty 0 -10 0 12 #fcfcfc #000000 #000000 0 1;
#X obj 627 731 compressor2~;
#X obj 668 777 outrec~;
#X obj 1193 81 r beat;
#X msg 1193 225 velocity 1;
#X obj 1193 249 hh~;
#X obj 1147 443 throwoutc~;
#X obj 1193 201 t b b;
#X obj 1322 114 easeinsine;
#X obj 1322 90 line;
#X msg 1322 162 pitch \$1;
#X obj 1322 138 scaled 0 1 0.25 0;
#X obj 1392 37 wobble;
#X msg 1392 85 to-low \$1;
#X obj 1392 61 scaled 0 1 0.15 0.5;
#X msg 1322 66 0 \, 1 \$1;
#X obj 947 81 randrange 140 500;
#X obj 1295 442 throwbusc~ 1;
#X obj 1193 382 softclip~;
#X obj 1193 105 - 1;
#X obj 1193 153 sel 0;
#X obj 1193 177 bng 19 250 50 0 empty empty empty 0 -10 0 12 #fcfcfc #000000 #000000;
#X obj 41 164 normalizedkeyboard;
#X obj 41 209 midisequencer;
#X obj 41 292 noteons;
#X obj 147 185 r beat;
#X obj 933 732 liner;
#X obj 924 696 bng 19 250 50 0 empty empty empty 0 -10 0 12 #fcfcfc #000000 #000000;
#X obj 988 815 msphsl 0 1;
#X obj 667 457 filter~;
#X obj 759 428 sig~;
#X obj 608 285 pow~ 1;
#X text 953 699 TODO: Add easing \, switch from and to to 0...1 \, and add scaling settings instead that default to 0 and 1;
#X obj 1193 352 level~;
#X obj 1064 780 bng 19 250 50 0 empty empty empty 0 -10 0 12 #fcfcfc #000000 #000000;
#X obj 1193 129 % 16;
#X floatatom 76 9 5 0 0 0 - - - 0;
#X obj 46 401 r beat-end;
#X obj 46 425 t f f;
#X obj 953 320 saw~;
#X obj 935 270 * 2.01;
#X obj 953 344 vibrato~;
#X obj 953 368 level~;
#X obj 608 261 ahdsr~ 5 0 5 0.4 200;
#X obj 17 37 metronome 50 64;
#X obj 665 382 level~;
#X obj 820 417 loadbang;
#X msg 820 441 0.1;
#X obj 270 81 r beat;
#X obj 270 153 sequ;
#X obj 270 105 % 8;
#X obj 270 129 sel 0;
#X obj 354 126 bng 19 250 50 0 empty empty empty 0 -10 0 12 #fcfcfc #000000 #000000;
#X obj 389 610 sig~;
#X obj 608 309 *~;
#X obj 392 511 wobble;
#X obj 387 573 *;
#X obj 392 535 scaled 0 1 4000 24000;
#X connect 0 0 3 0;
#X connect 1 0 2 0;
#X connect 2 0 68 0;
#X connect 3 0 1 0;
#X connect 3 0 4 0;
#X connect 3 0 63 0;
#X connect 4 0 2 0;
#X connect 5 0 4 1;
#X connect 8 0 24 0;
#X connect 8 1 24 1;
#X connect 9 0 13 0;
#X connect 11 0 5 0;
#X connect 12 0 0 0;
#X connect 13 0 10 0;
#X connect 13 1 10 1;
#X connect 14 0 67 0;
#X connect 16 0 17 0;
#X connect 16 1 15 0;
#X connect 18 0 19 0;
#X connect 18 1 79 0;
#X connect 19 0 66 0;
#X connect 19 1 12 0;
#X connect 20 0 21 0;
#X connect 21 0 22 0;
#X connect 22 0 18 3;
#X connect 23 0 22 1;
#X connect 24 0 25 0;
#X connect 24 1 25 1;
#X connect 26 0 42 0;
#X connect 27 0 28 0;
#X connect 28 0 56 0;
#X connect 30 0 27 0;
#X connect 30 1 39 0;
#X connect 31 0 34 0;
#X connect 32 0 31 0;
#X connect 33 0 28 0;
#X connect 34 0 33 0;
#X connect 35 0 37 0;
#X connect 36 0 34 1;
#X connect 37 0 36 0;
#X connect 38 0 32 0;
#X connect 39 0 38 0;
#X connect 41 0 29 0;
#X connect 41 0 40 0;
#X connect 42 0 58 0;
#X connect 43 0 44 0;
#X connect 44 0 30 0;
#X connect 45 0 46 0;
#X connect 46 0 47 0;
#X connect 47 0 18 1;
#X connect 48 0 46 1;
#X connect 49 0 51 0;
#X connect 49 1 57 0;
#X connect 50 0 49 0;
#X connect 52 0 7 0;
#X connect 52 0 6 0;
#X connect 53 0 52 2;
#X connect 54 0 77 0;
#X connect 56 0 41 0;
#X connect 58 0 43 0;
#X connect 59 0 67 1;
#X connect 60 0 61 0;
#X connect 61 1 18 0;
#X connect 62 0 64 0;
#X connect 63 0 62 0;
#X connect 64 0 65 0;
#X connect 65 0 2 0;
#X connect 66 0 54 0;
#X connect 67 0 16 0;
#X connect 68 0 52 0;
#X connect 69 0 70 0;
#X connect 70 0 53 0;
#X connect 71 0 73 0;
#X connect 72 0 18 2;
#X connect 73 0 74 0;
#X connect 74 0 72 0;
#X connect 74 0 75 0;
#X connect 76 0 77 1;
#X connect 77 0 52 1;
#X connect 78 0 80 0;
#X connect 79 0 76 0;
#X connect 80 0 79 1;
