#N canvas 0 38 1512 884 12;
#X obj 16 18 tgl 19 0 empty empty empty 0 -10 0 12 #fcfcfc #000000 #000000 0 1;
#X obj 16 66 s tick;
#X obj 195 37 r tick;
#X obj 195 61 sequ;
#X obj 156 248 dt4 phrygian 60;
#X obj 128 500 dt4~;
#X obj 55 233 t b f;
#X obj 136 753 throwout~;
#X obj 1334 752 catchout~;
#X obj 1355 795 compressor2~;
#X obj 1355 819 outrec~;
#X obj 137 810 throwbus~ 1;
#X obj 1333 589 catchbus~ 1;
#X obj 1333 695 throwout~;
#X obj 91 409 vibrato~ 1.1;
#X obj 173 402 vibrato~ 1;
#X obj 249 404 vibrato~ 0.9;
#X obj 346 414 vibrato~ 0.8;
#X obj 1178 12 r tick;
#X obj 1092 110 onbeats 1 5 9 13;
#X msg 1092 134 velocity 1;
#X obj 1092 158 kick~;
#X obj 1093 404 throwoutc~;
#X obj 1092 323 wavefolder~;
#X obj 835 42 r tick;
#X msg 835 90 velocity 1;
#X obj 835 66 onbeats 3 7 11 15;
#X obj 835 114 hh~;
#X obj 830 218 throwoutc~;
#X obj 1226 88 maybe 0.2;
#X obj 1226 66 onbeats 2 3 4 6 7 8 11 12 14 15;
#X msg 1226 131 velocity 0.6;
#N canvas 121 159 450 300 ticks 0;
#X obj 101 64 r tick;
#X obj 110 210 s tick2;
#X obj 121 116 del 70;
#X obj 124 165 bng 19 250 50 0 empty empty empty 0 -10 0 12 #fcfcfc #000000 #000000;
#X obj 101 88 t b b;
#X obj 230 158 bng 19 250 50 0 empty empty empty 0 -10 0 12 #fcfcfc #000000 #000000;
#X obj 207 81 t b b;
#X obj 206 57 r tick2;
#X obj 216 203 s tick3;
#X obj 227 109 del 35;
#X connect 0 0 4 0;
#X connect 2 0 3 0;
#X connect 3 0 1 0;
#X connect 4 0 3 0;
#X connect 4 1 2 0;
#X connect 5 0 8 0;
#X connect 6 0 5 0;
#X connect 6 1 9 0;
#X connect 7 0 6 0;
#X connect 9 0 5 0;
#X restore 66 66 pd ticks;
#X obj 16 42 metronome 140 16;
#X obj 528 273 quantizedmode phrygian 60;
#X obj 528 326 osc~;
#X obj 528 425 softclip~;
#X obj 530 583 throwoutc~;
#X obj 528 297 mtof;
#X obj 528 87 sequ;
#X obj 616 316 t b f;
#X obj 728 345 sig~;
#X obj 616 367 ahdsr~ 5 0 50 0.3 100;
#X obj 528 63 r tick;
#X obj 531 553 filter~;
#X obj 809 307 msphsl 0 1;
#X obj 811 373 ramp~;
#X obj 529 469 wavefolder~;
#X obj 528 350 vibrato~;
#X obj 382 275 square~;
#X obj 381 249 *~ 0.5;
#X obj 382 299 level~;
#X obj 809 330 t f f;
#X obj 785 543 ramp~;
#X obj 785 567 *~;
#X obj 785 519 scaled 0 0.5 1 2;
#X obj 960 447 r tick;
#X msg 977 536 velocity 1;
#X obj 977 560 snare~;
#X obj 977 717 throwoutc~;
#X obj 91 385 square~;
#X obj 173 378 square~;
#X obj 249 380 square~;
#X obj 346 390 square~;
#X obj 18 304 wobble;
#X obj 28 314 wobble;
#X obj 38 324 wobble;
#X obj 48 334 wobble;
#X obj 1333 664 pingpong~ 50 0.9;
#X obj 1333 634 hip~ 500;
#X obj 23 410 osc~;
#X obj 23 457 level~;
#X obj 382 479 osc~;
#X obj 451 479 osc~;
#X obj 468 539 osc~;
#X obj 382 655 msphsl 0 1;
#X obj 382 503 level~;
#X obj 468 563 level~;
#X obj 456 484 level~;
#X obj 18 388 *~ 0.5;
#X obj 377 458 *~ 0.5;
#X obj 446 458 *~ 0.5;
#X obj 463 518 *~ 0.5;
#X obj 528 249 scaled 0 1 30 65;
#X obj 616 391 *~ 15000;
#X obj 960 471 onbeats 5 13;
#X obj 261 449 noiseosc~;
#X connect 0 0 33 0;
#X connect 2 0 3 0;
#X connect 3 0 6 0;
#X connect 4 0 60 0;
#X connect 4 0 79 0;
#X connect 4 1 61 0;
#X connect 4 1 80 0;
#X connect 4 2 62 0;
#X connect 4 2 81 0;
#X connect 4 2 86 0;
#X connect 4 3 63 0;
#X connect 4 3 82 0;
#X connect 5 0 7 0;
#X connect 5 1 7 1;
#X connect 6 0 5 0;
#X connect 6 1 4 0;
#X connect 7 0 11 0;
#X connect 7 1 11 1;
#X connect 8 0 9 0;
#X connect 8 1 9 1;
#X connect 9 0 10 0;
#X connect 9 1 10 1;
#X connect 12 0 69 0;
#X connect 12 1 69 0;
#X connect 14 0 5 1;
#X connect 15 0 5 2;
#X connect 16 0 5 3;
#X connect 17 0 5 4;
#X connect 18 0 19 0;
#X connect 18 0 30 0;
#X connect 19 0 20 0;
#X connect 20 0 21 0;
#X connect 21 0 23 0;
#X connect 23 0 22 0;
#X connect 24 0 26 0;
#X connect 25 0 27 0;
#X connect 26 0 25 0;
#X connect 27 0 28 0;
#X connect 29 0 31 0;
#X connect 30 0 29 0;
#X connect 31 0 21 0;
#X connect 33 0 1 0;
#X connect 34 0 38 0;
#X connect 35 0 48 0;
#X connect 36 0 47 0;
#X connect 38 0 40 0;
#X connect 39 0 83 0;
#X connect 40 0 42 0;
#X connect 40 1 41 0;
#X connect 41 0 35 0;
#X connect 41 0 50 0;
#X connect 42 0 84 0;
#X connect 43 0 39 0;
#X connect 44 0 54 1;
#X connect 45 0 52 0;
#X connect 46 0 44 2;
#X connect 47 0 44 0;
#X connect 48 0 36 0;
#X connect 49 0 51 0;
#X connect 50 0 49 0;
#X connect 51 0 47 0;
#X connect 52 0 46 0;
#X connect 52 1 55 0;
#X connect 53 0 54 0;
#X connect 54 0 37 0;
#X connect 55 0 53 0;
#X connect 56 0 85 0;
#X connect 57 0 58 0;
#X connect 58 0 59 0;
#X connect 60 0 14 0;
#X connect 61 0 15 0;
#X connect 62 0 16 0;
#X connect 63 0 17 0;
#X connect 64 0 60 1;
#X connect 65 0 61 1;
#X connect 66 0 62 1;
#X connect 67 0 63 1;
#X connect 68 0 13 0;
#X connect 68 1 13 1;
#X connect 69 0 68 0;
#X connect 70 0 71 0;
#X connect 71 0 5 1;
#X connect 72 0 76 0;
#X connect 73 0 78 0;
#X connect 74 0 77 0;
#X connect 75 0 71 1;
#X connect 75 0 77 1;
#X connect 75 0 78 1;
#X connect 75 0 76 1;
#X connect 76 0 5 2;
#X connect 77 0 5 4;
#X connect 78 0 5 3;
#X connect 79 0 70 0;
#X connect 80 0 72 0;
#X connect 81 0 73 0;
#X connect 82 0 74 0;
#X connect 83 0 34 0;
#X connect 84 0 44 1;
#X connect 85 0 57 0;
#X connect 86 0 5 3;
