#N canvas 309 188 939 432 12;
#X obj 92 341 out~;
#X msg 132 364 1;
#X obj 92 316 *~ 1;
#X obj 68 14 tgl 15 0 empty empty empty 17 7 0 10 -262144 -1 -1 1 1
;
#X obj 147 93 ahdsr~ 2 0 80 0.2 20;
#X obj 92 93 noise~;
#X obj 92 117 *~;
#X obj 7 140 *~;
#X obj 242 258 osc~;
#X obj 216 289 *~;
#X obj 6 117 osc~ 55;
#X obj 118 56 t b b;
#X obj 118 8 metronome 200 16;
#X obj 118 32 onbeats 1 5 7 11 15;
#X obj 312 261 line~;
#X msg 312 238 \$1 5;
#X obj 294 195 hsl 40 15 1 50 0 0 empty empty empty -2 -8 0 10 -262144
-1 -1 0 1;
#X obj 242 199 *;
#X obj 243 160 ahdsr 20 0 200 0.5 600;
#X obj 216 337 vfreeverb~ 0.1 0.3 0 1;
#X obj 216 313 clip~ -0.1 0.1;
#X obj 216 361 lop~ 50;
#X obj 216 385 hip~ 5;
#X obj 132 338 loadbang;
#X obj 2 14 loadbang;
#X obj 92 141 vcf~ 4, f 16;
#X obj 147 117 *~ 200;
#X obj 411 22 onbeats 15 16;
#X obj 411 46 maybe 0.4;
#X obj 411 70 snare~ 200 0.4 240;
#X obj 411 94 vfreeverb~ 0.1 0.8 0.8 0.1;
#X obj 411 118 *~ 0.4;
#X obj 597 139 unpack f f f f, f 28;
#X obj 597 165 mtof;
#X obj 661 165 mtof;
#X obj 725 165 mtof;
#X obj 790 165 mtof;
#X obj 597 213 vfreeverb~ 0.2 0.3 0.6 0.2;
#X obj 597 237 hip~ 200;
#X obj 597 261 *~ 0.1;
#X obj 661 189 phasor~;
#X obj 597 67 onbeats 1 9 13;
#X obj 597 309 vibrato~ 0.1 4;
#X obj 490 342 *~;
#X obj 597 285 clip~ -0.3 0.3;
#X obj 597 189 osc~;
#X obj 725 189 square~ 0.4;
#X obj 790 189 square~ 0.2;
#X obj 439 161 echo~ 100 0.4;
#X obj 516 250 osc~;
#X obj 516 225 / 2;
#X obj 516 274 hip~ 200;
#X obj 418 216 *~ 2000;
#X obj 439 256 vcf~ 1;
#X obj 418 191 ahdsr~ 5 0 500 0.3 500;
#X obj 597 91 16step 1 5 4;
#X obj 579 341 vcf~ 4;
#X obj 652 343 scaled~ 0 1 1000 4000;
#X obj 597 115 chord aeolian 60;
#X obj 736 245 phasor~;
#X obj 736 269 *~ 0.3;
#X obj 242 234 + 48;
#X connect 1 0 0 2;
#X connect 2 0 0 0;
#X connect 2 0 0 1;
#X connect 3 0 12 0;
#X connect 4 0 6 1;
#X connect 4 0 7 1;
#X connect 4 0 26 0;
#X connect 5 0 6 0;
#X connect 6 0 25 0;
#X connect 7 0 25 0;
#X connect 8 0 9 0;
#X connect 9 0 2 0;
#X connect 9 0 20 0;
#X connect 10 0 7 0;
#X connect 11 0 4 0;
#X connect 11 1 18 0;
#X connect 12 0 13 0;
#X connect 12 0 27 0;
#X connect 12 0 41 0;
#X connect 13 0 11 0;
#X connect 14 0 9 1;
#X connect 14 0 43 1;
#X connect 15 0 14 0;
#X connect 16 0 17 1;
#X connect 17 0 61 0;
#X connect 18 0 15 0;
#X connect 18 0 17 0;
#X connect 18 0 57 0;
#X connect 19 0 21 0;
#X connect 20 0 19 0;
#X connect 21 0 22 0;
#X connect 22 0 2 0;
#X connect 23 0 1 0;
#X connect 24 0 3 0;
#X connect 25 1 2 0;
#X connect 26 0 25 1;
#X connect 27 0 28 0;
#X connect 28 0 54 0;
#X connect 28 0 29 0;
#X connect 29 0 30 0;
#X connect 30 0 31 0;
#X connect 31 0 48 0;
#X connect 32 0 33 0;
#X connect 32 1 34 0;
#X connect 32 2 35 0;
#X connect 32 3 36 0;
#X connect 33 0 45 0;
#X connect 33 0 50 0;
#X connect 33 0 59 0;
#X connect 34 0 40 0;
#X connect 35 0 46 0;
#X connect 36 0 47 0;
#X connect 37 0 38 0;
#X connect 38 0 39 0;
#X connect 39 0 44 0;
#X connect 40 0 37 0;
#X connect 41 0 55 0;
#X connect 42 0 56 0;
#X connect 43 0 2 0;
#X connect 44 0 42 0;
#X connect 45 0 37 0;
#X connect 46 0 37 0;
#X connect 47 0 37 0;
#X connect 48 0 53 0;
#X connect 49 0 51 0;
#X connect 50 0 49 0;
#X connect 51 0 42 0;
#X connect 52 0 53 1;
#X connect 53 0 2 0;
#X connect 54 0 52 0;
#X connect 55 0 58 0;
#X connect 56 0 43 0;
#X connect 57 0 56 1;
#X connect 58 0 32 0;
#X connect 59 0 60 0;
#X connect 60 0 38 0;
#X connect 60 0 48 0;
#X connect 61 0 8 0;
