#N canvas 1067 174 450 597 12;
#X obj 43 257 markov 0.001 10 20 30 40 50 60 70 80 90;
#X obj 43 173 quantized 0.001 10 20 30 40 50 60 70 80 90;
#X msg 166 217 clear;
#X obj 43 144 f;
#X obj 43 95 bng 15 250 50 0 empty empty empty 17 7 0 10 -262144 -1
-1;
#X floatatom 61 120 5 0 0 0 - - -;
#X obj 43 5 tgl 15 0 empty empty empty 17 7 0 10 -262144 -1 -1 0 1
;
#X obj 43 71 metronome 500 8;
#X obj 191 26 sel 0;
#X obj 191 71 metronome 500 8;
#X obj 191 95 bng 15 250 50 0 empty empty empty 17 7 0 10 -262144 -1
-1;
#X msg 43 281 \$1 200;
#X obj 43 305 line;
#X floatatom 43 329 5 0 0 0 - - -;
#X msg 223 49 0;
#X obj 43 352 scaled 0 90 60 72;
#X floatatom 43 376 5 0 0 0 - - -;
#X obj 43 399 quantized 60 62 64 65 67 69 71 72;
#X floatatom 43 423 5 0 0 0 - - -;
#X obj 43 446 mtof;
#X floatatom 43 470 5 0 0 0 - - -;
#X obj 43 493 osc~;
#X obj 43 517 out~;
#X msg 118 519 1;
#X connect 0 0 11 0;
#X connect 1 0 0 0;
#X connect 2 0 0 0;
#X connect 3 0 1 0;
#X connect 4 0 3 0;
#X connect 5 0 3 1;
#X connect 6 0 7 0;
#X connect 6 0 8 0;
#X connect 7 0 4 0;
#X connect 8 0 9 0;
#X connect 8 1 14 0;
#X connect 9 0 10 0;
#X connect 10 0 0 0;
#X connect 11 0 12 0;
#X connect 12 0 13 0;
#X connect 13 0 15 0;
#X connect 14 0 9 0;
#X connect 15 0 16 0;
#X connect 16 0 17 0;
#X connect 17 0 18 0;
#X connect 18 0 19 0;
#X connect 19 0 20 0;
#X connect 20 0 21 0;
#X connect 21 0 22 0;
#X connect 21 0 22 1;
#X connect 23 0 22 2;
