#N canvas 645 103 519 641 12;
#X msg 24 37 60;
#X msg 64 37 62;
#X msg 104 37 64;
#X msg 144 37 65;
#X msg 24 67 67;
#X msg 64 67 69;
#X msg 104 67 71;
#X msg 144 67 72;
#X obj 24 234 markov 60 62 64 65 67 69 71 72;
#X obj 233 24 tgl 15 0 empty empty empty 17 7 0 10 -262144 -1 -1 0
1;
#X msg 183 68 clear;
#X obj 134 282 ahdsr~ 5 0 80 0.6 400;
#X obj 24 282 mtof;
#X obj 24 330 *~, f 5;
#X obj 24 564 out~;
#X obj 233 99 bng 15 250 50 0 empty empty empty 17 7 0 10 -262144 -1
-1;
#X obj 233 143 bng 15 250 50 0 empty empty empty 17 7 0 10 -262144
-1 -1;
#X obj 24 533 *~ 1;
#X obj 24 258 t f b b, f 28;
#X obj 24 434 vcf~ 4, f 56;
#X obj 218 318 ahdsr~ 20 0 200 0.4 10;
#X obj 24 354 vibrato~ 1 1;
#X obj 24 306 phasor~;
#X obj 84 404 osc~;
#X obj 84 381 *~ 0.501;
#X obj 54 482 vibrato~ 1 2;
#X obj 218 342 scaled~ 0 1 300 1200;
#X obj 54 458 echo~ 5 0.5;
#X obj 425 118 bng 15 250 50 0 empty empty empty 17 7 0 10 -262144
-1 -1;
#X obj 233 69 t b f;
#X obj 335 75 onbeats 1, f 22;
#X obj 425 138 t b b;
#X obj 233 193 spigot;
#X msg 316 171 0;
#X obj 233 163 t b b;
#X msg 427 219 1;
#X obj 233 119 maybe 0.8;
#X msg 425 168 set 72;
#X obj 233 45 metronome 350 16;
#X obj 335 99 maybe 0.5;
#X connect 0 0 8 0;
#X connect 1 0 8 0;
#X connect 2 0 8 0;
#X connect 3 0 8 0;
#X connect 4 0 8 0;
#X connect 5 0 8 0;
#X connect 6 0 8 0;
#X connect 7 0 8 0;
#X connect 8 0 18 0;
#X connect 9 0 38 0;
#X connect 10 0 8 0;
#X connect 11 0 13 1;
#X connect 12 0 22 0;
#X connect 12 0 24 0;
#X connect 13 0 21 0;
#X connect 15 0 36 0;
#X connect 16 0 34 0;
#X connect 17 0 14 0;
#X connect 17 0 14 1;
#X connect 18 0 12 0;
#X connect 18 1 11 0;
#X connect 18 2 20 0;
#X connect 19 0 17 0;
#X connect 19 0 27 0;
#X connect 20 0 26 0;
#X connect 21 0 19 0;
#X connect 22 0 13 0;
#X connect 23 0 13 0;
#X connect 24 0 23 0;
#X connect 25 0 17 0;
#X connect 26 0 19 1;
#X connect 27 0 25 0;
#X connect 28 0 31 0;
#X connect 29 0 15 0;
#X connect 30 0 39 0;
#X connect 31 0 37 0;
#X connect 31 1 33 0;
#X connect 32 0 8 0;
#X connect 33 0 32 1;
#X connect 34 0 35 0;
#X connect 34 1 32 0;
#X connect 35 0 32 1;
#X connect 36 0 16 0;
#X connect 37 0 8 0;
#X connect 38 0 29 0;
#X connect 39 0 28 0;
