#N canvas 268 23 940 697 12;
#X msg 24 37 60;
#X msg 64 37 62;
#X msg 104 37 64;
#X msg 144 37 65;
#X msg 24 67 67;
#X msg 64 67 69;
#X msg 104 67 71;
#X msg 144 67 72;
#X obj 24 194 markov 60 62 64 65 67 69 71 72;
#X obj 403 24 tgl 15 0 empty empty empty 17 7 0 10 -262144 -1 -1 0
1;
#X msg 62 167 clear;
#X obj 134 242 ahdsr~ 5 0 80 0.6 400;
#X obj 24 242 mtof;
#X obj 24 290 *~, f 5;
#X obj 24 524 out~;
#X msg 101 535 1;
#X obj 24 493 *~ 1;
#X obj 24 218 t f b b, f 18;
#X obj 24 394 vcf~ 4, f 31;
#X obj 148 278 ahdsr~ 20 0 200 0.4 10;
#X obj 24 314 vibrato~ 1 1;
#X obj 24 266 phasor~;
#X obj 84 364 osc~;
#X obj 84 341 *~ 0.501;
#X obj 54 442 vibrato~ 1 2;
#X obj 148 302 scaled~ 0 1 300 1200;
#X obj 54 418 echo~ 5 0.5;
#X obj 403 149 sel 1 2 3 4 5 6 7 8, f 33;
#X obj 403 173 bng 15 250 50 0 empty empty empty 17 7 0 10 -262144
-1 -1;
#X obj 431 173 bng 15 250 50 0 empty empty empty 17 7 0 10 -262144
-1 -1;
#X obj 460 173 bng 15 250 50 0 empty empty empty 17 7 0 10 -262144
-1 -1;
#X obj 488 173 bng 15 250 50 0 empty empty empty 17 7 0 10 -262144
-1 -1;
#X obj 517 173 bng 15 250 50 0 empty empty empty 17 7 0 10 -262144
-1 -1;
#X obj 545 173 bng 15 250 50 0 empty empty empty 17 7 0 10 -262144
-1 -1;
#X obj 574 173 bng 15 250 50 0 empty empty empty 17 7 0 10 -262144
-1 -1;
#X obj 602 173 bng 15 250 50 0 empty empty empty 17 7 0 10 -262144
-1 -1;
#X obj 403 199 f;
#X obj 433 199 f;
#X obj 463 199 f;
#X obj 493 199 f;
#X obj 523 199 f;
#X obj 553 199 f;
#X obj 583 199 f;
#X obj 613 199 f;
#X obj 24 105 t f b b;
#X msg 70 131 1;
#X obj 403 223 t b f;
#X msg 403 247 0;
#X obj 402 380 shuffledcollection;
#X obj 433 293 t b f;
#X msg 433 317 0;
#X obj 432 470 shuffledcollection;
#X obj 463 223 t b f;
#X msg 463 247 0;
#X obj 462 400 shuffledcollection;
#X obj 493 293 t b f;
#X msg 493 317 0;
#X obj 492 490 shuffledcollection;
#X obj 523 223 t b f;
#X msg 523 247 0;
#X obj 522 420 shuffledcollection;
#X obj 553 293 t b f;
#X msg 553 317 0;
#X obj 552 510 shuffledcollection;
#X obj 583 223 t b f;
#X msg 583 247 0;
#X obj 582 440 shuffledcollection;
#X obj 613 293 t b f;
#X msg 613 317 0;
#X obj 612 530 shuffledcollection;
#X obj 402 579 == 1;
#X obj 402 603 sel 1;
#X obj 403 99 moses, f 30;
#X msg 640 14 200;
#X msg 610 14 0;
#X obj 653 149 sel 1 2 3 4 5 6 7 8, f 33;
#X obj 653 173 bng 15 250 50 0 empty empty empty 17 7 0 10 -262144
-1 -1;
#X obj 681 173 bng 15 250 50 0 empty empty empty 17 7 0 10 -262144
-1 -1;
#X obj 710 173 bng 15 250 50 0 empty empty empty 17 7 0 10 -262144
-1 -1;
#X obj 738 173 bng 15 250 50 0 empty empty empty 17 7 0 10 -262144
-1 -1;
#X obj 767 173 bng 15 250 50 0 empty empty empty 17 7 0 10 -262144
-1 -1;
#X obj 795 173 bng 15 250 50 0 empty empty empty 17 7 0 10 -262144
-1 -1;
#X obj 824 173 bng 15 250 50 0 empty empty empty 17 7 0 10 -262144
-1 -1;
#X obj 852 173 bng 15 250 50 0 empty empty empty 17 7 0 10 -262144
-1 -1;
#X obj 402 627 bng 15 250 50 0 empty empty empty 17 7 0 10 -262144
-1 -1;
#X floatatom 610 49 5 0 0 0 - - -;
#X floatatom 403 69 5 0 0 0 - - -;
#X obj 403 45 metronome 1000 8;
#X connect 0 0 44 0;
#X connect 1 0 44 0;
#X connect 2 0 44 0;
#X connect 3 0 44 0;
#X connect 4 0 44 0;
#X connect 5 0 44 0;
#X connect 6 0 44 0;
#X connect 7 0 44 0;
#X connect 8 0 17 0;
#X connect 9 0 87 0;
#X connect 10 0 8 0;
#X connect 11 0 13 1;
#X connect 12 0 21 0;
#X connect 12 0 23 0;
#X connect 13 0 20 0;
#X connect 15 0 14 2;
#X connect 16 0 14 0;
#X connect 16 0 14 1;
#X connect 17 0 12 0;
#X connect 17 1 11 0;
#X connect 17 2 19 0;
#X connect 18 0 16 0;
#X connect 18 0 26 0;
#X connect 19 0 25 0;
#X connect 20 0 18 0;
#X connect 21 0 13 0;
#X connect 22 0 13 0;
#X connect 23 0 22 0;
#X connect 24 0 16 0;
#X connect 25 0 18 1;
#X connect 26 0 24 0;
#X connect 27 0 28 0;
#X connect 27 1 29 0;
#X connect 27 2 30 0;
#X connect 27 3 31 0;
#X connect 27 4 32 0;
#X connect 27 5 33 0;
#X connect 27 6 34 0;
#X connect 27 7 35 0;
#X connect 28 0 36 0;
#X connect 29 0 37 0;
#X connect 30 0 38 0;
#X connect 31 0 39 0;
#X connect 32 0 40 0;
#X connect 33 0 41 0;
#X connect 34 0 42 0;
#X connect 35 0 43 0;
#X connect 36 0 46 0;
#X connect 37 0 49 0;
#X connect 38 0 52 0;
#X connect 39 0 55 0;
#X connect 40 0 58 0;
#X connect 41 0 61 0;
#X connect 42 0 64 0;
#X connect 43 0 67 0;
#X connect 44 0 8 0;
#X connect 44 2 45 0;
#X connect 45 0 36 1;
#X connect 45 0 43 1;
#X connect 45 0 42 1;
#X connect 45 0 41 1;
#X connect 45 0 40 1;
#X connect 45 0 39 1;
#X connect 45 0 38 1;
#X connect 45 0 37 1;
#X connect 46 0 47 0;
#X connect 46 1 48 0;
#X connect 47 0 36 1;
#X connect 47 0 37 1;
#X connect 47 0 38 1;
#X connect 47 0 39 1;
#X connect 47 0 40 1;
#X connect 47 0 41 1;
#X connect 47 0 42 1;
#X connect 47 0 43 1;
#X connect 48 0 70 0;
#X connect 49 0 50 0;
#X connect 49 1 51 0;
#X connect 50 0 37 1;
#X connect 50 0 38 1;
#X connect 50 0 39 1;
#X connect 50 0 40 1;
#X connect 50 0 41 1;
#X connect 50 0 42 1;
#X connect 50 0 43 1;
#X connect 50 0 36 1;
#X connect 51 0 70 0;
#X connect 52 0 53 0;
#X connect 52 1 54 0;
#X connect 53 0 38 1;
#X connect 53 0 37 1;
#X connect 53 0 39 1;
#X connect 53 0 40 1;
#X connect 53 0 41 1;
#X connect 53 0 42 1;
#X connect 53 0 43 1;
#X connect 53 0 36 1;
#X connect 54 0 70 0;
#X connect 55 0 56 0;
#X connect 55 1 57 0;
#X connect 56 0 39 1;
#X connect 56 0 37 1;
#X connect 56 0 38 1;
#X connect 56 0 40 1;
#X connect 56 0 41 1;
#X connect 56 0 42 1;
#X connect 56 0 43 1;
#X connect 56 0 36 1;
#X connect 57 0 70 0;
#X connect 58 0 59 0;
#X connect 58 1 60 0;
#X connect 59 0 40 1;
#X connect 59 0 37 1;
#X connect 59 0 38 1;
#X connect 59 0 39 1;
#X connect 59 0 41 1;
#X connect 59 0 42 1;
#X connect 59 0 43 1;
#X connect 59 0 36 1;
#X connect 60 0 70 0;
#X connect 61 0 62 0;
#X connect 61 1 63 0;
#X connect 62 0 41 1;
#X connect 62 0 37 1;
#X connect 62 0 38 1;
#X connect 62 0 39 1;
#X connect 62 0 40 1;
#X connect 62 0 42 1;
#X connect 62 0 43 1;
#X connect 62 0 36 1;
#X connect 63 0 70 0;
#X connect 64 0 65 0;
#X connect 64 1 66 0;
#X connect 65 0 42 1;
#X connect 65 0 37 1;
#X connect 65 0 38 1;
#X connect 65 0 39 1;
#X connect 65 0 40 1;
#X connect 65 0 41 1;
#X connect 65 0 43 1;
#X connect 65 0 36 1;
#X connect 66 0 70 0;
#X connect 67 0 68 0;
#X connect 67 1 69 0;
#X connect 68 0 43 1;
#X connect 68 0 37 1;
#X connect 68 0 38 1;
#X connect 68 0 39 1;
#X connect 68 0 40 1;
#X connect 68 0 41 1;
#X connect 68 0 42 1;
#X connect 68 0 36 1;
#X connect 69 0 70 0;
#X connect 70 0 71 0;
#X connect 71 0 84 0;
#X connect 72 0 75 0;
#X connect 72 1 27 0;
#X connect 73 0 85 0;
#X connect 74 0 85 0;
#X connect 75 0 76 0;
#X connect 75 1 77 0;
#X connect 75 2 78 0;
#X connect 75 3 79 0;
#X connect 75 4 80 0;
#X connect 75 5 81 0;
#X connect 75 6 82 0;
#X connect 75 7 83 0;
#X connect 76 0 48 1;
#X connect 77 0 54 1;
#X connect 78 0 60 1;
#X connect 79 0 66 1;
#X connect 80 0 51 1;
#X connect 81 0 57 1;
#X connect 82 0 63 1;
#X connect 83 0 69 1;
#X connect 84 0 8 0;
#X connect 85 0 72 1;
#X connect 86 0 72 0;
#X connect 87 0 86 0;
