#N canvas 144 23 1136 744 12;
#X msg 16 11 57;
#X msg 46 11 59;
#X msg 76 11 60;
#X msg 106 11 62;
#X msg 17 39 64;
#X msg 46 39 65;
#X msg 76 39 67;
#X msg 106 39 69;
#X obj 17 106 t f b;
#X obj 293 208 spigot;
#X obj 166 218 f;
#X msg 220 94 1;
#X obj 49 130 t b b, f 25;
#X msg 221 154 0;
#X msg 166 312 \$1 1;
#X obj 166 336 route 1 2 3 4;
#X obj 183 372 shuffledcollection;
#X obj 193 402 shuffledcollection;
#X obj 203 432 shuffledcollection;
#X obj 213 462 shuffledcollection;
#X obj 293 232 f;
#X obj 293 256 sel 1 2 3 4, f 22;
#X obj 166 486 == 1;
#X obj 166 510 sel 1;
#X obj 166 534 bng 15 250 50 0 empty empty empty 17 7 0 10 -262144
-1 -1;
#X msg 293 300 0;
#X msg 330 300 0;
#X msg 368 300 0;
#X msg 406 300 0;
#X obj 184 70 t f b f b, f 16;
#X obj 293 280 bng 15 250 50 0 empty empty empty 17 7 0 10 -262144
-1 -1;
#X obj 330 280 bng 15 250 50 0 empty empty empty 17 7 0 10 -262144
-1 -1;
#X obj 368 280 bng 15 250 50 0 empty empty empty 17 7 0 10 -262144
-1 -1;
#X obj 406 280 bng 15 250 50 0 empty empty empty 17 7 0 10 -262144
-1 -1;
#X obj 56 637 mtof;
#X obj 56 661 osc~;
#X obj 17 589 t b f, f 6;
#X obj 17 687 *~;
#X obj 17 613 ahdsr~ 5 0 200 0.4 200;
#X obj 369 676 out~;
#X obj 369 642 *~ 1;
#X obj 184 11 tgl 15 0 empty empty empty 17 7 0 10 -262144 -1 -1 0
1;
#X floatatom 324 65 5 0 0 0 - - -;
#X obj 49 256 tgl 15 0 empty empty empty 17 7 0 10 -262144 -1 -1 0
1;
#X obj 49 300 sel 1 2 3 4;
#X floatatom 12 295 5 0 0 0 - - -;
#X obj 49 276 metronome 500 4;
#X obj 447 375 bng 15 250 50 0 empty empty empty 17 7 0 10 -262144
-1 -1;
#X obj 447 395 t b b;
#X msg 447 419 clear;
#X obj 17 565 markov 57 59 60 62 64 65 67 69;
#X obj 184 46 metronome 2000 4;
#X connect 0 0 8 0;
#X connect 1 0 8 0;
#X connect 2 0 8 0;
#X connect 3 0 8 0;
#X connect 4 0 8 0;
#X connect 5 0 8 0;
#X connect 6 0 8 0;
#X connect 7 0 8 0;
#X connect 8 0 50 0;
#X connect 8 1 12 0;
#X connect 9 0 20 0;
#X connect 10 0 14 0;
#X connect 11 0 9 1;
#X connect 12 0 10 0;
#X connect 12 1 13 0;
#X connect 13 0 9 1;
#X connect 14 0 15 0;
#X connect 15 0 16 1;
#X connect 15 1 17 1;
#X connect 15 2 18 1;
#X connect 15 3 19 1;
#X connect 16 0 22 0;
#X connect 17 0 22 0;
#X connect 18 0 22 0;
#X connect 19 0 22 0;
#X connect 20 0 21 0;
#X connect 21 0 30 0;
#X connect 21 1 31 0;
#X connect 21 2 32 0;
#X connect 21 3 33 0;
#X connect 22 0 23 0;
#X connect 23 0 24 0;
#X connect 24 0 50 0;
#X connect 25 0 16 1;
#X connect 26 0 17 1;
#X connect 27 0 18 1;
#X connect 28 0 19 1;
#X connect 29 0 10 1;
#X connect 29 1 11 0;
#X connect 29 2 20 1;
#X connect 29 3 9 0;
#X connect 30 0 25 0;
#X connect 31 0 26 0;
#X connect 32 0 27 0;
#X connect 33 0 28 0;
#X connect 34 0 35 0;
#X connect 35 0 37 1;
#X connect 36 0 38 0;
#X connect 36 1 34 0;
#X connect 37 0 40 0;
#X connect 38 0 37 0;
#X connect 40 0 39 0;
#X connect 40 0 39 1;
#X connect 41 0 51 0;
#X connect 43 0 46 0;
#X connect 44 0 16 0;
#X connect 44 1 17 0;
#X connect 44 2 18 0;
#X connect 44 3 19 0;
#X connect 46 0 44 0;
#X connect 46 0 45 0;
#X connect 47 0 48 0;
#X connect 48 0 49 0;
#X connect 48 1 16 2;
#X connect 48 1 19 2;
#X connect 48 1 18 2;
#X connect 48 1 17 2;
#X connect 49 0 50 0;
#X connect 50 0 36 0;
#X connect 51 0 29 0;
#X connect 51 0 42 0;
