#N canvas 665 64 494 548 12;
#X obj 45 111 bng 15 250 50 0 empty empty empty 17 7 0 10 -262144 -1
-1;
#X obj 45 540 dac~;
#X obj 225 245 bng 15 250 50 0 empty empty empty 17 7 0 10 -262144
-1 -1;
#X floatatom 231 112 5 0 0 0 - - -;
#X obj 45 516 *~ 1;
#X floatatom 119 289 5 0 0 0 - - -;
#X text 15 36 sample prepared with __sample_prep.pd;
#X text 16 15 load sample with __sample_load.pd;
#X obj 75 450 echo~ 250 0.8;
#X msg 290 121 1;
#X obj 40 80 sel 1 5 7;
#X obj 13 91 tgl 15 0 empty empty empty 17 7 0 10 -262144 -1 -1 0 1
;
#X obj 40 56 metronome 250 8;
#X floatatom 231 159 5 0 0 0 - - -;
#X obj 231 135 quantized 0.25 0.5 1 1.5;
#X obj 231 87 scaled 0 1 0 1.5;
#X obj 119 312 quantized 50 250 500;
#X obj 119 262 * 500;
#X floatatom 119 336 5 0 0 0 - - -;
#X obj 119 383 line;
#X floatatom 119 407 5 0 0 0 - - -;
#X msg 119 359 \$1 200;
#X obj 75 474 tremolo~ 0.5 1;
#X obj 324 365 snare~ 50 0.5 250;
#X obj 324 331 sel 4 8;
#X obj 324 389 *~ 0.5;
#X obj 45 216 audioclip~ zz 0.460603 95744;
#X obj 119 238 lfo sin 0.1;
#X obj 231 63 lfo sin 1;
#X connect 3 0 14 0;
#X connect 4 0 1 0;
#X connect 4 0 1 1;
#X connect 5 0 16 0;
#X connect 8 0 22 0;
#X connect 10 0 0 0;
#X connect 10 1 0 0;
#X connect 10 2 0 0;
#X connect 11 0 12 0;
#X connect 12 0 10 0;
#X connect 12 0 24 0;
#X connect 14 0 13 0;
#X connect 15 0 3 0;
#X connect 16 0 18 0;
#X connect 17 0 5 0;
#X connect 18 0 21 0;
#X connect 19 0 20 0;
#X connect 20 0 8 1;
#X connect 21 0 19 0;
#X connect 22 0 4 0;
#X connect 23 0 25 0;
#X connect 24 0 23 0;
#X connect 24 1 23 0;
#X connect 27 0 17 0;
#X connect 28 0 15 0;
