#N canvas 474 138 561 448 12;
#X obj 16 123 bng 15 250 50 0 empty empty empty 17 7 0 10 -262144 -1
-1;
#X obj 16 230 percentgraph~;
#X obj 266 146 t b b, f 12;
#X obj 266 123 bng 15 250 50 0 empty empty empty 17 7 0 10 -262144
-1 -1;
#X text 6 104 vary playback location;
#X text 215 104 vary playback rate;
#X obj 517 283 bng 15 250 50 0 empty empty empty 17 7 0 10 -262144
-1 -1;
#X obj 347 220 scaled 0 1 0.5 1.5;
#X obj 347 195 percentgraph;
#X obj 347 171 randomline 0 500;
#X obj 146 135 bng 15 250 50 0 empty empty empty 17 7 0 10 -262144
-1 -1;
#X obj 16 206 randomline~ 300 700;
#X obj 16 143 t b b;
#X obj 48 168 del 5000;
#X obj 214 12 audioclip~ whipcrack 95568, f 27;
#X obj 214 31 __audioclip_load whipcrack 95568;
#X obj 16 261 scrub~ whipcrack 95568, f 27;
#X obj 175 386 out~;
#N canvas 0 23 450 502 fun_processing 0;
#X obj 141 72 loadbang;
#X obj 116 119 pan~;
#X obj 141 96 randomline 300 700;
#X obj 111 320 echo~ 250 0.8;
#X obj 236 326 echo~ 250 0.8;
#X floatatom 141 260 5 0 0 0 - - -;
#X obj 141 210 randomline 20 700;
#X obj 141 234 scaled 0 1 20 200;
#X obj 38 27 inlet~;
#X obj 141 184 loadbang;
#X obj 299 156 loadbang;
#X msg 299 180 0.44;
#X obj 299 204 hsl 128 15 0 1 0 0 empty empty empty -2 -8 0 10 -262144
-1 -1 5588 1;
#X obj 101 434 outlet~;
#X obj 226 440 outlet~;
#X obj 39 131 *~ 0.3;
#X connect 0 0 2 0;
#X connect 1 0 3 0;
#X connect 1 1 4 0;
#X connect 2 0 1 1;
#X connect 3 0 13 0;
#X connect 4 0 14 0;
#X connect 5 0 3 1;
#X connect 5 0 4 1;
#X connect 6 0 7 0;
#X connect 7 0 5 0;
#X connect 8 0 1 0;
#X connect 8 0 15 0;
#X connect 9 0 6 0;
#X connect 10 0 11 0;
#X connect 11 0 12 0;
#X connect 12 0 3 2;
#X connect 12 0 4 2;
#X connect 15 0 13 0;
#X connect 15 0 14 0;
#X restore 153 354 pd fun_processing;
#X obj 7 12 audioclip~ simon 427008, f 27;
#X obj 7 31 __audioclip_load simon 427008;
#X obj 266 257 playback~ simon 427008;
#X connect 0 0 12 0;
#X connect 1 0 16 0;
#X connect 2 0 21 0;
#X connect 2 1 9 0;
#X connect 3 0 2 0;
#X connect 6 0 9 1;
#X connect 7 0 21 1;
#X connect 8 0 7 0;
#X connect 9 0 8 0;
#X connect 10 0 11 1;
#X connect 11 0 1 0;
#X connect 12 0 11 0;
#X connect 12 1 13 0;
#X connect 13 0 10 0;
#X connect 16 0 18 0;
#X connect 16 1 18 0;
#X connect 18 0 17 0;
#X connect 18 1 17 1;
#X connect 21 0 18 0;
#X connect 21 1 18 0;
#X connect 21 2 6 0;
