#N canvas 267 168 971 300 12;
#X floatatom 118 17 5 0 0 0 - - -;
#X obj 118 100 mtof;
#X obj 118 124 osc~;
#X obj 118 232 out~;
#X msg 192 254 1;
#X obj 118 202 pan~;
#X obj 118 178 *~ 0.3;
#X obj 118 40 t f b, f 13;
#X obj 118 148 *~, f 5;
#X obj 202 140 snapshot~;
#X obj 223 112 metro 10;
#X obj 225 89 tgl 15 0 empty empty empty 17 7 0 10 -262144 -1 -1 1
1;
#X obj 233 17 randomsel 60 67 72 58 63;
#X obj 19 52 tgl 15 0 empty empty empty 17 7 0 10 -262144 -1 -1 1 1
;
#X floatatom 580 14 5 0 0 0 - - -;
#X obj 580 97 mtof;
#X obj 580 121 osc~;
#X obj 580 229 out~;
#X msg 654 251 1;
#X obj 580 199 pan~;
#X obj 580 175 *~ 0.3;
#X obj 580 37 t f b, f 13;
#X obj 580 145 *~, f 5;
#X obj 664 137 snapshot~;
#X obj 685 109 metro 10;
#X obj 687 86 tgl 15 0 empty empty empty 17 7 0 10 -262144 -1 -1 1
1;
#X obj 695 14 randomsel 60 67 72 58 63;
#X obj 481 49 tgl 15 0 empty empty empty 17 7 0 10 -262144 -1 -1 1
1;
#X obj 667 167 swap;
#X obj 753 121 loadbang;
#X msg 758 154 1;
#X obj 667 191 -;
#X obj 386 192 tgl 15 0 empty empty empty 17 7 0 10 -262144 -1 -1 1
1;
#X obj 298 106 loadbang;
#X text 412 188 PRESS TO START;
#X text 586 278 pans from right to left;
#X text 109 279 pans from left to right;
#X obj 202 66 ahdsr~ 500 500 500 0.5 500;
#X obj 664 63 ahdsr~ 500 500 500 0.5 500;
#X obj 484 75 metro 2000;
#X obj 22 79 metro 2000;
#X obj 386 164 loadbang;
#X connect 0 0 7 0;
#X connect 1 0 2 0;
#X connect 2 0 8 0;
#X connect 4 0 3 2;
#X connect 5 0 3 0;
#X connect 5 1 3 1;
#X connect 6 0 5 0;
#X connect 7 0 1 0;
#X connect 7 1 37 0;
#X connect 8 0 6 0;
#X connect 9 0 5 1;
#X connect 10 0 9 0;
#X connect 11 0 10 0;
#X connect 12 0 0 0;
#X connect 13 0 40 0;
#X connect 14 0 21 0;
#X connect 15 0 16 0;
#X connect 16 0 22 0;
#X connect 18 0 17 2;
#X connect 19 0 17 0;
#X connect 19 1 17 1;
#X connect 20 0 19 0;
#X connect 21 0 15 0;
#X connect 21 1 38 0;
#X connect 22 0 20 0;
#X connect 23 0 28 0;
#X connect 24 0 23 0;
#X connect 25 0 24 0;
#X connect 26 0 14 0;
#X connect 27 0 39 0;
#X connect 28 0 31 0;
#X connect 28 1 31 1;
#X connect 29 0 30 0;
#X connect 29 0 25 0;
#X connect 29 0 18 0;
#X connect 30 0 28 1;
#X connect 31 0 19 1;
#X connect 32 0 13 0;
#X connect 32 0 27 0;
#X connect 33 0 11 0;
#X connect 33 0 4 0;
#X connect 37 0 8 1;
#X connect 37 0 9 0;
#X connect 38 0 22 1;
#X connect 38 0 23 0;
#X connect 39 0 26 0;
#X connect 40 0 12 0;
#X connect 41 0 32 0;
