#N canvas 178 105 1021 666 12;
#X floatatom 165 50 5 0 0 0 - - -;
#X obj 165 133 mtof;
#X obj 430 445 out~;
#X obj 165 235 pan~;
#X obj 165 211 *~ 0.3;
#X obj 165 181 *~, f 5;
#X obj 280 50 randomsel 60 67 72 58 63;
#X obj 66 85 tgl 15 0 empty empty empty 17 7 0 10 -262144 -1 -1 1 1
;
#X obj 165 73 t f b, f 13;
#X obj 312 136 loadbang;
#X obj 313 220 percentgraph;
#X obj 405 140 bng 15 250 50 0 empty empty empty 17 7 0 10 -262144
-1 -1;
#X obj 313 188 scaled 0 1 0 0.5;
#X floatatom 577 42 5 0 0 0 - - -;
#X obj 577 125 mtof;
#X obj 577 227 pan~;
#X obj 577 203 *~ 0.3;
#X obj 577 173 *~, f 5;
#X obj 692 42 randomsel 60 67 72 58 63;
#X obj 478 77 tgl 15 0 empty empty empty 17 7 0 10 -262144 -1 -1 1
1;
#X obj 661 91 ahdsr~ 500 500 500 0.5 500;
#X obj 481 104 metro 2000;
#X obj 577 65 t f b, f 13;
#X obj 724 128 loadbang;
#X obj 725 212 percentgraph;
#X obj 817 132 bng 15 250 50 0 empty empty empty 17 7 0 10 -262144
-1 -1;
#X obj 725 180 scaled 0 1 0.5 1;
#X obj 313 164 randomline 100 500;
#X obj 725 156 randomline 100 500;
#X obj 28 330 vcf~;
#X obj 21 222 randomline~ 100 500;
#X obj 165 157 phasor~;
#X obj 577 149 phasor~;
#X obj 76 151 loadbang;
#X obj 111 176 bng 15 250 50 0 empty empty empty 17 7 0 10 -262144
-1 -1;
#X obj 21 246 percentgraph~;
#X obj 600 423 vcf~;
#X obj 593 315 randomline~ 100 500;
#X obj 648 244 loadbang;
#X obj 683 269 bng 15 250 50 0 empty empty empty 17 7 0 10 -262144
-1 -1;
#X obj 593 339 percentgraph~;
#X obj 593 379 scaled~ 0 1 400 3000;
#X obj 20 286 scaled~ 0 1 400 3000;
#X obj 69 112 metro 1333.33;
#X obj 205 101 ahdsr~ 333.25 333.25 333.25 0.5 333.25;
#X obj 175 329 metro 4000;
#X obj 179 308 tgl 15 0 empty empty empty 17 7 0 10 -262144 -1 -1 1
1;
#X floatatom 175 376 5 0 0 0 - - -;
#X obj 175 399 t f b, f 12;
#X obj 175 423 mtof;
#X obj 175 447 osc~;
#X obj 175 471 *~, f 11;
#X obj 175 352 randomsel 36 43 39 46 39 34;
#X obj 11 413 noise~;
#X obj 62 385 crackle~;
#X obj 62 409 ducker~ 1 5;
#X obj 11 436 hip~ 15000;
#X obj 11 460 *~ 0.1;
#X obj 175 495 vibrato~ 1 2;
#X obj 277 600 ducker~ 0.5 50;
#X obj 573 518 ducker~ 0.5 50;
#X obj 318 379 maybe 0.5;
#X obj 217 424 ahdsr~ 5 0 3000 0.3 800;
#X msg 668 407 1.5;
#X msg 95 314 1.5;
#X obj 175 518 clip~ -0.1 0.1;
#X obj 90 524 *~ 0.3;
#X obj 90 547 *~;
#X connect 0 0 8 0;
#X connect 1 0 31 0;
#X connect 3 0 29 0;
#X connect 3 1 36 0;
#X connect 4 0 3 0;
#X connect 5 0 4 0;
#X connect 6 0 0 0;
#X connect 7 0 43 0;
#X connect 8 0 1 0;
#X connect 8 1 44 0;
#X connect 9 0 7 0;
#X connect 9 0 27 0;
#X connect 9 0 46 0;
#X connect 11 0 27 0;
#X connect 12 0 10 0;
#X connect 12 0 3 1;
#X connect 13 0 22 0;
#X connect 14 0 32 0;
#X connect 15 0 29 0;
#X connect 15 1 36 0;
#X connect 16 0 15 0;
#X connect 17 0 16 0;
#X connect 18 0 13 0;
#X connect 19 0 21 0;
#X connect 20 0 17 1;
#X connect 21 0 18 0;
#X connect 22 0 14 0;
#X connect 22 1 20 0;
#X connect 23 0 19 0;
#X connect 23 0 28 0;
#X connect 25 0 28 0;
#X connect 26 0 24 0;
#X connect 26 0 15 1;
#X connect 27 0 12 0;
#X connect 28 0 26 0;
#X connect 29 0 59 1;
#X connect 30 0 35 0;
#X connect 31 0 5 0;
#X connect 32 0 17 0;
#X connect 33 0 30 0;
#X connect 33 0 64 0;
#X connect 34 0 30 0;
#X connect 35 0 42 0;
#X connect 36 0 60 1;
#X connect 37 0 40 0;
#X connect 38 0 37 0;
#X connect 38 0 63 0;
#X connect 39 0 37 0;
#X connect 40 0 41 0;
#X connect 41 0 36 1;
#X connect 42 0 29 1;
#X connect 43 0 6 0;
#X connect 44 0 5 1;
#X connect 45 0 52 0;
#X connect 46 0 45 0;
#X connect 47 0 48 0;
#X connect 48 0 49 0;
#X connect 48 1 62 0;
#X connect 49 0 50 0;
#X connect 50 0 51 0;
#X connect 50 0 66 0;
#X connect 51 0 58 0;
#X connect 52 0 61 0;
#X connect 53 0 56 0;
#X connect 54 0 55 0;
#X connect 55 0 51 0;
#X connect 55 1 51 0;
#X connect 56 0 57 0;
#X connect 57 0 55 1;
#X connect 58 0 65 0;
#X connect 59 0 2 0;
#X connect 59 1 2 0;
#X connect 60 0 2 1;
#X connect 60 1 2 1;
#X connect 61 0 47 0;
#X connect 62 0 51 1;
#X connect 62 0 67 1;
#X connect 63 0 36 2;
#X connect 64 0 29 2;
#X connect 65 0 59 0;
#X connect 65 0 60 0;
#X connect 66 0 67 0;
#X connect 67 0 59 0;
#X connect 67 0 60 0;
