#N canvas 717 141 603 489 12;
#X obj 86 48 msphid;
#X msg 86 24 8;
#X floatatom 86 96 5 0 0 0 - - -;
#X obj 86 119 scaled -1 1 48 72;
#X obj 86 143 quantized 48 50 52 53 55 57 59 60 62 64 65 67 69 71 72
;
#X obj 86 247 mtof;
#X obj 86 271 osc~;
#X obj 86 295 *~, f 7;
#X obj 86 399 *~ 0.2;
#X obj 86 423 dac~;
#X obj 129 256 adsr~ 5 20 0.4 100;
#X obj 106 337 echo~ 250 0.5;
#X obj 172 164 * -1;
#X obj 172 188 * 2;
#X obj 86 225 +;
#X obj 172 212 t b f;
#X obj 228 121 snare~ 50 0.5 250;
#X obj 228 97 sel 1;
#X obj 341 208 kick~ 50 1 1 1 1;
#X obj 86 72 route lxdeg x l2deg r2deg r1 l1;
#X obj 341 185 sel 1;
#X connect 0 0 19 0;
#X connect 1 0 0 0;
#X connect 2 0 3 0;
#X connect 3 0 4 0;
#X connect 4 0 14 0;
#X connect 5 0 6 0;
#X connect 6 0 7 0;
#X connect 7 0 11 0;
#X connect 7 0 8 0;
#X connect 8 0 9 0;
#X connect 8 0 9 1;
#X connect 10 0 7 1;
#X connect 11 0 8 0;
#X connect 12 0 13 0;
#X connect 13 0 15 0;
#X connect 14 0 5 0;
#X connect 15 0 2 0;
#X connect 15 1 14 1;
#X connect 16 0 8 0;
#X connect 17 0 16 0;
#X connect 18 0 8 0;
#X connect 19 0 2 0;
#X connect 19 1 10 0;
#X connect 19 2 12 0;
#X connect 19 3 11 2;
#X connect 19 4 17 0;
#X connect 19 5 20 0;
#X connect 20 0 18 0;
