#N canvas 630 144 450 589 12;
#X obj 66 42 msphid;
#X msg 66 19 5;
#X obj 66 90 scaled -1 1 60 72;
#X obj 66 138 mtof;
#X obj 16 192 phasor~;
#X obj 66 541 dac~, f 38;
#X obj 66 356 *~, f 35;
#X obj 305 89 sig~;
#X obj 305 113 *~;
#X obj 137 380 echo~ 250 0.8;
#X obj 159 192 osc~;
#X obj 177 218 scaled -1 1 0 1;
#X obj 177 242 sig~;
#X obj 159 287 *~;
#X obj 34 215 * -1;
#X obj 34 239 scaled -1 1 0 1;
#X obj 34 263 sig~;
#X obj 16 287 *~;
#X obj 66 114 quantized 60 62 63 65 67 68 70 72;
#X obj 66 420 ducker~ 1 50;
#X obj 66 66 route lydeg lxdeg l2deg r2deg rxdeg, f 46;
#X obj 66 444 pan~, f 38;
#X obj 66 468 *~ 0.1;
#X obj 329 467 *~ 0.1;
#X obj 329 165 scaled -1 1 0 1;
#X connect 0 0 20 0;
#X connect 1 0 0 0;
#X connect 2 0 18 0;
#X connect 3 0 4 0;
#X connect 3 0 10 0;
#X connect 4 0 17 0;
#X connect 6 0 9 0;
#X connect 6 0 19 0;
#X connect 7 0 8 0;
#X connect 7 0 8 1;
#X connect 8 0 6 1;
#X connect 9 0 19 1;
#X connect 10 0 13 0;
#X connect 11 0 12 0;
#X connect 12 0 13 1;
#X connect 13 0 6 0;
#X connect 14 0 15 0;
#X connect 15 0 16 0;
#X connect 16 0 17 1;
#X connect 17 0 6 0;
#X connect 18 0 3 0;
#X connect 19 0 21 0;
#X connect 19 1 21 0;
#X connect 20 0 2 0;
#X connect 20 1 11 0;
#X connect 20 1 14 0;
#X connect 20 2 9 2;
#X connect 20 3 7 0;
#X connect 20 4 24 0;
#X connect 21 0 22 0;
#X connect 21 1 23 0;
#X connect 22 0 5 0;
#X connect 23 0 5 1;
#X connect 24 0 21 1;
