#N canvas 706 124 450 389 12;
#X floatatom 184 175 5 0 0 0 - - -;
#X obj 32 84 phasor~;
#X obj 32 108 snapshot~;
#X obj 115 89 tgl 15 0 empty empty empty 17 7 0 10 -262144 -1 -1 1
1;
#X obj 32 328 out~;
#X floatatom 32 132 5 0 0 0 - - -;
#X floatatom 337 177 5 0 0 0 - - -;
#X floatatom 32 57 5 0 0 0 - - -;
#X obj 127 22 loadbang;
#X floatatom 32 179 5 0 0 0 - - -;
#X msg 184 150 965;
#X msg 32 33 -0.04;
#X obj 115 109 metro 125;
#X obj 283 125 randomline 2000 8000;
#X obj 283 151 scaled 0 1 0.75 0.85;
#X obj 32 202 granulator~ piano 391011, f 44;
#X obj 217 41 __audioclip_load piano 391011;
#X obj 32 155 scaled 0 1 0 0.089;
#X obj 217 60 audioclip~ piano 391011;
#X connect 0 0 15 1;
#X connect 1 0 2 0;
#X connect 2 0 5 0;
#X connect 3 0 12 0;
#X connect 5 0 17 0;
#X connect 6 0 15 2;
#X connect 7 0 1 0;
#X connect 8 0 11 0;
#X connect 8 0 3 0;
#X connect 8 0 13 0;
#X connect 8 0 10 0;
#X connect 9 0 15 0;
#X connect 10 0 0 0;
#X connect 11 0 7 0;
#X connect 12 0 2 0;
#X connect 13 0 14 0;
#X connect 14 0 6 0;
#X connect 15 0 4 0;
#X connect 15 1 4 1;
#X connect 17 0 9 0;
