#N canvas 367 136 1280 755 12;
#X obj 91 545 out~;
#X floatatom 942 330 5 0 0 0 - - -;
#X floatatom 1039 330 5 0 0 0 - - -;
#X floatatom 296 178 5 0 0 0 - - -;
#X obj 33 130 bng 15 250 50 0 empty empty empty 17 7 0 10 -262144 -1
-1;
#X obj 296 364 bng 15 250 50 0 empty empty empty 17 7 0 10 -262144
-1 -1;
#X obj 458 170 phasor~;
#X msg 528 121 0;
#X msg 458 121 0.112785;
#X obj 458 194 percentgraph~;
#X obj 846 219 phasor~;
#X msg 915 109 0;
#X msg 846 110 0.112785;
#X obj 846 243 snapshot~;
#X obj 878 182 metro 125;
#X obj 846 267 percentgraph;
#X msg 1039 306 1;
#X obj 983 277 loadbang;
#X text 31 99 1 [playback~];
#X text 453 87 2 [scrub~];
#X text 840 78 3 [granulator~];
#X obj 528 145 t f f;
#X obj 846 134 t f b;
#X obj 915 133 t f f f;
#X msg 942 307 146;
#X msg 296 154 1;
#X obj 296 130 loadbang;
#X obj 21 7 __audioclip_load piano 375423;
#X obj 21 26 audioclip~ piano 375423;
#X obj 33 340 playback~ piano 375423, f 38;
#X obj 458 344 scrub~ piano 375423;
#X obj 846 353 granulator~ piano 375423, f 28;
#X obj 91 500 catch~ output;
#X obj 33 364 throw~ output;
#X obj 458 368 throw~ output;
#X obj 846 377 throw~ output;
#X connect 1 0 31 1;
#X connect 2 0 31 2;
#X connect 3 0 29 1;
#X connect 4 0 29 0;
#X connect 6 0 9 0;
#X connect 7 0 21 0;
#X connect 8 0 6 0;
#X connect 9 0 30 0;
#X connect 10 0 13 0;
#X connect 11 0 23 0;
#X connect 12 0 22 0;
#X connect 13 0 15 0;
#X connect 14 0 13 0;
#X connect 15 0 31 0;
#X connect 16 0 2 0;
#X connect 17 0 24 0;
#X connect 17 0 16 0;
#X connect 21 0 6 0;
#X connect 21 1 6 1;
#X connect 22 0 10 0;
#X connect 22 1 14 0;
#X connect 23 0 14 0;
#X connect 23 1 10 1;
#X connect 23 2 10 0;
#X connect 24 0 1 0;
#X connect 25 0 3 0;
#X connect 26 0 25 0;
#X connect 29 0 33 0;
#X connect 29 1 5 0;
#X connect 30 0 34 0;
#X connect 31 0 35 0;
#X connect 32 0 0 0;
#X connect 32 0 0 1;
