#N canvas 582 219 674 518 12;
#X obj 191 69 tgl 15 0 empty empty empty 17 7 0 10 -262144 -1 -1 1
1;
#X obj 191 113 beatmemory, f 57;
#X msg 442 70 1;
#X obj 191 137 sel 1;
#X obj 191 161 bng 15 250 50 0 empty empty empty 17 7 0 10 -262144
-1 -1;
#X obj 13 202 ahdsr~ 10 0 50 0.4 50;
#X obj 43 226 osc~ 880;
#X obj 191 45 loadbang;
#X text 438 42 write;
#X obj 587 79 bng 15 250 50 0 empty empty empty 17 7 0 10 -262144 -1
-1;
#X text 582 51 clear;
#X obj 13 256 *~;
#X obj 250 417 out~;
#X obj 411 216 *~;
#X obj 429 188 osc~ 440;
#X obj 13 54 t b f;
#X obj 45 127 % 4;
#X msg 45 175 880;
#X msg 77 175 660;
#X obj 191 89 beatprovider 250 32;
#X msg 478 70 0;
#X obj 230 349 ducker~ 1 20;
#X obj 411 162 ahdsr~ 5 0 100 0.3 100;
#X obj 13 304 echo~ 0 0, f 31;
#X obj 120 255 veeline;
#X obj 230 275 hsl 60 15 0 0.9 0 0 empty empty empty -2 -8 0 10 -262144
-1 -1 3278 1;
#X floatatom 120 279 5 0 0 0 - - -;
#X obj 464 273 loadbang;
#X msg 464 297 0.5;
#X obj 45 79 sieve 1;
#X msg 115 119 1760;
#X obj 45 151 sel 1;
#X obj 13 280 vibrato~ 2 1;
#X msg 120 230 2 5 0 \, 250 6000 5 \, 2 5 8005;
#X connect 0 0 19 0;
#X connect 1 0 3 0;
#X connect 2 0 1 2;
#X connect 2 0 22 0;
#X connect 3 0 4 0;
#X connect 4 0 22 0;
#X connect 5 0 11 0;
#X connect 6 0 11 1;
#X connect 7 0 0 0;
#X connect 9 0 1 3;
#X connect 11 0 32 0;
#X connect 13 0 21 0;
#X connect 14 0 13 1;
#X connect 15 0 5 0;
#X connect 15 1 29 0;
#X connect 16 0 31 0;
#X connect 17 0 6 0;
#X connect 18 0 6 0;
#X connect 19 0 1 0;
#X connect 19 0 15 0;
#X connect 19 1 1 1;
#X connect 20 0 1 2;
#X connect 21 0 12 0;
#X connect 21 0 12 1;
#X connect 21 1 12 0;
#X connect 21 1 12 1;
#X connect 22 0 13 0;
#X connect 23 0 21 1;
#X connect 24 0 26 0;
#X connect 25 0 23 2;
#X connect 26 0 23 1;
#X connect 27 0 28 0;
#X connect 28 0 25 0;
#X connect 29 0 30 0;
#X connect 29 1 16 0;
#X connect 30 0 6 0;
#X connect 31 0 17 0;
#X connect 31 1 18 0;
#X connect 32 0 23 0;
#X connect 33 0 24 0;
