#N canvas 0 23 414 316 12;
#X obj 18 68 pink~;
#X obj 87 82 noise~;
#X obj 170 101 hsl 128 15 0 1 0 0 empty empty empty -2 -8 0 10 -262144
-1 -1 0 1;
#X obj 17 123 *~;
#X obj 87 106 *~;
#X obj 167 126 - 1;
#X obj 167 150 abs;
#X floatatom 116 105 5 0 0 0 - - -;
#X floatatom 45 101 5 0 0 0 - - -;
#X obj 179 14 bng 15 250 50 0 empty empty empty 17 7 0 10 -262144 -1
-1;
#X obj 52 224 *~;
#X obj 52 248 out~;
#X obj 179 34 ahdsr 800 500 2000 0.4 4000;
#X obj 365 66 bng 15 250 50 0 empty empty empty 17 7 0 10 -262144 -1
-1;
#X obj 79 191 scaled 0 1 0.2 1;
#X obj 179 58 scaled 0 1 0 0.6;
#X connect 0 0 3 0;
#X connect 1 0 4 0;
#X connect 2 0 7 0;
#X connect 2 0 5 0;
#X connect 3 0 10 0;
#X connect 4 0 10 0;
#X connect 5 0 6 0;
#X connect 6 0 8 0;
#X connect 7 0 4 1;
#X connect 8 0 3 1;
#X connect 9 0 12 0;
#X connect 10 0 11 0;
#X connect 10 0 11 1;
#X connect 12 0 14 0;
#X connect 12 0 15 0;
#X connect 12 1 13 0;
#X connect 14 0 10 1;
#X connect 15 0 2 0;
