#N canvas 0 23 401 602 12;
#X obj 157 94 bng 15 250 50 0 empty empty empty 17 7 0 10 -262144 -1
-1;
#X obj 157 395 ahdsr~ 5 50 200 0.4 500;
#X obj 139 424 *~;
#X obj 157 114 t b b;
#X obj 46 209 quantized 60 62 64 65 67 69 71 72;
#X obj 138 504 out~;
#X obj 46 233 mtof;
#X obj 157 48 tgl 15 0 empty empty empty 17 7 0 10 -262144 -1 -1 1
1;
#X floatatom 217 46 5 0 0 0 - - -;
#X obj 150 466 *~ 1;
#X obj 90 48 loadbang;
#X obj 46 258 phasor~;
#X obj 157 345 bng 15 250 50 0 empty empty empty 17 7 0 10 -262144
-1 -1;
#X obj 157 321 maybe 0.8;
#X obj 8 372 osc~;
#X obj 77 332 phasor~;
#X obj 77 309 * 1.01;
#X obj 77 356 *~ 0.5;
#X obj 243 285 phasor~;
#X obj 243 309 *~ 0.5;
#X obj 243 262 * 0.99;
#X obj 196 474 hip~ 50;
#X obj 157 365 t b b;
#X obj 324 287 random 10;
#X obj 324 311 > 7;
#X obj 324 335 sel 1;
#X msg 324 359 300;
#X msg 356 359 50;
#X obj 46 161 random 12;
#X obj 46 185 scaled 0 12 60 72;
#X obj 46 282 wah~ 5 200 3000 2;
#X obj 157 69 metro 300;
#X obj 196 450 echo~ 200 0.4;
#X obj 8 396 clip~ 0.45 0.55;
#X obj 8 348 / 8;
#X obj 8 420 *~ 6;
#X connect 0 0 3 0;
#X connect 1 0 2 1;
#X connect 2 0 5 0;
#X connect 2 0 5 1;
#X connect 2 0 32 0;
#X connect 3 0 13 0;
#X connect 3 1 28 0;
#X connect 4 0 6 0;
#X connect 6 0 11 0;
#X connect 6 0 16 0;
#X connect 6 0 20 0;
#X connect 6 0 34 0;
#X connect 7 0 31 0;
#X connect 8 0 31 1;
#X connect 9 0 5 0;
#X connect 9 0 5 1;
#X connect 10 0 7 0;
#X connect 11 0 30 0;
#X connect 12 0 22 0;
#X connect 13 0 12 0;
#X connect 14 0 33 0;
#X connect 15 0 17 0;
#X connect 16 0 15 0;
#X connect 17 0 30 0;
#X connect 18 0 19 0;
#X connect 19 0 30 0;
#X connect 20 0 18 0;
#X connect 21 0 9 0;
#X connect 22 0 1 0;
#X connect 22 1 23 0;
#X connect 23 0 24 0;
#X connect 24 0 25 0;
#X connect 25 0 26 0;
#X connect 25 1 27 0;
#X connect 26 0 1 2;
#X connect 27 0 1 2;
#X connect 28 0 29 0;
#X connect 29 0 4 0;
#X connect 30 0 2 0;
#X connect 31 0 0 0;
#X connect 32 0 21 0;
#X connect 33 0 35 0;
#X connect 34 0 14 0;
#X connect 35 0 2 0;
