#N canvas 586 147 450 415 12;
#X obj 163 115 osc~;
#X obj 77 295 out~;
#X obj 85 39 osc~;
#X floatatom 36 15 5 0 0 0 - - -;
#X obj 85 63 scaled~ -1 1 220 880;
#X floatatom 16 59 5 0 0 0 - - -;
#X obj 16 82 sig~;
#X obj 85 87 *~;
#X obj 77 139 *~, f 10;
#X obj 77 163 pan~;
#X obj 15 223 echo~ 125 0.5;
#X obj 121 249 echo~ 125 0.5;
#X obj 226 38 random 8;
#X obj 335 73 bng 15 250 50 0 empty empty empty 17 7 0 10 -262144 -1
-1;
#X obj 270 93 random 1000;
#X obj 226 62 + 1;
#X obj 329 23 metro 250;
#X obj 288 11 tgl 15 0 empty empty empty 17 7 0 10 -262144 -1 -1 1
1;
#X obj 240 198 pink~;
#X obj 300 198 ahdsr~ 5 0 0.5 5 100;
#X obj 244 257 *~;
#X obj 138 13 loadbang;
#X obj 77 115 square~ 440;
#X obj 333 275 bng 15 250 50 0 empty empty empty 17 7 0 10 -262144
-1 -1;
#X obj 343 300 random 300;
#X obj 343 324 / 300;
#X obj 267 290 t b b;
#X obj 288 378 kick~ 10000 0.5 1 2 1;
#X obj 204 156 lfo sin 0.5;
#X connect 0 0 8 1;
#X connect 2 0 4 0;
#X connect 3 0 2 0;
#X connect 4 0 7 0;
#X connect 5 0 6 0;
#X connect 6 0 7 1;
#X connect 7 0 0 0;
#X connect 8 0 9 0;
#X connect 9 0 10 0;
#X connect 9 0 1 0;
#X connect 9 1 1 1;
#X connect 9 1 11 0;
#X connect 10 0 1 1;
#X connect 11 0 1 0;
#X connect 12 0 15 0;
#X connect 13 0 12 0;
#X connect 13 0 14 0;
#X connect 13 0 19 0;
#X connect 13 0 26 0;
#X connect 14 0 3 0;
#X connect 15 0 5 0;
#X connect 16 0 13 0;
#X connect 17 0 16 0;
#X connect 18 0 20 0;
#X connect 19 0 20 1;
#X connect 20 0 1 0;
#X connect 20 0 1 1;
#X connect 21 0 17 0;
#X connect 22 0 8 0;
#X connect 23 0 24 0;
#X connect 24 0 25 0;
#X connect 25 0 27 2;
#X connect 26 0 27 0;
#X connect 26 1 23 0;
#X connect 27 0 1 0;
#X connect 27 0 1 1;
#X connect 28 0 9 1;
