#N canvas 533 235 955 376 12;
#X floatatom 125 157 5 0 0 0 - - -;
#X floatatom 187 157 5 0 0 0 - - -;
#X floatatom 249 157 5 0 0 0 - - -;
#X floatatom 448 163 5 0 0 0 - - -;
#X floatatom 510 163 5 0 0 0 - - -;
#X floatatom 572 163 5 0 0 0 - - -;
#X obj 63 179 euclid 16 4 0, f 27;
#X obj 386 185 euclid 16 5 0, f 27;
#X obj 63 203 kick~ 100 0.5 1 1 1;
#X obj 386 209 snare~ 50 0.5 250;
#X obj 386 318 out~;
#X obj 478 39 tgl 15 0 empty empty empty 17 7 0 10 -262144 -1 -1 1
1;
#X obj 386 288 *~ 1;
#X obj 478 59 metronome 250 32;
#X obj 63 160 bng 15 250 50 0 empty empty empty 17 7 0 10 -262144 -1
-1;
#X obj 386 166 bng 15 250 50 0 empty empty empty 17 7 0 10 -262144
-1 -1;
#X floatatom 532 37 5 0 0 0 - - -;
#X floatatom 696 157 5 0 0 0 - - -;
#X floatatom 758 157 5 0 0 0 - - -;
#X floatatom 820 157 5 0 0 0 - - -;
#X obj 634 160 bng 15 250 50 0 empty empty empty 17 7 0 10 -262144
-1 -1;
#X obj 634 179 euclid 16 7 0, f 27;
#X obj 634 227 hip~ 8000;
#X obj 634 203 cymbal~ 50 1000;
#X msg 337 39 reset;
#X connect 0 0 6 1;
#X connect 1 0 6 2;
#X connect 2 0 6 3;
#X connect 3 0 7 1;
#X connect 4 0 7 2;
#X connect 5 0 7 3;
#X connect 6 0 8 0;
#X connect 7 0 9 0;
#X connect 8 0 12 0;
#X connect 9 0 12 0;
#X connect 11 0 13 0;
#X connect 12 0 10 0;
#X connect 12 0 10 1;
#X connect 13 0 14 0;
#X connect 13 0 15 0;
#X connect 13 0 20 0;
#X connect 14 0 6 0;
#X connect 15 0 7 0;
#X connect 16 0 13 1;
#X connect 17 0 21 1;
#X connect 18 0 21 2;
#X connect 19 0 21 3;
#X connect 20 0 21 0;
#X connect 21 0 23 0;
#X connect 22 0 12 0;
#X connect 23 0 22 0;
#X connect 24 0 6 0;
#X connect 24 0 7 0;
#X connect 24 0 21 0;
