#N canvas 622 168 450 300 12;
#X obj 146 81 timer;
#X floatatom 146 105 10 0 0 0 - - -;
#X obj 146 213 cymbal~ 50 800;
#X obj 146 237 out~;
#X obj 146 37 bng 15 250 50 0 empty empty empty 17 7 0 10 -262144 -1
-1;
#X obj 146 57 t b b;
#X obj 146 128 t b f;
#X obj 146 152 metro;
#X connect 0 0 1 0;
#X connect 1 0 6 0;
#X connect 2 0 3 0;
#X connect 2 0 3 1;
#X connect 4 0 5 0;
#X connect 5 0 0 0;
#X connect 5 1 0 1;
#X connect 6 0 7 0;
#X connect 6 1 7 1;
#X connect 7 0 2 0;
