#N canvas 730 291 352 240 12;
#X msg 28 23 8;
#X obj 28 47 msphid;
#X obj 28 71 route axis1 axis2;
#X floatatom 28 95 5 0 0 0 - - -;
#X floatatom 86 95 5 0 0 0 - - -;
#X obj 28 118 xy2deg, f 9;
#X floatatom 28 142 5 0 0 0 - - -;
#X obj 28 190 bng 15 250 50 0 empty empty empty 17 7 0 10 -262144 -1
-1;
#X obj 62 190 bng 15 250 50 0 empty empty empty 17 7 0 10 -262144 -1
-1;
#X obj 97 190 bng 15 250 50 0 empty empty empty 17 7 0 10 -262144 -1
-1;
#X obj 131 190 bng 15 250 50 0 empty empty empty 17 7 0 10 -262144
-1 -1;
#X obj 166 190 bng 15 250 50 0 empty empty empty 17 7 0 10 -262144
-1 -1;
#X obj 201 190 bng 15 250 50 0 empty empty empty 17 7 0 10 -262144
-1 -1;
#X obj 235 190 bng 15 250 50 0 empty empty empty 17 7 0 10 -262144
-1 -1;
#X obj 270 190 bng 15 250 50 0 empty empty empty 17 7 0 10 -262144
-1 -1;
#X obj 28 165 sieverange 40 80 120 160 200 240 280 320;
#X obj 305 190 bng 15 250 50 0 empty empty empty 17 7 0 10 -262144
-1 -1;
#X connect 0 0 1 0;
#X connect 1 0 2 0;
#X connect 2 0 3 0;
#X connect 2 1 4 0;
#X connect 3 0 5 0;
#X connect 4 0 5 1;
#X connect 5 0 6 0;
#X connect 6 0 15 0;
#X connect 15 0 7 0;
#X connect 15 1 8 0;
#X connect 15 2 9 0;
#X connect 15 3 10 0;
#X connect 15 4 11 0;
#X connect 15 5 12 0;
#X connect 15 6 13 0;
#X connect 15 7 14 0;
#X connect 15 8 16 0;
