#N canvas 687 169 529 444 12;
#X obj 121 56 tabwrite~ output;
#X obj 237 56 table output;
#X obj 104 281 tgl 15 0 empty empty empty 17 7 0 10 -262144 -1 -1 0
1;
#X obj 20 37 metro 5;
#X obj 24 113 metro 5;
#X obj 248 132 table output2;
#X obj 125 132 tabwrite~ output2;
#X msg 174 259 symbol tri;
#X msg 193 282 symbol sqr;
#X msg 224 307 symbol saw;
#X msg 272 332 symbol sin;
#X floatatom 385 222 5 0 0 0 - - -;
#X obj 121 32 lfo tri 1;
#X obj 125 108 lfo~ tri 1;
#X connect 2 0 3 0;
#X connect 2 0 4 0;
#X connect 3 0 0 0;
#X connect 4 0 6 0;
#X connect 7 0 12 0;
#X connect 7 0 13 0;
#X connect 8 0 12 0;
#X connect 8 0 13 0;
#X connect 9 0 12 0;
#X connect 9 0 13 0;
#X connect 10 0 12 0;
#X connect 10 0 13 0;
#X connect 11 0 12 1;
#X connect 11 0 13 1;
#X connect 12 0 0 0;
#X connect 13 0 6 0;
