#N canvas 0 23 1280 755 12;
#X obj 71 133 * 1;
#X floatatom 71 157 5 0 0 0 - - -;
#X floatatom 111 157 5 0 0 0 - - -;
#X floatatom 151 157 5 0 0 0 - - -;
#X floatatom 191 157 5 0 0 0 - - -;
#X floatatom 231 157 5 0 0 0 - - -;
#X floatatom 271 157 5 0 0 0 - - -;
#X floatatom 311 157 5 0 0 0 - - -;
#X floatatom 351 157 5 0 0 0 - - -;
#X obj 53 308 f;
#X obj 92 308 f;
#X obj 92 288 bng 15 250 50 0 empty empty empty 17 7 0 10 -262144 -1
-1;
#X obj 132 308 f;
#X obj 132 288 bng 15 250 50 0 empty empty empty 17 7 0 10 -262144
-1 -1;
#X obj 172 308 f;
#X obj 172 288 bng 15 250 50 0 empty empty empty 17 7 0 10 -262144
-1 -1;
#X obj 212 308 f;
#X obj 212 288 bng 15 250 50 0 empty empty empty 17 7 0 10 -262144
-1 -1;
#X obj 252 308 f;
#X obj 252 288 bng 15 250 50 0 empty empty empty 17 7 0 10 -262144
-1 -1;
#X obj 292 308 f;
#X obj 292 288 bng 15 250 50 0 empty empty empty 17 7 0 10 -262144
-1 -1;
#X obj 332 308 f;
#X obj 332 288 bng 15 250 50 0 empty empty empty 17 7 0 10 -262144
-1 -1;
#X obj 53 380 ahdsr~ 5 100 200 0.4 500;
#X obj 53 332 t b f;
#X obj 92 332 t b f;
#X obj 132 332 t b f;
#X obj 172 332 t b f;
#X obj 212 332 t b f;
#X obj 252 332 t b f;
#X obj 292 332 t b f;
#X obj 332 332 t b f;
#X obj 952 705 out~;
#X floatatom 9 115 5 0 0 0 - - -;
#X obj 971 79 tgl 15 0 empty empty empty 17 7 0 10 -262144 -1 -1 1
1;
#X obj 53 590 *~, f 5;
#X obj 401 678 *~ 1, f 19;
#X obj 94 404 ahdsr~ 5 100 200 0.4 500;
#X obj 94 590 *~, f 5;
#X obj 133 428 ahdsr~ 5 100 200 0.4 500;
#X obj 133 590 *~, f 5;
#X obj 174 452 ahdsr~ 5 100 200 0.4 500;
#X obj 174 590 *~, f 5;
#X obj 214 476 ahdsr~ 5 100 200 0.4 500;
#X obj 214 590 *~, f 5;
#X obj 255 500 ahdsr~ 5 100 200 0.4 500;
#X obj 255 590 *~, f 5;
#X obj 294 524 ahdsr~ 5 100 200 0.4 500;
#X obj 294 591 *~, f 5;
#X obj 335 548 ahdsr~ 5 100 200 0.4 500;
#X obj 335 591 *~, f 5;
#X floatatom 1024 80 5 0 0 0 - - -;
#X obj 53 288 bng 15 250 50 0 empty empty empty 17 7 0 10 -262144 -1
-1;
#X obj 971 623 ahdsr~ 5 100 200 0.4 500;
#X obj 971 603 bng 15 250 50 0 empty empty empty 17 7 0 10 -262144
-1 -1;
#X obj 971 647 scaled~ 0 1 0 4000;
#X obj 952 671 vcf~ 7;
#X obj 85 356 phasor~;
#X obj 124 356 phasor~;
#X obj 164 356 phasor~;
#X obj 204 356 phasor~;
#X obj 244 356 phasor~;
#X obj 284 356 phasor~;
#X obj 324 356 phasor~;
#X obj 364 356 phasor~;
#X obj 971 239 t b f;
#X obj 111 133 * 1;
#X obj 151 133 * 1;
#X obj 191 133 * 1;
#X obj 231 133 * 1;
#X obj 271 133 * 1;
#X obj 311 133 * 1;
#X obj 351 133 * 1;
#X floatatom 57 73 5 0 10 0 - - -;
#X floatatom 97 73 5 0 10 0 - - -;
#X floatatom 137 73 5 0 10 0 - - -;
#X floatatom 177 73 5 0 10 0 - - -;
#X floatatom 217 73 5 0 10 0 - - -;
#X floatatom 257 73 5 0 10 0 - - -;
#X floatatom 297 73 5 0 10 0 - - -;
#X floatatom 337 73 5 0 10 0 - - -;
#X obj 57 96 t b f;
#X obj 97 96 t b f;
#X obj 137 96 t b f;
#X obj 177 96 t b f;
#X obj 217 96 t b f;
#X obj 257 96 t b f;
#X obj 297 96 t b f;
#X obj 337 96 t b f;
#X msg 57 49 1;
#X msg 97 49 2;
#X msg 137 49 3;
#X msg 177 49 4;
#X msg 217 49 5;
#X msg 257 49 6;
#X msg 297 49 7;
#X msg 337 49 8;
#X obj 57 2 loadbang;
#X obj 57 26 bng 15 250 50 0 empty empty empty 17 7 0 10 -262144 -1
-1;
#X floatatom 971 216 5 0 0 0 - - -;
#X obj 971 8 loadbang;
#X obj 971 32 t b b, f 8;
#X msg 1024 56 100;
#X msg 9 91 50;
#X obj 401 133 * 1;
#X floatatom 401 157 5 0 0 0 - - -;
#X floatatom 441 157 5 0 0 0 - - -;
#X floatatom 481 157 5 0 0 0 - - -;
#X floatatom 521 157 5 0 0 0 - - -;
#X floatatom 561 157 5 0 0 0 - - -;
#X floatatom 601 157 5 0 0 0 - - -;
#X floatatom 641 157 5 0 0 0 - - -;
#X floatatom 681 157 5 0 0 0 - - -;
#X obj 441 133 * 1;
#X obj 481 133 * 1;
#X obj 521 133 * 1;
#X obj 561 133 * 1;
#X obj 601 133 * 1;
#X obj 641 133 * 1;
#X obj 681 133 * 1;
#X floatatom 387 73 5 0 10 0 - - -;
#X floatatom 427 73 5 0 10 0 - - -;
#X floatatom 467 73 5 0 10 0 - - -;
#X floatatom 507 73 5 0 10 0 - - -;
#X floatatom 547 73 5 0 10 0 - - -;
#X floatatom 587 73 5 0 10 0 - - -;
#X floatatom 627 73 5 0 10 0 - - -;
#X floatatom 667 73 5 0 10 0 - - -;
#X obj 387 96 t b f;
#X obj 427 96 t b f;
#X obj 467 96 t b f;
#X obj 507 96 t b f;
#X obj 547 96 t b f;
#X obj 587 96 t b f;
#X obj 627 96 t b f;
#X obj 667 96 t b f;
#X msg 387 49 9;
#X msg 427 49 10;
#X msg 467 49 11;
#X msg 507 49 12;
#X msg 547 49 13;
#X msg 587 49 14;
#X msg 627 49 15;
#X msg 667 49 16;
#X obj 971 103 metronome 250 16;
#X obj 383 308 f;
#X obj 422 308 f;
#X obj 422 288 bng 15 250 50 0 empty empty empty 17 7 0 10 -262144
-1 -1;
#X obj 462 308 f;
#X obj 462 288 bng 15 250 50 0 empty empty empty 17 7 0 10 -262144
-1 -1;
#X obj 502 308 f;
#X obj 502 288 bng 15 250 50 0 empty empty empty 17 7 0 10 -262144
-1 -1;
#X obj 542 308 f;
#X obj 542 288 bng 15 250 50 0 empty empty empty 17 7 0 10 -262144
-1 -1;
#X obj 582 308 f;
#X obj 582 288 bng 15 250 50 0 empty empty empty 17 7 0 10 -262144
-1 -1;
#X obj 622 308 f;
#X obj 622 288 bng 15 250 50 0 empty empty empty 17 7 0 10 -262144
-1 -1;
#X obj 662 308 f;
#X obj 662 288 bng 15 250 50 0 empty empty empty 17 7 0 10 -262144
-1 -1;
#X obj 383 380 ahdsr~ 5 100 200 0.4 500;
#X obj 383 332 t b f;
#X obj 422 332 t b f;
#X obj 462 332 t b f;
#X obj 502 332 t b f;
#X obj 542 332 t b f;
#X obj 582 332 t b f;
#X obj 622 332 t b f;
#X obj 662 332 t b f;
#X obj 424 404 ahdsr~ 5 100 200 0.4 500;
#X obj 463 428 ahdsr~ 5 100 200 0.4 500;
#X obj 504 452 ahdsr~ 5 100 200 0.4 500;
#X obj 544 476 ahdsr~ 5 100 200 0.4 500;
#X obj 585 500 ahdsr~ 5 100 200 0.4 500;
#X obj 624 524 ahdsr~ 5 100 200 0.4 500;
#X obj 665 548 ahdsr~ 5 100 200 0.4 500;
#X obj 383 288 bng 15 250 50 0 empty empty empty 17 7 0 10 -262144
-1 -1;
#X obj 415 356 phasor~;
#X obj 454 356 phasor~;
#X obj 494 356 phasor~;
#X obj 534 356 phasor~;
#X obj 574 356 phasor~;
#X obj 614 356 phasor~;
#X obj 654 356 phasor~;
#X obj 694 356 phasor~;
#X obj 53 258 sel 1 2 3 4 5 6 7 8 9 10 11 12 13 14 15 16, f 93;
#X obj 384 590 *~, f 5;
#X obj 425 590 *~, f 5;
#X obj 464 590 *~, f 5;
#X obj 505 590 *~, f 5;
#X obj 545 590 *~, f 5;
#X obj 586 590 *~, f 5;
#X obj 625 591 *~, f 5;
#X obj 666 591 *~, f 5;
#X connect 0 0 1 0;
#X connect 1 0 9 1;
#X connect 2 0 10 1;
#X connect 3 0 12 1;
#X connect 4 0 14 1;
#X connect 5 0 16 1;
#X connect 6 0 18 1;
#X connect 7 0 20 1;
#X connect 8 0 22 1;
#X connect 9 0 25 0;
#X connect 10 0 26 0;
#X connect 11 0 10 0;
#X connect 12 0 27 0;
#X connect 13 0 12 0;
#X connect 14 0 28 0;
#X connect 15 0 14 0;
#X connect 16 0 29 0;
#X connect 17 0 16 0;
#X connect 18 0 30 0;
#X connect 19 0 18 0;
#X connect 20 0 31 0;
#X connect 21 0 20 0;
#X connect 22 0 32 0;
#X connect 23 0 22 0;
#X connect 24 0 36 0;
#X connect 25 0 24 0;
#X connect 25 1 58 0;
#X connect 26 0 38 0;
#X connect 26 1 59 0;
#X connect 27 0 40 0;
#X connect 27 1 60 0;
#X connect 28 0 42 0;
#X connect 28 1 61 0;
#X connect 29 0 44 0;
#X connect 29 1 62 0;
#X connect 30 0 46 0;
#X connect 30 1 63 0;
#X connect 31 0 48 0;
#X connect 31 1 64 0;
#X connect 32 0 50 0;
#X connect 32 1 65 0;
#X connect 34 0 0 0;
#X connect 34 0 67 0;
#X connect 34 0 69 0;
#X connect 34 0 70 0;
#X connect 34 0 71 0;
#X connect 34 0 72 0;
#X connect 34 0 73 0;
#X connect 34 0 68 0;
#X connect 34 0 105 0;
#X connect 34 0 120 0;
#X connect 34 0 119 0;
#X connect 34 0 118 0;
#X connect 34 0 117 0;
#X connect 34 0 116 0;
#X connect 34 0 115 0;
#X connect 34 0 114 0;
#X connect 35 0 145 0;
#X connect 36 0 37 0;
#X connect 37 0 57 0;
#X connect 38 0 39 0;
#X connect 39 0 37 0;
#X connect 40 0 41 0;
#X connect 41 0 37 0;
#X connect 42 0 43 0;
#X connect 43 0 37 0;
#X connect 44 0 45 0;
#X connect 45 0 37 0;
#X connect 46 0 47 0;
#X connect 47 0 37 0;
#X connect 48 0 49 0;
#X connect 49 0 37 0;
#X connect 50 0 51 0;
#X connect 51 0 37 0;
#X connect 52 0 145 1;
#X connect 53 0 9 0;
#X connect 54 0 56 0;
#X connect 55 0 54 0;
#X connect 56 0 57 1;
#X connect 57 0 33 1;
#X connect 57 0 33 0;
#X connect 58 0 36 1;
#X connect 59 0 39 1;
#X connect 60 0 41 1;
#X connect 61 0 43 1;
#X connect 62 0 45 1;
#X connect 63 0 47 1;
#X connect 64 0 49 1;
#X connect 65 0 51 1;
#X connect 66 0 55 0;
#X connect 66 1 186 0;
#X connect 67 0 2 0;
#X connect 68 0 3 0;
#X connect 69 0 4 0;
#X connect 70 0 5 0;
#X connect 71 0 6 0;
#X connect 72 0 7 0;
#X connect 73 0 8 0;
#X connect 74 0 82 0;
#X connect 75 0 83 0;
#X connect 76 0 84 0;
#X connect 77 0 85 0;
#X connect 78 0 86 0;
#X connect 79 0 87 0;
#X connect 80 0 88 0;
#X connect 81 0 89 0;
#X connect 82 0 34 0;
#X connect 82 1 0 1;
#X connect 83 0 34 0;
#X connect 83 1 67 1;
#X connect 84 0 34 0;
#X connect 84 1 68 1;
#X connect 85 0 34 0;
#X connect 85 1 69 1;
#X connect 86 0 34 0;
#X connect 86 1 70 1;
#X connect 87 0 34 0;
#X connect 87 1 71 1;
#X connect 88 0 34 0;
#X connect 88 1 72 1;
#X connect 89 0 34 0;
#X connect 89 1 73 1;
#X connect 90 0 74 0;
#X connect 91 0 75 0;
#X connect 92 0 76 0;
#X connect 93 0 77 0;
#X connect 94 0 78 0;
#X connect 95 0 79 0;
#X connect 96 0 80 0;
#X connect 97 0 81 0;
#X connect 98 0 99 0;
#X connect 99 0 90 0;
#X connect 99 0 97 0;
#X connect 99 0 96 0;
#X connect 99 0 95 0;
#X connect 99 0 94 0;
#X connect 99 0 93 0;
#X connect 99 0 92 0;
#X connect 99 0 91 0;
#X connect 99 0 104 0;
#X connect 99 0 137 0;
#X connect 99 0 144 0;
#X connect 99 0 143 0;
#X connect 99 0 142 0;
#X connect 99 0 141 0;
#X connect 99 0 140 0;
#X connect 99 0 139 0;
#X connect 99 0 138 0;
#X connect 100 0 66 0;
#X connect 101 0 102 0;
#X connect 102 0 35 0;
#X connect 102 1 103 0;
#X connect 103 0 52 0;
#X connect 104 0 34 0;
#X connect 105 0 106 0;
#X connect 106 0 146 1;
#X connect 107 0 147 1;
#X connect 108 0 149 1;
#X connect 109 0 151 1;
#X connect 110 0 153 1;
#X connect 111 0 155 1;
#X connect 112 0 157 1;
#X connect 113 0 159 1;
#X connect 114 0 107 0;
#X connect 115 0 108 0;
#X connect 116 0 109 0;
#X connect 117 0 110 0;
#X connect 118 0 111 0;
#X connect 119 0 112 0;
#X connect 120 0 113 0;
#X connect 121 0 129 0;
#X connect 122 0 130 0;
#X connect 123 0 131 0;
#X connect 124 0 132 0;
#X connect 125 0 133 0;
#X connect 126 0 134 0;
#X connect 127 0 135 0;
#X connect 128 0 136 0;
#X connect 129 0 34 0;
#X connect 129 1 105 1;
#X connect 130 0 34 0;
#X connect 130 1 114 1;
#X connect 131 0 34 0;
#X connect 131 1 115 1;
#X connect 132 0 34 0;
#X connect 132 1 116 1;
#X connect 133 0 34 0;
#X connect 133 1 117 1;
#X connect 134 0 34 0;
#X connect 134 1 118 1;
#X connect 135 0 34 0;
#X connect 135 1 119 1;
#X connect 136 0 34 0;
#X connect 136 1 120 1;
#X connect 137 0 121 0;
#X connect 138 0 122 0;
#X connect 139 0 123 0;
#X connect 140 0 124 0;
#X connect 141 0 125 0;
#X connect 142 0 126 0;
#X connect 143 0 127 0;
#X connect 144 0 128 0;
#X connect 145 0 100 0;
#X connect 146 0 162 0;
#X connect 147 0 163 0;
#X connect 148 0 147 0;
#X connect 149 0 164 0;
#X connect 150 0 149 0;
#X connect 151 0 165 0;
#X connect 152 0 151 0;
#X connect 153 0 166 0;
#X connect 154 0 153 0;
#X connect 155 0 167 0;
#X connect 156 0 155 0;
#X connect 157 0 168 0;
#X connect 158 0 157 0;
#X connect 159 0 169 0;
#X connect 160 0 159 0;
#X connect 161 0 187 0;
#X connect 162 0 161 0;
#X connect 162 1 178 0;
#X connect 163 0 170 0;
#X connect 163 1 179 0;
#X connect 164 0 171 0;
#X connect 164 1 180 0;
#X connect 165 0 172 0;
#X connect 165 1 181 0;
#X connect 166 0 173 0;
#X connect 166 1 182 0;
#X connect 167 0 174 0;
#X connect 167 1 183 0;
#X connect 168 0 175 0;
#X connect 168 1 184 0;
#X connect 169 0 176 0;
#X connect 169 1 185 0;
#X connect 170 0 188 0;
#X connect 171 0 189 0;
#X connect 172 0 190 0;
#X connect 173 0 191 0;
#X connect 174 0 192 0;
#X connect 175 0 193 0;
#X connect 176 0 194 0;
#X connect 177 0 146 0;
#X connect 178 0 187 1;
#X connect 179 0 188 1;
#X connect 180 0 189 1;
#X connect 181 0 190 1;
#X connect 182 0 191 1;
#X connect 183 0 192 1;
#X connect 184 0 193 1;
#X connect 185 0 194 1;
#X connect 186 0 53 0;
#X connect 186 1 11 0;
#X connect 186 2 13 0;
#X connect 186 3 15 0;
#X connect 186 4 17 0;
#X connect 186 5 19 0;
#X connect 186 6 21 0;
#X connect 186 7 23 0;
#X connect 186 8 177 0;
#X connect 186 9 148 0;
#X connect 186 10 150 0;
#X connect 186 11 152 0;
#X connect 186 12 154 0;
#X connect 186 13 156 0;
#X connect 186 14 158 0;
#X connect 186 15 160 0;
#X connect 187 0 37 0;
#X connect 188 0 37 0;
#X connect 189 0 37 0;
#X connect 190 0 37 0;
#X connect 191 0 37 0;
#X connect 192 0 37 0;
#X connect 193 0 37 0;
#X connect 194 0 37 0;
