#N canvas 599 144 201 388 12;
#X obj 4 142 + 1;
#X obj 4 166 colundi;
#X obj 36 214 osc~;
#X obj 4 338 out~;
#X obj 4 30 tgl 15 0 empty empty empty 17 7 0 10 -262144 -1 -1 1 1
;
#X obj 4 190 t b f;
#X obj 4 262 *~, f 5;
#X obj 4 98 bng 15 250 50 0 empty empty empty 17 7 0 10 -262144 -1
-1;
#X obj 4 6 loadbang;
#X obj 52 300 echo~ 667 0.5;
#X obj 4 50 metro 125;
#X obj 4 74 maybe 0.3;
#X obj 4 238 ahdsr~ 5 20 100 0.4 50;
#X obj 4 118 random 38;
#X connect 0 0 1 0;
#X connect 1 0 5 0;
#X connect 2 0 6 1;
#X connect 4 0 10 0;
#X connect 5 0 12 0;
#X connect 5 1 2 0;
#X connect 6 0 3 0;
#X connect 6 0 3 1;
#X connect 6 0 9 0;
#X connect 7 0 13 0;
#X connect 8 0 4 0;
#X connect 9 0 3 0;
#X connect 9 0 3 1;
#X connect 10 0 11 0;
#X connect 11 0 7 0;
#X connect 12 0 6 0;
#X connect 13 0 0 0;
