#N canvas 427 163 754 372 12;
#X obj 13 84 tgl 15 0 empty empty empty 17 7 0 10 -262144 -1 -1 1 1
;
#X obj 13 13 loadbang;
#X obj 13 37 bng 15 250 50 0 empty empty empty 17 7 0 10 -262144 -1
-1;
#X floatatom 13 130 5 0 0 0 - - -;
#X obj 13 106 fellmetro 4, f 13;
#X obj 13 57 t b b, f 13;
#X obj 45 201 16step 440 660 770 880;
#X floatatom 45 225 5 0 0 0 - - -;
#X obj 45 177 - 1;
#X obj 13 153 t b f;
#X obj 13 296 *~, f 5;
#X obj 13 320 out~;
#X msg 101 82 1 4 100 \, 2 2 200 \, 3 1 400 \, 4 2 50;
#X obj 380 30 vsl 15 128 0 100 0 0 empty empty empty 0 -9 0 10 -262144
-1 -1 0 1;
#X obj 395 30 vsl 15 128 0 100 0 0 empty empty empty 0 -9 0 10 -262144
-1 -1 0 1;
#X obj 367 166 t b f;
#X obj 367 230 pack 1 f f;
#X obj 406 166 t b f;
#X obj 458 30 vsl 15 128 0 100 0 0 empty empty empty 0 -9 0 10 -262144
-1 -1 0 1;
#X obj 473 30 vsl 15 128 0 100 0 0 empty empty empty 0 -9 0 10 -262144
-1 -1 0 1;
#X obj 445 166 t b f;
#X obj 484 166 t b f;
#X obj 536 30 vsl 15 128 0 100 0 0 empty empty empty 0 -9 0 10 -262144
-1 -1 0 1;
#X obj 551 30 vsl 15 128 0 100 0 0 empty empty empty 0 -9 0 10 -262144
-1 -1 0 1;
#X obj 523 166 t b f;
#X obj 562 166 t b f;
#X obj 614 30 vsl 15 128 0 100 0 0 empty empty empty 0 -9 0 10 -262144
-1 -1 0 1;
#X obj 629 30 vsl 15 128 0 100 0 0 empty empty empty 0 -9 0 10 -262144
-1 -1 0 1;
#X obj 601 166 t b f;
#X obj 640 166 t b f;
#X obj 445 230 pack 2 f f;
#X obj 523 230 pack 3 f f;
#X obj 601 230 pack 4 f f;
#X obj 399 190 i;
#X obj 477 190 i;
#X obj 555 190 i;
#X obj 633 190 i;
#X obj 45 248 osc~;
#X obj 13 272 ahdsr~ 5 0 30 0 0;
#X connect 0 0 4 0;
#X connect 1 0 2 0;
#X connect 2 0 5 0;
#X connect 3 0 9 0;
#X connect 4 0 3 0;
#X connect 5 0 0 0;
#X connect 5 1 12 0;
#X connect 6 0 7 0;
#X connect 7 0 37 0;
#X connect 8 0 6 0;
#X connect 9 0 38 0;
#X connect 9 1 8 0;
#X connect 10 0 11 0;
#X connect 10 0 11 1;
#X connect 12 0 4 1;
#X connect 13 0 15 0;
#X connect 14 0 17 0;
#X connect 15 0 16 0;
#X connect 15 1 33 0;
#X connect 16 0 4 1;
#X connect 17 0 16 0;
#X connect 17 1 16 2;
#X connect 18 0 20 0;
#X connect 19 0 21 0;
#X connect 20 0 30 0;
#X connect 20 1 34 0;
#X connect 21 0 30 0;
#X connect 21 1 30 2;
#X connect 22 0 24 0;
#X connect 23 0 25 0;
#X connect 24 0 31 0;
#X connect 24 1 35 0;
#X connect 25 0 31 0;
#X connect 25 1 31 2;
#X connect 26 0 28 0;
#X connect 27 0 29 0;
#X connect 28 0 32 0;
#X connect 28 1 36 0;
#X connect 29 0 32 0;
#X connect 29 1 32 2;
#X connect 30 0 4 1;
#X connect 31 0 4 1;
#X connect 32 0 4 1;
#X connect 33 0 16 1;
#X connect 34 0 30 1;
#X connect 35 0 31 1;
#X connect 36 0 32 1;
#X connect 37 0 10 1;
#X connect 38 0 10 0;
