#N canvas 0 23 1280 755 12;
#X obj 138 666 out~;
#X obj 91 500 catch~ output-L;
#X obj 200 500 catch~ output-R;
#X obj 235 200 phasor~;
#X obj 231 439 throw~ output-L;
#X obj 376 438 throw~ output-R;
#X msg 305 151 0;
#X msg 235 151 0.112785;
#X obj 235 224 percentgraph~;
#X obj 305 175 t f f;
#X obj 371 64 bng 15 250 50 0 empty empty empty 17 7 0 10 -262144 -1
-1;
#X floatatom 370 131 5 0 0 0 - - -;
#X obj 595 187 phasor~;
#X obj 595 435 throw~ output-L;
#X obj 722 431 throw~ output-R;
#X msg 595 138 0.112785;
#X obj 595 211 percentgraph~;
#X obj 731 51 bng 15 250 50 0 empty empty empty 17 7 0 10 -262144 -1
-1;
#X obj 375 411 *~ 0.5;
#X obj 593 388 *~ 0.5;
#X obj 440 258 hsl 128 15 0 1 0 0 empty empty empty -2 -8 0 10 -262144
-1 -1 6350 1;
#X floatatom 437 278 5 0 0 0 - - -;
#X obj 240 537 echo~ 250 0.7;
#X obj 74 550 echo~ 250 0.7;
#X obj 370 83 randomline 300 2000;
#X obj 730 70 randomline 300 2000;
#X obj 241 576 ducker~ 1 50;
#X obj 8 587 ducker~ 1 50;
#X obj 408 577 bng 15 250 50 0 empty empty empty 17 7 0 10 -262144
-1 -1;
#X obj 353 634 *~;
#X obj 57 630 *~;
#X obj 408 509 tgl 15 0 empty empty empty 17 7 0 10 -262144 -1 -1 1
1;
#X obj 408 529 metronome 400 16;
#X obj 408 553 onbeats 1 5 7 9 13 15 16;
#X obj 542 9 loadbang;
#X obj 408 483 loadbang;
#X obj 21 29 audioclip~ simon 427008;
#X obj 21 7 __audioclip_load simon 427008;
#X obj 236 374 scrub~ simon 427008;
#X obj 595 361 scrub~ simon 427008;
#X obj 370 107 scaled 0 1 -0.2 0.2;
#X obj 583 577 bng 15 250 50 0 empty empty empty 17 7 0 10 -262144
-1 -1;
#X obj 583 553 onbeats 3 7 11 15;
#X obj 654 672 *~;
#X obj 601 663 *~;
#X obj 583 603 ahdsr~ 5 0 0 1 200;
#X obj 730 94 scaled 0 1 40 400;
#X obj 407 603 ahdsr~ 5 0 200 0.4 400;
#X obj 900 573 vcf~ 4;
#X obj 918 492 sig~;
#X floatatom 918 463 5 0 0 0 - - -;
#X obj 854 505 noise~;
#X floatatom 750 134 5 0 0 0 - - -;
#X obj 448 707 echo~ 200 0.7;
#X obj 586 706 echo~ 200 0.7;
#X obj 448 731 hip~ 800;
#X obj 586 730 hip~ 800;
#X floatatom 908 677 5 0 0 0 - - -;
#X obj 750 157 + 400;
#X floatatom 750 181 5 0 0 0 - - -;
#X obj 854 529 *~ 0.5;
#X msg 672 138 0.5;
#X msg 444 227 0.5;
#X connect 1 0 23 0;
#X connect 1 0 27 0;
#X connect 2 0 22 0;
#X connect 2 0 26 0;
#X connect 3 0 8 0;
#X connect 6 0 9 0;
#X connect 7 0 3 0;
#X connect 8 0 38 0;
#X connect 9 0 3 0;
#X connect 9 1 3 1;
#X connect 10 0 24 0;
#X connect 11 0 3 0;
#X connect 11 0 12 0;
#X connect 12 0 16 0;
#X connect 15 0 12 0;
#X connect 16 0 39 0;
#X connect 17 0 25 0;
#X connect 18 0 5 0;
#X connect 19 0 13 0;
#X connect 20 0 21 0;
#X connect 21 0 19 1;
#X connect 21 0 18 1;
#X connect 22 0 26 1;
#X connect 23 0 27 1;
#X connect 24 0 40 0;
#X connect 25 0 46 0;
#X connect 26 0 29 0;
#X connect 26 1 29 0;
#X connect 27 0 30 0;
#X connect 27 1 30 0;
#X connect 28 0 47 0;
#X connect 29 0 0 1;
#X connect 30 0 0 0;
#X connect 31 0 32 0;
#X connect 32 0 33 0;
#X connect 32 0 42 0;
#X connect 33 0 28 0;
#X connect 34 0 10 0;
#X connect 34 0 17 0;
#X connect 34 0 15 0;
#X connect 34 0 7 0;
#X connect 34 0 61 0;
#X connect 34 0 62 0;
#X connect 35 0 31 0;
#X connect 38 0 4 0;
#X connect 38 1 18 0;
#X connect 39 0 19 0;
#X connect 39 1 14 0;
#X connect 40 0 11 0;
#X connect 41 0 45 0;
#X connect 42 0 41 0;
#X connect 43 0 0 1;
#X connect 43 0 54 0;
#X connect 44 0 0 0;
#X connect 44 0 53 0;
#X connect 45 0 43 1;
#X connect 45 0 44 1;
#X connect 46 0 45 5;
#X connect 46 0 52 0;
#X connect 47 0 29 1;
#X connect 47 0 30 1;
#X connect 48 0 43 0;
#X connect 48 0 44 0;
#X connect 49 0 48 1;
#X connect 50 0 49 0;
#X connect 51 0 60 0;
#X connect 52 0 58 0;
#X connect 53 0 55 0;
#X connect 54 0 56 0;
#X connect 55 0 0 0;
#X connect 56 0 0 1;
#X connect 57 0 56 1;
#X connect 57 0 55 1;
#X connect 58 0 59 0;
#X connect 59 0 50 0;
#X connect 60 0 48 0;
#X connect 61 0 12 1;
#X connect 62 0 20 0;
