#N canvas 114 23 955 755 12;
#N canvas 106 124 972 472 env~ 0;
#X obj 57 243 metronome 32 250;
#X obj 57 223 tgl 15 0 empty empty empty 17 7 0 10 -262144 -1 -1 1
1;
#X obj 57 267 ahdsr~ 5 0 20 0.4 20, f 108;
#X floatatom 111 220 5 0 0 0 - - -;
#X obj 111 128 bng 15 250 50 0 empty empty empty 17 7 0 10 -262144
-1 -1;
#X obj 111 172 randomline 300 2000;
#X obj 111 84 tgl 15 0 empty empty empty 17 7 0 10 -262144 -1 -1 1
1;
#X obj 111 104 metro 2000;
#X obj 111 148 maybe 0.5;
#X obj 57 291 outlet~;
#X obj 57 29 inlet;
#X floatatom 253 220 5 0 0 0 - - -;
#X obj 253 172 randomline 300 2000;
#X obj 253 196 scaled 0 1 3 50;
#X obj 253 148 maybe 0.9;
#X floatatom 810 213 5 0 0 0 - - -;
#X obj 810 165 randomline 300 2000;
#X obj 810 141 maybe 0.9;
#X obj 810 189 scaled 0 1 15 20;
#X obj 111 196 scaled 0 1 20 500;
#X connect 0 0 2 0;
#X connect 1 0 0 0;
#X connect 2 0 9 0;
#X connect 3 0 0 1;
#X connect 4 0 8 0;
#X connect 4 0 14 0;
#X connect 4 0 17 0;
#X connect 5 0 19 0;
#X connect 6 0 7 0;
#X connect 7 0 4 0;
#X connect 8 0 5 0;
#X connect 10 0 6 0;
#X connect 10 0 1 0;
#X connect 11 0 2 1;
#X connect 12 0 13 0;
#X connect 13 0 11 0;
#X connect 14 0 12 0;
#X connect 15 0 2 5;
#X connect 16 0 18 0;
#X connect 17 0 16 0;
#X connect 18 0 15 0;
#X connect 19 0 3 0;
#X restore 682 301 pd env~;
#X obj 682 281 tgl 15 0 empty empty empty 17 7 0 10 -262144 -1 -1 1
1;
#X obj 381 176 chord aeolian 60;
#X obj 381 200 unpack f f f f, f 32;
#X obj 381 296 saw~;
#X obj 454 296 saw~;
#X obj 528 296 saw~;
#X obj 602 296 saw~;
#X obj 381 224 mtof;
#X obj 454 224 mtof;
#X obj 528 224 mtof;
#X obj 602 224 mtof;
#X obj 381 320 *~;
#X obj 454 320 *~;
#X obj 528 320 *~;
#X obj 602 320 *~;
#X obj 381 344 pan~;
#X obj 454 344 pan~;
#X obj 528 344 pan~;
#X obj 602 344 pan~;
#X obj 491 693 out~;
#N canvas 0 23 164 193 panner 0;
#X obj 10 108 randomline 300 700;
#X obj 10 132 scaled 0 1 0.3 0.7;
#X obj 10 156 outlet;
#X obj 6 5 inlet;
#X obj 6 29 tgl 15 0 empty empty empty 17 7 0 10 -262144 -1 -1 0 1
;
#X obj 6 49 sel 0;
#X obj 38 73 bng 15 250 50 0 empty empty empty 17 7 0 10 -262144 -1
-1;
#X connect 0 0 1 0;
#X connect 1 0 2 0;
#X connect 3 0 4 0;
#X connect 4 0 5 0;
#X connect 5 0 0 1;
#X connect 5 1 6 0;
#X connect 6 0 0 0;
#X restore 96 325 pd panner;
#N canvas 0 23 164 193 panner 0;
#X obj 10 108 randomline 300 700;
#X obj 10 132 scaled 0 1 0.3 0.7;
#X obj 10 156 outlet;
#X obj 6 5 inlet;
#X obj 6 29 tgl 15 0 empty empty empty 17 7 0 10 -262144 -1 -1 0 1
;
#X obj 6 49 sel 0;
#X obj 38 73 bng 15 250 50 0 empty empty empty 17 7 0 10 -262144 -1
-1;
#X connect 0 0 1 0;
#X connect 1 0 2 0;
#X connect 3 0 4 0;
#X connect 4 0 5 0;
#X connect 5 0 0 1;
#X connect 5 1 6 0;
#X connect 6 0 0 0;
#X restore 163 325 pd panner;
#N canvas 0 23 164 193 panner 0;
#X obj 10 108 randomline 300 700;
#X obj 10 132 scaled 0 1 0.3 0.7;
#X obj 10 156 outlet;
#X obj 6 5 inlet;
#X obj 6 29 tgl 15 0 empty empty empty 17 7 0 10 -262144 -1 -1 0 1
;
#X obj 6 49 sel 0;
#X obj 38 73 bng 15 250 50 0 empty empty empty 17 7 0 10 -262144 -1
-1;
#X connect 0 0 1 0;
#X connect 1 0 2 0;
#X connect 3 0 4 0;
#X connect 4 0 5 0;
#X connect 5 0 0 1;
#X connect 5 1 6 0;
#X connect 6 0 0 0;
#X restore 230 325 pd panner;
#N canvas 0 23 164 193 panner 0;
#X obj 10 108 randomline 300 700;
#X obj 10 132 scaled 0 1 0.3 0.7;
#X obj 10 156 outlet;
#X obj 6 5 inlet;
#X obj 6 29 tgl 15 0 empty empty empty 17 7 0 10 -262144 -1 -1 0 1
;
#X obj 6 49 sel 0;
#X obj 38 73 bng 15 250 50 0 empty empty empty 17 7 0 10 -262144 -1
-1;
#X connect 0 0 1 0;
#X connect 1 0 2 0;
#X connect 3 0 4 0;
#X connect 4 0 5 0;
#X connect 5 0 0 1;
#X connect 5 1 6 0;
#X connect 6 0 0 0;
#X restore 297 325 pd panner;
#X obj 221 285 tgl 15 0 empty empty empty 17 7 0 10 -262144 -1 -1 0
1;
#X obj 381 109 bng 15 250 50 0 empty empty empty 17 7 0 10 -262144
-1 -1;
#X obj 381 17 loadbang;
#X obj 381 41 tgl 15 0 empty empty empty 17 7 0 10 -262144 -1 -1 1
1;
#X obj 381 85 maybe 0.2;
#X floatatom 381 153 5 0 0 0 - - -;
#X obj 381 129 randomsel 1 2 4 5 6 7;
#X obj 381 61 metro 1000;
#X obj 381 272 line;
#X obj 454 272 line;
#X obj 528 272 line;
#X obj 602 272 line;
#X obj 381 248 pack f f;
#X obj 454 248 pack f f;
#X obj 528 248 pack f f;
#X obj 602 248 pack f f;
#X floatatom 280 230 5 0 0 0 - - -;
#X obj 280 180 loadbang;
#X obj 682 257 loadbang;
#X obj 366 461 ducker~;
#X obj 612 459 ducker~;
#X floatatom 515 399 5 0 0 0 - - -;
#X floatatom 515 421 5 0 0.9 0 - - -;
#X msg 280 206 5000;
#X obj 462 537 freezer~, f 11;
#X obj 444 591 *~;
#X obj 518 591 *~;
#X obj 237 518 t b b;
#X obj 444 615 ducker~;
#X obj 518 615 ducker~;
#X obj 237 498 bng 15 250 50 0 empty empty empty 17 7 0 10 -262144
-1 -1;
#X obj 237 590 percentgraph~;
#X obj 502 561 hip~ 1000;
#X obj 664 554 hip~ 1000;
#X obj 256 430 osc~;
#X obj 415 554 lop~ 400;
#X obj 590 560 lop~ 400;
#X obj 289 624 lop~ 200;
#X obj 604 633 lop~ 200;
#X floatatom 256 408 5 0 0 0 - - -;
#X obj 472 667 hip~ 5;
#X obj 535 667 hip~ 5;
#X obj 124 194 maybe 0.5;
#X obj 124 126 loadbang;
#X obj 124 150 tgl 15 0 empty empty empty 17 7 0 10 -262144 -1 -1 1
1;
#X obj 124 218 t b b, f 10;
#X msg 191 242 1;
#X msg 124 266 0;
#X obj 124 242 del 2000;
#X obj 381 398 vibrato~ 20 10;
#X obj 628 398 vibrato~ 20 10;
#X obj 237 566 *~;
#X obj 256 474 vibrato~;
#X obj 17 580 vcf~ 2;
#X obj 63 580 vcf~ 2;
#X obj 36 530 scaled~ 0 1 100 2000;
#X obj 22 456 pink~;
#X obj 70 472 pink~;
#X obj 237 542 ahdsr~ 200 0 5000 0.2 50;
#X obj 147 379 loadbang;
#X obj 147 403 tgl 15 0 empty empty empty 17 7 0 10 -262144 -1 -1 1
1;
#X obj 147 423 metro 10000;
#X obj 147 447 maybe 0.1;
#X obj 812 200 loadbang;
#X obj 812 224 tgl 15 0 empty empty empty 17 7 0 10 -262144 -1 -1 1
1;
#X obj 812 244 metro 20000;
#X msg 812 292 \$1 500;
#X obj 812 316 line;
#X floatatom 812 340 5 0 0 0 - - -;
#X obj 812 268 random 6;
#X obj 124 170 metro 15000;
#X obj 289 647 echo~ 100 0.85;
#X obj 604 656 echo~ 100 0.85;
#X obj 248 110 loadbang;
#X msg 248 134 1;
#X obj 256 383 / 3;
#X obj 381 435 echo~ 51 0.8;
#X obj 626 435 echo~ 50 0.8;
#X connect 0 0 15 1;
#X connect 0 0 14 1;
#X connect 0 0 13 1;
#X connect 0 0 12 1;
#X connect 1 0 0 0;
#X connect 2 0 3 0;
#X connect 3 0 8 0;
#X connect 3 1 9 0;
#X connect 3 2 10 0;
#X connect 3 3 11 0;
#X connect 4 0 12 0;
#X connect 5 0 13 0;
#X connect 6 0 14 0;
#X connect 7 0 15 0;
#X connect 8 0 37 0;
#X connect 8 0 100 0;
#X connect 9 0 38 0;
#X connect 10 0 39 0;
#X connect 11 0 40 0;
#X connect 12 0 16 0;
#X connect 13 0 17 0;
#X connect 14 0 18 0;
#X connect 15 0 19 0;
#X connect 16 0 74 0;
#X connect 16 1 75 0;
#X connect 17 0 74 0;
#X connect 17 1 75 0;
#X connect 18 0 74 0;
#X connect 18 1 75 0;
#X connect 19 0 74 0;
#X connect 19 1 75 0;
#X connect 21 0 16 1;
#X connect 22 0 17 1;
#X connect 23 0 18 1;
#X connect 24 0 19 1;
#X connect 25 0 21 0;
#X connect 25 0 24 0;
#X connect 25 0 23 0;
#X connect 25 0 22 0;
#X connect 26 0 31 0;
#X connect 27 0 28 0;
#X connect 28 0 32 0;
#X connect 29 0 26 0;
#X connect 30 0 2 0;
#X connect 31 0 30 0;
#X connect 32 0 29 0;
#X connect 33 0 4 0;
#X connect 34 0 5 0;
#X connect 35 0 6 0;
#X connect 36 0 7 0;
#X connect 37 0 33 0;
#X connect 38 0 34 0;
#X connect 39 0 35 0;
#X connect 40 0 36 0;
#X connect 41 0 37 1;
#X connect 41 0 40 1;
#X connect 41 0 39 1;
#X connect 41 0 38 1;
#X connect 42 0 48 0;
#X connect 43 0 1 0;
#X connect 44 0 49 0;
#X connect 44 0 53 1;
#X connect 44 1 49 0;
#X connect 44 1 53 1;
#X connect 45 0 49 1;
#X connect 45 0 54 1;
#X connect 45 1 49 1;
#X connect 45 1 54 1;
#X connect 46 0 102 1;
#X connect 46 0 101 1;
#X connect 47 0 102 2;
#X connect 47 0 101 2;
#X connect 48 0 41 0;
#X connect 49 0 57 0;
#X connect 49 0 60 0;
#X connect 49 1 58 0;
#X connect 49 1 61 0;
#X connect 50 0 53 0;
#X connect 50 0 62 0;
#X connect 51 0 54 0;
#X connect 51 0 63 0;
#X connect 52 0 83 0;
#X connect 52 1 49 2;
#X connect 53 0 65 0;
#X connect 53 1 65 0;
#X connect 54 0 66 0;
#X connect 54 1 66 0;
#X connect 55 0 52 0;
#X connect 56 0 50 0;
#X connect 56 0 51 0;
#X connect 56 0 80 0;
#X connect 57 0 50 1;
#X connect 58 0 51 1;
#X connect 59 0 77 0;
#X connect 60 0 50 1;
#X connect 61 0 51 1;
#X connect 62 0 96 0;
#X connect 63 0 97 0;
#X connect 64 0 59 0;
#X connect 65 0 20 0;
#X connect 66 0 20 1;
#X connect 67 0 70 0;
#X connect 68 0 69 0;
#X connect 69 0 95 0;
#X connect 70 0 73 0;
#X connect 70 1 71 0;
#X connect 71 0 25 0;
#X connect 72 0 25 0;
#X connect 73 0 72 0;
#X connect 74 0 78 0;
#X connect 74 0 44 0;
#X connect 74 0 101 0;
#X connect 75 0 79 0;
#X connect 75 0 45 0;
#X connect 75 0 102 0;
#X connect 76 0 56 0;
#X connect 77 0 49 0;
#X connect 77 0 49 1;
#X connect 78 1 65 0;
#X connect 79 1 66 0;
#X connect 80 0 78 1;
#X connect 80 0 79 1;
#X connect 81 0 78 0;
#X connect 82 0 79 0;
#X connect 83 0 76 0;
#X connect 83 0 76 1;
#X connect 84 0 85 0;
#X connect 85 0 86 0;
#X connect 86 0 87 0;
#X connect 87 0 55 0;
#X connect 88 0 89 0;
#X connect 89 0 90 0;
#X connect 90 0 94 0;
#X connect 91 0 92 0;
#X connect 92 0 93 0;
#X connect 93 0 75 2;
#X connect 93 0 74 2;
#X connect 94 0 91 0;
#X connect 95 0 67 0;
#X connect 96 0 65 0;
#X connect 97 0 66 0;
#X connect 98 0 99 0;
#X connect 99 0 30 0;
#X connect 100 0 64 0;
#X connect 101 0 44 1;
#X connect 102 0 45 1;
