#N canvas 466 409 759 344 12;
#X obj 227 115 t b b, f 12;
#X obj 308 139 colundichord;
#X obj 308 163 unpack f f f f, f 19;
#X obj 118 222 *~, f 21;
#X obj 118 276 out~;
#X obj 473 158 print;
#X obj 227 16 loadbang;
#X obj 227 40 tgl 15 0 empty empty empty 17 7 0 10 -262144 -1 -1 1
1;
#X obj 227 84 onbeats 1 3 5 7 8;
#X obj 227 60 metronome 500 8;
#X obj 308 187 osc~;
#X obj 351 187 osc~;
#X obj 394 187 osc~;
#X obj 438 187 osc~;
#X obj 118 192 *~;
#X obj 176 246 echo~ 250 0.3;
#X obj 118 169 ahdsr~ 15 0 300 0.4 300;
#X obj 35 210 kick~;
#X obj 35 188 bng 15 250 50 0 empty empty empty 17 7 0 10 -262144 -1
-1;
#X connect 0 0 16 0;
#X connect 0 1 1 0;
#X connect 1 0 2 0;
#X connect 1 0 5 0;
#X connect 2 0 10 0;
#X connect 2 1 11 0;
#X connect 2 2 12 0;
#X connect 2 3 13 0;
#X connect 3 0 4 0;
#X connect 3 0 4 1;
#X connect 3 0 15 0;
#X connect 6 0 7 0;
#X connect 7 0 9 0;
#X connect 8 0 0 0;
#X connect 9 0 8 0;
#X connect 9 0 18 0;
#X connect 10 0 3 1;
#X connect 11 0 3 1;
#X connect 12 0 3 1;
#X connect 13 0 3 1;
#X connect 14 0 3 0;
#X connect 15 0 4 0;
#X connect 15 0 4 1;
#X connect 16 0 14 0;
#X connect 16 0 14 1;
#X connect 17 0 4 0;
#X connect 17 0 4 1;
#X connect 18 0 17 0;
