#N canvas 809 193 626 496 12;
#N canvas 0 23 702 495 fm 0;
#X obj 52 50 inlet;
#X obj 52 184 mtof;
#X obj 52 368 +~;
#X obj 52 402 osc~;
#X obj 52 426 outlet~;
#X obj 193 51 inlet;
#X obj 175 240 *~;
#X obj 175 324 osc~ 40;
#X obj 175 348 *~;
#X obj 325 52 inlet;
#X obj 310 323 *~;
#X obj 52 208 sig~;
#X obj 193 215 sig~;
#X obj 52 154 t f b;
#X obj 254 72 loadbang;
#X obj 193 115 f \$1;
#X obj 325 116 f \$2;
#X text 9 26 carrier / midi pitch;
#X text 182 23 \$1 harmonicity;
#X text 293 29 \$2 modulation index;
#X obj 325 140 sig~;
#X obj 328 240 *~;
#N canvas 0 23 450 300 env 0;
#X msg 85 115 0 0 0 \, 1 5 1 \, 0 1000 6;
#X obj 85 139 vline~;
#X obj 84 84 inlet;
#X obj 85 163 outlet~;
#X connect 0 0 1 0;
#X connect 1 0 3 0;
#X connect 2 0 0 0;
#X restore 345 213 pd env;
#X connect 0 0 13 0;
#X connect 1 0 11 0;
#X connect 2 0 3 0;
#X connect 3 0 4 0;
#X connect 5 0 15 0;
#X connect 6 0 7 0;
#X connect 6 0 10 0;
#X connect 7 0 8 0;
#X connect 8 0 2 1;
#X connect 9 0 16 0;
#X connect 10 0 8 1;
#X connect 11 0 2 0;
#X connect 11 0 6 0;
#X connect 12 0 6 1;
#X connect 13 0 1 0;
#X connect 13 1 22 0;
#X connect 14 0 15 0;
#X connect 14 0 16 0;
#X connect 15 0 12 0;
#X connect 16 0 20 0;
#X connect 20 0 21 0;
#X connect 21 0 10 1;
#X connect 22 0 21 1;
#X restore 53 303 pd fm;
#X f 19;
#X obj 53 397 *~ 0.2;
#X obj 53 421 dac~;
#X floatatom 42 239 5 0 0 0 - - -;
#X floatatom 82 238 5 0 0 0 - - -;
#X floatatom 127 238 5 0 0 0 - - -;
#X msg 39 213 60;
#X msg 81 208 2;
#X msg 127 203 2;
#X obj 57 135 loadbang;
#N canvas 0 23 450 300 env 0;
#X obj 85 139 vline~;
#X obj 84 84 inlet;
#X obj 85 163 outlet~;
#X msg 85 114 0 0 0 \, 1 5 1 \, 0.4 250 6 \, 0 50 256;
#X connect 0 0 2 0;
#X connect 1 0 3 0;
#X connect 3 0 0 0;
#X restore 273 303 pd env;
#X obj 42 262 t f b;
#X obj 53 327 *~, f 32;
#X connect 0 0 12 0;
#X connect 1 0 2 0;
#X connect 1 0 2 1;
#X connect 3 0 11 0;
#X connect 4 0 0 1;
#X connect 5 0 0 2;
#X connect 6 0 3 0;
#X connect 7 0 4 0;
#X connect 8 0 5 0;
#X connect 9 0 6 0;
#X connect 9 0 8 0;
#X connect 9 0 7 0;
#X connect 10 0 12 1;
#X connect 11 0 0 0;
#X connect 11 1 10 0;
#X connect 12 0 1 0;
