#N canvas 598 23 1124 1017 12;
#X obj 296 708 *~ 0.2;
#X obj 289 992 dac~;
#X obj 23 153 + 1;
#X obj 229 508 *~;
#X floatatom 383 482 5 0 0 0 - - -;
#X obj 22 508 sig~;
#X obj 22 582 +~, f 30;
#X obj 229 484 osc~;
#X obj 22 607 osc~;
#X obj 22 631 *~, f 84;
#X floatatom 23 202 5 0 0 0 - - -;
#X obj 23 225 t f f b, f 51;
#X obj 383 457 random 800;
#X obj 6 984 delwrite~ ya 500;
#X obj 58 762 vd~ ya;
#X floatatom 571 788 5 0 0 0 - - -;
#X msg 58 714 \$1 50;
#X obj 59 837 *~;
#X floatatom 77 789 5 0 0.95 0 - - -;
#X obj 77 812 sig~;
#X obj 606 538 vline~;
#X obj 45 286 t f b;
#X obj 45 440 *;
#X obj 44 463 sig~;
#X obj 58 738 line~;
#X obj 552 764 snapshot~;
#X obj 481 745 metro 10;
#X obj 481 725 tgl 15 0 empty empty empty 17 7 0 10 -262144 -1 -1 1
1;
#X obj 553 831 +;
#X text 380 723 "lofi" toggle;
#X text 609 788 delay ms;
#X obj 777 746 loadbang;
#X obj 116 746 loadbang;
#X msg 116 770 0.8;
#X text 115 790 delay feedback;
#X obj 77 359 bng 15 250 50 0 empty empty empty 17 7 0 10 -262144 -1
-1;
#X obj 120 359 bng 15 250 50 0 empty empty empty 17 7 0 10 -262144
-1 -1;
#X obj 164 359 bng 15 250 50 0 empty empty empty 17 7 0 10 -262144
-1 -1;
#X obj 208 359 bng 15 250 50 0 empty empty empty 17 7 0 10 -262144
-1 -1;
#X obj 252 359 bng 15 250 50 0 empty empty empty 17 7 0 10 -262144
-1 -1;
#X obj 77 336 sel 0 1 2 3 4 5, f 38;
#X obj 296 359 bng 15 250 50 0 empty empty empty 17 7 0 10 -262144
-1 -1;
#X obj 77 312 random 6;
#X msg 546 335 0.25 0.5 1 1.5 2 10;
#X obj 77 379 f;
#X obj 120 379 f;
#X obj 164 379 f;
#X obj 208 379 f;
#X obj 252 379 f;
#X obj 296 379 f;
#X obj 546 360 unpack f f f f f f;
#X obj 814 312 loadbang;
#X msg 690 335 0.75 4 6 7 13 15;
#X obj 571 809 t b f;
#X msg 765 155 100;
#X obj 765 179 -, f 5;
#X obj 765 131 t b f f, f 10;
#X obj 81 916 *~;
#X obj 387 910 *~;
#X obj 765 203 / 100;
#X obj 832 203 / 100;
#X obj 765 251 line~;
#X obj 765 275 s~ left;
#X obj 832 251 line~;
#X obj 832 275 s~ right;
#X obj 99 891 r~ left;
#X obj 405 883 r~ right;
#X obj 122 97 t b b, f 16;
#X obj 765 14 loadbang;
#X obj 765 38 tgl 15 0 empty empty empty 17 7 0 10 -262144 -1 -1 1
1;
#X obj 81 940 *~ 0.2;
#X obj 387 934 *~ 0.2;
#X obj 765 58 metro 5000;
#X msg 765 227 \$1 2000;
#X msg 832 227 \$1 2000;
#X msg 777 771 126;
#X obj 481 700 loadbang;
#X obj 957 294 hsl 128 15 0 1 0 0 empty empty empty -2 -8 0 10 -262144
-1 -1 6985 1;
#X obj 954 226 tgl 15 0 empty empty empty 17 7 0 10 -262144 -1 -1 1
1;
#X obj 954 201 loadbang;
#X obj 954 270 snapshot~;
#X obj 606 468 sel 0 1, f 72;
#X floatatom 624 422 5 0 1 0 - - -;
#X obj 606 492 bng 15 250 50 0 empty empty empty 17 7 0 10 -262144
-1 -1;
#X obj 857 492 bng 15 250 50 0 empty empty empty 17 7 0 10 -262144
-1 -1;
#X obj 606 444 f;
#X msg 814 335 10 20 30 40 50 60;
#X obj 954 246 metro 50;
#X msg 606 513 0 1 0 \, 1 5 1 \, 0.4 50 95 \, 0 200 200;
#X msg 857 513 0 1 0 \, 1 100 1 \, 0 200 100;
#X obj 277 37 bng 15 250 50 0 empty empty empty 17 7 0 10 -262144 -1
-1;
#X obj 300 139 del;
#X obj 300 163 spigot;
#X obj 339 143 tgl 15 0 empty empty empty 17 7 0 10 -262144 -1 -1 1
1;
#X obj 490 29 loadbang;
#X obj 324 109 + 50;
#X obj 490 53 t b b;
#X obj 552 740 osc~ 0.8;
#X text 663 421 envelope chooser;
#X text 493 337 timbre;
#X obj 229 555 *~, f 9;
#X obj 289 533 sig~;
#X obj 292 515 hsl 128 15 0 1 0 0 empty empty empty -2 -8 0 10 -262144
-1 -1 12700 1;
#X text 425 514 fm amount;
#X obj 289 455 loadbang;
#X msg 289 479 1;
#X obj 23 177 * 55;
#X floatatom 363 63 5 0 0 0 - - -;
#X obj 362 14 loadbang;
#X obj 324 85 random;
#X obj 765 83 random 50;
#X obj 765 107 + 25;
#X obj 23 129 random 6;
#X obj 277 57 t b b b b;
#X obj 479 226 bng 15 250 50 0 empty empty empty 17 7 0 10 -262144
-1 -1;
#X obj 473 245 random 6;
#N canvas 0 23 702 495 fm 0;
#X obj 52 50 inlet;
#X obj 52 368 +~;
#X obj 52 402 osc~;
#X obj 52 426 outlet~;
#X obj 193 51 inlet;
#X obj 175 240 *~;
#X obj 175 324 osc~ 40;
#X obj 175 348 *~;
#X obj 325 52 inlet;
#X obj 310 323 *~;
#X obj 52 208 sig~;
#X obj 193 215 sig~;
#X obj 52 154 t f b;
#X obj 254 72 loadbang;
#X obj 193 115 f \$1;
#X obj 325 116 f \$2;
#X text 182 23 \$1 harmonicity;
#X text 293 29 \$2 modulation index;
#X obj 325 140 sig~;
#X obj 328 240 *~;
#N canvas 0 23 450 300 env 0;
#X obj 85 139 vline~;
#X obj 84 84 inlet;
#X obj 85 163 outlet~;
#X msg 85 115 0 0 0 \, 1 5 1 \, 0 500 6;
#X connect 0 0 2 0;
#X connect 1 0 3 0;
#X connect 3 0 0 0;
#X restore 345 213 pd env;
#X text 9 26 carrier freq;
#X connect 0 0 12 0;
#X connect 1 0 2 0;
#X connect 2 0 3 0;
#X connect 4 0 14 0;
#X connect 5 0 6 0;
#X connect 5 0 9 0;
#X connect 6 0 7 0;
#X connect 7 0 1 1;
#X connect 8 0 15 0;
#X connect 9 0 7 1;
#X connect 10 0 1 0;
#X connect 10 0 5 0;
#X connect 11 0 5 1;
#X connect 12 0 10 0;
#X connect 12 1 20 0;
#X connect 13 0 14 0;
#X connect 13 0 15 0;
#X connect 14 0 11 0;
#X connect 15 0 18 0;
#X connect 18 0 19 0;
#X connect 19 0 9 1;
#X connect 20 0 19 1;
#X restore 756 632 pd fm;
#X f 19;
#X floatatom 745 584 5 0 0 0 - - -;
#X floatatom 785 583 5 0 0 0 - - -;
#X floatatom 830 583 5 0 0 0 - - -;
#N canvas 0 23 450 300 env 0;
#X obj 85 139 vline~;
#X obj 84 84 inlet;
#X obj 85 163 outlet~;
#X msg 85 114 0 0 0 \, 1 5 1 \, 0.4 250 6 \, 0 1000 256;
#X connect 0 0 2 0;
#X connect 1 0 3 0;
#X connect 3 0 0 0;
#X restore 1036 648 pd env;
#X obj 745 607 t f b;
#X obj 757 702 *~, f 32;
#X obj 473 269 + 1;
#X obj 620 41 * 55;
#X obj 620 65 / 2;
#X obj 843 891 vd~ ok;
#X floatatom 843 821 5 0 0 0 - - -;
#X msg 843 844 \$1 50;
#X obj 843 868 line~;
#X obj 843 915 *~, f 16;
#X floatatom 935 836 5 0 0.95 0 - - -;
#X obj 935 859 sig~;
#X obj 974 793 loadbang;
#X text 973 837 delay feedback;
#X obj 757 727 delwrite~ ok 500;
#X obj 479 110 random 4000;
#X obj 479 181 t b f;
#X obj 479 202 del;
#X obj 479 134 + 750;
#X obj 620 89 t b f;
#X obj 620 113 random 100;
#X obj 620 161 sel 1;
#X obj 620 209 + 20;
#X obj 621 257 del;
#X obj 620 233 t b f;
#X obj 621 281 bng 15 250 50 0 empty empty empty 17 7 0 10 -262144
-1 -1;
#X obj 620 185 random 200;
#X obj 620 137 > 20;
#X msg 362 38 7500;
#X obj 843 772 loadbang;
#X obj 818 530 loadbang;
#X msg 846 552 4;
#X msg 843 796 30;
#X msg 974 817 0.8;
#X msg 790 556 3.8;
#X obj 756 656 clip~ -0.1 0.1;
#X obj 756 679 *~ 10;
#X connect 0 0 1 0;
#X connect 0 0 1 1;
#X connect 2 0 106 0;
#X connect 3 0 100 0;
#X connect 4 0 3 1;
#X connect 5 0 6 0;
#X connect 6 0 8 0;
#X connect 7 0 3 0;
#X connect 8 0 9 0;
#X connect 9 0 13 0;
#X connect 9 0 0 0;
#X connect 10 0 11 0;
#X connect 11 0 5 0;
#X connect 11 1 21 0;
#X connect 11 2 12 0;
#X connect 12 0 4 0;
#X connect 14 0 17 0;
#X connect 15 0 53 0;
#X connect 16 0 24 0;
#X connect 17 0 13 0;
#X connect 17 0 57 0;
#X connect 17 0 58 0;
#X connect 18 0 19 0;
#X connect 19 0 17 1;
#X connect 20 0 9 1;
#X connect 21 0 22 0;
#X connect 21 1 42 0;
#X connect 22 0 23 0;
#X connect 23 0 7 0;
#X connect 24 0 14 0;
#X connect 25 0 28 0;
#X connect 26 0 25 0;
#X connect 27 0 26 0;
#X connect 28 0 16 0;
#X connect 31 0 75 0;
#X connect 32 0 33 0;
#X connect 33 0 18 0;
#X connect 35 0 44 0;
#X connect 36 0 45 0;
#X connect 37 0 46 0;
#X connect 38 0 47 0;
#X connect 39 0 48 0;
#X connect 40 0 35 0;
#X connect 40 1 36 0;
#X connect 40 2 37 0;
#X connect 40 3 38 0;
#X connect 40 4 39 0;
#X connect 40 5 41 0;
#X connect 41 0 49 0;
#X connect 42 0 40 0;
#X connect 43 0 50 0;
#X connect 44 0 22 1;
#X connect 45 0 22 1;
#X connect 46 0 22 1;
#X connect 47 0 22 1;
#X connect 48 0 22 1;
#X connect 49 0 22 1;
#X connect 50 0 44 1;
#X connect 50 1 45 1;
#X connect 50 2 46 1;
#X connect 50 3 47 1;
#X connect 50 4 48 1;
#X connect 50 5 49 1;
#X connect 51 0 86 0;
#X connect 52 0 50 0;
#X connect 53 0 28 0;
#X connect 53 1 28 1;
#X connect 54 0 55 0;
#X connect 55 0 59 0;
#X connect 56 0 54 0;
#X connect 56 1 55 1;
#X connect 56 2 60 0;
#X connect 57 0 70 0;
#X connect 58 0 71 0;
#X connect 59 0 73 0;
#X connect 60 0 74 0;
#X connect 61 0 62 0;
#X connect 63 0 64 0;
#X connect 63 0 80 0;
#X connect 65 0 57 1;
#X connect 66 0 58 1;
#X connect 67 0 85 0;
#X connect 67 1 112 0;
#X connect 68 0 69 0;
#X connect 69 0 72 0;
#X connect 70 0 1 0;
#X connect 71 0 1 1;
#X connect 72 0 110 0;
#X connect 73 0 61 0;
#X connect 74 0 63 0;
#X connect 75 0 15 0;
#X connect 76 0 27 0;
#X connect 78 0 87 0;
#X connect 79 0 78 0;
#X connect 80 0 77 0;
#X connect 81 0 83 0;
#X connect 81 1 84 0;
#X connect 82 0 85 1;
#X connect 83 0 88 0;
#X connect 84 0 89 0;
#X connect 85 0 81 0;
#X connect 86 0 50 0;
#X connect 87 0 80 0;
#X connect 88 0 20 0;
#X connect 89 0 20 0;
#X connect 90 0 113 0;
#X connect 91 0 92 0;
#X connect 92 0 90 0;
#X connect 93 0 92 1;
#X connect 94 0 96 0;
#X connect 95 0 91 1;
#X connect 96 0 90 0;
#X connect 96 1 93 0;
#X connect 97 0 25 0;
#X connect 100 0 6 1;
#X connect 101 0 100 1;
#X connect 102 0 101 0;
#X connect 104 0 105 0;
#X connect 105 0 102 0;
#X connect 106 0 10 0;
#X connect 107 0 109 1;
#X connect 108 0 149 0;
#X connect 109 0 95 0;
#X connect 110 0 111 0;
#X connect 111 0 56 0;
#X connect 112 0 2 0;
#X connect 113 0 67 0;
#X connect 113 1 91 0;
#X connect 113 2 109 0;
#X connect 113 3 136 0;
#X connect 114 0 115 0;
#X connect 115 0 123 0;
#X connect 116 0 156 0;
#X connect 117 0 121 0;
#X connect 118 0 116 1;
#X connect 119 0 116 2;
#X connect 120 0 122 1;
#X connect 121 0 116 0;
#X connect 121 1 120 0;
#X connect 122 0 135 0;
#X connect 123 0 124 0;
#X connect 124 0 125 0;
#X connect 125 0 140 0;
#X connect 126 0 130 0;
#X connect 127 0 128 0;
#X connect 128 0 129 0;
#X connect 129 0 126 0;
#X connect 130 0 0 0;
#X connect 130 0 135 0;
#X connect 131 0 132 0;
#X connect 132 0 130 1;
#X connect 133 0 154 0;
#X connect 136 0 139 0;
#X connect 137 0 138 0;
#X connect 137 1 138 1;
#X connect 138 0 114 0;
#X connect 139 0 137 0;
#X connect 140 0 141 0;
#X connect 140 1 117 0;
#X connect 141 0 148 0;
#X connect 142 0 147 0;
#X connect 143 0 145 0;
#X connect 144 0 146 0;
#X connect 145 0 144 0;
#X connect 145 1 144 1;
#X connect 146 0 114 0;
#X connect 147 0 143 0;
#X connect 148 0 142 0;
#X connect 149 0 107 0;
#X connect 150 0 153 0;
#X connect 151 0 155 0;
#X connect 151 0 152 0;
#X connect 152 0 119 0;
#X connect 153 0 127 0;
#X connect 154 0 131 0;
#X connect 155 0 118 0;
#X connect 156 0 157 0;
#X connect 157 0 122 0;
