#N canvas 816 264 648 559 12;
#X obj 151 128 tgl 15 0 empty empty empty 17 7 0 10 -262144 -1 -1 1
1;
#X obj 175 484 *~, f 7;
#X floatatom 175 377 5 0 0 0 - - -;
#X obj 175 460 osc~;
#X obj 175 508 *~ 0.2;
#X obj 175 532 dac~;
#X obj 221 241 vline~;
#X floatatom 135 337 5 0 0 0 - - -;
#X obj 135 360 osc~;
#X obj 135 313 line;
#X floatatom 183 65 5 0 0 0 - - -;
#X obj 151 148 metro;
#X obj 151 172 t b b;
#X obj 215 119 * 0.75;
#X obj 183 88 t f f f, f 15;
#X obj 287 127 * 0.25;
#X obj 224 184 pack f f;
#X obj 135 265 * 55;
#X obj 135 241 + 1;
#X obj 135 217 random 15;
#X msg 221 217 0 1 0 \, 1 5 1 \, 0.2 \$1 6 \, 0 \$2 \$1;
#X obj 175 400 sig~;
#X obj 161 431 +~, f 6;
#X obj 117 387 *~;
#X floatatom 73 329 5 0 0 0 - - -;
#X obj 73 352 sig~;
#X msg 135 289 \$1 20;
#X obj 17 13 loadbang;
#X msg 62 38 299;
#X msg 15 49 247;
#X msg 46 54 110;
#X obj 343 396 random 4000;
#X obj 297 371 t f b b;
#X obj 320 424 del;
#X obj 320 450 bng 15 250 50 0 empty empty empty 17 7 0 10 -262144
-1 -1;
#X obj 215 142 - 5;
#X obj 287 151 - 5;
#X obj 365 482 random 5;
#X obj 365 506 + 1;
#X obj 365 530 * 55;
#X obj 297 347 + 30;
#X obj 297 323 random 5000;
#X obj 2 473 noise~;
#X obj 2 497 *~, f 11;
#X msg 3 422 0 1 0 \, 1 5 1 \, 0 10 6;
#X obj 3 446 vline~;
#X obj 2 521 delwrite~ click 500;
#X obj 381 160 vd~ click;
#X floatatom 381 127 5 0 0 0 - - -;
#X obj 381 184 *~, f 23;
#X floatatom 531 134 5 0 0.99 0 - - -;
#X obj 531 157 sig~;
#X obj 412 7 bng 15 250 50 0 empty empty empty 17 7 0 10 -262144 -1
-1;
#X obj 372 8 bng 15 250 50 0 empty empty empty 17 7 0 10 -262144 -1
-1;
#X obj 442 414 random 100;
#X obj 442 438 < 20;
#X obj 442 462 == 1;
#X obj 442 486 sel 1;
#X obj 442 510 tgl 15 0 empty empty empty 17 7 0 10 -262144 -1 -1 0
1;
#X obj 442 530 sel 1;
#X msg 533 108 0.97;
#X obj 282 29 random 400;
#X obj 282 53 + 40;
#X msg 431 74 18;
#X msg 470 74 9;
#X msg 508 74 4.5;
#X msg 546 74 2.25;
#X obj 431 26 random 4;
#X obj 431 50 sel 0 1 2 3, f 28;
#X obj 459 257 + 0.2;
#X obj 459 209 random 50;
#X obj 459 233 / 100;
#X connect 0 0 11 0;
#X connect 1 0 4 0;
#X connect 2 0 21 0;
#X connect 3 0 1 0;
#X connect 4 0 5 0;
#X connect 4 0 5 1;
#X connect 6 0 1 1;
#X connect 7 0 8 0;
#X connect 8 0 23 1;
#X connect 9 0 7 0;
#X connect 10 0 14 0;
#X connect 10 0 44 0;
#X connect 11 0 12 0;
#X connect 12 0 16 0;
#X connect 12 0 44 0;
#X connect 12 1 19 0;
#X connect 13 0 35 0;
#X connect 14 0 11 1;
#X connect 14 1 13 0;
#X connect 14 2 15 0;
#X connect 15 0 36 0;
#X connect 16 0 20 0;
#X connect 17 0 26 0;
#X connect 18 0 17 0;
#X connect 19 0 18 0;
#X connect 20 0 6 0;
#X connect 21 0 22 1;
#X connect 22 0 3 0;
#X connect 23 0 22 0;
#X connect 24 0 25 0;
#X connect 25 0 23 0;
#X connect 26 0 9 0;
#X connect 27 0 28 0;
#X connect 27 0 0 0;
#X connect 27 0 29 0;
#X connect 27 0 30 0;
#X connect 27 0 34 0;
#X connect 27 0 53 0;
#X connect 28 0 10 0;
#X connect 29 0 24 0;
#X connect 30 0 2 0;
#X connect 31 0 33 1;
#X connect 32 0 10 0;
#X connect 32 1 33 0;
#X connect 32 2 31 0;
#X connect 33 0 34 0;
#X connect 34 0 37 0;
#X connect 34 0 41 0;
#X connect 34 0 54 0;
#X connect 35 0 16 0;
#X connect 36 0 16 1;
#X connect 37 0 38 0;
#X connect 38 0 39 0;
#X connect 39 0 2 0;
#X connect 40 0 32 0;
#X connect 41 0 40 0;
#X connect 42 0 43 0;
#X connect 43 0 4 0;
#X connect 43 0 46 0;
#X connect 44 0 45 0;
#X connect 45 0 43 1;
#X connect 47 0 49 0;
#X connect 48 0 47 0;
#X connect 49 0 4 0;
#X connect 49 0 46 0;
#X connect 50 0 51 0;
#X connect 51 0 49 1;
#X connect 52 0 60 0;
#X connect 52 0 67 0;
#X connect 53 0 61 0;
#X connect 53 0 70 0;
#X connect 54 0 55 0;
#X connect 55 0 56 0;
#X connect 56 0 57 0;
#X connect 57 0 58 0;
#X connect 58 0 59 0;
#X connect 59 0 53 0;
#X connect 59 1 52 0;
#X connect 60 0 50 0;
#X connect 61 0 62 0;
#X connect 62 0 48 0;
#X connect 63 0 48 0;
#X connect 64 0 48 0;
#X connect 65 0 48 0;
#X connect 66 0 48 0;
#X connect 67 0 68 0;
#X connect 68 0 63 0;
#X connect 68 1 64 0;
#X connect 68 2 65 0;
#X connect 68 3 66 0;
#X connect 69 0 50 0;
#X connect 70 0 71 0;
#X connect 71 0 69 0;
