#N canvas 577 62 1083 950 12;
#X obj 121 886 *~ 0.2, f 19;
#X obj 121 910 dac~;
#X obj 10 390 bp~, f 21;
#X obj 166 390 bp~, f 21;
#X obj 322 390 bp~, f 21;
#X obj 478 390 bp~, f 21;
#X obj 634 390 bp~, f 21;
#X obj 121 562 *~, f 86;
#X obj 657 78 bng 15 250 50 0 empty empty empty 17 7 0 10 -262144 -1
-1;
#X obj 836 413 vline~;
#X obj 49 299 random 100;
#X obj 49 323 + 20;
#X obj 87 324 random 20;
#X obj 49 275 t b b;
#X obj 242 325 random 20;
#X obj 199 277 t b b;
#X obj 199 301 random 600;
#X obj 199 325 + 200;
#X obj 400 321 random 20;
#X obj 346 273 t b b;
#X obj 346 297 random 5200;
#X obj 346 321 + 800;
#X obj 551 322 random 20;
#X obj 497 274 t b b;
#X obj 497 298 random 2000;
#X obj 497 322 + 6000;
#X obj 708 321 random 20;
#X obj 654 273 t b b;
#X obj 654 297 random 12000;
#X obj 654 321 + 8000;
#X floatatom 49 347 5 0 0 0 - - -;
#X floatatom 87 348 5 0 0 0 - - -;
#X floatatom 199 349 5 0 0 0 - - -;
#X floatatom 242 349 5 0 0 0 - - -;
#X floatatom 346 345 5 0 0 0 - - -;
#X floatatom 400 345 5 0 0 0 - - -;
#X floatatom 497 346 5 0 0 0 - - -;
#X floatatom 551 346 5 0 0 0 - - -;
#X floatatom 654 345 5 0 0 0 - - -;
#X floatatom 708 345 5 0 0 0 - - -;
#X obj 657 33 tgl 15 0 empty empty empty 17 7 0 10 -262144 -1 -1 1
1;
#X obj 303 122 *~ 1, f 29;
#X obj 206 21 phasor~ 400;
#X obj 548 21 noise~;
#X obj 548 69 hip~ 6000;
#X obj 146 21 osc~ 200;
#X obj 288 21 phasor~ 805;
#X obj 370 21 phasor~ 1195;
#X obj 459 21 phasor~ 1580;
#X obj 85 21 osc~ 100;
#X obj 31 21 osc~ 49;
#X obj 10 510 *~;
#X obj 28 413 random 10;
#X obj 43 436 + 1;
#X obj 28 461 / 10;
#X obj 28 485 sig~;
#X obj 166 513 *~;
#X obj 184 416 random 10;
#X obj 199 439 + 1;
#X obj 184 464 / 10;
#X obj 184 488 sig~;
#X obj 322 513 *~;
#X obj 340 416 random 10;
#X obj 355 439 + 1;
#X obj 340 464 / 10;
#X obj 340 488 sig~;
#X obj 478 513 *~;
#X obj 496 416 random 10;
#X obj 511 439 + 1;
#X obj 496 464 / 10;
#X obj 496 488 sig~;
#X obj 634 513 *~;
#X obj 652 416 random 10;
#X obj 667 439 + 1;
#X obj 652 464 / 10;
#X obj 652 488 sig~;
#X obj 657 98 t b b b;
#X obj 657 8 loadbang;
#X obj 657 52 metro 80;
#X obj 121 862 *~;
#X obj 221 727 bng 15 250 50 0 empty empty empty 17 7 0 10 -262144
-1 -1;
#X obj 244 795 vline~;
#X obj 466 824 vd~ ok;
#X obj 466 777 line;
#X floatatom 466 801 5 0 0 0 - - -;
#X obj 448 872 *~;
#X obj 221 845 vline~;
#X obj 221 747 t b b b;
#X msg 466 753 \$1 50;
#X obj 598 591 *~, f 51;
#X obj 466 729 + 40;
#X obj 221 632 metro 4000;
#X obj 221 590 loadbang;
#X obj 221 656 random 100;
#X obj 221 704 sel 1;
#X obj 221 613 tgl 15 0 empty empty empty 17 7 0 10 -262144 -1 -1 1
1;
#X obj 221 680 > 90;
#X obj 466 848 *~ 0.9;
#X msg 244 771 0 50 0 \, 1 500 4000;
#X msg 221 821 1 50 0 \, 0 500 4000;
#X obj 548 45 lop~ 8000;
#X obj 466 705 random 100;
#X obj 631 682 delwrite~ ok 140;
#X obj 649 773 noise~;
#X obj 649 797 lop~ 1000;
#X obj 746 778 noise~;
#X obj 746 802 hip~ 22000;
#X obj 649 850 *~ 0.4;
#X msg 836 389 1 5 0 \, 0.05 50 2 \, 0 24 56;
#X obj 150 708 loadbang;
#X connect 0 0 1 0;
#X connect 0 0 1 1;
#X connect 2 0 51 0;
#X connect 3 0 56 0;
#X connect 4 0 61 0;
#X connect 5 0 66 0;
#X connect 6 0 71 0;
#X connect 7 0 79 0;
#X connect 7 0 89 1;
#X connect 8 0 76 0;
#X connect 9 0 7 1;
#X connect 10 0 11 0;
#X connect 11 0 30 0;
#X connect 12 0 31 0;
#X connect 13 0 10 0;
#X connect 13 1 12 0;
#X connect 14 0 33 0;
#X connect 15 0 16 0;
#X connect 15 1 14 0;
#X connect 16 0 17 0;
#X connect 17 0 32 0;
#X connect 18 0 35 0;
#X connect 19 0 20 0;
#X connect 19 1 18 0;
#X connect 20 0 21 0;
#X connect 21 0 34 0;
#X connect 22 0 37 0;
#X connect 23 0 24 0;
#X connect 23 1 22 0;
#X connect 24 0 25 0;
#X connect 25 0 36 0;
#X connect 26 0 39 0;
#X connect 27 0 28 0;
#X connect 27 1 26 0;
#X connect 28 0 29 0;
#X connect 29 0 38 0;
#X connect 30 0 2 1;
#X connect 31 0 2 2;
#X connect 32 0 3 1;
#X connect 33 0 3 2;
#X connect 34 0 4 1;
#X connect 35 0 4 2;
#X connect 36 0 5 1;
#X connect 37 0 5 2;
#X connect 38 0 6 1;
#X connect 39 0 6 2;
#X connect 40 0 78 0;
#X connect 41 0 2 0;
#X connect 41 0 3 0;
#X connect 41 0 6 0;
#X connect 41 0 5 0;
#X connect 41 0 4 0;
#X connect 42 0 41 0;
#X connect 43 0 100 0;
#X connect 44 0 41 0;
#X connect 45 0 41 0;
#X connect 46 0 41 0;
#X connect 47 0 41 0;
#X connect 48 0 41 0;
#X connect 49 0 41 0;
#X connect 50 0 41 0;
#X connect 51 0 7 0;
#X connect 52 0 53 0;
#X connect 53 0 54 0;
#X connect 54 0 55 0;
#X connect 55 0 51 1;
#X connect 56 0 7 0;
#X connect 57 0 58 0;
#X connect 58 0 59 0;
#X connect 59 0 60 0;
#X connect 60 0 56 1;
#X connect 61 0 7 0;
#X connect 62 0 63 0;
#X connect 63 0 64 0;
#X connect 64 0 65 0;
#X connect 65 0 61 1;
#X connect 66 0 7 0;
#X connect 67 0 68 0;
#X connect 68 0 69 0;
#X connect 69 0 70 0;
#X connect 70 0 66 1;
#X connect 71 0 7 0;
#X connect 72 0 73 0;
#X connect 73 0 74 0;
#X connect 74 0 75 0;
#X connect 75 0 71 1;
#X connect 76 0 108 0;
#X connect 76 1 13 0;
#X connect 76 1 27 0;
#X connect 76 1 23 0;
#X connect 76 1 19 0;
#X connect 76 1 15 0;
#X connect 76 2 72 0;
#X connect 76 2 67 0;
#X connect 76 2 62 0;
#X connect 76 2 57 0;
#X connect 76 2 52 0;
#X connect 77 0 40 0;
#X connect 78 0 8 0;
#X connect 79 0 0 0;
#X connect 80 0 87 0;
#X connect 81 0 79 1;
#X connect 81 0 89 0;
#X connect 82 0 97 0;
#X connect 83 0 84 0;
#X connect 84 0 82 0;
#X connect 85 0 0 0;
#X connect 86 0 85 0;
#X connect 87 0 99 0;
#X connect 87 1 98 0;
#X connect 87 2 101 0;
#X connect 88 0 83 0;
#X connect 89 0 102 0;
#X connect 90 0 88 0;
#X connect 91 0 93 0;
#X connect 92 0 95 0;
#X connect 93 0 96 0;
#X connect 94 0 80 0;
#X connect 95 0 91 0;
#X connect 96 0 94 0;
#X connect 97 0 85 1;
#X connect 97 0 102 0;
#X connect 98 0 81 0;
#X connect 99 0 86 0;
#X connect 100 0 44 0;
#X connect 101 0 90 0;
#X connect 103 0 104 0;
#X connect 104 0 107 0;
#X connect 105 0 106 0;
#X connect 106 0 107 0;
#X connect 107 0 85 1;
#X connect 108 0 9 0;
#X connect 109 0 80 0;
