#N canvas 907 337 450 523 12;
#X obj 137 45 bng 15 250 50 0 empty empty empty 17 7 0 10 -262144 -1
-1;
#X msg 137 89 0 1 0 \, 1 5 1 \, 0 150 6;
#X obj 137 253 vline~;
#X obj 64 269 *~;
#X obj 64 293 *~ 0.2;
#X obj 64 317 dac~;
#X floatatom 255 215 5 0 0 0 - - -;
#X obj 255 143 random 5;
#X obj 255 167 + 1;
#X obj 255 191 * 110;
#X obj 255 238 bng 15 250 50 0 empty empty empty 17 7 0 10 -262144
-1 -1;
#X obj 255 258 random 100;
#X obj 255 306 sel 1;
#X obj 255 330 bng 15 250 50 0 empty empty empty 17 7 0 10 -262144
-1 -1;
#X obj 137 21 loadbang;
#X obj 13 354 delwrite~ left 500;
#X obj 159 353 delwrite~ right 500;
#X obj 68 407 vd~ left;
#X obj 181 410 vd~ right;
#X floatatom 81 382 5 0 0 0 - - -;
#X floatatom 213 381 5 0 0 0 - - -;
#X obj 306 409 hsl 128 15 0 0.8 0 0 empty empty empty -2 -8 0 10 -262144
-1 -1 3200 1;
#X msg 303 429 \$1 50;
#X obj 303 453 line;
#X obj 303 477 sig~;
#X obj 68 431 *~;
#X obj 181 434 *~;
#X obj 336 338 loadbang;
#X msg 90 487 200;
#X msg 131 494 400;
#X obj 115 451 loadbang;
#X obj 255 282 > 98;
#X msg 336 362 0;
#X obj 137 65 randseq 1500;
#X obj 64 245 phasor~;
#X connect 0 0 33 0;
#X connect 1 0 2 0;
#X connect 2 0 3 1;
#X connect 3 0 4 0;
#X connect 4 0 5 0;
#X connect 4 0 5 1;
#X connect 4 0 15 0;
#X connect 4 0 16 0;
#X connect 6 0 10 0;
#X connect 6 0 34 0;
#X connect 7 0 8 0;
#X connect 8 0 9 0;
#X connect 9 0 6 0;
#X connect 10 0 11 0;
#X connect 11 0 31 0;
#X connect 12 0 13 0;
#X connect 13 0 0 0;
#X connect 14 0 0 0;
#X connect 17 0 25 0;
#X connect 18 0 26 0;
#X connect 19 0 17 0;
#X connect 20 0 18 0;
#X connect 21 0 22 0;
#X connect 22 0 23 0;
#X connect 23 0 24 0;
#X connect 24 0 26 1;
#X connect 24 0 25 1;
#X connect 25 0 15 0;
#X connect 25 0 5 0;
#X connect 26 0 16 0;
#X connect 26 0 5 1;
#X connect 27 0 32 0;
#X connect 28 0 19 0;
#X connect 29 0 20 0;
#X connect 30 0 28 0;
#X connect 30 0 29 0;
#X connect 31 0 12 0;
#X connect 32 0 21 0;
#X connect 33 0 1 0;
#X connect 33 0 7 0;
#X connect 34 0 3 0;
