#N canvas 723 282 677 438 12;
#X obj 12 310 noise~;
#X obj 87 217 hsl 128 15 0 2200 0 0 empty empty empty -2 -8 0 10 -262144
-1 -1 0 1;
#X floatatom 84 237 5 0 0 0 - - -;
#X floatatom 84 284 10 0 0 0 - - -;
#X obj 84 260 * 10;
#X obj 84 307 sig~;
#X obj 157 370 *~ 0.2;
#X obj 109 404 dac~, f 20;
#X obj 186 300 delwrite~ ok 500;
#X obj 336 307 vd~ ok;
#X floatatom 336 260 5 0 0 0 - - -;
#X msg 336 283 \$1 50;
#X obj 336 331 *~ 0.4;
#X obj 284 204 loadbang;
#X obj 66 29 tgl 15 0 empty empty empty 17 7 0 10 -262144 -1 -1 1 1
;
#X obj 66 49 metro 400;
#X obj 66 73 t b b;
#X obj 98 99 i;
#X obj 128 99 + 1;
#X obj 98 123 % 8;
#X obj 98 147 sel 0 1 2 3 4 5 6 7, f 40;
#X msg 98 171 60;
#X obj 98 195 mtof;
#X msg 132 171 62;
#X msg 167 171 64;
#X msg 201 171 65;
#X msg 236 171 67;
#X msg 271 171 69;
#X msg 305 171 71;
#X msg 340 171 72;
#X obj 66 97 del 200;
#X msg 66 121 0;
#X obj 12 334 vcf~ 40, f 21;
#X msg 284 228 200;
#X obj 66 7 loadbang;
#X obj 489 192 hsl 128 15 0 22000 0 0 empty empty empty -2 -8 0 10
-262144 -1 -1 0 1;
#X floatatom 486 213 10 0 0 0 - - -;
#X obj 486 236 sig~;
#X obj 414 237 noise~;
#X obj 414 261 vcf~ 6, f 21;
#X obj 352 14 metro 1000;
#X obj 352 38 random 100;
#X obj 352 86 sel 1;
#X obj 331 16 tgl 15 0 empty empty empty 17 7 0 10 -262144 -1 -1 1
1;
#X obj 476 11 t b b;
#X obj 492 137 pack f f;
#X obj 512 58 t f b;
#X obj 544 85 random 500;
#X obj 544 109 + 5;
#X obj 486 167 line;
#X obj 451 42 del 505;
#X msg 451 66 0 5;
#X obj 512 34 random 22000;
#X obj 352 62 > 80;
#X connect 0 0 32 0;
#X connect 1 0 2 0;
#X connect 2 0 4 0;
#X connect 3 0 5 0;
#X connect 4 0 3 0;
#X connect 5 0 32 1;
#X connect 6 0 7 0;
#X connect 6 0 7 1;
#X connect 9 0 12 0;
#X connect 10 0 11 0;
#X connect 11 0 9 0;
#X connect 12 0 8 0;
#X connect 12 0 6 0;
#X connect 13 0 33 0;
#X connect 14 0 15 0;
#X connect 15 0 16 0;
#X connect 16 0 30 0;
#X connect 16 1 17 0;
#X connect 17 0 18 0;
#X connect 17 0 19 0;
#X connect 18 0 17 1;
#X connect 19 0 20 0;
#X connect 20 0 21 0;
#X connect 20 1 23 0;
#X connect 20 2 24 0;
#X connect 20 3 25 0;
#X connect 20 4 26 0;
#X connect 20 5 27 0;
#X connect 20 6 28 0;
#X connect 20 7 29 0;
#X connect 21 0 22 0;
#X connect 22 0 1 0;
#X connect 23 0 22 0;
#X connect 24 0 22 0;
#X connect 25 0 22 0;
#X connect 26 0 22 0;
#X connect 27 0 22 0;
#X connect 28 0 22 0;
#X connect 29 0 22 0;
#X connect 30 0 31 0;
#X connect 31 0 1 0;
#X connect 32 1 8 0;
#X connect 32 1 6 0;
#X connect 33 0 10 0;
#X connect 34 0 14 0;
#X connect 34 0 43 0;
#X connect 35 0 36 0;
#X connect 36 0 37 0;
#X connect 37 0 39 1;
#X connect 38 0 39 0;
#X connect 39 1 6 0;
#X connect 39 1 8 0;
#X connect 40 0 41 0;
#X connect 41 0 53 0;
#X connect 42 0 44 0;
#X connect 43 0 40 0;
#X connect 44 0 50 0;
#X connect 44 1 52 0;
#X connect 45 0 49 0;
#X connect 46 0 45 0;
#X connect 46 1 47 0;
#X connect 47 0 48 0;
#X connect 48 0 45 1;
#X connect 49 0 35 0;
#X connect 50 0 51 0;
#X connect 51 0 49 0;
#X connect 52 0 46 0;
#X connect 53 0 42 0;
