#N canvas 218 46 1446 714 12;
#X obj 98 650 *~ 0.2;
#X obj 98 674 dac~;
#X obj 6 210 unpack f f f f, f 25;
#X obj 6 234 mtof;
#X obj 63 234 mtof;
#X obj 120 234 mtof;
#X obj 178 234 mtof;
#X obj 63 258 noiseosc~;
#X obj 120 258 noiseosc~;
#X obj 178 258 noiseosc~;
#X obj 57 77 tgl 15 0 empty empty empty 17 7 0 10 -262144 -1 -1 1 1
;
#X obj 56 120 tgl 15 0 empty empty empty 17 7 0 10 -262144 -1 -1 1
1;
#X obj 89 162 bng 15 250 50 0 empty empty empty 17 7 0 10 -262144 -1
-1;
#X obj 20 162 bng 15 250 50 0 empty empty empty 17 7 0 10 -262144 -1
-1;
#X obj 56 96 metro 2000;
#X obj 297 12 loadbang;
#X obj 56 140 sel 1;
#X obj 251 460 delwrite~ ok 500;
#X obj 76 349 *~;
#X obj 283 237 bng 15 250 50 0 empty empty empty 17 7 0 10 -262144
-1 -1;
#X obj 283 280 vline~;
#X obj 243 335 delread~ ok 250;
#X obj 248 383 *~ 0.8;
#X msg 283 256 0 0 0 \, 1 50 0 \, 0.4 50 50 \, 0 400 100;
#X obj 781 111 random 8;
#X obj 587 128 loadbang;
#X obj 587 176 unpack f f f f f f f f, f 40;
#X obj 571 201 f;
#X obj 606 202 f;
#X obj 646 205 f;
#X obj 681 206 f;
#X obj 723 205 f;
#X obj 758 206 f;
#X obj 798 209 f;
#X obj 833 210 f;
#X obj 781 135 sel 0 1 2 3 4 5 6 7;
#X obj 571 225 mtof;
#X obj 571 299 noiseosc~;
#X obj 570 379 *~;
#X obj 770 320 bng 15 250 50 0 empty empty empty 17 7 0 10 -262144
-1 -1;
#X obj 406 123 metro 250;
#X obj 406 147 random 100;
#X obj 406 195 sel 1;
#X obj 405 99 tgl 15 0 empty empty empty 17 7 0 10 -262144 -1 -1 1
1;
#X obj 6 258 osc~;
#X msg 6 186 48 64 67 71;
#X msg 96 186 50 65 69 72;
#X msg 587 152 72 74 76 77 79 81 83 84;
#X obj 570 403 *~ 0.3;
#X obj 406 171 <= 80;
#X obj 1176 179 noiseosc~;
#X msg 1174 155 65.4064;
#X obj 1167 130 loadbang;
#X obj 1005 128 metro 500;
#X obj 1007 110 tgl 15 0 empty empty empty 17 7 0 10 -262144 -1 -1
1 1;
#X obj 1008 279 vline~;
#X obj 1014 235 bng 15 250 50 0 empty empty empty 17 7 0 10 -262144
-1 -1;
#X obj 1008 303 *~;
#X obj 1176 203 *~ 8;
#X obj 1317 162 noise~;
#X obj 1287 235 vline~;
#X obj 1287 259 *~;
#X msg 1287 211 0 0 0 \, 1 2 0 \, 0 10 5;
#X obj 1102 179 noiseosc~;
#X obj 1102 203 *~ 2;
#X obj 1118 17 t b b;
#X obj 1087 115 line;
#X msg 1087 71 65.4064 100;
#X obj 1087 47 del 30;
#X msg 1173 71 130.813 0;
#X obj 1126 361 *~ 0.7;
#X text 177 41 chords;
#X text 373 71 melody;
#X text 537 54 kick;
#X obj 487 646 *~;
#X obj 608 611 vline~;
#X text 751 517 "sidechaining";
#X obj 571 323 *~ 0.8;
#X msg 1008 255 0 0 0 \, 1 5 0 \, 0.5 200 50 \, 0 200 250;
#X obj 1287 283 *~ 0.11;
#X obj 297 39 tgl 15 0 empty empty empty 17 7 0 10 -262144 -1 -1 1
1;
#X msg 717 551 1 0 5 \, 0.3 20 5 \, 0.8 40 25 \, 1 80 65;
#X obj 934 225 del 250;
#X obj 934 153 random 10;
#X obj 934 177 > 8;
#X obj 934 201 sel 1;
#X obj 683 357 envgen~ 1 5 0.2 100 0 400;
#X connect 0 0 1 0;
#X connect 0 0 1 1;
#X connect 2 0 3 0;
#X connect 2 1 4 0;
#X connect 2 2 5 0;
#X connect 2 3 6 0;
#X connect 3 0 44 0;
#X connect 4 0 7 0;
#X connect 5 0 8 0;
#X connect 6 0 9 0;
#X connect 7 0 18 0;
#X connect 8 0 18 0;
#X connect 9 0 18 0;
#X connect 10 0 14 0;
#X connect 11 0 16 0;
#X connect 12 0 46 0;
#X connect 13 0 45 0;
#X connect 14 0 11 0;
#X connect 14 0 19 0;
#X connect 15 0 80 0;
#X connect 16 0 13 0;
#X connect 16 1 12 0;
#X connect 18 0 74 0;
#X connect 18 0 22 0;
#X connect 19 0 23 0;
#X connect 20 0 18 1;
#X connect 21 0 22 0;
#X connect 21 0 74 0;
#X connect 22 0 17 0;
#X connect 23 0 20 0;
#X connect 24 0 35 0;
#X connect 25 0 47 0;
#X connect 26 0 27 1;
#X connect 26 1 28 1;
#X connect 26 2 29 1;
#X connect 26 3 30 1;
#X connect 26 4 31 1;
#X connect 26 5 32 1;
#X connect 26 6 33 1;
#X connect 26 7 34 1;
#X connect 27 0 36 0;
#X connect 28 0 36 0;
#X connect 29 0 36 0;
#X connect 30 0 36 0;
#X connect 31 0 36 0;
#X connect 32 0 36 0;
#X connect 33 0 36 0;
#X connect 34 0 36 0;
#X connect 35 0 27 0;
#X connect 35 1 28 0;
#X connect 35 2 29 0;
#X connect 35 3 30 0;
#X connect 35 4 31 0;
#X connect 35 5 32 0;
#X connect 35 6 33 0;
#X connect 35 7 34 0;
#X connect 36 0 37 0;
#X connect 37 0 77 0;
#X connect 38 0 0 0;
#X connect 38 0 48 0;
#X connect 39 0 86 0;
#X connect 40 0 41 0;
#X connect 41 0 49 0;
#X connect 42 0 39 0;
#X connect 42 0 24 0;
#X connect 43 0 40 0;
#X connect 44 0 18 0;
#X connect 45 0 2 0;
#X connect 46 0 2 0;
#X connect 47 0 26 0;
#X connect 48 0 17 0;
#X connect 49 0 42 0;
#X connect 50 0 58 0;
#X connect 51 0 50 0;
#X connect 52 0 51 0;
#X connect 53 0 56 0;
#X connect 53 0 65 0;
#X connect 53 0 83 0;
#X connect 54 0 53 0;
#X connect 55 0 57 0;
#X connect 56 0 78 0;
#X connect 56 0 62 0;
#X connect 56 0 81 0;
#X connect 57 0 70 0;
#X connect 58 0 57 1;
#X connect 59 0 61 1;
#X connect 60 0 61 0;
#X connect 61 0 79 0;
#X connect 62 0 60 0;
#X connect 63 0 64 0;
#X connect 64 0 57 1;
#X connect 65 0 68 0;
#X connect 65 1 69 0;
#X connect 66 0 63 0;
#X connect 67 0 66 0;
#X connect 68 0 67 0;
#X connect 69 0 66 0;
#X connect 70 0 0 0;
#X connect 74 0 0 0;
#X connect 75 0 74 1;
#X connect 77 0 38 0;
#X connect 78 0 55 0;
#X connect 79 0 70 0;
#X connect 80 0 10 0;
#X connect 80 0 54 0;
#X connect 80 0 43 0;
#X connect 81 0 75 0;
#X connect 82 0 56 0;
#X connect 83 0 84 0;
#X connect 84 0 85 0;
#X connect 85 0 82 0;
#X connect 86 0 38 1;
