#N canvas 598 25 1124 1010 12;
#X obj 289 986 dac~;
#X obj 23 147 + 1;
#X obj 229 502 *~;
#X floatatom 383 451 5 0 0 0 - - -;
#X obj 22 502 sig~;
#X obj 22 576 +~, f 30;
#X obj 229 478 osc~;
#X obj 22 601 osc~;
#X obj 22 625 *~, f 84;
#X floatatom 23 196 5 0 0 0 - - -;
#X obj 23 219 t f f b, f 51;
#X obj 383 426 random 800;
#X obj 6 978 delwrite~ ya 500;
#X obj 231 771 vd~ ya;
#X floatatom 571 782 5 30 10000 0 - - -;
#X msg 231 723 \$1 50;
#X obj 59 831 *~;
#X floatatom 59 753 5 0 0.95 0 - - -;
#X obj 606 532 vline~;
#X obj 45 280 t f b;
#X obj 45 434 *;
#X obj 44 457 sig~;
#X obj 231 747 line~;
#X obj 552 758 snapshot~;
#X obj 481 739 metro 10;
#X obj 481 719 tgl 15 0 empty empty empty 17 7 0 10 -262144 -1 -1 1
1;
#X obj 553 825 +;
#X text 380 717 "lofi" toggle;
#X text 609 782 delay ms;
#X obj 770 685 loadbang;
#X obj 98 691 loadbang;
#X msg 126 731 0.8;
#X text 97 754 delay feedback;
#X obj 77 353 bng 15 250 50 0 empty empty empty 17 7 0 10 -262144 -1
-1;
#X obj 120 353 bng 15 250 50 0 empty empty empty 17 7 0 10 -262144
-1 -1;
#X obj 164 353 bng 15 250 50 0 empty empty empty 17 7 0 10 -262144
-1 -1;
#X obj 208 353 bng 15 250 50 0 empty empty empty 17 7 0 10 -262144
-1 -1;
#X obj 252 353 bng 15 250 50 0 empty empty empty 17 7 0 10 -262144
-1 -1;
#X obj 77 330 sel 0 1 2 3 4 5, f 38;
#X obj 296 353 bng 15 250 50 0 empty empty empty 17 7 0 10 -262144
-1 -1;
#X obj 77 306 random 6;
#X msg 546 329 0.25 0.5 1 1.5 2 10;
#X obj 77 373 f;
#X obj 120 373 f;
#X obj 164 373 f;
#X obj 208 373 f;
#X obj 252 373 f;
#X obj 296 373 f;
#X obj 546 354 unpack f f f f f f;
#X obj 814 305 loadbang;
#X msg 690 329 0.75 4 6 7 13 15;
#X obj 571 803 t b f;
#X msg 765 149 100;
#X obj 765 173 -, f 5;
#X obj 765 125 t b f f, f 10;
#X obj 81 910 *~;
#X obj 387 904 *~;
#X obj 765 197 / 100;
#X obj 832 197 / 100;
#X obj 765 245 line~;
#X obj 765 269 s~ left;
#X obj 832 245 line~;
#X obj 832 269 s~ right;
#X obj 99 885 r~ left;
#X obj 405 877 r~ right;
#X obj 122 91 t b b, f 16;
#X obj 765 8 loadbang;
#X obj 765 32 tgl 15 0 empty empty empty 17 7 0 10 -262144 -1 -1 1
1;
#X obj 81 934 *~ 0.2;
#X obj 387 928 *~ 0.2;
#X obj 765 52 metro 5000;
#X msg 765 221 \$1 2000;
#X msg 832 221 \$1 2000;
#X obj 481 694 loadbang;
#X obj 957 288 hsl 128 15 0 1 0 0 empty empty empty -2 -8 0 10 -262144
-1 -1 6942 1;
#X obj 954 220 tgl 15 0 empty empty empty 17 7 0 10 -262144 -1 -1 1
1;
#X obj 954 195 loadbang;
#X obj 954 264 snapshot~;
#X obj 606 462 sel 0 1, f 72;
#X floatatom 624 416 5 0 1 0 - - -;
#X obj 606 486 bng 15 250 50 0 empty empty empty 17 7 0 10 -262144
-1 -1;
#X obj 857 486 bng 15 250 50 0 empty empty empty 17 7 0 10 -262144
-1 -1;
#X obj 606 438 f;
#X msg 814 329 10 20 30 40 50 60;
#X obj 954 240 metro 50;
#X msg 606 507 0 1 0 \, 1 5 1 \, 0.4 50 95 \, 0 200 200;
#X msg 857 507 0 1 0 \, 1 100 1 \, 0 200 100;
#X obj 277 31 bng 15 250 50 0 empty empty empty 17 7 0 10 -262144 -1
-1;
#X obj 277 51 t b b b;
#X obj 300 133 del;
#X obj 300 157 spigot;
#X obj 339 137 tgl 15 0 empty empty empty 17 7 0 10 -262144 -1 -1 1
1;
#X obj 490 23 loadbang;
#X obj 490 47 t b b;
#X obj 552 734 osc~ 0.8;
#X text 663 415 envelope chooser;
#X text 493 331 timbre;
#X obj 229 549 *~, f 9;
#X obj 289 527 sig~;
#X obj 292 509 hsl 128 15 0 1 0 0 empty empty empty -2 -8 0 10 -262144
-1 -1 12700 1;
#X text 425 508 fm amount;
#X obj 289 449 loadbang;
#X msg 289 473 1;
#X obj 23 123 random 11;
#X floatatom 363 57 5 0 0 0 - - -;
#X obj 362 8 loadbang;
#X obj 324 79 random;
#X obj 765 77 random 50;
#X obj 765 101 + 25;
#X obj 383 474 sig~;
#X obj 296 702 *~;
#N canvas 0 23 122 235 volumeRandomizer 0;
#X obj 12 12 loadbang;
#X obj 12 36 tgl 15 0 empty empty empty 17 7 0 10 -262144 -1 -1 1 1
;
#X obj 12 80 random 100;
#X obj 12 104 / 500;
#X floatatom 12 128 5 0 0 0 - - -;
#X obj 12 175 line~;
#X obj 12 199 outlet~;
#X obj 12 56 metro 20000;
#X msg 12 151 \$1 10000;
#X connect 0 0 1 0;
#X connect 1 0 7 0;
#X connect 2 0 3 0;
#X connect 3 0 4 0;
#X connect 4 0 8 0;
#X connect 5 0 6 0;
#X connect 7 0 2 0;
#X connect 8 0 5 0;
#X restore 313 679 pd volumeRandomizer;
#N canvas 0 23 109 203 hipRandomizer 0;
#X obj 12 9 loadbang;
#X obj 12 33 tgl 15 0 empty empty empty 17 7 0 10 -262144 -1 -1 1 1
;
#X floatatom 12 101 10 0 0 0 - - -;
#X obj 12 148 line;
#X obj 12 172 outlet;
#X obj 12 77 random 1000;
#X obj 12 53 metro 10000;
#X msg 12 124 \$1 8000;
#X connect 0 0 1 0;
#X connect 1 0 6 0;
#X connect 2 0 7 0;
#X connect 3 0 4 0;
#X connect 5 0 2 0;
#X connect 6 0 5 0;
#X connect 7 0 3 0;
#X restore 256 795 pd hipRandomizer;
#X obj 231 819 hip~;
#X msg 362 32 800;
#X obj 324 103 + 20;
#X obj 820 373 loadbang;
#X msg 820 397 1;
#X obj 246 679 hip~ 500;
#N canvas 0 23 730 394 bass1 0;
#X obj 288 198 dac~;
#X obj 288 78 clip~ -0.2 0.2;
#X obj 288 126 lop~ 1000;
#N canvas 0 23 122 235 volumeRandomizer 0;
#X obj 12 12 loadbang;
#X obj 12 36 tgl 15 0 empty empty empty 17 7 0 10 -262144 -1 -1 1 1
;
#X obj 12 80 random 100;
#X floatatom 12 128 5 0 0 0 - - -;
#X obj 12 175 line~;
#X obj 12 199 outlet~;
#X obj 12 56 metro 20000;
#X msg 12 151 \$1 10000;
#X obj 12 104 / 750;
#X connect 0 0 1 0;
#X connect 1 0 6 0;
#X connect 2 0 8 0;
#X connect 3 0 7 0;
#X connect 4 0 5 0;
#X connect 6 0 2 0;
#X connect 7 0 4 0;
#X connect 8 0 3 0;
#X restore 306 150 pd volumeRandomizer;
#X obj 288 174 *~;
#X obj 164 54 noise~;
#X obj 164 78 *~;
#X obj 164 126 hip~ 15000;
#X obj 164 150 delwrite~ noise 500;
#X obj 216 221 delread~ noise 500;
#X obj 353 221 delread~ noise 400;
#X obj 216 293 *~;
#X obj 353 293 *~;
#X obj 216 317 dac~, f 20;
#N canvas 0 23 122 235 volumeRandomizer 0;
#X obj 12 12 loadbang;
#X obj 12 36 tgl 15 0 empty empty empty 17 7 0 10 -262144 -1 -1 1 1
;
#X obj 12 80 random 100;
#X obj 12 104 / 500;
#X floatatom 12 128 5 0 0 0 - - -;
#X obj 12 175 line~;
#X obj 12 199 outlet~;
#X obj 12 56 metro 20000;
#X msg 12 151 \$1 10000;
#X connect 0 0 1 0;
#X connect 1 0 7 0;
#X connect 2 0 3 0;
#X connect 3 0 4 0;
#X connect 4 0 8 0;
#X connect 5 0 6 0;
#X connect 7 0 2 0;
#X connect 8 0 5 0;
#X restore 234 269 pd volumeRandomizer;
#N canvas 0 23 122 235 volumeRandomizer 0;
#X obj 12 12 loadbang;
#X obj 12 36 tgl 15 0 empty empty empty 17 7 0 10 -262144 -1 -1 1 1
;
#X obj 12 80 random 100;
#X obj 12 104 / 500;
#X floatatom 12 128 5 0 0 0 - - -;
#X obj 12 175 line~;
#X obj 12 199 outlet~;
#X obj 12 56 metro 20000;
#X msg 12 151 \$1 10000;
#X connect 0 0 1 0;
#X connect 1 0 7 0;
#X connect 2 0 3 0;
#X connect 3 0 4 0;
#X connect 4 0 8 0;
#X connect 5 0 6 0;
#X connect 7 0 2 0;
#X connect 8 0 5 0;
#X restore 319 245 pd volumeRandomizer;
#X obj 164 102 *~ 0.08;
#X obj 355 54 *~ 0.2;
#X obj 288 102 *~ 2;
#X obj 24 77 clip~ -0.3 0.3;
#X obj 23 195 delread~ buzz 10;
#X obj 12 168 delwrite~ buzz 0;
#X obj 23 219 *~ 0.1;
#X obj 24 131 hip~ 2000;
#X obj 24 101 *~ 0.1;
#X obj 229 78 osc~ 55;
#X obj 435 326 outlet~;
#X obj 436 300 *~ 5;
#X obj 561 295 snapshot~;
#X floatatom 561 319 5 0 0 0 - - -;
#X obj 594 263 bng 15 250 50 0 empty empty empty 17 7 0 10 -262144
-1 -1;
#X obj 229 102 *~ 0.5;
#X obj 24 53 phasor~ 200;
#X obj 214 35 osc~ 50.075;
#X obj 288 35 osc~ 24.5;
#X obj 355 35 phasor~ 99.875;
#X connect 1 0 18 0;
#X connect 2 0 4 0;
#X connect 3 0 4 1;
#X connect 4 0 0 0;
#X connect 4 0 0 1;
#X connect 5 0 6 0;
#X connect 5 0 6 1;
#X connect 6 0 16 0;
#X connect 7 0 4 0;
#X connect 7 0 8 0;
#X connect 9 0 11 0;
#X connect 10 0 12 0;
#X connect 11 0 13 0;
#X connect 11 0 8 0;
#X connect 12 0 13 1;
#X connect 12 0 8 0;
#X connect 14 0 11 1;
#X connect 15 0 12 1;
#X connect 15 0 27 0;
#X connect 16 0 7 0;
#X connect 17 0 1 0;
#X connect 18 0 2 0;
#X connect 19 0 24 0;
#X connect 20 0 22 0;
#X connect 20 0 4 0;
#X connect 22 0 21 0;
#X connect 23 0 4 0;
#X connect 23 0 21 0;
#X connect 24 0 23 0;
#X connect 25 0 31 0;
#X connect 27 0 26 0;
#X connect 27 0 28 0;
#X connect 28 0 29 0;
#X connect 30 0 28 0;
#X connect 31 0 4 0;
#X connect 32 0 19 0;
#X connect 33 0 1 0;
#X connect 34 0 1 0;
#X connect 35 0 17 0;
#X restore 807 551 pd bass1;
#N canvas 0 23 569 394 bass2 0;
#X obj 288 248 dac~;
#X obj 288 78 clip~ -0.2 0.2;
#X obj 288 126 lop~ 1000;
#N canvas 0 23 122 235 volumeRandomizer 0;
#X obj 12 12 loadbang;
#X obj 12 36 tgl 15 0 empty empty empty 17 7 0 10 -262144 -1 -1 1 1
;
#X obj 12 80 random 100;
#X floatatom 12 128 5 0 0 0 - - -;
#X obj 12 175 line~;
#X obj 12 199 outlet~;
#X obj 12 56 metro 7000;
#X msg 12 151 \$1 5000;
#X obj 12 104 / 1500;
#X connect 0 0 1 0;
#X connect 1 0 6 0;
#X connect 2 0 8 0;
#X connect 3 0 7 0;
#X connect 4 0 5 0;
#X connect 6 0 2 0;
#X connect 7 0 4 0;
#X connect 8 0 3 0;
#X restore 306 150 pd volumeRandomizer;
#X obj 288 174 *~;
#X obj 164 54 noise~;
#X obj 164 78 *~;
#X obj 164 126 hip~ 15000;
#X obj 216 343 *~;
#X obj 353 343 *~;
#X obj 216 367 dac~, f 20;
#N canvas 0 23 122 235 volumeRandomizer 0;
#X obj 12 12 loadbang;
#X obj 12 36 tgl 15 0 empty empty empty 17 7 0 10 -262144 -1 -1 1 1
;
#X obj 12 80 random 100;
#X obj 12 104 / 500;
#X floatatom 12 128 5 0 0 0 - - -;
#X obj 12 175 line~;
#X obj 12 199 outlet~;
#X obj 12 56 metro 20000;
#X msg 12 151 \$1 10000;
#X connect 0 0 1 0;
#X connect 1 0 7 0;
#X connect 2 0 3 0;
#X connect 3 0 4 0;
#X connect 4 0 8 0;
#X connect 5 0 6 0;
#X connect 7 0 2 0;
#X connect 8 0 5 0;
#X restore 234 319 pd volumeRandomizer;
#N canvas 0 23 122 235 volumeRandomizer 0;
#X obj 12 12 loadbang;
#X obj 12 36 tgl 15 0 empty empty empty 17 7 0 10 -262144 -1 -1 1 1
;
#X obj 12 80 random 100;
#X obj 12 104 / 500;
#X floatatom 12 128 5 0 0 0 - - -;
#X obj 12 175 line~;
#X obj 12 199 outlet~;
#X obj 12 56 metro 20000;
#X msg 12 151 \$1 10000;
#X connect 0 0 1 0;
#X connect 1 0 7 0;
#X connect 2 0 3 0;
#X connect 3 0 4 0;
#X connect 4 0 8 0;
#X connect 5 0 6 0;
#X connect 7 0 2 0;
#X connect 8 0 5 0;
#X restore 319 295 pd volumeRandomizer;
#X obj 164 102 *~ 0.08;
#X obj 355 54 *~ 0.2;
#X obj 288 102 *~ 2;
#X obj 24 77 clip~ -0.3 0.3;
#X obj 23 219 *~ 0.1;
#X obj 24 131 hip~ 2000;
#X obj 12 167 delwrite~ buzz2 0;
#X obj 23 195 delread~ buzz2 10;
#X obj 216 271 delread~ noise2 500;
#X obj 353 271 delread~ noise2 400;
#X obj 164 150 delwrite~ noise2 500;
#X obj 24 101 *~ 0.075;
#X obj 288 198 *~, f 27;
#X obj 475 70 inlet~;
#X obj 24 53 phasor~ 300;
#X obj 214 35 osc~ 150.05;
#X obj 288 35 osc~ 74.75;
#X obj 355 35 phasor~ 37.56;
#X connect 1 0 15 0;
#X connect 2 0 4 0;
#X connect 3 0 4 1;
#X connect 4 0 25 0;
#X connect 5 0 6 0;
#X connect 5 0 6 1;
#X connect 6 0 13 0;
#X connect 7 0 4 0;
#X connect 7 0 23 0;
#X connect 8 0 10 0;
#X connect 8 0 23 0;
#X connect 9 0 10 1;
#X connect 9 0 23 0;
#X connect 11 0 8 1;
#X connect 12 0 9 1;
#X connect 13 0 7 0;
#X connect 14 0 1 0;
#X connect 15 0 2 0;
#X connect 16 0 24 0;
#X connect 17 0 19 0;
#X connect 18 0 4 0;
#X connect 18 0 19 0;
#X connect 20 0 17 0;
#X connect 20 0 4 0;
#X connect 21 0 8 0;
#X connect 22 0 9 0;
#X connect 24 0 18 0;
#X connect 25 0 0 0;
#X connect 25 0 0 1;
#X connect 26 0 25 1;
#X connect 27 0 16 0;
#X connect 28 0 1 0;
#X connect 29 0 1 0;
#X connect 30 0 14 0;
#X restore 807 575 pd bass2;
#X obj 58 601 noiseosc~;
#X msg 73 720 0.75;
#X msg 26 695 0.5;
#X msg 32 669 0.25;
#X msg 70 666 0.1;
#X msg 764 802 500;
#X msg 784 854 250;
#X msg 760 705 125;
#X msg 723 706 62.5;
#X obj 23 171 * 40;
#X obj 59 800 line~;
#X msg 59 776 \$1 800;
#X connect 1 0 130 0;
#X connect 2 0 97 0;
#X connect 3 0 109 0;
#X connect 4 0 5 0;
#X connect 5 0 7 0;
#X connect 6 0 2 0;
#X connect 7 0 8 0;
#X connect 8 0 12 0;
#X connect 8 0 118 0;
#X connect 9 0 10 0;
#X connect 10 0 4 0;
#X connect 10 0 121 0;
#X connect 10 1 19 0;
#X connect 10 2 11 0;
#X connect 11 0 3 0;
#X connect 13 0 113 0;
#X connect 14 0 51 0;
#X connect 15 0 22 0;
#X connect 16 0 12 0;
#X connect 16 0 55 0;
#X connect 16 0 56 0;
#X connect 17 0 132 0;
#X connect 18 0 8 1;
#X connect 19 0 20 0;
#X connect 19 1 40 0;
#X connect 20 0 21 0;
#X connect 21 0 6 0;
#X connect 22 0 13 0;
#X connect 23 0 26 0;
#X connect 24 0 23 0;
#X connect 25 0 24 0;
#X connect 26 0 15 0;
#X connect 29 0 128 0;
#X connect 30 0 31 0;
#X connect 31 0 17 0;
#X connect 33 0 42 0;
#X connect 34 0 43 0;
#X connect 35 0 44 0;
#X connect 36 0 45 0;
#X connect 37 0 46 0;
#X connect 38 0 33 0;
#X connect 38 1 34 0;
#X connect 38 2 35 0;
#X connect 38 3 36 0;
#X connect 38 4 37 0;
#X connect 38 5 39 0;
#X connect 39 0 47 0;
#X connect 40 0 38 0;
#X connect 41 0 48 0;
#X connect 42 0 20 1;
#X connect 43 0 20 1;
#X connect 44 0 20 1;
#X connect 45 0 20 1;
#X connect 46 0 20 1;
#X connect 47 0 20 1;
#X connect 48 0 42 1;
#X connect 48 1 43 1;
#X connect 48 2 44 1;
#X connect 48 3 45 1;
#X connect 48 4 46 1;
#X connect 48 5 47 1;
#X connect 49 0 83 0;
#X connect 50 0 48 0;
#X connect 51 0 26 0;
#X connect 51 1 26 1;
#X connect 52 0 53 0;
#X connect 53 0 57 0;
#X connect 54 0 52 0;
#X connect 54 1 53 1;
#X connect 54 2 58 0;
#X connect 55 0 68 0;
#X connect 56 0 69 0;
#X connect 57 0 71 0;
#X connect 58 0 72 0;
#X connect 59 0 60 0;
#X connect 61 0 62 0;
#X connect 61 0 77 0;
#X connect 63 0 55 1;
#X connect 64 0 56 1;
#X connect 65 0 82 0;
#X connect 65 1 103 0;
#X connect 66 0 67 0;
#X connect 67 0 70 0;
#X connect 68 0 0 0;
#X connect 69 0 0 1;
#X connect 70 0 107 0;
#X connect 71 0 59 0;
#X connect 72 0 61 0;
#X connect 73 0 25 0;
#X connect 75 0 84 0;
#X connect 76 0 75 0;
#X connect 77 0 74 0;
#X connect 78 0 80 0;
#X connect 78 1 81 0;
#X connect 79 0 82 1;
#X connect 80 0 85 0;
#X connect 81 0 86 0;
#X connect 82 0 78 0;
#X connect 83 0 48 0;
#X connect 84 0 77 0;
#X connect 85 0 18 0;
#X connect 86 0 18 0;
#X connect 87 0 88 0;
#X connect 88 0 65 0;
#X connect 88 1 89 0;
#X connect 88 2 106 0;
#X connect 89 0 90 0;
#X connect 90 0 87 0;
#X connect 91 0 90 1;
#X connect 92 0 93 0;
#X connect 93 0 87 0;
#X connect 93 1 91 0;
#X connect 94 0 23 0;
#X connect 97 0 5 1;
#X connect 98 0 97 1;
#X connect 99 0 98 0;
#X connect 101 0 102 0;
#X connect 102 0 99 0;
#X connect 103 0 1 0;
#X connect 104 0 106 1;
#X connect 105 0 114 0;
#X connect 106 0 115 0;
#X connect 107 0 108 0;
#X connect 108 0 54 0;
#X connect 109 0 2 1;
#X connect 110 0 0 0;
#X connect 110 0 0 1;
#X connect 111 0 110 1;
#X connect 112 0 113 1;
#X connect 113 0 16 1;
#X connect 114 0 104 0;
#X connect 115 0 89 1;
#X connect 116 0 117 0;
#X connect 117 0 79 0;
#X connect 118 0 110 0;
#X connect 119 0 120 0;
#X connect 121 0 8 0;
#X connect 122 0 17 0;
#X connect 123 0 17 0;
#X connect 124 0 17 0;
#X connect 125 0 17 0;
#X connect 126 0 14 0;
#X connect 127 0 14 0;
#X connect 128 0 14 0;
#X connect 129 0 14 0;
#X connect 130 0 9 0;
#X connect 131 0 16 0;
#X connect 132 0 131 0;
