#N canvas 598 23 139 111 12;
#N canvas 0 23 730 394 bass1 0;
#X obj 288 198 dac~;
#X obj 288 78 clip~ -0.2 0.2;
#X obj 288 126 lop~ 1000;
#X obj 214 35 osc~ 55.05;
#X obj 288 35 osc~ 27.5;
#N canvas 0 23 122 235 volumeRandomizer 0;
#X obj 12 12 loadbang;
#X obj 12 36 tgl 15 0 empty empty empty 17 7 0 10 -262144 -1 -1 1 1
;
#X obj 12 80 random 100;
#X floatatom 12 128 5 0 0 0 - - -;
#X obj 12 175 line~;
#X obj 12 199 outlet~;
#X obj 12 56 metro 20000;
#X msg 12 151 \$1 10000;
#X obj 12 104 / 750;
#X connect 0 0 1 0;
#X connect 1 0 6 0;
#X connect 2 0 8 0;
#X connect 3 0 7 0;
#X connect 4 0 5 0;
#X connect 6 0 2 0;
#X connect 7 0 4 0;
#X connect 8 0 3 0;
#X restore 306 150 pd volumeRandomizer;
#X obj 288 174 *~;
#X obj 164 54 noise~;
#X obj 164 78 *~;
#X obj 164 126 hip~ 15000;
#X obj 164 150 delwrite~ noise 500;
#X obj 216 221 delread~ noise 500;
#X obj 353 221 delread~ noise 400;
#X obj 216 293 *~;
#X obj 353 293 *~;
#X obj 216 317 dac~, f 20;
#N canvas 0 23 122 235 volumeRandomizer 0;
#X obj 12 12 loadbang;
#X obj 12 36 tgl 15 0 empty empty empty 17 7 0 10 -262144 -1 -1 1 1
;
#X obj 12 80 random 100;
#X obj 12 104 / 500;
#X floatatom 12 128 5 0 0 0 - - -;
#X obj 12 175 line~;
#X obj 12 199 outlet~;
#X obj 12 56 metro 20000;
#X msg 12 151 \$1 10000;
#X connect 0 0 1 0;
#X connect 1 0 7 0;
#X connect 2 0 3 0;
#X connect 3 0 4 0;
#X connect 4 0 8 0;
#X connect 5 0 6 0;
#X connect 7 0 2 0;
#X connect 8 0 5 0;
#X restore 234 269 pd volumeRandomizer;
#N canvas 0 23 122 235 volumeRandomizer 0;
#X obj 12 12 loadbang;
#X obj 12 36 tgl 15 0 empty empty empty 17 7 0 10 -262144 -1 -1 1 1
;
#X obj 12 80 random 100;
#X obj 12 104 / 500;
#X floatatom 12 128 5 0 0 0 - - -;
#X obj 12 175 line~;
#X obj 12 199 outlet~;
#X obj 12 56 metro 20000;
#X msg 12 151 \$1 10000;
#X connect 0 0 1 0;
#X connect 1 0 7 0;
#X connect 2 0 3 0;
#X connect 3 0 4 0;
#X connect 4 0 8 0;
#X connect 5 0 6 0;
#X connect 7 0 2 0;
#X connect 8 0 5 0;
#X restore 319 245 pd volumeRandomizer;
#X obj 164 102 *~ 0.08;
#X obj 355 35 phasor~ 110.1;
#X obj 355 54 *~ 0.2;
#X obj 288 102 *~ 2;
#X obj 24 77 clip~ -0.3 0.3;
#X obj 23 195 delread~ buzz 10;
#X obj 12 168 delwrite~ buzz 0;
#X obj 23 219 *~ 0.1;
#X obj 24 131 hip~ 2000;
#X obj 24 53 phasor~ 220;
#X obj 24 101 *~ 0.1;
#X obj 229 78 osc~ 55;
#X obj 435 326 outlet~;
#X obj 436 300 *~ 5;
#X obj 561 295 snapshot~;
#X floatatom 561 319 5 0 0 0 - - -;
#X obj 594 263 bng 15 250 50 0 empty empty empty 17 7 0 10 -262144
-1 -1;
#X obj 229 102 *~ 0.5;
#X connect 1 0 21 0;
#X connect 2 0 6 0;
#X connect 3 0 1 0;
#X connect 4 0 1 0;
#X connect 5 0 6 1;
#X connect 6 0 0 0;
#X connect 6 0 0 1;
#X connect 7 0 8 0;
#X connect 7 0 8 1;
#X connect 8 0 18 0;
#X connect 9 0 6 0;
#X connect 9 0 10 0;
#X connect 11 0 13 0;
#X connect 12 0 14 0;
#X connect 13 0 15 0;
#X connect 13 0 10 0;
#X connect 14 0 15 1;
#X connect 14 0 10 0;
#X connect 16 0 13 1;
#X connect 17 0 14 1;
#X connect 17 0 31 0;
#X connect 18 0 9 0;
#X connect 19 0 20 0;
#X connect 20 0 1 0;
#X connect 21 0 2 0;
#X connect 22 0 28 0;
#X connect 23 0 25 0;
#X connect 23 0 6 0;
#X connect 25 0 24 0;
#X connect 26 0 6 0;
#X connect 26 0 24 0;
#X connect 27 0 22 0;
#X connect 28 0 26 0;
#X connect 29 0 35 0;
#X connect 31 0 30 0;
#X connect 31 0 32 0;
#X connect 32 0 33 0;
#X connect 34 0 32 0;
#X connect 35 0 6 0;
#X restore 17 22 pd bass1;
#N canvas 0 23 569 394 bass2 0;
#X obj 288 248 dac~;
#X obj 288 78 clip~ -0.2 0.2;
#X obj 288 126 lop~ 1000;
#N canvas 0 23 122 235 volumeRandomizer 0;
#X obj 12 12 loadbang;
#X obj 12 36 tgl 15 0 empty empty empty 17 7 0 10 -262144 -1 -1 1 1
;
#X obj 12 80 random 100;
#X floatatom 12 128 5 0 0 0 - - -;
#X obj 12 175 line~;
#X obj 12 199 outlet~;
#X obj 12 56 metro 7000;
#X msg 12 151 \$1 5000;
#X obj 12 104 / 1500;
#X connect 0 0 1 0;
#X connect 1 0 6 0;
#X connect 2 0 8 0;
#X connect 3 0 7 0;
#X connect 4 0 5 0;
#X connect 6 0 2 0;
#X connect 7 0 4 0;
#X connect 8 0 3 0;
#X restore 306 150 pd volumeRandomizer;
#X obj 288 174 *~;
#X obj 164 54 noise~;
#X obj 164 78 *~;
#X obj 164 126 hip~ 15000;
#X obj 216 343 *~;
#X obj 353 343 *~;
#X obj 216 367 dac~, f 20;
#N canvas 0 23 122 235 volumeRandomizer 0;
#X obj 12 12 loadbang;
#X obj 12 36 tgl 15 0 empty empty empty 17 7 0 10 -262144 -1 -1 1 1
;
#X obj 12 80 random 100;
#X obj 12 104 / 500;
#X floatatom 12 128 5 0 0 0 - - -;
#X obj 12 175 line~;
#X obj 12 199 outlet~;
#X obj 12 56 metro 20000;
#X msg 12 151 \$1 10000;
#X connect 0 0 1 0;
#X connect 1 0 7 0;
#X connect 2 0 3 0;
#X connect 3 0 4 0;
#X connect 4 0 8 0;
#X connect 5 0 6 0;
#X connect 7 0 2 0;
#X connect 8 0 5 0;
#X restore 234 319 pd volumeRandomizer;
#N canvas 0 23 122 235 volumeRandomizer 0;
#X obj 12 12 loadbang;
#X obj 12 36 tgl 15 0 empty empty empty 17 7 0 10 -262144 -1 -1 1 1
;
#X obj 12 80 random 100;
#X obj 12 104 / 500;
#X floatatom 12 128 5 0 0 0 - - -;
#X obj 12 175 line~;
#X obj 12 199 outlet~;
#X obj 12 56 metro 20000;
#X msg 12 151 \$1 10000;
#X connect 0 0 1 0;
#X connect 1 0 7 0;
#X connect 2 0 3 0;
#X connect 3 0 4 0;
#X connect 4 0 8 0;
#X connect 5 0 6 0;
#X connect 7 0 2 0;
#X connect 8 0 5 0;
#X restore 319 295 pd volumeRandomizer;
#X obj 164 102 *~ 0.08;
#X obj 355 54 *~ 0.2;
#X obj 288 102 *~ 2;
#X obj 24 77 clip~ -0.3 0.3;
#X obj 23 219 *~ 0.1;
#X obj 24 131 hip~ 2000;
#X obj 12 167 delwrite~ buzz2 0;
#X obj 23 195 delread~ buzz2 10;
#X obj 216 271 delread~ noise2 500;
#X obj 353 271 delread~ noise2 400;
#X obj 164 150 delwrite~ noise2 500;
#X obj 24 53 phasor~ 330;
#X obj 214 35 osc~ 165.05;
#X obj 288 35 osc~ 41.25;
#X obj 355 35 phasor~ 82.5;
#X obj 24 101 *~ 0.075;
#X obj 288 198 *~, f 27;
#X obj 475 70 inlet~;
#X connect 1 0 15 0;
#X connect 2 0 4 0;
#X connect 3 0 4 1;
#X connect 4 0 29 0;
#X connect 5 0 6 0;
#X connect 5 0 6 1;
#X connect 6 0 13 0;
#X connect 7 0 4 0;
#X connect 7 0 23 0;
#X connect 8 0 10 0;
#X connect 8 0 23 0;
#X connect 9 0 10 1;
#X connect 9 0 23 0;
#X connect 11 0 8 1;
#X connect 12 0 9 1;
#X connect 13 0 7 0;
#X connect 14 0 1 0;
#X connect 15 0 2 0;
#X connect 16 0 28 0;
#X connect 17 0 19 0;
#X connect 18 0 4 0;
#X connect 18 0 19 0;
#X connect 20 0 17 0;
#X connect 20 0 4 0;
#X connect 21 0 8 0;
#X connect 22 0 9 0;
#X connect 24 0 16 0;
#X connect 25 0 1 0;
#X connect 26 0 1 0;
#X connect 27 0 14 0;
#X connect 28 0 18 0;
#X connect 29 0 0 0;
#X connect 29 0 0 1;
#X connect 30 0 29 1;
#X restore 17 46 pd bass2;
#X connect 0 0 1 0;
