#N canvas 538 197 688 470 12;
#X obj 127 235 osc~;
#X obj 127 9 mspkeyboard;
#X obj 127 33 route button1;
#X floatatom 127 57 5 0 0 0 - - -;
#X obj 127 259 *~;
#X obj 127 403 out~;
#X obj 34 307 osc~;
#X obj 69 307 ahdsr~ 5 50 200 0.4 745;
#X obj 34 331 *~;
#X obj 34 355 echo~ 250 0.75;
#X obj 127 104 unpack f f;
#X obj 127 168 sel 0 1;
#X obj 127 80 binarystatetimer;
#X obj 34 284 line;
#X obj 127 128 t f b, f 19;
#X obj 253 161 envgen 1 1000 0.4 500 0 200;
#X obj 253 185 sig~;
#X text 214 9 press L on keyboard;
#X obj 127 284 distortion~ 0.3;
#X obj 279 272 counter 8;
#X obj 279 320 mtof;
#X obj 275 245 bng 15 250 50 0 empty empty empty 17 7 0 10 -262144
-1 -1;
#X obj 279 344 * 0.5;
#X obj 279 296 16step 60 64 65 67 65 71 72 76;
#X obj 394 8 > 2000;
#X obj 239 104 unpack f f;
#X obj 394 32 sel 1;
#X obj 394 56 isfirst;
#X obj 394 80 bng 15 250 50 0 empty empty empty 17 7 0 10 -262144 -1
-1;
#X obj 424 100 envgen~ 1 5 0.4 200 0 100;
#X obj 371 102 pink~;
#X obj 371 126 *~;
#X obj 27 258 pack f f;
#X obj 14 158 min 2000;
#X obj 14 182 scaled 0 2000 5 1000;
#X connect 0 0 4 0;
#X connect 1 0 2 0;
#X connect 2 0 3 0;
#X connect 3 0 12 0;
#X connect 4 0 18 0;
#X connect 6 0 8 0;
#X connect 7 0 8 1;
#X connect 8 0 5 0;
#X connect 8 0 5 1;
#X connect 8 0 9 0;
#X connect 9 0 5 0;
#X connect 9 0 5 1;
#X connect 10 0 14 0;
#X connect 10 1 33 0;
#X connect 11 0 21 0;
#X connect 11 1 21 0;
#X connect 12 0 10 0;
#X connect 12 1 25 0;
#X connect 13 0 6 0;
#X connect 14 0 11 0;
#X connect 14 1 15 0;
#X connect 15 0 16 0;
#X connect 16 0 4 1;
#X connect 18 0 5 0;
#X connect 18 0 5 1;
#X connect 19 0 23 0;
#X connect 20 0 22 0;
#X connect 20 0 32 0;
#X connect 21 0 19 0;
#X connect 21 0 7 0;
#X connect 22 0 0 0;
#X connect 23 0 20 0;
#X connect 24 0 26 0;
#X connect 25 1 24 0;
#X connect 26 0 27 0;
#X connect 26 1 27 1;
#X connect 27 0 28 0;
#X connect 28 0 29 0;
#X connect 29 0 31 1;
#X connect 30 0 31 0;
#X connect 31 0 5 0;
#X connect 31 0 5 1;
#X connect 31 0 9 0;
#X connect 32 0 13 0;
#X connect 33 0 34 0;
#X connect 34 0 32 1;
