#N canvas 0 25 1722 959 12;
#X obj 727 24 binarystatetimer;
#X obj 1003 385 crackle~;
#X obj 1327 869 out~;
#X obj 1069 385 noise~;
#X obj 1003 409 *~, f 10;
#X obj 727 48 unpack f f;
#X obj 726 98 sel 0 1;
#X obj 698 608 vcf~ 8;
#X obj 715 242 line~;
#X obj 333 326 fm~ 5 5 500;
#X obj 460 177 bng 15 250 50 0 empty empty empty 17 7 0 10 -262144
-1 -1;
#X obj 426 329 envgen~ 1 20 0.3 200 0 200;
#X obj 333 350 *~;
#X obj 498 197 random 3000;
#X obj 498 221 + 200;
#X msg 669 141 8000 300;
#X obj 64 404 line;
#X obj 63 376 pack f f, f 9;
#X obj 51 323 t f b, f 11;
#X obj 416 199 random 10;
#X obj 572 387 f;
#X obj 573 362 bng 15 250 50 0 empty empty empty 17 7 0 10 -262144
-1 -1;
#X obj 572 411 min 2000;
#X obj 593 776 ducker~;
#X obj 412 668 hip~ 500;
#X msg 522 378 0;
#X obj 985 433 *~;
#X obj 915 305 random 100;
#X obj 915 377 line~;
#X obj 61 511 osc~;
#X obj 28 439 maybe 0.3;
#X obj 28 463 t b f;
#X obj 27 599 *~;
#X obj 61 535 vibrato~ 1 1;
#X obj 915 329 scaled 0 100 0.3 1;
#X obj 412 691 echo~ 80;
#X obj 1157 184 f;
#X obj 1156 162 bng 15 250 50 0 empty empty empty 17 7 0 10 -262144
-1 -1;
#X obj 1157 232 sel 1;
#X obj 1157 300 distortion~ 0.5;
#X obj 1157 256 bng 15 250 50 0 empty empty empty 17 7 0 10 -262144
-1 -1;
#X obj 1157 327 *~ 0.6;
#X obj 60 488 * 0.25;
#X obj 1157 276 snare~ 500 0.6 240;
#X obj 1239 333 echo~ 60 0.8;
#X obj 1157 208 < 75;
#X msg 915 353 \$1 100;
#X obj 27 575 envgen~ 1 5 0.3 500 0 200;
#X obj 27 623 *~ 0.8;
#X obj 795 346 bng 15 250 50 0 empty empty empty 17 7 0 10 -262144
-1 -1;
#X obj 795 366 f;
#X obj 795 414 sel 1;
#X obj 795 438 bng 15 250 50 0 empty empty empty 17 7 0 10 -262144
-1 -1;
#X obj 829 436 bng 15 250 50 0 empty empty empty 17 7 0 10 -262144
-1 -1;
#X msg 843 455 0 20;
#X obj 796 487 line;
#X obj 412 714 echo~ 320;
#X obj 795 390 > 1500;
#X msg 795 458 0.9 20;
#X msg 775 158 600 300;
#X obj 572 435 scaled 0 2000 0 0.85;
#X obj 985 457 *~ 0.7;
#X obj 342 200 random 10;
#X obj 1271 623 pan~;
#X obj 168 417 - 12;
#X obj 168 393 maybe 0.15;
#X obj 1299 521 randwalk 300 800;
#X obj 1300 574 scaled 0 1 0.15 0.85;
#X obj 1545 658 -, f 8;
#X obj 1521 601 t f b f;
#X msg 1545 636 1;
#X obj 1521 517 randwalk 50 200;
#X obj 727 72 t f b;
#X obj 1231 681 vfreeverb~ 0.1 0.1;
#X obj 1416 691 vfreeverb~ 0.1 0.1;
#X obj 1521 561 scaled 0 1 0.8 1;
#X obj 622 908 hip~ 40;
#X obj 622 932 *~ 1;
#X obj 622 884 lop~ 80;
#X obj 168 488 *~ 0.4;
#X obj 51 300 quantizedmode ionian 60;
#X obj 125 349 random 20;
#X obj 51 276 + 48;
#X obj 51 252 random 24;
#X obj 1299 545 hsl 128 15 0 1 0 0 empty empty empty -2 -8 0 10 -262144
-1 -1 2426 1;
#X obj 1523 541 hsl 128 15 0 1 0 0 empty empty empty -2 -8 0 10 -262144
-1 -1 5499 1;
#X obj 168 441 mtof;
#X obj 168 527 vibrato~;
#X obj 168 464 ks~ 50 0.99;
#X obj 442 14 notein, f 15;
#X obj 442 38 pack, f 8;
#X obj 442 61 route 39;
#X connect 0 0 5 0;
#X connect 0 0 10 0;
#X connect 1 0 4 0;
#X connect 3 0 4 1;
#X connect 4 0 26 1;
#X connect 5 0 72 0;
#X connect 5 1 20 1;
#X connect 5 1 36 1;
#X connect 5 1 50 1;
#X connect 6 0 15 0;
#X connect 6 0 21 0;
#X connect 6 0 27 0;
#X connect 6 0 49 0;
#X connect 6 1 25 0;
#X connect 6 1 37 0;
#X connect 6 1 59 0;
#X connect 7 1 63 0;
#X connect 8 0 7 1;
#X connect 9 0 12 0;
#X connect 10 0 11 0;
#X connect 10 0 13 0;
#X connect 10 0 19 0;
#X connect 10 0 62 0;
#X connect 10 0 83 0;
#X connect 11 0 12 1;
#X connect 12 0 7 0;
#X connect 12 0 24 0;
#X connect 13 0 14 0;
#X connect 14 0 9 3;
#X connect 15 0 8 0;
#X connect 16 0 9 0;
#X connect 17 0 16 0;
#X connect 18 0 17 0;
#X connect 18 0 30 0;
#X connect 18 0 65 0;
#X connect 18 1 81 0;
#X connect 19 0 9 2;
#X connect 20 0 22 0;
#X connect 21 0 20 0;
#X connect 22 0 60 0;
#X connect 23 0 7 0;
#X connect 23 0 78 0;
#X connect 23 1 7 0;
#X connect 23 1 78 0;
#X connect 24 0 35 0;
#X connect 25 0 35 2;
#X connect 26 0 61 0;
#X connect 27 0 34 0;
#X connect 28 0 26 0;
#X connect 29 0 33 0;
#X connect 30 0 31 0;
#X connect 31 0 47 0;
#X connect 31 1 42 0;
#X connect 32 0 48 0;
#X connect 33 0 32 1;
#X connect 34 0 46 0;
#X connect 35 0 23 0;
#X connect 35 0 56 0;
#X connect 36 0 45 0;
#X connect 37 0 36 0;
#X connect 38 0 40 0;
#X connect 39 0 41 0;
#X connect 39 0 44 0;
#X connect 40 0 43 0;
#X connect 41 0 23 0;
#X connect 42 0 29 0;
#X connect 43 0 39 0;
#X connect 44 0 23 1;
#X connect 45 0 38 0;
#X connect 46 0 28 0;
#X connect 47 0 32 0;
#X connect 48 0 7 0;
#X connect 48 0 78 0;
#X connect 49 0 50 0;
#X connect 50 0 57 0;
#X connect 51 0 52 0;
#X connect 51 1 53 0;
#X connect 52 0 58 0;
#X connect 53 0 54 0;
#X connect 54 0 55 0;
#X connect 55 0 56 2;
#X connect 56 0 23 0;
#X connect 57 0 51 0;
#X connect 58 0 55 0;
#X connect 59 0 8 0;
#X connect 60 0 35 2;
#X connect 61 0 23 1;
#X connect 62 0 9 1;
#X connect 63 0 73 0;
#X connect 63 1 74 0;
#X connect 64 0 86 0;
#X connect 65 0 64 0;
#X connect 66 0 84 0;
#X connect 67 0 63 1;
#X connect 68 0 73 4;
#X connect 68 0 74 4;
#X connect 69 0 73 3;
#X connect 69 0 74 3;
#X connect 69 1 70 0;
#X connect 69 2 68 1;
#X connect 70 0 68 0;
#X connect 71 0 85 0;
#X connect 72 0 6 0;
#X connect 72 1 71 0;
#X connect 72 1 66 0;
#X connect 73 0 2 0;
#X connect 74 0 2 1;
#X connect 75 0 69 0;
#X connect 76 0 77 0;
#X connect 77 0 2 0;
#X connect 77 0 2 1;
#X connect 78 0 76 0;
#X connect 79 0 87 0;
#X connect 80 0 18 0;
#X connect 81 0 17 1;
#X connect 82 0 80 0;
#X connect 83 0 82 0;
#X connect 84 0 67 0;
#X connect 85 0 75 0;
#X connect 86 0 88 0;
#X connect 87 0 24 0;
#X connect 87 0 7 0;
#X connect 87 0 78 0;
#X connect 88 0 79 0;
#X connect 89 0 90 0;
#X connect 89 1 90 1;
#X connect 90 0 91 0;
#X connect 91 0 0 0;
