#N canvas 325 137 1280 747 12;
#X obj 235 16 mspkeyboard;
#X obj 235 40 route button1;
#X obj 662 315 abs;
#X obj 662 339 moses 50;
#X obj 727 315 sign;
#X text 554 362 regular rhythm;
#X obj 662 363 bng 15 250 50 0 empty empty empty 17 7 0 10 -262144
-1 -1;
#X obj 235 64 binarystatetimer;
#X floatatom 235 208 10 0 0 0 - - -;
#X floatatom 367 208 10 0 0 0 - - -;
#X floatatom 500 208 10 0 0 0 - - -;
#X floatatom 632 208 10 0 0 0 - - -;
#X obj 235 184 route average-on-ms on-distance-ms average-off-ms off-distance-ms
average-both-ms both-distance-ms, f 114;
#X floatatom 765 208 10 0 0 0 - - -;
#X floatatom 897 208 10 0 0 0 - - -;
#X obj 235 88 unpack f f;
#X obj 235 112 t f f;
#X obj 302 112 t f f;
#X obj 235 136 pack f f;
#X obj 10 184 f;
#X obj 125 184 f;
#X text 270 223 avg-on-ms;
#X floatatom 10 208 5 0 0 0 - - -;
#X floatatom 125 208 10 0 0 0 - - -;
#X text 390 223 on-distance-ms;
#X text 530 223 avg-off-ms;
#X text 650 223 off-distance-ms;
#X text 780 223 avg-both-ms;
#X text 909 223 both-distance-ms;
#X text 132 224 prev state dur;
#X obj 344 88 unpack f f, f 100;
#X obj 1042 184 f;
#X floatatom 1042 208 10 0 0 0 - - -;
#X text 1056 225 cur state dur;
#X text 24 223 cur state;
#X obj 738 398 bng 15 250 50 0 empty empty empty 17 7 0 10 -262144
-1 -1;
#X obj 765 398 bng 15 250 50 0 empty empty empty 17 7 0 10 -262144
-1 -1;
#X obj 793 398 bng 15 250 50 0 empty empty empty 17 7 0 10 -262144
-1 -1;
#X obj 820 398 bng 15 250 50 0 empty empty empty 17 7 0 10 -262144
-1 -1;
#X obj 924 389 bng 15 250 50 0 empty empty empty 17 7 0 10 -262144
-1 -1;
#X obj 632 456 16step 60 67 65 63 70 58;
#X obj 366 475 mtof;
#X obj 304 608 osc~;
#X obj 304 692 out~;
#X obj 632 433 counter 6;
#X obj 168 354 quantized 1e-06 2 3 5 7 8 10;
#X obj 168 378 sel 1e-06;
#X floatatom 228 401 5 0 0 0 - - -;
#X msg 168 402 0;
#X obj 168 426 f;
#X floatatom 168 307 5 0 0 0 - - -;
#X floatatom 168 450 5 0 0 0 - - -;
#X obj 168 330 relativeto 60;
#X obj 632 480 fbank8, f 61;
#X obj 235 160 binarystatetimeranalyzer 1;
#X obj 745 366 sieverange 100 300 400 500;
#X text 949 388 too irregular rhythm \; count it as a restart;
#X obj 304 631 *~, f 14;
#X obj 400 603 envgen~ 1 5 0.4 200 0 200;
#X msg 703 528 2;
#X obj 685 504 t f b;
#X obj 704 553 *;
#X obj 684 577 +;
#X obj 737 506 t f b;
#X obj 756 555 *;
#X obj 736 579 +;
#X obj 790 509 t f b;
#X obj 809 558 *;
#X obj 789 582 +;
#X obj 842 511 t f b;
#X obj 861 560 *;
#X obj 841 584 +;
#X msg 755 530 4;
#X msg 808 533 7;
#X msg 860 535 10;
#X obj 681 688 line;
#X obj 500 397 t b b;
#X obj 632 291 t b f f, f 14;
#X msg 684 656 \$1 300;
#X connect 0 0 1 0;
#X connect 1 0 7 0;
#X connect 2 0 3 0;
#X connect 3 0 6 0;
#X connect 3 1 55 0;
#X connect 4 0 61 1;
#X connect 4 0 70 1;
#X connect 4 0 67 1;
#X connect 4 0 64 1;
#X connect 6 0 44 0;
#X connect 7 0 15 0;
#X connect 7 1 30 0;
#X connect 11 0 77 0;
#X connect 12 0 8 0;
#X connect 12 1 9 0;
#X connect 12 2 10 0;
#X connect 12 3 11 0;
#X connect 12 4 13 0;
#X connect 12 5 14 0;
#X connect 15 0 16 0;
#X connect 15 1 17 0;
#X connect 16 0 18 0;
#X connect 16 1 19 0;
#X connect 17 0 18 1;
#X connect 17 1 20 0;
#X connect 18 0 54 0;
#X connect 19 0 22 0;
#X connect 20 0 23 0;
#X connect 30 1 31 0;
#X connect 31 0 32 0;
#X connect 35 0 53 1;
#X connect 36 0 53 2;
#X connect 37 0 53 3;
#X connect 38 0 53 4;
#X connect 39 0 6 0;
#X connect 40 0 53 0;
#X connect 41 0 42 0;
#X connect 42 0 57 0;
#X connect 44 0 40 0;
#X connect 45 0 46 0;
#X connect 46 0 48 0;
#X connect 46 1 47 0;
#X connect 47 0 49 0;
#X connect 48 0 49 0;
#X connect 49 0 51 0;
#X connect 50 0 52 0;
#X connect 52 0 45 0;
#X connect 53 0 41 0;
#X connect 53 1 60 0;
#X connect 53 2 63 0;
#X connect 53 3 66 0;
#X connect 53 4 69 0;
#X connect 54 0 12 0;
#X connect 55 0 35 0;
#X connect 55 1 36 0;
#X connect 55 2 37 0;
#X connect 55 3 38 0;
#X connect 55 8 39 0;
#X connect 57 0 43 0;
#X connect 57 0 43 1;
#X connect 58 0 57 1;
#X connect 59 0 61 0;
#X connect 60 0 62 0;
#X connect 60 1 59 0;
#X connect 61 0 62 1;
#X connect 62 0 78 0;
#X connect 63 0 65 0;
#X connect 63 1 72 0;
#X connect 64 0 65 1;
#X connect 65 0 78 0;
#X connect 66 0 68 0;
#X connect 66 1 73 0;
#X connect 67 0 68 1;
#X connect 68 0 78 0;
#X connect 69 0 71 0;
#X connect 69 1 74 0;
#X connect 70 0 71 1;
#X connect 71 0 78 0;
#X connect 72 0 64 0;
#X connect 73 0 67 0;
#X connect 74 0 70 0;
#X connect 75 0 41 0;
#X connect 77 0 58 0;
#X connect 77 1 2 0;
#X connect 77 2 4 0;
#X connect 78 0 75 0;
