#N canvas 931 347 530 483 12;
#X obj 188 231 metro;
#X obj 186 95 tgl 15 0 empty empty empty 17 7 0 10 -262144 -1 -1 1
1;
#X floatatom 220 92 5 0 0 0 - - -;
#X obj 220 139 t f f;
#X obj 252 194 sel 0 1;
#X obj 226 342 footstepwalk;
#X obj 295 300 spigot;
#X msg 235 229 0;
#X msg 265 230 1;
#X msg 304 231 0;
#X msg 334 232 1;
#X obj 226 300 spigot;
#X obj 318 342 footsteprun;
#X obj 263 426 out~;
#X obj 220 115 max 10;
#X floatatom 410 209 5 0 0 0 - - -;
#X floatatom 450 209 5 0 0 0 - - -;
#X obj 252 170 < 300;
#X obj 169 10 loadbang;
#X msg 221 37 210;
#X msg 345 39 804;
#X msg 411 40 9;
#X text 257 90 speed;
#X text 414 188 texture;
#X obj 15 121 bng 15 250 50 0 empty empty empty 17 7 0 10 -262144 -1
-1;
#X msg 20 168 0 0;
#X obj 23 201 line;
#X obj 17 314 -;
#X msg 12 289 800;
#X obj 12 263 t b f;
#X obj 43 135 del 1;
#X msg 61 171 1 15000;
#X obj 12 239 scaled 0 1 0 600;
#X text 6 106 bang to walk -> run;
#X connect 0 0 11 0;
#X connect 0 0 6 0;
#X connect 1 0 0 0;
#X connect 2 0 14 0;
#X connect 3 0 0 1;
#X connect 3 1 17 0;
#X connect 4 0 7 0;
#X connect 4 0 8 0;
#X connect 4 1 9 0;
#X connect 4 1 10 0;
#X connect 5 0 13 0;
#X connect 5 0 13 1;
#X connect 6 0 12 0;
#X connect 7 0 6 1;
#X connect 8 0 11 1;
#X connect 9 0 11 1;
#X connect 10 0 6 1;
#X connect 11 0 5 0;
#X connect 12 0 13 0;
#X connect 12 0 13 1;
#X connect 14 0 3 0;
#X connect 15 0 5 1;
#X connect 15 0 12 1;
#X connect 16 0 5 2;
#X connect 16 0 12 2;
#X connect 17 0 4 0;
#X connect 18 0 1 0;
#X connect 18 0 19 0;
#X connect 18 0 20 0;
#X connect 18 0 21 0;
#X connect 19 0 2 0;
#X connect 20 0 15 0;
#X connect 21 0 16 0;
#X connect 24 0 25 0;
#X connect 24 0 30 0;
#X connect 25 0 26 0;
#X connect 26 0 32 0;
#X connect 27 0 2 0;
#X connect 28 0 27 0;
#X connect 29 0 28 0;
#X connect 29 1 27 1;
#X connect 30 0 31 0;
#X connect 31 0 26 0;
#X connect 32 0 29 0;
