#N canvas 241 145 888 524 12;
#X obj 130 177 __playback~ boing;
#X obj 147 159 bng 15 250 50 0 empty empty empty 17 7 0 10 -262144
-1 -1;
#X obj 68 14 mspkeyboard;
#X obj 68 62 sel 1;
#X floatatom 188 67 5 0 0 0 - - -;
#X floatatom 469 137 5 0 0 0 - - -;
#X obj 469 113 scaled -1 1 0.5 1.5;
#X obj 598 278 __playback~ snap;
#X obj 598 258 bng 15 250 50 0 empty empty empty 17 7 0 10 -262144
-1 -1;
#X obj 122 68 sel 1;
#X obj 147 224 echo~ 250 0.666;
#X obj 35 260 ducker~;
#X obj 105 260 ducker~;
#X obj 272 483 dac~, f 14;
#X obj 11 217 echo~ 500 0.6;
#X obj 601 203 __playback~ camera;
#X obj 244 66 sel 1;
#X obj 304 65 sel 1;
#X obj 332 182 bng 15 250 50 0 empty empty empty 17 7 0 10 -262144
-1 -1;
#X obj 601 184 bng 15 250 50 0 empty empty empty 17 7 0 10 -262144
-1 -1;
#X obj 332 201 __playback~ snap2;
#X obj 684 106 bng 15 250 50 0 empty empty empty 17 7 0 10 -262144
-1 -1;
#X obj 68 37 route button1 button2 axis2 button3 button4 button5;
#X obj 361 64 sel 1;
#X obj 684 126 __playback~ beep;
#X connect 0 0 14 0;
#X connect 0 0 11 0;
#X connect 0 0 10 0;
#X connect 0 0 12 0;
#X connect 1 0 0 0;
#X connect 2 0 22 0;
#X connect 3 0 1 0;
#X connect 4 0 6 0;
#X connect 5 0 15 1;
#X connect 5 0 7 1;
#X connect 5 0 0 1;
#X connect 5 0 20 1;
#X connect 5 0 24 1;
#X connect 6 0 5 0;
#X connect 7 0 13 0;
#X connect 7 0 13 1;
#X connect 8 0 7 0;
#X connect 9 0 8 0;
#X connect 10 0 12 1;
#X connect 11 0 13 0;
#X connect 11 1 13 0;
#X connect 12 0 13 1;
#X connect 12 1 13 1;
#X connect 14 0 11 1;
#X connect 15 0 13 0;
#X connect 15 0 13 1;
#X connect 16 0 18 0;
#X connect 17 0 19 0;
#X connect 18 0 20 0;
#X connect 19 0 15 0;
#X connect 20 0 13 0;
#X connect 20 0 13 1;
#X connect 21 0 24 0;
#X connect 22 0 3 0;
#X connect 22 1 9 0;
#X connect 22 2 4 0;
#X connect 22 3 16 0;
#X connect 22 4 17 0;
#X connect 22 5 23 0;
#X connect 23 0 21 0;
#X connect 24 0 13 0;
#X connect 24 0 13 1;
