#N canvas 674 111 487 713 12;
#X obj 71 179 easeinsine;
#X obj 148 157 hsl 128 15 0 1 0 0 empty values empty -2 -8 0 10 #fcfcfc #000000 #000000 0 1;
#X obj 148 172 hsl 128 30 0 1 0 0 empty empty empty -2 -8 0 10 #fcfcfc #000000 #000000 0 1;
#X obj 148 202 hsl 128 30 0 1 0 0 empty empty empty -2 -8 0 10 #fcfcfc #000000 #000000 0 1;
#X obj 64 209 easeoutsine;
#N canvas 0 38 222 115 generatetestvalue 0;
#X obj 15 38 snapshotter~;
#X obj 15 63 s value;
#X obj 15 14 phasor~ 0.5;
#X connect 0 0 1 0;
#X connect 2 0 0 0;
#X restore 7 8 pd generatetestvalue;
#X obj 148 232 hsl 128 30 0 1 0 0 empty empty empty -2 -8 0 10 #fcfcfc #000000 #000000 0 1;
#X obj 50 239 easeinoutsine;
#X obj 148 262 hsl 128 30 0 1 0 0 empty empty empty -2 -8 0 10 #fcfcfc #000000 #000000 0 1;
#X obj 64 269 easeincubic;
#X obj 148 292 hsl 128 30 0 1 0 0 empty empty empty -2 -8 0 10 #fcfcfc #000000 #000000 0 1;
#X obj 57 299 easeoutcubic;
#X obj 148 322 hsl 128 30 0 1 0 0 empty empty empty -2 -8 0 10 #fcfcfc #000000 #000000 0 1;
#X obj 43 329 easeinoutcubic;
#X obj 148 352 hsl 128 30 0 1 0 0 empty empty empty -2 -8 0 10 #fcfcfc #000000 #000000 0 1;
#X obj 50 359 easeinelastic;
#X obj 148 382 hsl 128 30 0 1 0 0 empty empty empty -2 -8 0 10 #fcfcfc #000000 #000000 0 1;
#X obj 43 389 easeoutelastic;
#X obj 148 412 hsl 128 30 0 1 0 0 empty empty empty -2 -8 0 10 #fcfcfc #000000 #000000 0 1;
#X obj 29 419 easeinoutelastic;
#N canvas 0 25 173 171 osc 0;
#X obj 17 61 mtof;
#X obj 17 85 osc~;
#X obj 17 37 scaled 0 1 48 72;
#X obj 17 13 inlet;
#X obj 17 109 /~ 9;
#X obj 17 133 outlet~;
#X connect 0 0 1 0;
#X connect 1 0 4 0;
#X connect 2 0 0 0;
#X connect 3 0 2 0;
#X connect 4 0 5 0;
#X restore 324 202 pd osc;
#N canvas 0 25 173 165 osc 0;
#X obj 17 61 mtof;
#X obj 17 85 osc~;
#X obj 17 37 scaled 0 1 48 72;
#X obj 17 13 inlet;
#X obj 17 109 /~ 9;
#X obj 17 133 outlet~;
#X connect 0 0 1 0;
#X connect 1 0 4 0;
#X connect 2 0 0 0;
#X connect 3 0 2 0;
#X connect 4 0 5 0;
#X restore 324 232 pd osc;
#N canvas 0 25 173 160 osc 0;
#X obj 17 61 mtof;
#X obj 17 85 osc~;
#X obj 17 37 scaled 0 1 48 72;
#X obj 17 13 inlet;
#X obj 17 109 /~ 9;
#X obj 17 133 outlet~;
#X connect 0 0 1 0;
#X connect 1 0 4 0;
#X connect 2 0 0 0;
#X connect 3 0 2 0;
#X connect 4 0 5 0;
#X restore 324 262 pd osc;
#N canvas 0 25 173 160 osc 0;
#X obj 17 61 mtof;
#X obj 17 85 osc~;
#X obj 17 37 scaled 0 1 48 72;
#X obj 17 13 inlet;
#X obj 17 109 /~ 9;
#X obj 17 133 outlet~;
#X connect 0 0 1 0;
#X connect 1 0 4 0;
#X connect 2 0 0 0;
#X connect 3 0 2 0;
#X connect 4 0 5 0;
#X restore 324 292 pd osc;
#N canvas 0 25 173 163 osc 0;
#X obj 17 61 mtof;
#X obj 17 85 osc~;
#X obj 17 37 scaled 0 1 48 72;
#X obj 17 13 inlet;
#X obj 17 109 /~ 9;
#X obj 17 133 outlet~;
#X connect 0 0 1 0;
#X connect 1 0 4 0;
#X connect 2 0 0 0;
#X connect 3 0 2 0;
#X connect 4 0 5 0;
#X restore 324 322 pd osc;
#N canvas 0 25 173 160 osc 0;
#X obj 17 61 mtof;
#X obj 17 85 osc~;
#X obj 17 37 scaled 0 1 48 72;
#X obj 17 13 inlet;
#X obj 17 109 /~ 9;
#X obj 17 133 outlet~;
#X connect 0 0 1 0;
#X connect 1 0 4 0;
#X connect 2 0 0 0;
#X connect 3 0 2 0;
#X connect 4 0 5 0;
#X restore 324 352 pd osc;
#N canvas 0 25 173 163 osc 0;
#X obj 17 61 mtof;
#X obj 17 85 osc~;
#X obj 17 37 scaled 0 1 48 72;
#X obj 17 13 inlet;
#X obj 17 109 /~ 9;
#X obj 17 133 outlet~;
#X connect 0 0 1 0;
#X connect 1 0 4 0;
#X connect 2 0 0 0;
#X connect 3 0 2 0;
#X connect 4 0 5 0;
#X restore 324 382 pd osc;
#N canvas 0 25 173 161 osc 0;
#X obj 17 61 mtof;
#X obj 17 85 osc~;
#X obj 17 37 scaled 0 1 48 72;
#X obj 17 13 inlet;
#X obj 17 109 /~ 9;
#X obj 17 133 outlet~;
#X connect 0 0 1 0;
#X connect 1 0 4 0;
#X connect 2 0 0 0;
#X connect 3 0 2 0;
#X connect 4 0 5 0;
#X restore 324 412 pd osc;
#N canvas 0 25 173 165 osc 0;
#X obj 17 61 mtof;
#X obj 17 85 osc~;
#X obj 17 37 scaled 0 1 48 72;
#X obj 17 13 inlet;
#X obj 17 109 /~ 9;
#X obj 17 133 outlet~;
#X connect 0 0 1 0;
#X connect 1 0 4 0;
#X connect 2 0 0 0;
#X connect 3 0 2 0;
#X connect 4 0 5 0;
#X restore 324 442 pd osc;
#X obj 370 202 *~;
#X obj 278 172 tgl 30 0 empty empty empty 17 7 0 10 #fcfcfc #000000 #000000 0 1;
#X obj 388 178 sig~;
#X obj 370 232 *~;
#X obj 278 202 tgl 30 0 empty empty empty 17 7 0 10 #fcfcfc #000000 #000000 0 1;
#X obj 388 208 sig~;
#X obj 370 262 *~;
#X obj 278 232 tgl 30 0 empty empty empty 17 7 0 10 #fcfcfc #000000 #000000 0 1;
#X obj 388 238 sig~;
#X obj 370 292 *~;
#X obj 278 262 tgl 30 0 empty empty empty 17 7 0 10 #fcfcfc #000000 #000000 0 1;
#X obj 388 268 sig~;
#X obj 370 322 *~;
#X obj 278 292 tgl 30 0 empty empty empty 17 7 0 10 #fcfcfc #000000 #000000 0 1;
#X obj 388 298 sig~;
#X obj 370 352 *~;
#X obj 278 322 tgl 30 0 empty empty empty 17 7 0 10 #fcfcfc #000000 #000000 0 1;
#X obj 388 328 sig~;
#X obj 370 382 *~;
#X obj 278 352 tgl 30 0 empty empty empty 17 7 0 10 #fcfcfc #000000 #000000 0 1;
#X obj 388 358 sig~;
#X obj 370 412 *~;
#X obj 278 382 tgl 30 0 empty empty empty 17 7 0 10 #fcfcfc #000000 #000000 0 1;
#X obj 388 388 sig~;
#X obj 370 442 *~;
#X obj 278 412 tgl 30 0 empty empty empty 17 7 0 10 #fcfcfc #000000 #000000 0 1;
#X obj 388 418 sig~;
#X obj 370 499 *~ 1;
#X obj 370 523 out~;
#N canvas 0 25 173 171 osc 0;
#X obj 17 61 mtof;
#X obj 17 85 osc~;
#X obj 17 37 scaled 0 1 48 72;
#X obj 17 13 inlet;
#X obj 17 109 /~ 9;
#X obj 17 133 outlet~;
#X connect 0 0 1 0;
#X connect 1 0 4 0;
#X connect 2 0 0 0;
#X connect 3 0 2 0;
#X connect 4 0 5 0;
#X restore 324 172 pd osc;
#X obj 370 172 *~;
#X obj 278 157 tgl 15 0 empty empty empty 17 7 0 10 #fcfcfc #000000 #000000 0 1;
#X obj 388 148 sig~;
#X text 64 83 these were all adapted from https://easings.net;
#X obj 148 442 hsl 128 30 0 1 0 0 empty empty empty -2 -8 0 10 #fcfcfc #000000 #000000 0 1;
#X obj 57 449 easeoutquint;
#X obj 148 472 hsl 128 30 0 1 0 0 empty empty empty -2 -8 0 10 #fcfcfc #000000 #000000 0 1;
#X obj 57 479 easeinquint;
#X obj 148 492 hsl 128 30 0 1 0 0 empty empty empty -2 -8 0 10 #fcfcfc #000000 #000000 0 1;
#X obj 46 499 easeinoutquint;
#X obj 43 529 easeinoutquart;
#X obj 148 522 hsl 128 30 0 1 0 0 empty empty empty -2 -8 0 10 #fcfcfc #000000 #000000 0 1;
#X obj 148 552 hsl 128 30 0 1 0 0 empty empty empty -2 -8 0 10 #fcfcfc #000000 #000000 0 1;
#X obj 148 582 hsl 128 30 0 1 0 0 empty empty empty -2 -8 0 10 #fcfcfc #000000 #000000 0 1;
#X obj 53 559 easeinquart;
#X obj 53 589 easeoutquart;
#X connect 0 0 2 0;
#X connect 1 0 0 0;
#X connect 1 0 4 0;
#X connect 1 0 13 0;
#X connect 1 0 11 0;
#X connect 1 0 9 0;
#X connect 1 0 7 0;
#X connect 1 0 15 0;
#X connect 1 0 17 0;
#X connect 1 0 19 0;
#X connect 1 0 58 0;
#X connect 1 0 64 0;
#X connect 1 0 66 0;
#X connect 1 0 68 0;
#X connect 1 0 69 0;
#X connect 1 0 74 0;
#X connect 1 0 73 0;
#X connect 2 0 20 0;
#X connect 3 0 21 0;
#X connect 4 0 3 0;
#X connect 6 0 22 0;
#X connect 7 0 6 0;
#X connect 8 0 23 0;
#X connect 9 0 8 0;
#X connect 10 0 24 0;
#X connect 11 0 10 0;
#X connect 12 0 25 0;
#X connect 13 0 12 0;
#X connect 14 0 26 0;
#X connect 15 0 14 0;
#X connect 16 0 27 0;
#X connect 17 0 16 0;
#X connect 18 0 28 0;
#X connect 19 0 18 0;
#X connect 20 0 29 0;
#X connect 21 0 32 0;
#X connect 22 0 35 0;
#X connect 23 0 38 0;
#X connect 24 0 41 0;
#X connect 25 0 44 0;
#X connect 26 0 47 0;
#X connect 27 0 50 0;
#X connect 28 0 53 0;
#X connect 29 0 56 0;
#X connect 30 0 31 0;
#X connect 31 0 29 1;
#X connect 32 0 56 0;
#X connect 33 0 34 0;
#X connect 34 0 32 1;
#X connect 35 0 56 0;
#X connect 36 0 37 0;
#X connect 37 0 35 1;
#X connect 38 0 56 0;
#X connect 39 0 40 0;
#X connect 40 0 38 1;
#X connect 41 0 56 0;
#X connect 42 0 43 0;
#X connect 43 0 41 1;
#X connect 44 0 56 0;
#X connect 45 0 46 0;
#X connect 46 0 44 1;
#X connect 47 0 56 0;
#X connect 48 0 49 0;
#X connect 49 0 47 1;
#X connect 50 0 56 0;
#X connect 51 0 52 0;
#X connect 52 0 50 1;
#X connect 53 0 56 0;
#X connect 54 0 55 0;
#X connect 55 0 53 1;
#X connect 56 0 57 0;
#X connect 56 0 57 1;
#X connect 58 0 59 0;
#X connect 59 0 56 0;
#X connect 60 0 61 0;
#X connect 61 0 59 1;
#X connect 64 0 63 0;
#X connect 66 0 65 0;
#X connect 68 0 67 0;
#X connect 69 0 70 0;
#X connect 73 0 71 0;
#X connect 74 0 72 0;
