#N canvas 390 38 1122 884 12;
#X floatatom 131 445 5 0 0 0 - - - 0;
#X obj 131 468 mtof;
#X obj 163 563 osc~;
#X obj 290 337 mtof;
#X obj 173 934 *~ 1;
#X obj 171 971 out~;
#X obj 363 339 mtof;
#X floatatom 502 425 5 0 0 0 - - - 0;
#X obj 502 448 mtof;
#X obj 523 365 + 4;
#X obj 423 338 mtof;
#X obj 34 493 ks~ 5 0.99;
#X obj 501 497 *~ 0.8;
#X obj 131 516 t b f;
#X obj 147 757 *~;
#X obj 147 733 *~;
#X obj 287 366 phasor~;
#X obj 363 368 phasor~;
#X obj 440 368 phasor~;
#X obj 276 921 pan~;
#X obj 436 729 randwalk 300 800;
#X obj 676 470 mtof;
#X obj 501 474 ks~ 3 0.99;
#X obj 680 677 *~;
#X obj 612 466 t b f;
#X obj 678 493 fm~ 1 3 1000;
#X obj 728 582 envgen~ 1 5 0.2 200 0 200;
#X obj 120 267 bng 15 250 50 0 empty empty empty 17 7 0 10 #fcfcfc
#000000 #000000;
#X obj 153 130 metro 30;
#X msg 290 313 48;
#X msg 363 314 55;
#X msg 423 313 60;
#X obj 163 681 *~ 1;
#X obj 356 571 *~;
#X obj 424 547 randwalk 5000 10000;
#X obj 552 575 bng 15 250 50 0 empty empty empty 17 7 0 10 #fcfcfc
#000000 #000000;
#X obj 424 571 sig~;
#X obj 595 563 loadbang;
#X floatatom 457 571 5 0 0 0 - - - 0;
#X obj 871 333 maybe 0.3;
#X obj 871 357 bng 15 250 50 0 empty empty empty 17 7 0 10 #fcfcfc
#000000 #000000;
#X obj 682 546 vfreeverb~ 1 1 0.5 0.5;
#X floatatom 680 443 5 0 0 0 - - - 0;
#X obj 530 147 mspkeyboard;
#X obj 680 419 maybe 0.4;
#X obj 439 773 scaled 0 1 0.3 0.7;
#X obj 530 195 sel 0 1;
#X obj 55 788 *~;
#X obj 536 265 line~;
#X obj 526 222 bng 15 250 50 0 empty empty empty 17 7 0 10 #fcfcfc
#000000 #000000;
#X msg 626 245 1 5;
#X obj 548 220 bng 15 250 50 0 empty empty empty 17 7 0 10 #fcfcfc
#000000 #000000;
#X obj 163 587 distortion~ 0.9;
#X obj 163 611 distortion~ 0.9;
#X obj 163 635 distortion~ 0.9;
#X obj 156 224 bng 15 250 50 0 empty empty empty 17 7 0 10 #fcfcfc
#000000 #000000;
#X obj 156 200 maybe 0.05;
#X obj 156 244 tgl 15 0 empty empty empty 17 7 0 10 #fcfcfc #000000
#000000 0 1;
#X obj 536 289 *~;
#X obj 131 373 random 24;
#X obj 147 809 lop~ 200;
#X obj 130 397 + 48;
#X obj 162 541 / 4;
#X obj 40 727 echo~ 50 0.9;
#X obj 452 804 hsl 128 15 0 1 0 0 empty empty empty -2 -8 0 10 #fcfcfc
#000000 #000000 0 1;
#X obj 437 751 easeinoutcubic;
#X obj 199 564 osc~;
#X obj 198 537 / 2;
#X obj 145 704 envgen~ 1 5 0.5 400 0 2000;
#X obj 131 492 maybe 0.05;
#X msg 536 241 0.3 200;
#X obj 676 612 hip~ 2000;
#X obj 945 417 randrange 200 1000;
#X obj 856 382 randrange 1 4;
#X obj 971 376 randrange 1 4;
#X obj 175 884 ducker~;
#X obj 41 751 *~ 0.35;
#X obj 683 364 - 4;
#X obj 362 181 maybe 0.3;
#X obj 362 205 bng 15 250 50 0 empty empty empty 17 7 0 10 #fcfcfc
#000000 #000000;
#X obj 682 522 *~ 0.6;
#X obj 193 156 tgl 15 0 empty empty empty 17 7 0 10 #fcfcfc #000000
#000000 0 1;
#X obj 563 615 echo~ 250 0.75;
#X obj 563 639 hip~ 4000;
#X obj 153 107 loadbang;
#X obj 156 175 spigot;
#X obj 361 156 spigot;
#X obj 401 137 tgl 15 0 empty empty empty 17 7 0 10 #fcfcfc #000000
#000000 0 1;
#X text 212 156 automated playback;
#X text 419 133 fm "arp";
#X obj 530 171 route button1 button2;
#X text 689 170 press l and sometimes hold \;;
#X obj 355 462 distortion~ 0.8;
#X obj 355 438 *~ 0.025;
#X obj 265 11 metro 80;
#X obj 265 59 t b b;
#X msg 440 95 1;
#X obj 265 107 del;
#X msg 395 98 0;
#X obj 265 35 maybe 0.005;
#X obj 265 83 random 3000;
#X obj 131 421 quantizedmode phrygian 60;
#X obj 502 401 quantizedmode phrygian 60;
#X obj 682 394 quantizedmode phrygian 60;
#X connect 0 0 1 0;
#X connect 0 0 9 0;
#X connect 0 0 77 0;
#X connect 1 0 11 0;
#X connect 1 0 69 0;
#X connect 2 0 52 0;
#X connect 3 0 16 0;
#X connect 4 0 5 0;
#X connect 4 0 5 1;
#X connect 6 0 17 0;
#X connect 7 0 8 0;
#X connect 8 0 22 0;
#X connect 9 0 102 0;
#X connect 10 0 18 0;
#X connect 11 0 4 0;
#X connect 11 0 63 0;
#X connect 12 0 4 0;
#X connect 12 0 63 0;
#X connect 13 0 68 0;
#X connect 13 1 62 0;
#X connect 13 1 67 0;
#X connect 14 0 60 0;
#X connect 15 0 14 0;
#X connect 16 0 93 0;
#X connect 17 0 93 0;
#X connect 18 0 93 0;
#X connect 19 0 5 0;
#X connect 19 1 5 1;
#X connect 20 0 65 0;
#X connect 21 0 25 0;
#X connect 22 0 12 0;
#X connect 23 0 4 0;
#X connect 23 0 63 0;
#X connect 24 0 26 0;
#X connect 24 1 21 0;
#X connect 25 0 80 0;
#X connect 26 0 23 1;
#X connect 27 0 29 0;
#X connect 27 0 30 0;
#X connect 27 0 31 0;
#X connect 27 0 20 0;
#X connect 27 0 39 0;
#X connect 27 0 59 0;
#X connect 28 0 85 0;
#X connect 28 0 86 0;
#X connect 29 0 3 0;
#X connect 30 0 6 0;
#X connect 31 0 10 0;
#X connect 32 0 14 1;
#X connect 33 0 75 1;
#X connect 34 0 36 0;
#X connect 34 0 38 0;
#X connect 34 1 35 0;
#X connect 35 0 34 0;
#X connect 36 0 33 1;
#X connect 37 0 35 0;
#X connect 39 0 40 0;
#X connect 40 0 72 0;
#X connect 40 0 73 0;
#X connect 40 0 74 0;
#X connect 41 0 71 0;
#X connect 41 0 82 0;
#X connect 42 0 24 0;
#X connect 43 0 90 0;
#X connect 44 0 42 0;
#X connect 45 0 64 0;
#X connect 46 0 49 0;
#X connect 46 1 51 0;
#X connect 47 0 75 1;
#X connect 48 0 58 0;
#X connect 48 0 58 1;
#X connect 49 0 70 0;
#X connect 50 0 48 0;
#X connect 51 0 50 0;
#X connect 51 0 27 0;
#X connect 52 0 53 0;
#X connect 53 0 54 0;
#X connect 54 0 32 0;
#X connect 55 0 57 0;
#X connect 56 0 55 0;
#X connect 57 0 46 0;
#X connect 58 0 47 1;
#X connect 59 0 61 0;
#X connect 60 0 75 0;
#X connect 61 0 101 0;
#X connect 62 0 2 0;
#X connect 63 0 76 0;
#X connect 64 0 19 1;
#X connect 65 0 45 0;
#X connect 66 0 52 0;
#X connect 67 0 66 0;
#X connect 68 0 15 0;
#X connect 68 0 15 1;
#X connect 69 0 13 0;
#X connect 70 0 48 0;
#X connect 71 0 23 0;
#X connect 72 0 25 3;
#X connect 73 0 25 1;
#X connect 74 0 25 2;
#X connect 75 0 4 0;
#X connect 75 1 19 0;
#X connect 76 0 47 0;
#X connect 77 0 103 0;
#X connect 78 0 79 0;
#X connect 79 0 42 0;
#X connect 80 0 41 0;
#X connect 81 0 85 1;
#X connect 81 0 94 0;
#X connect 82 0 83 0;
#X connect 83 0 75 1;
#X connect 84 0 28 0;
#X connect 85 0 56 0;
#X connect 86 0 78 0;
#X connect 87 0 86 1;
#X connect 90 0 46 0;
#X connect 90 1 87 0;
#X connect 92 0 33 0;
#X connect 93 0 92 0;
#X connect 94 0 99 0;
#X connect 95 0 100 0;
#X connect 95 1 96 0;
#X connect 96 0 87 0;
#X connect 97 0 98 0;
#X connect 98 0 87 0;
#X connect 99 0 95 0;
#X connect 100 0 97 0;
#X connect 101 0 0 0;
#X connect 102 0 7 0;
#X connect 103 0 44 0;
