#N canvas 410 25 830 883 12;
#X obj 156 290 hsl 128 15 0 1 0 0 empty empty empty -2 -8 0 10 -262144
-1 -1 6535 1;
#X obj 233 384 mtof;
#X obj 419 384 mtof;
#X obj 272 808 out~;
#X obj 154 30 loadbang;
#X obj 152 267 easeinoutcubic;
#X obj 609 383 mtof;
#X obj 232 335 scaled 0 1 24 96;
#X obj 420 336 scaled 0 1 36 80;
#X obj 610 336 scaled 0 1 48 60;
#X obj 252 481 *~;
#X obj 47 379 mtof;
#X obj 46 330 scaled 0 1 24 48;
#X obj 47 402 osc~;
#X obj 358 138 bng 15 250 50 0 empty empty empty 17 7 0 10 -262144
-1 -1;
#X obj 385 192 randwalk 300 800;
#X obj 385 216 scaled 0 1 600 8000;
#X obj 385 240 sig~;
#X obj 47 355 quantizedmode phrygian 60;
#X obj 233 360 quantizedmode phrygian 60;
#X obj 419 360 quantizedmode phrygian 60;
#X obj 609 359 quantizedmode phrygian 60;
#X obj 609 407 phasor~;
#X obj 157 184 randwalk 1000 2000;
#X obj 154 246 scaled 0 1 0.3 0.7;
#X obj 234 407 fm~ 1 1 5000;
#X obj 419 408 ks~ 1 0.99;
#X obj 360 480 *~;
#X obj 360 456 envgen~ 1 10 0.1 400 0 500;
#X obj 229 775 pan~;
#X obj 395 772 pan~;
#X obj 290 544 loadbang;
#X obj 290 568 bng 15 250 50 0 empty empty empty 17 7 0 10 -262144
-1 -1;
#X obj 290 672 t f f;
#X obj 290 698 absdiff 1;
#X obj 293 720 hsl 128 15 0 1 0 0 empty empty empty -2 -8 0 10 -262144
-1 -1 8593 1;
#X obj 293 737 hsl 128 15 0 1 0 0 empty empty empty -2 -8 0 10 -262144
-1 -1 4107 1;
#X obj 290 588 randwalk 1000 4000;
#X obj 154 75 metro 250;
#X obj 154 54 tgl 15 0 empty empty empty 17 7 0 10 -262144 -1 -1 1
1;
#X obj 154 152 bng 15 250 50 0 empty empty empty 17 7 0 10 -262144
-1 -1;
#X obj 154 128 maybe 0.15;
#X obj 358 114 maybe 0.3;
#X obj 290 612 easeinoutcubic;
#X obj 374 511 vcf~ 5;
#X obj 47 426 distortion~ 0.9;
#X obj 55 567 hip~ 800;
#X obj 53 615 *~ 0.1;
#X obj 53 591 vfreeverb~ 0.8 1 0 1;
#X obj 413 539 echo~ 500 0.67;
#X obj 290 636 scaled 0 1 0.3 0.7;
#X obj 252 455 *~ 0.5;
#X connect 0 0 7 0;
#X connect 0 0 8 0;
#X connect 0 0 9 0;
#X connect 0 0 12 0;
#X connect 1 0 25 0;
#X connect 2 0 26 0;
#X connect 4 0 39 0;
#X connect 5 0 0 0;
#X connect 6 0 22 0;
#X connect 7 0 19 0;
#X connect 8 0 20 0;
#X connect 9 0 21 0;
#X connect 10 0 44 0;
#X connect 10 0 29 0;
#X connect 10 0 46 0;
#X connect 11 0 13 0;
#X connect 12 0 18 0;
#X connect 13 0 45 0;
#X connect 14 0 15 0;
#X connect 14 0 28 0;
#X connect 15 0 16 0;
#X connect 16 0 17 0;
#X connect 17 0 44 1;
#X connect 18 0 11 0;
#X connect 19 0 1 0;
#X connect 20 0 2 0;
#X connect 21 0 6 0;
#X connect 22 0 51 0;
#X connect 23 0 24 0;
#X connect 24 0 5 0;
#X connect 25 0 51 0;
#X connect 26 0 51 0;
#X connect 27 0 10 1;
#X connect 28 0 27 0;
#X connect 28 0 27 1;
#X connect 29 0 3 0;
#X connect 29 1 3 1;
#X connect 30 0 3 0;
#X connect 30 1 3 1;
#X connect 31 0 32 0;
#X connect 32 0 37 0;
#X connect 33 0 34 0;
#X connect 33 1 36 0;
#X connect 34 0 35 0;
#X connect 35 0 29 1;
#X connect 36 0 30 1;
#X connect 37 0 43 0;
#X connect 37 1 32 0;
#X connect 38 0 41 0;
#X connect 38 0 42 0;
#X connect 39 0 38 0;
#X connect 40 0 23 0;
#X connect 41 0 40 0;
#X connect 42 0 14 0;
#X connect 43 0 50 0;
#X connect 44 1 49 0;
#X connect 45 0 51 0;
#X connect 46 0 48 0;
#X connect 47 0 29 0;
#X connect 48 0 47 0;
#X connect 49 0 30 0;
#X connect 50 0 33 0;
#X connect 51 0 10 0;
