#N canvas 149 72 349 200 12;
#X obj 151 148 out~;
#N canvas 47 38 799 560 wildfm 0;
#X obj 169 124 msphsl 0 1;
#X obj 169 70 randwalk 200 2000;
#X obj 170 50 bng 15 250 50 0 empty empty empty 17 7 0 10 #fcfcfc #000000
#000000;
#X obj 169 245 mtof;
#X obj 231 383 pan~;
#X obj 169 267 fm~, f 60;
#N canvas 0 25 450 300 randomwalker 0;
#X obj 95 117 randwalk 200 2000;
#X obj 95 141 easeinoutcubic;
#X obj 95 165 msphsl 0 1;
#X obj 95 71 loadbang;
#X obj 95 95 bng 15 250 50 0 empty empty empty 17 7 0 10 #fcfcfc #000000
#000000;
#X obj 95 188 outlet;
#X connect 0 0 1 0;
#X connect 0 1 4 0;
#X connect 1 0 2 0;
#X connect 2 0 5 0;
#X connect 3 0 4 0;
#X connect 4 0 0 0;
#X restore 444 218 pd randomwalker;
#X obj 444 242 scaled 0 1 1 4;
#N canvas 0 25 450 300 randomwalker 0;
#X obj 95 117 randwalk 200 2000;
#X obj 95 141 easeinoutcubic;
#X obj 95 165 msphsl 0 1;
#X obj 95 71 loadbang;
#X obj 95 95 bng 15 250 50 0 empty empty empty 17 7 0 10 #fcfcfc #000000
#000000;
#X obj 95 188 outlet;
#X connect 0 0 1 0;
#X connect 0 1 4 0;
#X connect 1 0 2 0;
#X connect 2 0 5 0;
#X connect 3 0 4 0;
#X connect 4 0 0 0;
#X restore 565 168 pd randomwalker;
#X obj 565 192 scaled 0 1 25 50;
#N canvas 0 25 450 300 randomwalker 0;
#X obj 95 117 randwalk 200 2000;
#X obj 95 141 easeinoutcubic;
#X obj 95 165 msphsl 0 1;
#X obj 95 71 loadbang;
#X obj 95 95 bng 15 250 50 0 empty empty empty 17 7 0 10 #fcfcfc #000000
#000000;
#X obj 95 188 outlet;
#X connect 0 0 1 0;
#X connect 0 1 4 0;
#X connect 1 0 2 0;
#X connect 2 0 5 0;
#X connect 3 0 4 0;
#X connect 4 0 0 0;
#X restore 249 321 pd randomwalker;
#N canvas 0 25 450 300 randomwalker 0;
#X obj 95 141 msphsl 0 1;
#X obj 95 71 loadbang;
#X obj 95 95 bng 15 250 50 0 empty empty empty 17 7 0 10 #fcfcfc #000000
#000000;
#X obj 95 164 outlet;
#X obj 95 117 randwalk 20000 60000;
#X connect 0 0 3 0;
#X connect 1 0 2 0;
#X connect 2 0 4 0;
#X connect 4 0 0 0;
#X connect 4 1 2 0;
#X restore 353 59 pd randomwalker;
#X msg 353 161 1;
#X msg 373 191 2;
#X msg 393 161 3;
#X obj 350 136 bng 15 250 50 0 empty empty empty 17 7 0 10 #fcfcfc
#000000 #000000;
#X obj 375 137 bng 15 250 50 0 empty empty empty 17 7 0 10 #fcfcfc
#000000 #000000;
#X obj 398 136 bng 15 250 50 0 empty empty empty 17 7 0 10 #fcfcfc
#000000 #000000;
#X obj 534 302 loadbang;
#X obj 534 326 tgl 15 0 empty empty empty 17 7 0 10 #fcfcfc #000000
#000000 0 1;
#X obj 534 394 bng 15 250 50 0 empty empty empty 17 7 0 10 #fcfcfc
#000000 #000000;
#X obj 277 413 *~;
#X obj 318 411 *~;
#X obj 534 346 metro 50;
#X obj 534 370 maybe 0.05;
#X obj 169 219 line;
#X msg 169 195 \$1 50;
#X obj 169 291 vibrato~ 5 0.01;
#X obj 169 147 scaled 0 1 60 73;
#X obj 169 94 easeinoutsine;
#X obj 85 38 loadbang;
#X obj 83 304 noiseosc~;
#X obj 83 276 * 2;
#X obj 83 328 *~;
#N canvas 0 25 450 300 randomwalker 0;
#X obj 95 141 easeinoutcubic;
#X obj 95 165 msphsl 0 1;
#X obj 95 71 loadbang;
#X obj 95 95 bng 15 250 50 0 empty empty empty 17 7 0 10 #fcfcfc #000000
#000000;
#X obj 95 188 outlet;
#X obj 95 117 randwalk 10000 30000;
#X connect 0 0 1 0;
#X connect 1 0 4 0;
#X connect 2 0 3 0;
#X connect 3 0 5 0;
#X connect 5 0 0 0;
#X connect 5 1 3 0;
#X restore 27 192 pd randomwalker;
#X obj 27 240 msphsl 0 1;
#X obj 27 263 sig~;
#X obj 169 171 quantizedmode ionian 60;
#X obj 277 437 outlet~;
#X obj 353 444 outlet~;
#X obj 249 345 scaled 0 1 0.2 0.8;
#X msg 565 216 \$1 10;
#X obj 565 240 line;
#X obj 27 216 scaled 0 1 0 0.2;
#X obj 417 136 bng 15 250 50 0 empty empty empty 17 7 0 10 #fcfcfc
#000000 #000000;
#X msg 417 191 4;
#X obj 353 83 scaled 0 1 1 30;
#X obj 353 107 sieverange 10 20 28 30;
#X obj 534 414 envgen~ 1 50 0.4 800 0 200;
#X connect 0 0 28 0;
#X connect 1 0 29 0;
#X connect 1 1 2 0;
#X connect 2 0 1 0;
#X connect 3 0 5 0;
#X connect 3 0 32 0;
#X connect 4 0 21 0;
#X connect 4 1 22 0;
#X connect 5 0 27 0;
#X connect 6 0 7 0;
#X connect 7 0 5 2;
#X connect 8 0 9 0;
#X connect 9 0 41 0;
#X connect 10 0 40 0;
#X connect 11 0 46 0;
#X connect 12 0 5 1;
#X connect 13 0 5 1;
#X connect 14 0 5 1;
#X connect 15 0 12 0;
#X connect 16 0 13 0;
#X connect 17 0 14 0;
#X connect 18 0 19 0;
#X connect 19 0 23 0;
#X connect 20 0 48 0;
#X connect 21 0 38 0;
#X connect 22 0 39 0;
#X connect 23 0 24 0;
#X connect 24 0 20 0;
#X connect 25 0 3 0;
#X connect 26 0 25 0;
#X connect 27 0 4 0;
#X connect 28 0 37 0;
#X connect 29 0 0 0;
#X connect 30 0 2 0;
#X connect 31 0 33 0;
#X connect 32 0 31 0;
#X connect 33 0 4 0;
#X connect 34 0 43 0;
#X connect 35 0 36 0;
#X connect 36 0 33 1;
#X connect 37 0 26 0;
#X connect 40 0 4 1;
#X connect 41 0 42 0;
#X connect 42 0 5 3;
#X connect 43 0 35 0;
#X connect 44 0 45 0;
#X connect 45 0 5 1;
#X connect 46 0 47 0;
#X connect 47 0 15 0;
#X connect 47 1 16 0;
#X connect 47 2 17 0;
#X connect 47 3 44 0;
#X connect 48 0 22 1;
#X connect 48 0 21 1;
#X restore 123 19 pd wildfm;
#N canvas 360 87 588 415 dronebed 0;
#X obj 18 195 mtof;
#X obj 22 227 fm~, f 15;
#X msg 18 171 60;
#X obj 15 145 loadbang;
#X obj 17 339 pan~;
#N canvas 0 25 450 300 randomwalker 0;
#X obj 95 117 randwalk 200 2000;
#X obj 95 141 easeinoutcubic;
#X obj 95 165 msphsl 0 1;
#X obj 95 71 loadbang;
#X obj 95 95 bng 15 250 50 0 empty empty empty 17 7 0 10 #fcfcfc #000000
#000000;
#X obj 95 188 outlet;
#X connect 0 0 1 0;
#X connect 0 1 4 0;
#X connect 1 0 2 0;
#X connect 2 0 5 0;
#X connect 3 0 4 0;
#X connect 4 0 0 0;
#X restore 33 316 pd randomwalker;
#X obj 160 194 mtof;
#X obj 164 226 fm~, f 18;
#X obj 157 144 loadbang;
#X obj 159 338 pan~;
#N canvas 0 25 450 300 randomwalker 0;
#X obj 95 117 randwalk 200 2000;
#X obj 95 141 easeinoutcubic;
#X obj 95 165 msphsl 0 1;
#X obj 95 71 loadbang;
#X obj 95 95 bng 15 250 50 0 empty empty empty 17 7 0 10 #fcfcfc #000000
#000000;
#X obj 95 188 outlet;
#X connect 0 0 1 0;
#X connect 0 1 4 0;
#X connect 1 0 2 0;
#X connect 2 0 5 0;
#X connect 3 0 4 0;
#X connect 4 0 0 0;
#X restore 175 315 pd randomwalker;
#X msg 160 169 67;
#X obj 22 251 *~;
#X obj 164 250 *~;
#X obj 89 94 sig~;
#X obj 89 70 msphsl 0 1 0.3;
#N canvas 0 25 450 300 randomwalker 0;
#X obj 95 117 randwalk 200 2000;
#X obj 95 141 easeinoutcubic;
#X obj 95 165 msphsl 0 1;
#X obj 95 71 loadbang;
#X obj 95 95 bng 15 250 50 0 empty empty empty 17 7 0 10 #fcfcfc #000000
#000000;
#X obj 95 188 outlet;
#X connect 0 0 1 0;
#X connect 0 1 4 0;
#X connect 1 0 2 0;
#X connect 2 0 5 0;
#X connect 3 0 4 0;
#X connect 4 0 0 0;
#X restore 146 96 pd randomwalker;
#X obj 146 120 scaled 0 1 1 4;
#N canvas 0 25 450 300 randomwalker 0;
#X obj 95 117 randwalk 200 2000;
#X obj 95 141 easeinoutcubic;
#X obj 95 165 msphsl 0 1;
#X obj 95 71 loadbang;
#X obj 95 95 bng 15 250 50 0 empty empty empty 17 7 0 10 #fcfcfc #000000
#000000;
#X obj 95 188 outlet;
#X connect 0 0 1 0;
#X connect 0 1 4 0;
#X connect 1 0 2 0;
#X connect 2 0 5 0;
#X connect 3 0 4 0;
#X connect 4 0 0 0;
#X restore 277 96 pd randomwalker;
#X obj 277 120 scaled 0 1 25 50;
#N canvas 0 25 450 300 randomwalker 0;
#X obj 95 141 easeinoutcubic;
#X obj 95 165 msphsl 0 1;
#X obj 95 71 loadbang;
#X obj 95 95 bng 15 250 50 0 empty empty empty 17 7 0 10 #fcfcfc #000000
#000000;
#X obj 95 188 outlet;
#X obj 95 117 randwalk 10000 30000;
#X connect 0 0 1 0;
#X connect 1 0 4 0;
#X connect 2 0 3 0;
#X connect 3 0 5 0;
#X connect 5 0 0 0;
#X connect 5 1 3 0;
#X restore 20 19 pd randomwalker;
#X obj 18 381 outlet~;
#X obj 113 386 outlet~;
#X msg 277 144 \$1 10;
#X obj 277 168 line;
#X obj 317 294 loadbang;
#X msg 317 318 48;
#X obj 317 342 osc~;
#X obj 317 366 *~, f 12;
#N canvas 0 25 450 300 randomwalker 0;
#X obj 95 141 easeinoutcubic;
#X obj 95 165 msphsl 0 1;
#X obj 95 71 loadbang;
#X obj 95 95 bng 15 250 50 0 empty empty empty 17 7 0 10 #fcfcfc #000000
#000000;
#X obj 95 188 outlet;
#X obj 95 117 randwalk 10000 20000;
#X connect 0 0 1 0;
#X connect 1 0 4 0;
#X connect 2 0 3 0;
#X connect 3 0 5 0;
#X connect 5 0 0 0;
#X connect 5 1 3 0;
#X restore 398 294 pd randomwalker;
#X obj 398 342 sig~;
#X obj 398 318 scaled 0 1 0 0.8;
#X obj 20 43 scaled 0 1 0 0.35;
#X connect 0 0 1 0;
#X connect 1 0 12 0;
#X connect 2 0 0 0;
#X connect 3 0 2 0;
#X connect 4 0 21 0;
#X connect 4 1 22 0;
#X connect 5 0 4 1;
#X connect 6 0 7 0;
#X connect 7 0 13 0;
#X connect 8 0 11 0;
#X connect 9 0 21 0;
#X connect 9 1 22 0;
#X connect 10 0 9 1;
#X connect 11 0 6 0;
#X connect 12 0 4 0;
#X connect 13 0 9 0;
#X connect 14 0 12 1;
#X connect 14 0 13 1;
#X connect 15 0 14 0;
#X connect 16 0 17 0;
#X connect 17 0 1 2;
#X connect 17 0 7 2;
#X connect 18 0 19 0;
#X connect 19 0 23 0;
#X connect 20 0 32 0;
#X connect 23 0 24 0;
#X connect 24 0 7 3;
#X connect 24 0 1 3;
#X connect 25 0 26 0;
#X connect 26 0 27 0;
#X connect 27 0 28 0;
#X connect 28 0 22 0;
#X connect 28 0 21 0;
#X connect 29 0 31 0;
#X connect 30 0 28 1;
#X connect 31 0 30 0;
#X connect 32 0 15 0;
#X restore 19 19 pd dronebed;
#N canvas 20 212 799 560 wildfm 0;
#X obj 169 124 msphsl 0 1;
#X obj 169 70 randwalk 200 2000;
#X obj 170 50 bng 15 250 50 0 empty empty empty 17 7 0 10 #fcfcfc #000000
#000000;
#X obj 169 245 mtof;
#X obj 231 383 pan~;
#X obj 169 267 fm~, f 60;
#N canvas 0 25 450 300 randomwalker 0;
#X obj 95 117 randwalk 200 2000;
#X obj 95 141 easeinoutcubic;
#X obj 95 165 msphsl 0 1;
#X obj 95 71 loadbang;
#X obj 95 95 bng 15 250 50 0 empty empty empty 17 7 0 10 #fcfcfc #000000
#000000;
#X obj 95 188 outlet;
#X connect 0 0 1 0;
#X connect 0 1 4 0;
#X connect 1 0 2 0;
#X connect 2 0 5 0;
#X connect 3 0 4 0;
#X connect 4 0 0 0;
#X restore 444 218 pd randomwalker;
#X obj 444 242 scaled 0 1 1 4;
#N canvas 0 25 450 300 randomwalker 0;
#X obj 95 117 randwalk 200 2000;
#X obj 95 141 easeinoutcubic;
#X obj 95 165 msphsl 0 1;
#X obj 95 71 loadbang;
#X obj 95 95 bng 15 250 50 0 empty empty empty 17 7 0 10 #fcfcfc #000000
#000000;
#X obj 95 188 outlet;
#X connect 0 0 1 0;
#X connect 0 1 4 0;
#X connect 1 0 2 0;
#X connect 2 0 5 0;
#X connect 3 0 4 0;
#X connect 4 0 0 0;
#X restore 565 168 pd randomwalker;
#X obj 565 192 scaled 0 1 25 50;
#N canvas 0 25 450 300 randomwalker 0;
#X obj 95 117 randwalk 200 2000;
#X obj 95 141 easeinoutcubic;
#X obj 95 165 msphsl 0 1;
#X obj 95 71 loadbang;
#X obj 95 95 bng 15 250 50 0 empty empty empty 17 7 0 10 #fcfcfc #000000
#000000;
#X obj 95 188 outlet;
#X connect 0 0 1 0;
#X connect 0 1 4 0;
#X connect 1 0 2 0;
#X connect 2 0 5 0;
#X connect 3 0 4 0;
#X connect 4 0 0 0;
#X restore 249 321 pd randomwalker;
#N canvas 0 25 450 300 randomwalker 0;
#X obj 95 141 msphsl 0 1;
#X obj 95 71 loadbang;
#X obj 95 95 bng 15 250 50 0 empty empty empty 17 7 0 10 #fcfcfc #000000
#000000;
#X obj 95 164 outlet;
#X obj 95 117 randwalk 20000 60000;
#X connect 0 0 3 0;
#X connect 1 0 2 0;
#X connect 2 0 4 0;
#X connect 4 0 0 0;
#X connect 4 1 2 0;
#X restore 353 59 pd randomwalker;
#X msg 353 161 1;
#X msg 373 191 2;
#X msg 393 161 3;
#X obj 350 136 bng 15 250 50 0 empty empty empty 17 7 0 10 #fcfcfc
#000000 #000000;
#X obj 375 137 bng 15 250 50 0 empty empty empty 17 7 0 10 #fcfcfc
#000000 #000000;
#X obj 398 136 bng 15 250 50 0 empty empty empty 17 7 0 10 #fcfcfc
#000000 #000000;
#X obj 534 302 loadbang;
#X obj 534 326 tgl 15 0 empty empty empty 17 7 0 10 #fcfcfc #000000
#000000 0 1;
#X obj 534 394 bng 15 250 50 0 empty empty empty 17 7 0 10 #fcfcfc
#000000 #000000;
#X obj 277 413 *~;
#X obj 318 411 *~;
#X obj 534 346 metro 50;
#X obj 534 370 maybe 0.05;
#X obj 169 219 line;
#X obj 169 291 vibrato~ 5 0.01;
#X obj 169 147 scaled 0 1 60 73;
#X obj 169 94 easeinoutsine;
#X obj 85 38 loadbang;
#X obj 83 304 noiseosc~;
#X obj 83 276 * 2;
#X obj 83 328 *~;
#N canvas 0 25 450 300 randomwalker 0;
#X obj 95 141 easeinoutcubic;
#X obj 95 165 msphsl 0 1;
#X obj 95 71 loadbang;
#X obj 95 95 bng 15 250 50 0 empty empty empty 17 7 0 10 #fcfcfc #000000
#000000;
#X obj 95 188 outlet;
#X obj 95 117 randwalk 10000 30000;
#X connect 0 0 1 0;
#X connect 1 0 4 0;
#X connect 2 0 3 0;
#X connect 3 0 5 0;
#X connect 5 0 0 0;
#X connect 5 1 3 0;
#X restore 27 192 pd randomwalker;
#X obj 27 240 msphsl 0 1;
#X obj 27 263 sig~;
#X obj 169 171 quantizedmode ionian 60;
#X obj 277 437 outlet~;
#X obj 353 444 outlet~;
#X obj 249 345 scaled 0 1 0.2 0.8;
#X msg 565 216 \$1 10;
#X obj 565 240 line;
#X obj 27 216 scaled 0 1 0 0.2;
#X obj 417 136 bng 15 250 50 0 empty empty empty 17 7 0 10 #fcfcfc
#000000 #000000;
#X msg 417 191 4;
#X obj 353 83 scaled 0 1 1 30;
#X obj 353 107 sieverange 10 20 28 30;
#X obj 534 414 envgen~ 1 10 0.4 800 0 200;
#X msg 169 195 \$1 30;
#X connect 0 0 27 0;
#X connect 1 0 28 0;
#X connect 1 1 2 0;
#X connect 2 0 1 0;
#X connect 3 0 5 0;
#X connect 3 0 31 0;
#X connect 4 0 21 0;
#X connect 4 1 22 0;
#X connect 5 0 26 0;
#X connect 6 0 7 0;
#X connect 7 0 5 2;
#X connect 8 0 9 0;
#X connect 9 0 40 0;
#X connect 10 0 39 0;
#X connect 11 0 45 0;
#X connect 12 0 5 1;
#X connect 13 0 5 1;
#X connect 14 0 5 1;
#X connect 15 0 12 0;
#X connect 16 0 13 0;
#X connect 17 0 14 0;
#X connect 18 0 19 0;
#X connect 19 0 23 0;
#X connect 20 0 47 0;
#X connect 21 0 37 0;
#X connect 22 0 38 0;
#X connect 23 0 24 0;
#X connect 24 0 20 0;
#X connect 25 0 3 0;
#X connect 26 0 4 0;
#X connect 27 0 36 0;
#X connect 28 0 0 0;
#X connect 29 0 2 0;
#X connect 30 0 32 0;
#X connect 31 0 30 0;
#X connect 32 0 4 0;
#X connect 33 0 42 0;
#X connect 34 0 35 0;
#X connect 35 0 32 1;
#X connect 36 0 48 0;
#X connect 39 0 4 1;
#X connect 40 0 41 0;
#X connect 41 0 5 3;
#X connect 42 0 34 0;
#X connect 43 0 44 0;
#X connect 44 0 5 1;
#X connect 45 0 46 0;
#X connect 46 0 15 0;
#X connect 46 1 16 0;
#X connect 46 2 17 0;
#X connect 46 3 43 0;
#X connect 47 0 22 1;
#X connect 47 0 21 1;
#X connect 48 0 25 0;
#X restore 193 19 pd wildfm;
#N canvas 481 212 799 560 wildfm 0;
#X obj 169 124 msphsl 0 1;
#X obj 169 70 randwalk 200 2000;
#X obj 170 50 bng 15 250 50 0 empty empty empty 17 7 0 10 #fcfcfc #000000
#000000;
#X obj 169 245 mtof;
#X obj 231 383 pan~;
#X obj 169 267 fm~, f 60;
#N canvas 0 25 450 300 randomwalker 0;
#X obj 95 117 randwalk 200 2000;
#X obj 95 141 easeinoutcubic;
#X obj 95 165 msphsl 0 1;
#X obj 95 71 loadbang;
#X obj 95 95 bng 15 250 50 0 empty empty empty 17 7 0 10 #fcfcfc #000000
#000000;
#X obj 95 188 outlet;
#X connect 0 0 1 0;
#X connect 0 1 4 0;
#X connect 1 0 2 0;
#X connect 2 0 5 0;
#X connect 3 0 4 0;
#X connect 4 0 0 0;
#X restore 444 218 pd randomwalker;
#X obj 444 242 scaled 0 1 1 4;
#N canvas 0 25 450 300 randomwalker 0;
#X obj 95 117 randwalk 200 2000;
#X obj 95 141 easeinoutcubic;
#X obj 95 165 msphsl 0 1;
#X obj 95 71 loadbang;
#X obj 95 95 bng 15 250 50 0 empty empty empty 17 7 0 10 #fcfcfc #000000
#000000;
#X obj 95 188 outlet;
#X connect 0 0 1 0;
#X connect 0 1 4 0;
#X connect 1 0 2 0;
#X connect 2 0 5 0;
#X connect 3 0 4 0;
#X connect 4 0 0 0;
#X restore 565 168 pd randomwalker;
#X obj 565 192 scaled 0 1 25 50;
#N canvas 0 25 450 300 randomwalker 0;
#X obj 95 117 randwalk 200 2000;
#X obj 95 141 easeinoutcubic;
#X obj 95 165 msphsl 0 1;
#X obj 95 71 loadbang;
#X obj 95 95 bng 15 250 50 0 empty empty empty 17 7 0 10 #fcfcfc #000000
#000000;
#X obj 95 188 outlet;
#X connect 0 0 1 0;
#X connect 0 1 4 0;
#X connect 1 0 2 0;
#X connect 2 0 5 0;
#X connect 3 0 4 0;
#X connect 4 0 0 0;
#X restore 249 321 pd randomwalker;
#N canvas 0 25 450 300 randomwalker 0;
#X obj 95 141 msphsl 0 1;
#X obj 95 71 loadbang;
#X obj 95 95 bng 15 250 50 0 empty empty empty 17 7 0 10 #fcfcfc #000000
#000000;
#X obj 95 164 outlet;
#X obj 95 117 randwalk 20000 60000;
#X connect 0 0 3 0;
#X connect 1 0 2 0;
#X connect 2 0 4 0;
#X connect 4 0 0 0;
#X connect 4 1 2 0;
#X restore 353 59 pd randomwalker;
#X msg 353 161 1;
#X msg 373 191 2;
#X msg 393 161 3;
#X obj 350 136 bng 15 250 50 0 empty empty empty 17 7 0 10 #fcfcfc
#000000 #000000;
#X obj 375 137 bng 15 250 50 0 empty empty empty 17 7 0 10 #fcfcfc
#000000 #000000;
#X obj 398 136 bng 15 250 50 0 empty empty empty 17 7 0 10 #fcfcfc
#000000 #000000;
#X obj 534 302 loadbang;
#X obj 534 326 tgl 15 0 empty empty empty 17 7 0 10 #fcfcfc #000000
#000000 0 1;
#X obj 534 394 bng 15 250 50 0 empty empty empty 17 7 0 10 #fcfcfc
#000000 #000000;
#X obj 277 413 *~;
#X obj 318 411 *~;
#X obj 534 346 metro 50;
#X obj 534 370 maybe 0.05;
#X obj 169 219 line;
#X obj 169 291 vibrato~ 5 0.01;
#X obj 169 147 scaled 0 1 60 73;
#X obj 169 94 easeinoutsine;
#X obj 85 38 loadbang;
#X obj 83 304 noiseosc~;
#X obj 83 276 * 2;
#X obj 83 328 *~;
#N canvas 0 25 450 300 randomwalker 0;
#X obj 95 141 easeinoutcubic;
#X obj 95 165 msphsl 0 1;
#X obj 95 71 loadbang;
#X obj 95 95 bng 15 250 50 0 empty empty empty 17 7 0 10 #fcfcfc #000000
#000000;
#X obj 95 188 outlet;
#X obj 95 117 randwalk 10000 30000;
#X connect 0 0 1 0;
#X connect 1 0 4 0;
#X connect 2 0 3 0;
#X connect 3 0 5 0;
#X connect 5 0 0 0;
#X connect 5 1 3 0;
#X restore 27 192 pd randomwalker;
#X obj 27 240 msphsl 0 1;
#X obj 27 263 sig~;
#X obj 169 171 quantizedmode ionian 60;
#X obj 277 437 outlet~;
#X obj 353 444 outlet~;
#X obj 249 345 scaled 0 1 0.2 0.8;
#X obj 534 414 envgen~ 1 5 0.4 800 0 200;
#X msg 565 216 \$1 10;
#X obj 565 240 line;
#X obj 27 216 scaled 0 1 0 0.2;
#X obj 417 136 bng 15 250 50 0 empty empty empty 17 7 0 10 #fcfcfc
#000000 #000000;
#X msg 417 191 4;
#X obj 353 83 scaled 0 1 1 30;
#X obj 353 107 sieverange 10 20 28 30;
#X msg 169 195 \$1 20;
#X connect 0 0 27 0;
#X connect 1 0 28 0;
#X connect 1 1 2 0;
#X connect 2 0 1 0;
#X connect 3 0 5 0;
#X connect 3 0 31 0;
#X connect 4 0 21 0;
#X connect 4 1 22 0;
#X connect 5 0 26 0;
#X connect 6 0 7 0;
#X connect 7 0 5 2;
#X connect 8 0 9 0;
#X connect 9 0 41 0;
#X connect 10 0 39 0;
#X connect 11 0 46 0;
#X connect 12 0 5 1;
#X connect 13 0 5 1;
#X connect 14 0 5 1;
#X connect 15 0 12 0;
#X connect 16 0 13 0;
#X connect 17 0 14 0;
#X connect 18 0 19 0;
#X connect 19 0 23 0;
#X connect 20 0 40 0;
#X connect 21 0 37 0;
#X connect 22 0 38 0;
#X connect 23 0 24 0;
#X connect 24 0 20 0;
#X connect 25 0 3 0;
#X connect 26 0 4 0;
#X connect 27 0 36 0;
#X connect 28 0 0 0;
#X connect 29 0 2 0;
#X connect 30 0 32 0;
#X connect 31 0 30 0;
#X connect 32 0 4 0;
#X connect 33 0 43 0;
#X connect 34 0 35 0;
#X connect 35 0 32 1;
#X connect 36 0 48 0;
#X connect 39 0 4 1;
#X connect 40 0 22 1;
#X connect 40 0 21 1;
#X connect 41 0 42 0;
#X connect 42 0 5 3;
#X connect 43 0 34 0;
#X connect 44 0 45 0;
#X connect 45 0 5 1;
#X connect 46 0 47 0;
#X connect 47 0 15 0;
#X connect 47 1 16 0;
#X connect 47 2 17 0;
#X connect 47 3 44 0;
#X connect 48 0 25 0;
#X restore 263 19 pd wildfm;
#X obj 118 101 *~ 0.25;
#X obj 187 102 *~ 0.25;
#N canvas 0 25 588 415 dronebed 0;
#X obj 18 195 mtof;
#X obj 22 227 fm~, f 15;
#X obj 15 145 loadbang;
#X obj 17 339 pan~;
#N canvas 0 25 450 300 randomwalker 0;
#X obj 95 117 randwalk 200 2000;
#X obj 95 141 easeinoutcubic;
#X obj 95 165 msphsl 0 1;
#X obj 95 71 loadbang;
#X obj 95 95 bng 15 250 50 0 empty empty empty 17 7 0 10 #fcfcfc #000000
#000000;
#X obj 95 188 outlet;
#X connect 0 0 1 0;
#X connect 0 1 4 0;
#X connect 1 0 2 0;
#X connect 2 0 5 0;
#X connect 3 0 4 0;
#X connect 4 0 0 0;
#X restore 33 316 pd randomwalker;
#X obj 160 194 mtof;
#X obj 164 226 fm~, f 18;
#X obj 157 144 loadbang;
#X obj 159 338 pan~;
#N canvas 0 25 450 300 randomwalker 0;
#X obj 95 117 randwalk 200 2000;
#X obj 95 141 easeinoutcubic;
#X obj 95 165 msphsl 0 1;
#X obj 95 71 loadbang;
#X obj 95 95 bng 15 250 50 0 empty empty empty 17 7 0 10 #fcfcfc #000000
#000000;
#X obj 95 188 outlet;
#X connect 0 0 1 0;
#X connect 0 1 4 0;
#X connect 1 0 2 0;
#X connect 2 0 5 0;
#X connect 3 0 4 0;
#X connect 4 0 0 0;
#X restore 175 315 pd randomwalker;
#X obj 22 251 *~;
#X obj 164 250 *~;
#X obj 89 94 sig~;
#X obj 89 70 msphsl 0 1 0.3;
#N canvas 0 25 450 300 randomwalker 0;
#X obj 95 117 randwalk 200 2000;
#X obj 95 141 easeinoutcubic;
#X obj 95 165 msphsl 0 1;
#X obj 95 71 loadbang;
#X obj 95 95 bng 15 250 50 0 empty empty empty 17 7 0 10 #fcfcfc #000000
#000000;
#X obj 95 188 outlet;
#X connect 0 0 1 0;
#X connect 0 1 4 0;
#X connect 1 0 2 0;
#X connect 2 0 5 0;
#X connect 3 0 4 0;
#X connect 4 0 0 0;
#X restore 146 96 pd randomwalker;
#X obj 146 120 scaled 0 1 1 4;
#N canvas 0 25 450 300 randomwalker 0;
#X obj 95 117 randwalk 200 2000;
#X obj 95 141 easeinoutcubic;
#X obj 95 165 msphsl 0 1;
#X obj 95 71 loadbang;
#X obj 95 95 bng 15 250 50 0 empty empty empty 17 7 0 10 #fcfcfc #000000
#000000;
#X obj 95 188 outlet;
#X connect 0 0 1 0;
#X connect 0 1 4 0;
#X connect 1 0 2 0;
#X connect 2 0 5 0;
#X connect 3 0 4 0;
#X connect 4 0 0 0;
#X restore 277 96 pd randomwalker;
#X obj 277 120 scaled 0 1 25 50;
#N canvas 0 25 450 300 randomwalker 0;
#X obj 95 141 easeinoutcubic;
#X obj 95 165 msphsl 0 1;
#X obj 95 71 loadbang;
#X obj 95 95 bng 15 250 50 0 empty empty empty 17 7 0 10 #fcfcfc #000000
#000000;
#X obj 95 188 outlet;
#X obj 95 117 randwalk 10000 30000;
#X connect 0 0 1 0;
#X connect 1 0 4 0;
#X connect 2 0 3 0;
#X connect 3 0 5 0;
#X connect 5 0 0 0;
#X connect 5 1 3 0;
#X restore 20 19 pd randomwalker;
#X obj 18 381 outlet~;
#X obj 113 386 outlet~;
#X msg 277 144 \$1 10;
#X obj 277 168 line;
#X obj 317 294 loadbang;
#X obj 317 342 osc~;
#X obj 317 366 *~, f 12;
#N canvas 0 25 450 300 randomwalker 0;
#X obj 95 141 easeinoutcubic;
#X obj 95 165 msphsl 0 1;
#X obj 95 71 loadbang;
#X obj 95 95 bng 15 250 50 0 empty empty empty 17 7 0 10 #fcfcfc #000000
#000000;
#X obj 95 188 outlet;
#X obj 95 117 randwalk 10000 20000;
#X connect 0 0 1 0;
#X connect 1 0 4 0;
#X connect 2 0 3 0;
#X connect 3 0 5 0;
#X connect 5 0 0 0;
#X connect 5 1 3 0;
#X restore 398 294 pd randomwalker;
#X obj 398 342 sig~;
#X obj 20 43 scaled 0 1 0 0.35;
#X msg 18 171 48;
#X msg 160 169 55;
#X msg 317 318 36;
#X obj 398 318 scaled 0 1 0 0.6;
#X connect 0 0 1 0;
#X connect 1 0 10 0;
#X connect 2 0 29 0;
#X connect 3 0 19 0;
#X connect 3 1 20 0;
#X connect 4 0 3 1;
#X connect 5 0 6 0;
#X connect 6 0 11 0;
#X connect 7 0 30 0;
#X connect 8 0 19 0;
#X connect 8 1 20 0;
#X connect 9 0 8 1;
#X connect 10 0 3 0;
#X connect 11 0 8 0;
#X connect 12 0 10 1;
#X connect 12 0 11 1;
#X connect 13 0 12 0;
#X connect 14 0 15 0;
#X connect 15 0 1 2;
#X connect 15 0 6 2;
#X connect 16 0 17 0;
#X connect 17 0 21 0;
#X connect 18 0 28 0;
#X connect 21 0 22 0;
#X connect 22 0 6 3;
#X connect 22 0 1 3;
#X connect 23 0 31 0;
#X connect 24 0 25 0;
#X connect 25 0 20 0;
#X connect 25 0 19 0;
#X connect 26 0 32 0;
#X connect 27 0 25 1;
#X connect 28 0 13 0;
#X connect 29 0 0 0;
#X connect 30 0 5 0;
#X connect 31 0 24 0;
#X connect 32 0 27 0;
#X restore 24 47 pd dronebed;
#X obj 246 135 echo~ 250 0.3;
#X connect 1 0 5 0;
#X connect 1 1 6 0;
#X connect 2 0 5 0;
#X connect 2 1 6 0;
#X connect 3 0 5 0;
#X connect 3 1 6 0;
#X connect 4 0 5 0;
#X connect 4 0 8 0;
#X connect 4 1 6 0;
#X connect 4 1 8 0;
#X connect 5 0 0 0;
#X connect 6 0 0 1;
#X connect 7 0 5 0;
#X connect 7 1 6 0;
#X connect 8 0 6 0;
#X connect 8 0 5 0;
