#N canvas 587 212 1168 571 12;
#X obj 518 172 out~;
#X obj 135 22 tgl 15 0 empty empty empty 17 7 0 10 -262144 -1 -1 0
1;
#X obj 143 525 midichord 2 300, f 26;
#X obj 135 66 sel 1;
#X msg 135 90 1;
#X obj 135 42 metronome 250 16;
#X obj 169 386 unpack f f f f;
#X obj 169 410 - 12;
#X obj 427 12 adc~ 5 6 7 8;
#X obj 338 47 lop~ 500;
#X obj 426 46 lop~ 500;
#X obj 338 71 hip~ 50;
#X obj 426 70 hip~ 50;
#X obj 272 246 randwalk 100 1000;
#X obj 272 294 i;
#X obj 272 227 bng 15 250 50 0 empty empty empty 17 7 0 10 -262144
-1 -1;
#X floatatom 189 19 5 0 0 0 - - -;
#X obj 419 469 randwalk 100 1000;
#X obj 418 450 bng 15 250 50 0 empty empty empty 17 7 0 10 -262144
-1 -1;
#X msg 167 114 5;
#X obj 167 90 sel 9;
#X obj 169 434 maybe 0.7;
#X obj 418 492 scaled 0 1 10 40;
#X obj 169 458 midichord 1 100;
#X obj 444 254 bng 15 250 50 0 empty empty empty 17 7 0 10 -262144
-1 -1;
#X obj 289 375 bng 15 250 50 0 empty empty empty 17 7 0 10 -262144
-1 -1;
#X obj 289 417 scaled 0 1 10 400;
#X obj 290 394 randwalk 400 1000;
#X obj 614 351 pan~;
#X obj 633 275 bng 15 250 50 0 empty empty empty 17 7 0 10 -262144
-1 -1;
#X obj 634 294 randwalk 800 2000;
#X obj 438 340 echo~ 117.5 0.8;
#X obj 634 318 msphsl 0 1;
#X obj 418 516 msphsl 10 40;
#X obj 289 441 msphsl 10 400;
#X obj 272 318 msphsl 1 5;
#X obj 581 30 crackle~;
#X obj 651 30 crackle~;
#X obj 581 78 *~;
#X obj 651 78 *~;
#X obj 732 99 msphsl 0 1;
#X obj 732 122 sig~;
#X obj 581 54 hip~ 8000;
#X obj 651 54 hip~ 6000;
#X obj 566 118 ducker~;
#X obj 636 117 ducker~;
#X obj 687 257 *~;
#X obj 788 263 mtof;
#X msg 788 239 48;
#X obj 788 311 vibrato~;
#X obj 444 298 *~ 0.15;
#X obj 858 263 mtof;
#X obj 858 311 vibrato~;
#X msg 858 239 55;
#X obj 788 287 osc~;
#X obj 858 287 osc~;
#X obj 34 261 midichord 3 50;
#X msg 34 237 60;
#X obj 34 217 bng 15 250 50 0 empty empty empty 17 7 0 10 -262144 -1
-1;
#X obj 34 169 sieve 1 9;
#X obj 34 193 maybe 0.05;
#X obj 686 216 envgen~ 0.8 5 0.4 900 0 600;
#X obj 941 311 vibrato~;
#X obj 941 287 osc~ 131.8;
#X obj 272 269 scaled 0 1 1 4;
#N canvas 75 143 799 560 wildfm 0;
#X obj 169 124 msphsl 0 1;
#X obj 169 70 randwalk 200 2000;
#X obj 170 50 bng 15 250 50 0 empty empty empty 17 7 0 10 -262144 -1
-1;
#X obj 169 245 mtof;
#X obj 231 383 pan~;
#X obj 169 267 fm~, f 60;
#N canvas 0 25 450 300 randomwalker 0;
#X obj 95 117 randwalk 200 2000;
#X obj 95 141 easeinoutcubic;
#X obj 95 165 msphsl 0 1;
#X obj 95 71 loadbang;
#X obj 95 95 bng 15 250 50 0 empty empty empty 17 7 0 10 -262144 -1
-1;
#X obj 95 188 outlet;
#X connect 0 0 1 0;
#X connect 0 1 4 0;
#X connect 1 0 2 0;
#X connect 2 0 5 0;
#X connect 3 0 4 0;
#X connect 4 0 0 0;
#X restore 444 218 pd randomwalker;
#X obj 444 242 scaled 0 1 1 4;
#N canvas 0 25 450 300 randomwalker 0;
#X obj 95 117 randwalk 200 2000;
#X obj 95 141 easeinoutcubic;
#X obj 95 165 msphsl 0 1;
#X obj 95 71 loadbang;
#X obj 95 95 bng 15 250 50 0 empty empty empty 17 7 0 10 -262144 -1
-1;
#X obj 95 188 outlet;
#X connect 0 0 1 0;
#X connect 0 1 4 0;
#X connect 1 0 2 0;
#X connect 2 0 5 0;
#X connect 3 0 4 0;
#X connect 4 0 0 0;
#X restore 565 168 pd randomwalker;
#X obj 565 192 scaled 0 1 25 50;
#N canvas 0 25 450 300 randomwalker 0;
#X obj 95 117 randwalk 200 2000;
#X obj 95 141 easeinoutcubic;
#X obj 95 165 msphsl 0 1;
#X obj 95 71 loadbang;
#X obj 95 95 bng 15 250 50 0 empty empty empty 17 7 0 10 -262144 -1
-1;
#X obj 95 188 outlet;
#X connect 0 0 1 0;
#X connect 0 1 4 0;
#X connect 1 0 2 0;
#X connect 2 0 5 0;
#X connect 3 0 4 0;
#X connect 4 0 0 0;
#X restore 249 321 pd randomwalker;
#N canvas 0 25 450 300 randomwalker 0;
#X obj 95 141 msphsl 0 1;
#X obj 95 71 loadbang;
#X obj 95 95 bng 15 250 50 0 empty empty empty 17 7 0 10 -262144 -1
-1;
#X obj 95 164 outlet;
#X obj 95 117 randwalk 20000 60000;
#X connect 0 0 3 0;
#X connect 1 0 2 0;
#X connect 2 0 4 0;
#X connect 4 0 0 0;
#X connect 4 1 2 0;
#X restore 353 59 pd randomwalker;
#X msg 353 161 1;
#X msg 373 191 2;
#X msg 393 161 3;
#X obj 350 136 bng 15 250 50 0 empty empty empty 17 7 0 10 -262144
-1 -1;
#X obj 375 137 bng 15 250 50 0 empty empty empty 17 7 0 10 -262144
-1 -1;
#X obj 398 136 bng 15 250 50 0 empty empty empty 17 7 0 10 -262144
-1 -1;
#X obj 534 302 loadbang;
#X obj 534 326 tgl 15 0 empty empty empty 17 7 0 10 -262144 -1 -1 1
1;
#X obj 534 394 bng 15 250 50 0 empty empty empty 17 7 0 10 -262144
-1 -1;
#X obj 277 413 *~;
#X obj 318 411 *~;
#X obj 534 346 metro 50;
#X obj 169 219 line;
#X obj 169 291 vibrato~ 5 0.01;
#X obj 169 147 scaled 0 1 60 73;
#X obj 169 94 easeinoutsine;
#X obj 85 38 loadbang;
#X obj 83 304 noiseosc~;
#X obj 83 276 * 2;
#X obj 83 328 *~;
#N canvas 0 25 450 300 randomwalker 0;
#X obj 95 141 easeinoutcubic;
#X obj 95 165 msphsl 0 1;
#X obj 95 71 loadbang;
#X obj 95 95 bng 15 250 50 0 empty empty empty 17 7 0 10 -262144 -1
-1;
#X obj 95 188 outlet;
#X obj 95 117 randwalk 10000 30000;
#X connect 0 0 1 0;
#X connect 1 0 4 0;
#X connect 2 0 3 0;
#X connect 3 0 5 0;
#X connect 5 0 0 0;
#X connect 5 1 3 0;
#X restore 27 192 pd randomwalker;
#X obj 27 240 msphsl 0 1;
#X obj 27 263 sig~;
#X obj 277 437 outlet~;
#X obj 353 444 outlet~;
#X obj 249 345 scaled 0 1 0.2 0.8;
#X msg 565 216 \$1 10;
#X obj 565 240 line;
#X obj 27 216 scaled 0 1 0 0.2;
#X obj 417 136 bng 15 250 50 0 empty empty empty 17 7 0 10 -262144
-1 -1;
#X msg 417 191 4;
#X obj 353 83 scaled 0 1 1 30;
#X obj 353 107 sieverange 10 20 28 30;
#X msg 169 195 \$1 20;
#X obj 534 370 maybe 0.001;
#X obj 534 414 envgen~ 0.05 5 0.0125 800 0 200;
#X obj 169 171 quantizedmode mixolydian 60;
#X connect 0 0 26 0;
#X connect 1 0 27 0;
#X connect 1 1 2 0;
#X connect 2 0 1 0;
#X connect 3 0 5 0;
#X connect 3 0 30 0;
#X connect 4 0 21 0;
#X connect 4 1 22 0;
#X connect 5 0 25 0;
#X connect 6 0 7 0;
#X connect 7 0 5 2;
#X connect 8 0 9 0;
#X connect 9 0 38 0;
#X connect 10 0 37 0;
#X connect 11 0 43 0;
#X connect 12 0 5 1;
#X connect 13 0 5 1;
#X connect 14 0 5 1;
#X connect 15 0 12 0;
#X connect 16 0 13 0;
#X connect 17 0 14 0;
#X connect 18 0 19 0;
#X connect 19 0 23 0;
#X connect 20 0 47 0;
#X connect 21 0 35 0;
#X connect 22 0 36 0;
#X connect 23 0 46 0;
#X connect 24 0 3 0;
#X connect 25 0 4 0;
#X connect 26 0 48 0;
#X connect 27 0 0 0;
#X connect 28 0 2 0;
#X connect 29 0 31 0;
#X connect 30 0 29 0;
#X connect 31 0 4 0;
#X connect 32 0 40 0;
#X connect 33 0 34 0;
#X connect 34 0 31 1;
#X connect 37 0 4 1;
#X connect 38 0 39 0;
#X connect 39 0 5 3;
#X connect 40 0 33 0;
#X connect 41 0 42 0;
#X connect 42 0 5 1;
#X connect 43 0 44 0;
#X connect 44 0 15 0;
#X connect 44 1 16 0;
#X connect 44 2 17 0;
#X connect 44 3 41 0;
#X connect 45 0 24 0;
#X connect 46 0 20 0;
#X connect 47 0 22 1;
#X connect 47 0 21 1;
#X connect 48 0 45 0;
#X restore 919 100 pd wildfm;
#X obj 788 336 *~ 0.045;
#X obj 858 336 *~ 0.045;
#X obj 941 336 *~ 0.045;
#X obj 444 230 maybe 0.2;
#X obj 860 156 echo~ 117.5 0.75;
#X obj 960 133 echo~ 117.5 0.75;
#X obj 199 158 randomsel 0 0 0 0 0 0 0 0 0 0 0 0 1 2 5 6;
#X obj 199 138 bng 15 250 50 0 empty empty empty 17 7 0 10 -262144
-1 -1;
#X obj 199 114 sieve 4 6 8 12 14 16;
#X obj 142 341 chord mixolydian 60 4;
#X obj 444 274 __playback~ camera;
#X connect 1 0 5 0;
#X connect 3 0 4 0;
#X connect 3 0 69 0;
#X connect 3 1 20 0;
#X connect 4 0 75 0;
#X connect 5 0 3 0;
#X connect 5 0 59 0;
#X connect 6 0 7 0;
#X connect 7 0 21 0;
#X connect 8 0 9 0;
#X connect 8 1 10 0;
#X connect 8 2 0 0;
#X connect 8 3 0 1;
#X connect 9 0 11 0;
#X connect 10 0 12 0;
#X connect 11 0 0 0;
#X connect 12 0 0 1;
#X connect 13 0 64 0;
#X connect 13 1 15 0;
#X connect 14 0 35 0;
#X connect 15 0 13 0;
#X connect 16 0 5 1;
#X connect 17 0 22 0;
#X connect 17 1 18 0;
#X connect 18 0 17 0;
#X connect 19 0 75 0;
#X connect 20 0 19 0;
#X connect 20 1 74 0;
#X connect 21 0 23 0;
#X connect 22 0 33 0;
#X connect 24 0 61 0;
#X connect 24 0 76 0;
#X connect 25 0 27 0;
#X connect 26 0 34 0;
#X connect 27 0 26 0;
#X connect 27 1 25 0;
#X connect 28 0 44 0;
#X connect 28 1 45 0;
#X connect 29 0 30 0;
#X connect 30 0 32 0;
#X connect 30 1 29 0;
#X connect 31 0 28 0;
#X connect 32 0 28 1;
#X connect 33 0 2 1;
#X connect 34 0 23 1;
#X connect 35 0 75 3;
#X connect 36 0 42 0;
#X connect 37 0 43 0;
#X connect 38 0 44 1;
#X connect 39 0 45 1;
#X connect 40 0 41 0;
#X connect 41 0 39 1;
#X connect 41 0 38 1;
#X connect 42 0 38 0;
#X connect 43 0 39 0;
#X connect 44 0 0 0;
#X connect 44 1 0 0;
#X connect 45 0 0 1;
#X connect 45 1 0 1;
#X connect 46 0 44 0;
#X connect 46 0 45 0;
#X connect 47 0 54 0;
#X connect 48 0 47 0;
#X connect 49 0 66 0;
#X connect 50 0 28 0;
#X connect 50 0 31 0;
#X connect 51 0 55 0;
#X connect 52 0 67 0;
#X connect 53 0 51 0;
#X connect 54 0 49 0;
#X connect 55 0 52 0;
#X connect 57 0 56 0;
#X connect 58 0 57 0;
#X connect 59 0 60 0;
#X connect 60 0 58 0;
#X connect 61 0 46 0;
#X connect 62 0 68 0;
#X connect 63 0 62 0;
#X connect 64 0 14 0;
#X connect 65 0 0 0;
#X connect 65 0 70 0;
#X connect 65 1 0 1;
#X connect 65 1 71 0;
#X connect 66 0 46 1;
#X connect 67 0 46 1;
#X connect 68 0 46 1;
#X connect 69 0 24 0;
#X connect 70 0 0 0;
#X connect 71 0 0 1;
#X connect 72 0 75 0;
#X connect 73 0 72 0;
#X connect 74 0 73 0;
#X connect 75 0 2 0;
#X connect 75 0 6 0;
#X connect 76 0 50 0;
