#N canvas 0 25 1920 1027 12;
#X obj 662 963 out~;
#X obj 660 47 bng 15 250 50 0 empty empty empty 17 7 0 10 -262144 -1
-1;
#X obj 653 763 pingpong~ 2000 0.9;
#X obj 660 90 msphsl 0 1;
#X obj 1701 143 audioclip~ nice 705600;
#X obj 1701 124 __audioclip_load nice 705600;
#X obj 359 446 granulator~ nice 705600;
#X obj 1007 406 hip~ 500;
#X obj 1027 430 echo~ 1 0.9;
#X obj 1007 380 granulator~ nice 705600;
#X obj 999 566 distortion~;
#X obj 999 642 *~;
#X obj 1043 600 msphsl 0 1;
#X obj 1043 623 sig~;
#X obj 776 740 msphsl 0 0.9;
#X obj 1073 545 msphsl 0 0.9;
#X obj 660 66 randwalk 50000 200000;
#X floatatom 517 423 5 0 0 0 - - -;
#X floatatom 1165 358 5 0 0 0 - - -;
#X floatatom 714 704 5 0 0 0 - - -;
#X obj 1138 425 msphsl 50 20000;
#X floatatom 439 400 5 0 0 0 - - -;
#X floatatom 1084 331 5 0 0 0 - - -;
#X obj 545 330 scaled 0 1 200 300;
#X obj 546 282 bng 15 250 50 0 empty empty empty 17 7 0 10 -262144
-1 -1;
#X obj 1010 184 bng 15 250 50 0 empty empty empty 17 7 0 10 -262144
-1 -1;
#X obj 1009 232 scaled 0 1 50 500;
#X obj 1009 208 randwalk 2000 10000;
#X obj 545 306 randwalk 2000 4000;
#X obj 1103 731 crackle~;
#X obj 1103 779 hip~ 10000;
#X obj 979 723 crackle~;
#X obj 979 771 hip~ 15000;
#X obj 979 795 *~;
#X obj 1103 805 *~;
#X obj 1100 904 msphsl 0 1;
#X obj 1100 927 sig~;
#X connect 1 0 16 0;
#X connect 2 0 0 0;
#X connect 2 1 0 1;
#X connect 3 0 6 0;
#X connect 3 0 9 0;
#X connect 6 0 0 0;
#X connect 6 0 0 1;
#X connect 6 0 2 0;
#X connect 7 0 8 0;
#X connect 7 0 10 0;
#X connect 8 0 10 0;
#X connect 9 0 7 0;
#X connect 10 0 11 0;
#X connect 11 0 2 0;
#X connect 12 0 13 0;
#X connect 13 0 11 1;
#X connect 14 0 2 2;
#X connect 15 0 10 1;
#X connect 16 0 3 0;
#X connect 16 1 1 0;
#X connect 17 0 6 2;
#X connect 18 0 9 2;
#X connect 19 0 2 1;
#X connect 20 0 7 1;
#X connect 21 0 6 1;
#X connect 22 0 9 1;
#X connect 23 0 21 0;
#X connect 24 0 28 0;
#X connect 25 0 27 0;
#X connect 26 0 22 0;
#X connect 27 0 26 0;
#X connect 27 1 25 0;
#X connect 28 0 23 0;
#X connect 28 1 24 0;
#X connect 29 0 30 0;
#X connect 30 0 34 0;
#X connect 31 0 32 0;
#X connect 32 0 33 0;
#X connect 33 0 0 0;
#X connect 34 0 0 1;
#X connect 35 0 36 0;
#X connect 36 0 34 1;
#X connect 36 0 33 1;
