#N canvas 0 25 1920 1027 12;
#X obj 34 549 *~;
#X obj 599 481 noise~;
#X obj 52 476 msphsl 0 1;
#X msg 52 500 \$1 20;
#X obj 52 524 line~;
#X obj 599 579 *~;
#X obj 617 507 msphsl 0 1;
#X msg 617 531 \$1 20;
#X obj 617 555 line~;
#X obj 319 756 *~ 1;
#X obj 789 944 vcf~, f 26;
#X obj 1553 947 out~;
#X obj 1360 261 16step, f 36;
#X obj 745 66 tgl 15 0 empty empty empty 17 7 0 10 -262144 -1 -1 0
1;
#X obj 745 85 metronome 200 8;
#X obj 1356 329 s velocity;
#X obj 1561 892 *~;
#X obj 1579 842 ahdsr~ 5 0 0 0 0;
#X obj 768 288 - 1;
#X obj 1579 866 *~;
#X obj 1644 817 *;
#X obj 1644 740 r velocity;
#X obj 1356 307 16step, f 36;
#X obj 895 732 ahdsr~ 5 0 0 0 0;
#X obj 877 757 *~;
#X obj 877 648 sig~;
#X obj 745 346 s tick;
#X obj 1579 818 r tick;
#X obj 895 710 r tick;
#X obj 34 89 r tick;
#X obj 34 113 ahdsr 5 0 0 0 0;
#X obj 34 272 *;
#X obj 34 403 +;
#X obj 34 428 +;
#X obj 150 409 r pitch;
#X obj 158 312 hsl 40 20 -1 1 0 0 empty empty empty -2 -8 0 10 -262144
-1 -1 0 1;
#X floatatom 155 385 5 0 0 0 - - -;
#X floatatom 796 62 5 0 0 0 - - -;
#X obj 877 881 +~;
#X obj 979 862 sig~;
#X obj 55 177 hsl 40 20 -1 1 0 0 empty empty empty -2 -8 0 10 -262144
-1 -1 0 1;
#X floatatom 52 250 5 0 0 0 - - -;
#X obj 52 226 * 500;
#X obj 155 361 * 200;
#X obj 155 337 easeinoutcubic;
#X obj 52 202 easeinoutcubic;
#X obj 34 380 *;
#X obj 877 858 *~;
#X obj 52 346 r velocity;
#X obj 318 547 *~;
#X obj 336 474 msphsl 0 1;
#X msg 336 498 \$1 20;
#X obj 336 522 line~;
#X obj 318 87 r tick;
#X obj 318 111 ahdsr 5 0 0 0 0;
#X obj 318 270 *;
#X obj 318 401 +;
#X obj 318 426 +;
#X obj 434 407 r pitch;
#X obj 442 310 hsl 40 20 -1 1 0 0 empty empty empty -2 -8 0 10 -262144
-1 -1 0 1;
#X floatatom 439 383 5 0 0 0 - - -;
#X obj 339 175 hsl 40 20 -1 1 0 0 empty empty empty -2 -8 0 10 -262144
-1 -1 0 1;
#X floatatom 336 248 5 0 0 0 - - -;
#X obj 336 224 * 500;
#X obj 439 359 * 200;
#X obj 439 335 easeinoutcubic;
#X obj 336 200 easeinoutcubic;
#X obj 318 378 *;
#X obj 336 344 r velocity;
#X obj 895 805 r velocity;
#X obj 895 829 sig~;
#X obj 982 791 hsl 50 20 0 1 0 0 empty empty empty -2 -8 0 10 -262144
-1 -1 0 1;
#X obj 979 816 easeincubic;
#X obj 1644 764 scaled 0 1 5 1000;
#X obj 963 660 hsl 50 20 0 1 0 0 empty empty empty -2 -8 0 10 -262144
-1 -1 0 1;
#X obj 960 685 easeincubic;
#X obj 880 576 hsl 50 20 0 1 0 0 empty empty empty -2 -8 0 10 -262144
-1 -1 0 1;
#X obj 877 601 easeincubic;
#X obj 877 625 * 10000;
#X obj 1048 876 hsl 50 20 0 1 0 0 empty empty empty -2 -8 0 10 -262144
-1 -1 0 1;
#X obj 1045 901 easeincubic;
#X obj 1045 925 * 20;
#X obj 98 40 hsl 40 20 -1 1 0 0 empty empty empty -2 -8 0 10 -262144
-1 -1 0 1;
#X obj 95 89 * 2000;
#X obj 95 65 easeincubic;
#X obj 382 38 hsl 40 20 -1 1 0 0 empty empty empty -2 -8 0 10 -262144
-1 -1 0 1;
#X obj 379 87 * 2000;
#X obj 379 63 easeincubic;
#X obj 318 451 square~;
#X obj 979 840 scaled 0 1 50 10000;
#X obj 960 709 scaled 0 1 5 3000;
#X text 144 40 vco 1 decay;
#X text 429 39 vco 2 decay;
#X text 387 175 vco 2 eg amount;
#X text 101 176 vco 1 eg amount;
#X text 203 311 vco 1 frequency;
#X text 488 310 vco 2 frequency;
#X text 173 475 vco 1 level;
#X text 455 473 vco 2 level;
#X text 734 507 noise level;
#X text 1017 660 vcf decay;
#X text 936 573 vcf eg amount;
#X text 1037 790 cutoff;
#X text 1105 875 resonance;
#X text 1203 232 pitch sequencer;
#X text 1200 276 velocity sequencer;
#X obj 745 109 t b f f;
#X obj 791 242 - 1;
#X text 1783 793 vca decay;
#X obj 1662 792 msphsl 0.1 2;
#X obj 1068 623 route 22 23;
#X obj 1068 524 ctlin, f 38;
#X obj 1068 548 scaled 0 127 0 1;
#X obj 1068 599 pack f f;
#X obj 1068 572 t b f, f 8;
#X obj 1655 178 ftom;
#X obj 1655 225 mtof;
#X obj 1655 249 s pitch;
#X obj 1360 285 scaled 0 1 30 500;
#X obj 947 325 % 2;
#X obj 947 349 == 1;
#X obj 947 373 sel 1;
#N canvas 0 25 392 267 hat 0;
#X obj 132 18 inlet;
#X obj 148 107 *~;
#X obj 61 67 crackle~;
#X obj 22 67 pink~;
#X obj 132 42 bng 15 250 50 0 empty empty empty 17 7 0 10 -262144 -1
-1;
#X obj 148 212 outlet~;
#X obj 182 172 delonce~ 150 0.5;
#X obj 148 131 hip~ 10000;
#X obj 148 83 envgen~ 0.8 2 0.2 30 0 20;
#X connect 0 0 4 0;
#X connect 1 0 7 0;
#X connect 2 0 1 0;
#X connect 3 0 1 0;
#X connect 4 0 8 0;
#X connect 6 0 5 0;
#X connect 7 0 5 0;
#X connect 7 0 6 0;
#X connect 8 0 1 1;
#X restore 947 401 pd hat;
#X obj 947 425 out~;
#X obj 886 327 % 2;
#X obj 886 351 == 0;
#X obj 886 375 sel 1;
#N canvas 0 25 390 308 kick 0;
#X obj 77 120 kick~ 300 0.4 1 1 2;
#X obj 77 94 inlet;
#X obj 77 168 distortion~ 0.8;
#X obj 77 192 outlet~;
#X obj 77 144 *~ 0.2;
#X connect 0 0 4 0;
#X connect 1 0 0 0;
#X connect 2 0 3 0;
#X connect 4 0 2 0;
#X restore 886 400 pd kick;
#X obj 886 424 out~;
#X obj 1543 392 s pitchblah;
#X obj 670 447 r pitchblah;
#X obj 34 453 square~;
#X obj 1249 750 r velocity;
#X obj 1655 201 quantizedmode mixolydian 60;
#X obj 1177 699 r pitchblah;
#X obj 968 972 distortion~ 1;
#X obj 968 996 hip~ 80;
#X obj 672 746 r velocity;
#X obj 672 770 scaled 0 1 50 200;
#X obj 634 967 hip~ 200;
#X obj 634 990 pingpong~ 100 0.1;
#X obj 1053 225 ffk1;
#X obj 1053 243 ffk2;
#X obj 1067 262 ffs;
#X connect 0 0 9 0;
#X connect 1 0 5 0;
#X connect 2 0 3 0;
#X connect 3 0 4 0;
#X connect 4 0 0 1;
#X connect 5 0 9 0;
#X connect 6 0 7 0;
#X connect 7 0 8 0;
#X connect 8 0 5 1;
#X connect 9 0 10 0;
#X connect 10 0 139 0;
#X connect 10 1 16 0;
#X connect 10 1 135 0;
#X connect 12 0 118 0;
#X connect 12 0 129 0;
#X connect 13 0 14 0;
#X connect 14 0 106 0;
#X connect 16 0 11 0;
#X connect 16 0 11 1;
#X connect 17 0 19 0;
#X connect 17 0 19 1;
#X connect 18 0 22 0;
#X connect 18 0 119 0;
#X connect 18 0 124 0;
#X connect 19 0 16 1;
#X connect 20 0 17 3;
#X connect 21 0 73 0;
#X connect 22 0 15 0;
#X connect 23 0 24 1;
#X connect 24 0 47 0;
#X connect 25 0 24 0;
#X connect 27 0 17 0;
#X connect 28 0 23 0;
#X connect 29 0 30 0;
#X connect 30 0 31 0;
#X connect 31 0 46 0;
#X connect 32 0 33 0;
#X connect 33 0 131 0;
#X connect 34 0 33 1;
#X connect 35 0 44 0;
#X connect 36 0 32 1;
#X connect 37 0 14 1;
#X connect 38 0 10 1;
#X connect 39 0 38 1;
#X connect 40 0 45 0;
#X connect 41 0 31 1;
#X connect 42 0 41 0;
#X connect 43 0 36 0;
#X connect 44 0 43 0;
#X connect 45 0 42 0;
#X connect 46 0 32 0;
#X connect 47 0 38 0;
#X connect 48 0 46 1;
#X connect 49 0 9 0;
#X connect 50 0 51 0;
#X connect 51 0 52 0;
#X connect 52 0 49 1;
#X connect 53 0 54 0;
#X connect 54 0 55 0;
#X connect 55 0 67 0;
#X connect 56 0 57 0;
#X connect 57 0 88 0;
#X connect 58 0 57 1;
#X connect 59 0 65 0;
#X connect 60 0 56 1;
#X connect 61 0 66 0;
#X connect 62 0 55 1;
#X connect 63 0 62 0;
#X connect 64 0 60 0;
#X connect 65 0 64 0;
#X connect 66 0 63 0;
#X connect 67 0 56 0;
#X connect 68 0 67 1;
#X connect 69 0 70 0;
#X connect 70 0 47 1;
#X connect 71 0 72 0;
#X connect 72 0 89 0;
#X connect 73 0 20 0;
#X connect 74 0 75 0;
#X connect 75 0 90 0;
#X connect 76 0 77 0;
#X connect 77 0 78 0;
#X connect 78 0 25 0;
#X connect 79 0 80 0;
#X connect 80 0 81 0;
#X connect 81 0 10 2;
#X connect 82 0 84 0;
#X connect 83 0 30 3;
#X connect 84 0 83 0;
#X connect 85 0 87 0;
#X connect 86 0 54 3;
#X connect 87 0 86 0;
#X connect 88 0 49 0;
#X connect 89 0 39 0;
#X connect 90 0 23 3;
#X connect 106 0 26 0;
#X connect 106 1 18 0;
#X connect 106 2 107 0;
#X connect 107 0 12 0;
#X connect 109 0 20 1;
#X connect 110 0 76 0;
#X connect 110 1 79 0;
#X connect 111 0 112 0;
#X connect 111 1 113 0;
#X connect 112 0 114 0;
#X connect 113 0 110 0;
#X connect 114 0 113 0;
#X connect 114 1 113 1;
#X connect 115 0 133 0;
#X connect 116 0 117 0;
#X connect 118 0 115 0;
#X connect 119 0 120 0;
#X connect 120 0 121 0;
#X connect 121 0 122 0;
#X connect 122 0 123 0;
#X connect 122 0 123 1;
#X connect 124 0 125 0;
#X connect 125 0 126 0;
#X connect 126 0 127 0;
#X connect 127 0 128 0;
#X connect 127 0 128 1;
#X connect 130 0 6 0;
#X connect 130 0 109 0;
#X connect 131 0 0 0;
#X connect 132 0 79 0;
#X connect 133 0 116 0;
#X connect 134 0 74 0;
#X connect 135 0 136 0;
#X connect 136 0 16 0;
#X connect 137 0 135 1;
#X connect 137 0 138 0;
#X connect 138 0 136 1;
#X connect 139 0 140 0;
#X connect 140 0 11 0;
#X connect 140 1 11 1;
#X connect 141 0 12 1;
#X connect 141 1 12 2;
#X connect 141 2 12 3;
#X connect 141 3 12 4;
#X connect 142 0 12 5;
#X connect 142 1 12 6;
#X connect 142 2 12 7;
#X connect 142 3 12 8;
#X connect 143 0 22 1;
#X connect 143 1 22 2;
#X connect 143 2 22 3;
#X connect 143 3 22 4;
#X connect 143 4 22 5;
#X connect 143 5 22 6;
#X connect 143 6 22 7;
#X connect 143 7 22 8;
