#N canvas 0 38 1512 884 12;
#X obj 34 849 *~;
#X obj 599 481 noise~;
#X obj 52 776 msphsl 0 1;
#X msg 52 800 \$1 20;
#X obj 52 824 line~;
#X obj 599 579 *~;
#X obj 617 507 msphsl 0 1;
#X msg 617 531 \$1 20;
#X obj 617 555 line~;
#X obj 301 903 *~ 1;
#X obj 789 944 vcf~, f 26;
#X obj 1130 261 16step, f 36;
#X obj 745 66 tgl 15 0 empty empty empty 17 7 0 10 #fcfcfc #000000
#000000 0 1;
#X obj 1126 329 s velocity;
#X obj 1561 892 *~;
#X obj 768 288 - 1;
#X obj 1579 866 *~;
#X obj 1644 817 *;
#X obj 1644 740 r velocity;
#X obj 1126 307 16step, f 36;
#X obj 895 612 ahdsr~ 5 0 0 0 0;
#X obj 877 637 *~;
#X obj 877 528 sig~;
#X obj 745 346 s tick;
#X obj 1579 818 r tick;
#X obj 895 590 r tick;
#X obj 34 89 r tick;
#X obj 34 113 ahdsr 5 0 0 0 0;
#X obj 34 272 *;
#X obj 34 403 +;
#X obj 34 428 +;
#X obj 150 409 r pitch;
#X obj 158 312 hsl 40 20 -1 1 0 0 empty empty empty -2 -8 0 10 #fcfcfc
#000000 #000000 0 1;
#X floatatom 155 385 5 0 0 0 - - - 0;
#X floatatom 796 62 5 0 0 0 - - - 0;
#X obj 877 761 +~;
#X obj 979 742 sig~;
#X obj 55 177 hsl 40 20 -1 1 0 0 empty empty empty -2 -8 0 10 #fcfcfc
#000000 #000000 0 1;
#X floatatom 52 250 5 0 0 0 - - - 0;
#X obj 52 226 * 500;
#X obj 155 337 easeinoutcubic;
#X obj 52 202 easeinoutcubic;
#X obj 34 380 *;
#X obj 877 738 *~;
#X obj 52 346 r velocity;
#X obj 300 844 *~;
#X obj 318 771 msphsl 0 1;
#X msg 318 795 \$1 20;
#X obj 318 819 line~;
#X obj 318 87 r tick;
#X obj 318 111 ahdsr 5 0 0 0 0;
#X obj 318 270 *;
#X obj 318 401 +;
#X obj 318 426 +;
#X obj 434 407 r pitch;
#X obj 442 310 hsl 40 20 -1 1 0 0 empty empty empty -2 -8 0 10 #fcfcfc
#000000 #000000 0 1;
#X floatatom 439 383 5 0 0 0 - - - 0;
#X obj 339 175 hsl 40 20 -1 1 0 0 empty empty empty -2 -8 0 10 #fcfcfc
#000000 #000000 0 1;
#X floatatom 336 248 5 0 0 0 - - - 0;
#X obj 336 224 * 500;
#X obj 439 335 easeinoutcubic;
#X obj 336 200 easeinoutcubic;
#X obj 318 378 *;
#X obj 336 344 r velocity;
#X obj 895 685 r velocity;
#X obj 895 709 sig~;
#X obj 844 218 vsl 15 40 0 1 0 0 empty empty empty 0 -9 0 10 #fcfcfc
#000000 #000000 0 1;
#X obj 859 218 vsl 15 40 0 1 0 0 empty empty empty 0 -9 0 10 #fcfcfc
#000000 #000000 0 1;
#X obj 874 218 vsl 15 40 0 1 0 0 empty empty empty 0 -9 0 10 #fcfcfc
#000000 #000000 0 1;
#X obj 889 218 vsl 15 40 0 1 0 0 empty empty empty 0 -9 0 10 #fcfcfc
#000000 #000000 0 1;
#X obj 904 218 vsl 15 40 0 1 0 0 empty empty empty 0 -9 0 10 #fcfcfc
#000000 #000000 0 1;
#X obj 919 218 vsl 15 40 0 1 0 0 empty empty empty 0 -9 0 10 #fcfcfc
#000000 #000000 0 1;
#X obj 934 218 vsl 15 40 0 1 0 0 empty empty empty 0 -9 0 10 #fcfcfc
#000000 #000000 0 1;
#X obj 949 218 vsl 15 40 0 1 0 0 empty empty empty 0 -9 0 10 #fcfcfc
#000000 #000000 0 1;
#X obj 844 264 vsl 15 40 0 1 0 0 empty empty empty 0 -9 0 10 #fcfcfc
#000000 #000000 0 1;
#X obj 859 264 vsl 15 40 0 1 0 0 empty empty empty 0 -9 0 10 #fcfcfc
#000000 #000000 0 1;
#X obj 874 264 vsl 15 40 0 1 0 0 empty empty empty 0 -9 0 10 #fcfcfc
#000000 #000000 0 1;
#X obj 889 264 vsl 15 40 0 1 0 0 empty empty empty 0 -9 0 10 #fcfcfc
#000000 #000000 0 1;
#X obj 904 264 vsl 15 40 0 1 0 0 empty empty empty 0 -9 0 10 #fcfcfc
#000000 #000000 0 1;
#X obj 919 264 vsl 15 40 0 1 0 0 empty empty empty 0 -9 0 10 #fcfcfc
#000000 #000000 0 1;
#X obj 934 264 vsl 15 40 0 1 0 0 empty empty empty 0 -9 0 10 #fcfcfc
#000000 #000000 0 1;
#X obj 949 264 vsl 15 40 0 1 0 0 empty empty empty 0 -9 0 10 #fcfcfc
#000000 #000000 0 1;
#X obj 982 671 hsl 50 20 0 1 0 0 empty empty empty -2 -8 0 10 #fcfcfc
#000000 #000000 0 1;
#X obj 979 696 easeincubic;
#X obj 963 540 hsl 50 20 0 1 0 0 empty empty empty -2 -8 0 10 #fcfcfc
#000000 #000000 0 1;
#X obj 880 456 hsl 50 20 0 1 0 0 empty empty empty -2 -8 0 10 #fcfcfc
#000000 #000000 0 1;
#X obj 877 481 easeincubic;
#X obj 877 505 * 10000;
#X obj 1048 876 hsl 50 20 0 1 0 0 empty empty empty -2 -8 0 10 #fcfcfc
#000000 #000000 0 1;
#X obj 979 720 scaled 0 1 50 10000;
#X obj 960 589 scaled 0 1 5 3000;
#X text 387 175 vco 2 eg amount;
#X text 101 176 vco 1 eg amount;
#X text 203 311 vco 1 frequency;
#X text 488 310 vco 2 frequency;
#X text 173 775 vco 1 level;
#X text 437 770 vco 2 level;
#X text 734 507 noise level;
#X text 1017 540 vcf decay;
#X text 936 453 vcf eg amount;
#X text 1037 670 cutoff;
#X text 1105 875 resonance;
#X text 969 222 pitch sequencer;
#X text 970 276 velocity sequencer;
#X obj 745 109 t b f f;
#X obj 791 242 - 1;
#X text 1783 793 vca decay;
#X obj 1662 792 msphsl 0.1 2;
#X obj 1422 362 s pitch;
#X text 231 8 vco decay;
#X obj 569 58 vradio 15 1 0 3 empty empty empty 0 -8 0 10 #fcfcfc #000000
#000000 0;
#X text 585 56 vco 1&2;
#X text 586 71 off;
#X text 585 84 vco 2;
#X obj 569 108 s seqpitchmod;
#N canvas 0 25 314 300 seqpitchmodtoggle 0;
#X obj 32 210 spigot, f 26;
#X obj 163 92 tgl 15 0 empty empty empty 17 7 0 10 #fcfcfc #000000
#000000 0 1;
#X obj 163 112 sel 0 1, f 15;
#X obj 163 136 t b b;
#X msg 195 160 0;
#X msg 163 160 0;
#X msg 214 136 1;
#X obj 163 20 r seqpitchmod;
#X msg 163 68 1;
#X msg 195 68 0;
#X obj 32 234 outlet;
#X obj 32 186 inlet;
#X obj 163 44 sel 0 1 2;
#X connect 0 0 10 0;
#X connect 1 0 2 0;
#X connect 2 0 3 0;
#X connect 2 1 6 0;
#X connect 3 0 5 0;
#X connect 3 1 4 0;
#X connect 4 0 0 1;
#X connect 5 0 10 0;
#X connect 6 0 0 1;
#X connect 7 0 12 0;
#X connect 8 0 1 0;
#X connect 9 0 1 0;
#X connect 11 0 0 0;
#X connect 12 0 8 0;
#X connect 12 1 9 0;
#X connect 12 2 9 0;
#X restore 150 432 pd seqpitchmodtoggle;
#N canvas 0 368 314 300 seqpitchmodtoggle 0;
#X obj 32 210 spigot, f 26;
#X obj 163 92 tgl 15 0 empty empty empty 17 7 0 10 #fcfcfc #000000
#000000 0 1;
#X obj 163 112 sel 0 1, f 15;
#X obj 163 136 t b b;
#X msg 195 160 0;
#X msg 163 160 0;
#X msg 214 136 1;
#X obj 163 20 r seqpitchmod;
#X msg 163 68 1;
#X msg 195 68 0;
#X obj 32 234 outlet;
#X obj 32 186 inlet;
#X obj 163 44 sel 0 1 2;
#X connect 0 0 10 0;
#X connect 1 0 2 0;
#X connect 2 0 3 0;
#X connect 2 1 6 0;
#X connect 3 0 5 0;
#X connect 3 1 4 0;
#X connect 4 0 0 1;
#X connect 5 0 10 0;
#X connect 6 0 0 1;
#X connect 7 0 12 0;
#X connect 8 0 1 0;
#X connect 9 0 1 0;
#X connect 11 0 0 0;
#X connect 12 0 8 0;
#X connect 12 1 9 0;
#X connect 12 2 8 0;
#X restore 434 429 pd seqpitchmodtoggle;
#X obj 318 450 sig~;
#X obj 300 644 +~;
#X text 130 574 fm amount;
#X floatatom 88 576 5 0 1000 0 - - - 0;
#N canvas 0 25 309 321 fm 0;
#X obj 69 220 *~;
#X obj 87 196 sig~;
#X msg 87 146 \$1 20;
#X obj 87 170 line;
#X obj 25 52 inlet~;
#X obj 87 52 inlet;
#X floatatom 87 76 5 0 0 0 - - - 0;
#X floatatom 87 123 5 0 0 0 - - - 0;
#X obj 69 244 outlet~;
#X obj 87 99 clip 0 1000;
#X connect 0 0 8 0;
#X connect 1 0 0 1;
#X connect 2 0 3 0;
#X connect 3 0 1 0;
#X connect 4 0 0 0;
#X connect 5 0 6 0;
#X connect 6 0 9 0;
#X connect 7 0 2 0;
#X connect 9 0 7 0;
#X restore 56 600 pd fm;
#X obj 185 8 hsl 40 20 0 1 0 0 empty empty empty -2 -8 0 10 #fcfcfc
#000000 #000000 0 1;
#X obj 182 34 easeincubic;
#X floatatom 182 82 5 0 0 0 - - - 0;
#X obj 613 737 *~, f 7;
#X text 708 637 noise / vcf mod;
#X obj 859 785 +~;
#X obj 662 638 hsl 40 20 0 1 0 0 empty empty empty -2 -8 0 10 #fcfcfc
#000000 #000000 0 1;
#X text 1294 424 patchbay;
#X obj 1297 443 tgl 15 0 patch_pitch_to_vcf empty patch_pitch_to_vcf
17 7 0 10 #fcfcfc #000000 #000000 0 1;
#X obj 859 809 +~, f 44;
#X obj 1297 458 tgl 15 0 patch_pitch_to_noisemod empty patch_pitch_to_noisemod
17 7 0 10 #fcfcfc #000000 #000000 0 1;
#X obj 622 784 +~;
#N canvas 0 25 179 161 patch_pitch_to_vcf~ 0;
#X obj 12 8 r patch_pitch_to_vcf;
#X obj 12 32 sel 0 1, f 11;
#X msg 12 56 0;
#X msg 49 56 1;
#X obj 12 80 sig~;
#X obj 12 104 *~, f 15;
#X obj 114 51 r pitch;
#X obj 114 75 sig~;
#X obj 12 128 outlet~;
#X connect 0 0 1 0;
#X connect 1 0 2 0;
#X connect 1 1 3 0;
#X connect 2 0 4 0;
#X connect 3 0 4 0;
#X connect 4 0 5 0;
#X connect 5 0 8 0;
#X connect 6 0 7 0;
#X connect 7 0 5 1;
#X restore 1164 784 pd patch_pitch_to_vcf~;
#N canvas 0 25 213 171 patch_pitch_to_noisemod~ 0;
#X obj 18 40 sel 0 1, f 11;
#X msg 18 64 0;
#X msg 55 64 1;
#X obj 18 88 sig~;
#X obj 18 112 *~, f 15;
#X obj 120 59 r pitch;
#X obj 120 83 sig~;
#X obj 18 16 r patch_pitch_to_noisemod;
#X obj 18 136 outlet~;
#X connect 0 0 1 0;
#X connect 0 1 2 0;
#X connect 1 0 3 0;
#X connect 2 0 3 0;
#X connect 3 0 4 0;
#X connect 4 0 8 0;
#X connect 5 0 6 0;
#X connect 6 0 4 1;
#X connect 7 0 0 0;
#X restore 640 760 pd patch_pitch_to_noisemod~;
#N canvas 0 25 450 300 noise_vc_mod~ 0;
#X msg 45 137 \$1 20;
#X obj 45 161 line~;
#X obj 45 66 easeincubic;
#X floatatom 45 114 5 0 0 0 - - - 0;
#X obj 45 17 inlet;
#X obj 45 41 clip 0 1;
#X obj 45 185 outlet~;
#X obj 45 90 * 3000;
#X connect 0 0 1 0;
#X connect 1 0 6 0;
#X connect 2 0 7 0;
#X connect 3 0 0 0;
#X connect 4 0 5 0;
#X connect 5 0 2 0;
#X connect 7 0 3 0;
#X restore 659 666 pd noise_vc_mod~;
#X obj 1743 14 ff;
#X obj 844 35 r ffs1;
#X obj 859 54 r ffs2;
#X obj 874 73 r ffs3;
#X obj 889 92 r ffs4;
#X obj 904 35 r ffs5;
#X obj 919 54 r ffs6;
#X obj 934 73 r ffs7;
#X obj 949 92 r ffs8;
#X obj 844 137 r ffk1;
#X obj 859 156 r ffk2;
#X obj 874 175 r ffk3;
#X obj 889 194 r ffk4;
#X obj 904 137 r ffk5;
#X obj 919 156 r ffk6;
#X obj 934 175 r ffk7;
#X obj 949 194 r ffk8;
#X obj 1045 852 r ffx;
#X obj 1646 911 hip~ 500;
#X obj 480 15 loadbang;
#X msg 480 39 1;
#X obj 745 85 metronome 140 8;
#X floatatom 1717 858 5 0 1 0 - - - 0;
#X obj 34 476 oscillators~;
#X obj 300 668 oscillators~;
#X obj 34 452 sig~;
#X text 489 617 sync amount;
#X obj 446 616 hsl 40 20 0 1 0 0 empty empty empty -2 -8 0 10 #fcfcfc
#000000 #000000 0 1;
#X obj 155 361 * 500;
#X obj 439 359 * 500;
#X obj 960 565 easeinquint;
#X obj 1644 764 scaled 0 1 0 1000;
#X obj 1579 842 ahdsr~ 0 0 0 0 0;
#X obj 1422 281 scaled 0 1 30 2000;
#X obj 182 58 * 500;
#X obj 1566 934 *~ 1;
#X obj 1566 958 out~;
#X obj 974 978 vcf~;
#X obj 34 137 pow 2;
#X obj 318 135 pow 2;
#X obj 1646 887 echo~ 96 0.7;
#X obj 621 228 kick~;
#X obj 621 206 bng 15 250 50 0 empty empty empty 17 7 0 10 #fcfcfc
#000000 #000000;
#X obj 621 182 onbeats 1 5;
#X obj 621 313 distortion~;
#X obj 527 186 onbeats 5 8;
#X obj 527 210 bng 15 250 50 0 empty empty empty 17 7 0 10 #fcfcfc
#000000 #000000;
#X obj 527 234 maybe 0.3;
#X obj 527 258 snare~;
#X obj 621 337 distortion~;
#X obj 621 391 *~ 1;
#X obj 621 361 *~ 3;
#X obj 478 105 bng 15 250 50 0 empty empty empty 17 7 0 10 #fcfcfc
#000000 #000000;
#X obj 478 125 hh~;
#X obj 481 75 spigot;
#X obj 478 149 *~ 0.8;
#X obj 531 60 tgl 15 0 empty empty empty 17 7 0 10 #fcfcfc #000000
#000000 0 1;
#X obj 1422 257 easeincubic;
#X obj 1045 901 scaled 0 1 0.1 4;
#X obj 527 282 echo~ 120 0.5;
#X connect 0 0 9 0;
#X connect 1 0 5 0;
#X connect 1 0 125 0;
#X connect 2 0 3 0;
#X connect 3 0 4 0;
#X connect 4 0 0 1;
#X connect 5 0 9 0;
#X connect 6 0 7 0;
#X connect 7 0 8 0;
#X connect 8 0 5 1;
#X connect 9 0 10 0;
#X connect 10 1 174 0;
#X connect 10 1 14 0;
#X connect 11 0 194 0;
#X connect 12 0 158 0;
#X connect 14 0 172 0;
#X connect 14 0 177 0;
#X connect 15 0 19 0;
#X connect 16 0 14 1;
#X connect 17 0 169 3;
#X connect 18 0 168 0;
#X connect 19 0 13 0;
#X connect 20 0 21 1;
#X connect 21 0 43 0;
#X connect 22 0 21 0;
#X connect 24 0 169 0;
#X connect 25 0 20 0;
#X connect 26 0 27 0;
#X connect 27 0 175 0;
#X connect 28 0 42 0;
#X connect 29 0 30 0;
#X connect 30 0 162 0;
#X connect 31 0 115 0;
#X connect 32 0 40 0;
#X connect 33 0 29 1;
#X connect 34 0 158 1;
#X connect 35 0 127 1;
#X connect 36 0 35 1;
#X connect 37 0 41 0;
#X connect 38 0 28 1;
#X connect 39 0 38 0;
#X connect 40 0 165 0;
#X connect 41 0 39 0;
#X connect 42 0 29 0;
#X connect 43 0 35 0;
#X connect 44 0 42 1;
#X connect 45 0 9 0;
#X connect 46 0 47 0;
#X connect 47 0 48 0;
#X connect 48 0 45 1;
#X connect 49 0 50 0;
#X connect 50 0 176 0;
#X connect 51 0 62 0;
#X connect 52 0 53 0;
#X connect 53 0 117 0;
#X connect 54 0 116 0;
#X connect 55 0 60 0;
#X connect 56 0 52 1;
#X connect 57 0 61 0;
#X connect 58 0 51 1;
#X connect 59 0 58 0;
#X connect 60 0 166 0;
#X connect 61 0 59 0;
#X connect 62 0 52 0;
#X connect 63 0 62 1;
#X connect 64 0 65 0;
#X connect 65 0 43 1;
#X connect 66 0 11 1;
#X connect 67 0 11 2;
#X connect 68 0 11 3;
#X connect 69 0 11 4;
#X connect 70 0 11 5;
#X connect 71 0 11 6;
#X connect 72 0 11 7;
#X connect 73 0 11 8;
#X connect 74 0 19 1;
#X connect 75 0 19 2;
#X connect 76 0 19 3;
#X connect 77 0 19 4;
#X connect 78 0 19 5;
#X connect 79 0 19 6;
#X connect 80 0 19 7;
#X connect 81 0 19 8;
#X connect 82 0 83 0;
#X connect 83 0 89 0;
#X connect 84 0 167 0;
#X connect 85 0 86 0;
#X connect 86 0 87 0;
#X connect 87 0 22 0;
#X connect 88 0 195 0;
#X connect 89 0 36 0;
#X connect 90 0 20 3;
#X connect 104 0 23 0;
#X connect 104 1 15 0;
#X connect 104 2 105 0;
#X connect 104 2 180 0;
#X connect 104 2 182 0;
#X connect 104 2 191 0;
#X connect 105 0 11 0;
#X connect 107 0 17 1;
#X connect 110 0 114 0;
#X connect 115 0 30 1;
#X connect 116 0 53 1;
#X connect 117 0 118 1;
#X connect 118 0 161 0;
#X connect 120 0 121 1;
#X connect 121 0 118 0;
#X connect 122 0 123 0;
#X connect 123 0 171 0;
#X connect 124 0 27 3;
#X connect 124 0 50 3;
#X connect 125 0 133 0;
#X connect 127 0 131 0;
#X connect 128 0 136 0;
#X connect 131 0 10 1;
#X connect 131 0 174 1;
#X connect 133 0 127 0;
#X connect 134 0 131 1;
#X connect 135 0 133 1;
#X connect 136 0 125 1;
#X connect 138 0 74 0;
#X connect 139 0 75 0;
#X connect 140 0 76 0;
#X connect 141 0 77 0;
#X connect 142 0 78 0;
#X connect 143 0 79 0;
#X connect 144 0 80 0;
#X connect 145 0 81 0;
#X connect 146 0 66 0;
#X connect 147 0 67 0;
#X connect 148 0 68 0;
#X connect 149 0 69 0;
#X connect 150 0 70 0;
#X connect 151 0 71 0;
#X connect 152 0 72 0;
#X connect 153 0 73 0;
#X connect 154 0 88 0;
#X connect 155 0 172 0;
#X connect 156 0 157 0;
#X connect 157 0 110 0;
#X connect 158 0 104 0;
#X connect 159 0 177 2;
#X connect 160 0 0 0;
#X connect 160 0 121 0;
#X connect 161 0 45 0;
#X connect 162 0 160 0;
#X connect 162 0 161 1;
#X connect 164 0 161 2;
#X connect 165 0 33 0;
#X connect 166 0 56 0;
#X connect 167 0 90 0;
#X connect 168 0 17 0;
#X connect 169 0 16 0;
#X connect 169 0 16 1;
#X connect 170 0 108 0;
#X connect 171 0 124 0;
#X connect 172 0 173 0;
#X connect 172 0 173 1;
#X connect 174 0 14 0;
#X connect 175 0 28 0;
#X connect 176 0 51 0;
#X connect 177 0 155 0;
#X connect 178 0 181 0;
#X connect 179 0 178 0;
#X connect 180 0 179 0;
#X connect 181 0 186 0;
#X connect 182 0 183 0;
#X connect 183 0 184 0;
#X connect 184 0 185 0;
#X connect 185 0 181 0;
#X connect 185 0 196 0;
#X connect 186 0 188 0;
#X connect 187 0 172 0;
#X connect 188 0 187 0;
#X connect 189 0 190 0;
#X connect 190 0 192 0;
#X connect 191 0 189 0;
#X connect 192 0 181 0;
#X connect 193 0 191 1;
#X connect 194 0 170 0;
#X connect 195 0 10 2;
#X connect 195 0 174 2;
#X connect 196 0 181 0;
