#N canvas 591 134 1238 563 12;
#X obj 8 7 ff;
#N canvas 613 349 416 330 voice 0;
#X obj 45 191 adsr~ 5 200 0.4 200;
#X obj 30 265 *~, f 22;
#X obj 262 228 osc~;
#X obj 30 289 outlet~;
#X obj 30 42 inlet;
#X obj 180 22 inlet;
#X obj 318 82 noiseosc~;
#X obj 230 134 +;
#X obj 180 134 line;
#X obj 180 46 t f f f;
#X obj 131 46 f;
#X obj 30 66 t f f;
#X obj 63 89 sel 1;
#X obj 230 111 randrange -20 21;
#X msg 230 158 \$1 0;
#X obj 69 117 t b b b;
#X obj 155 95 pack f f;
#X obj 115 145 random 200;
#X connect 0 0 1 0;
#X connect 1 0 3 0;
#X connect 2 0 1 1;
#X connect 4 0 11 0;
#X connect 5 0 9 0;
#X connect 6 0 1 1;
#X connect 7 0 14 0;
#X connect 8 0 2 0;
#X connect 9 0 7 1;
#X connect 9 1 2 0;
#X connect 9 1 6 0;
#X connect 9 2 10 1;
#X connect 10 0 16 0;
#X connect 11 0 0 0;
#X connect 11 1 12 0;
#X connect 12 0 15 0;
#X connect 13 0 7 0;
#X connect 14 0 8 0;
#X connect 15 0 10 0;
#X connect 15 1 13 0;
#X connect 15 2 17 0;
#X connect 16 0 8 0;
#X connect 17 0 16 1;
#X restore 172 127 pd voice;
#X f 9;
#X obj 172 103 r ffb1;
#X obj 232 31 r ffs1;
#X obj 232 55 scaled 0 1 48 73;
#X obj 232 79 quantizedmode aeolian 60;
#X obj 232 103 mtof;
#N canvas 0 25 471 336 voice 0;
#X obj 45 191 adsr~ 5 200 0.4 200;
#X obj 30 265 *~, f 22;
#X obj 262 228 osc~;
#X obj 30 289 outlet~;
#X obj 30 42 inlet;
#X obj 180 22 inlet;
#X obj 318 82 noiseosc~;
#X obj 230 134 +;
#X obj 180 134 line;
#X obj 180 46 t f f f;
#X obj 131 46 f;
#X obj 30 66 t f f;
#X obj 63 89 sel 1;
#X obj 230 111 randrange -20 21;
#X msg 230 158 \$1 0;
#X obj 69 117 t b b b;
#X obj 155 95 pack f f;
#X obj 115 145 random 200;
#X connect 0 0 1 0;
#X connect 1 0 3 0;
#X connect 2 0 1 1;
#X connect 4 0 11 0;
#X connect 5 0 9 0;
#X connect 6 0 1 1;
#X connect 7 0 14 0;
#X connect 8 0 2 0;
#X connect 9 0 7 1;
#X connect 9 1 2 0;
#X connect 9 1 6 0;
#X connect 9 2 10 1;
#X connect 10 0 16 0;
#X connect 11 0 0 0;
#X connect 11 1 12 0;
#X connect 12 0 15 0;
#X connect 13 0 7 0;
#X connect 14 0 8 0;
#X connect 15 0 10 0;
#X connect 15 1 13 0;
#X connect 15 2 17 0;
#X connect 16 0 8 0;
#X connect 17 0 16 1;
#X restore 378 133 pd voice;
#X f 9;
#X obj 438 61 scaled 0 1 48 73;
#X obj 438 85 quantizedmode aeolian 60;
#X obj 438 109 mtof;
#N canvas 0 25 467 334 voice 0;
#X obj 45 191 adsr~ 5 200 0.4 200;
#X obj 30 265 *~, f 22;
#X obj 262 228 osc~;
#X obj 30 289 outlet~;
#X obj 30 42 inlet;
#X obj 180 22 inlet;
#X obj 318 82 noiseosc~;
#X obj 230 134 +;
#X obj 180 134 line;
#X obj 180 46 t f f f;
#X obj 131 46 f;
#X obj 30 66 t f f;
#X obj 63 89 sel 1;
#X obj 230 111 randrange -20 21;
#X msg 230 158 \$1 0;
#X obj 69 117 t b b b;
#X obj 155 95 pack f f;
#X obj 115 145 random 200;
#X connect 0 0 1 0;
#X connect 1 0 3 0;
#X connect 2 0 1 1;
#X connect 4 0 11 0;
#X connect 5 0 9 0;
#X connect 6 0 1 1;
#X connect 7 0 14 0;
#X connect 8 0 2 0;
#X connect 9 0 7 1;
#X connect 9 1 2 0;
#X connect 9 1 6 0;
#X connect 9 2 10 1;
#X connect 10 0 16 0;
#X connect 11 0 0 0;
#X connect 11 1 12 0;
#X connect 12 0 15 0;
#X connect 13 0 7 0;
#X connect 14 0 8 0;
#X connect 15 0 10 0;
#X connect 15 1 13 0;
#X connect 15 2 17 0;
#X connect 16 0 8 0;
#X connect 17 0 16 1;
#X restore 589 140 pd voice;
#X f 9;
#X obj 649 68 scaled 0 1 48 73;
#X obj 649 92 quantizedmode aeolian 60;
#X obj 649 116 mtof;
#N canvas 0 25 442 321 voice 0;
#X obj 45 191 adsr~ 5 200 0.4 200;
#X obj 30 265 *~, f 22;
#X obj 262 228 osc~;
#X obj 30 289 outlet~;
#X obj 30 42 inlet;
#X obj 180 22 inlet;
#X obj 318 82 noiseosc~;
#X obj 230 134 +;
#X obj 180 134 line;
#X obj 180 46 t f f f;
#X obj 131 46 f;
#X obj 30 66 t f f;
#X obj 63 89 sel 1;
#X obj 230 111 randrange -20 21;
#X msg 230 158 \$1 0;
#X obj 69 117 t b b b;
#X obj 155 95 pack f f;
#X obj 115 145 random 200;
#X connect 0 0 1 0;
#X connect 1 0 3 0;
#X connect 2 0 1 1;
#X connect 4 0 11 0;
#X connect 5 0 9 0;
#X connect 6 0 1 1;
#X connect 7 0 14 0;
#X connect 8 0 2 0;
#X connect 9 0 7 1;
#X connect 9 1 2 0;
#X connect 9 1 6 0;
#X connect 9 2 10 1;
#X connect 10 0 16 0;
#X connect 11 0 0 0;
#X connect 11 1 12 0;
#X connect 12 0 15 0;
#X connect 13 0 7 0;
#X connect 14 0 8 0;
#X connect 15 0 10 0;
#X connect 15 1 13 0;
#X connect 15 2 17 0;
#X connect 16 0 8 0;
#X connect 17 0 16 1;
#X restore 795 146 pd voice;
#X f 9;
#X obj 855 74 scaled 0 1 48 73;
#X obj 855 98 quantizedmode aeolian 60;
#X obj 855 122 mtof;
#N canvas 0 25 448 346 voice 0;
#X obj 45 191 adsr~ 5 200 0.4 200;
#X obj 30 265 *~, f 22;
#X obj 262 228 osc~;
#X obj 30 289 outlet~;
#X obj 30 42 inlet;
#X obj 180 22 inlet;
#X obj 318 82 noiseosc~;
#X obj 230 134 +;
#X obj 180 134 line;
#X obj 180 46 t f f f;
#X obj 131 46 f;
#X obj 30 66 t f f;
#X obj 63 89 sel 1;
#X obj 230 111 randrange -20 21;
#X msg 230 158 \$1 0;
#X obj 69 117 t b b b;
#X obj 155 95 pack f f;
#X obj 115 145 random 200;
#X connect 0 0 1 0;
#X connect 1 0 3 0;
#X connect 2 0 1 1;
#X connect 4 0 11 0;
#X connect 5 0 9 0;
#X connect 6 0 1 1;
#X connect 7 0 14 0;
#X connect 8 0 2 0;
#X connect 9 0 7 1;
#X connect 9 1 2 0;
#X connect 9 1 6 0;
#X connect 9 2 10 1;
#X connect 10 0 16 0;
#X connect 11 0 0 0;
#X connect 11 1 12 0;
#X connect 12 0 15 0;
#X connect 13 0 7 0;
#X connect 14 0 8 0;
#X connect 15 0 10 0;
#X connect 15 1 13 0;
#X connect 15 2 17 0;
#X connect 16 0 8 0;
#X connect 17 0 16 1;
#X restore 150 284 pd voice;
#X f 9;
#X obj 210 212 scaled 0 1 48 73;
#X obj 210 236 quantizedmode aeolian 60;
#X obj 210 260 mtof;
#N canvas 0 25 471 346 voice 0;
#X obj 45 191 adsr~ 5 200 0.4 200;
#X obj 30 265 *~, f 22;
#X obj 262 228 osc~;
#X obj 30 289 outlet~;
#X obj 30 42 inlet;
#X obj 180 22 inlet;
#X obj 318 82 noiseosc~;
#X obj 230 134 +;
#X obj 180 134 line;
#X obj 180 46 t f f f;
#X obj 131 46 f;
#X obj 30 66 t f f;
#X obj 63 89 sel 1;
#X obj 230 111 randrange -20 21;
#X msg 230 158 \$1 0;
#X obj 69 117 t b b b;
#X obj 155 95 pack f f;
#X obj 115 145 random 200;
#X connect 0 0 1 0;
#X connect 1 0 3 0;
#X connect 2 0 1 1;
#X connect 4 0 11 0;
#X connect 5 0 9 0;
#X connect 6 0 1 1;
#X connect 7 0 14 0;
#X connect 8 0 2 0;
#X connect 9 0 7 1;
#X connect 9 1 2 0;
#X connect 9 1 6 0;
#X connect 9 2 10 1;
#X connect 10 0 16 0;
#X connect 11 0 0 0;
#X connect 11 1 12 0;
#X connect 12 0 15 0;
#X connect 13 0 7 0;
#X connect 14 0 8 0;
#X connect 15 0 10 0;
#X connect 15 1 13 0;
#X connect 15 2 17 0;
#X connect 16 0 8 0;
#X connect 17 0 16 1;
#X restore 356 290 pd voice;
#X f 9;
#X obj 416 218 scaled 0 1 48 73;
#X obj 416 242 quantizedmode aeolian 60;
#X obj 416 266 mtof;
#N canvas 0 25 450 366 voice 0;
#X obj 45 191 adsr~ 5 200 0.4 200;
#X obj 30 265 *~, f 22;
#X obj 262 228 osc~;
#X obj 30 289 outlet~;
#X obj 30 42 inlet;
#X obj 180 22 inlet;
#X obj 318 82 noiseosc~;
#X obj 230 134 +;
#X obj 180 134 line;
#X obj 180 46 t f f f;
#X obj 131 46 f;
#X obj 30 66 t f f;
#X obj 63 89 sel 1;
#X obj 230 111 randrange -20 21;
#X msg 230 158 \$1 0;
#X obj 69 117 t b b b;
#X obj 155 95 pack f f;
#X obj 115 145 random 200;
#X connect 0 0 1 0;
#X connect 1 0 3 0;
#X connect 2 0 1 1;
#X connect 4 0 11 0;
#X connect 5 0 9 0;
#X connect 6 0 1 1;
#X connect 7 0 14 0;
#X connect 8 0 2 0;
#X connect 9 0 7 1;
#X connect 9 1 2 0;
#X connect 9 1 6 0;
#X connect 9 2 10 1;
#X connect 10 0 16 0;
#X connect 11 0 0 0;
#X connect 11 1 12 0;
#X connect 12 0 15 0;
#X connect 13 0 7 0;
#X connect 14 0 8 0;
#X connect 15 0 10 0;
#X connect 15 1 13 0;
#X connect 15 2 17 0;
#X connect 16 0 8 0;
#X connect 17 0 16 1;
#X restore 567 297 pd voice;
#X f 9;
#X obj 627 225 scaled 0 1 48 73;
#X obj 627 249 quantizedmode aeolian 60;
#X obj 627 273 mtof;
#N canvas 0 25 436 337 voice 0;
#X obj 45 191 adsr~ 5 200 0.4 200;
#X obj 30 265 *~, f 22;
#X obj 262 228 osc~;
#X obj 30 289 outlet~;
#X obj 30 42 inlet;
#X obj 180 22 inlet;
#X obj 318 82 noiseosc~;
#X obj 230 134 +;
#X obj 180 134 line;
#X obj 180 46 t f f f;
#X obj 131 46 f;
#X obj 30 66 t f f;
#X obj 63 89 sel 1;
#X obj 230 111 randrange -20 21;
#X msg 230 158 \$1 0;
#X obj 69 117 t b b b;
#X obj 155 95 pack f f;
#X obj 115 145 random 200;
#X connect 0 0 1 0;
#X connect 1 0 3 0;
#X connect 2 0 1 1;
#X connect 4 0 11 0;
#X connect 5 0 9 0;
#X connect 6 0 1 1;
#X connect 7 0 14 0;
#X connect 8 0 2 0;
#X connect 9 0 7 1;
#X connect 9 1 2 0;
#X connect 9 1 6 0;
#X connect 9 2 10 1;
#X connect 10 0 16 0;
#X connect 11 0 0 0;
#X connect 11 1 12 0;
#X connect 12 0 15 0;
#X connect 13 0 7 0;
#X connect 14 0 8 0;
#X connect 15 0 10 0;
#X connect 15 1 13 0;
#X connect 15 2 17 0;
#X connect 16 0 8 0;
#X connect 17 0 16 1;
#X restore 773 303 pd voice;
#X f 9;
#X obj 833 231 scaled 0 1 48 73;
#X obj 833 255 quantizedmode aeolian 60;
#X obj 833 279 mtof;
#X obj 438 37 r ffs2;
#X obj 378 109 r ffb2;
#X obj 649 44 r ffs3;
#X obj 589 116 r ffb3;
#X obj 855 50 r ffs4;
#X obj 795 122 r ffb4;
#X obj 150 260 r ffb5;
#X obj 210 188 r ffs5;
#X obj 416 194 r ffs6;
#X obj 356 266 r ffb6;
#X obj 627 201 r ffs7;
#X obj 567 273 r ffb7;
#X obj 833 207 r ffs8;
#X obj 773 279 r ffb8;
#X obj 172 151 throw~ out;
#X obj 378 157 throw~ out;
#X obj 795 170 throw~ out;
#X obj 589 164 throw~ out;
#X obj 150 308 throw~ out;
#X obj 356 314 throw~ out;
#X obj 567 321 throw~ out;
#X obj 773 327 throw~ out;
#X obj 359 449 out~;
#X obj 359 388 catch~ out;
#X obj 359 412 clip~ -0.2 0.2;
#X obj 520 449 pan~;
#X obj 545 420 r ffx;
#X obj 520 473 out~;
#X obj 516 366 vibrato~ 1 0.2;
#X obj 520 395 echo~ 250 0.7;
#X connect 1 0 49 0;
#X connect 2 0 1 0;
#X connect 3 0 4 0;
#X connect 4 0 5 0;
#X connect 5 0 6 0;
#X connect 6 0 1 1;
#X connect 7 0 50 0;
#X connect 8 0 9 0;
#X connect 9 0 10 0;
#X connect 10 0 7 1;
#X connect 11 0 52 0;
#X connect 12 0 13 0;
#X connect 13 0 14 0;
#X connect 14 0 11 1;
#X connect 15 0 51 0;
#X connect 16 0 17 0;
#X connect 17 0 18 0;
#X connect 18 0 15 1;
#X connect 19 0 53 0;
#X connect 20 0 21 0;
#X connect 21 0 22 0;
#X connect 22 0 19 1;
#X connect 23 0 54 0;
#X connect 24 0 25 0;
#X connect 25 0 26 0;
#X connect 26 0 23 1;
#X connect 27 0 55 0;
#X connect 28 0 29 0;
#X connect 29 0 30 0;
#X connect 30 0 27 1;
#X connect 31 0 56 0;
#X connect 32 0 33 0;
#X connect 33 0 34 0;
#X connect 34 0 31 1;
#X connect 35 0 8 0;
#X connect 36 0 7 0;
#X connect 37 0 12 0;
#X connect 38 0 11 0;
#X connect 39 0 16 0;
#X connect 40 0 15 0;
#X connect 41 0 19 0;
#X connect 42 0 20 0;
#X connect 43 0 24 0;
#X connect 44 0 23 0;
#X connect 45 0 28 0;
#X connect 46 0 27 0;
#X connect 47 0 32 0;
#X connect 48 0 31 0;
#X connect 58 0 59 0;
#X connect 58 0 63 0;
#X connect 59 0 57 0;
#X connect 59 0 57 1;
#X connect 60 0 62 0;
#X connect 60 1 62 1;
#X connect 61 0 60 1;
#X connect 63 0 64 0;
#X connect 64 0 60 0;
