#N canvas 0 38 1512 884 12;
#X obj 376 207 mtturing, f 36;
#X obj 737 92 hsl 160 15 0 1 0 0 empty empty loop/random -2 -8 0 10
#fcfcfc #000000 #000000 0 1;
#X obj 376 187 bng 15 250 50 0 empty empty empty 17 7 0 10 #fcfcfc
#000000 #000000;
#X obj 1406 920 hsl 128 15 0 0.2 0 0 empty empty from_0_to_0.2 -2 -8
0 10 #fcfcfc #000000 #000000 0 1;
#X obj 1403 940 sig~;
#X obj 1294 965 *~, f 16;
#X obj 911 340 square~;
#X obj 968 340 osc~;
#X obj 859 340 saw~;
#X obj 987 453 loadbang;
#X floatatom 763 107 5 0 0 0 - - - 0;
#X obj 252 529 sig~;
#X obj 160 561 *~;
#X obj 376 278 mtof;
#X obj 252 505 + 150;
#X obj 835 520 bob~, f 17;
#X obj 987 501 sig~;
#X obj 859 316 * 2;
#X obj 160 433 ahdsr~ 5 0 20 0.1 1000;
#N canvas 0 25 158 173 randomize_decay 0;
#X obj 15 16 loadbang;
#X obj 15 40 bng 15 250 50 0 empty empty empty 17 7 0 10 #fcfcfc #000000
#000000;
#X obj 18 84 hsl 100 15 0 1 0 0 empty empty empty -2 -8 0 10 #fcfcfc
#000000 #000000 0 1;
#X obj 15 128 outlet;
#X obj 15 60 randwalk 500 2500;
#X obj 15 104 scaled 0 1 50 200;
#X connect 0 0 1 0;
#X connect 1 0 4 0;
#X connect 2 0 5 0;
#X connect 4 0 2 0;
#X connect 4 1 1 0;
#X connect 5 0 3 0;
#X restore 250 409 pd randomize_decay;
#X obj 566 843 ahdsr~ 5 0 20 0.1 1000;
#N canvas 0 25 158 173 randomize_decay 0;
#X obj 15 16 loadbang;
#X obj 15 40 bng 15 250 50 0 empty empty empty 17 7 0 10 #fcfcfc #000000
#000000;
#X obj 18 84 hsl 100 15 0 1 0 0 empty empty empty -2 -8 0 10 #fcfcfc
#000000 #000000 0 1;
#X obj 15 128 outlet;
#X obj 15 60 randwalk 500 2500;
#X obj 15 104 scaled 0 1 80 200;
#X connect 0 0 1 0;
#X connect 1 0 4 0;
#X connect 2 0 5 0;
#X connect 4 0 2 0;
#X connect 4 1 1 0;
#X connect 5 0 3 0;
#X restore 656 817 pd randomize_decay;
#X obj 380 868 *~, f 27;
#X msg 987 477 0.05;
#X obj 911 364 *~ 0.4;
#X obj 800 340 saw~;
#X obj 800 364 *~ 0.25;
#X obj 859 364 *~ 0.25;
#X obj 800 316 * 2.01;
#X obj 764 598 bob~, f 17;
#N canvas 0 25 172 271 randomize_env_amount 0;
#X obj 15 16 loadbang;
#X obj 15 40 bng 15 250 50 0 empty empty empty 17 7 0 10 #fcfcfc #000000
#000000;
#X obj 18 124 hsl 100 15 0 1 0 0 empty empty empty -2 -8 0 10 #fcfcfc
#000000 #000000 0 1;
#X obj 15 168 outlet;
#X obj 15 144 scaled 0 1 4000 20000;
#X obj 15 84 easeoutcubic;
#X obj 15 60 randwalk 2000 4000;
#X connect 0 0 1 0;
#X connect 1 0 6 0;
#X connect 2 0 4 0;
#X connect 4 0 3 0;
#X connect 5 0 2 0;
#X connect 6 0 5 0;
#X connect 6 1 1 0;
#X restore 289 478 pd randomize_env_amount;
#X obj 141 75 del;
#X obj 141 99 t b b;
#X obj 204 79 mtturing, f 36;
#X obj 204 59 bng 15 250 50 0 empty empty empty 17 7 0 10 #fcfcfc #000000
#000000;
#X obj 204 31 loadbang;
#X obj 804 550 distortion~ 0.4;
#X obj 376 254 quantizedmode phrygian 60;
#X obj 380 892 hip~ 50;
#N canvas 0 25 158 236 randomize_attack 0;
#X obj 15 16 loadbang;
#X obj 15 40 bng 15 250 50 0 empty empty empty 17 7 0 10 #fcfcfc #000000
#000000;
#X obj 18 134 hsl 100 15 0 1 0 0 empty empty empty -2 -8 0 10 #fcfcfc
#000000 #000000 0 1;
#X obj 15 178 outlet;
#X obj 15 60 randwalk 500 2500;
#X obj 15 154 scaled 0 1 5 50;
#X obj 18 84 hsl 100 15 0 1 0 0 empty empty empty -2 -8 0 10 #fcfcfc
#000000 #000000 0 1;
#X obj 15 104 easeincubic;
#X connect 0 0 1 0;
#X connect 1 0 4 0;
#X connect 2 0 5 0;
#X connect 4 0 6 0;
#X connect 4 1 1 0;
#X connect 5 0 3 0;
#X connect 6 0 7 0;
#X connect 7 0 2 0;
#X restore 189 390 pd randomize_attack;
#X obj 376 231 scaled 0 1 48 84;
#X obj 252 481 *;
#X obj 1549 878 loadbang;
#X msg 1548 901 0.2;
#X text 249 871 amp envelope;
#X text 14 80 rhythm generator;
#X text 246 214 pitch generator;
#X text 1237 932 out;
#X text 649 544 filters + distortion;
#X text 711 336 first voice;
#X text 888 112 turing machine controls;
#X text 41 474 filter envelope;
#X obj 534 72 hsl 160 15 0 1 0 0 empty empty loop/random -2 -8 0 10
#fcfcfc #000000 #000000 0 1;
#X floatatom 560 87 5 0 0 0 - - - 0;
#X obj 705 147 hsl 160 15 0 1 0 0 empty empty loop/random -2 -8 0 10
#fcfcfc #000000 #000000 0 1;
#X floatatom 731 162 5 0 0 0 - - - 0;
#X obj 1294 989 dac~;
#X obj 1201 28 mtturingpulses;
#X obj 1192 82 maybe 0.5;
#X obj 1427 261 distortion~ 0.5;
#X obj 1426 93 maybe 0.8;
#X text 1305 30 drums;
#X obj 1289 358 mtturingvolts;
#X obj 1318 305 vsl 10 40 0 1 0 0 empty empty empty 0 -9 0 10 #fcfcfc
#000000 #000000 0 1;
#X obj 1328 305 vsl 10 40 0 1 0 0 empty empty empty 0 -9 0 10 #fcfcfc
#000000 #000000 0 1;
#X obj 1338 305 vsl 10 40 0 1 0 0 empty empty empty 0 -9 0 10 #fcfcfc
#000000 #000000 0 1;
#X obj 1348 305 vsl 10 40 0 1 0 0 empty empty empty 0 -9 0 10 #fcfcfc
#000000 #000000 0 1;
#X obj 1358 305 vsl 10 40 0 1 0 0 empty empty empty 0 -9 0 10 #fcfcfc
#000000 #000000 0 1;
#N canvas 0 25 649 172 randomizeinitialvalues 0;
#X obj 25 90 random 100;
#X obj 25 114 scaled 0 100 0 1;
#X obj 25 138 outlet;
#X obj 145 90 random 100;
#X obj 145 114 scaled 0 100 0 1;
#X obj 145 138 outlet;
#X obj 265 90 random 100;
#X obj 265 114 scaled 0 100 0 1;
#X obj 265 138 outlet;
#X obj 385 90 random 100;
#X obj 385 114 scaled 0 100 0 1;
#X obj 385 138 outlet;
#X obj 505 90 random 100;
#X obj 505 114 scaled 0 100 0 1;
#X obj 505 138 outlet;
#X obj 301 63 bng 15 250 50 0 empty empty empty 17 7 0 10 #fcfcfc #000000
#000000;
#X obj 300 12 inlet;
#X obj 229 16 loadbang;
#X connect 0 0 1 0;
#X connect 1 0 2 0;
#X connect 3 0 4 0;
#X connect 4 0 5 0;
#X connect 6 0 7 0;
#X connect 7 0 8 0;
#X connect 9 0 10 0;
#X connect 10 0 11 0;
#X connect 12 0 13 0;
#X connect 13 0 14 0;
#X connect 15 0 0 0;
#X connect 15 0 3 0;
#X connect 15 0 12 0;
#X connect 15 0 9 0;
#X connect 15 0 6 0;
#X connect 16 0 15 0;
#X connect 17 0 15 0;
#X restore 1244 266 pd randomizeinitialvalues;
#X obj 1289 429 mtof;
#X obj 1289 405 quantizedmode phrygian 60;
#X obj 1289 382 scaled 0 1 48 84;
#X obj 1400 481 square~;
#X obj 1457 481 osc~;
#X obj 1348 481 saw~;
#X obj 1348 457 * 2;
#X obj 1400 505 *~ 0.4;
#X obj 1289 481 saw~;
#X obj 1289 505 *~ 0.25;
#X obj 1348 505 *~ 0.25;
#X obj 1289 457 * 2.01;
#X text 1183 409 second voice;
#X obj 1427 222 *~ 0.75;
#N canvas 0 25 450 300 initialize_turing_machines 0;
#X obj 147 36 loadbang;
#X obj 147 205 snapshot~;
#X obj 85 149 metro 5;
#X msg 54 126 1;
#X msg 99 126 0;
#X obj 320 87 t b b;
#X obj 147 269 outlet;
#X obj 147 60 envgen~ 0.5 0 0.5 6000 0.19 50;
#X msg 320 211 0.19;
#X connect 0 0 3 0;
#X connect 0 0 7 0;
#X connect 1 0 6 0;
#X connect 2 0 1 0;
#X connect 3 0 2 0;
#X connect 4 0 2 0;
#X connect 5 0 8 0;
#X connect 5 1 4 0;
#X connect 7 0 1 0;
#X connect 7 1 5 0;
#X connect 8 0 6 0;
#X restore 744 42 pd initialize_turing_machines;
#X obj 1244 244 bng 15 250 50 0 empty empty empty 17 7 0 10 #fcfcfc
#000000 #000000;
#X obj 1101 202 maybe 0.005;
#X obj 204 103 scaled 0 1 100 300;
#X obj 1200 121 hh~;
#X obj 1479 122 kick~ 100 10;
#X connect 0 0 40 0;
#X connect 0 0 41 0;
#X connect 0 1 57 0;
#X connect 0 1 62 0;
#X connect 1 0 10 0;
#X connect 1 0 52 0;
#X connect 1 0 54 0;
#X connect 2 0 18 0;
#X connect 2 0 20 0;
#X connect 2 0 0 0;
#X connect 3 0 4 0;
#X connect 4 0 5 1;
#X connect 5 0 56 0;
#X connect 5 0 56 1;
#X connect 6 0 24 0;
#X connect 7 0 15 0;
#X connect 8 0 27 0;
#X connect 9 0 23 0;
#X connect 11 0 12 1;
#X connect 12 0 29 1;
#X connect 12 0 15 1;
#X connect 13 0 6 0;
#X connect 13 0 7 0;
#X connect 13 0 17 0;
#X connect 13 0 28 0;
#X connect 14 0 11 0;
#X connect 15 0 36 0;
#X connect 16 0 29 2;
#X connect 16 0 15 2;
#X connect 17 0 8 0;
#X connect 18 0 12 0;
#X connect 19 0 18 3;
#X connect 20 0 22 1;
#X connect 21 0 20 3;
#X connect 22 0 38 0;
#X connect 23 0 16 0;
#X connect 24 0 15 0;
#X connect 25 0 26 0;
#X connect 26 0 15 0;
#X connect 27 0 15 0;
#X connect 28 0 25 0;
#X connect 29 0 22 0;
#X connect 30 0 41 1;
#X connect 31 0 32 0;
#X connect 32 0 2 0;
#X connect 32 1 34 0;
#X connect 33 0 86 0;
#X connect 34 0 33 0;
#X connect 35 0 34 0;
#X connect 36 0 29 0;
#X connect 37 0 13 0;
#X connect 38 0 5 0;
#X connect 39 0 18 1;
#X connect 40 0 37 0;
#X connect 41 0 14 0;
#X connect 42 0 43 0;
#X connect 43 0 3 0;
#X connect 52 0 53 0;
#X connect 52 0 33 2;
#X connect 54 0 55 0;
#X connect 54 0 0 2;
#X connect 57 0 58 0;
#X connect 57 0 85 0;
#X connect 57 1 60 0;
#X connect 58 0 87 0;
#X connect 59 0 5 0;
#X connect 60 0 88 0;
#X connect 62 0 71 0;
#X connect 63 0 62 1;
#X connect 64 0 62 2;
#X connect 65 0 62 3;
#X connect 66 0 62 4;
#X connect 67 0 62 5;
#X connect 68 0 63 0;
#X connect 68 1 64 0;
#X connect 68 2 65 0;
#X connect 68 3 66 0;
#X connect 68 4 67 0;
#X connect 69 0 80 0;
#X connect 69 0 75 0;
#X connect 69 0 73 0;
#X connect 69 0 72 0;
#X connect 70 0 69 0;
#X connect 71 0 70 0;
#X connect 72 0 76 0;
#X connect 73 0 29 0;
#X connect 74 0 79 0;
#X connect 75 0 74 0;
#X connect 76 0 29 0;
#X connect 77 0 78 0;
#X connect 78 0 29 0;
#X connect 79 0 29 0;
#X connect 80 0 77 0;
#X connect 82 0 59 0;
#X connect 83 0 1 0;
#X connect 84 0 68 0;
#X connect 85 0 84 0;
#X connect 86 0 31 0;
#X connect 87 0 59 0;
#X connect 88 0 82 0;
