#N canvas 147 38 961 785 12;
#X obj 80 350 osc~;
#X obj 82 321 +~;
#X obj 40 237 osc~;
#X floatatom 137 210 5 0 0 0 - - - 0;
#X obj 137 233 sig~;
#X floatatom 35 204 5 0 0 0 - - - 0;
#X obj 376 743 dac~, f 38;
#X obj 94 420 midsideencoder~;
#X obj 64 498 midsidedecoder~;
#X obj 40 261 *~;
#X floatatom 88 204 5 0 0 0 - - - 0;
#X obj 88 227 sig~;
#X obj 237 346 osc~;
#X obj 239 317 +~;
#X obj 197 233 osc~;
#X floatatom 294 206 5 0 0 0 - - - 0;
#X obj 294 229 sig~;
#X floatatom 192 200 5 0 0 0 - - - 0;
#X obj 197 257 *~;
#X floatatom 245 200 5 0 0 0 - - - 0;
#X obj 245 223 sig~;
#X obj 295 437 vd~ ok;
#X floatatom 467 456 5 0 0 0 - - - 0;
#X obj 352 510 line~;
#X obj 227 410 delwrite~ ok 2000;
#X obj 267 467 hip~ 500;
#X obj 267 507 *~ 0.95;
#X obj 195 531 *~;
#X obj 247 589 *~;
#N canvas 0 25 450 300 random2000 0;
#X obj 117 53 tgl 15 0 empty empty empty 17 7 0 10 #fcfcfc #000000
#000000 0 1;
#X obj 117 73 metro 2000;
#X obj 117 97 random 100;
#X obj 117 213 outlet;
#X obj 117 169 bng 15 250 50 0 empty empty empty 17 7 0 10 #fcfcfc
#000000 #000000;
#X obj 117 189 random 2000;
#X obj 117 121 > 80;
#X obj 117 145 sel 1;
#X obj 113 15 loadbang;
#X connect 0 0 1 0;
#X connect 1 0 2 0;
#X connect 2 0 6 0;
#X connect 4 0 5 0;
#X connect 5 0 3 0;
#X connect 6 0 7 0;
#X connect 7 0 4 0;
#X connect 8 0 0 0;
#X restore 467 431 pd random2000;
#N canvas 0 25 450 300 random1 0;
#X obj 117 53 tgl 15 0 empty empty empty 17 7 0 10 #fcfcfc #000000
#000000 0 1;
#X obj 117 73 metro 2000;
#X obj 117 97 random 100;
#X obj 117 236 outlet;
#X obj 117 169 bng 15 250 50 0 empty empty empty 17 7 0 10 #fcfcfc
#000000 #000000;
#X obj 117 188 random 1000;
#X obj 117 212 / 1000;
#X obj 117 145 sel 1;
#X obj 117 121 > 30;
#X obj 113 15 loadbang;
#X connect 0 0 1 0;
#X connect 1 0 2 0;
#X connect 2 0 8 0;
#X connect 4 0 5 0;
#X connect 5 0 6 0;
#X connect 6 0 3 0;
#X connect 7 0 4 0;
#X connect 8 0 7 0;
#X connect 9 0 0 0;
#X restore 311 549 pd random1;
#X floatatom 311 573 5 0 0 0 - - - 0;
#X obj 311 620 line~;
#X msg 311 596 \$1 1000;
#N canvas 0 25 450 300 randomchoice 0;
#X obj 117 53 tgl 15 0 empty empty empty 17 7 0 10 #fcfcfc #000000
#000000 0 1;
#X obj 117 73 metro 2000;
#X obj 117 97 random 100;
#X obj 117 169 bng 15 250 50 0 empty empty empty 17 7 0 10 #fcfcfc
#000000 #000000;
#X obj 117 121 > 80;
#X obj 117 145 sel 1;
#X obj 117 28 loadbang;
#X msg 197 238 220;
#X msg 247 239 330;
#X msg 117 237 55;
#X msg 157 237 110;
#X msg 288 241 440;
#X msg 338 242 550;
#X obj 117 213 sel 0 1 2 3 4 5 6, f 44;
#X msg 379 242 660;
#X obj 117 188 random 7;
#X obj 117 261 outlet;
#X connect 0 0 1 0;
#X connect 1 0 2 0;
#X connect 2 0 4 0;
#X connect 3 0 15 0;
#X connect 4 0 5 0;
#X connect 5 0 3 0;
#X connect 6 0 0 0;
#X connect 7 0 16 0;
#X connect 8 0 16 0;
#X connect 9 0 16 0;
#X connect 10 0 16 0;
#X connect 11 0 16 0;
#X connect 12 0 16 0;
#X connect 13 0 9 0;
#X connect 13 1 10 0;
#X connect 13 2 7 0;
#X connect 13 3 8 0;
#X connect 13 4 11 0;
#X connect 13 5 12 0;
#X connect 13 6 14 0;
#X connect 14 0 16 0;
#X connect 15 0 13 0;
#X restore 15 71 pd randomchoice;
#X msg 15 95 \$1 300;
#X obj 15 119 line;
#N canvas 0 23 450 300 randomchoice 0;
#X obj 117 53 tgl 15 0 empty empty empty 17 7 0 10 #fcfcfc #000000
#000000 0 1;
#X obj 117 97 random 100;
#X obj 117 169 bng 15 250 50 0 empty empty empty 17 7 0 10 #fcfcfc
#000000 #000000;
#X obj 117 121 > 80;
#X obj 117 145 sel 1;
#X obj 117 28 loadbang;
#X msg 197 238 220;
#X msg 247 239 330;
#X msg 117 237 55;
#X msg 157 237 110;
#X msg 288 241 440;
#X msg 338 242 550;
#X obj 117 213 sel 0 1 2 3 4 5 6, f 44;
#X msg 379 242 660;
#X obj 117 188 random 7;
#X obj 117 261 outlet;
#X obj 116 73 metro 1500;
#X connect 0 0 16 0;
#X connect 1 0 3 0;
#X connect 2 0 14 0;
#X connect 3 0 4 0;
#X connect 4 0 2 0;
#X connect 5 0 0 0;
#X connect 6 0 15 0;
#X connect 7 0 15 0;
#X connect 8 0 15 0;
#X connect 9 0 15 0;
#X connect 10 0 15 0;
#X connect 11 0 15 0;
#X connect 12 0 8 0;
#X connect 12 1 9 0;
#X connect 12 2 6 0;
#X connect 12 3 7 0;
#X connect 12 4 10 0;
#X connect 12 5 11 0;
#X connect 12 6 13 0;
#X connect 13 0 15 0;
#X connect 14 0 12 0;
#X connect 16 0 1 0;
#X restore 275 19 pd randomchoice;
#X msg 275 43 \$1 300;
#X obj 275 67 line;
#N canvas 0 23 450 300 randomchoice 0;
#X obj 117 53 tgl 15 0 empty empty empty 17 7 0 10 #fcfcfc #000000
#000000 0 1;
#X obj 117 97 random 100;
#X obj 117 169 bng 15 250 50 0 empty empty empty 17 7 0 10 #fcfcfc
#000000 #000000;
#X obj 117 121 > 80;
#X obj 117 145 sel 1;
#X obj 117 28 loadbang;
#X msg 197 238 220;
#X msg 247 239 330;
#X msg 117 237 55;
#X msg 157 237 110;
#X msg 288 241 440;
#X msg 338 242 550;
#X obj 117 213 sel 0 1 2 3 4 5 6, f 44;
#X msg 379 242 660;
#X obj 117 188 random 7;
#X obj 117 261 outlet;
#X obj 117 73 metro 2500;
#X connect 0 0 16 0;
#X connect 1 0 3 0;
#X connect 2 0 14 0;
#X connect 3 0 4 0;
#X connect 4 0 2 0;
#X connect 5 0 0 0;
#X connect 6 0 15 0;
#X connect 7 0 15 0;
#X connect 8 0 15 0;
#X connect 9 0 15 0;
#X connect 10 0 15 0;
#X connect 11 0 15 0;
#X connect 12 0 8 0;
#X connect 12 1 9 0;
#X connect 12 2 6 0;
#X connect 12 3 7 0;
#X connect 12 4 10 0;
#X connect 12 5 11 0;
#X connect 12 6 13 0;
#X connect 13 0 15 0;
#X connect 14 0 12 0;
#X connect 16 0 1 0;
#X restore 231 113 pd randomchoice;
#X msg 231 137 \$1 300;
#X obj 231 161 line;
#N canvas 0 23 450 300 randomchoice 0;
#X obj 117 53 tgl 15 0 empty empty empty 17 7 0 10 #fcfcfc #000000
#000000 0 1;
#X obj 117 97 random 100;
#X obj 117 169 bng 15 250 50 0 empty empty empty 17 7 0 10 #fcfcfc
#000000 #000000;
#X obj 117 121 > 80;
#X obj 117 145 sel 1;
#X obj 117 28 loadbang;
#X msg 197 238 220;
#X msg 247 239 330;
#X msg 117 237 55;
#X msg 157 237 110;
#X msg 288 241 440;
#X msg 338 242 550;
#X obj 117 213 sel 0 1 2 3 4 5 6, f 44;
#X msg 379 242 660;
#X obj 117 188 random 7;
#X obj 117 261 outlet;
#X obj 117 73 metro 3000;
#X connect 0 0 16 0;
#X connect 1 0 3 0;
#X connect 2 0 14 0;
#X connect 3 0 4 0;
#X connect 4 0 2 0;
#X connect 5 0 0 0;
#X connect 6 0 15 0;
#X connect 7 0 15 0;
#X connect 8 0 15 0;
#X connect 9 0 15 0;
#X connect 10 0 15 0;
#X connect 11 0 15 0;
#X connect 12 0 8 0;
#X connect 12 1 9 0;
#X connect 12 2 6 0;
#X connect 12 3 7 0;
#X connect 12 4 10 0;
#X connect 12 5 11 0;
#X connect 12 6 13 0;
#X connect 13 0 15 0;
#X connect 14 0 12 0;
#X connect 16 0 1 0;
#X restore 465 104 pd randomchoice;
#X msg 465 128 \$1 300;
#X obj 465 152 line;
#X floatatom 390 101 5 0 0 0 - - - 0;
#N canvas 0 23 450 300 random2000 0;
#X obj 117 53 tgl 15 0 empty empty empty 17 7 0 10 #fcfcfc #000000
#000000 0 1;
#X obj 117 73 metro 2000;
#X obj 117 97 random 100;
#X obj 117 213 outlet;
#X obj 117 169 bng 15 250 50 0 empty empty empty 17 7 0 10 #fcfcfc
#000000 #000000;
#X obj 117 189 random 2000;
#X obj 117 121 > 80;
#X obj 117 145 sel 1;
#X obj 113 15 loadbang;
#X connect 0 0 1 0;
#X connect 1 0 2 0;
#X connect 2 0 6 0;
#X connect 4 0 5 0;
#X connect 5 0 3 0;
#X connect 6 0 7 0;
#X connect 7 0 4 0;
#X connect 8 0 0 0;
#X restore 390 76 pd random2000;
#X floatatom 156 61 5 0 0 0 - - - 0;
#N canvas 0 25 450 300 random2000 0;
#X obj 117 53 tgl 15 0 empty empty empty 17 7 0 10 #fcfcfc #000000
#000000 0 1;
#X obj 117 73 metro 2000;
#X obj 117 97 random 100;
#X obj 117 213 outlet;
#X obj 117 169 bng 15 250 50 0 empty empty empty 17 7 0 10 #fcfcfc
#000000 #000000;
#X obj 117 189 random 2000;
#X obj 117 121 > 80;
#X obj 117 145 sel 1;
#X obj 113 15 loadbang;
#X connect 0 0 1 0;
#X connect 1 0 2 0;
#X connect 2 0 6 0;
#X connect 4 0 5 0;
#X connect 5 0 3 0;
#X connect 6 0 7 0;
#X connect 7 0 4 0;
#X connect 8 0 0 0;
#X restore 156 36 pd random2000;
#X obj 156 108 line;
#X obj 390 148 line;
#X msg 156 84 \$1 800;
#X msg 390 124 \$1 1000;
#X obj 485 324 noise~;
#X obj 541 322 noise~;
#X obj 485 348 *~;
#X obj 485 397 *~ 0.02;
#X obj 485 372 hip~ 20000;
#X obj 467 479 t f b;
#X obj 499 527 + 200;
#X obj 499 503 random 800;
#X obj 467 553 pack, f 5;
#X floatatom 543 561 5 0 0 0 - - - 0;
#X obj 70 538 *~;
#X obj 126 541 *~;
#X obj 605 655 pan~, f 25;
#X obj 777 400 randwalk 1000 2000;
#X obj 776 377 bng 15 250 50 0 empty empty empty 17 7 0 10 #fcfcfc
#000000 #000000;
#X obj 776 350 loadbang;
#X obj 80 374 *~ 0.1;
#X obj 237 370 *~ 0.1;
#X obj 605 679 *~ 0.5;
#X obj 777 681 *~ 0.5;
#X obj 780 424 hsl 128 15 -1 1 0 0 empty empty empty -2 -8 0 10 #fcfcfc
#000000 #000000 0 1;
#X obj 644 490 bng 15 250 50 0 empty empty empty 17 7 0 10 #fcfcfc
#000000 #000000;
#X obj 644 463 loadbang;
#X obj 648 537 hsl 128 15 0 1 0 0 empty empty empty -2 -8 0 10 #fcfcfc
#000000 #000000 0 1;
#X obj 645 513 randwalk 500 4000;
#X obj 545 222 clip~ 0 1;
#X obj 600 255 snapshotter~;
#X obj 792 515 randwalk 1000 2000;
#X obj 791 492 bng 15 250 50 0 empty empty empty 17 7 0 10 #fcfcfc
#000000 #000000;
#X obj 791 465 loadbang;
#X obj 795 539 hsl 128 15 0 1 0 0 empty empty empty -2 -8 0 10 #fcfcfc
#000000 #000000 0 1;
#X obj 792 559 scaled 0 1 0 0.9;
#X obj 724 152 envgen~ 1 5 0.7 20 1 200 0 3;
#X obj 605 631 echo~ 300 0.8;
#X obj 643 605 scaled 0 1 20 500;
#X obj 645 557 easeinoutcubic;
#X obj 648 582 hsl 128 15 0 1 0 0 empty empty empty -2 -8 0 10 #fcfcfc
#000000 #000000 0 1;
#X obj 723 128 maybe 0.5;
#X obj 596 22 bng 15 250 50 0 empty empty empty 17 7 0 10 #fcfcfc #000000
#000000;
#X obj 596 46 t b b b;
#X obj 646 72 random 500;
#X obj 624 129 del;
#X obj 714 37 spigot;
#X obj 753 16 tgl 15 0 empty empty empty 17 7 0 10 #fcfcfc #000000
#000000 0 1;
#X obj 646 96 + 20;
#X obj 772 9 loadbang;
#X msg 772 33 1;
#X obj 74 653 echo~ 250 0.5;
#X obj 84 583 tgl 15 0 empty empty empty 17 7 0 10 #fcfcfc #000000
#000000 0 1;
#X obj 84 600 sel 0 1;
#X msg 84 622 0;
#X msg 114 622 0.5;
#X obj 169 653 echo~ 250 0.5;
#X connect 0 0 70 0;
#X connect 1 0 0 0;
#X connect 2 0 9 0;
#X connect 3 0 4 0;
#X connect 4 0 1 1;
#X connect 5 0 2 0;
#X connect 7 0 8 0;
#X connect 7 1 24 0;
#X connect 7 1 27 0;
#X connect 8 0 64 0;
#X connect 8 1 65 0;
#X connect 9 0 1 0;
#X connect 10 0 11 0;
#X connect 11 0 9 1;
#X connect 12 0 71 0;
#X connect 13 0 12 0;
#X connect 14 0 18 0;
#X connect 15 0 16 0;
#X connect 16 0 13 1;
#X connect 17 0 14 0;
#X connect 18 0 13 0;
#X connect 19 0 20 0;
#X connect 20 0 18 1;
#X connect 21 0 25 0;
#X connect 22 0 59 0;
#X connect 23 0 21 0;
#X connect 25 0 26 0;
#X connect 25 0 27 0;
#X connect 26 0 24 0;
#X connect 27 0 8 1;
#X connect 28 0 27 1;
#X connect 29 0 22 0;
#X connect 30 0 31 0;
#X connect 31 0 33 0;
#X connect 32 0 28 0;
#X connect 32 0 28 1;
#X connect 33 0 32 0;
#X connect 34 0 35 0;
#X connect 35 0 36 0;
#X connect 36 0 5 0;
#X connect 37 0 38 0;
#X connect 38 0 39 0;
#X connect 39 0 3 0;
#X connect 40 0 41 0;
#X connect 41 0 42 0;
#X connect 42 0 17 0;
#X connect 43 0 44 0;
#X connect 44 0 45 0;
#X connect 45 0 15 0;
#X connect 46 0 53 0;
#X connect 47 0 46 0;
#X connect 48 0 52 0;
#X connect 49 0 48 0;
#X connect 50 0 10 0;
#X connect 51 0 19 0;
#X connect 52 0 50 0;
#X connect 53 0 51 0;
#X connect 54 0 56 0;
#X connect 55 0 56 1;
#X connect 56 0 58 0;
#X connect 57 0 27 0;
#X connect 58 0 57 0;
#X connect 59 0 62 0;
#X connect 59 1 61 0;
#X connect 60 0 62 1;
#X connect 60 0 63 0;
#X connect 61 0 60 0;
#X connect 62 0 23 0;
#X connect 64 0 87 0;
#X connect 64 0 6 0;
#X connect 64 0 101 0;
#X connect 65 0 87 0;
#X connect 65 0 6 1;
#X connect 65 0 106 0;
#X connect 66 0 72 0;
#X connect 66 1 73 0;
#X connect 67 0 74 0;
#X connect 67 1 68 0;
#X connect 68 0 67 0;
#X connect 69 0 68 0;
#X connect 70 0 7 0;
#X connect 71 0 7 1;
#X connect 72 0 6 0;
#X connect 73 0 6 1;
#X connect 74 0 66 1;
#X connect 75 0 78 0;
#X connect 76 0 75 0;
#X connect 77 0 89 0;
#X connect 78 0 77 0;
#X connect 78 1 75 0;
#X connect 79 0 64 1;
#X connect 79 0 65 1;
#X connect 79 0 80 0;
#X connect 81 0 84 0;
#X connect 81 1 82 0;
#X connect 82 0 81 0;
#X connect 83 0 82 0;
#X connect 84 0 85 0;
#X connect 85 0 87 2;
#X connect 86 0 79 0;
#X connect 87 0 66 0;
#X connect 88 0 87 1;
#X connect 89 0 90 0;
#X connect 90 0 88 0;
#X connect 91 0 86 0;
#X connect 92 0 93 0;
#X connect 93 0 91 0;
#X connect 93 1 95 0;
#X connect 93 2 94 0;
#X connect 94 0 98 0;
#X connect 95 0 96 0;
#X connect 96 0 92 0;
#X connect 97 0 96 1;
#X connect 98 0 95 1;
#X connect 99 0 100 0;
#X connect 99 0 92 0;
#X connect 100 0 97 0;
#X connect 101 0 6 0;
#X connect 102 0 103 0;
#X connect 103 0 104 0;
#X connect 103 1 105 0;
#X connect 104 0 101 2;
#X connect 104 0 106 2;
#X connect 105 0 101 2;
#X connect 105 0 106 2;
#X connect 106 0 6 1;
