#N canvas 0 38 1512 884 12;
#X obj 376 207 mtturing, f 36;
#X obj 737 92 hsl 160 15 0 1 0 0 empty empty loop/random -2 -8 0 10
#fcfcfc #000000 #000000 0 1;
#X obj 376 187 bng 15 250 50 0 empty empty empty 17 7 0 10 #fcfcfc
#000000 #000000;
#X obj 1406 920 hsl 128 15 0 0.2 0 0 empty empty from_0_to_0.2 -2 -8
0 10 #fcfcfc #000000 #000000 0 1;
#X obj 1403 940 sig~;
#X floatatom 763 107 5 0 0 0 - - - 0;
#X obj 376 278 mtof;
#X obj 141 75 del;
#X obj 141 99 t b b;
#X obj 204 79 mtturing, f 36;
#X obj 204 59 bng 15 250 50 0 empty empty empty 17 7 0 10 #fcfcfc #000000
#000000;
#X obj 204 31 loadbang;
#X obj 376 254 quantizedmode phrygian 60;
#X obj 1549 878 loadbang;
#X msg 1548 901 0.2;
#X text 14 80 rhythm generator;
#X text 246 214 pitch generator;
#X text 1237 932 out;
#X text 820 62 turing machine controls;
#X obj 534 72 hsl 160 15 0 1 0 0 empty empty loop/random -2 -8 0 10
#fcfcfc #000000 #000000 0 1;
#X floatatom 560 87 5 0 0 0 - - - 0;
#X obj 705 147 hsl 160 15 0 1 0 0 empty empty loop/random -2 -8 0 10
#fcfcfc #000000 #000000 0 1;
#X floatatom 731 162 5 0 0 0 - - - 0;
#X obj 1294 989 dac~;
#X obj 1201 28 mtturingpulses;
#X obj 1192 82 maybe 0.5;
#X obj 1369 277 distortion~ 0.5;
#X obj 1426 93 maybe 0.8;
#X text 1305 30 drums;
#X obj 1055 339 mtturingvolts;
#X floatatom 1055 363 5 0 0 0 - - - 0;
#X obj 1084 286 vsl 10 40 0 1 0 0 empty empty empty 0 -9 0 10 #fcfcfc
#000000 #000000 0 1;
#X obj 1094 286 vsl 10 40 0 1 0 0 empty empty empty 0 -9 0 10 #fcfcfc
#000000 #000000 0 1;
#X obj 1104 286 vsl 10 40 0 1 0 0 empty empty empty 0 -9 0 10 #fcfcfc
#000000 #000000 0 1;
#X obj 1114 286 vsl 10 40 0 1 0 0 empty empty empty 0 -9 0 10 #fcfcfc
#000000 #000000 0 1;
#X obj 1124 286 vsl 10 40 0 1 0 0 empty empty empty 0 -9 0 10 #fcfcfc
#000000 #000000 0 1;
#X obj 1055 433 mtof;
#X obj 1055 409 quantizedmode phrygian 60;
#N canvas 0 25 158 173 randomize_sustain 0;
#X obj 15 16 loadbang;
#X obj 15 40 bng 15 250 50 0 empty empty empty 17 7 0 10 #fcfcfc #000000
#000000;
#X obj 18 84 hsl 100 15 0 1 0 0 empty empty empty -2 -8 0 10 #fcfcfc
#000000 #000000 0 1;
#X obj 15 128 outlet;
#X obj 15 60 randwalk 500 2500;
#X obj 15 104 scaled 0 1 5 20;
#X connect 0 0 1 0;
#X connect 1 0 4 0;
#X connect 2 0 5 0;
#X connect 4 0 2 0;
#X connect 4 1 1 0;
#X connect 5 0 3 0;
#X restore 1095 433 pd randomize_sustain;
#N canvas 0 25 165 190 randomize_feedback 0;
#X obj 15 16 loadbang;
#X obj 15 40 bng 15 250 50 0 empty empty empty 17 7 0 10 #fcfcfc #000000
#000000;
#X obj 18 108 hsl 100 15 0 1 0 0 empty empty empty -2 -8 0 10 #fcfcfc
#000000 #000000 0 1;
#X obj 15 152 outlet;
#X obj 15 60 randwalk 500 2500;
#X obj 15 84 easeoutcubic;
#X obj 15 128 scaled 0 1 0.89 0.98;
#X connect 0 0 1 0;
#X connect 1 0 4 0;
#X connect 2 0 6 0;
#X connect 4 0 5 0;
#X connect 4 1 1 0;
#X connect 5 0 2 0;
#X connect 6 0 3 0;
#X restore 1172 455 pd randomize_feedback;
#X text 956 455 second voice;
#X obj 1055 458 ks~, f 12;
#N canvas 0 25 158 173 randomize_sustain 0;
#X obj 15 16 loadbang;
#X obj 15 40 bng 15 250 50 0 empty empty empty 17 7 0 10 #fcfcfc #000000
#000000;
#X obj 18 84 hsl 100 15 0 1 0 0 empty empty empty -2 -8 0 10 #fcfcfc
#000000 #000000 0 1;
#X obj 15 128 outlet;
#X obj 15 60 randwalk 500 2500;
#X obj 15 104 scaled 0 1 5 20;
#X connect 0 0 1 0;
#X connect 1 0 4 0;
#X connect 2 0 5 0;
#X connect 4 0 2 0;
#X connect 4 1 1 0;
#X connect 5 0 3 0;
#X restore 620 382 pd randomize_sustain;
#N canvas 0 25 165 190 randomize_feedback 0;
#X obj 15 16 loadbang;
#X obj 15 40 bng 15 250 50 0 empty empty empty 17 7 0 10 #fcfcfc #000000
#000000;
#X obj 18 108 hsl 100 15 0 1 0 0 empty empty empty -2 -8 0 10 #fcfcfc
#000000 #000000 0 1;
#X obj 15 152 outlet;
#X obj 15 60 randwalk 500 2500;
#X obj 15 84 easeoutcubic;
#X obj 15 128 scaled 0 1 0.89 0.98;
#X connect 0 0 1 0;
#X connect 1 0 4 0;
#X connect 2 0 6 0;
#X connect 4 0 5 0;
#X connect 4 1 1 0;
#X connect 5 0 2 0;
#X connect 6 0 3 0;
#X restore 697 404 pd randomize_feedback;
#X obj 580 407 ks~, f 12;
#X obj 1481 223 *~ 0.6;
#X obj 376 231 scaled 0 1 48 60;
#X obj 1055 386 scaled 0 1 60 72;
#X text 477 408 first voice;
#X obj 204 103 scaled 0 1 50 300;
#X obj 1049 225 bng 15 250 50 0 empty empty empty 17 7 0 10 #fcfcfc
#000000 #000000;
#N canvas 0 25 649 186 randomize_values 0;
#X obj 25 90 random 100;
#X obj 25 114 scaled 0 100 0 1;
#X obj 25 138 outlet;
#X obj 145 90 random 100;
#X obj 145 114 scaled 0 100 0 1;
#X obj 145 138 outlet;
#X obj 265 90 random 100;
#X obj 265 114 scaled 0 100 0 1;
#X obj 265 138 outlet;
#X obj 385 90 random 100;
#X obj 385 114 scaled 0 100 0 1;
#X obj 385 138 outlet;
#X obj 505 90 random 100;
#X obj 505 114 scaled 0 100 0 1;
#X obj 505 138 outlet;
#X obj 301 63 bng 15 250 50 0 empty empty empty 17 7 0 10 #fcfcfc #000000
#000000;
#X obj 300 12 inlet;
#X obj 229 16 loadbang;
#X connect 0 0 1 0;
#X connect 1 0 2 0;
#X connect 3 0 4 0;
#X connect 4 0 5 0;
#X connect 6 0 7 0;
#X connect 7 0 8 0;
#X connect 9 0 10 0;
#X connect 10 0 11 0;
#X connect 12 0 13 0;
#X connect 13 0 14 0;
#X connect 15 0 0 0;
#X connect 15 0 3 0;
#X connect 15 0 12 0;
#X connect 15 0 9 0;
#X connect 15 0 6 0;
#X connect 16 0 15 0;
#X connect 17 0 15 0;
#X restore 1049 247 pd randomize_values;
#X obj 1273 808 *~;
#X obj 1347 813 *~;
#X obj 580 431 pan~ 0.45;
#X obj 1055 482 pan~ 0.55;
#N canvas 0 25 450 300 initialize_turing_machines 0;
#X obj 147 36 loadbang;
#X obj 147 205 snapshot~;
#X obj 85 149 metro 5;
#X msg 54 126 1;
#X msg 99 126 0;
#X obj 320 87 t b b;
#X msg 320 211 0.15;
#X obj 147 269 outlet;
#X obj 147 60 envgen~ 0.5 0 0.5 6000 0.15 50;
#X connect 0 0 3 0;
#X connect 0 0 8 0;
#X connect 1 0 7 0;
#X connect 2 0 1 0;
#X connect 3 0 2 0;
#X connect 4 0 2 0;
#X connect 5 0 6 0;
#X connect 5 1 4 0;
#X connect 6 0 7 0;
#X connect 8 0 1 0;
#X connect 8 1 5 0;
#X restore 726 26 pd initialize_turing_machines;
#X obj 1036 154 maybe 0.01;
#X obj 1486 123 kick~;
#X obj 1192 106 hh~, f 15;
#X connect 0 0 46 0;
#X connect 0 1 29 0;
#X connect 0 1 24 0;
#X connect 1 0 5 0;
#X connect 1 0 19 0;
#X connect 1 0 21 0;
#X connect 2 0 0 0;
#X connect 3 0 4 0;
#X connect 4 0 53 1;
#X connect 4 0 52 1;
#X connect 6 0 44 0;
#X connect 7 0 8 0;
#X connect 8 0 2 0;
#X connect 8 1 10 0;
#X connect 9 0 49 0;
#X connect 10 0 9 0;
#X connect 11 0 10 0;
#X connect 12 0 6 0;
#X connect 13 0 14 0;
#X connect 14 0 3 0;
#X connect 19 0 20 0;
#X connect 19 0 9 2;
#X connect 21 0 22 0;
#X connect 21 0 0 2;
#X connect 24 0 25 0;
#X connect 24 0 57 0;
#X connect 24 1 27 0;
#X connect 25 0 59 0;
#X connect 26 0 52 0;
#X connect 26 0 53 0;
#X connect 27 0 58 0;
#X connect 29 0 30 0;
#X connect 30 0 47 0;
#X connect 31 0 29 1;
#X connect 32 0 29 2;
#X connect 33 0 29 3;
#X connect 34 0 29 4;
#X connect 35 0 29 5;
#X connect 36 0 41 0;
#X connect 37 0 36 0;
#X connect 38 0 41 1;
#X connect 39 0 41 2;
#X connect 41 0 55 0;
#X connect 42 0 44 1;
#X connect 43 0 44 2;
#X connect 44 0 54 0;
#X connect 45 0 26 0;
#X connect 46 0 12 0;
#X connect 47 0 37 0;
#X connect 49 0 7 0;
#X connect 50 0 51 0;
#X connect 51 0 31 0;
#X connect 51 1 32 0;
#X connect 51 2 33 0;
#X connect 51 3 34 0;
#X connect 51 4 35 0;
#X connect 52 0 23 0;
#X connect 53 0 23 1;
#X connect 54 0 52 0;
#X connect 54 1 53 0;
#X connect 55 0 52 0;
#X connect 55 1 53 0;
#X connect 56 0 1 0;
#X connect 57 0 50 0;
#X connect 58 0 45 0;
#X connect 59 0 26 0;
