#N canvas 521 167 450 554 12;
#X obj 152 163 tgl 15 0 empty empty empty 17 7 0 10 #fcfcfc #000000
#000000 0 1;
#X obj 152 211 mtturing;
#X obj 152 259 quantizedmode aeolian 60;
#X obj 152 283 mtof;
#X obj 300 144 tgl 15 0 empty empty empty 17 7 0 10 #fcfcfc #000000
#000000 0 1;
#X obj 300 168 sel 0 1, f 11;
#X msg 300 192 0.5;
#X obj 40 249 mtturingpulses;
#X obj 152 493 out~;
#X msg 337 192 1;
#X obj 220 327 *~;
#X obj 207 3 loadbang;
#X obj 152 235 scaled 0 1 60 73;
#X obj 207 27 t b b;
#X msg 238 51 0;
#X text 181 123 on to lock \, off to tap into random;
#X obj 152 187 metro 135;
#X obj 220 303 ahdsr~ 15 50 200 0.2 200;
#X obj 193 457 echo~ 135 0.6;
#X obj 152 307 phasor~;
#X obj 152 401 vcf~ 4;
#X obj 220 351 scaled~ 0 1 0 10000;
#X connect 0 0 16 0;
#X connect 1 0 12 0;
#X connect 1 1 7 0;
#X connect 2 0 3 0;
#X connect 3 0 19 0;
#X connect 4 0 5 0;
#X connect 5 0 6 0;
#X connect 5 1 9 0;
#X connect 6 0 1 2;
#X connect 7 0 17 0;
#X connect 9 0 1 2;
#X connect 10 0 21 0;
#X connect 11 0 13 0;
#X connect 12 0 2 0;
#X connect 13 0 0 0;
#X connect 13 1 14 0;
#X connect 14 0 5 0;
#X connect 16 0 1 0;
#X connect 17 0 10 0;
#X connect 17 0 10 1;
#X connect 18 0 8 0;
#X connect 18 0 8 1;
#X connect 19 0 20 0;
#X connect 20 0 8 0;
#X connect 20 0 8 1;
#X connect 20 0 18 0;
#X connect 21 0 20 1;
