#N canvas 726 97 539 625 12;
#X obj 93 213 phasor~;
#X obj 93 287 +~;
#X obj 93 311 vcf~, f 10;
#X obj 93 335 *~;
#X obj 93 165 mtof;
#X obj 166 165 mtof;
#X obj 166 189 + 0.3;
#X obj 166 213 phasor~;
#X obj 166 237 *~, f 15;
#X obj 93 359 outlet~;
#X obj 268 93 inlet;
#X obj 268 130 clip 0 1;
#X obj 309 93 msphsl 0 1 0;
#X obj 166 141 +;
#X obj 184 93 inlet;
#X obj 88 48 inlet;
#X obj 147 25 msphsl 24 84;
#X obj 243 408 out~;
#X obj 88 72 t f f f;
#X obj 134 96 sig~;
#X obj 255 298 msphsl 0 1 0;
#X obj 255 321 sig~;
#X floatatom 204 161 5 0 0 0 - - - 0;
#X floatatom 246 61 5 0 0 0 - - - 0;
#X msg 268 178 \$1 50;
#X obj 268 202 line~;
#X connect 0 0 1 0;
#X connect 1 0 2 0;
#X connect 2 0 3 0;
#X connect 3 0 9 0;
#X connect 3 0 17 0;
#X connect 3 0 17 1;
#X connect 4 0 0 0;
#X connect 5 0 6 0;
#X connect 6 0 7 0;
#X connect 7 0 8 0;
#X connect 8 0 1 1;
#X connect 10 0 11 0;
#X connect 11 0 24 0;
#X connect 12 0 11 0;
#X connect 13 0 5 0;
#X connect 13 0 22 0;
#X connect 14 0 13 1;
#X connect 15 0 18 0;
#X connect 16 0 18 0;
#X connect 18 0 13 0;
#X connect 18 1 4 0;
#X connect 18 2 19 0;
#X connect 19 0 2 1;
#X connect 20 0 21 0;
#X connect 21 0 3 1;
#X connect 23 0 13 1;
#X connect 24 0 25 0;
#X connect 25 0 8 1;
