#N canvas 521 152 570 300 12;
#X obj 122 8 renoisekeyboard;
#N canvas 0 38 450 300 voice~ 0;
#X obj 103 104 unpack f f;
#X obj 103 128 mtof;
#X obj 103 176 *~, f 10;
#X obj 96 52 inlet;
#X obj 103 224 outlet~;
#X obj 103 152 saw~;
#X obj 170 141 adsr~ 5 50 0.8 200;
#X obj 103 200 vibrato~ 0.5 0.1;
#X connect 0 0 1 0;
#X connect 0 1 6 0;
#X connect 1 0 5 0;
#X connect 2 0 7 0;
#X connect 3 0 0 0;
#X connect 5 0 2 0;
#X connect 6 0 2 1;
#X connect 7 0 4 0;
#X restore 111 126 pd voice~;
#X obj 122 56 pack f f f;
#X obj 203 221 out~;
#X obj 122 32 poly 6 1, f 10;
#X obj 122 80 route 1 2 3 4 5 6, f 59;
#X obj 197 164 *~ 0.166667;
#N canvas 0 38 450 300 voice~ 0;
#X obj 103 104 unpack f f;
#X obj 103 128 mtof;
#X obj 103 176 *~, f 10;
#X obj 96 52 inlet;
#X obj 103 224 outlet~;
#X obj 103 152 saw~;
#X obj 170 141 adsr~ 5 50 0.8 200;
#X obj 103 200 vibrato~ 0.5 0.2;
#X connect 0 0 1 0;
#X connect 0 1 6 0;
#X connect 1 0 5 0;
#X connect 2 0 7 0;
#X connect 3 0 0 0;
#X connect 5 0 2 0;
#X connect 6 0 2 1;
#X connect 7 0 4 0;
#X restore 181 126 pd voice~;
#N canvas 0 38 450 300 voice~ 0;
#X obj 103 104 unpack f f;
#X obj 103 128 mtof;
#X obj 103 176 *~, f 10;
#X obj 96 52 inlet;
#X obj 103 224 outlet~;
#X obj 103 152 saw~;
#X obj 170 141 adsr~ 5 50 0.8 200;
#X obj 103 200 vibrato~ 0.5 0.2;
#X connect 0 0 1 0;
#X connect 0 1 6 0;
#X connect 1 0 5 0;
#X connect 2 0 7 0;
#X connect 3 0 0 0;
#X connect 5 0 2 0;
#X connect 6 0 2 1;
#X connect 7 0 4 0;
#X restore 251 126 pd voice~;
#N canvas 0 38 450 300 voice~ 0;
#X obj 103 104 unpack f f;
#X obj 103 128 mtof;
#X obj 103 176 *~, f 10;
#X obj 96 52 inlet;
#X obj 103 224 outlet~;
#X obj 103 152 saw~;
#X obj 170 141 adsr~ 5 50 0.8 200;
#X obj 103 200 vibrato~ 0.5 0.2;
#X connect 0 0 1 0;
#X connect 0 1 6 0;
#X connect 1 0 5 0;
#X connect 2 0 7 0;
#X connect 3 0 0 0;
#X connect 5 0 2 0;
#X connect 6 0 2 1;
#X connect 7 0 4 0;
#X restore 321 126 pd voice~;
#N canvas 0 38 450 300 voice~ 0;
#X obj 103 104 unpack f f;
#X obj 103 128 mtof;
#X obj 103 176 *~, f 10;
#X obj 96 52 inlet;
#X obj 103 224 outlet~;
#X obj 103 152 saw~;
#X obj 170 141 adsr~ 5 50 0.8 200;
#X obj 103 200 vibrato~ 0.5 0.2;
#X connect 0 0 1 0;
#X connect 0 1 6 0;
#X connect 1 0 5 0;
#X connect 2 0 7 0;
#X connect 3 0 0 0;
#X connect 5 0 2 0;
#X connect 6 0 2 1;
#X connect 7 0 4 0;
#X restore 391 126 pd voice~;
#N canvas 0 38 450 300 voice~ 0;
#X obj 103 104 unpack f f;
#X obj 103 128 mtof;
#X obj 103 176 *~, f 10;
#X obj 96 52 inlet;
#X obj 103 224 outlet~;
#X obj 103 152 saw~;
#X obj 170 141 adsr~ 5 50 0.8 200;
#X obj 103 200 vibrato~ 0.5 0.1;
#X connect 0 0 1 0;
#X connect 0 1 6 0;
#X connect 1 0 5 0;
#X connect 2 0 7 0;
#X connect 3 0 0 0;
#X connect 5 0 2 0;
#X connect 6 0 2 1;
#X connect 7 0 4 0;
#X restore 461 126 pd voice~;
#X obj 284 188 echo~ 500 0.55;
#X connect 0 0 4 0;
#X connect 1 0 6 0;
#X connect 2 0 5 0;
#X connect 4 0 2 0;
#X connect 4 1 2 1;
#X connect 4 2 2 2;
#X connect 5 0 1 0;
#X connect 5 1 7 0;
#X connect 5 2 8 0;
#X connect 5 3 9 0;
#X connect 5 4 10 0;
#X connect 5 5 11 0;
#X connect 6 0 3 0;
#X connect 6 0 3 1;
#X connect 6 0 12 0;
#X connect 7 0 6 0;
#X connect 8 0 6 0;
#X connect 9 0 6 0;
#X connect 10 0 6 0;
#X connect 11 0 6 0;
#X connect 12 0 3 0;
#X connect 12 0 3 1;
