#N canvas 134 146 1146 506 12;
#X floatatom 348 170 5 0 0 0 - - -;
#X obj 297 169 tgl 15 0 empty empty empty 17 7 0 10 -262144 -1 -1 1
1;
#X obj 297 217 stepjumper, f 35;
#X obj 297 241 - 1;
#X obj 297 265 16step 60 60 62 60 63 60 65 63, f 40;
#X obj 297 289 mtof;
#X obj 297 409 out~;
#X obj 439 123 tgl 15 0 empty empty empty 17 7 0 10 -262144 -1 -1 1
1;
#X msg 439 138 step1 \$1;
#X obj 454 123 tgl 15 0 empty empty empty 17 7 0 10 -262144 -1 -1 0
1;
#X obj 469 123 tgl 15 0 empty empty empty 17 7 0 10 -262144 -1 -1 1
1;
#X obj 484 123 tgl 15 0 empty empty empty 17 7 0 10 -262144 -1 -1 1
1;
#X obj 499 123 tgl 15 0 empty empty empty 17 7 0 10 -262144 -1 -1 0
1;
#X obj 514 123 tgl 15 0 empty empty empty 17 7 0 10 -262144 -1 -1 1
1;
#X obj 529 123 tgl 15 0 empty empty empty 17 7 0 10 -262144 -1 -1 0
1;
#X obj 544 123 tgl 15 0 empty empty empty 17 7 0 10 -262144 -1 -1 0
1;
#X msg 509 138 step2 \$1;
#X msg 579 138 step3 \$1;
#X msg 649 138 step4 \$1;
#X msg 719 138 step5 \$1;
#X msg 789 138 step6 \$1;
#X msg 859 138 step7 \$1;
#X msg 929 138 step8 \$1;
#X obj 297 104 loadbang;
#X obj 297 193 metronome 150 8;
#X obj 701 276 kick~;
#X obj 701 361 out~;
#X obj 701 212 sel 1 5, f 39;
#X obj 297 313 t f b, f 6;
#X obj 297 337 osc~;
#X obj 297 385 *~, f 6;
#X obj 336 337 envgen~ 1 5 0.3 120 0 30;
#X obj 336 361 *~;
#X obj 485 18 mspkeyboard;
#X obj 485 42 route button1 button2 button3 button4 button5 button6
button7 button8, f 71;
#X obj 7 241 - 1;
#X obj 7 265 16step 60 60 62 60 63 60 65 63, f 40;
#X obj 7 313 mtof;
#X obj 7 337 t f b, f 6;
#X obj 7 433 out~;
#X obj 7 361 osc~;
#X obj 7 409 *~, f 6;
#X obj 46 385 *~;
#X obj 7 289 + 12;
#X obj 858 279 snare~;
#X obj 858 303 out~;
#X obj 46 361 envgen~ 0.5 5 0.1 120 0 30;
#X connect 0 0 24 1;
#X connect 1 0 24 0;
#X connect 2 0 3 0;
#X connect 3 0 4 0;
#X connect 4 0 5 0;
#X connect 5 0 28 0;
#X connect 7 0 8 0;
#X connect 8 0 2 1;
#X connect 9 0 16 0;
#X connect 10 0 17 0;
#X connect 11 0 18 0;
#X connect 12 0 19 0;
#X connect 13 0 20 0;
#X connect 14 0 21 0;
#X connect 15 0 22 0;
#X connect 16 0 2 1;
#X connect 17 0 2 1;
#X connect 18 0 2 1;
#X connect 19 0 2 1;
#X connect 20 0 2 1;
#X connect 21 0 2 1;
#X connect 22 0 2 1;
#X connect 23 0 1 0;
#X connect 23 0 7 0;
#X connect 23 0 15 0;
#X connect 23 0 14 0;
#X connect 23 0 13 0;
#X connect 23 0 12 0;
#X connect 23 0 11 0;
#X connect 23 0 10 0;
#X connect 23 0 9 0;
#X connect 24 0 2 0;
#X connect 24 0 27 0;
#X connect 24 0 35 0;
#X connect 25 0 26 0;
#X connect 25 0 26 1;
#X connect 27 0 25 0;
#X connect 27 1 25 0;
#X connect 27 1 44 0;
#X connect 28 0 29 0;
#X connect 28 1 31 0;
#X connect 29 0 30 0;
#X connect 30 0 6 0;
#X connect 30 0 6 1;
#X connect 31 0 32 0;
#X connect 31 0 32 1;
#X connect 32 0 30 1;
#X connect 33 0 34 0;
#X connect 34 0 7 0;
#X connect 34 1 9 0;
#X connect 34 2 10 0;
#X connect 34 3 11 0;
#X connect 34 4 12 0;
#X connect 34 5 13 0;
#X connect 34 6 14 0;
#X connect 34 7 15 0;
#X connect 35 0 36 0;
#X connect 36 0 43 0;
#X connect 37 0 38 0;
#X connect 38 0 40 0;
#X connect 38 1 46 0;
#X connect 40 0 41 0;
#X connect 41 0 39 0;
#X connect 41 0 39 1;
#X connect 42 0 41 1;
#X connect 43 0 37 0;
#X connect 44 0 45 0;
#X connect 44 0 45 1;
#X connect 46 0 42 0;
#X connect 46 0 42 1;
