#N canvas 0 86 1280 604 12;
#X obj 125 43 tgl 15 0 empty empty empty 17 7 0 10 #fcfcfc #000000
#000000 0 1;
#X obj 125 367 mtof;
#X obj 125 391 t b f;
#X obj 125 439 *~;
#X obj 286 526 out~;
#X obj 125 271 stepjumper;
#X obj 321 46 tgl 15 0 empty empty empty 17 7 0 10 #fcfcfc #000000
#000000 0 1;
#X obj 125 247 stepmuter;
#X floatatom 64 266 5 0 0 0 - - - 0;
#X floatatom 64 290 5 0 0 0 - - - 0;
#X obj 452 118 sel 1 5, f 38;
#X obj 286 496 *~ 1;
#X obj 575 181 snare~;
#X obj 546 290 *~ 0.8;
#X obj 629 199 hh~, f 6;
#X obj 633 149 bng 15 250 50 0 empty empty empty 17 7 0 10 #fcfcfc
#000000 #000000;
#X obj 31 24 loadbang;
#X obj 519 65 loadbang;
#X obj 741 37 tgl 15 0 empty empty empty 17 7 0 10 #fcfcfc #000000
#000000 0 1;
#X obj 1056 68 mspkey 114;
#X obj 1056 92 tgl 15 0 empty empty empty 17 7 0 10 #fcfcfc #000000
#000000 0 1;
#X obj 991 106 bng 15 250 50 0 empty empty empty 17 7 0 10 #fcfcfc
#000000 #000000;
#X obj 1253 69 mspkey 101;
#X obj 1253 93 tgl 15 0 empty empty empty 17 7 0 10 #fcfcfc #000000
#000000 0 1;
#X obj 1189 106 bng 15 250 50 0 empty empty empty 17 7 0 10 #fcfcfc
#000000 #000000;
#X floatatom 2 54 5 0 0 0 - - - 0;
#X obj 157 439 saw~;
#X obj 125 415 envgen~ 1 5 0.3 50 0 30;
#X obj 311 454 square~;
#X text 1047 39 snare fill: r;
#X text 1249 45 kick fill: e;
#X obj 312 431 * 0.5;
#X obj 253 459 saw~;
#X obj 253 438 * 1.01;
#X obj 189 528 *~ 0.175;
#X obj 97 472 scaled~ 0 1 0 18000;
#X obj 100 583 hip~ 500;
#X obj 459 147 bng 15 250 50 0 empty empty empty 17 7 0 10 #fcfcfc
#000000 #000000;
#X obj 576 151 bng 15 250 50 0 empty empty empty 17 7 0 10 #fcfcfc
#000000 #000000;
#X obj 125 63 metronome 120 8;
#X obj 453 95 spigot;
#X obj 546 316 *~ 1, f 26;
#X obj 907 57 mspkey 119;
#X obj 907 81 tgl 15 0 empty empty empty 17 7 0 10 #fcfcfc #000000
#000000 0 1;
#X obj 100 559 echo~ 150 0.2;
#X obj 868 83 bng 15 250 50 0 empty empty empty 17 7 0 10 #fcfcfc #000000
#000000;
#X text 904 31 hat fill: w;
#X text 761 34 toggle drum pattern;
#X floatatom 761 202 5 0 0 0 - - - 0;
#X obj 125 319 scaled 0 1 48 80;
#X obj 853 110 forgivingspigot;
#X obj 1015 113 forgivingspigot;
#X obj 1213 113 forgivingspigot;
#X obj 125 295 generative8step 80 200;
#X obj 197 125 mspkey 102;
#X obj 125 87 t f f f, f 10;
#X obj 158 152 spigot;
#X msg 158 176 \$1 1;
#X obj 245 153 spigot;
#X obj 284 126 mspkey 100;
#X msg 245 177 \$1 0;
#X obj 321 22 mspkey 97;
#X text 394 16 hold a to generate new melodies \; hold f to enable
steps and d to disable them;
#X obj 125 343 quantizedmode phrygian 60;
#X obj 585 410 key;
#X obj 585 458 tgl 15 0 empty empty empty 17 7 0 10 #fcfcfc #000000
#000000 0 1;
#X msg 585 478 1 \$1;
#X obj 628 458 tgl 15 0 empty empty empty 17 7 0 10 #fcfcfc #000000
#000000 0 1;
#X obj 671 458 tgl 15 0 empty empty empty 17 7 0 10 #fcfcfc #000000
#000000 0 1;
#X obj 715 458 tgl 15 0 empty empty empty 17 7 0 10 #fcfcfc #000000
#000000 0 1;
#X obj 758 458 tgl 15 0 empty empty empty 17 7 0 10 #fcfcfc #000000
#000000 0 1;
#X obj 801 458 tgl 15 0 empty empty empty 17 7 0 10 #fcfcfc #000000
#000000 0 1;
#X obj 845 458 tgl 15 0 empty empty empty 17 7 0 10 #fcfcfc #000000
#000000 0 1;
#X obj 888 458 tgl 15 0 empty empty empty 17 7 0 10 #fcfcfc #000000
#000000 0 1;
#X msg 628 478 2 \$1;
#X msg 671 478 3 \$1;
#X msg 715 478 4 \$1;
#X msg 758 478 5 \$1;
#X msg 801 478 6 \$1;
#X msg 845 478 7 \$1;
#X msg 888 478 8 \$1;
#X msg 901 377 1;
#X obj 585 434 sel 49 50 51 52 53 54 55 56 48 45, f 62;
#X msg 974 381 0;
#X text 586 360 1-8 to toggle on and off inclusion in pattern \; 0
to turn on all \, and - to turn off all.;
#X obj 629 223 *~ 0.4;
#X obj 324 276 route 1 2 3 4 5 6 7 8;
#X obj 123 523 vcf~ 3;
#X text 1042 180 things to try: \; \; - record in the drum pattern
live (and still be able to fill over it when not recording) (use a
[markov?]) or maybe do a euclidean sequencer? \; - add in an open high
hat sound \; - per-drum muting \; - save/recall state (like "reload
pattern" function on model:samples) \; - change all (to change all
pitches \, etc. at once) \, which i can then recall state to return
to how things were \; - feed fills into a markov chain \, so you can
lock something like that fill pattern into place without changing underlying
pattern \; - not this patch \, but try applying stepmuter \, stepjumper
\, and generative8step to my dfam clone \; - pattern offset-er where
you can shift the pattern over some (just add the offset after the
metronome \, and maybe mod it?) \; - let generative8step take an int
-1 \, 0 \, and 1 instead of just 0 or 1 for its second inlet. these
will cause it to sample from three randwalks (one running lower \,
one running same pitch range \, and one running higher). then you can
"play" by deciding the pitch range of the random melody.;
#X obj 433 173 kick~ 100 8 1000;
#X connect 0 0 39 0;
#X connect 1 0 2 0;
#X connect 2 0 27 0;
#X connect 2 1 26 0;
#X connect 2 1 31 0;
#X connect 2 1 33 0;
#X connect 3 0 35 0;
#X connect 5 0 9 0;
#X connect 5 0 53 0;
#X connect 6 0 53 1;
#X connect 7 0 5 0;
#X connect 7 0 8 0;
#X connect 10 0 37 0;
#X connect 10 1 38 0;
#X connect 10 2 15 0;
#X connect 11 0 4 0;
#X connect 11 0 4 1;
#X connect 12 0 13 0;
#X connect 13 0 41 0;
#X connect 14 0 85 0;
#X connect 15 0 14 0;
#X connect 16 0 0 0;
#X connect 17 0 6 0;
#X connect 18 0 40 1;
#X connect 19 0 20 0;
#X connect 20 0 51 1;
#X connect 21 0 51 0;
#X connect 22 0 23 0;
#X connect 23 0 52 1;
#X connect 24 0 52 0;
#X connect 25 0 39 1;
#X connect 26 0 87 0;
#X connect 27 0 3 0;
#X connect 27 0 3 1;
#X connect 28 0 87 0;
#X connect 31 0 28 0;
#X connect 32 0 87 0;
#X connect 33 0 32 0;
#X connect 34 0 11 0;
#X connect 34 0 44 0;
#X connect 35 0 87 1;
#X connect 36 0 11 0;
#X connect 37 0 89 0;
#X connect 38 0 12 0;
#X connect 39 0 21 0;
#X connect 39 0 24 0;
#X connect 39 0 45 0;
#X connect 39 0 55 0;
#X connect 40 0 10 0;
#X connect 41 0 11 0;
#X connect 42 0 43 0;
#X connect 43 0 50 1;
#X connect 44 0 36 0;
#X connect 45 0 50 0;
#X connect 48 0 14 1;
#X connect 49 0 63 0;
#X connect 50 0 14 0;
#X connect 51 0 12 0;
#X connect 52 0 89 0;
#X connect 53 0 49 0;
#X connect 54 0 56 1;
#X connect 55 0 7 0;
#X connect 55 0 40 0;
#X connect 55 1 56 0;
#X connect 55 2 58 0;
#X connect 56 0 57 0;
#X connect 57 0 7 1;
#X connect 57 0 5 1;
#X connect 57 0 86 0;
#X connect 58 0 60 0;
#X connect 59 0 58 1;
#X connect 60 0 7 1;
#X connect 60 0 5 1;
#X connect 60 0 86 0;
#X connect 61 0 6 0;
#X connect 63 0 1 0;
#X connect 64 0 82 0;
#X connect 65 0 66 0;
#X connect 66 0 5 1;
#X connect 67 0 74 0;
#X connect 68 0 75 0;
#X connect 69 0 76 0;
#X connect 70 0 77 0;
#X connect 71 0 78 0;
#X connect 72 0 79 0;
#X connect 73 0 80 0;
#X connect 74 0 5 1;
#X connect 75 0 5 1;
#X connect 76 0 5 1;
#X connect 77 0 5 1;
#X connect 78 0 5 1;
#X connect 79 0 5 1;
#X connect 80 0 5 1;
#X connect 81 0 73 0;
#X connect 81 0 72 0;
#X connect 81 0 71 0;
#X connect 81 0 70 0;
#X connect 81 0 69 0;
#X connect 81 0 68 0;
#X connect 81 0 67 0;
#X connect 81 0 65 0;
#X connect 82 0 65 0;
#X connect 82 1 67 0;
#X connect 82 2 68 0;
#X connect 82 3 69 0;
#X connect 82 4 70 0;
#X connect 82 5 71 0;
#X connect 82 6 72 0;
#X connect 82 7 73 0;
#X connect 82 8 81 0;
#X connect 82 9 83 0;
#X connect 83 0 73 0;
#X connect 83 0 72 0;
#X connect 83 0 71 0;
#X connect 83 0 70 0;
#X connect 83 0 69 0;
#X connect 83 0 68 0;
#X connect 83 0 67 0;
#X connect 83 0 65 0;
#X connect 85 0 13 0;
#X connect 86 0 65 0;
#X connect 86 1 67 0;
#X connect 86 2 68 0;
#X connect 86 3 69 0;
#X connect 86 4 70 0;
#X connect 86 5 71 0;
#X connect 86 6 72 0;
#X connect 86 7 73 0;
#X connect 87 1 34 0;
#X connect 89 0 13 0;
