#N canvas 0 38 1512 884 12;
#X obj 76 386 osc~;
#X obj 78 357 +~, f 25;
#X obj 76 302 osc~;
#X floatatom 249 228 5 0 0 0 - - - 0;
#X obj 249 252 sig~;
#X floatatom 14 218 5 0 0 0 - - - 0;
#X obj 657 846 dac~, f 12;
#X obj 414 475 midsideencoder~, f 21;
#X obj 640 590 midsidedecoder~;
#X obj 76 329 *~, f 7;
#X floatatom 138 232 5 0 0 0 - - - 0;
#X obj 138 255 sig~;
#X obj 429 363 osc~;
#X obj 429 335 +~, f 28;
#X obj 428 289 osc~;
#X floatatom 628 237 5 0 0 0 - - - 0;
#X obj 628 260 sig~;
#X floatatom 391 238 5 0 0 0 - - - 0;
#X obj 428 313 *~, f 13;
#X floatatom 518 246 5 0 0 0 - - - 0;
#X obj 518 269 sig~;
#X obj 842 353 vd~ ok;
#X floatatom 842 193 5 0 0 0 - - - 0;
#X obj 841 321 line~;
#X obj 843 450 delwrite~ ok 2000;
#X obj 843 381 hip~ 500;
#X obj 843 421 *~ 0.95;
#X obj 754 544 *~, f 17;
#X obj 1022 421 *~;
#N canvas 0 38 450 300 random2000 0;
#X obj 117 53 tgl 15 0 empty empty empty 17 7 0 10 #fcfcfc #000000
#000000 0 1;
#X obj 117 73 metro 2000;
#X obj 117 97 random 100;
#X obj 117 213 outlet;
#X obj 117 169 bng 15 250 50 0 empty empty empty 17 7 0 10 #fcfcfc
#000000 #000000;
#X obj 117 189 random 2000;
#X obj 117 121 > 80;
#X obj 117 145 sel 1;
#X obj 113 15 loadbang;
#X connect 0 0 1 0;
#X connect 1 0 2 0;
#X connect 2 0 6 0;
#X connect 4 0 5 0;
#X connect 5 0 3 0;
#X connect 6 0 7 0;
#X connect 7 0 4 0;
#X connect 8 0 0 0;
#X restore 842 168 pd random2000;
#N canvas 0 38 450 300 random1 0;
#X obj 117 53 tgl 15 0 empty empty empty 17 7 0 10 #fcfcfc #000000
#000000 0 1;
#X obj 117 73 metro 2000;
#X obj 117 97 random 100;
#X obj 117 236 outlet;
#X obj 117 169 bng 15 250 50 0 empty empty empty 17 7 0 10 #fcfcfc
#000000 #000000;
#X obj 117 188 random 1000;
#X obj 117 212 / 1000;
#X obj 117 145 sel 1;
#X obj 117 121 > 30;
#X obj 113 15 loadbang;
#X connect 0 0 1 0;
#X connect 1 0 2 0;
#X connect 2 0 8 0;
#X connect 4 0 5 0;
#X connect 5 0 6 0;
#X connect 6 0 3 0;
#X connect 7 0 4 0;
#X connect 8 0 7 0;
#X connect 9 0 0 0;
#X restore 1022 313 pd random1;
#X floatatom 1022 337 5 0 0 0 - - - 0;
#X obj 1022 384 line~;
#X msg 1022 360 \$1 1000;
#N canvas 0 38 450 300 randomchoice 0;
#X obj 117 53 tgl 15 0 empty empty empty 17 7 0 10 #fcfcfc #000000
#000000 0 1;
#X obj 117 73 metro 2000;
#X obj 117 97 random 100;
#X obj 117 169 bng 15 250 50 0 empty empty empty 17 7 0 10 #fcfcfc
#000000 #000000;
#X obj 117 121 > 80;
#X obj 117 145 sel 1;
#X obj 117 28 loadbang;
#X msg 197 238 220;
#X msg 247 239 330;
#X msg 117 237 55;
#X msg 157 237 110;
#X msg 288 241 440;
#X msg 338 242 550;
#X obj 117 213 sel 0 1 2 3 4 5 6, f 44;
#X msg 379 242 660;
#X obj 117 188 random 7;
#X obj 117 261 outlet;
#X obj 288 43 inlet;
#X obj 288 67 tgl 15 0 empty empty empty 17 7 0 10 #fcfcfc #000000
#000000 0 1;
#X obj 249 89 spigot;
#X connect 0 0 1 0;
#X connect 1 0 19 0;
#X connect 2 0 4 0;
#X connect 3 0 15 0;
#X connect 4 0 5 0;
#X connect 5 0 3 0;
#X connect 6 0 0 0;
#X connect 7 0 16 0;
#X connect 8 0 16 0;
#X connect 9 0 16 0;
#X connect 10 0 16 0;
#X connect 11 0 16 0;
#X connect 12 0 16 0;
#X connect 13 0 9 0;
#X connect 13 1 10 0;
#X connect 13 2 7 0;
#X connect 13 3 8 0;
#X connect 13 4 11 0;
#X connect 13 5 12 0;
#X connect 13 6 14 0;
#X connect 14 0 16 0;
#X connect 15 0 13 0;
#X connect 17 0 18 0;
#X connect 18 0 19 1;
#X connect 19 0 2 0;
#X restore 14 144 pd randomchoice;
#X msg 14 168 \$1 300;
#X obj 14 192 line;
#N canvas 0 38 450 300 randomchoice 0;
#X obj 117 53 tgl 15 0 empty empty empty 17 7 0 10 #fcfcfc #000000
#000000 0 1;
#X obj 117 97 random 100;
#X obj 117 169 bng 15 250 50 0 empty empty empty 17 7 0 10 #fcfcfc
#000000 #000000;
#X obj 117 121 > 80;
#X obj 117 145 sel 1;
#X obj 117 28 loadbang;
#X msg 197 238 220;
#X msg 247 239 330;
#X msg 117 237 55;
#X msg 157 237 110;
#X msg 288 241 440;
#X msg 338 242 550;
#X obj 117 213 sel 0 1 2 3 4 5 6, f 44;
#X msg 379 242 660;
#X obj 117 188 random 7;
#X obj 117 261 outlet;
#X obj 116 73 metro 1500;
#X obj 288 43 inlet;
#X obj 288 67 tgl 15 0 empty empty empty 17 7 0 10 #fcfcfc #000000
#000000 0 1;
#X obj 249 89 spigot;
#X connect 0 0 16 0;
#X connect 1 0 3 0;
#X connect 2 0 14 0;
#X connect 3 0 4 0;
#X connect 4 0 2 0;
#X connect 5 0 0 0;
#X connect 6 0 15 0;
#X connect 7 0 15 0;
#X connect 8 0 15 0;
#X connect 9 0 15 0;
#X connect 10 0 15 0;
#X connect 11 0 15 0;
#X connect 12 0 8 0;
#X connect 12 1 9 0;
#X connect 12 2 6 0;
#X connect 12 3 7 0;
#X connect 12 4 10 0;
#X connect 12 5 11 0;
#X connect 12 6 13 0;
#X connect 13 0 15 0;
#X connect 14 0 12 0;
#X connect 16 0 19 0;
#X connect 17 0 18 0;
#X connect 18 0 19 1;
#X connect 19 0 1 0;
#X restore 251 156 pd randomchoice;
#X msg 251 180 \$1 300;
#X obj 251 204 line;
#N canvas 0 38 450 300 randomchoice 0;
#X obj 117 53 tgl 15 0 empty empty empty 17 7 0 10 #fcfcfc #000000
#000000 0 1;
#X obj 117 97 random 100;
#X obj 117 169 bng 15 250 50 0 empty empty empty 17 7 0 10 #fcfcfc
#000000 #000000;
#X obj 117 121 > 80;
#X obj 117 145 sel 1;
#X obj 117 28 loadbang;
#X msg 197 238 220;
#X msg 247 239 330;
#X msg 117 237 55;
#X msg 157 237 110;
#X msg 288 241 440;
#X msg 338 242 550;
#X obj 117 213 sel 0 1 2 3 4 5 6, f 44;
#X msg 379 242 660;
#X obj 117 188 random 7;
#X obj 117 261 outlet;
#X obj 117 73 metro 2500;
#X obj 288 43 inlet;
#X obj 288 67 tgl 15 0 empty empty empty 17 7 0 10 #fcfcfc #000000
#000000 0 1;
#X obj 249 89 spigot;
#X connect 0 0 16 0;
#X connect 1 0 3 0;
#X connect 2 0 14 0;
#X connect 3 0 4 0;
#X connect 4 0 2 0;
#X connect 5 0 0 0;
#X connect 6 0 15 0;
#X connect 7 0 15 0;
#X connect 8 0 15 0;
#X connect 9 0 15 0;
#X connect 10 0 15 0;
#X connect 11 0 15 0;
#X connect 12 0 8 0;
#X connect 12 1 9 0;
#X connect 12 2 6 0;
#X connect 12 3 7 0;
#X connect 12 4 10 0;
#X connect 12 5 11 0;
#X connect 12 6 13 0;
#X connect 13 0 15 0;
#X connect 14 0 12 0;
#X connect 16 0 19 0;
#X connect 17 0 18 0;
#X connect 18 0 19 1;
#X connect 19 0 1 0;
#X restore 391 166 pd randomchoice;
#X msg 391 190 \$1 300;
#X obj 391 214 line;
#N canvas 0 38 450 300 randomchoice 0;
#X obj 117 53 tgl 15 0 empty empty empty 17 7 0 10 #fcfcfc #000000
#000000 0 1;
#X obj 117 97 random 100;
#X obj 117 169 bng 15 250 50 0 empty empty empty 17 7 0 10 #fcfcfc
#000000 #000000;
#X obj 117 121 > 80;
#X obj 117 145 sel 1;
#X obj 117 28 loadbang;
#X msg 197 238 220;
#X msg 247 239 330;
#X msg 117 237 55;
#X msg 157 237 110;
#X msg 288 241 440;
#X msg 338 242 550;
#X obj 117 213 sel 0 1 2 3 4 5 6, f 44;
#X msg 379 242 660;
#X obj 117 188 random 7;
#X obj 117 261 outlet;
#X obj 117 73 metro 3000;
#X obj 288 43 inlet;
#X obj 288 67 tgl 15 0 empty empty empty 17 7 0 10 #fcfcfc #000000
#000000 0 1;
#X obj 249 89 spigot;
#X connect 0 0 16 0;
#X connect 1 0 3 0;
#X connect 2 0 14 0;
#X connect 3 0 4 0;
#X connect 4 0 2 0;
#X connect 5 0 0 0;
#X connect 6 0 15 0;
#X connect 7 0 15 0;
#X connect 8 0 15 0;
#X connect 9 0 15 0;
#X connect 10 0 15 0;
#X connect 11 0 15 0;
#X connect 12 0 8 0;
#X connect 12 1 9 0;
#X connect 12 2 6 0;
#X connect 12 3 7 0;
#X connect 12 4 10 0;
#X connect 12 5 11 0;
#X connect 12 6 13 0;
#X connect 13 0 15 0;
#X connect 14 0 12 0;
#X connect 16 0 19 0;
#X connect 17 0 18 0;
#X connect 18 0 19 1;
#X connect 19 0 1 0;
#X restore 628 165 pd randomchoice;
#X msg 628 189 \$1 300;
#X obj 628 213 line;
#X floatatom 518 174 5 0 0 0 - - - 0;
#N canvas 0 38 450 300 random2000 0;
#X obj 117 53 tgl 15 0 empty empty empty 17 7 0 10 #fcfcfc #000000
#000000 0 1;
#X obj 117 73 metro 2000;
#X obj 117 97 random 100;
#X obj 117 213 outlet;
#X obj 117 169 bng 15 250 50 0 empty empty empty 17 7 0 10 #fcfcfc
#000000 #000000;
#X obj 117 189 random 2000;
#X obj 117 121 > 80;
#X obj 117 145 sel 1;
#X obj 113 15 loadbang;
#X obj 288 43 inlet;
#X obj 288 67 tgl 15 0 empty empty empty 17 7 0 10 #fcfcfc #000000
#000000 0 1;
#X obj 249 89 spigot;
#X connect 0 0 1 0;
#X connect 1 0 11 0;
#X connect 2 0 6 0;
#X connect 4 0 5 0;
#X connect 5 0 3 0;
#X connect 6 0 7 0;
#X connect 7 0 4 0;
#X connect 8 0 0 0;
#X connect 9 0 10 0;
#X connect 10 0 11 1;
#X connect 11 0 2 0;
#X restore 518 149 pd random2000;
#X floatatom 139 162 5 0 0 0 - - - 0;
#N canvas 0 38 450 300 random2000 0;
#X obj 117 53 tgl 15 0 empty empty empty 17 7 0 10 #fcfcfc #000000
#000000 0 1;
#X obj 117 73 metro 2000;
#X obj 117 97 random 100;
#X obj 117 213 outlet;
#X obj 117 169 bng 15 250 50 0 empty empty empty 17 7 0 10 #fcfcfc
#000000 #000000;
#X obj 117 189 random 2000;
#X obj 117 121 > 80;
#X obj 117 145 sel 1;
#X obj 113 15 loadbang;
#X obj 288 43 inlet;
#X obj 288 67 tgl 15 0 empty empty empty 17 7 0 10 #fcfcfc #000000
#000000 0 1;
#X obj 249 89 spigot;
#X connect 0 0 1 0;
#X connect 1 0 11 0;
#X connect 2 0 6 0;
#X connect 4 0 5 0;
#X connect 5 0 3 0;
#X connect 6 0 7 0;
#X connect 7 0 4 0;
#X connect 8 0 0 0;
#X connect 9 0 10 0;
#X connect 10 0 11 1;
#X connect 11 0 2 0;
#X restore 139 137 pd random2000;
#X obj 139 209 line;
#X obj 518 221 line;
#X msg 139 185 \$1 800;
#X msg 518 197 \$1 1000;
#X obj 675 353 noise~;
#X obj 731 351 noise~;
#X obj 675 377 *~;
#X obj 675 426 *~ 0.02;
#X obj 675 401 hip~ 20000;
#X obj 842 216 t f b;
#X obj 874 264 + 200;
#X obj 874 240 random 800;
#X obj 842 290 pack, f 5;
#X obj 665 636 *~;
#X obj 721 639 *~;
#X obj 1185 798 pan~, f 25;
#X obj 1357 573 randwalk 1000 2000;
#X obj 1356 550 bng 15 250 50 0 empty empty empty 17 7 0 10 #fcfcfc
#000000 #000000;
#X obj 1356 523 loadbang;
#X obj 76 410 *~ 0.1;
#X obj 429 387 *~ 0.1;
#X obj 1185 822 *~ 0.5;
#X obj 1357 824 *~ 0.5;
#X obj 1360 597 hsl 128 15 -1 1 0 0 empty empty empty -2 -8 0 10 #fcfcfc
#000000 #000000 0 1;
#X obj 1224 633 bng 15 250 50 0 empty empty empty 17 7 0 10 #fcfcfc
#000000 #000000;
#X obj 1224 606 loadbang;
#X obj 1228 680 hsl 128 15 0 1 0 0 empty empty empty -2 -8 0 10 #fcfcfc
#000000 #000000 0 1;
#X obj 1225 656 randwalk 500 4000;
#X obj 1112 476 clip~ 0 1;
#X obj 1116 500 snapshotter~;
#X obj 1372 698 randwalk 1000 2000;
#X obj 1371 675 bng 15 250 50 0 empty empty empty 17 7 0 10 #fcfcfc
#000000 #000000;
#X obj 1371 648 loadbang;
#X obj 1375 722 hsl 128 15 0 1 0 0 empty empty empty -2 -8 0 10 #fcfcfc
#000000 #000000 0 1;
#X obj 1372 742 scaled 0 1 0 0.9;
#X obj 1185 774 echo~ 300 0.8, f 28;
#X obj 1223 748 scaled 0 1 20 500;
#X obj 1225 700 easeinoutcubic;
#X obj 1228 725 hsl 128 15 0 1 0 0 empty empty empty -2 -8 0 10 #fcfcfc
#000000 #000000 0 1;
#X obj 1155 198 maybe 0.5;
#X obj 1152 53 bng 15 250 50 0 empty empty empty 17 7 0 10 #fcfcfc
#000000 #000000;
#X obj 1152 77 t b b b;
#X obj 1202 103 random 500;
#X obj 1180 160 del;
#X obj 1270 68 spigot;
#X obj 1309 47 tgl 15 0 empty empty empty 17 7 0 10 #fcfcfc #000000
#000000 0 1;
#X obj 1202 127 + 20;
#X obj 1328 40 loadbang;
#X msg 1328 64 1;
#X obj 27 830 echo~ 250 0.5;
#X obj 141 714 tgl 15 0 empty empty empty 17 7 0 10 #fcfcfc #000000
#000000 0 1;
#X obj 141 731 sel 0 1;
#X msg 141 753 0;
#X msg 171 753 0.5;
#X obj 122 830 echo~ 250 0.5;
#X obj 13 120 tgl 15 0 empty empty empty 17 7 0 10 #fcfcfc #000000
#000000 0 1;
#X obj 140 116 tgl 15 0 empty empty empty 17 7 0 10 #fcfcfc #000000
#000000 0 1;
#X obj 252 138 tgl 15 0 empty empty empty 17 7 0 10 #fcfcfc #000000
#000000 0 1;
#X obj 518 128 tgl 15 0 empty empty empty 17 7 0 10 #fcfcfc #000000
#000000 0 1;
#X obj 392 146 tgl 15 0 empty empty empty 17 7 0 10 #fcfcfc #000000
#000000 0 1;
#X obj 631 145 tgl 15 0 empty empty empty 17 7 0 10 #fcfcfc #000000
#000000 0 1;
#X obj 386 6 loadbang;
#X obj 1185 846 dac~, f 26;
#X obj 27 854 dac~, f 14;
#X obj 386 30 tgl 15 0 empty empty empty 17 7 0 10 #fcfcfc #000000
#000000 0 1;
#X obj 1155 223 envgen~ 1 5 0.7 20 1 200 0 3;
#X obj 378 602 osc~ 550;
#X obj 152 592 *~ 0.1;
#X obj 378 626 *~ 0.1;
#X obj 438 602 osc~ 660;
#X obj 92 568 osc~ 770;
#X obj 39 617 *~, f 16;
#X obj 359 650 *~;
#X obj 29 478 tgl 15 0 empty empty empty 17 7 0 10 #fcfcfc #000000
#000000 0 1;
#X obj 29 522 line~;
#X obj 345 513 tgl 15 0 empty empty empty 17 7 0 10 #fcfcfc #000000
#000000 0 1;
#X obj 345 557 line~;
#X msg 345 533 \$1 500;
#X msg 29 498 \$1 500;
#X obj 152 568 osc~ 880;
#X obj 141 666 loadbang;
#X msg 141 690 1;
#X connect 0 0 69 0;
#X connect 1 0 0 0;
#X connect 2 0 9 0;
#X connect 3 0 4 0;
#X connect 4 0 1 1;
#X connect 5 0 2 0;
#X connect 7 0 8 0;
#X connect 7 1 24 0;
#X connect 7 1 27 0;
#X connect 8 0 63 0;
#X connect 8 1 64 0;
#X connect 9 0 1 0;
#X connect 10 0 11 0;
#X connect 11 0 9 1;
#X connect 12 0 70 0;
#X connect 13 0 12 0;
#X connect 14 0 18 0;
#X connect 15 0 16 0;
#X connect 16 0 13 1;
#X connect 17 0 14 0;
#X connect 18 0 13 0;
#X connect 19 0 20 0;
#X connect 20 0 18 1;
#X connect 21 0 25 0;
#X connect 22 0 59 0;
#X connect 23 0 21 0;
#X connect 25 0 26 0;
#X connect 25 0 27 0;
#X connect 26 0 24 0;
#X connect 27 0 8 1;
#X connect 28 0 27 1;
#X connect 29 0 22 0;
#X connect 30 0 31 0;
#X connect 31 0 33 0;
#X connect 32 0 28 0;
#X connect 32 0 28 1;
#X connect 33 0 32 0;
#X connect 34 0 35 0;
#X connect 35 0 36 0;
#X connect 36 0 5 0;
#X connect 37 0 38 0;
#X connect 38 0 39 0;
#X connect 39 0 3 0;
#X connect 40 0 41 0;
#X connect 41 0 42 0;
#X connect 42 0 17 0;
#X connect 43 0 44 0;
#X connect 44 0 45 0;
#X connect 45 0 15 0;
#X connect 46 0 53 0;
#X connect 47 0 46 0;
#X connect 48 0 52 0;
#X connect 49 0 48 0;
#X connect 50 0 10 0;
#X connect 51 0 19 0;
#X connect 52 0 50 0;
#X connect 53 0 51 0;
#X connect 54 0 56 0;
#X connect 55 0 56 1;
#X connect 56 0 58 0;
#X connect 57 0 27 0;
#X connect 58 0 57 0;
#X connect 59 0 62 0;
#X connect 59 1 61 0;
#X connect 60 0 62 1;
#X connect 61 0 60 0;
#X connect 62 0 23 0;
#X connect 63 0 85 0;
#X connect 63 0 6 0;
#X connect 63 0 99 0;
#X connect 64 0 85 0;
#X connect 64 0 6 1;
#X connect 64 0 104 0;
#X connect 65 0 71 0;
#X connect 65 1 72 0;
#X connect 66 0 73 0;
#X connect 66 1 67 0;
#X connect 67 0 66 0;
#X connect 68 0 67 0;
#X connect 69 0 7 0;
#X connect 70 0 7 1;
#X connect 71 0 112 0;
#X connect 72 0 112 1;
#X connect 73 0 65 1;
#X connect 74 0 77 0;
#X connect 75 0 74 0;
#X connect 76 0 87 0;
#X connect 77 0 76 0;
#X connect 77 1 74 0;
#X connect 78 0 63 1;
#X connect 78 0 64 1;
#X connect 78 0 79 0;
#X connect 80 0 83 0;
#X connect 80 1 81 0;
#X connect 81 0 80 0;
#X connect 82 0 81 0;
#X connect 83 0 84 0;
#X connect 84 0 85 2;
#X connect 85 0 65 0;
#X connect 86 0 85 1;
#X connect 87 0 88 0;
#X connect 88 0 86 0;
#X connect 89 0 115 0;
#X connect 90 0 91 0;
#X connect 91 0 89 0;
#X connect 91 1 93 0;
#X connect 91 2 92 0;
#X connect 92 0 96 0;
#X connect 93 0 94 0;
#X connect 94 0 90 0;
#X connect 95 0 94 1;
#X connect 96 0 93 1;
#X connect 97 0 98 0;
#X connect 97 0 90 0;
#X connect 98 0 95 0;
#X connect 99 0 113 0;
#X connect 100 0 101 0;
#X connect 101 0 102 0;
#X connect 101 1 103 0;
#X connect 102 0 99 2;
#X connect 102 0 104 2;
#X connect 103 0 99 2;
#X connect 103 0 104 2;
#X connect 104 0 113 1;
#X connect 105 0 34 0;
#X connect 106 0 49 0;
#X connect 107 0 37 0;
#X connect 108 0 47 0;
#X connect 109 0 40 0;
#X connect 110 0 43 0;
#X connect 111 0 114 0;
#X connect 114 0 109 0;
#X connect 114 0 105 0;
#X connect 114 0 106 0;
#X connect 114 0 107 0;
#X connect 114 0 108 0;
#X connect 114 0 110 0;
#X connect 115 0 78 0;
#X connect 116 0 118 0;
#X connect 117 0 121 1;
#X connect 118 0 122 1;
#X connect 119 0 118 0;
#X connect 120 0 117 0;
#X connect 121 0 7 0;
#X connect 122 0 7 1;
#X connect 123 0 128 0;
#X connect 124 0 121 0;
#X connect 125 0 127 0;
#X connect 126 0 122 0;
#X connect 127 0 126 0;
#X connect 128 0 124 0;
#X connect 129 0 117 0;
#X connect 130 0 131 0;
#X connect 131 0 100 0;
