#N canvas 477 277 450 300 12;
#X floatatom 148 60 5 0 1000 0 - - - 0;
#X floatatom 188 60 5 0 1000 0 - - - 0;
#X floatatom 228 60 5 0 1000 0 - - - 0;
#X obj 148 147 *~ 1;
#X obj 280 145 *~ 1;
#X obj 180 210 out~;
#X obj 148 107 *~ 0.75;
#X obj 228 107 *~ 0.75;
#X obj 148 83 osc~;
#X obj 188 83 osc~;
#X obj 228 83 osc~;
#X obj 148 171 clip~ -0.5 0.5;
#X obj 280 169 clip~ -0.5 0.5;
#X connect 0 0 8 0;
#X connect 1 0 9 0;
#X connect 2 0 10 0;
#X connect 3 0 11 0;
#X connect 4 0 12 0;
#X connect 6 0 3 0;
#X connect 7 0 4 0;
#X connect 8 0 6 0;
#X connect 9 0 3 0;
#X connect 9 0 4 0;
#X connect 10 0 7 0;
#X connect 11 0 5 0;
#X connect 12 0 5 1;
