#N canvas 0 38 1512 884 12;
#X obj 343 791 out~;
#X obj 341 35 bng 15 250 50 0 empty empty empty 17 7 0 10 #fcfcfc #000000
#000000;
#X obj 334 641 pingpong~ 2000 0.9;
#X obj 341 78 msphsl 0 1;
#X obj 688 284 hip~ 500;
#X obj 708 308 echo~ 1 0.9;
#X obj 680 444 distortion~;
#X obj 680 520 *~;
#X obj 724 478 msphsl 0 1;
#X obj 724 501 sig~;
#X obj 457 618 msphsl 0 0.9;
#X obj 754 423 msphsl 0 0.9;
#X obj 341 54 randwalk 50000 200000;
#X floatatom 373 316 5 0 0 0 - - - 0;
#X floatatom 846 236 5 0 0 0 - - - 0;
#X floatatom 395 582 5 0 0 0 - - - 0;
#X obj 819 303 msphsl 50 20000;
#X floatatom 295 293 5 0 0 0 - - - 0;
#X floatatom 765 209 5 0 0 0 - - - 0;
#X obj 401 223 scaled 0 1 200 300;
#X obj 402 175 bng 15 250 50 0 empty empty empty 17 7 0 10 #fcfcfc
#000000 #000000;
#X obj 691 62 bng 15 250 50 0 empty empty empty 17 7 0 10 #fcfcfc #000000
#000000;
#X obj 690 110 scaled 0 1 50 500;
#X obj 690 86 randwalk 2000 10000;
#X obj 401 199 randwalk 2000 4000;
#X obj 784 609 crackle~;
#X obj 784 657 hip~ 10000;
#X obj 660 601 crackle~;
#X obj 660 649 hip~ 15000;
#X obj 660 673 *~;
#X obj 784 683 *~;
#X obj 781 782 msphsl 0 1;
#X obj 781 805 sig~;
#X obj 1142 112 __audioclip_load mazurka 105863;
#X obj 1142 131 audioclip~ mazurka 105863;
#X obj 688 258 granulator~ mazurka 105863;
#X obj 215 339 granulator~ mazurka 105863;
#X connect 1 0 12 0;
#X connect 2 0 0 0;
#X connect 2 1 0 1;
#X connect 3 0 35 0;
#X connect 3 0 36 0;
#X connect 4 0 5 0;
#X connect 4 0 6 0;
#X connect 5 0 6 0;
#X connect 6 0 7 0;
#X connect 7 0 2 0;
#X connect 8 0 9 0;
#X connect 9 0 7 1;
#X connect 10 0 2 2;
#X connect 11 0 6 1;
#X connect 12 0 3 0;
#X connect 12 1 1 0;
#X connect 13 0 36 2;
#X connect 14 0 35 2;
#X connect 15 0 2 1;
#X connect 16 0 4 1;
#X connect 17 0 36 1;
#X connect 18 0 35 1;
#X connect 19 0 17 0;
#X connect 20 0 24 0;
#X connect 21 0 23 0;
#X connect 22 0 18 0;
#X connect 23 0 22 0;
#X connect 23 1 21 0;
#X connect 24 0 19 0;
#X connect 24 1 20 0;
#X connect 25 0 26 0;
#X connect 26 0 30 0;
#X connect 27 0 28 0;
#X connect 28 0 29 0;
#X connect 29 0 0 0;
#X connect 30 0 0 1;
#X connect 31 0 32 0;
#X connect 32 0 30 1;
#X connect 32 0 29 1;
#X connect 35 0 4 0;
#X connect 36 0 0 0;
#X connect 36 0 0 1;
#X connect 36 0 2 0;
