#N canvas 0 38 1512 884 12;
#X obj 343 791 out~;
#X obj 341 35 bng 15 250 50 0 empty empty empty 17 7 0 10 #fcfcfc #000000
#000000;
#X obj 334 641 pingpong~ 2000 0.9;
#X obj 341 78 msphsl 0 1;
#X obj 688 284 hip~ 500;
#X obj 680 444 distortion~;
#X obj 680 520 *~;
#X obj 724 478 msphsl 0 1;
#X obj 724 501 sig~;
#X obj 457 618 msphsl 0 0.9;
#X obj 754 423 msphsl 0 0.9;
#X floatatom 447 344 5 0 0 0 - - - 0;
#X floatatom 846 236 5 0 0 0 - - - 0;
#X floatatom 395 582 5 0 0 0 - - - 0;
#X obj 819 303 msphsl 50 20000;
#X floatatom 339 341 5 0 0 0 - - - 0;
#X floatatom 765 209 5 0 0 0 - - - 0;
#X obj 339 249 bng 15 250 50 0 empty empty empty 17 7 0 10 #fcfcfc
#000000 #000000;
#X obj 690 66 bng 15 250 50 0 empty empty empty 17 7 0 10 #fcfcfc #000000
#000000;
#X obj 690 133 scaled 0 1 50 500;
#X obj 690 86 randwalk 2000 10000;
#X obj 339 269 randwalk 2000 4000;
#X obj 784 609 crackle~;
#X obj 784 657 hip~ 10000;
#X obj 660 601 crackle~;
#X obj 660 649 hip~ 15000;
#X obj 660 673 *~;
#X obj 784 683 *~;
#X obj 781 782 msphsl 0 1;
#X obj 781 805 sig~;
#X obj 339 293 msphsl 0 1;
#X obj 690 110 msphsl 0 1;
#X obj 1142 112 __audioclip_load dolly 41748;
#X obj 1142 131 audioclip~ dolly 41748;
#X obj 688 258 granulator~ dolly 41748;
#X obj 289 367 granulator~ dolly 41748;
#X obj 341 12 loadbang;
#X obj 339 226 loadbang;
#X obj 386 513 loadbang;
#X msg 386 537 2000;
#X obj 321 565 * 0.1;
#X obj 147 568 *~ 0.4;
#X obj 147 544 echo~ 2000 0.6;
#X obj 219 449 *~ 1;
#X obj 341 54 randwalk 1000 5000;
#X obj 339 316 scaled 0 1 200 500;
#X connect 1 0 44 0;
#X connect 2 0 0 0;
#X connect 2 1 0 1;
#X connect 3 0 35 0;
#X connect 3 0 34 0;
#X connect 4 0 5 0;
#X connect 5 0 6 0;
#X connect 6 0 43 0;
#X connect 7 0 8 0;
#X connect 8 0 6 1;
#X connect 9 0 2 2;
#X connect 10 0 5 1;
#X connect 11 0 35 2;
#X connect 12 0 34 2;
#X connect 13 0 2 1;
#X connect 13 0 40 0;
#X connect 14 0 4 1;
#X connect 15 0 35 1;
#X connect 16 0 34 1;
#X connect 17 0 21 0;
#X connect 18 0 20 0;
#X connect 19 0 16 0;
#X connect 20 0 31 0;
#X connect 20 1 18 0;
#X connect 21 0 30 0;
#X connect 21 1 17 0;
#X connect 22 0 23 0;
#X connect 23 0 27 0;
#X connect 24 0 25 0;
#X connect 25 0 26 0;
#X connect 26 0 0 0;
#X connect 27 0 0 1;
#X connect 28 0 29 0;
#X connect 29 0 27 1;
#X connect 29 0 26 1;
#X connect 30 0 45 0;
#X connect 31 0 19 0;
#X connect 34 0 4 0;
#X connect 35 0 43 0;
#X connect 36 0 1 0;
#X connect 37 0 17 0;
#X connect 38 0 39 0;
#X connect 39 0 13 0;
#X connect 40 0 42 1;
#X connect 41 0 0 0;
#X connect 41 0 0 1;
#X connect 42 0 41 0;
#X connect 43 0 2 0;
#X connect 43 0 42 0;
#X connect 44 0 3 0;
#X connect 44 1 1 0;
#X connect 45 0 15 0;
