#N canvas 625 210 303 287 12;
#X obj 134 29 inlet;
#X obj 43 216 f, f 18;
#X obj 43 240 outlet;
#X obj 43 16 loadbang;
#X obj 43 40 metro \$1;
#X obj 43 114 spigot;
#X obj 134 53 t b f;
#X msg 134 77 1;
#X obj 43 138 t b b;
#X msg 122 122 0;
#X connect 0 0 6 0;
#X connect 1 0 2 0;
#X connect 3 0 4 0;
#X connect 4 0 5 0;
#X connect 5 0 8 0;
#X connect 6 0 7 0;
#X connect 6 1 1 1;
#X connect 7 0 5 1;
#X connect 8 0 1 0;
#X connect 8 1 9 0;
#X connect 9 0 5 1;
