#N canvas 0 38 1512 884 12;
#X obj 363 21 normalizedkeyboard;
#X obj 360 433 throwoutc~;
#X obj 894 639 catchout~;
#X obj 326 386 string~.voice;
#X obj 421 386 string~.voice;
#X obj 516 386 string~.voice;
#X obj 363 326 pack f f f;
#X obj 364 187 unpack f f;
#X obj 363 230 scaled 0 1 20 100;
#X obj 363 278 pack f f, f 10;
#X obj 611 386 string~.voice;
#X obj 363 350 route 1 2 3 4, f 29;
#X obj 515 437 throwbusc~ 1;
#X obj 827 63 catchbus~ 1;
#X obj 827 108 hip~ 800;
#X obj 827 156 throwout~;
#X obj 827 132 pingpong~ 80 0.6;
#X obj 210 22 tgl 19 0 empty empty empty 0 -10 0 12 #fcfcfc #000000 #000000 0 1;
#X floatatom 210 70 5 0 0 0 - - - 0;
#X obj 210 93 s step;
#X obj 472 21 r step;
#X obj 363 66 midisequencer 8;
#X obj 210 46 metronome 80 64;
#X obj 725 302 r step;
#X obj 725 350 sel 0;
#X msg 725 374 velocity 1;
#X obj 725 398 kick~;
#X obj 725 563 throwoutc~;
#X obj 981 313 % 2;
#X obj 981 337 sel 0;
#X msg 981 361 velocity 1;
#X obj 981 385 hh~;
#X obj 981 488 throwoutc~;
#X obj 95 308 normalizedkeyboard;
#X msg 95 555 velocity \$1;
#X obj 95 579 snare~;
#X obj 95 736 throwoutc~;
#X obj 95 467 unpack f f;
#X obj 95 491 spigot, f 10;
#X obj 95 368 midisequencer 2;
#X obj 212 328 r step;
#X obj 363 254 quantizedmode ionian 57;
#X floatatom 910 109 5 0 0 0 - - - 0;
#X obj 963 110 msphsl 0 1;
#X obj 894 681 compressor2~;
#X obj 894 705 out~;
#X obj 363 302 poly 4 1, f 10;
#X obj 503 488 normalizedkeyboard;
#X obj 501 621 unpack f f;
#X obj 501 645 scaled 0 1 20 100;
#X obj 501 693 pack f f, f 10;
#X obj 620 489 r step;
#X obj 502 538 midisequencer 8;
#X obj 501 669 quantizedmode ionian 57;
#X obj 501 717 poly 1 1, f 10;
#X obj 539 799 square~;
#X obj 686 719 wobble;
#X obj 535 742 mtof;
#X obj 539 823 *~;
#X obj 528 856 throwoutc~;
#X obj 535 766 sig~;
#X msg 324 539 duration \$1;
#X obj 686 743 scaled 0 1 0.3 0.7;
#X obj 616 759 saw~;
#X obj 616 783 level~;
#X obj 616 735 *~ 2.02;
#X obj 1078 553 throwbusc~ 1;
#X obj 324 515 * 5000;
#X obj 584 831 adsr~ 50 50 0.25 1000;
#X obj 725 326 % 8;
#X msg 566 288 stop;
#X connect 0 0 21 0;
#X connect 2 0 44 0;
#X connect 2 1 44 1;
#X connect 3 0 1 0;
#X connect 3 0 12 0;
#X connect 4 0 1 0;
#X connect 4 0 12 0;
#X connect 5 0 1 0;
#X connect 5 0 12 0;
#X connect 6 0 11 0;
#X connect 7 0 8 0;
#X connect 7 1 9 1;
#X connect 8 0 41 0;
#X connect 9 0 46 0;
#X connect 10 0 1 0;
#X connect 10 0 12 0;
#X connect 11 0 3 0;
#X connect 11 1 4 0;
#X connect 11 2 5 0;
#X connect 11 3 10 0;
#X connect 13 0 14 0;
#X connect 14 0 16 0;
#X connect 16 0 15 0;
#X connect 16 1 15 1;
#X connect 17 0 22 0;
#X connect 18 0 19 0;
#X connect 20 0 21 1;
#X connect 21 0 7 0;
#X connect 21 1 46 0;
#X connect 22 0 18 0;
#X connect 23 0 28 0;
#X connect 23 0 69 0;
#X connect 24 0 25 0;
#X connect 25 0 26 0;
#X connect 26 0 27 0;
#X connect 26 0 12 0;
#X connect 28 0 29 0;
#X connect 29 0 30 0;
#X connect 30 0 31 0;
#X connect 31 0 32 0;
#X connect 31 0 66 0;
#X connect 33 0 39 0;
#X connect 34 0 35 0;
#X connect 35 0 36 0;
#X connect 35 0 66 0;
#X connect 37 0 38 0;
#X connect 37 1 38 1;
#X connect 38 0 34 0;
#X connect 38 0 67 0;
#X connect 39 0 37 0;
#X connect 40 0 39 1;
#X connect 41 0 9 0;
#X connect 42 0 16 1;
#X connect 43 0 16 2;
#X connect 44 0 45 0;
#X connect 44 1 45 1;
#X connect 46 0 6 0;
#X connect 46 1 6 1;
#X connect 46 2 6 2;
#X connect 47 0 52 0;
#X connect 48 0 49 0;
#X connect 48 1 50 1;
#X connect 49 0 53 0;
#X connect 50 0 54 0;
#X connect 51 0 52 1;
#X connect 52 0 48 0;
#X connect 52 1 54 0;
#X connect 53 0 50 0;
#X connect 54 1 57 0;
#X connect 54 2 68 0;
#X connect 55 0 58 0;
#X connect 56 0 62 0;
#X connect 57 0 60 0;
#X connect 58 0 59 0;
#X connect 58 0 12 0;
#X connect 60 0 55 0;
#X connect 60 0 65 0;
#X connect 61 0 35 0;
#X connect 62 0 55 1;
#X connect 63 0 64 0;
#X connect 64 0 58 0;
#X connect 65 0 63 0;
#X connect 67 0 61 0;
#X connect 68 0 58 1;
#X connect 69 0 24 0;
#X connect 70 0 46 0;
