#N canvas 583 174 450 300 12;
#X obj 163 45 tgl 15 0 empty empty empty 17 7 0 10 -262144 -1 -1 0
1;
#X obj 163 65 metro 100;
#X obj 163 89 f;
#X obj 193 89 + 1;
#X obj 163 113 % 2;
#X obj 163 137 sig~;
#X obj 163 185 *~;
#X obj 181 161 osc~ 2500;
#X obj 163 209 *~ 0.2;
#X obj 163 233 dac~;
#X connect 0 0 1 0;
#X connect 1 0 2 0;
#X connect 2 0 3 0;
#X connect 2 0 4 0;
#X connect 3 0 2 1;
#X connect 4 0 5 0;
#X connect 5 0 6 0;
#X connect 6 0 8 0;
#X connect 7 0 6 1;
#X connect 8 0 9 0;
#X connect 8 0 9 1;
