#N canvas 31 122 1220 549 12;
#X obj 47 54 osc~ 350;
#X obj 65 78 osc~ 440;
#X obj 47 102 +~;
#X obj 47 126 *~, f 18;
#X obj 170 102 sig~;
#N canvas 0 25 450 300 telephoneline 0;
#X obj 37 37 inlet~;
#X obj 37 250 outlet~;
#X obj 37 61 clip~ -0.9 0.9;
#X obj 37 85 bp~ 2000 12;
#X obj 37 134 *~ 0.5;
#X obj 37 158 bp~ 400 3;
#X obj 37 202 hip~ 90;
#X obj 37 226 hip~ 90;
#X obj 107 134 clip~ -0.4 0.4;
#X obj 107 158 *~ 0.15;
#X connect 0 0 2 0;
#X connect 2 0 3 0;
#X connect 3 0 4 0;
#X connect 3 0 8 0;
#X connect 4 0 5 0;
#X connect 5 0 6 0;
#X connect 6 0 7 0;
#X connect 7 0 1 0;
#X connect 8 0 9 0;
#X connect 9 0 6 0;
#X restore 47 150 pd telephoneline;
#X obj 47 174 dac~;
#X text 52 14 Dial tone;
#X text 426 16 Ringing tone;
#X obj 442 71 metro 1000;
#X obj 442 95 i;
#X obj 472 95 + 1;
#X obj 442 119 % 6;
#X obj 442 143 > 2;
#X obj 442 167 sig~;
#X obj 442 191 lop~ 100;
#X obj 424 215 *~;
#X obj 424 239 *~;
#N canvas 0 25 450 300 telephoneline 0;
#X obj 167 27 inlet~;
#X obj 167 240 outlet~;
#X obj 167 51 clip~ -0.9 0.9;
#X obj 167 75 bp~ 2000 12;
#X obj 167 124 *~ 0.5;
#X obj 167 148 bp~ 400 3;
#X obj 167 192 hip~ 90;
#X obj 167 216 hip~ 90;
#X obj 237 124 clip~ -0.4 0.4;
#X obj 237 148 *~ 0.15;
#X connect 0 0 2 0;
#X connect 2 0 3 0;
#X connect 3 0 4 0;
#X connect 3 0 8 0;
#X connect 4 0 5 0;
#X connect 5 0 6 0;
#X connect 6 0 7 0;
#X connect 7 0 1 0;
#X connect 8 0 9 0;
#X connect 9 0 6 0;
#X restore 424 263 pd telephoneline;
#X obj 424 287 dac~;
#X obj 555 160 tgl 15 0 empty empty empty 17 7 0 10 -262144 -1 -1 0
1;
#X obj 555 180 sig~;
#X obj 350 111 osc~ 440;
#X obj 332 87 osc~ 480;
#X obj 332 135 +~;
#X obj 695 77 osc~ 480;
#X obj 695 125 +~;
#X obj 713 101 osc~ 620;
#X obj 695 149 *~, f 14;
#X obj 695 197 *~ 0.1;
#X obj 695 221 dac~;
#X obj 790 53 osc~ 2;
#X obj 790 77 *~ 10000;
#X obj 790 101 clip~ 0 1;
#X obj 790 125 lop~ 100;
#X obj 902 110 tgl 15 0 empty empty empty 17 7 0 10 -262144 -1 -1 0
1;
#X obj 902 130 sig~;
#X obj 695 173 *~, f 30;
#X obj 442 47 loadbang;
#X text 776 21 Busy tone;
#X obj 1053 88 t b f, f 6;
#X obj 1092 112 * 100;
#X obj 1092 136 del;
#X msg 1092 160 0;
#X obj 1053 184 metro 100;
#X obj 1053 208 t b b;
#X msg 1053 160 1;
#X obj 1053 256 + 1;
#X obj 1083 256 == 0;
#X obj 1053 280 sig~;
#N canvas 0 25 450 300 telephoneline 0;
#X obj 37 37 inlet~;
#X obj 37 250 outlet~;
#X obj 37 61 clip~ -0.9 0.9;
#X obj 37 85 bp~ 2000 12;
#X obj 37 134 *~ 0.5;
#X obj 37 158 bp~ 400 3;
#X obj 37 202 hip~ 90;
#X obj 37 226 hip~ 90;
#X obj 107 134 clip~ -0.4 0.4;
#X obj 107 158 *~ 0.15;
#X connect 0 0 2 0;
#X connect 2 0 3 0;
#X connect 3 0 4 0;
#X connect 3 0 8 0;
#X connect 4 0 5 0;
#X connect 5 0 6 0;
#X connect 6 0 7 0;
#X connect 7 0 1 0;
#X connect 8 0 9 0;
#X connect 9 0 6 0;
#X restore 1053 304 pd telephoneline;
#X obj 1053 328 *~ 0.8;
#X obj 1053 352 dac~;
#X msg 1053 64 1;
#X msg 1083 64 5;
#X msg 1113 64 7;
#X obj 1085 232 del 40;
#X text 1060 24 Pulse dial;
#X obj 170 82 tgl 15 0 empty empty empty 17 7 0 10 -262144 -1 -1 0
1;
#X connect 0 0 2 0;
#X connect 1 0 2 1;
#X connect 2 0 3 0;
#X connect 3 0 5 0;
#X connect 4 0 3 1;
#X connect 5 0 6 0;
#X connect 5 0 6 1;
#X connect 9 0 10 0;
#X connect 10 0 11 0;
#X connect 10 0 12 0;
#X connect 11 0 10 1;
#X connect 12 0 13 0;
#X connect 13 0 14 0;
#X connect 14 0 15 0;
#X connect 15 0 16 1;
#X connect 16 0 17 0;
#X connect 17 0 18 0;
#X connect 18 0 19 0;
#X connect 18 0 19 1;
#X connect 20 0 21 0;
#X connect 21 0 17 1;
#X connect 22 0 24 1;
#X connect 23 0 24 0;
#X connect 24 0 16 0;
#X connect 25 0 26 0;
#X connect 26 0 28 0;
#X connect 27 0 26 1;
#X connect 28 0 37 0;
#X connect 29 0 30 0;
#X connect 29 0 30 1;
#X connect 31 0 32 0;
#X connect 32 0 33 0;
#X connect 33 0 34 0;
#X connect 34 0 28 1;
#X connect 35 0 36 0;
#X connect 36 0 37 1;
#X connect 37 0 29 0;
#X connect 38 0 9 0;
#X connect 40 0 46 0;
#X connect 40 1 41 0;
#X connect 41 0 42 0;
#X connect 42 0 43 0;
#X connect 43 0 44 0;
#X connect 44 0 45 0;
#X connect 45 0 47 0;
#X connect 45 1 56 0;
#X connect 46 0 44 0;
#X connect 47 0 48 0;
#X connect 47 0 49 0;
#X connect 48 0 47 1;
#X connect 49 0 50 0;
#X connect 50 0 51 0;
#X connect 51 0 52 0;
#X connect 51 0 52 1;
#X connect 53 0 40 0;
#X connect 54 0 40 0;
#X connect 55 0 40 0;
#X connect 56 0 47 0;
#X connect 58 0 4 0;
